<svg width="303" height="1570" viewBox="0 0 303 1570" fill="none" xmlns="http://www.w3.org/2000/svg">
<rect y="34" width="303" height="1536" fill="#EB5757"/>
<path d="M128.875 660.094H114.938V698H105.562V660.094H91.8125V652.5H128.875V660.094ZM171.281 698H161.906V678.5H143.625V698H134.25V652.5H143.625V670.938H161.906V652.5H171.281V698ZM206.875 678.281H188.875V690.469H210V698H179.5V652.5H209.938V660.094H188.875V670.938H206.875V678.281ZM94.5938 758.344H87.125V775H77.75V729.5H94.6562C100.031 729.5 104.177 730.698 107.094 733.094C110.01 735.49 111.469 738.875 111.469 743.25C111.469 746.354 110.792 748.948 109.438 751.031C108.104 753.094 106.073 754.74 103.344 755.969L113.188 774.562V775H103.125L94.5938 758.344ZM87.125 750.75H94.6875C97.0417 750.75 98.8646 750.156 100.156 748.969C101.448 747.76 102.094 746.104 102.094 744C102.094 741.854 101.479 740.167 100.25 738.938C99.0417 737.708 97.1771 737.094 94.6562 737.094H87.125V750.75ZM146 755.281H128V767.469H149.125V775H118.625V729.5H149.062V737.094H128V747.938H146V755.281ZM180.312 765.625H163.875L160.75 775H150.781L167.719 729.5H176.406L193.438 775H183.469L180.312 765.625ZM166.406 758.031H177.781L172.062 741L166.406 758.031ZM207.062 767.469H226.969V775H197.688V729.5H207.062V767.469Z" fill="white"/>
<path d="M92.6255 846.973H74.3442V859.351H95.7993V867H64.8228V820.789H95.7358V828.501H74.3442V839.515H92.6255V846.973ZM117.921 836.722L126.585 820.789H137.535L124.078 843.704L137.884 867H126.808L117.921 850.813L109.034 867H97.9575L111.764 843.704L98.3066 820.789H109.256L117.921 836.722ZM152.23 850.718V867H142.708V820.789H160.736C164.206 820.789 167.253 821.424 169.876 822.693C172.521 823.963 174.553 825.772 175.97 828.121C177.388 830.448 178.097 833.104 178.097 836.087C178.097 840.615 176.542 844.191 173.431 846.814C170.342 849.417 166.057 850.718 160.577 850.718H152.23ZM152.23 843.006H160.736C163.254 843.006 165.169 842.413 166.48 841.229C167.813 840.044 168.48 838.351 168.48 836.15C168.48 833.886 167.813 832.056 166.48 830.66C165.147 829.263 163.307 828.544 160.958 828.501H152.23V843.006ZM212.469 846.973H194.188V859.351H215.643V867H184.667V820.789H215.58V828.501H194.188V839.515H212.469V846.973ZM238.463 850.909H220.594V843.514H238.463V850.909ZM61.7124 907.083H54.127V924H44.6055V877.789H61.7759C67.2349 877.789 71.4455 879.006 74.4077 881.439C77.37 883.872 78.8511 887.311 78.8511 891.754C78.8511 894.907 78.1634 897.541 76.7881 899.657C75.4339 901.751 73.3709 903.423 70.5991 904.671L80.5967 923.556V924H70.377L61.7124 907.083ZM54.127 899.371H61.8076C64.1986 899.371 66.05 898.768 67.3618 897.562C68.6737 896.335 69.3296 894.653 69.3296 892.516C69.3296 890.336 68.7054 888.622 67.457 887.374C66.2298 886.126 64.3361 885.501 61.7759 885.501H54.127V899.371ZM96.2437 924H86.7222V877.789H96.2437V924ZM132.901 903.973H114.62V916.351H136.075V924H105.099V877.789H136.012V885.501H114.62V896.515H132.901V903.973ZM179.239 924H169.718L151.183 893.595V924H141.661V877.789H151.183L169.75 908.258V877.789H179.239V924ZM223.832 908.607C223.472 913.579 221.631 917.494 218.309 920.35C215.008 923.207 210.65 924.635 205.233 924.635C199.308 924.635 194.643 922.646 191.236 918.668C187.851 914.669 186.158 909.189 186.158 902.228V899.403C186.158 894.959 186.941 891.045 188.507 887.66C190.073 884.274 192.305 881.682 195.204 879.884C198.124 878.064 201.509 877.154 205.36 877.154C210.692 877.154 214.987 878.583 218.246 881.439C221.504 884.295 223.387 888.305 223.895 893.468H214.374C214.141 890.484 213.305 888.326 211.866 886.993C210.449 885.639 208.28 884.962 205.36 884.962C202.186 884.962 199.806 886.104 198.219 888.39C196.653 890.654 195.849 894.177 195.807 898.958V902.45C195.807 907.443 196.558 911.093 198.06 913.399C199.583 915.706 201.974 916.859 205.233 916.859C208.174 916.859 210.364 916.192 211.803 914.859C213.263 913.505 214.098 911.421 214.31 908.607H223.832ZM257.887 903.973H239.605V916.351H261.061V924H230.084V877.789H260.997V885.501H239.605V896.515H257.887V903.973Z" fill="white"/>
<path d="M130.312 368.807C133.062 364.712 137.268 361.617 142.013 360.287C141.169 360.871 140.463 361.615 139.762 362.355C142.203 362.038 144.74 362.324 147.002 363.322C147.294 365.483 147.451 367.665 147.794 369.818C148.074 367.655 148.287 365.483 148.554 363.318C150.763 362.358 153.242 362.02 155.625 362.358L155.785 362.487C155.79 362.449 155.8 362.375 155.805 362.339C155.069 361.632 154.386 360.862 153.535 360.289C158.274 361.622 162.48 364.707 165.226 368.801C164.42 368.179 163.499 367.744 162.588 367.306C163.637 369.521 164.168 372.013 163.914 374.464C161.926 375.391 159.906 376.252 157.941 377.229C160.088 376.842 162.218 376.367 164.356 375.946C166.029 377.791 167.075 380.14 167.55 382.573C168.02 381.711 168.486 380.842 168.779 379.901C168.944 384.726 167.371 389.584 164.414 393.389C164.682 392.475 164.825 391.533 164.951 390.593C163.17 392.279 160.966 393.542 158.564 394.075C157.05 392.452 155.595 390.772 154.045 389.184C155.089 391.134 156.21 393.041 157.284 394.972C156.039 397.125 154.143 398.86 151.969 400.042C152.901 400.211 153.84 400.364 154.791 400.392C150.289 402.001 145.239 401.996 140.738 400.387C141.695 400.367 142.641 400.211 143.581 400.042C141.407 398.86 139.511 397.125 138.266 394.97C139.337 393.041 140.465 391.139 141.499 389.189C139.945 390.777 138.5 392.47 136.966 394.078C134.577 393.527 132.372 392.284 130.602 390.591C130.725 391.54 130.864 392.488 131.14 393.407C128.18 389.593 126.599 384.734 126.763 379.901C127.069 380.847 127.536 381.723 128.008 382.592C128.454 380.145 129.527 377.794 131.195 375.941C133.335 376.361 135.465 376.836 137.612 377.224C135.649 376.242 133.624 375.386 131.636 374.455C131.385 372.009 131.911 369.519 132.962 367.308C132.044 367.742 131.122 368.186 130.312 368.807ZM147.774 370.798C144.7 373.042 141.621 375.281 138.544 377.519C139.716 381.152 140.897 384.78 142.074 388.412C145.882 388.403 149.69 388.425 153.498 388.4C154.653 384.765 155.859 381.147 157.011 377.511C153.925 375.282 150.856 373.03 147.774 370.798Z" fill="white"/>
<path d="M141.99 311H142.443C142.695 311.22 142.933 311.477 142.957 311.832C144.62 320.81 146.297 329.787 147.955 338.768C148.101 339.22 147.842 339.757 147.35 339.818C143.973 340.426 140.683 341.554 137.676 343.219C132.665 345.969 128.412 350.112 125.585 355.096C125.407 355.412 125.169 355.775 124.758 355.762C124.211 355.653 123.763 355.293 123.285 355.032C115.72 350.621 108.153 346.216 100.584 341.81C100.265 341.635 99.9435 341.319 100.037 340.916C100.224 340.346 100.599 339.864 100.887 339.346C106.773 329.541 115.516 321.512 125.731 316.428C130.86 313.857 136.357 312.055 141.99 311V311Z" fill="#951B80"/>
<path d="M157.221 317.787C165.562 317.569 173.944 319.117 181.671 322.275C187.619 324.708 193.182 328.089 198.078 332.261C198.352 332.501 198.653 332.718 198.884 333.004C199.095 333.351 198.971 333.793 198.694 334.063C192.733 340.959 186.772 347.855 180.814 354.752C180.629 354.951 180.419 355.183 180.124 355.175C179.749 355.199 179.49 354.885 179.223 354.675C172.467 348.772 163.083 346.045 154.229 347.421C153.893 347.454 153.504 347.584 153.213 347.348C152.97 347.207 152.901 346.914 152.865 346.656C151.589 338.01 150.316 329.362 149.039 320.715C148.974 320.217 148.864 319.722 148.843 319.219C148.83 318.843 149.154 318.53 149.514 318.489C152.064 318.083 154.64 317.86 157.221 317.787Z" fill="#E40613"/>
<path d="M89.9139 341.633C90.2219 341.447 90.5775 341.551 90.8675 341.717C98.9308 346.061 107.006 350.388 115.067 354.738C115.58 354.973 115.575 355.64 115.267 356.044C110.932 363.956 110.294 373.788 113.58 382.195C113.689 382.548 113.935 382.934 113.734 383.301C113.542 383.677 113.08 383.75 112.729 383.911C104.351 387.134 95.9814 390.378 87.6051 393.604C87.2528 393.765 86.7793 393.739 86.5581 393.382C86.2812 392.847 86.1108 392.261 85.8912 391.699C81.4311 379.499 81.0804 365.852 84.8458 353.422C86.0108 349.533 87.5773 345.767 89.4862 342.187C89.6025 341.986 89.709 341.759 89.9139 341.633Z" fill="#01509F"/>
<path d="M196.913 343.144C197.226 342.951 197.613 343.096 197.853 343.338C204.919 349.938 210.328 358.29 213.538 367.42C215.674 373.449 216.81 379.819 217 386.212V389.475C216.959 390.046 216.969 390.624 216.857 391.188C216.715 391.604 216.241 391.704 215.855 391.665C206.728 391.211 197.598 390.787 188.471 390.325C187.909 390.343 187.609 389.755 187.712 389.255C188.24 380.273 184.63 371.151 178.107 364.979C177.848 364.716 177.522 364.474 177.416 364.104C177.353 363.757 177.596 363.478 177.811 363.241C183.85 356.865 189.887 350.483 195.923 344.104C196.244 343.776 196.531 343.403 196.913 343.144Z" fill="#F28800"/>
<path d="M144.846 357.823C151.385 356.944 158.251 359.094 163.113 363.571C167.394 367.428 170.126 372.963 170.555 378.723C171.04 384.517 169.197 390.461 165.521 394.957C161.833 399.545 156.326 402.608 150.486 403.278C144.087 404.077 137.4 401.986 132.604 397.66C128.267 393.833 125.475 388.298 125.001 382.52C124.544 377.414 125.873 372.17 128.711 367.906C132.306 362.418 138.344 358.622 144.846 357.823ZM130.312 368.807C131.121 368.186 132.044 367.742 132.962 367.308C131.911 369.519 131.385 372.009 131.636 374.455C133.624 375.386 135.649 376.242 137.612 377.224C135.465 376.836 133.335 376.361 131.195 375.941C129.527 377.794 128.454 380.145 128.008 382.592C127.536 381.723 127.069 380.847 126.763 379.901C126.599 384.734 128.18 389.593 131.139 393.407C130.864 392.488 130.725 391.54 130.602 390.591C132.372 392.284 134.577 393.527 136.966 394.078C138.5 392.47 139.945 390.777 141.498 389.189C140.464 391.139 139.337 393.041 138.266 394.97C139.511 397.125 141.407 398.86 143.581 400.042C142.64 400.211 141.695 400.367 140.738 400.387C145.239 401.996 150.289 402.001 154.79 400.392C153.84 400.364 152.901 400.211 151.969 400.042C154.143 398.86 156.039 397.125 157.284 394.972C156.209 393.04 155.089 391.134 154.045 389.184C155.595 390.772 157.05 392.452 158.564 394.074C160.966 393.542 163.17 392.279 164.951 390.593C164.825 391.533 164.682 392.475 164.414 393.389C167.371 389.584 168.944 384.726 168.779 379.901C168.485 380.842 168.02 381.711 167.55 382.573C167.075 380.14 166.029 377.791 164.356 375.946C162.218 376.367 160.088 376.842 157.941 377.228C159.906 376.252 161.926 375.391 163.914 374.464C164.168 372.013 163.637 369.521 162.588 367.306C163.499 367.744 164.42 368.179 165.226 368.801C162.48 364.707 158.274 361.622 153.535 360.289C154.386 360.862 155.069 361.632 155.805 362.339C155.8 362.375 155.79 362.449 155.785 362.487L155.624 362.358C153.242 362.02 150.763 362.358 148.554 363.318C148.287 365.483 148.074 367.655 147.794 369.818C147.451 367.665 147.294 365.483 147.002 363.322C144.739 362.324 142.203 362.038 139.762 362.355C140.463 361.615 141.169 360.871 142.013 360.287C137.268 361.617 133.061 364.712 130.312 368.807Z" fill="#1D1D1B"/>
<path d="M147.774 370.798C150.857 373.03 153.926 375.282 157.011 377.511C155.859 381.147 154.653 384.765 153.498 388.4C149.69 388.425 145.882 388.403 142.074 388.411C140.897 384.78 139.716 381.152 138.544 377.519C141.622 375.281 144.7 373.042 147.774 370.798Z" fill="#1D1D1B"/>
<path d="M154.635 459.037C155.857 458.766 157.191 459.001 158.222 459.724C159.552 460.624 160.314 462.289 160.111 463.888C159.934 465.738 158.507 467.378 156.708 467.809C155.141 468.233 153.355 467.725 152.294 466.484C151.004 465.041 150.811 462.754 151.823 461.107C152.433 460.075 153.468 459.305 154.635 459.037Z" fill="white"/>
<path d="M81.4505 463.61C84.1066 463.607 86.7627 463.609 89.4188 463.61C89.4172 471.524 89.4205 479.437 89.4188 487.352C92.6304 487.354 95.842 487.351 99.0535 487.354C99.0535 489.685 99.0617 492.018 99.0502 494.348C93.1842 494.35 87.3198 494.35 81.4554 494.348C81.444 484.102 81.4538 473.856 81.4505 463.61Z" fill="white"/>
<path d="M130.986 463.607C133.642 463.61 136.298 463.609 138.954 463.609C138.956 471.524 138.954 479.437 138.956 487.352C142.167 487.362 145.38 487.333 148.593 487.367C148.587 489.691 148.593 492.016 148.59 494.34C142.723 494.339 136.853 494.339 130.986 494.339C130.986 484.096 130.984 473.851 130.986 463.607Z" fill="white"/>
<path d="M105.577 471.437C107.545 469.965 110.002 469.171 112.457 469.231C113.925 469.244 115.405 469.574 116.689 470.299C117.635 470.815 118.469 471.506 119.27 472.219C119.269 471.382 119.27 470.547 119.27 469.712C121.718 469.711 124.166 469.711 126.614 469.712C126.613 477.922 126.616 486.129 126.613 494.339C124.128 494.34 121.644 494.339 119.16 494.339C119.157 493.546 119.155 492.754 119.16 491.963C117.179 493.91 114.407 495.011 111.634 494.945C109.065 494.924 106.455 494.11 104.487 492.419C102.55 490.791 101.321 488.442 100.774 485.993C100.324 483.923 100.215 481.762 100.584 479.672C101.162 476.439 102.929 473.394 105.577 471.437ZM112.221 476.304C111.01 476.585 109.891 477.277 109.131 478.268C107.651 480.179 107.563 482.917 108.549 485.072C109.221 486.573 110.592 487.758 112.21 488.1C114.679 488.648 117.487 487.531 118.729 485.279C120.171 482.733 119.608 479.117 117.248 477.313C115.846 476.219 113.933 475.906 112.221 476.304Z" fill="white"/>
<path d="M168.118 470.562C170.401 469.209 173.218 468.923 175.777 469.523C177.619 469.949 179.198 471.1 180.48 472.459C180.478 471.544 180.478 470.626 180.481 469.711C182.846 469.712 185.212 469.709 187.578 469.712C187.579 475.982 187.578 482.252 187.578 488.523C187.55 490.218 187.675 491.925 187.406 493.607C187.031 496.109 185.775 498.489 183.822 500.109C181.594 501.992 178.669 502.854 175.795 503H174.299C171.848 502.873 169.372 502.275 167.279 500.949C164.974 499.54 163.311 497.109 162.952 494.411C165.726 494.411 168.5 494.408 171.274 494.413C171.633 494.927 172.003 495.458 172.534 495.812C173.411 496.412 174.527 496.433 175.551 496.41C177.045 496.336 178.685 495.843 179.574 494.549C180.35 493.426 180.152 491.993 180.136 490.707C178.643 491.965 176.876 492.925 174.964 493.341C172.834 493.785 170.563 493.472 168.608 492.527C165.972 491.256 164.055 488.769 163.17 486.008C162.184 482.939 162.257 479.539 163.347 476.508C164.224 474.073 165.87 471.872 168.118 470.562ZM173.327 475.827C171.713 476.273 170.507 477.673 170.037 479.251C169.377 481.405 169.637 483.978 171.16 485.712C172.637 487.4 175.23 487.658 177.212 486.795C178.42 486.272 179.398 485.271 179.945 484.078C180.719 482.436 180.663 480.478 180.008 478.808C179.511 477.54 178.482 476.493 177.206 476.018C175.975 475.564 174.594 475.479 173.327 475.827Z" fill="white"/>
<path d="M196.098 471.341C198.658 469.474 202.031 468.78 205.112 469.515C206.862 469.941 208.353 471.027 209.667 472.222C209.665 471.384 209.665 470.547 209.667 469.711C212.11 469.711 214.555 469.711 217 469.712V494.34C214.514 494.339 212.028 494.34 209.544 494.339C209.544 493.548 209.541 492.759 209.546 491.97C208.669 492.815 207.657 493.518 206.544 494.015C203.663 495.33 200.241 495.206 197.357 493.972C194.709 492.836 192.68 490.499 191.704 487.804C190.743 485.161 190.503 482.248 191.011 479.483C191.625 476.266 193.431 473.256 196.098 471.341ZM202.508 476.33C201.46 476.593 200.488 477.164 199.767 477.974C198.11 479.819 197.912 482.639 198.851 484.87C199.433 486.287 200.603 487.474 202.068 487.952C204.512 488.754 207.455 487.816 208.89 485.646C210.585 483.133 210.129 479.329 207.752 477.402C206.311 476.215 204.293 475.882 202.508 476.33Z" fill="white"/>
<path d="M151.887 469.712C154.36 469.711 156.831 469.711 159.303 469.712V494.339C156.832 494.339 154.36 494.34 151.889 494.339C151.886 486.129 151.889 477.922 151.887 469.712Z" fill="white"/>
<path d="M106.783 390.119C107.304 389.814 107.879 390.193 108.016 390.731C111.551 399.141 118.96 405.784 127.681 408.381C128.207 408.46 128.618 408.974 128.395 409.504C125.678 418.272 122.947 427.037 120.22 435.8C120.127 436.344 119.532 436.617 119.044 436.387C112.147 434.278 105.637 430.908 99.922 426.498C91.6424 420.141 85.0456 411.594 81 401.955V401.577C81.1655 401.301 81.4129 401.089 81.716 400.977C90.076 397.369 98.4227 393.726 106.783 390.119Z" fill="#0090D7"/>
<path d="M179.528 393.583C179.731 393.545 179.938 393.539 180.147 393.562C189.215 394.282 198.285 394.98 207.352 395.694C207.855 395.674 208.265 396.138 208.162 396.641C207.346 408.535 202.864 420.126 195.558 429.521C192.063 434.034 187.927 438.047 183.315 441.401C182.953 441.723 182.369 441.603 182.125 441.2C176.916 434.087 171.711 426.971 166.505 419.855C166.213 419.413 165.786 419.03 165.658 418.504C165.582 418.022 166.036 417.754 166.362 417.511C173.564 412.255 178.286 403.76 178.964 394.854C178.992 394.39 178.979 393.744 179.528 393.583Z" fill="#FEED01"/>
<path d="M156.939 413.339C157.348 413.138 157.779 413.436 157.973 413.796C163.06 421.407 168.168 429.004 173.252 436.617C173.686 437.158 173.215 437.796 172.685 438.022C161.127 445.834 146.824 449.403 132.965 447.999C129.434 447.647 125.932 446.993 122.518 446.028C122.052 445.939 121.79 445.41 121.962 444.977C124.391 436.119 126.837 427.265 129.272 418.41C129.359 417.851 129.985 417.59 130.473 417.826C137.248 419.771 144.669 419.281 151.151 416.518C153.193 415.678 155.095 414.544 156.939 413.339Z" fill="#00963F"/>
<path d="M113.525 16.7734H109.951L109.148 19H107.988L111.246 10.4688H112.23L115.494 19H114.34L113.525 16.7734ZM110.291 15.8477H113.191L111.738 11.8574L110.291 15.8477ZM116.643 19V10.4688H119.051C119.793 10.4688 120.449 10.6328 121.02 10.9609C121.59 11.2891 122.029 11.7559 122.338 12.3613C122.65 12.9668 122.809 13.6621 122.812 14.4473V14.9922C122.812 15.7969 122.656 16.502 122.344 17.1074C122.035 17.7129 121.592 18.1777 121.014 18.502C120.439 18.8262 119.77 18.9922 119.004 19H116.643ZM117.768 11.3945V18.0801H118.951C119.818 18.0801 120.492 17.8105 120.973 17.2715C121.457 16.7324 121.699 15.9648 121.699 14.9688V14.4707C121.699 13.502 121.471 12.75 121.014 12.2148C120.561 11.6758 119.916 11.4023 119.08 11.3945H117.768ZM127.213 17.5059L129.65 10.4688H130.881L127.717 19H126.721L123.562 10.4688H124.787L127.213 17.5059ZM136.852 15.0566H133.154V18.0801H137.449V19H132.029V10.4688H137.391V11.3945H133.154V14.1367H136.852V15.0566ZM141.979 15.5488H139.975V19H138.844V10.4688H141.668C142.629 10.4688 143.367 10.6875 143.883 11.125C144.402 11.5625 144.662 12.1992 144.662 13.0352C144.662 13.5664 144.518 14.0293 144.229 14.4238C143.943 14.8184 143.545 15.1133 143.033 15.3086L145.037 18.9297V19H143.83L141.979 15.5488ZM139.975 14.6289H141.703C142.262 14.6289 142.705 14.4844 143.033 14.1953C143.365 13.9062 143.531 13.5195 143.531 13.0352C143.531 12.5078 143.373 12.1035 143.057 11.8223C142.744 11.541 142.291 11.3984 141.697 11.3945H139.975V14.6289ZM151.67 11.3945H148.928V19H147.809V11.3945H145.072V10.4688H151.67V11.3945ZM154.143 19H153.018V10.4688H154.143V19ZM158.719 15.1973C157.754 14.9199 157.051 14.5801 156.609 14.1777C156.172 13.7715 155.953 13.2715 155.953 12.6777C155.953 12.0059 156.221 11.4512 156.756 11.0137C157.295 10.5723 157.994 10.3516 158.854 10.3516C159.439 10.3516 159.961 10.4648 160.418 10.6914C160.879 10.918 161.234 11.2305 161.484 11.6289C161.738 12.0273 161.865 12.4629 161.865 12.9355H160.734C160.734 12.4199 160.57 12.0156 160.242 11.7227C159.914 11.4258 159.451 11.2773 158.854 11.2773C158.299 11.2773 157.865 11.4004 157.553 11.6465C157.244 11.8887 157.09 12.2266 157.09 12.6602C157.09 13.0078 157.236 13.3027 157.529 13.5449C157.826 13.7832 158.328 14.002 159.035 14.2012C159.746 14.4004 160.301 14.6211 160.699 14.8633C161.102 15.1016 161.398 15.3809 161.59 15.7012C161.785 16.0215 161.883 16.3984 161.883 16.832C161.883 17.5234 161.613 18.0781 161.074 18.4961C160.535 18.9102 159.814 19.1172 158.912 19.1172C158.326 19.1172 157.779 19.0059 157.271 18.7832C156.764 18.5566 156.371 18.248 156.094 17.8574C155.82 17.4668 155.684 17.0234 155.684 16.5273H156.814C156.814 17.043 157.004 17.4512 157.383 17.752C157.766 18.0488 158.275 18.1973 158.912 18.1973C159.506 18.1973 159.961 18.0762 160.277 17.834C160.594 17.5918 160.752 17.2617 160.752 16.8438C160.752 16.4258 160.605 16.1035 160.312 15.877C160.02 15.6465 159.488 15.4199 158.719 15.1973ZM164.783 10.4688L167.572 17.4297L170.361 10.4688H171.82V19H170.695V15.6777L170.801 12.0918L168 19H167.139L164.344 12.1094L164.455 15.6777V19H163.33V10.4688H164.783ZM178.629 15.0566H174.932V18.0801H179.227V19H173.807V10.4688H179.168V11.3945H174.932V14.1367H178.629V15.0566ZM187.184 19H186.053L181.758 12.4258V19H180.627V10.4688H181.758L186.064 17.0723V10.4688H187.184V19ZM194.9 11.3945H192.158V19H191.039V11.3945H188.303V10.4688H194.9V11.3945Z" fill="#EB5757"/>
</svg>
