<svg width="208" height="244" viewBox="0 0 208 244" fill="none" xmlns="http://www.w3.org/2000/svg">
<g clip-path="url(#clip0)">
<path d="M104 0.254395C79.2324 0.254395 33.5636 6.64218 10.3061 20.1244C-20.3146 128.349 21.3295 201.944 104 243.715C186.671 201.944 228.315 127.984 197.693 20.125C174.413 6.64218 128.766 0.254395 104 0.254395Z" fill="#9C824A" stroke="#9C824A" stroke-width="0.793" stroke-miterlimit="282"/>
<path d="M103.999 7.21265C79.6672 7.21265 52.2703 10.3153 16.3889 24.9152C-10.3218 119.384 20.6656 195.1 103.999 236.369C187.333 195.1 218.298 119.383 191.587 24.9152C155.705 10.3153 128.332 7.21265 103.999 7.21265Z" fill="#023474" stroke="#023474" stroke-width="0.793" stroke-miterlimit="282"/>
<path d="M103.886 7.12134C79.6674 7.12134 53.6655 10.7026 30.2019 19.5545C5.8696 116.282 23.8219 186.91 104.023 236.3L103.886 7.12134ZM104.023 236.3C184.223 186.91 202.153 116.282 177.82 19.5545C154.357 10.7026 128.378 7.12134 104.16 7.12134L104.023 236.3Z" fill="white" stroke="white" stroke-width="0.793" stroke-miterlimit="282"/>
<path d="M104.023 7.09888C79.6677 7.09888 55.0151 10.7713 34.9821 17.7289C9.78059 119.11 30.0192 187.571 104.046 234.361L104.023 7.09888Z" fill="#EF0107" stroke="#EF0107" stroke-width="0.793" stroke-miterlimit="282"/>
<path d="M104.068 7.09888C128.423 7.09888 153.076 10.7713 173.132 17.7289C198.334 119.11 178.094 187.571 104.046 234.361L104.068 7.09888Z" fill="#DB0007" stroke="#DB0007" stroke-width="0.793" stroke-miterlimit="282"/>
<path d="M72.5556 160.082C61.8074 167.429 53.2546 170.075 43.3293 172.698L37.3379 163.413C46.4629 158.806 55.9075 152.395 65.4211 143.11C66.2214 152.12 70.4285 158.507 72.5556 160.082Z" fill="white"/>
<path d="M71.0915 159.695C60.8923 166.675 46.6902 171.534 30.4307 173.906L27.1147 168.888C41.0416 163.686 54.4885 155.93 64.9171 145.026C66.4951 152.006 68.8961 156.637 71.0915 159.695Z" fill="#9C824A"/>
<path d="M43.9237 117.057C43.9237 120.958 40.7682 124.106 36.8575 124.106C32.9468 124.106 29.7681 120.958 29.7681 117.057C29.7681 113.156 32.9468 110.008 36.8575 110.008C40.7682 110.008 43.9237 113.156 43.9237 117.057Z" fill="white"/>
<path d="M43.1685 103.164V129.764H64.1848C65.5567 120.844 70.6337 111.376 82.1364 103.164H43.1685Z" fill="white"/>
<path d="M44.0152 129.764C39.3267 129.832 35.4624 123.969 35.3935 116.623C35.3477 109.277 39.0986 103.255 43.8097 103.164C43.8554 103.164 43.9012 103.164 43.9701 103.164" fill="white"/>
<path d="M40.9507 117.057C40.9507 120.068 38.7553 122.487 36.0566 122.487C33.358 122.487 31.1626 120.069 31.1626 117.057C31.1626 114.045 33.358 111.627 36.0566 111.627C38.7553 111.627 40.9507 114.045 40.9507 117.057Z" fill="#9C824A"/>
<path d="M43.7407 104.556V128.463H64.5972C66.2436 120.524 70.2916 112.084 80.3993 104.556H43.7407Z" fill="#9C824A"/>
<path d="M44.5181 128.463C40.1041 128.555 36.4911 123.262 36.4228 116.669C36.3771 110.076 39.9218 104.646 44.3351 104.556C44.3808 104.556 44.4266 104.556 44.4723 104.556" fill="#9C824A"/>
<path d="M143.905 135.992C143.905 158.19 125.885 176.165 103.633 176.165C81.405 176.165 63.3618 158.19 63.3618 135.992C63.3618 113.795 81.405 95.8181 103.633 95.8181C125.885 95.8181 143.905 113.795 143.905 135.992Z" fill="white"/>
<path d="M141.803 135.992C141.803 157.026 124.719 174.066 103.634 174.066C82.5723 174.066 65.4893 157.026 65.4893 135.992C65.4893 114.982 82.5723 97.9175 103.634 97.9175C124.719 97.9168 141.803 114.958 141.803 135.992Z" fill="#9C824A"/>
<path d="M135.467 135.992C135.467 153.535 121.219 167.748 103.634 167.748C86.0704 167.748 71.8232 153.535 71.8232 135.992C71.8232 118.448 86.0704 104.236 103.634 104.236C121.219 104.236 135.467 118.448 135.467 135.992Z" fill="white"/>
<path d="M133.364 135.992C133.364 152.371 120.054 165.626 103.634 165.626C87.2368 165.626 73.9272 152.371 73.9272 135.992C73.9272 119.612 87.2368 106.358 103.634 106.358C120.054 106.358 133.364 119.612 133.364 135.992Z" fill="#9C824A"/>
<path d="M116.028 135.992C116.051 142.813 110.494 148.357 103.656 148.379C96.796 148.379 91.2383 142.836 91.2383 136.015V135.992C91.2383 129.17 96.7728 123.627 103.633 123.627C110.47 123.605 116.027 129.148 116.027 135.969C116.028 135.992 116.028 135.992 116.028 135.992Z" fill="white"/>
<path d="M114.566 135.991C114.566 142.015 109.694 146.896 103.657 146.896C97.6199 146.896 92.7258 142.038 92.7026 136.015V135.992C92.7026 129.97 97.5967 125.087 103.634 125.087C109.671 125.087 114.566 129.947 114.566 135.969V135.991Z" fill="#9C824A"/>
<path d="M109.26 135.992C109.26 139.071 106.744 141.58 103.635 141.603C100.547 141.603 98.0317 139.094 98.0317 135.992C98.0317 132.889 100.547 130.403 103.635 130.38C106.744 130.38 109.26 132.889 109.26 135.992Z" fill="white"/>
<path d="M107.705 135.992C107.705 138.227 105.898 140.052 103.634 140.052C101.393 140.052 99.564 138.25 99.564 135.992C99.564 133.757 101.393 131.932 103.634 131.932C105.875 131.931 107.705 133.733 107.705 135.992Z" fill="#9C824A"/>
<path d="M107.819 105.673H99.3574V125.36H107.819V105.673Z" fill="white"/>
<path d="M106.515 102.844H100.684V127.87H106.515V102.844Z" fill="#9C824A"/>
<path d="M127.212 116.783L131.831 123.855L115.275 134.578L110.678 127.505L127.212 116.783Z" fill="white"/>
<path d="M130.299 116.35L133.478 121.232L112.438 134.874L109.26 129.969L130.299 116.35Z" fill="#9C824A"/>
<path d="M91.765 137.589L96.2931 144.706L79.6218 155.246L75.0938 148.106L91.765 137.589Z" fill="white"/>
<path d="M94.6006 137.178L97.7336 142.106L76.5574 155.497L73.4238 150.569L94.6006 137.178Z" fill="#9C824A"/>
<path d="M107.819 147.285H99.3574V166.971H107.819V147.285Z" fill="white"/>
<path d="M106.515 144.479H100.684V169.481H106.515V144.479Z" fill="#9C824A"/>
<path d="M95.3786 145.185C96.5224 146.143 97.7796 147.01 99.3577 147.672L99.3119 165.238C91.3307 164.211 85.2935 160.288 80.7197 154.699L95.4018 145.185" fill="#EF0107"/>
<path d="M95.3786 145.185C96.5224 146.143 97.7796 147.01 99.3577 147.672L99.3119 165.238C91.3307 164.211 85.2935 160.288 80.7197 154.699L95.4018 145.185" stroke="#EF0107" stroke-width="0.3115" stroke-miterlimit="282"/>
<path d="M111.866 145.254C110.7 146.189 109.465 147.079 107.887 147.717L107.91 165.284C115.891 164.257 121.929 160.334 126.503 154.744L111.844 145.255" fill="#DB0007"/>
<path d="M111.866 145.254C110.7 146.189 109.465 147.079 107.887 147.717L107.91 165.284C115.891 164.257 121.929 160.334 126.503 154.744L111.844 145.255" stroke="#DB0007" stroke-width="0.3115" stroke-miterlimit="282"/>
<path d="M115.868 137.885L133.34 135.786C133.477 140.143 132.425 143.976 130.938 147.649L115.822 137.885" fill="#DB0007"/>
<path d="M115.892 137.817C115.96 137.543 115.937 137.292 116.052 136.494L133.296 134.259C133.364 135.057 133.318 135.353 133.296 135.718L115.892 137.817Z" fill="white" stroke="white" stroke-width="0.3115" stroke-miterlimit="282"/>
<path d="M141.414 123.331H164.031C163.322 125.999 162.635 128.714 159.388 129.924C154.197 131.864 143.426 133.734 143.426 133.734C143.22 130.79 142.557 126.797 141.414 123.331Z" fill="white"/>
<path d="M125.657 102.776L184.75 102.844L182.669 124.379L142.305 126.479C140.132 116.851 132.791 107.658 125.657 102.776Z" fill="white"/>
<path d="M127.76 104.304L203.204 104.373L200.323 121.916L141.779 124.791C139.469 116.076 134.187 109.711 127.76 104.304Z" fill="#9C824A"/>
<path d="M141.414 123.331H162.246C161.561 125.703 161.08 127.87 158.016 128.942C153.145 130.676 143.334 132.045 143.334 132.045C142.923 129.194 142.328 126.296 141.414 123.331Z" fill="#9C824A"/>
<path d="M118.544 71.4995C118.544 72.4579 118.339 75.0814 118.225 75.8111H129.934C129.224 72.7078 128.903 68.3968 128.812 65.0661C128.812 65.2941 128.607 58.3815 128.607 58.3815C128.607 57.9023 128.812 57.1726 129.11 56.9445C129.522 56.4653 129.934 56.4653 130.437 56.4653C130.94 56.2373 131.855 56.2373 131.969 58.131L132.266 65.2941C132.38 68.6473 132.38 73.1876 131.969 75.8111H143.243C143.151 74.8527 142.832 72.4573 142.74 71.75C144.158 74.8527 147.222 76.5177 151.293 76.5177C153.717 76.5177 155.569 75.5818 156.987 74.624C156.987 74.852 157.582 75.8111 157.582 75.8111H178.53C177.615 72.7078 177.02 68.3968 176.701 65.0661L173.75 41.6598L162.979 39.7436C163.894 42.8463 164.512 47.386 164.899 50.4887L166.546 65.5453C166.844 68.1688 167.05 71.0434 167.05 74.1454V74.3735L166.637 73.4151C165.814 71.4988 165.425 69.1266 165.105 65.5447L164.716 60.7538C164.099 53.1115 159.937 49.7801 150.766 49.7801C149.257 49.7801 145.392 50.0082 143.037 50.7385L143.654 59.3162L146.102 57.9017C148.137 56.6927 149.646 56.2135 151.475 56.2135C152.917 56.2135 153.831 56.6934 154.243 57.6511C152.506 57.9017 150.583 58.3809 148.434 59.3162C145.187 60.7532 143.151 62.9199 142.237 65.2928V65.0648L141.917 57.1713C141.734 52.1524 138.464 48.8217 133.478 48.8217C131.26 48.8217 129.224 49.529 127.395 50.7379C127.281 50.4867 127.189 50.258 127.075 50.0075L126.663 49.0491L117.309 48.5699C117.721 50.258 118.339 55.0264 118.43 56.6921C117.926 54.3191 116.6 51.6957 114.153 49.7795C112.233 48.5705 109.785 47.8633 107.247 47.8633C103.793 47.8633 100.226 49.3003 97.8934 51.6957C95.4467 54.068 94.234 57.4218 94.1199 61.2318C93.2056 60.2733 91.9935 59.338 90.5752 58.8595L86.2985 56.6921H86.093C85.0871 56.2122 84.9724 55.9842 84.9724 55.7561C85.0871 55.2769 86.093 54.7977 87.4197 54.7977C89.2491 54.7977 91.7879 55.7561 93.8229 56.9426L94.0285 49.3003C92.4961 48.5699 90.3697 48.1138 87.305 48.1138C85.6812 48.1138 82.6397 48.3418 79.9869 49.7788C79.2774 50.258 78.6601 50.7373 78.066 51.2165L78.1575 49.0485C75.7108 48.5924 73.0804 48.5924 69.8328 51.695C69.7187 51.4439 69.5125 50.2574 69.307 49.7788L59.245 50.258C59.9539 53.1102 60.0679 57.1707 59.8624 60.7525L59.6568 64.585V65.0642C59.5421 66.9804 59.4512 69.1246 59.245 71.0408C58.4215 68.3942 57.5297 64.813 56.7977 61.9615L51.8128 39.5137L37.5882 41.6579C37.6797 41.886 37.8853 42.6163 38 43.323C38.0921 44.2814 38.0921 46.1976 36.7653 50.258C34.4327 56.6921 31.1851 66.5012 28.0295 73.4131C27.6178 74.3715 26.7949 75.8085 26.7949 75.8085H37.8859C38.0921 74.1429 38.8009 71.2689 39.5097 69.124C41.0421 69.124 44.9985 69.124 46.8273 68.8728C47.239 70.561 47.6508 72.7052 47.7655 74.1422L47.9485 75.8079H70.1311C69.6279 72.226 69.8334 67.4577 70.0171 64.8117C70.2226 61.709 70.8399 59.5648 72.1667 58.3783C73.1726 57.1694 74.2931 56.9413 75.1167 56.9413C75.0026 61.2298 77.747 63.1467 80.1937 64.3325L84.5613 66.4992C86.0936 67.4577 86.0936 67.6857 86.0936 68.1649C86.0021 68.8722 84.7668 69.1233 83.6469 69.1233C81.3143 69.1233 78.1581 67.6857 74.7049 63.8764L74.4994 73.891C77.2437 75.328 80.697 76.0353 83.7616 76.0353C88.8386 76.0353 94.2353 73.6624 95.6536 69.1227C98.1918 73.8904 103.177 76.0353 108.071 76.0353C112.438 76.0392 115.685 74.624 118.544 71.4995ZM42.1626 61.7122C42.78 60.0472 43.2826 58.6096 44.1976 55.9861C44.8149 58.6096 45.1119 60.2753 45.4097 61.4842C44.1976 61.7122 43.5803 61.7122 42.1626 61.7122ZM104.411 59.0888C104.411 55.7581 105.623 54.3211 106.836 54.3211C107.248 54.3211 108.162 54.0699 108.573 55.7581C108.779 56.4653 108.87 56.9445 108.87 57.1726C108.87 58.131 108.368 58.3815 107.75 58.3815V58.6096C107.75 58.6096 106.035 59.0888 104.411 59.8185C104.411 59.568 104.411 59.34 104.411 59.0888ZM116.006 66.0239C113.855 67.9176 112.324 69.1265 109.785 69.1265C107.75 68.8754 106.538 67.6889 105.829 66.0239C107.956 65.2941 116.189 62.1915 118.544 61.233C118.544 63.1492 118.636 65.2935 118.636 65.2935V69.3546L116.006 66.0239ZM153.922 69.3552C152.002 69.3552 151.589 67.9176 151.498 66.9823C151.589 66.0239 151.886 64.5869 154.95 63.6291C155.042 64.8156 155.156 65.7733 155.156 65.7733V66.7311C155.248 67.4609 155.248 68.1681 155.339 68.8754C154.951 69.1266 154.448 69.1266 153.922 69.3552Z" fill="#9C824A"/>
<path d="M92.2908 50.4887C91.2849 50.2607 89.7526 49.7815 87.3059 49.7815C85.385 49.7815 82.8462 50.2607 80.9021 51.2191C78.661 52.6561 77.0371 54.5498 76.9456 56.7172C76.7401 60.0479 78.478 61.4849 81.0162 62.6714C82.7315 63.6298 84.3779 64.5876 85.3844 65.0668C86.7105 65.7741 87.9226 66.5038 87.8311 68.1695C87.717 69.8352 86.1847 71.0441 83.6465 71.0441C81.5194 71.0441 78.478 69.6071 76.3283 67.6903L76.2368 72.7092C78.0662 73.6676 81.0162 74.1461 83.7606 74.1461C88.4258 74.1461 94.2342 72.0019 94.3257 66.7319C94.4398 62.6714 91.582 61.2338 89.8667 60.2985C88.1288 59.5687 86.3902 58.6109 85.5906 58.3823C84.7671 57.903 83.1432 57.4245 83.2579 55.5076C83.4409 53.8426 85.385 53.1122 87.42 53.1122C89.1353 53.1122 90.8732 53.5914 92.1993 54.3212" fill="white"/>
<path d="M50.5093 41.6599L39.7154 43.0969C39.9216 44.5345 39.5098 47.3861 38.3893 50.7393C36.1713 57.1727 32.5119 67.917 29.6528 74.1449H36.3769C36.7654 71.9781 37.2687 70.0844 38.2978 67.4609L48.2688 67.2098C48.6574 69.126 49.3894 72.2287 49.4809 74.1449H58.537C57.4164 71.4989 55.9988 66.0233 55.0844 62.1909L50.5093 41.6599ZM39.7154 63.378L44.6094 49.3023L47.56 63.15" fill="white"/>
<path d="M76.3287 50.4888L76.1232 55.2796C74.4993 55.0291 72.4644 55.5077 70.8406 57.1733C69.4223 58.6103 68.5079 60.7552 68.3024 64.5876C68.0962 67.6903 68.0047 71.2722 68.1877 74.1462H60.5718C61.075 71.2722 61.2812 67.9408 61.3721 64.8163L61.5776 61.0064C61.7832 57.9037 61.7832 54.801 61.2806 51.927L68.004 51.699C68.3017 52.6574 68.5073 54.3225 68.3932 55.9875C71.3432 51.4466 74.2016 50.4888 76.3287 50.4888Z" fill="white"/>
<path d="M172.24 43.0969L165.311 41.8879C166.02 45.0137 166.226 47.158 166.637 50.26L168.262 65.2942C168.581 68.3969 168.879 71.2715 168.787 74.1455H176.311C175.579 71.2715 175.282 68.3969 174.985 65.2942" fill="white"/>
<path d="M141.208 74.1456C140.819 71.2716 140.612 68.3969 140.498 65.2942L140.201 57.4239C139.995 53.1122 137.548 50.7399 133.477 50.7399C131.259 50.7399 128.606 51.4472 126.365 54.3212C126.274 53.5914 125.953 51.6977 125.542 50.7399L119.459 50.4888C119.962 53.3634 120.168 56.2149 120.259 59.3176L120.374 65.2942C120.465 68.3969 120.374 71.2716 120.168 74.1456H127.784C127.394 71.2716 127.189 68.3969 127.074 65.2942L126.869 58.6103C126.777 56.2149 128.606 54.5492 130.436 54.5492C132.563 54.5492 133.592 55.9862 133.684 58.1311L134.004 65.2942C134.096 68.3969 134.096 71.2716 133.89 74.1456" fill="white"/>
<path d="M165.014 74.1455C164.099 71.7501 163.596 68.8761 163.39 65.7734L162.978 61.0051C162.566 55.279 160.143 51.4465 150.766 51.4465C149.142 51.4465 146.81 51.6977 144.889 52.1538L145.186 56.4654C147.107 55.2789 149.051 54.3212 151.498 54.3212C154.036 54.3212 156.163 55.5076 156.369 59.0889C153.922 59.34 151.681 59.7961 149.143 61.0051C146.308 62.1916 143.357 64.587 143.654 68.3963C143.951 72.7079 147.221 74.6241 151.292 74.6241C154.448 74.6241 156.575 73.1871 157.787 71.7501C157.993 72.7079 158.313 73.4151 158.61 74.1455H165.014ZM153.922 71.0429C151.68 71.0429 149.852 69.8339 149.76 67.2104C149.76 64.587 151.384 62.4427 156.575 61.7123L156.873 65.7734C156.987 67.2104 156.987 68.1689 157.192 69.3553C156.462 70.3131 155.249 70.7923 153.922 71.0429Z" fill="white"/>
<path d="M113.147 51.2184C111.41 50.0095 109.374 49.5303 107.248 49.5303C102.262 49.5303 95.6531 53.1122 95.8587 62.1915C95.9502 71.4995 103.085 74.3735 108.071 74.3735C112.438 74.3735 115.092 72.7078 117.218 70.5636L115.685 68.3962C114.566 69.3546 112.736 70.7916 109.786 70.7916C106.629 70.5636 104.617 68.3962 103.496 65.0655L117.309 60.0466C116.898 55.5076 115.274 52.8841 113.147 51.2184ZM108.368 60.0472L102.879 62.1915C102.765 61.2337 102.674 60.2753 102.674 59.0888C102.674 53.5907 105.715 52.6329 106.743 52.6329C108.368 52.4049 109.786 53.3627 110.311 55.2789C110.906 57.4238 110.701 59.34 108.368 60.0472Z" fill="white"/>
<path d="M75.8257 122.236L80.4678 115.186L96.9793 125.954L92.3365 133.026L75.8257 122.236Z" fill="white"/>
<path d="M74.2935 119.817L77.4954 114.935L98.4659 128.646L95.264 133.528L74.2935 119.817Z" fill="#9C824A"/>
<path d="M111.066 144.684L115.708 137.611L132.219 148.402L127.577 155.474L111.066 144.684Z" fill="white"/>
<path d="M109.534 142.265L112.736 137.384L133.707 151.094L130.505 155.954L109.534 142.265Z" fill="#9C824A"/>
</g>
<defs>
<clipPath id="clip0">
<rect width="208" height="244" fill="white"/>
</clipPath>
</defs>
</svg>
