<svg width="40" height="25" viewBox="0 0 40 25" fill="none" xmlns="http://www.w3.org/2000/svg">
<path d="M0 7.01754H8.42105V0H0V7.01754ZM0 15.7895H8.42105V8.77193H0V15.7895ZM10.5263 15.7895H18.9474V8.77193H10.5263V15.7895ZM21.0526 15.7895H29.4737V8.77193H21.0526V15.7895ZM10.5263 7.01754H18.9474V0H10.5263V7.01754ZM21.0526 0V7.01754H29.4737V0H21.0526ZM31.5789 15.7895H40V8.77193H31.5789V15.7895ZM0 24.5614H8.42105V17.5439H0V24.5614ZM10.5263 24.5614H18.9474V17.5439H10.5263V24.5614ZM21.0526 24.5614H29.4737V17.5439H21.0526V24.5614ZM31.5789 24.5614H40V17.5439H31.5789V24.5614ZM31.5789 0V7.01754H40V0H31.5789Z" fill="white"/>
</svg>
