<svg width="30" height="30" viewBox="0 0 30 30" fill="none" xmlns="http://www.w3.org/2000/svg">
<path d="M3.33333 20H0V26.6667C0 28.5 1.5 30 3.33333 30H10V26.6667H3.33333V20ZM3.33333 3.33333H10V0H3.33333C1.5 0 0 1.5 0 3.33333V10H3.33333V3.33333ZM26.6667 0H20V3.33333H26.6667V10H30V3.33333C30 1.5 28.5 0 26.6667 0ZM26.6667 26.6667H20V30H26.6667C28.5 30 30 28.5 30 26.6667V20H26.6667V26.6667ZM15 10C12.2333 10 10 12.2333 10 15C10 17.7667 12.2333 20 15 20C17.7667 20 20 17.7667 20 15C20 12.2333 17.7667 10 15 10Z" fill="black"/>
</svg>
