<svg width="42" height="39" viewBox="0 0 42 39" fill="none" xmlns="http://www.w3.org/2000/svg">
<path d="M21.0002 28.2999C24.6821 28.2999 27.6668 25.2555 27.6668 21.4999C27.6668 17.7444 24.6821 14.7 21.0002 14.7C17.3183 14.7 14.3335 17.7444 14.3335 21.4999C14.3335 25.2555 17.3183 28.2999 21.0002 28.2999Z" fill="white"/>
<path d="M14.7498 0.25L10.9373 4.5H4.33317C2.0415 4.5 0.166504 6.4125 0.166504 8.75V34.25C0.166504 36.5875 2.0415 38.5 4.33317 38.5H37.6665C39.9582 38.5 41.8332 36.5875 41.8332 34.25V8.75C41.8332 6.4125 39.9582 4.5 37.6665 4.5H31.0623L27.2498 0.25H14.7498ZM20.9998 32.125C15.2498 32.125 10.5832 27.365 10.5832 21.5C10.5832 15.635 15.2498 10.875 20.9998 10.875C26.7498 10.875 31.4165 15.635 31.4165 21.5C31.4165 27.365 26.7498 32.125 20.9998 32.125Z" fill="white"/>
</svg>
