<svg width="56" height="43" viewBox="0 0 56 43" fill="none" xmlns="http://www.w3.org/2000/svg">
<path d="M43.4892 42.9997H1.42432C0.0268404 42.9997 -0.403591 41.9793 0.407647 40.8011L4.54139 34.7973C5.0435 34.0679 6.24888 33.5059 7.25879 33.5059H37.6545C38.6646 33.5059 39.8704 34.0679 40.3725 34.7973L44.5062 40.8011C45.3174 41.9791 44.8867 42.9997 43.4892 42.9997Z" fill="#FFCD3E"/>
<path d="M43.4892 42.9997H1.42432C0.0268404 42.9997 -0.403591 41.9793 0.407647 40.8011L4.54139 34.7973C5.0435 34.0679 6.24888 33.5059 7.25879 33.5059H37.6545C38.6646 33.5059 39.8704 34.0679 40.3725 34.7973L44.5062 40.8011C45.3174 41.9791 44.8867 42.9997 43.4892 42.9997Z" fill="#FFCD3E"/>
<path d="M30.7884 36.6299H14.1252C12.9876 36.6299 11.9727 36.8782 11.8562 37.191L11.6318 37.7928C11.5073 38.1261 12.3852 38.4023 13.5952 38.4023H31.3185C32.5288 38.4023 33.4066 38.1261 33.2819 37.7928L33.0576 37.191C32.9406 36.8784 31.9261 36.6299 30.7884 36.6299Z" fill="#365269"/>
<path d="M25.6487 19.464C25.1651 18.4674 24.3866 17.788 23.3123 17.4253C22.779 17.2854 22.2531 17.2519 21.7369 17.2948C20.4008 17.9089 19.4265 18.7892 19.421 19.6922C19.4048 22.2259 20.6253 24.0531 20.6253 24.0531C20.6253 24.0531 23.4905 23.0864 25.9166 21.381C25.9943 20.7187 25.8895 20.0136 25.6487 19.464Z" fill="#E8B188"/>
<path d="M20.6251 24.0533L22.6844 19.9825C22.6844 19.9825 25.2133 18.1502 27.7648 17.9757C27.997 15.5729 22.953 15.7819 22.953 15.7819C22.953 15.7819 19.432 19.0258 19.4734 19.201C19.5149 19.3766 17.6978 23.9468 20.6251 24.0533Z" fill="#E8B188"/>
<path d="M21.7368 17.2945C22.2529 17.2518 22.779 17.2851 23.3121 17.4251C24.3864 17.7879 25.1649 18.4673 25.6485 19.4637C25.8894 20.0133 25.9939 20.7184 25.9164 21.3806C27.2283 20.4587 28.4122 19.3204 28.9449 18.0024C27.7406 15.9438 24.1489 16.1855 21.7368 17.2945Z" fill="#DDA783"/>
<path d="M18.7464 23.1626C18.8124 23.8643 18.8577 24.4098 18.8577 24.4098C18.8577 24.4098 18.9598 25.6202 20.2209 24.9502C20.6173 24.4835 20.6798 23.6407 20.6332 22.8729C20.5905 22.1661 20.4553 21.5242 20.4034 21.2961C19.7757 21.2593 19.1416 21.2759 18.5352 21.1821C18.6108 21.7821 18.6871 22.5346 18.7464 23.1626Z" fill="#F2C5A6"/>
<path d="M11.1141 27.6792L17.1641 38.2886L35.985 27.1501L29.9353 16.541L11.1141 27.6792Z" fill="#B9E4F0"/>
<path d="M14.5628 30.0145L15.6231 29.3873L17.3759 31.1393C17.7967 31.5416 18.1509 31.9377 18.5767 32.3459L18.6037 32.3301C18.4431 31.7652 18.2729 31.2593 18.1158 30.701L17.4168 28.3255L18.4362 27.7222L19.7264 32.9418L18.5231 33.6532L14.5628 30.0145Z" fill="#E83C5D"/>
<path d="M19.9347 29.799C19.0781 28.3516 19.403 27.0389 20.5986 26.3314C21.7951 25.6239 23.1049 25.9774 23.9578 27.418C24.8142 28.8656 24.5138 30.2177 23.3177 30.9262C22.1215 31.6337 20.7911 31.2465 19.9347 29.799ZM22.9315 28.025C22.4089 27.1417 21.7144 26.8364 21.1096 27.1951C20.5049 27.5524 20.4377 28.3087 20.9604 29.1911C21.4874 30.0818 22.2023 30.421 22.807 30.0632C23.4119 29.7051 23.4583 28.9151 22.9315 28.025Z" fill="#E83C5D"/>
<path d="M24.7237 25.1393L23.5073 25.8596L23.0087 25.0164L26.4473 22.9814L26.9464 23.8247L25.73 24.5438L27.8534 28.132L26.8475 28.7279L24.7237 25.1393Z" fill="#E83C5D"/>
<path d="M27.143 22.5697L29.9161 20.9287L30.4141 21.7714L28.6408 22.8212L29.167 23.7112L30.6754 22.8182L31.1706 23.6548L29.6625 24.5472L30.2658 25.5667L32.107 24.4766L32.6054 25.3191L29.7651 26.9999L27.143 22.5697Z" fill="#E83C5D"/>
<path d="M42.7851 8.41992L44.7399 14.9169L44.8313 15.22C44.8313 15.22 36.4354 16.8893 35.9619 17.4953C35.4884 18.102 33.3679 21.028 30.6651 21.6078C30.2402 21.6987 29.7945 21.8348 29.3443 22.0014C29.3203 22.0105 29.3009 22.018 29.2867 22.0239C29.2776 22.0269 29.2687 22.0306 29.2596 22.0345C29.2547 22.036 29.2499 22.0376 29.2499 22.0376C26.8599 22.9393 24.3285 24.652 23.733 24.9205C22.9745 25.2619 22.2995 24.5147 22.2136 23.8053C22.1052 22.9055 22.9853 22.4772 23.6495 22.0854C24.8054 21.4052 27.6944 20.4024 27.5569 18.6852C27.5562 18.6706 27.5539 18.6564 27.5529 18.6416C27.0388 17.7759 25.4745 17.7836 22.271 18.8529C21.0288 20.3825 20.3823 21.208 20.3823 21.208C20.3823 21.208 20.3901 21.2407 20.4034 21.2969C19.7757 21.2596 19.1417 21.2766 18.535 21.1822C18.512 20.9965 18.4884 20.8238 18.4654 20.6749C19.5719 18.3131 20.2713 17.0974 20.2713 17.0974C20.2713 17.0974 24.0996 14.7739 25.3077 13.8649C26.8137 13.4458 30.2808 13.7343 32.5588 13.1938C35.6167 12.035 42.7851 8.41992 42.7851 8.41992Z" fill="#F2C5A6"/>
<path d="M23.4508 24.7102L24.3679 24.2512C24.7589 24.055 24.9686 23.6012 24.8259 23.1877C24.6529 22.6874 24.0826 22.4683 23.6253 22.6972L22.6796 23.1706C22.4799 23.2709 22.3993 23.5136 22.4994 23.7129L22.9091 24.5302C23.0089 24.7298 23.2516 24.8109 23.4508 24.7102Z" fill="#EAD4C1"/>
<path d="M44.7397 14.917L44.8311 15.2201C44.8311 15.2201 36.4352 16.8893 35.9618 17.4953C35.4883 18.102 33.3678 21.028 30.665 21.6079C30.24 21.6988 29.7943 21.8348 29.3441 22.0015C29.877 21.7943 32.5139 20.749 33.2026 19.9856C33.9679 19.1357 35.0305 18.0613 35.4148 17.5997C35.7988 17.1378 36.998 16.6471 39.8764 15.9429C41.8393 15.4636 43.7319 15.0993 44.7397 14.917Z" fill="#E8B188"/>
<path d="M37.3037 8.10528L31.8567 10.7817L36.0226 19.26L41.4696 16.5835L37.3037 8.10528Z" fill="#E7E7E7"/>
<path d="M52.8153 4.76071L36.3063 12.8731L34.0139 8.20718L50.7233 0L52.8153 4.76071Z" fill="#005C84"/>
<path d="M55.6197 11.1428L39.3761 19.1238L36.3065 12.8736L52.8155 4.76123L55.6197 11.1428Z" fill="#17415E"/>
</svg>
