<svg width="126" height="96" viewBox="0 0 126 96" fill="none" xmlns="http://www.w3.org/2000/svg">
<path d="M98.5197 95.9994H3.22663C0.0608039 95.9994 -0.91429 93.7212 0.923477 91.0909L10.288 77.687C11.4255 76.0585 14.1561 74.8037 16.444 74.8037H85.302C87.5902 74.8037 90.3217 76.0585 91.4592 77.687L100.824 91.0909C102.661 93.7208 101.686 95.9994 98.5197 95.9994Z" fill="#FFCD3E"/>
<path d="M98.5197 95.9994H3.22663C0.0608039 95.9994 -0.91429 93.7212 0.923477 91.0909L10.288 77.687C11.4255 76.0585 14.1561 74.8037 16.444 74.8037H85.302C87.5902 74.8037 90.3217 76.0585 91.4592 77.687L100.824 91.0909C102.661 93.7208 101.686 95.9994 98.5197 95.9994Z" fill="#FFCD3E"/>
<path d="M69.7476 81.7783H31.9991C29.4219 81.7783 27.1228 82.3327 26.8589 83.0311L26.3504 84.3745C26.0683 85.1187 28.0572 85.7354 30.7983 85.7354H70.9484C73.6903 85.7354 75.6788 85.1187 75.3963 84.3745L74.8882 83.0311C74.6231 82.3331 72.3248 81.7783 69.7476 81.7783Z" fill="#365269"/>
<path d="M58.1047 43.4546C57.0091 41.2297 55.2455 39.7128 52.8118 38.9032C51.6038 38.5906 50.4123 38.516 49.243 38.6117C46.2162 39.9829 44.0089 41.9481 43.9965 43.9641C43.9598 49.6207 46.7247 53.7001 46.7247 53.7001C46.7247 53.7001 53.2155 51.5419 58.7115 47.7345C58.8876 46.2557 58.6502 44.6817 58.1047 43.4546Z" fill="#E8B188"/>
<path d="M46.7237 53.7003L51.3889 44.612C51.3889 44.612 57.1177 40.5212 62.8978 40.1316C63.424 34.7673 51.9973 35.2339 51.9973 35.2339C51.9973 35.2339 44.0209 42.4761 44.1148 42.8672C44.2086 43.2591 40.0923 53.4625 46.7237 53.7003Z" fill="#E8B188"/>
<path d="M49.2422 38.6111C50.4115 38.5158 51.6034 38.5901 52.8109 38.9026C55.2446 39.7126 57.0083 41.2295 58.1038 43.4541C58.6494 44.6811 58.8863 46.2552 58.7107 47.7335C61.6827 45.6754 64.3646 43.134 65.5714 40.1915C62.8431 35.5956 54.7067 36.1352 49.2422 38.6111Z" fill="#DDA783"/>
<path d="M42.4675 51.7117C42.617 53.2782 42.7198 54.4961 42.7198 54.4961C42.7198 54.4961 42.951 57.1983 45.8078 55.7025C46.706 54.6605 46.8474 52.7791 46.7418 51.0648C46.6451 49.4868 46.3389 48.0537 46.2212 47.5446C44.7993 47.4624 43.3628 47.4993 41.9893 47.29C42.1605 48.6294 42.3334 50.3095 42.4675 51.7117Z" fill="#F2C5A6"/>
<path d="M25.1777 61.7955L38.8834 85.4817L81.5199 60.6142L67.8151 36.9287L25.1777 61.7955Z" fill="#B9E4F0"/>
<path d="M32 67.6104L34.4019 66.2103L38.3728 70.1216C39.3261 71.0199 40.1283 71.9042 41.0929 72.8155L41.1542 72.7802C40.7903 71.519 40.4047 70.3897 40.0489 69.1432L38.4654 63.8396L40.7746 62.4927L43.6975 74.1458L40.9717 75.7342L32 67.6104Z" fill="#E83C5D"/>
<path d="M45.1592 66.5286C43.2187 63.297 43.9548 60.3665 46.6633 58.7869C49.3738 57.2072 52.341 57.9966 54.2731 61.2127C56.2132 64.4446 55.5326 67.4634 52.8229 69.045C50.1132 70.6246 47.0993 69.7601 45.1592 66.5286ZM51.9482 62.568C50.7644 60.596 49.1909 59.9142 47.821 60.7151C46.451 61.5129 46.2987 63.2013 47.4829 65.1713C48.6768 67.16 50.2962 67.9172 51.6661 67.1183C53.0365 66.3189 53.1416 64.555 51.9482 62.568Z" fill="#E83C5D"/>
<path d="M56.0081 56.1247L53.2525 57.7329L52.123 55.8503L59.9129 51.3071L61.0435 53.1897L58.2879 54.7952L63.0981 62.8062L60.8195 64.1364L56.0081 56.1247Z" fill="#E83C5D"/>
<path d="M61.4893 50.3882L67.7714 46.7246L68.8996 48.606L64.8823 50.9497L66.0742 52.9367L69.4915 50.9429L70.6132 52.8109L67.1968 54.8031L68.5635 57.0792L72.7347 54.6454L73.8637 56.5265L67.4293 60.279L61.4893 50.3882Z" fill="#E83C5D"/>
<path d="M96.9246 18.7979L101.353 33.3029L101.56 33.9795C101.56 33.9795 82.5399 37.7063 81.4673 39.0592C80.3947 40.4136 75.591 46.9462 69.4681 48.2407C68.5055 48.4437 67.4957 48.7474 66.4759 49.1195C66.4215 49.1398 66.3776 49.1564 66.3454 49.1696C66.3248 49.1763 66.3047 49.1846 66.2841 49.1934C66.2728 49.1966 66.2619 49.2001 66.2619 49.2001C60.8478 51.2134 55.1133 55.037 53.7642 55.6366C52.0457 56.3986 50.5166 54.7304 50.322 53.1468C50.0766 51.1379 52.0703 50.1817 53.5749 49.3069C56.1935 47.7885 62.7383 45.5496 62.4269 41.7157C62.4252 41.6831 62.42 41.6514 62.4176 41.6184C61.2531 39.6858 57.7093 39.7028 50.4522 42.0902C47.6381 45.5052 46.1734 47.3481 46.1734 47.3481C46.1734 47.3481 46.1912 47.4211 46.2214 47.5466C44.7994 47.4632 43.363 47.5014 41.9886 47.2905C41.9366 46.8759 41.883 46.4904 41.8311 46.158C44.3377 40.885 45.922 38.1709 45.922 38.1709C45.922 38.1709 54.5947 32.9836 57.3314 30.9541C60.743 30.0185 68.5973 30.6626 73.7581 29.4558C80.6853 26.8688 96.9246 18.7979 96.9246 18.7979Z" fill="#F2C5A6"/>
<path d="M53.1258 55.167L55.2033 54.1422C56.089 53.7042 56.564 52.6912 56.2409 51.7679C55.8488 50.6509 54.557 50.1617 53.5211 50.6727L51.3787 51.7298C50.9262 51.9538 50.7437 52.4954 50.9705 52.9405L51.8985 54.7652C52.1245 55.2107 52.6745 55.3918 53.1258 55.167Z" fill="#EAD4C1"/>
<path d="M101.352 33.3032L101.56 33.9799C101.56 33.9799 82.5396 37.7066 81.467 39.0595C80.3944 40.414 75.5907 46.9466 69.4677 48.2411C68.5051 48.444 67.4954 48.7478 66.4756 49.1199C67.6828 48.6572 73.6562 46.3235 75.2164 44.6192C76.9502 42.7219 79.3573 40.323 80.228 39.2926C81.0979 38.2613 83.8145 37.1657 90.3351 35.5937C94.7819 34.5235 99.0694 33.7102 101.352 33.3032Z" fill="#E8B188"/>
<path d="M84.5075 18.0954L72.168 24.0708L81.6054 42.9991L93.9449 37.0237L84.5075 18.0954Z" fill="#E7E7E7"/>
<path d="M119.647 10.6286L82.2481 28.7401L77.0547 18.3231L114.908 0L119.647 10.6286Z" fill="#005C84"/>
<path d="M126 24.8772L89.2023 42.6952L82.2485 28.7413L119.648 10.6299L126 24.8772Z" fill="#17415E"/>
</svg>
