<svg width="62" height="62" viewBox="0 0 62 62" fill="none" xmlns="http://www.w3.org/2000/svg">
<path d="M31 0.166626C48.02 0.166626 61.8334 13.98 61.8334 31C61.8334 48.02 48.02 61.8333 31 61.8333C13.98 61.8333 0.166702 48.02 0.166702 31C0.166702 13.98 13.98 0.166626 31 0.166626ZM12.5 37.0741H27.9167L20.9484 30.1058C23.7542 26.8375 27.8859 24.7408 32.5417 24.7408C39.8492 24.7408 45.9542 29.8591 47.5267 36.7041L50.4867 35.7175C48.5134 27.6391 41.2367 21.6575 32.5417 21.6575C27.0534 21.6575 22.1509 24.0933 18.7592 27.9166L12.5 21.6575V37.0741Z" fill="#A81C20"/>
</svg>
