<svg width="224" height="211" viewBox="0 0 224 211" fill="none" xmlns="http://www.w3.org/2000/svg">
<path fill-rule="evenodd" clip-rule="evenodd" d="M13.18 108.639L10.7891 108.487C10.5614 109.759 10.7701 109.948 11.2065 110.688C11.624 111.428 11.8517 112.643 12.383 113.307C12.9713 114.066 13.0472 114.749 14.0529 115.565C14.5084 115.945 15.1346 116.229 15.59 116.609C15.8936 116.855 16.349 117.634 16.7096 118.07C17.5255 119.057 17.2788 121.22 17.184 122.472C16.2352 137.312 -3.7275 141.581 0.617981 148.052C0.883644 148.45 0.617981 148.337 1.03545 148.868L3.16075 151.297C3.17973 151.316 3.21768 151.354 3.23666 151.373C12.3261 160.121 13.5975 159.589 24.5656 168.053C24.9831 168.565 25.2108 169.172 25.6852 169.665C26.3114 170.292 25.8939 170.349 26.5581 171.07C27.5069 172.075 26.6529 172.702 28.7213 174.182C29.1198 174.466 30.2963 175.681 30.7897 175.112C31.0553 174.353 30.6948 172.986 31.0174 171.943C31.321 170.975 31.2261 170.121 31.8144 169.248C32.4785 168.28 32.1939 167.787 32.915 166.857C33.655 165.908 33.4843 164.865 34.1864 164.485C36.3686 163.346 37.5831 166.402 40.809 163.233L42.365 161.164C43.3517 159.229 43.7502 158.678 42.6686 156.762C40.6382 153.099 49.8415 149.798 52.1945 149.039C53.1243 148.868 53.7126 149.153 54.3768 148.64C54.5286 148.526 54.5286 148.488 54.7183 148.356C55.3445 147.919 55.2496 148.147 55.5153 147.369C55.8569 146.363 56.8816 144.636 56.4072 143.631C56.2174 143.232 55.6292 142.739 55.4774 142.131C53.4849 135.129 52.9536 128.602 59.5572 123.971C59.9177 123.706 59.8228 123.649 60.1834 123.383C60.6388 123.042 61.9861 122.055 61.9671 121.41C61.9481 121.03 61.265 120.84 61.0373 120.537C60.7527 120.119 61.0942 120.347 60.6768 119.987L55.8569 116.172C55.4204 115.812 55.3445 115.736 54.8322 115.375C53.9403 114.787 53.2002 113.838 52.4222 113.098C51.9099 112.605 52.3274 113.041 52.0237 112.415C51.7581 111.903 51.4924 111.922 51.2267 111.409C50.9421 110.802 51.1508 110.499 50.7903 109.891L49.5569 108.373C49.2343 108.07 49.2912 108.316 48.9876 107.899C48.5701 107.273 49.0445 107.462 48.2665 106.798C47.6213 106.248 47.906 106.229 47.7162 105.375C47.5644 104.692 47.3177 104.749 46.9572 104.331C46.312 103.591 46.3499 101.181 47.2798 99.7392C48.5511 97.7847 53.3141 89.3594 53.9783 87.4808C54.3008 86.551 54.2819 84.957 54.1301 83.8374C48.7409 83.8564 43.1999 83.7995 38.0385 84.1031C35.3629 84.2549 32.7252 84.122 30.0117 84.2549C29.1198 84.2928 29.0249 84.3308 28.6075 84.8621C28.4746 85.0329 28.3038 85.2796 28.19 85.4883C27.8864 86.0196 28.2849 85.716 27.7346 86.1145C23.2942 89.2645 16.349 104.673 13.18 108.639Z" fill="#E0E0E0"/>
<path fill-rule="evenodd" clip-rule="evenodd" d="M119.711 197.977C119.521 198.774 119.312 198.3 119.312 199.704C119.293 202.455 116.637 205.34 116.883 209.856C117.946 210.596 119.445 210.122 120.906 210.084C122.633 210.046 123.772 209.628 125.138 209.666C126.656 209.704 127.472 209.344 129.54 209.325C137.586 209.249 140.736 203.67 144.949 198.603C145.86 197.673 146.391 197.047 147.492 196.478C153.848 193.157 162.596 189.02 162.084 180.007C161.875 179.855 161.78 179.817 161.553 179.665C161.268 179.438 161.23 179.362 161.059 179.248C160.889 179.096 160.699 179.039 160.471 178.925C160.281 178.83 160.13 178.735 159.902 178.603C159.37 178.299 159.257 178.166 158.782 177.882C141.837 168.906 143.753 155.775 140.584 153.232C140.508 153.175 140.47 153.137 140.414 153.08C140.357 153.023 140.319 152.966 140.262 152.928L139.332 152.055C133.108 146.021 148.061 127.785 154.304 140.86C154.589 141.467 154.759 141.524 155.101 142.036C155.689 142.89 156.505 145.698 157.074 146.419C158.422 146.344 159.2 144.693 160.035 143.877L161.002 142.871C161.154 142.719 161.211 142.662 161.363 142.472L162.653 140.879C164.494 138.81 165.822 138.412 162.691 136.571C162.065 136.191 162.388 136.305 161.951 135.945L159.389 134.237C157.549 133.421 158.099 132.605 155.594 132.434C153.773 132.301 152.463 132.112 150.661 132.814L148.402 133.459C148.023 133.592 147.681 133.687 147.359 133.782C138.155 136.495 141.97 136.533 133.886 143.763C133.563 143.934 133.222 143.953 132.861 144.123C132.444 144.294 132.387 144.465 131.893 144.655C131.324 144.863 130.242 145.053 129.673 145.205C128.743 145.452 128.611 145.85 128.307 146.647C127.472 148.772 128.421 148.583 126.523 150.499C126.011 151.012 123.449 151.904 122.5 152.093C119.976 152.625 116.997 152.017 114.454 152.359C113.107 152.53 113.145 152.321 111.988 152.795C111.134 153.175 108.819 154.048 108.192 154.56C106.485 156.002 102.784 154.294 100.982 155.395C100.26 155.832 99.824 156.002 99.5015 156.818C99.2737 157.426 99.5015 157.274 99.065 157.729C98.3629 158.45 98.4768 158.526 98.1352 159.513C96.0478 165.718 98.8753 167.862 95.4027 169.494C94.5867 169.874 94.2451 170.12 94.4918 171.126C102.405 194.599 123.278 184.106 119.711 197.977Z" fill="#E0E0E0"/>
<path fill-rule="evenodd" clip-rule="evenodd" d="M41.3783 178.034C41.4162 177.996 41.4731 177.901 41.4921 177.939C41.4921 177.939 42.0234 177.427 42.4978 177.351C43.162 177.256 42.8204 177.617 43.7692 177.256C45.0786 176.744 45.0786 176.838 46.5966 176.952C46.8433 176.971 49.443 176.99 49.5189 176.952L50.2021 177.863C50.8283 178.338 51.3216 179.647 51.9099 180.406C52.1945 180.767 52.2325 180.994 52.4412 181.355C53.1813 181.127 53.1813 180.539 53.3331 179.875C53.4849 179.21 53.9213 178.546 54.1301 178.072L55.9138 172.929C56.0656 172.531 56.3692 172.095 56.4641 171.639C57.5078 167.256 60.1454 162.607 61.284 158.299L62.84 152.872C63.2195 152.113 69.3488 147.729 69.975 147.274C71.9105 145.851 76.6355 140.025 77.7361 138.583C79.2542 138.431 79.5009 139.076 80.7153 138.792C80.7912 137.293 80.5066 129.418 80.8482 128.754L81.1328 128.431C81.3985 128.222 81.4364 128.26 81.4933 128.203C82.0247 127.767 81.5882 128.146 81.9298 127.577C82.2903 127.008 82.1765 127.33 82.6129 127.008C83.0494 126.685 82.8027 126.837 82.9924 126.401C83.372 125.566 83.0304 126.192 83.6187 125.755C84.2069 125.319 83.7325 125.604 84.093 125.034C84.3777 124.579 84.3208 124.844 84.7382 124.484C85.1747 124.104 85.4214 123.63 85.8388 123.307C86.5979 122.662 87.7364 122.093 88.4196 121.315C88.837 120.841 88.6283 121.106 89.1027 120.803C89.7479 120.385 89.3494 120.48 89.653 120.138C90.0705 119.664 89.7858 120.063 90.3361 119.759C90.6967 119.569 90.6397 119.474 90.9813 119.209L92.2717 118.203C92.784 117.861 93.2394 117.766 93.7518 117.425L95.0042 116.286C95.7253 116.172 95.934 116.078 96.4084 115.698L98.3819 114.294C99.0271 114.066 98.6096 114.389 99.084 113.99L99.6912 113.535C100.242 113.25 100.033 113.63 100.355 113.098C100.602 112.586 100.602 111.466 100.944 110.84C101.513 109.816 101.494 109.721 101.532 108.373C101.57 107.652 101.817 107.387 102.044 106.798C102.651 105.299 102.348 103.629 102.917 102.662C103.392 101.865 103.543 101.163 103.752 100.309C103.904 99.6255 104.113 99.6634 104.378 98.9613L105.194 96.7601C105.498 96.077 105.251 96.7032 105.688 96.1908C106.219 95.6026 105.764 95.261 106.352 94.7487C106.788 94.3502 107.528 94.4261 107.054 91.4848L106.75 90.4222C106.712 90.3842 106.636 90.3083 106.598 90.2704C104.872 88.2779 107.813 88.6195 102.727 88.0881C100.925 87.8984 101.19 87.3291 98.5717 88.942C97.7747 89.4354 96.9208 89.5872 96.4084 90.4032C96.0289 90.9914 96.4084 91.2951 95.953 91.9023C95.5735 92.4716 95.8202 91.9402 95.2888 92.3198C94.9473 92.5664 95.137 92.5854 94.7575 92.8321L91.19 94.8815C90.3741 95.299 90.9244 95.0902 90.5449 95.4318C90.2792 95.6595 90.5828 95.4508 90.2602 95.6026L89.5012 95.9252C89.0268 96.1908 88.1729 96.836 87.5656 96.9119C86.522 97.0258 86.522 96.5514 85.9717 96.2098L81.74 93.7619C80.4687 93.4014 79.3301 95.0333 78.2864 95.4508L76.7494 96.1908C74.3964 97.1776 75.7626 97.5951 75.0985 100.29C73.9979 100.555 73.865 100.593 72.9162 100.005C72.5177 99.7773 72.5557 99.9101 72.1952 99.7393C72.0433 99.4357 71.9674 98.9613 71.7777 98.7336C71.4551 98.2972 71.6638 98.8285 70.4114 97.0827L68.0774 93.8189C67.4701 93.1547 67.3373 92.3387 67.2424 92.5095L66.4075 92.13C65.0223 91.2192 65.0982 89.6252 65.99 88.3158C66.5024 87.5758 66.3316 87.2532 67.0906 86.6839C67.6979 86.2664 67.4322 86.4372 67.7358 85.83L68.7795 85.7351C68.7605 84.9381 68.4948 85.1279 67.9635 84.6725C66.825 83.7237 66.8439 83.5339 65.3259 83.5719L56.0846 83.7047C55.4963 84.5396 55.6102 85.5074 55.6102 86.8737C55.6102 88.7143 55.9328 88.4866 54.8132 89.8339C54.3768 90.3463 54.6804 90.3652 54.1491 91.0104C53.0105 92.4146 53.5798 92.5095 52.7259 93.3634C52.0807 94.0086 52.5551 93.9707 52.0997 94.7107L51.1319 96.4755C51.018 96.6842 50.8852 96.7791 50.7334 96.9878C50.5626 97.2345 50.1641 97.9177 50.1072 98.1454C49.5948 99.8722 49.5379 99.1131 48.7978 100.631C48.665 100.916 48.7978 100.688 48.6271 100.935C48.0009 101.751 47.7162 101.997 48.3614 103.098C48.9117 104.028 48.684 103.307 48.9307 104.54C49.1963 105.755 50.8852 107.083 51.6063 108.146C52.8587 109.91 52.0617 108.658 52.4602 110.176C52.593 110.65 52.8966 110.707 53.2382 111.391C53.5988 112.169 55.2686 113.819 56.0656 114.18C56.6349 114.446 56.7298 114.825 57.6216 115.47C57.7924 115.603 57.9632 115.755 58.115 115.888C59.1966 116.78 59.9936 117.785 61.1322 118.582L62.6123 119.873C63.1436 120.404 64.396 120.803 63.0867 122.947C62.84 123.364 62.6313 123.611 62.1569 123.877L60.0506 125.509C59.7849 125.831 59.9367 125.717 59.6331 126.021L58.2668 127.52C57.0144 128.772 56.7488 129.664 56.3123 131.372C56.1985 131.847 55.743 131.96 55.7241 134.579C55.7241 135.813 55.8379 137.084 56.1226 138.052C56.2364 138.431 56.54 139.019 56.6159 139.323C57.1093 141.278 56.2364 140.139 57.5647 142.188C58.115 143.042 58.4186 144.086 58.134 145.111C57.9063 145.984 57.9063 147.369 57.2801 148.052L56.4451 149.191C55.7241 150.007 55.1168 150.481 53.9593 150.462C52.5361 150.424 51.075 150.993 49.9933 151.24C49.6328 151.335 49.5948 151.278 49.2533 151.392C48.5322 151.657 47.9439 152.322 47.3557 152.815L45.4391 154.295C44.6991 154.58 44.775 154.694 44.2436 155.301C43.5415 156.098 44.6231 155.737 44.6231 157.597C44.6042 158.451 44.6611 159.324 44.6042 160.197C44.5472 161.221 44.1677 161.392 43.7313 161.904C43.3897 162.303 43.5415 162.436 43.3138 162.853C43.0292 163.385 42.9912 163.1 42.6307 163.536C42.346 163.935 42.5358 163.992 42.1563 164.276C41.606 164.694 41.7957 164.125 41.3213 164.789C40.8469 165.472 41.587 164.922 40.6382 165.472C40.1069 165.776 40.2397 165.851 39.8602 166.079C39.0632 166.535 37.6969 165.7 35.0593 165.984C34.471 167.351 35.0593 166.724 33.9966 168.394C33.7499 168.774 33.8069 169.096 33.2186 170.178C32.4027 171.658 32.5545 172.132 32.5734 173.954C32.5734 174.922 32.8581 176.706 32.4216 177.408C32.3837 177.427 32.3268 177.408 32.3078 177.465C32.2888 177.522 31.6246 177.446 31.1123 178.641C30.8087 179.343 30.3533 179.647 30.2774 180.482C30.2015 181.62 30.1635 181.943 29.9168 182.911C29.5563 184.353 29.8409 183.973 30.2584 184.941C30.7897 186.175 31.2262 186.611 31.378 187.01C31.8524 188.281 31.6057 187.522 32.2319 188.262C32.7063 188.812 32.3078 188.717 32.6493 189.211C32.8391 189.495 33.0668 189.438 33.3515 189.856L34.4141 191.431C35.2111 191.526 35.2111 191.279 35.5716 190.881L37.5831 189.249C38.2852 188.831 37.7539 188.679 38.6268 188.319C39.2719 188.053 40.8469 186.668 41.1506 186.175C41.7768 185.207 42.3081 186.118 42.2322 184.448L41.3783 183.822C41.3403 183.784 41.3213 183.746 41.3024 183.727C41.2834 183.689 41.2644 183.651 41.2454 183.632C40.9039 183.12 41.4162 183.556 40.8469 183.138C40.4484 182.854 40.5623 183.29 40.2587 182.645C40.0689 182.266 40.1069 181.677 40.1069 181.222C40.1069 180.102 40.1638 180.596 40.4484 180.007C40.809 179.267 40.5244 178.243 41.3783 178.034Z" fill="#E0E0E0"/>
<path fill-rule="evenodd" clip-rule="evenodd" d="M108.857 95.6594C106.276 97.2723 105.669 102.339 104.359 104.996C104.264 105.204 104.207 105.299 104.151 105.394C103.695 106.191 104.094 106.931 103.733 107.709C103.429 108.392 103.41 107.842 103.278 108.829C103.164 109.607 102.955 109.664 102.841 110.252C102.708 111.03 102.917 110.992 102.614 111.713C102.291 112.51 102.082 113.497 101.608 114.218C101.266 114.749 96.6171 117.349 95.2888 118.374C94.9852 118.601 94.6816 118.81 94.321 119.057L91.2849 121.182C89.9756 122.321 86.9015 124.256 86.0665 125.471L84.8141 126.97C84.4725 127.311 84.4536 127.501 84.0551 127.88C82.9165 128.981 82.3283 129.702 82.6319 131.353C83.5427 131.524 85.5352 131.467 86.1804 132.055C86.1993 132.093 86.2752 132.188 86.3132 132.226C86.5789 132.473 86.1614 132.188 86.5599 132.416L88.856 133.744C90.2412 134.712 90.8864 134.105 90.9054 135.623L90.9243 137.141C91.0762 137.805 91.228 137.672 91.3418 138.507L91.7593 140.291C91.8352 140.689 91.8352 140.67 92.1578 140.898C92.7271 141.334 92.3475 140.822 92.803 141.486C93.7897 142.89 94.0364 141.695 97.6608 143.118C98.4198 143.403 98.6286 143.232 99.3117 143.763C99.862 144.2 100.564 144.2 102.025 145.433L103.942 146.686C104.283 146.894 104.359 146.97 104.625 147.198C105.346 147.805 106.712 148.299 107.168 149.115C107.851 150.367 106.352 151.752 107.32 152.853C108.211 153.859 108.876 152.53 110.299 152.34C110.963 152.265 112.253 151.202 113.316 151.012C115.726 150.614 119.654 151.43 122.026 150.784C122.766 150.576 124.113 149.532 124.815 149.209C125.385 148.944 125.802 148.906 126.125 148.45C126.257 148.28 126.846 147.084 126.865 146.951C127.036 145.927 126.675 146.097 127.168 145.111C127.605 144.238 127.681 144.56 128.44 144.067C129.047 143.668 129.692 143.612 130.223 143.137C130.964 142.473 132.614 142.682 133.62 141.676L133.753 141.524C133.772 141.505 133.81 141.467 133.829 141.448C134.967 140.196 134.702 140.082 136.391 138.678C136.808 138.336 136.713 138.26 137.169 137.938L137.871 137.482C137.909 137.444 137.928 137.425 137.947 137.387L138.668 136.742C139.636 135.945 141.04 134.143 142.083 133.346C143.165 132.511 144.379 133.516 144.304 131.258C144.266 130.366 144.057 130.196 143.62 129.74C143.601 129.721 143.564 129.683 143.545 129.664C142.937 129.038 142.121 127.729 141.647 127.349C140.964 126.818 141.362 126.818 140.584 126.116C139.92 125.508 139.446 124.066 139.066 123.212L138.231 121.77C137.966 121.182 137.966 120.594 137.662 120.081L137.32 119.512C136.372 117.671 136.504 110.385 137.017 109.056C137.264 108.373 137.776 107.481 137.966 106.703C138.023 106.457 137.985 106.571 138.079 106.343C138.592 104.901 139.066 103.098 138.155 101.561C137.738 100.84 137.453 101.428 137.434 100.062C137.415 98.6006 136.542 98.1262 136.467 96.4374C135.176 95.6214 135.783 95.2419 133.867 94.6726C131.836 94.0654 132.861 92.9648 131.647 92.3576C130.926 91.997 130.356 92.3006 129.559 92.1678L127.795 91.6365C126.77 91.0862 127.092 91.4467 126.03 91.1431C125.328 90.9344 125.1 90.7256 124.246 90.6687C122.045 90.5169 122.424 89.9287 120.736 89.7579C119.312 89.6061 118.136 89.2835 116.675 89.3214C115.821 89.3404 112.823 89.4922 112.367 89.3594C111.437 89.1317 111.608 89.0368 110.451 89.0178C109.616 89.0178 109.274 88.866 108.401 88.9229C108.382 89.1506 108.344 89.5302 108.363 89.7579C108.401 90.3651 108.553 90.2892 108.743 90.7067L109.236 91.8832C109.464 92.8889 108.914 94.388 108.857 95.6594Z" fill="#E0E0E0"/>
<path fill-rule="evenodd" clip-rule="evenodd" d="M114.967 36.8535L115.119 38.2577C114.568 38.5234 114.265 38.3905 113.98 38.9219C113.714 39.4152 114.037 39.1685 113.733 39.567C113.354 40.0225 112.785 40.0035 112.842 41.4457C112.861 42.1857 113.202 42.1667 113.639 42.5083C113.79 44.1402 114.246 43.8556 114.739 44.8993C115.043 45.5634 114.758 45.6583 114.948 46.3604C115.176 47.1005 115.384 46.702 115.346 47.8405C115.024 47.9544 114.758 47.9544 114.417 48.1442C114.075 48.3339 114.132 48.4288 113.582 48.6945C112.993 48.9601 112.234 49.1499 111.722 49.5294C110.621 50.3454 111.342 50.1556 110.033 50.5351C109.673 50.63 108.667 51.2372 108.268 51.5219C108.022 54.2924 108.439 54.2924 109.54 54.6149L111.969 55.2411C112.804 55.4499 112.158 55.5448 113.031 55.6396C114.265 55.7914 114.473 55.8294 115.517 56.2279C116.808 56.7023 117.737 56.8162 119.085 57.0818C119.882 57.2336 120.565 57.6321 121.267 57.8788C121.779 58.0496 122.121 57.9547 122.595 58.1065L124.569 58.4101C124.588 58.4291 124.626 58.4481 124.664 58.4671C125.631 58.9604 125.992 59.3589 125.973 60.6683C126.087 60.7442 126.239 60.9149 126.428 60.8201C126.428 61.3134 126.371 61.5222 126.561 61.9586C126.637 62.1484 122.045 71.6743 130.603 80.8776C132.235 80.9156 131.286 80.3083 132.633 80.4791C134.474 80.7068 136.011 78.961 134.835 83.6481C134.55 84.7677 134.626 85.9632 134.588 87.1776C134.55 88.9993 134.303 88.8095 134.265 89.4168C135.233 89.265 136.106 88.3921 136.998 88.0885C137.89 87.8038 137.32 88.1833 137.966 87.5951L144.19 83.8378C145.025 83.4773 147.226 83.724 148.175 83.3824C149.788 82.7942 150.642 83.3255 150.907 82.6613C151.021 81.39 151.04 80.6309 151.42 79.5303C151.609 78.961 151.685 78.7144 151.913 78.202C154.949 71.124 157.188 60.5544 151.704 54.1216C151.287 53.4764 150.091 52.4517 149.902 51.8255C149.693 51.0854 150.129 51.2562 149.617 50.592C149.37 50.2884 149.142 50.2315 148.915 49.9469C148.858 49.871 147.871 48.3719 147.833 48.296C147.548 47.7267 147.397 46.8917 146.903 46.3414C141.476 40.402 145.746 44.8613 138.573 41.8252C137.662 41.4457 137.415 41.2559 136.239 41.2559C136.239 40.5917 135.67 37.4038 135.309 37.0243C133.108 35.2975 127.13 37.7074 125.328 39.9655C124.758 40.2881 125.024 40.1932 124.683 40.7625C124.075 40.7246 123.848 40.5728 123.525 40.1932C122.861 39.4342 123.126 39.8327 122.386 39.3583C122.235 37.7643 122.14 38.9598 121.381 37.6505C119.825 34.899 118.155 37.0243 114.967 36.8535Z" fill="#E0E0E0"/>
<path fill-rule="evenodd" clip-rule="evenodd" d="M190.074 88.9603C189.428 90.5543 190.339 89.5675 188.821 90.5543C189.087 102.965 183.223 95.0136 179.162 99.6817C178.631 100.289 177.53 101.333 177.208 101.978C177.037 102.3 177.303 107.006 177.36 107.671C178.176 115.602 164.418 112.225 167.568 120.138C167.606 120.252 168.005 120.745 168.156 120.935C168.688 121.637 169.826 122.244 170.073 122.775C170.377 123.421 169.845 123.231 170.623 123.515C169.067 127.652 172.464 127.33 171.876 132.149C171.819 132.643 171.895 133.041 171.838 133.554C171.8 133.554 171.515 133.497 171.458 133.497L170.946 133.668C170.984 134.54 171.268 134.483 172.236 134.559L172.388 133.8L173.849 133.762C174.077 133.288 183.546 128.392 184.76 128.07C185.367 127.918 186.278 127.481 186.696 127.064C187.246 126.533 186.905 126.646 187.094 126.039C187.721 126.248 187.398 126.305 188.252 126.324C189.125 125.09 188.043 125.47 191.041 125.451C196.791 125.413 202.237 116.817 204.324 118.107C204.571 118.259 205.691 118.487 206.051 118.582C206.772 118.62 206.184 118.601 206.791 118.354C207.474 118.544 206.469 118.164 206.981 118.506C207.873 119.037 211.061 118.866 211.801 119.17C212.294 119.379 211.763 119.398 212.56 119.53C214.021 119.777 215.387 119.777 216.943 119.91C217.683 119.967 218.461 120.346 218.898 119.739C219.467 118.961 218.727 118.582 218.822 117.823C218.898 117.367 219.088 117.405 219.012 116.703C218.955 116.02 218.879 116.267 218.689 115.792C218.822 115.318 219.031 115.413 219.145 114.881C219.315 114.065 219.069 114.103 218.86 113.724C218.405 112.946 218.784 113.382 218.974 112.984C219.296 112.282 218.936 112.547 218.841 111.826C218.006 106.02 211.706 102.111 211.308 96.3799C213.262 97.5374 211.782 95.5639 211.725 94.8997C211.573 94.7669 211.63 94.7859 211.383 94.672C211.346 94.6531 211.194 94.6151 211.137 94.5961C211.289 94.1976 211.611 94.0079 211.839 93.5904C212.143 93.0211 212.199 92.7175 212.674 92.1482L213.205 91.2943C213.642 90.763 214.685 90.5163 213.736 89.9091C213.699 89.8901 213.585 89.8332 213.528 89.7952L213.243 89.6434C212.143 89.0362 211.004 90.004 209.96 89.4347C209.296 89.0931 209.865 88.9793 208.29 89.0931C207.949 89.1121 208.063 89.0931 207.74 89.169C207.114 89.3588 207.873 89.3018 207.228 89.3398C206.81 89.3778 206.621 89.0931 206.279 88.9982C205.482 88.7515 205.482 89.0362 205.159 89.1121L203.148 88.8085C198.802 88.2961 193.527 88.7515 190.074 88.9603Z" fill="#E0E0E0"/>
<path fill-rule="evenodd" clip-rule="evenodd" d="M127.908 8.31305C126.58 8.48383 127.358 7.99046 125.005 8.00944C123.051 8.00944 120.166 7.30733 121.589 10.1537C121.836 10.6471 123.202 11.8615 123.658 12.3359C124.36 13.095 125.48 13.3606 126.049 14.3284C126.77 15.5239 126.144 15.5049 125.935 16.3399C125.745 17.023 126.011 16.7953 125.612 17.3835C121.495 23.4558 134.227 25.4863 117.32 34.0444C116.732 34.348 116.257 34.4619 116.181 35.2589C118.383 35.2778 119.502 34.4429 121.305 34.6706C121.836 35.6004 122.538 36.3025 123.221 37.1564C124.322 38.5417 123.753 39.2058 125.84 38.0483C129.863 35.8471 137.472 33.1146 137.112 39.889C137.112 39.9459 137.131 39.9839 137.15 40.0218C137.339 40.7429 139.768 40.7429 140.812 40.9326C141.628 41.0845 142.482 41.0275 143.241 41.3691C150.831 44.9366 145.822 44.2345 150.528 49.3959C151.818 50.8191 151.325 50.1739 152.615 49.3769C153.203 49.0164 153.469 48.8266 153.962 48.4281C156.942 46.0751 156.619 44.9176 158.27 43.3805C158.308 43.3426 158.384 43.2857 158.422 43.2477C158.441 43.2098 158.479 43.1718 158.498 43.1528C158.517 43.1149 158.536 43.0769 158.555 43.0579C158.839 42.5646 158.498 42.7733 158.972 42.242C159.522 41.6727 159.522 41.464 159.94 40.9326C160.661 40.0218 161.192 39.6043 161.705 38.314C161.894 37.8586 162.122 34.8224 162.122 34.1772C162.122 31.1031 161.192 30.0595 160.908 28.6932C160.3 25.657 160.547 22.2983 162.103 22.7727C164.874 23.5887 168.669 25.2396 170.832 25.4483C174.456 25.7709 180.794 23.0953 172.767 17.2887C152.634 -0.909244 147.359 38.5227 145.613 4.91636C145.233 4.85943 144.892 4.87841 144.531 4.82148C143.829 4.7266 144.076 4.6507 143.45 4.53684C142.672 4.38504 141.647 4.6507 141.192 2.81003C140.888 1.61455 141.097 1.97509 140.3 1.00732C139.882 0.494973 140.129 0.608829 139.844 0.0585272C138.668 -0.131232 138.478 0.191359 137.681 0.305214C137.302 0.362142 136.903 0.32419 136.505 0.381118C135.935 0.457021 135.935 0.589853 135.423 0.665757C132.899 1.1022 133.089 1.1022 132.102 2.35461C131.969 2.5254 131.628 2.81003 131.514 2.98082C131.248 3.37931 131.419 3.41726 131.134 3.81576C130.907 4.11937 130.736 4.11937 130.508 4.40401C130.205 4.78353 130.337 4.82148 129.996 5.23895C129.844 5.42871 129.578 5.6754 129.426 5.88413C129.161 6.28263 129.218 6.41546 128.952 6.79498C128.648 7.23142 128.345 7.34528 128.117 7.8007C128.003 8.06636 128.022 8.14227 127.908 8.31305Z" fill="#E0E0E0"/>
<path fill-rule="evenodd" clip-rule="evenodd" d="M156.562 64.9179C156.562 66.2842 156.714 69.4911 156.505 70.6676C156.372 71.3887 155.86 71.958 155.613 72.5083C155.101 73.6089 155.955 73.3432 154.835 74.6146C154.171 75.3737 154.797 75.4496 154.019 76.5122C152.615 78.4098 153.602 78.2959 153.165 79.8709C152.957 80.649 152.293 82.2619 152.976 83.2676C154.285 83.4005 157.055 82.4327 158.365 82.0152C158.63 81.9393 159.276 81.8255 159.541 81.7875C160.205 81.7116 161.496 81.9963 161.97 82.3378C162.293 82.9261 162.141 84.2923 162.388 85.1273C162.577 85.7345 162.71 85.6776 163.014 86.0951C163.299 86.4746 163.109 86.2279 163.28 86.5884C163.299 86.6264 163.318 86.6643 163.336 86.6833L163.621 87.1767L165.139 87.1957C165.727 85.6017 167.151 84.8237 167.948 84.1026C171.762 80.649 171.857 83.5523 179.675 83.8369C180.301 83.8559 180.548 83.799 181.06 83.9508C183.09 84.539 182.237 84.2354 184.571 80.7249C185.045 79.9848 185.614 79.3206 186.373 78.8652C187.777 78.0303 186.867 78.4478 187.664 77.8975C188.935 76.9676 188.764 76.9676 189.637 76.2276C189.808 76.0758 189.865 76.0758 190.074 75.905C190.358 75.6583 190.472 75.3547 190.776 75.108C191.231 74.7474 191.269 74.9752 192.351 73.7987C192.825 73.2863 192.597 73.3812 192.711 72.6601C192.958 71.18 193.926 71.7682 191.952 70.6487C190.51 69.8137 191.25 70.4399 190.396 69.9465C188.973 69.1116 188.688 69.1685 186.734 69.548C184.134 70.0414 183.584 70.2122 181.326 70.9523C180.605 71.18 180.548 71.5026 179.675 71.5595C178.745 70.2691 178.783 70.6676 178.422 69.4721C178.327 69.1685 176.79 66.7396 177.322 64.9749C177.493 64.4056 178.138 64.2917 178.688 64.083C179.523 63.7794 179.371 63.6845 180.073 63.1911C180.851 62.6598 180.472 62.508 180.643 61.4643C180.965 59.5857 182.635 60.136 178.707 57.8589C178.479 57.7261 178.422 57.6881 178.271 57.5363C177.777 57.0239 177.796 57.0239 178.46 56.1321C178.764 55.7336 178.802 55.6197 179.143 55.2971L179.295 55.1453C180.149 54.3104 179.978 54.7279 180.718 53.836L183.052 51.6158C183.906 50.9137 184.058 51.6538 183.982 47.498C183.944 46.4923 184.077 45.126 183.793 44.2911C183.337 44.1203 182.673 44.0634 182.085 44.0065L175.462 42.6402C171.61 41.9571 167.302 41.0083 163.545 40.42C161.989 40.1733 162.141 41.5396 160.547 43.2285C159.902 43.8926 160.168 43.5321 159.693 44.4429L157.909 46.6251C157.625 47.0236 157.549 47.8586 156.05 48.8453L152.577 51.3122C151.818 51.9953 152.425 52.2041 152.843 52.5267C153.507 53.058 153.014 53.2098 153.564 53.7601C154.209 54.4053 153.905 53.798 154.475 54.8417C154.778 55.392 155.12 55.4489 155.367 55.9233L156.012 57.3845C156.562 59.4908 156.543 62.4511 156.562 64.9179Z" fill="#E0E0E0"/>
<path fill-rule="evenodd" clip-rule="evenodd" d="M81.4743 149.171C81.5503 149.228 81.6072 149.247 81.721 149.38C81.8349 149.57 82.0816 151.107 81.9677 152.739C81.5503 153.403 81.8539 153.498 81.3415 154.086C79.7096 155.965 80.3358 155.642 79.8424 156.23C77.9448 158.546 74.0168 156.819 72.6695 158.337C72.1951 158.868 72.3659 158.735 72.1951 159.494C72.0433 160.215 72.0623 161.05 71.8725 161.752C71.531 163.119 70.9996 164.105 70.3545 165.358C69.9939 166.079 69.6144 166.364 69.3298 166.914C68.6656 168.166 68.4758 168.982 67.565 170.311C67.2614 170.766 66.8629 171.278 66.4264 171.582C66.1228 171.791 65.952 171.829 65.5915 171.924C63.8837 172.398 63.1816 172.417 61.3599 171.677C60.3542 171.259 59.3674 170.405 58.5514 171.582C57.9252 172.455 58.3617 172.834 58.0011 173.631C57.8873 173.859 57.6975 174.068 57.5647 174.39L56.7867 176.193C56.559 176.857 56.6918 177.37 57.4319 177.446C59.1397 177.635 61.1132 177.332 62.7261 177.294C63.4093 177.294 65.174 177.237 65.7433 177.332C66.6352 177.502 67.0716 178.053 67.5271 178.717C67.584 178.774 67.7927 179.04 67.8496 179.134C68.0014 179.324 68.0204 179.4 68.1722 179.59C69.6713 181.696 70.2596 181.165 71.3981 179.286C71.4171 179.248 71.4361 179.21 71.4551 179.172L71.6258 178.736C72.3469 177.142 76.256 176.573 77.774 176.269L79.7665 175.529C81.74 174.656 82.2903 174.751 83.6945 174.163C83.7325 174.163 83.7704 174.144 83.8084 174.125C83.8274 174.125 84.0171 174.011 84.093 173.973C85.4213 173.328 87.6415 173.347 88.856 173.764L90.4879 174.409C91.1521 174.675 91.3798 174.979 91.968 175.339C92.5183 175.643 92.8409 175.567 93.562 175.548C93.543 174.618 93.562 174.087 93.1256 173.423L92.9548 173.157C92.4045 172.208 91.7783 169.76 92.6322 168.849C94.0554 167.331 95.175 168.736 95.3837 163.346C95.4027 162.834 95.3837 162.986 95.4976 162.606C95.6304 162.17 95.6114 162.303 95.6683 161.714C95.8581 160.102 95.934 158.014 96.731 156.591L98.5716 154.352C100.355 152.853 104.473 154.105 105.289 153.024C105.707 152.473 105.441 150.063 105.156 149.57C104.967 149.247 101.513 147.369 100.925 146.837L99.8241 145.964C99.5394 145.661 99.6533 145.699 99.1979 145.528C98.6475 145.338 98.2111 145.3 97.6798 145.073C96.9018 144.769 97.2244 144.75 96.2566 144.522C95.7063 144.408 95.3078 144.2 94.6816 144.143C93.3533 144.01 91.7972 144.162 91.0192 142.966L88.9319 139.019C88.818 138.697 88.875 138.488 88.7611 138.127C88.6662 137.824 88.6283 137.9 88.4954 137.482C88.3816 137.122 88.4195 136.951 88.3057 136.609C88.1159 135.888 87.7364 135.167 87.1861 134.807L85.8198 134.199C85.2126 133.877 84.1689 133.383 83.4289 133.744C82.8406 134.029 83.0114 134.712 83.0114 135.49C83.0304 136.666 82.9165 138.317 83.0304 139.437C83.0873 140.082 83.4668 140.386 83.296 141.05C83.1632 141.486 82.7078 141.619 82.3283 142.055C81.1897 143.327 81.1897 142.454 81.1707 144.883C81.1707 145.813 80.7912 148.602 81.4743 149.171Z" fill="#E0E0E0"/>
<path fill-rule="evenodd" clip-rule="evenodd" d="M154.304 113.686C153.886 112.339 153.716 110.878 154.721 109.796C155.841 108.581 154.987 109.454 155.48 108.733C155.765 108.316 155.841 108.543 156.239 108.107C156.998 107.272 157.928 106.608 158.82 105.868L162.596 103.268C162.615 103.23 162.634 103.135 162.634 103.154C162.653 103.173 162.672 103.059 162.691 103.021C162.9 102.281 162.957 101.94 162.767 101.371C162.539 100.763 162.217 100.536 161.837 100.004C159.352 96.6076 159.788 99.7766 159.598 95.7917C159.56 95.1844 159.484 95.3932 159.712 94.9377C160.224 93.8751 159.959 93.951 160.357 93.4576C161.856 91.617 164.684 91.9775 165.689 91.5031C167.34 90.7061 167.625 91.1805 169.409 90.9718C170.984 90.782 175.993 90.763 176.904 90.1368C177.094 90.023 177.189 89.8712 177.341 89.7004C178.195 88.7895 179.049 87.8597 179.883 86.9299C180.51 86.3416 180.642 86.6832 180.642 85.4688L175.747 84.8995C174.931 84.6528 173.394 84.501 172.54 84.3871C171.61 84.2733 171.762 84.0835 171.192 84.0456C170.566 84.0076 169.257 84.9374 168.783 85.3739C168.213 85.8862 168.555 85.8672 167.625 86.0191C167.264 87.5371 167.321 87.1766 166.562 88.1444C166.183 88.6377 166.221 88.5239 165.481 88.6947C151.059 92.0344 154.114 88.5808 148.345 96.1522C148.326 96.2091 148.232 96.4179 148.194 96.4748C148.175 96.5127 148.156 96.5697 148.118 96.6076C148.118 96.7025 148.08 96.7974 148.023 96.8733C148.004 96.9302 147.985 96.9871 147.947 97.0251C147.928 97.082 147.909 97.12 147.89 97.1579C147.605 103.363 151.097 99.9664 151.097 105.659C151.097 105.754 151.059 105.849 151.021 105.925C151.002 106.039 150.983 106.115 150.926 106.19C150.907 106.247 150.869 106.304 150.831 106.342C150.812 106.437 150.755 106.532 150.68 106.589C150.015 108.866 147.966 107.803 148.915 111.143C150.964 113.857 150.357 113.686 154.304 113.686Z" fill="#E0E0E0"/>
<path fill-rule="evenodd" clip-rule="evenodd" d="M152.255 85.0516L151.837 84.4254C150.414 84.3685 150.129 84.5772 149.086 84.767C148.251 84.9188 146.96 84.8049 146.239 84.9567C145.784 85.0516 145.86 85.1844 145.12 85.3173C144.266 85.4501 144.55 85.5639 142.956 86.2281C142.064 86.5886 142.539 86.6266 142.008 86.9302C141.154 87.4426 142.159 86.5507 140.869 87.5944L139.237 88.676C138.725 88.9417 138.44 88.9417 138.061 89.1883C137.624 89.435 136.979 90.0612 135.821 90.7254C135.309 91.01 135.005 90.9341 134.114 91.4465C133.962 92.6989 134.664 93.2112 135.556 93.5718C136.296 93.8754 137.074 94.5775 137.871 95.0519C137.909 96.5889 137.947 95.8299 138.383 96.6838L138.971 98.3917C139.237 100.688 140.186 100.024 140.205 101.561C140.243 102.908 140.319 104.787 140.205 106.096C140.148 106.76 139.92 107.272 139.598 107.671C138.763 108.658 139.199 108.126 139.066 109.436C139.009 110.024 138.497 109.967 138.421 113.383C138.383 116.153 138.478 116.343 139.028 118.43C139.351 119.721 138.554 119.417 139.863 121.087L141.362 124.066C141.951 124.009 141.704 123.952 142.083 123.649C142.71 123.117 142.273 123.535 142.956 123.307C143.488 123.117 143.184 123.117 143.658 122.795C151.59 118.639 150.357 122.225 155.253 121.428C155.518 121.39 155.746 121.315 155.993 121.239C156.733 120.954 156.372 118.525 156.258 118.316C155.936 117.804 156.296 118.297 155.86 117.937C155.025 117.235 155.518 117.197 155.196 116.191C155.082 115.793 154.892 115.356 154.721 114.863L154.076 115.185C154 115.223 153.924 115.242 153.848 115.242H151.932C150.983 115.242 147.264 112.984 147.264 111.675C147.074 111.599 146.941 111.428 146.941 111.219C146.941 106.286 150.243 106.722 149.218 103.325C149.067 103.268 148.953 103.155 148.839 103.022H148.706C148.44 103.022 148.232 102.813 148.232 102.547V102.358C147.586 102.13 146.296 100.384 146.296 99.6441V97.7275C146.296 97.4998 147.757 93.2302 148.251 93.0784C148.459 92.3763 152.425 89.2073 152.9 89.2073C153.355 89.2073 158.289 87.5944 160.148 87.5944C160.224 87.3667 161.306 86.6456 161.534 86.6456C161.116 86.0004 160.889 86.1522 160.832 85.2224C160.756 83.6094 160.87 82.7176 159.01 83.3627C157.625 83.8371 153.564 84.9947 152.255 85.0516Z" fill="#E0E0E0"/>
<path fill-rule="evenodd" clip-rule="evenodd" d="M100.393 80.2691L98.6855 80.402C98.1352 80.5727 98.4388 81.18 98.1162 82.2616C97.7177 83.6089 97.6418 83.4191 97.0726 84.5767C96.9018 84.8803 97.0156 84.4059 96.9208 84.9182C96.8828 85.2218 96.9587 85.4306 96.9587 85.4495L97.4331 87.442C98.3439 87.461 97.9834 87.3851 98.4578 87.1764C99.6533 86.6261 100.071 86.0758 101.456 86.3414C102.822 86.5691 105.023 86.3983 106.238 86.7209C107.414 87.0435 107.547 86.645 108.344 86.8727L116.523 87.8595C116.77 87.8595 116.864 87.8785 117.13 87.8405C118.269 87.6697 117.111 87.442 118.515 87.7836C119.92 88.1252 119.483 87.423 121.703 88.4667C122.462 88.8273 122.956 88.8083 123.942 88.9411L129.882 90.7059C130.489 90.8767 131.305 90.7438 132.14 90.6869L132.842 86.5691C132.899 85.4875 133.222 85.5255 133.298 84.6146L133.392 82.7739C133.317 82.1667 133.203 82.0908 132.766 82.0908C132.709 82.0908 132.387 82.1288 132.254 82.1477C131.666 82.2047 131.723 82.1667 131.191 82.3375C130.375 82.6411 129.749 82.6411 128.762 82.5083C128.724 82.0339 128.781 81.5595 128.743 81.123C128.686 80.383 128.554 80.6866 128.44 79.9086C128.383 79.4532 128.44 78.9977 128.364 78.5803C128.136 77.214 125.688 75.9047 124.777 73.5896C124.569 73.0773 124.739 72.8116 124.474 72.3751C124.341 72.1664 123.999 71.9577 123.81 71.711C123.43 71.2366 123.601 71.1797 123.373 70.6104C123.07 69.8324 122.519 69.7754 122.443 68.7128C122.292 66.7013 121.514 67.5173 122.14 66.3028C122.216 66.1321 122.519 65.5628 122.633 65.43C122.918 65.0694 123.032 65.1833 123.392 64.6709L124.588 62.9441C124.777 62.1471 124.645 60.8378 124.227 60.3824C123.525 59.6044 123.164 60.0218 122.083 59.6423C120.641 59.1489 119.142 58.8074 117.699 58.295L108.496 55.7902C107.32 55.5056 107.339 55.8471 106.883 56.0559C105.82 56.5113 106.542 55.7143 104.587 57.3842L102.727 59.7562C102.367 60.3634 102.462 60.1357 102.063 60.6101C101.551 61.2173 101.892 61.0086 101.703 61.6727L101.114 62.5836C100.716 63.1149 100.678 62.7923 100.583 63.5513C100.488 64.1586 100.659 64.2914 100.393 64.8797C100.147 65.4489 100.166 65.0315 100.166 65.9613C100.147 67.2896 99.9569 70.098 100.716 71.1797C101.039 71.6541 101.114 71.3315 101.57 71.8248L102.708 72.9444C104.283 74.2348 104.34 73.9122 103.942 75.0318C103.297 76.7965 103.202 75.677 102.765 76.7206C102.063 78.3905 102.329 76.9673 101.608 78.4664L100.393 80.2691Z" fill="#E0E0E0"/>
<path fill-rule="evenodd" clip-rule="evenodd" d="M185.918 44.1963C185.823 44.8415 185.994 45.1451 186.051 45.6954V50.9897C185.766 51.2174 185.519 51.3692 185.311 51.6159L182.35 54.4433C181.496 55.0885 182.255 54.8228 181.326 55.5439L180.282 56.7394C180.68 57.802 182.028 57.9539 182.958 58.4472C183.318 61.806 176.43 70.7626 181.174 69.4533C186.582 67.9542 187.284 66.9674 192.066 69.0168L197.36 72.2237C198.518 73.0966 198.214 73.0018 198.48 73.2105C199.03 73.6469 198.499 73.0018 199.789 74.0454C200.188 74.368 200.605 74.7665 200.947 75.0132C204.552 77.499 203.148 76.6641 202.674 77.8786C202.408 78.6186 202.598 78.4099 202.104 78.9981C201.573 79.6054 201.744 79.2069 201.516 80.0608C201.288 80.9147 201.288 80.5162 200.833 81.0665C200.131 81.8825 200.719 84.4253 201.08 85.2981C201.307 85.8105 201.421 85.9813 201.611 86.6075C202.901 86.6644 204.476 86.7593 205.577 86.4936C205.805 86.5126 205.767 86.7213 206.108 86.9491C206.564 87.2527 206.526 87.1388 207.076 87.1957L213.471 87.803C213.395 87.0819 213.566 87.6512 213.015 86.8542C212.124 85.5828 212.636 85.6587 212.199 84.9566C211.858 84.4253 212.105 85.0325 211.839 84.4253C211.687 84.0457 211.706 84.0457 211.516 83.6852C211.099 82.8882 211.194 80.6301 211.383 80.0987C215.862 68.3716 230.094 66.8346 205.577 63.0773C204.438 62.9066 204.932 62.584 203.471 62.5081C202.541 62.4701 201.63 62.603 200.7 62.5081C200.017 60.8002 200.643 61.2936 200.169 60.3069C198.708 57.2707 199.941 54.709 199.562 50.8379C199.524 50.4204 199.315 48.6746 199.125 48.3331C198.973 48.0864 198.575 47.9346 198.404 47.7069C198.005 47.2325 198.29 47.2135 198.024 46.7201C197.55 45.8093 197.227 46.815 196.981 44.8984C195.349 44.3671 196.411 43.7788 191.8 43.8927C189.656 43.9496 187.967 44.1394 185.918 44.1963Z" fill="#E0E0E0"/>
<path fill-rule="evenodd" clip-rule="evenodd" d="M157.549 123.041C156.581 123.117 151.154 122.775 150.717 122.604C150.547 122.528 150.433 122.339 149.958 122.225C148.327 121.826 144.323 123.971 143.032 124.9C141.97 125.678 145.746 129.018 146.201 132.453C147.321 132.491 149.427 131.542 150.205 131.352C150.85 131.181 151.078 131.219 151.704 131.011C153.052 130.517 156.904 130.802 158.118 131.276C158.801 131.542 158.327 131.618 159.408 132.111L160.547 132.794C160.566 132.794 160.813 132.965 160.813 132.984L166.183 136.571C166.524 136.817 166.6 137.557 167.872 135.963C168.365 135.337 168.403 135.299 168.631 134.293C168.877 133.155 169.864 133.383 169.769 130.84C166.24 128.392 167.796 128.62 168.213 126.95C169.143 123.287 163.735 121.428 165.633 117.367C165.86 116.893 166.259 115.963 166.354 115.393C166.657 113.837 166.543 112.395 168.422 112.13C169.048 112.035 170.054 111.902 170.813 111.769C171.819 111.598 172.255 111.522 172.881 110.991L174.229 109.758C174.779 109.321 175.215 109.188 175.272 108.239L175.215 102.755C175.158 101.37 175.007 101.769 173.754 101.655C172.881 101.56 172.711 101.105 170.623 101.826L169.75 102.262C168.593 102.774 167.245 103.211 165.974 103.742C165.006 104.16 163.488 104.463 162.293 105.412C162.027 105.621 161.894 105.811 161.572 106C161.534 106.019 161.496 106.038 161.458 106.038C161.439 106.057 161.382 106.076 161.363 106.095L156.904 109.378C156.391 109.871 156.714 109.644 156.429 110.251C155.367 112.452 156.239 112.68 156.524 114.596C156.828 116.57 158.801 117.538 157.928 120.688C157.701 121.561 157.72 122.092 157.549 123.041Z" fill="#E0E0E0"/>
<path fill-rule="evenodd" clip-rule="evenodd" d="M201.933 61.0659C202.806 61.1797 203.471 60.99 204.362 61.1228C205.197 61.2556 204.666 61.2366 205.311 61.4074C206.032 61.5972 206.165 61.4454 206.886 61.7869L207.987 62.2044C208.822 62.6219 207.702 62.4132 209.201 62.508C210.586 62.6029 210.776 63.343 212.086 63.3619C213.471 63.3809 216.924 63.2291 218.082 63.6276C218.632 63.8174 218.765 63.7984 219.429 63.7984C219.24 63.2291 219.429 63.5707 218.67 63.2481C218.727 62.6788 218.651 63.1722 218.784 62.9635L219.069 62.6409C219.923 61.5592 218.974 61.5972 219.183 60.3258C220.928 49.4336 224.458 53.2668 222.883 42.071C222.75 41.1981 222.56 42.0899 222.484 40.6857C222.446 40.0216 222.408 39.718 222.048 39.3574C220.852 38.124 220.871 38.7692 219.809 38.9589C218.291 39.2436 219.315 40.1544 217.608 38.9589C216.184 37.9722 217.949 38.7881 216.184 37.1942C210.605 32.2414 215.084 32.0137 205.159 34.4996C191.174 38.0291 196.772 28.8827 189.485 23.2658L189.428 20.799C187.626 20.6472 187.018 21.0457 186.677 20.9508C184.779 20.3625 182.521 20.8939 182.464 20.8749C181.781 20.78 182.217 20.5523 181.098 20.6661L177.322 20.2866C177.322 31.9189 166.411 23.8161 162.217 24.0059C162.103 27.2887 162.748 26.5487 162.729 27.6113C162.71 29.0914 162.976 28.0098 163.109 29.1673C163.185 29.7936 163.052 30.6854 163.242 31.2167C164.93 36.0746 163.45 35.1258 163.811 37.9532C163.147 38.2948 163.355 38.0291 163.204 38.8261C164.836 38.7502 166.278 39.8698 167.758 39.68C168.612 39.5662 168.327 39.5472 168.953 39.8887C174.456 42.8869 188.29 41.5586 192.275 42.3936C192.92 42.5264 193.148 42.2797 193.622 42.2607C193.755 42.2607 196.355 42.7541 197.057 43.2854C198.594 44.424 198.499 45.0692 199.713 46.6821C204.059 52.4128 199.77 58.3333 201.933 61.0659Z" fill="#E0E0E0"/>
<path fill-rule="evenodd" clip-rule="evenodd" d="M175.443 92.9263C175.121 92.5848 175.234 92.5468 174.988 92.1863C171.629 92.1293 162.596 91.8067 161.648 95.9055C161.458 96.7974 161.591 97.4616 161.989 98.0688C162.748 99.2263 163.754 99.473 164.209 99.9284L164.93 100.65L164.171 101.105V102.225C165.006 102.756 165.386 102.452 166.126 102.206C166.676 102.035 166.961 102.092 167.549 101.826C169.409 100.972 168.156 101.522 169.617 101.143C169.921 101.067 170.68 100.46 172.54 100.384C173.564 100.346 175.064 100.934 175.861 100.46C177.018 99.7576 176.942 98.5052 178.878 98.0119C179.447 97.8601 179.618 97.7462 180.168 97.4995L182.863 96.5317C183.565 96.3989 183.47 96.6266 185.292 96.2281C186.563 95.9435 186.089 95.8866 186.146 93.6854C186.335 85.8673 190.187 88.0875 195.842 87.1007C196.487 86.9869 196.298 86.873 196.753 86.6643C197.55 86.3037 198.499 86.6453 199.296 86.6453C199.448 84.52 197.683 79.2257 200.358 78.9411C200.605 77.3661 200.131 78.239 200.871 77.0245C200.586 76.5691 200.169 76.1516 199.675 75.829C199.353 75.6393 199.22 75.5823 198.878 75.4115L196.62 74.0073C195.899 73.6847 196.393 73.9124 195.918 73.514C195.368 73.0585 194.172 73.0965 193.926 74.6146C193.831 75.2028 193.945 75.089 193.489 75.3926C191.345 76.8917 190.833 77.6128 188.783 79.1878C188.423 79.4534 188.536 79.5673 188.176 79.757C187.626 80.0227 187.664 79.3965 186.202 81.4459C183.28 85.6206 179.238 93.0402 175.443 92.9263Z" fill="#E0E0E0"/>
<path fill-rule="evenodd" clip-rule="evenodd" d="M65.2689 154.276C65.3448 154.333 65.4207 154.371 65.4966 154.409C65.6484 154.485 65.8002 154.599 65.971 154.656C66.0659 154.751 66.1987 154.789 66.3126 154.789H66.2746C66.4265 154.846 66.5024 154.96 66.6731 154.979V154.997C66.787 155.092 67.0337 155.149 67.1855 155.225C67.2804 155.282 67.3942 155.301 67.5081 155.339C67.565 155.377 67.6409 155.434 67.7358 155.453C67.9635 155.529 68.2102 155.681 68.4569 155.757C68.5707 155.813 68.6277 155.889 68.7605 155.908C68.7795 155.927 68.8174 155.965 68.8743 155.984C68.9882 156.041 69.0641 156.098 69.178 156.155C69.2539 156.212 69.3487 156.25 69.4436 156.25C69.3298 156.25 69.2918 156.231 69.4246 156.307C69.6144 156.402 69.7662 156.478 69.937 156.554C70.0698 156.629 70.2216 156.724 70.3734 156.762C70.4873 156.857 70.734 156.933 70.8668 156.971C71.0756 157.085 71.3033 157.199 71.5499 157.199C71.6448 157.256 71.6638 157.275 71.7966 157.294L71.3981 159.058L67.5271 168.698L65.2879 170.937H62.878L59.5002 169.647V167.237L64.1493 153.593C64.2252 153.669 64.3201 153.726 64.415 153.764C64.4909 153.859 64.5478 153.878 64.6427 153.935C64.7566 153.992 64.8704 154.011 64.9653 154.087C65.0222 154.144 65.0981 154.2 65.174 154.219C65.212 154.238 65.231 154.257 65.2689 154.276Z" fill="#E0E0E0"/>
<path fill-rule="evenodd" clip-rule="evenodd" d="M81.1897 139.931L80.222 143.631V147.331L80.8671 151.829L80.222 153.593L78.7798 155.187L76.6924 156.402L74.9846 156.61C74.9277 156.573 74.8518 156.554 74.7948 156.554H73.6183L73.6373 156.573C73.5235 156.516 73.4476 156.516 73.3337 156.516C73.2957 156.497 73.2388 156.497 73.1819 156.478C73.0301 156.421 72.8403 156.44 72.6885 156.44H72.7075C72.6506 156.421 72.5936 156.402 72.5367 156.402C72.4229 156.345 72.328 156.364 72.2141 156.364C72.1572 156.326 72.0813 156.326 72.0244 156.326L72.0623 156.364C72.0433 156.364 71.9295 156.307 71.8726 156.288C71.7966 156.25 71.7207 156.25 71.6448 156.25C71.6069 156.231 71.5689 156.212 71.531 156.212C71.4741 156.174 71.4171 156.136 71.3412 156.136C71.2274 156.079 71.1325 156.041 71.0186 156.003C70.9048 155.908 70.753 155.87 70.6391 155.832C70.5442 155.795 70.4304 155.7 70.3545 155.681L70.1647 155.605L69.8991 155.472C69.7852 155.377 69.7283 155.32 69.6144 155.301C69.5385 155.244 69.4626 155.206 69.3677 155.168H69.3867C69.3108 155.111 69.2349 155.073 69.159 155.035C69.0831 154.941 68.9692 154.884 68.8364 154.884C68.7036 154.827 68.5707 154.751 68.4189 154.713C68.2861 154.637 68.2102 154.599 68.0584 154.542C67.9825 154.504 67.8686 154.447 67.7927 154.409C67.6979 154.39 67.6219 154.371 67.5271 154.314C67.4701 154.295 67.4322 154.276 67.3753 154.257C67.3183 154.201 67.1855 154.144 67.1286 154.125C67.0716 154.087 67.0337 154.068 66.9578 154.049C66.8819 153.992 66.6542 153.897 66.5403 153.878C66.5024 153.821 66.4265 153.783 66.3506 153.764C66.2747 153.65 66.1608 153.555 66.0469 153.536C65.9521 153.46 65.8572 153.442 65.7623 153.404C65.7433 153.385 65.7054 153.385 65.6864 153.366C65.6295 153.328 65.5725 153.309 65.5156 153.29C65.4397 153.233 65.231 153.119 65.1361 153.1C65.0602 153.062 65.0792 153.081 65.0222 153.024L68.8174 150.538L76.0473 142.189L78.4572 139.931H81.1897Z" fill="#E0E0E0"/>
</svg>
