<svg width="30" height="30" viewBox="0 0 30 30" fill="none" xmlns="http://www.w3.org/2000/svg">
<path d="M15 0.0806274C23.2355 0.0806274 29.9194 6.76452 29.9194 15C29.9194 23.2355 23.2355 29.9193 15 29.9193C6.76452 29.9193 0.0806656 23.2355 0.0806656 15C0.0806656 6.76452 6.76452 0.0806274 15 0.0806274ZM6.04839 17.9391H13.5081L10.1363 14.5673C11.494 12.9859 13.4932 11.9714 15.746 11.9714C19.2819 11.9714 22.2359 14.448 22.9968 17.7601L24.4291 17.2827C23.4742 13.3738 19.9532 10.4794 15.746 10.4794C13.0904 10.4794 10.7182 11.658 9.07704 13.508L6.04839 10.4794V17.9391Z" fill="#A81C20"/>
</svg>
