<svg width="30" height="30" viewBox="0 0 30 30" fill="none" xmlns="http://www.w3.org/2000/svg">
<path d="M15 0.0806274C6.76456 0.0806274 0.0806847 6.76452 0.0806847 15C0.0806847 23.2355 6.76456 29.9193 15 29.9193C23.2355 29.9193 29.9194 23.2355 29.9194 15C29.9194 6.76452 23.2355 0.0806274 15 0.0806274ZM23.9517 17.9391H16.492L19.8638 14.5673C18.5061 12.9859 16.5069 11.9714 14.2541 11.9714C10.7182 11.9714 7.76415 14.448 7.00326 17.7601L5.571 17.2827C6.52582 13.3738 10.0468 10.4794 14.2541 10.4794C16.9097 10.4794 19.2819 11.658 20.923 13.508L23.9517 10.4794V17.9391Z" fill="#A81C20"/>
</svg>
