<svg width="62" height="62" viewBox="0 0 62 62" fill="none" xmlns="http://www.w3.org/2000/svg">
<path d="M31.0001 0.166626C13.9801 0.166626 0.166748 13.98 0.166748 31C0.166748 48.02 13.9801 61.8333 31.0001 61.8333C48.0201 61.8333 61.8334 48.02 61.8334 31C61.8334 13.98 48.0201 0.166626 31.0001 0.166626ZM49.5001 37.0741H34.0834L41.0518 30.1058C38.2459 26.8375 34.1143 24.7408 29.4584 24.7408C22.1509 24.7408 16.0459 29.8591 14.4734 36.7041L11.5134 35.7175C13.4867 27.6391 20.7634 21.6575 29.4584 21.6575C34.9468 21.6575 39.8493 24.0933 43.2409 27.9166L49.5001 21.6575V37.0741Z" fill="#A81C20"/>
</svg>
