<svg width="260" height="338" viewBox="0 0 260 338" fill="none" xmlns="http://www.w3.org/2000/svg">
<path fill-rule="evenodd" clip-rule="evenodd" d="M130.378 285.099C129.942 282.24 127.708 282.839 127.164 279.463C129.261 277.421 132.911 273.555 135.308 271.976L134.818 264.843C132.094 263.237 127.627 263.155 126.074 260.95C132.067 256.948 138.195 256.077 136.861 244.778C135.989 237.373 130.024 229.777 126.019 227.381C127.191 223.651 130.323 223.951 129.806 217.117C129.561 213.442 126.673 209.603 124.903 206.962C127.3 204.185 128.989 198.795 128.825 194.221C128.607 188.613 124.984 184.638 125.148 180.881C127.381 179.029 132.285 176.851 135.254 177.096C140.347 177.505 140.865 180.99 143.562 183.685C152.769 183.113 159.606 181.207 155.302 170.508C153.913 167.023 151.543 165.499 150.426 161.905C149.5 158.992 148.138 154.663 147.566 151.641C149.582 149.79 151.815 148.456 154.049 146.877L154.621 137.266C175.459 138.328 165.626 135.741 178.292 153.846C181.261 158.066 187.227 164.164 193.818 164.791C198.395 165.226 202.072 164.6 205.967 163.647C210.598 162.504 210.979 164.655 215.065 166.696C224.381 171.325 226.751 168.766 230.973 168.275C232.825 168.03 234.324 168.929 237.238 169.038C238.055 164.464 238.246 162.504 240.834 159.808L259.057 140.397C252.547 128.799 252.247 131.168 243.748 130.405C238.736 129.915 237.456 130.324 233.37 128.01C229.121 125.614 229.23 124.688 226.288 122.211C215.746 122.564 215.447 120.359 213.186 111.239C211.225 110.613 211.442 110.477 209.699 110.34C204.061 109.959 208.555 111.239 201.228 108.68L197.795 106.883C195.126 102.608 195.017 85.021 192.484 79.9027C190.005 74.8388 189.133 74.0765 184.829 70.9456C181.479 68.4953 178.564 66.3446 175.051 64.221C174.07 57.1697 174.669 60.0828 170.038 55.8357C167.287 53.3309 166.116 52.2147 161.131 51.5613C156.174 50.9079 153.804 51.5341 150.835 48.3215C147.92 45.1634 148.165 44.5644 143.235 42.577C137.406 40.2356 129.996 41.2702 120.381 39.9634C113.19 39.0105 102.321 40.9707 94.2582 40.6168C86.8491 27.4398 84.8879 33.1027 81.1561 23.1655C77.3153 12.9016 77.0429 8.73617 70.2875 2.90999C67.727 0.677525 61.244 0.59585 57.5667 0.133022C49.9669 -0.765407 38.6625 3.12779 30.763 4.59795C25.4241 5.57805 20.9568 3.89009 15.8086 4.24402L14.1197 10.5058L9.18937 12.2482C7.14641 12.8199 5.8934 13.1739 3.79596 13.8545C3.06049 17.5299 3.25117 21.3142 2.97878 25.0712C2.62466 29.754 0.118631 33.0754 0.00967337 34.7362C-0.235482 38.9288 4.25903 36.3969 4.42247 51.8063L4.77658 54.5288C8.15427 56.3529 22.2643 60.0283 26.7044 61.199C33.1329 62.887 42.2853 56.7341 49.3948 56.2168C60.7265 68.1686 66.4195 59.8377 69.6338 62.6147C71.8129 65.5278 76.3619 83.4964 77.0974 88.3425C69.77 87.8524 60.5358 87.0084 53.7259 86.9812C50.5389 86.9812 48.1963 89.2681 45.7447 90.7655C42.3943 92.8074 41.5771 93.0796 41.0323 98.198C42.9118 100.485 46.6709 103.044 48.85 105.113C53.3446 109.496 50.1848 112.355 52.4184 116.194C53.5625 118.154 66.5557 126.703 69.4158 128.608C65.3844 131.549 57.3488 136.095 53.6987 139.553C55.2241 166.533 55.5782 152.757 46.453 166.506C44.41 169.582 42.5032 174.973 40.7054 178.539C37.7636 184.338 38.7987 177.695 34.1407 189.756C32.4519 194.085 30.763 198.196 29.0469 202.497C27.7122 205.873 25.5603 211.808 23.708 215.021C22.3733 217.335 17.8515 223.896 17.4429 226.374C17.1161 228.389 16.9799 241.729 17.334 243.526C18.7777 250.604 22.1009 250.523 29.3738 249.733C27.9301 257.057 26.7316 254.443 27.4126 263.781C27.8212 269.145 28.0936 274.018 28.4477 279.463L21.6106 284.69C22.6729 314.502 18.7232 306.116 15.9448 322.724C17.4974 324.303 35.9385 336.173 38.9621 336.636C51.1654 338.569 50.6206 337.589 53.5897 333.913C54.9517 332.225 55.5782 331.98 57.1036 330.428C58.7652 328.74 62.4425 324.956 63.0146 323.132C70.3965 323.323 69.77 322.86 75.8716 321.199C81.0471 319.783 84.0434 321.716 88.9465 321.825C93.4411 321.934 96.1922 319.266 100.605 321.199C104.146 322.751 107.061 324.439 110.874 326.208C115.342 328.305 118.066 325.855 122.669 325.174L149.282 328.387C155.329 328.849 158.761 330.837 161.485 326.535C156.855 317.932 151.107 321.689 149.908 307.341L137.406 309.302C133.538 299.174 139.149 300.263 140.565 292.014L132.203 287.658C132.094 287.576 131.467 287.004 131.168 286.786C129.642 285.589 131.658 285.697 130.378 285.099ZM94.2855 168.793C93.9586 168.711 93.659 168.657 93.3049 168.602C92.869 168.493 92.5149 168.412 92.0518 168.412H91.616C91.0985 168.33 90.6899 168.33 90.1996 168.33C88.1294 168.33 86.4405 170.018 86.4405 172.087C86.4405 174.129 88.1294 175.817 90.1996 175.817H90.6354C90.9623 175.844 91.2074 175.871 91.5343 175.871L91.4526 175.844C91.7794 175.953 92.1063 175.98 92.4332 176.035C92.8418 176.171 93.2231 176.198 93.6317 176.28C94.122 176.525 94.8575 176.688 95.4295 176.688C95.9471 176.688 96.4374 176.715 96.9549 176.606C97.1729 176.661 97.418 176.688 97.6632 176.688C97.8266 176.715 97.9628 176.743 98.1262 176.743C98.3169 176.77 98.5076 176.797 98.6983 176.797C98.889 176.851 99.0524 176.851 99.2158 176.906C99.5155 177.042 99.8151 177.124 100.115 177.178C102.811 178.049 105.454 175.735 104.936 172.958C104.936 171.869 104.528 170.971 103.765 170.208C103.411 169.855 102.92 169.528 102.457 169.31C101.967 169.038 101.395 168.902 100.768 168.902H99.3793C99.0524 168.82 98.7528 168.766 98.3986 168.766C97.9356 168.766 97.4725 168.766 97.0094 168.847C96.5464 168.82 96.165 168.847 95.7837 168.902H94.9392C94.7213 168.847 94.5034 168.82 94.2855 168.793Z" fill="#FEFEFE"/>
<path fill-rule="evenodd" clip-rule="evenodd" d="M137.46 94.7405C138.304 98.7425 141.6 96.1017 139.449 102.282C138.059 106.257 134.927 104.569 133.401 107.727C129.887 114.969 145.85 127.71 151.461 132.91C156.01 137.103 159.279 136.15 170.284 136.64C174.07 141.323 180.662 162.286 195.099 163.184C199.566 163.457 202.562 162.667 206.321 161.415C213.213 159.128 217.571 171.053 229.638 166.424C232.253 165.444 232.39 166.098 235.332 166.397C237.974 158.175 240.289 157.903 245.437 152.948C249.469 149.082 253.991 144.508 257.477 140.833C257.014 139.689 253.555 134.271 252.765 133.455C250.831 131.576 245.737 131.848 242.659 131.549C232.144 130.596 231.355 128.2 225.661 123.49C221.766 123.762 219.015 123.79 216.346 121.476C213.349 118.889 214.085 117.174 212.287 114.37C210.162 114.887 206.676 117.201 204.932 118.236C191.585 126.294 189.297 120.441 186.382 135.088C182.133 136.014 180.58 136.422 177.774 133.373C173.498 128.745 171.972 123.953 169.249 118.317C167.26 114.234 167.178 94.9855 159.224 92.753C156.364 91.9363 141.655 94.3593 137.46 94.7405Z" fill="#FF5353" fill-opacity="0.53"/>
<path fill-rule="evenodd" clip-rule="evenodd" d="M16.9253 5.44211C15.1002 8.4641 16.6256 10.8599 13.1117 12.2756C10.9053 13.174 6.92837 13.6913 4.91265 14.8892C4.23166 18.728 4.61301 22.5123 4.47682 26.3782C4.31338 31.0065 1.53495 31.8233 1.34428 34.7364C1.07188 38.8201 5.4302 36.261 5.81155 53.8756C12.4307 54.6107 24.3344 60.1374 29.6461 60.0285L46.698 54.7741C51.0291 53.3311 48.1962 55.0463 51.928 54.529C52.391 52.0243 53.3717 51.7521 53.5351 48.6212C53.7258 45.7081 53.3444 43.3123 53.8075 40.3175C59.8819 36.3426 62.7693 38.8201 73.9102 30.4892C77.2334 28.0117 77.5058 29.128 81.2376 27.6034C80.9108 25.3165 76.0894 12.2212 74.8091 9.87981C74.3188 9.0086 69.5519 4.18975 68.8437 3.6997C65.9563 1.73949 61.6797 2.20232 58.2475 1.68504C49.4764 0.351008 37.1642 5.41488 28.1752 6.20441C24.6885 6.50389 20.7388 5.25153 16.9253 5.44211Z" fill="#FFA3A3"/>
<path fill-rule="evenodd" clip-rule="evenodd" d="M29.8641 280.116C28.4749 281.478 24.9338 284.69 23.136 285.616C22.7818 291.66 23.8987 300.753 22.346 305.871C20.9296 310.5 17.797 318.694 17.5791 322.751C31.6347 330.674 34.0045 335.247 46.5347 335.901C50.212 336.091 49.8851 335.166 51.9281 332.879C71.6495 310.935 54.5703 329.639 84.5882 314.638C89.2189 312.351 91.0712 310.227 90.5264 304.973C88.32 283.928 90.8261 291.66 65.4116 288.093C63.8317 287.848 62.2791 287.168 61.0533 287.358C58.9831 287.712 59.5279 289.046 55.8233 288.475C51.7102 287.848 51.9008 284.418 50.6751 280.77C48.5776 274.671 46.6709 268.301 44.7369 261.876C43.4294 257.574 42.1764 257.574 38.9349 255.532C36.7012 254.117 33.5142 251.34 30.7902 250.768C26.6498 262.584 29.5372 265.633 29.8641 280.116Z" fill="#FFA3A3"/>
<path fill-rule="evenodd" clip-rule="evenodd" d="M26.0234 214.967C35.8024 217.009 41.0324 226.864 48.387 217.417C50.0486 215.293 50.1576 214.803 51.8192 213.17C54.189 210.801 61.353 201.899 63.396 200.782L65.33 204.512C66.6375 206.363 64.8124 205.574 66.1472 205.247C67.9722 206.255 66.5558 205.765 69.0346 204.512C70.451 203.777 71.7585 203.124 73.5563 203.069C77.1519 209.222 70.0969 212.598 77.6695 214.994L77.0974 227L81.2106 230.621C87.5846 231.084 87.6936 226.592 90.7172 223.488C94.8848 219.187 99.2976 220.711 103.138 218.969C104.637 218.043 104.228 218.234 105.236 214.313C105.617 212.843 106.08 210.393 106.897 209.086C108.913 205.819 112.264 205.792 116.268 204.539L115.178 185.591C113.108 184.42 109.54 183.113 107.006 181.861C104.173 180.472 100.959 178.757 97.1184 178.893C87.8298 179.274 84.5611 187.959 78.2415 182.541C72.3578 177.478 70.6417 188.368 62.3609 178.676C60.5086 176.525 59.2011 173.612 58.0298 170.372C56.3137 165.526 57.5667 168.412 54.979 167.023C52.1188 165.526 54.2435 165.989 50.0214 165.39L48.0602 168.194C46.3441 171.216 42.2309 180.309 40.1062 182.405C36.783 185.672 35.639 188.694 33.7594 194.629L28.7474 207.289C27.5488 210.638 26.6499 211.182 26.0234 214.967Z" fill="#FFA3A3"/>
<path fill-rule="evenodd" clip-rule="evenodd" d="M137.46 93.3521C142.336 92.6714 154.267 90.8201 158.189 91.0924C161.186 91.283 163.964 93.2432 165.462 95.4484C166.961 97.6809 168.949 110.286 169.439 114.098C169.766 116.521 175.623 128.364 176.767 129.861C177.638 131.004 178.537 131.957 179.681 132.692C185.048 136.123 184.775 130.787 185.184 128.881C185.974 125.097 191.34 121.476 195.099 120.55C204.851 118.127 199.675 118.835 208.01 114.887C208.691 114.588 209.727 114.098 210.108 113.853C210.271 113.744 210.734 113.417 210.898 113.308C211.906 112.491 211.197 113.199 211.96 112.192C209.781 110.586 211.415 111.402 207.602 111.947C204.388 112.437 195.834 108.435 195.48 107.89C193.71 102.01 193.192 84.3406 191.013 80.039C189.052 76.173 186.9 74.1311 183.386 71.7898C179.845 69.4212 177.039 66.9165 173.307 65.2285C173.58 61.0358 173.525 60.3552 167.369 55.3458C163.365 52.0788 160.478 53.1133 154.703 52.1604C149.582 51.3165 150.508 48.1856 145.714 45.1091C144.433 44.2652 141.9 43.4484 140.348 42.9039C137.161 41.7877 136.153 42.6589 133.946 42.1416C134.682 46.4976 137.814 48.9751 139.612 52.5961C141.328 56.1081 141.192 61.6076 141.682 66.2631C142.663 75.3018 138.414 84.2317 137.46 93.3521Z" fill="#FFA3A3"/>
<path fill-rule="evenodd" clip-rule="evenodd" d="M117.248 185.155L118.229 205.955C114.633 206.118 110.438 207.725 108.749 209.685C106.734 212.054 106.625 217.036 105.099 219.922L104.091 220.357C98.7252 222.236 93.0049 221.855 90.172 226.755C88.7828 229.178 87.4753 230.73 84.3428 231.737C80.5292 232.99 80.0389 231.52 77.3967 229.45C73.1746 236.148 79.3307 240.558 83.798 245.704C85.3234 247.473 86.0861 248.59 87.8567 250.55C93.0594 256.403 89.9269 253.953 100.85 254.988C105.562 255.423 110.792 256.104 114.633 258.146C120.953 261.44 120.135 261.848 126.21 258.309C130.214 255.995 133.238 255.233 134.382 249.488C136.288 239.905 127.245 230.104 122.56 227.545C125.039 220.929 132.884 222.78 122.451 206.962C124.33 203.015 126.564 202.443 126.373 195.528C126.264 191.145 125.039 186.571 123.214 183.331L117.248 185.155Z" fill="#FFA3A3"/>
<path fill-rule="evenodd" clip-rule="evenodd" d="M129.642 285.752L128.471 286.269C125.284 281.641 127.109 283.492 125.883 281.069C125.42 280.171 125.665 280.525 125.121 279.871C121.443 280.334 92.1609 288.692 90.0635 290.299C90.0907 295.88 93.196 303.666 91.7251 309.057C90.0362 315.21 83.7712 315.754 79.9849 318.858C88.1295 322.152 97.0095 318.204 100.823 319.675C105.781 321.58 112.073 326.807 117.902 325.147C127.082 322.533 128.226 324.33 136.834 325.718C141.165 326.399 155.956 328.414 159.361 327.624C159.088 322.914 151.134 319.429 149.691 314.774C149.282 313.522 149.309 312.787 149.091 311.725C148.301 307.804 148.873 307.995 142.527 309.492C140.266 310.037 138.414 310.636 136.561 310.854C131.222 300.209 137.76 300.508 138.74 292.504C136.725 291.742 135.335 291.143 133.538 290.054C132.857 289.645 131.903 289.019 131.304 288.502L129.642 285.752Z" fill="#FFA3A3"/>
<path fill-rule="evenodd" clip-rule="evenodd" d="M55.0879 40.8343C54.5704 48.8385 56.1503 48.9746 52.7998 56.2165C53.9711 57.1694 55.2786 58.0678 56.7223 59.0751C62.4698 63.1589 63.1236 59.9191 71.6495 60.7631C73.9649 65.5275 77.1519 85.4291 79.1404 88.1788C80.0938 89.4584 83.0901 90.3296 84.9969 91.2008C94.912 95.6385 91.1258 95.4207 97.2002 91.9359C99.9241 90.3841 101.341 91.2008 104.119 90.0574C105.399 86.9537 105.835 80.5013 106.298 77.071C107.66 66.6982 104.609 67.4605 96.0289 56.0259C91.8612 50.472 95.3206 48.6751 93.768 42.4406C93.7407 42.3045 85.5689 25.2071 76.4437 30.3798C69.1163 34.5725 72.1398 36.2877 55.0879 40.8343Z" fill="#FFA3A3"/>
<path fill-rule="evenodd" clip-rule="evenodd" d="M68.5986 259.806C64.5671 263.563 61.2984 279.517 60.2905 285.289C67.9721 287.277 73.3382 287.467 81.8369 288.093C91.6432 288.801 94.6395 287.14 103.465 284.472C110.057 282.485 116.295 280.933 122.751 278.973C126.591 277.802 126.891 276.849 127.899 275.924L128.58 275.298C131.304 272.983 133.783 271.922 133.047 267.892C132.72 266.123 133.428 268.9 132.775 266.803C131.821 263.727 129.506 264.87 122.424 263.101C115.015 261.222 113.789 255.75 91.3708 256.104C91.8611 265.551 80.9653 270.152 68.5986 259.806Z" fill="#FFA3A3"/>
<path fill-rule="evenodd" clip-rule="evenodd" d="M43.484 222.862C44.2195 223.515 39.9701 223.053 41.8224 223.379C40.0246 222.535 39.1257 222.835 37.4096 222.181C35.7753 221.555 32.3158 217.853 25.288 216.137C22.891 219.786 18.9685 223.679 18.805 229.178C18.5599 237.455 18.0696 240.204 19.9491 247.719C33.242 250.332 30.7904 245.214 37.6003 242.764C40.7056 241.647 43.8109 244.152 47.2703 243.58C49.7219 243.199 52.9634 241.239 55.7146 240.177C56.9676 241.702 57.5669 241.892 58.9288 243.335C76.7707 235.603 75.3543 236.611 75.8173 217.145C69.0074 210.856 73.1479 212.68 72.4124 205.002C72.3307 205.193 72.9572 204.893 71.5135 205.629C70.9142 205.928 70.5329 206.037 69.7974 206.391C68.163 207.153 67.3186 207.752 65.9294 208.406L64.1588 206.119C63.4506 204.948 63.5323 204.703 62.7424 203.587L49.0409 218.724C46.0173 221.637 48.3054 220.739 43.484 222.862Z" fill="#FFA3A3"/>
<path fill-rule="evenodd" clip-rule="evenodd" d="M94.8848 142.085L96.4647 150.198C107.715 148.483 109.866 151.614 113.053 157.957C116.05 163.947 120.681 165.09 126.7 168.166C126.237 170.698 123.541 171.815 122.015 173.121L124.222 179.302C127.926 178.022 130.977 175.109 135.935 175.653C140.647 176.198 142.009 180.173 144.842 182.16C147.321 181.507 151.243 180.881 153.095 179.574C158.108 173.013 149.5 166.778 148.274 164.137C147.539 162.504 146.34 157.521 145.659 155.262C144.243 150.634 145.114 150.497 145.959 146.223L136.207 148.102C135.063 145.134 132.012 141.431 130.351 138.709C127.164 133.482 126.673 135.551 119.509 135.986C115.941 136.204 109.158 136.068 105.699 137.293C103.983 137.892 95.8654 141.295 94.8848 142.085Z" fill="#FFA3A3"/>
<path fill-rule="evenodd" clip-rule="evenodd" d="M76.1168 159.863C65.1121 159.21 58.847 155.371 55.1697 158.665C53.726 159.945 52.0372 162.259 51.4106 163.729C58.3022 167.595 57.022 161.959 60.8355 172.005C66.6648 187.333 71.7858 177.096 77.3699 179.547C79.4945 180.472 80.802 182.46 83.2264 181.697C84.2887 181.344 87.8571 179.274 89.1373 178.73C91.5344 177.75 93.8498 177.314 95.8655 176.552C96.9551 176.606 97.2274 176.225 101.313 177.369C103.928 178.158 108.777 180.2 111.692 181.643C117.439 184.502 116.295 183.658 122.233 181.289C122.124 178.648 120.735 176.252 120.544 174.183C120.327 171.924 122.833 170.753 124.086 168.793C121.28 166.642 115.097 164.818 112.945 161.905C106.38 152.975 111.038 149.272 89.1101 154.445C78.6229 156.923 78.4867 156.079 76.1168 159.863Z" fill="#FFA3A3"/>
<path fill-rule="evenodd" clip-rule="evenodd" d="M97.1187 116.575C96.1925 109.687 97.391 113.28 96.8735 108.679C96.7645 106.583 95.7839 104.868 94.0678 101.22C91.3711 95.5296 90.5812 95.5841 80.9656 91.4731C74.7006 88.7778 64.8943 89.4312 57.7031 88.7778C51.0567 88.1788 53.9441 87.471 47.1342 91.5547C44.9006 92.8615 41.2232 94.6856 42.9938 98.2249C45.9902 104.242 52.0918 101.301 52.9907 110.993C53.5355 116.765 54.9519 115.976 60.8629 120.468L64.5402 123.109C65.6298 123.898 66.6922 124.824 67.7817 125.613C71.3773 128.281 72.3852 127.029 80.7477 123.708L92.2428 118.018C94.5581 117.228 95.2664 117.691 97.1187 116.575Z" fill="#FFA3A3"/>
<path fill-rule="evenodd" clip-rule="evenodd" d="M56.2319 155.18C84.8061 159.7 68.7893 157.93 80.2844 155.18C82.8449 154.581 85.2964 154.009 87.9114 153.356L88.429 153.084L94.5578 151.559L92.8145 140.533C95.7291 139.662 107.17 135.932 108.423 133.073C111.501 126.022 104.146 121.584 98.9979 120.495L98.3714 120.141C95.0481 118.807 94.6123 118.481 91.2891 120.386C88.8375 121.802 86.7946 123 84.7516 124.062C77.6421 127.846 74.673 126.893 67.2911 131.984C67.2094 132.066 67.046 132.175 66.937 132.257C66.8281 132.338 66.6919 132.447 66.5829 132.502L65.8202 133.019C65.6295 133.155 64.3765 133.945 64.2675 134.026L58.0025 138.001C54.0255 139.88 55.1151 140.588 55.4147 145.134C55.6599 148.456 55.7961 151.886 56.2319 155.18Z" fill="#FFA3A3"/>
<path fill-rule="evenodd" clip-rule="evenodd" d="M32.8057 248.317C34.1949 250.55 34.3038 249.733 37.1095 251.666C49.449 260.242 44.6004 255.695 47.2154 265.142C49.0677 271.894 52.064 285.616 57.6481 286.133C58.9828 284.527 59.5821 281.205 59.9907 279.327L63.5046 264.979C64.2673 262.474 65.9289 260.923 66.6099 258.472C60.3448 254.361 57.7298 258.935 58.2746 245.023L55.1965 242.655C49.5307 243.88 49.9938 246.357 43.4563 244.751C38.0084 243.417 36.5647 244.56 32.8057 248.317Z" fill="#FFA3A3"/>
<path fill-rule="evenodd" clip-rule="evenodd" d="M139.367 58.0135C138.931 53.2491 136.397 50.4177 134.354 46.9873C133.755 45.98 133.81 45.8983 132.856 44.6187L131.113 43.0669C126.101 40.9161 102.266 42.0051 95.7017 42.6585C94.9662 52.6229 95.0752 53.4669 100.686 58.8847L107.387 68.2502C109.049 70.5915 108.804 69.6114 108.531 72.6606L106.516 87.3078C105.235 97.1633 101.013 89.9214 94.5576 96.9455C96.4644 106.638 101.694 102.853 99.4062 118.916C102.757 119.678 106.488 121.611 108.395 123.817C111.61 127.519 110.711 129.725 109.757 134.734L129.86 133.754C132.094 137.103 135.526 141.867 136.997 146.114L148.519 144.208L148.328 148.51C150.589 147.829 150.589 147.339 152.605 146.631L152.632 136.994L134.6 118.617C131.876 114.043 127.218 108.434 135.471 104.133C141.273 101.111 135.962 98.0617 135.471 95.5297C134.954 92.9161 139.612 75.9549 140.211 71.3538C140.402 69.8564 139.748 59.2386 139.367 58.0135Z" fill="#FFA3A3"/>
<path fill-rule="evenodd" clip-rule="evenodd" d="M69.1163 257.002C70.451 259.343 68.8439 258.826 73.4201 261.794C75.5448 263.182 77.2064 263.672 79.9303 264.108C83.989 264.788 90.5537 262.012 89.7638 258.146C89.682 257.792 77.3971 239.306 74.2101 237.591C72.9026 238.244 61.1351 244.587 60.5086 245.431C58.6563 247.854 58.6291 256.648 69.1163 257.002Z" fill="#FFA3A3"/>
</svg>
