<svg width="16" height="202" viewBox="0 0 16 202" fill="none" xmlns="http://www.w3.org/2000/svg">
<path fill-rule="evenodd" clip-rule="evenodd" d="M8 16C12.4183 16 16 12.4183 16 8C16 3.58172 12.4183 0 8 0C3.58172 0 0 3.58172 0 8C0 12.4183 3.58172 16 8 16ZM8 13.6C11.0928 13.6 13.6 11.0928 13.6 8C13.6 4.90721 11.0928 2.4 8 2.4C4.90721 2.4 2.4 4.90721 2.4 8C2.4 11.0928 4.90721 13.6 8 13.6Z" fill="#C4C4C4"/>
<path fill-rule="evenodd" clip-rule="evenodd" d="M8 47C12.4183 47 16 43.4183 16 39C16 34.5817 12.4183 31 8 31C3.58172 31 0 34.5817 0 39C0 43.4183 3.58172 47 8 47ZM8 44.6C11.0928 44.6 13.6 42.0928 13.6 39C13.6 35.9072 11.0928 33.4 8 33.4C4.90721 33.4 2.4 35.9072 2.4 39C2.4 42.0928 4.90721 44.6 8 44.6Z" fill="#C4C4C4"/>
<path fill-rule="evenodd" clip-rule="evenodd" d="M8 78C12.4183 78 16 74.4183 16 70C16 65.5817 12.4183 62 8 62C3.58172 62 0 65.5817 0 70C0 74.4183 3.58172 78 8 78ZM8 75.6C11.0928 75.6 13.6 73.0928 13.6 70C13.6 66.9072 11.0928 64.4 8 64.4C4.90721 64.4 2.4 66.9072 2.4 70C2.4 73.0928 4.90721 75.6 8 75.6Z" fill="#C4C4C4"/>
<path fill-rule="evenodd" clip-rule="evenodd" d="M8 109C12.4183 109 16 105.418 16 101C16 96.5817 12.4183 93 8 93C3.58172 93 0 96.5817 0 101C0 105.418 3.58172 109 8 109ZM8 106.6C11.0928 106.6 13.6 104.093 13.6 101C13.6 97.9072 11.0928 95.4 8 95.4C4.90721 95.4 2.4 97.9072 2.4 101C2.4 104.093 4.90721 106.6 8 106.6Z" fill="#C4C4C4"/>
<path fill-rule="evenodd" clip-rule="evenodd" d="M8 140C12.4183 140 16 136.418 16 132C16 127.582 12.4183 124 8 124C3.58172 124 0 127.582 0 132C0 136.418 3.58172 140 8 140ZM8 137.6C11.0928 137.6 13.6 135.093 13.6 132C13.6 128.907 11.0928 126.4 8 126.4C4.90721 126.4 2.4 128.907 2.4 132C2.4 135.093 4.90721 137.6 8 137.6Z" fill="#C4C4C4"/>
<path fill-rule="evenodd" clip-rule="evenodd" d="M8 171C12.4183 171 16 167.418 16 163C16 158.582 12.4183 155 8 155C3.58172 155 0 158.582 0 163C0 167.418 3.58172 171 8 171ZM8 168.6C11.0928 168.6 13.6 166.093 13.6 163C13.6 159.907 11.0928 157.4 8 157.4C4.90721 157.4 2.4 159.907 2.4 163C2.4 166.093 4.90721 168.6 8 168.6Z" fill="#C4C4C4"/>
<path fill-rule="evenodd" clip-rule="evenodd" d="M8 202C12.4183 202 16 198.418 16 194C16 189.582 12.4183 186 8 186C3.58172 186 0 189.582 0 194C0 198.418 3.58172 202 8 202ZM8 199.6C11.0928 199.6 13.6 197.093 13.6 194C13.6 190.907 11.0928 188.4 8 188.4C4.90721 188.4 2.4 190.907 2.4 194C2.4 197.093 4.90721 199.6 8 199.6Z" fill="#C4C4C4"/>
</svg>
