<svg width="10" height="10" viewBox="0 0 10 10" fill="none" xmlns="http://www.w3.org/2000/svg">
<path d="M9.66204 1.96966L6.63208 4.99993L9.66204 8.03006C10.1127 8.48093 10.1127 9.21127 9.66204 9.66213C9.43686 9.88732 9.14162 10 8.84653 10C8.55095 10 8.25568 9.88749 8.03067 9.66213L5.00005 6.63165L1.96966 9.6621C1.7445 9.88729 1.44923 9.99997 1.15388 9.99997C0.858615 9.99997 0.563551 9.88746 0.338191 9.6621C-0.112501 9.21144 -0.112501 8.48107 0.338191 8.03004L3.36807 4.9999L0.338019 1.96966C-0.112673 1.51896 -0.112673 0.788452 0.338019 0.33776C0.788624 -0.112587 1.51871 -0.112587 1.96948 0.33776L5.00002 3.36804L8.03032 0.33776C8.48119 -0.112587 9.21135 -0.112587 9.66187 0.33776C10.1127 0.788452 10.1127 1.51896 9.66204 1.96966Z" fill="white"/>
</svg>
