<?xml version="1.0" encoding="utf-8"?>
<!-- Generator: Adobe Illustrator 17.0.0, SVG Export Plug-In . SVG Version: 6.00 Build 0)  -->
<!DOCTYPE svg PUBLIC "-//W3C//DTD SVG 1.1//EN" "http://www.w3.org/Graphics/SVG/1.1/DTD/svg11.dtd">
<svg version="1.1" id="Layer_1" xmlns="http://www.w3.org/2000/svg" xmlns:xlink="http://www.w3.org/1999/xlink" x="0px" y="0px"
	 width="528.667px" height="205.086px" viewBox="0 0 528.667 205.086" enable-background="new 0 0 528.667 205.086"
	 xml:space="preserve">
<path fill="#FFFFFF" d="M76.998,123.802c0.212-7.415,1.911-13.69,5.1-18.823c3.188-5.133,7.242-8.942,12.163-11.427
	c4.922-2.485,10.049-3.727,15.385-3.727c3.178,0,6.24,0.428,9.187,1.284c2.947,0.856,5.562,2.11,7.844,3.763
	c2.283,1.653,4.06,3.633,5.331,5.94v-9.196h14.33v65.671h-14.33v-8.964c-2.273,3.229-5.562,5.888-9.867,7.973
	c-4.306,2.085-8.548,3.129-12.728,3.129c-6.279,0-11.889-1.551-16.83-4.652c-4.94-3.101-8.773-7.376-11.498-12.828
	C78.36,136.495,76.998,130.447,76.998,123.802z M112.621,144.171c3.64-0.077,6.9-0.979,9.78-2.705
	c2.879-1.726,5.123-4.085,6.731-7.075c1.608-2.989,2.413-6.288,2.413-9.895c0-3.955-0.892-7.403-2.673-10.344
	c-1.782-2.942-4.151-5.188-7.108-6.741c-2.957-1.553-6.168-2.329-9.635-2.329c-3.429,0-6.631,0.8-9.607,2.402
	c-2.976,1.601-5.349,3.888-7.121,6.858c-1.773,2.97-2.658,6.442-2.658,10.416c0,4.051,0.972,7.552,2.918,10.503
	s4.459,5.175,7.541,6.67C106.284,143.424,109.424,144.171,112.621,144.171z"/>
<path fill="#FFFFFF" d="M162.888,69.717h15.746v87.571h-15.746V69.717z"/>
<path fill="#FFFFFF" d="M196.023,69.717h15.746v87.571h-15.746V69.717z"/>
<path fill="#C4161C" d="M229.157,91.617h14.561v6.501c5.143-5.836,11.297-8.754,18.462-8.754c3.351,0,6.539,0.665,9.564,1.994
	c3.023,1.329,5.72,3.275,8.089,5.836c2.369,2.562,4.223,5.668,5.562,9.317c1.339,3.65,2.008,7.719,2.008,12.207v38.571h-15.746
	V122.85c0-5.952-1.276-10.397-3.829-13.334c-2.552-2.937-5.658-4.406-9.318-4.406c-2.311,0-4.516,0.573-6.616,1.719
	c-2.099,1.146-3.79,2.774-5.071,4.883s-1.921,4.522-1.921,7.238v38.339h-15.746V91.617H229.157z"/>
<path fill="#C4161C" d="M302.075,123.802c0-3.506,0.712-7.242,2.137-11.21c1.426-3.968,3.564-7.705,6.414-11.21
	s6.447-6.347,10.791-8.523s9.298-3.265,14.865-3.265c5.624,0,11.056,1.435,16.295,4.305s9.491,6.934,12.756,12.192
	s4.897,11.239,4.897,17.942c0,2.138-0.193,4.585-0.577,7.339h-50.879c0.616,2.528,1.801,4.753,3.554,6.674
	c1.752,1.921,3.871,3.397,6.356,4.43c2.485,1.033,5.094,1.597,7.83,1.694c5.778-0.251,10.468-2.182,14.07-5.792h17.393
	c-1.541,4.003-3.785,7.568-6.731,10.696c-2.947,3.128-6.457,5.592-10.531,7.391c-4.074,1.799-8.577,2.786-13.507,2.96
	c-4.796,0-9.336-0.886-13.622-2.658s-8.066-4.228-11.34-7.367c-3.274-3.14-5.812-6.678-7.613-10.618
	c-1.801-3.938-2.73-7.949-2.788-12.033C301.998,125.959,302.075,124.977,302.075,123.802z M336.514,104.849
	c-4.758,0.097-8.668,1.416-11.73,3.958c-3.063,2.543-5.153,5.452-6.27,8.726h36.115c-0.694-2.004-1.844-3.983-3.453-5.937
	c-1.608-1.955-3.66-3.568-6.153-4.84C342.528,105.485,339.692,104.849,336.514,104.849z"/>
<path fill="#C4161C" d="M380.194,91.617h16.555l12.308,39.986l10.892-39.986h12.424l10.892,39.986l12.076-39.986h16.555
	l-23.778,65.671h-9.477l-12.77-42.471l-12.192,42.471h-9.708L380.194,91.617z"/>
<path fill="#C4161C" d="M484.113,103.693c1.597-4.526,4.405-8.007,8.421-10.444c4.015-2.437,8.142-3.655,12.379-3.655
	c3.601,0,7.063,0.857,10.386,2.572c3.322,1.715,6.013,4.107,8.075,7.18c2.061,3.072,3.13,6.525,3.207,10.358H511.56
	c-1.214-3.063-3.429-4.594-6.645-4.594c-1.579,0-2.986,0.506-4.218,1.517c-1.233,1.011-1.917,2.316-2.051,3.915
	c0.289,2.195,1.907,3.89,4.854,5.084c0.366,0.155,2.186,0.689,5.461,1.604c3.274,0.915,6.178,1.965,8.711,3.15
	c2.533,1.184,4.834,2.918,6.905,5.2c2.07,2.283,3.289,5.158,3.654,8.625c0,4.372-0.871,8.455-2.614,12.25
	c-1.744,3.794-4.42,6.867-8.032,9.216c-3.612,2.35-7.989,3.525-13.132,3.525c-2.195,0-4.526-0.241-6.991-0.722
	c-2.928-0.559-5.601-1.796-8.018-3.713c-2.418-1.916-4.372-4.425-5.865-7.527c-1.493-3.101-2.383-6.616-2.673-10.545h15.847
	c0.558,2.35,1.602,4.145,3.131,5.388c1.53,1.242,3.199,1.931,5.008,2.066c2.155-0.116,3.96-0.795,5.413-2.037
	c1.453-1.243,2.179-2.885,2.179-4.926c0-1.676-0.867-3.038-2.598-4.088c-1.732-1.049-4.493-2.263-8.284-3.641
	c-3.791-1.377-6.398-2.431-7.821-3.163c-3.714-1.811-6.418-4.18-8.111-7.108c-1.694-2.927-2.608-6-2.742-9.216
	C483.16,107.69,483.554,105.6,484.113,103.693z"/>
<path fill="#FFFFFF" d="M83.443,24.767c-161.261,146.387-60.97,239.086,85.281,132.865c-90.713,62.429-219.4,51.552-69.762-106.579
	C98.961,51.054,84.326,25.652,83.443,24.767L83.443,24.767z"/>
<path fill="#C4161C" d="M228.77,91.722c71.65-74.003-22.889-137.111-129.789-40.699l0,0l15.044,24.692
	C212.039-5.222,278.149,20.999,228.77,91.722z"/>
</svg>
