<svg width="19" height="19" viewBox="0 0 19 19" fill="none" xmlns="http://www.w3.org/2000/svg">
<path fill-rule="evenodd" clip-rule="evenodd" d="M1.50793 5.46259C1.61817 5.51771 1.74219 5.64173 1.83864 5.71062L1.89376 5.75196C1.96266 5.7933 2.004 5.84842 2.08667 5.88976C2.38982 6.12401 2.73431 6.3996 3.05124 6.63385L4.40164 7.66732C4.45675 7.70865 4.52565 7.76377 4.59455 7.80511L4.73234 7.43306C4.85636 7.17125 4.9666 6.92322 5.11817 6.67519C5.26975 6.42716 5.44888 6.19291 5.62801 5.98621L6.52368 5.15944C6.86817 4.89763 7.26778 4.67716 7.6536 4.52558L7.88786 4.42913C7.94297 4.41535 7.99809 4.40157 8.05321 4.38779C8.17723 4.33267 8.31502 4.30511 8.45282 4.27755L8.71463 4.22243C8.89376 4.1811 9.08668 4.13976 9.26581 4.13976C9.45872 4.13976 9.66542 4.1122 9.85833 4.12598L10.0512 4.13976C10.2166 4.13976 10.4646 4.16732 10.63 4.19488L11.2914 4.37401C11.3327 4.37401 11.3327 4.37401 11.3741 4.38779C11.4843 4.44291 11.6221 4.48424 11.7461 4.53936C11.7737 4.55314 11.7875 4.55314 11.815 4.56692L12.5729 4.96653C12.6831 5.03543 12.8347 5.13188 12.9312 5.22834C13.0414 5.3248 13.0552 5.35236 13.1516 5.24212L13.193 5.21456C13.193 5.20078 13.193 5.20078 13.193 5.20078L13.317 5.07676C13.3308 5.06298 13.3445 5.04921 13.3583 5.03543L13.4823 4.91141C13.4961 4.89763 13.5099 4.88385 13.5237 4.87007L14.2264 4.16732C14.2402 4.15354 14.254 4.13976 14.2678 4.12598C14.3642 4.01574 14.4883 3.91928 14.5847 3.80905C14.8603 3.51968 15.2323 3.18897 15.4804 2.92716C15.5217 2.87204 15.7146 2.70669 15.7146 2.66535C15.7146 2.62401 15.4942 2.45865 15.4666 2.4311L15.315 2.32086C15.2875 2.2933 15.2875 2.2933 15.2737 2.27952L14.1438 1.53543C14.1162 1.50787 14.0749 1.49409 14.0473 1.46653C14.0197 1.46653 14.0197 1.46653 13.9922 1.45275C13.9646 1.43897 13.9646 1.42519 13.9371 1.41141L12.7107 0.874009C12.5178 0.805111 12.0768 0.667316 11.8701 0.625977C11.8288 0.612198 11.8288 0.612198 11.7875 0.612198C11.6359 0.55708 11.4568 0.5433 11.3052 0.501962L10.7127 0.419284C10.5886 0.391725 10.2717 0.377946 9.95479 0.364166H9.27959C9.26581 0.364166 9.25203 0.364166 9.25203 0.364166C9.10045 0.391725 9.01778 0.377946 8.9351 0.391725L8.63195 0.433064C8.56305 0.433064 8.53549 0.433064 8.48038 0.446843C8.42526 0.446843 8.38392 0.460623 8.3288 0.460623C8.27368 0.474402 8.24612 0.488182 8.19101 0.488182C8.09455 0.488182 7.99809 0.529521 7.90164 0.5433L7.01975 0.763773C6.84061 0.818891 6.63392 0.874009 6.45479 0.956686L6.09652 1.09448C5.93116 1.16338 5.60045 1.31495 5.46266 1.39763C5.44888 1.41141 5.4351 1.41141 5.40754 1.42519L4.77368 1.79724C4.74612 1.8248 4.7599 1.81102 4.71856 1.83858L4.37408 2.07283C4.34652 2.10039 4.30518 2.11417 4.27762 2.14173C4.13982 2.23818 4.01581 2.34842 3.89179 2.44488C3.8229 2.48621 3.76778 2.54133 3.71266 2.59645L3.49219 2.78936C3.47841 2.80314 3.47841 2.80314 3.46463 2.80314L3.43707 2.84448H3.42329C3.42329 2.84448 3.42329 2.84448 3.42329 2.85826C3.28549 2.9685 3.1477 3.12007 3.02368 3.25787L2.98234 3.29921C2.96856 3.31299 2.95479 3.32676 2.94101 3.34054L2.78943 3.5059C2.70675 3.60236 2.5414 3.79527 2.4725 3.89173C2.36227 4.05708 2.23825 4.20865 2.12801 4.38779C1.96266 4.62204 1.81108 4.85629 1.67329 5.1181L1.61817 5.22834C1.60439 5.26968 1.57683 5.29724 1.56305 5.33858C1.54927 5.35236 1.54927 5.37991 1.53549 5.39369C1.52171 5.42125 1.50793 5.42125 1.50793 5.46259Z" fill="#E94235"/>
<path fill-rule="evenodd" clip-rule="evenodd" d="M1.50793 13.5512C1.53549 13.6201 1.57683 13.7165 1.61817 13.7716C1.72841 13.9921 1.85242 14.2126 1.99022 14.4055L2.4036 15.0118C2.43116 15.0531 2.44494 15.0531 2.4725 15.0945C2.50006 15.1496 2.51384 15.1634 2.55518 15.2047L2.88589 15.5905C2.96856 15.7008 3.09258 15.811 3.17526 15.9075L3.65754 16.3622C3.67132 16.376 3.67132 16.3898 3.69888 16.4035C3.71266 16.4173 3.71266 16.4173 3.74022 16.4311L4.01581 16.6653C4.13982 16.7618 4.27762 16.8583 4.40164 16.9547C4.48431 17.0236 4.59455 17.0925 4.69101 17.1614C4.84258 17.2579 5.00793 17.3543 5.15951 17.4508L5.44888 17.5886C5.47644 17.6024 5.47644 17.6161 5.504 17.6299C5.65557 17.7126 5.87604 17.809 6.0414 17.8779C6.28943 17.9744 6.53746 18.0984 6.78549 18.1673C6.84061 18.1811 6.86817 18.1949 6.92329 18.2087C7.14376 18.2913 7.36423 18.3327 7.58471 18.3878C7.62604 18.4016 7.68116 18.4153 7.7225 18.4291L8.13589 18.5118C8.19101 18.5256 8.23234 18.5256 8.28746 18.5256L8.72841 18.5945C8.7973 18.5945 8.81108 18.5945 8.87998 18.6083C8.99022 18.622 9.08667 18.622 9.19691 18.622C9.26581 18.622 9.27959 18.6358 9.34849 18.6358L10.1615 18.622C10.2717 18.6083 10.3957 18.622 10.4922 18.6083L11.6634 18.4291C11.8564 18.4016 12.504 18.2224 12.6694 18.1398C12.7107 18.126 12.6831 18.1398 12.7107 18.126C12.7245 18.126 12.7382 18.126 12.7658 18.1122C12.7934 18.1122 12.8071 18.0984 12.8347 18.0984L13.3032 17.9055C13.317 17.8917 13.3308 17.8917 13.3308 17.8917L13.5375 17.7953C13.5788 17.7815 13.6064 17.7539 13.6477 17.7401C13.689 17.7126 13.7166 17.7126 13.7579 17.685L14.3505 17.3543C14.378 17.3405 14.3918 17.3405 14.4056 17.3268L15.3012 16.6791C15.3977 16.5964 15.4942 16.5 15.5906 16.4173H15.6044L15.6595 16.3622L14.3642 15.3563C14.3367 15.3287 14.3091 15.3149 14.2816 15.2874L13.0965 14.3779C13.0276 14.3228 12.9725 14.2815 12.9036 14.2401L12.7382 14.0886L12.4902 14.2264C12.3662 14.2953 12.0906 14.4193 11.9528 14.4744C11.8977 14.502 11.8701 14.5157 11.8012 14.5295C11.691 14.5709 11.7186 14.5709 11.5808 14.6122C11.5394 14.6122 11.443 14.6535 11.3603 14.6811L10.5335 14.8327C10.4646 14.8327 10.4095 14.8464 10.3544 14.8602C10.2304 14.874 10.0926 14.8602 9.96856 14.874C9.72053 14.9016 9.41738 14.8602 9.21069 14.8602L8.94888 14.8327C8.57683 14.7638 8.2599 14.7087 7.91541 14.5709L7.57093 14.4468C7.54337 14.4331 7.51581 14.4193 7.50203 14.4055C7.44691 14.3917 7.40557 14.3779 7.36423 14.3504C7.12998 14.2264 6.95085 14.1437 6.73038 13.9921L6.56502 13.8681C6.56502 13.8681 6.56502 13.8681 6.55124 13.8681L6.49612 13.8268C6.48234 13.813 6.46856 13.7992 6.44101 13.7854L5.68313 13.0827C5.68313 13.0689 5.68313 13.0689 5.66935 13.0689L5.51778 12.8898C5.33864 12.6693 5.15951 12.3937 5.02171 12.1457L4.95282 12.0216C4.87014 11.8838 4.74612 11.6083 4.70478 11.4842L4.59455 11.2086V11.1949L3.43707 12.063C3.39573 12.0905 3.35439 12.1319 3.32683 12.1457L2.85833 12.5177C2.77565 12.5866 2.56896 12.7244 2.4725 12.8071L1.50793 13.5512Z" fill="#34A853"/>
<path fill-rule="evenodd" clip-rule="evenodd" d="M12.7382 14.0886L12.9036 14.2401C12.9725 14.2815 13.0276 14.3228 13.0965 14.3779L14.2815 15.2874C14.3091 15.3149 14.3366 15.3287 14.3642 15.3563L15.6595 16.3622C15.7008 16.3484 15.8111 16.2244 15.8386 16.1831L16.0729 15.9626C16.0866 15.935 16.0866 15.935 16.1142 15.9075L16.624 15.3012C16.6378 15.2874 16.6378 15.2736 16.6516 15.2598C16.6792 15.2323 16.6792 15.2323 16.6929 15.2047C16.7894 15.0531 16.9134 14.9153 16.9961 14.7638C17.0237 14.7224 17.0374 14.6949 17.065 14.6535C17.0788 14.626 17.0926 14.626 17.0926 14.5984L17.2028 14.4193C17.2166 14.4055 17.2303 14.3779 17.2303 14.3642C17.2441 14.3366 17.2579 14.3228 17.2717 14.2953C17.2855 14.2815 17.2855 14.2677 17.2992 14.2401L17.4233 14.0059C17.437 13.9783 17.4508 13.9646 17.4646 13.937L17.8918 12.8898C17.9055 12.8622 17.9055 12.8484 17.9193 12.8346C17.9193 12.8071 17.9331 12.7795 17.9331 12.752C18.002 12.559 18.0709 12.3799 18.0985 12.187C18.1122 12.1457 18.126 12.0905 18.1398 12.0354L18.2914 11.2775C18.3052 11.2224 18.3052 11.1535 18.3189 11.1122C18.3189 11.0709 18.3327 11.0846 18.3327 11.0433C18.3327 11.002 18.3327 10.9744 18.3327 10.9468C18.3465 10.9055 18.3465 10.9193 18.3603 10.8779C18.3603 10.8504 18.3465 10.809 18.3603 10.7815C18.3603 10.7264 18.374 10.6988 18.374 10.6161C18.374 10.5197 18.4016 10.3681 18.4016 10.2716C18.4154 10.1614 18.4016 10.0374 18.4154 9.92715C18.4429 9.78936 18.4429 9.34841 18.4154 9.21062C18.4016 9.12794 18.4016 8.96259 18.4016 8.86613C18.3878 8.78345 18.3603 8.53542 18.3465 8.46652C18.3327 8.42518 18.3327 8.43896 18.3327 8.38384C18.3327 8.32873 18.3189 8.34251 18.3189 8.31495L18.2363 7.91534C18.2087 7.79133 18.2225 7.83266 17.9469 7.83266H9.84452C9.63783 7.83266 9.69295 7.74999 9.69295 8.42518C9.69295 9.40353 9.69295 10.3957 9.69295 11.374H13.9784C14.1437 11.374 14.4469 11.3602 14.5847 11.3878C14.5433 11.5118 14.5296 11.6496 14.4744 11.7736V11.8012L14.4607 11.8149L14.3504 12.1457C14.3366 12.187 14.3229 12.2146 14.3091 12.2421C14.2953 12.2697 14.2953 12.2697 14.2815 12.2972C14.2815 12.311 14.2677 12.3386 14.2677 12.3523C14.254 12.3523 14.254 12.3661 14.254 12.3661L14.2126 12.4488C14.13 12.6004 14.0611 12.752 13.9646 12.9035L13.7855 13.1378C13.7441 13.1929 13.689 13.2342 13.6477 13.2894C13.4272 13.5787 13.1516 13.7854 12.8622 13.9921C12.8209 14.0197 12.7658 14.0472 12.7382 14.0886Z" fill="#4286F2"/>
<path fill-rule="evenodd" clip-rule="evenodd" d="M1.50789 13.5512L2.47246 12.8071C2.56891 12.7244 2.77561 12.5866 2.85828 12.5177L3.32679 12.1457C3.35435 12.1319 3.39569 12.0905 3.43702 12.063L4.5945 11.1949L4.51183 10.9055C4.48427 10.809 4.41537 10.5197 4.40159 10.4094C4.38781 10.3543 4.38781 10.3405 4.38781 10.2992L4.33269 9.26573C4.34647 9.2244 4.33269 9.19684 4.34647 9.14172C4.34647 9.0866 4.34647 9.0866 4.34647 9.04526C4.34647 8.99014 4.34647 8.96259 4.36025 8.92125L4.37403 8.70077C4.41537 8.57676 4.44293 8.31495 4.48427 8.19093L4.5945 7.8051C4.52561 7.76377 4.45671 7.70865 4.40159 7.66731L3.0512 6.63385C2.73427 6.39959 2.38978 6.124 2.08663 5.88975C2.00395 5.84841 1.96261 5.79329 1.89372 5.75196L1.8386 5.71062C1.74214 5.64172 1.61813 5.5177 1.50789 5.46259C1.48033 5.47636 1.46655 5.53148 1.45277 5.55904L1.24608 6.04133L0.970488 6.78542C0.942929 6.8681 0.929149 6.95077 0.90159 7.03345C0.874031 7.11613 0.860252 7.19881 0.832693 7.28148L0.750015 7.65353C0.750015 7.69487 0.750015 7.68109 0.736236 7.72243L0.681118 8.05314C0.653559 8.24605 0.584661 8.71455 0.584661 8.89369C0.584661 8.96259 0.584661 8.99014 0.570882 9.04526C0.570882 9.0866 0.584661 9.14172 0.570882 9.19684C0.557102 9.29329 0.557102 9.6929 0.570882 9.80314L0.584661 10.0925C0.584661 10.3543 0.667338 10.7953 0.694897 11.0709L0.970488 12.2146L1.08072 12.559C1.0945 12.5866 1.0945 12.5728 1.10828 12.6142L1.50789 13.5512Z" fill="#FBBC05"/>
</svg>
