<svg width="162" height="62" viewBox="0 0 162 62" fill="none" xmlns="http://www.w3.org/2000/svg">
<path d="M23.5947 37.4269C23.6597 35.1853 24.1803 33.2883 25.1575 31.7365C26.1344 30.1847 27.3767 29.0332 28.8846 28.282C30.3929 27.5307 31.964 27.1553 33.5991 27.1553C34.5729 27.1553 35.5112 27.2847 36.4143 27.5434C37.3173 27.8022 38.1186 28.1813 38.8179 28.681C39.5175 29.1808 40.062 29.7793 40.4515 30.4768V27.6967H44.8427V47.5499H40.4515V44.8399C39.755 45.8161 38.7471 46.62 37.4279 47.2503C36.1084 47.8806 34.8086 48.1962 33.5277 48.1962C31.6036 48.1962 29.8845 47.7273 28.3705 46.7898C26.8567 45.8524 25.6821 44.56 24.8471 42.9118C24.0121 41.2642 23.5947 39.4358 23.5947 37.4269ZM34.5107 43.5847C35.6261 43.5615 36.6251 43.2888 37.5076 42.767C38.3898 42.2452 39.0775 41.532 39.5702 40.6281C40.0629 39.7245 40.3096 38.7272 40.3096 37.6367C40.3096 36.4411 40.0363 35.3987 39.4905 34.5096C38.9445 33.6202 38.2185 32.9412 37.3124 32.4717C36.4063 32.0022 35.4223 31.7677 34.36 31.7677C33.3092 31.7677 32.328 32.0095 31.4161 32.4938C30.5041 32.9778 29.777 33.6692 29.234 34.5671C28.6907 35.4649 28.4195 36.5146 28.4195 37.7159C28.4195 38.9406 28.7173 39.999 29.3136 40.8911C29.91 41.7833 30.68 42.4556 31.6244 42.9076C32.5689 43.3589 33.5311 43.5847 34.5107 43.5847Z" fill="white"/>
<path d="M49.9141 21.0763H54.7391V47.5501H49.9141V21.0763Z" fill="white"/>
<path d="M60.0674 21.0763H64.8924V47.5501H60.0674V21.0763Z" fill="white"/>
<path d="M70.221 27.697H74.683V29.6623C76.2589 27.898 78.1447 27.0159 80.3403 27.0159C81.3671 27.0159 82.344 27.2169 83.271 27.6187C84.1973 28.0205 85.0238 28.6088 85.7497 29.383C86.4757 30.1575 87.0438 31.0965 87.4541 32.1996C87.8644 33.3031 88.0694 34.5332 88.0694 35.8899V47.5504H83.2443V37.1391C83.2443 35.3397 82.8533 33.996 82.071 33.1081C81.289 32.2202 80.3372 31.7761 79.2157 31.7761C78.5075 31.7761 77.8318 31.9493 77.1883 32.2958C76.5451 32.6422 76.027 33.1344 75.6344 33.7719C75.2419 34.4095 75.0458 35.139 75.0458 35.9601V47.5504H70.2207V27.697H70.221Z" fill="#C4161C"/>
<path d="M92.5646 37.4268C92.5646 36.3669 92.7828 35.2375 93.2195 34.0379C93.6564 32.8383 94.3116 31.7086 95.1849 30.649C96.0582 29.5894 97.1605 28.7302 98.4916 28.0724C99.8227 27.4145 101.341 27.0853 103.047 27.0853C104.77 27.0853 106.435 27.5191 108.04 28.3868C109.645 29.2544 110.948 30.483 111.949 32.0726C112.949 33.6621 113.449 35.4703 113.449 37.4967C113.449 38.143 113.39 38.8828 113.273 39.7153H97.6817C97.8705 40.4796 98.2336 41.1522 98.7708 41.733C99.3076 42.3137 99.957 42.7599 100.718 43.0722C101.48 43.3845 102.279 43.555 103.118 43.5843C104.888 43.5084 106.326 42.9247 107.429 41.8333H112.759C112.287 43.0435 111.599 44.1212 110.696 45.0669C109.793 46.0125 108.718 46.7574 107.469 47.3012C106.221 47.8451 104.841 48.1435 103.33 48.1961C101.861 48.1961 100.47 47.9282 99.1563 47.3925C97.8429 46.8568 96.6846 46.1144 95.6813 45.1654C94.6781 44.2161 93.9004 43.1466 93.3485 41.9555C92.7966 40.7649 92.5119 39.5524 92.4941 38.3177C92.541 38.0789 92.5646 37.782 92.5646 37.4268ZM103.118 31.6971C101.66 31.7264 100.462 32.1252 99.5234 32.8936C98.5848 33.6624 97.9443 34.5419 97.602 35.5316H108.669C108.456 34.9258 108.104 34.3275 107.611 33.7368C107.118 33.1458 106.489 32.6581 105.725 32.2736C104.961 31.8894 104.092 31.6971 103.118 31.6971Z" fill="#C4161C"/>
<path d="M116.503 27.697H121.576L125.347 39.7853L128.685 27.697H132.492L135.83 39.7853L139.53 27.697H144.603L137.317 47.5502H134.413L130.5 34.7107L126.764 47.5502H123.789L116.503 27.697Z" fill="#C4161C"/>
<path d="M148.347 31.3476C148.836 29.9794 149.697 28.927 150.927 28.1903C152.158 27.4535 153.422 27.0853 154.721 27.0853C155.824 27.0853 156.885 27.3444 157.903 27.8629C158.921 28.3813 159.746 29.1045 160.378 30.0335C161.009 30.9622 161.337 32.0061 161.361 33.1648H156.758C156.386 32.2388 155.707 31.776 154.721 31.776C154.238 31.776 153.806 31.929 153.429 32.2346C153.051 32.5402 152.841 32.9348 152.8 33.4182C152.889 34.0817 153.385 34.5942 154.288 34.9551C154.4 35.002 154.958 35.1634 155.961 35.44C156.964 35.7166 157.854 36.0341 158.631 36.3923C159.407 36.7502 160.112 37.2745 160.746 37.9643C161.381 38.6545 161.754 39.5237 161.866 40.5718C161.866 41.8935 161.599 43.1278 161.065 44.2751C160.531 45.4221 159.711 46.3511 158.604 47.0612C157.497 47.7716 156.156 48.1269 154.58 48.1269C153.907 48.1269 153.193 48.054 152.438 47.9086C151.54 47.7396 150.721 47.3656 149.981 46.7861C149.24 46.2069 148.641 45.4484 148.183 44.5106C147.726 43.5731 147.453 42.5105 147.364 41.3227H152.22C152.391 42.0332 152.711 42.5758 153.18 42.9516C153.649 43.327 154.16 43.5353 154.714 43.5762C155.375 43.5411 155.928 43.3358 156.373 42.9603C156.818 42.5846 157.041 42.0882 157.041 41.4712C157.041 40.9645 156.775 40.5527 156.245 40.2353C155.714 39.9182 154.868 39.5512 153.706 39.1346C152.544 38.7183 151.746 38.3997 151.31 38.1784C150.171 37.6309 149.343 36.9147 148.824 36.0295C148.305 35.1447 148.025 34.2157 147.984 33.2434C148.055 32.556 148.176 31.9241 148.347 31.3476Z" fill="#C4161C"/>
<path fill-rule="evenodd" clip-rule="evenodd" d="M25.5688 7.48743C-23.8466 51.742 6.88568 79.766 51.7015 47.6541C23.9043 66.5272 -15.5294 63.2389 30.3243 15.434C30.324 15.4343 25.8394 7.75497 25.5688 7.48743Z" fill="white"/>
<path fill-rule="evenodd" clip-rule="evenodd" d="M70.1024 27.7286C92.0582 5.3566 63.0885 -13.7217 30.3311 15.4248L34.941 22.8895C64.9755 -1.57874 85.2337 6.34819 70.1024 27.7286Z" fill="#C4161C"/>
</svg>
