<svg width="808" height="505" viewBox="0 0 808 505" fill="none" xmlns="http://www.w3.org/2000/svg">
<path d="M799.333 359.985C807.99 332.181 810.012 302.594 803.806 274.152C794.096 229.661 762.825 175.796 672.58 152.554C501.728 108.551 442.406 -20.1316 282.585 20.8503C282.585 20.8503 196.818 36.2988 156.227 176.968C115.637 317.638 -43.4145 320.03 11.3491 442.513C20.3013 462.533 44.4001 484.372 79.0031 505L727.125 502.84C771.914 449.461 785.855 403.286 799.333 359.985Z" fill="#EBEBFF"/>
<path d="M646.401 259.388H622.084V233.021C622.084 219.783 612.781 208.727 600.311 205.853V173.129H591.359V205.231C577.005 206.513 565.752 218.457 565.752 233.021V260.162H541.563V290.407H539.934V346.616L495.965 346.303V279.122H445.586V328.356H410.237V376.185H367.516V502.785H509.446V502.766H539.932V502.785H717.903V343.139H646.336L646.401 259.388Z" fill="#D6D7F4"/>
<path d="M144.631 328.971V266.034H168.432V232.374H177.382V266.034H199.311V328.971H223.914V366.673H263.124V238.233H344.986V502.785H291.642H268.661H210.835H184.129H114.352V328.971H144.631Z" fill="#D6D7F4"/>
<path d="M591.861 502.142L218.758 502.432C204.627 502.444 193.16 491.097 193.151 477.09L617.428 476.761C617.437 490.77 605.992 502.135 591.861 502.142Z" fill="#3D5AC4"/>
<path d="M591.854 493.411L218.751 493.699C207.72 493.709 198.342 486.783 194.741 477.088L193.149 477.09C193.161 491.097 204.625 502.444 218.756 502.432L591.859 502.142C605.99 502.133 617.438 490.77 617.426 476.761H615.834C612.249 486.466 602.884 493.405 591.854 493.411Z" fill="#5571E9"/>
<path d="M429.399 485.399L381.195 485.436C376.464 485.441 372.626 481.643 372.624 476.952L437.959 476.903C437.959 481.592 434.13 485.394 429.399 485.399Z" fill="#27429C"/>
<path d="M595.593 476.779L214.983 477.076L214.804 249.365C214.794 236.303 225.471 225.704 238.649 225.695L571.531 225.437C584.712 225.428 595.402 236.008 595.414 249.07L595.593 476.779Z" fill="#5571E9"/>
<path d="M575.672 245.236H234.706V457.256H575.672V245.236Z" fill="#312C76"/>
<path d="M575.748 436.985H234.783V457.254H575.748V436.985Z" fill="#151247"/>
<path d="M575.593 245.236H234.627V255.297H575.593V245.236Z" fill="#151247"/>
<path opacity="0.16" d="M348.337 245.28L234.713 358.083L234.79 457.389H235.036L448.77 245.204L348.337 245.28Z" fill="#5571E9"/>
<path opacity="0.16" d="M278.815 457.363L329.166 457.314L542.897 245.13L492.551 245.178L278.815 457.363Z" fill="#5571E9"/>
<path opacity="0.16" d="M535.65 457.153L575.725 417.368L575.667 342.093L455.373 457.201L535.65 457.153Z" fill="#5571E9"/>
<path d="M595.593 335.794H214.804V377.46H595.593V335.794Z" fill="#F5D100"/>
<path d="M262.311 392.077H229.546L257.748 328.132H290.511L262.311 392.077Z" fill="white"/>
<path d="M332.18 392.077H299.417L327.619 328.132H360.381L332.18 392.077Z" fill="white"/>
<path d="M402.05 392.077H369.287L397.487 328.132H430.252L402.05 392.077Z" fill="white"/>
<path d="M471.923 392.077H439.158L467.36 328.132H500.122L471.923 392.077Z" fill="white"/>
<path d="M541.791 392.077H509.026L537.23 328.132H569.993L541.791 392.077Z" fill="white"/>
<path d="M184.23 263.856L176.786 264.139L172.43 262.769C170.429 262.14 168.245 262.893 167.072 264.62L166.523 265.429L188.285 277.344L192.495 268.397L184.23 263.856Z" fill="#14103D"/>
<path d="M188.291 277.529L166.36 265.521L167.126 264.144C167.275 263.874 167.624 263.775 167.895 263.925L189.334 275.661L188.291 277.529Z" fill="#14103D"/>
<path d="M192.494 268.395L198.242 258.533L192.494 248.354L184.229 263.856L192.494 268.395Z" fill="#EB8175"/>
<path d="M237.536 211.67C237.536 211.67 206.523 202.849 203.537 211.149C200.552 219.449 182.459 256.168 182.459 256.168L195.965 263.151L216.219 228.281L243.47 225.932L237.536 211.67Z" fill="#14103D"/>
<path d="M212.325 275.046L206.254 278.88L201.774 279.776C199.713 280.189 198.175 281.895 197.994 283.97L197.908 284.94L222.769 284.9L222.072 275.055L212.325 275.046Z" fill="#14103D"/>
<path d="M222.866 285.064L197.81 285.103L197.808 283.53C197.808 283.219 198.061 282.968 198.372 282.968L222.864 282.929L222.866 285.064Z" fill="#14103D"/>
<path d="M222.071 275.055L222.866 258.534L212.964 257.428L212.325 275.046L222.071 275.055Z" fill="#EB8175"/>
<path d="M241.723 210.258L212.494 211.578C212.494 211.578 208.289 211.806 208.572 221.559C208.856 231.314 208.828 270.562 208.828 270.562L222.866 271.043L225.552 229.93L254.811 229.573C260.977 229.497 266.716 225.992 269.156 220.377C270.09 218.231 270.538 215.822 269.962 213.291L241.723 210.258Z" fill="#231C61"/>
<path d="M213.986 204.415C213.993 207.165 212.111 207.582 209.337 207.586C206.565 207.591 203.946 207.185 203.942 204.436C203.935 201.686 206.179 199.452 208.953 199.447C211.725 199.44 213.979 201.665 213.986 204.415Z" fill="#E1AD9D"/>
<path d="M217.515 207.224L211.709 207.236C210.194 207.238 208.949 206.013 208.949 204.509C208.944 203.005 210.182 201.773 211.7 201.771L217.506 201.759C219.021 201.757 220.266 202.985 220.266 204.489C220.266 205.99 219.03 207.222 217.515 207.224Z" fill="#E1AD9D"/>
<path d="M217.29 207.81L215.354 198.393L239.218 195.816L243.993 168.18C244.474 165.667 248.143 162.551 250.678 163.03L249.948 162.825C252.483 163.302 254.811 166.22 254.33 168.732L249.685 201.792C249.344 203.575 247.982 204.998 246.2 205.426L217.29 207.81Z" fill="#C8C6F2"/>
<path d="M264.96 163.638C265.452 163.677 265.936 163.788 266.396 163.965L266.635 164.06C270.734 165.646 273.505 170.004 273.691 174.085L269.962 213.295C245.234 213.083 241.725 210.26 241.725 210.26L243.691 170.149C243.991 166.365 245.743 162.807 250.09 162.45L264.96 163.638Z" fill="#D8D7FD"/>
<path d="M237.731 207.499C237.922 210.242 236.075 210.781 233.308 210.967C230.54 211.156 227.901 210.921 227.713 208.181C227.522 205.438 229.611 203.061 232.38 202.872C235.143 202.686 237.543 204.756 237.731 207.499Z" fill="#EB8175"/>
<path d="M241.439 210.069L235.647 210.462C234.137 210.564 232.812 209.422 232.708 207.922C232.603 206.423 233.756 205.11 235.271 205.009L241.061 204.615C242.573 204.514 243.898 205.656 244.002 207.155C244.104 208.655 242.952 209.967 241.439 210.069Z" fill="#EB8175"/>
<path d="M241.254 210.667L238.691 201.4L264.695 197.257L263.215 173.287C263.529 170.749 266.335 167.896 268.893 168.205C271.456 168.513 273.975 171.272 273.663 173.81L275.536 202.531C275.315 204.334 274.051 205.843 272.304 206.388L241.254 210.667Z" fill="#D8D7FD"/>
<path d="M196.258 178.821L224.634 181.472C225.566 181.56 226.312 182.283 226.421 183.204L229.4 208.549C229.546 209.792 228.496 210.854 227.239 210.736L198.393 208.042C197.448 207.952 196.697 207.213 196.602 206.273L194.095 180.972C193.974 179.74 195.015 178.704 196.258 178.821Z" fill="#091218"/>
<path d="M194.625 178.667L223.001 181.318C223.932 181.406 224.678 182.129 224.787 183.05L227.764 208.394C227.91 209.638 226.862 210.697 225.605 210.58L196.757 207.885C195.812 207.796 195.064 207.056 194.968 206.117L192.461 180.818C192.341 179.589 193.381 178.552 194.625 178.667Z" fill="#1B2934"/>
<path d="M228.61 208.724L247.999 210.536C248.591 210.591 249.023 211.112 248.97 211.697C248.914 212.282 248.389 212.712 247.799 212.657L227.239 210.81L228.61 208.724Z" fill="#091218"/>
<path d="M207.796 196.831C209.511 196.831 210.9 195.454 210.9 193.754C210.9 192.055 209.511 190.678 207.796 190.678C206.082 190.678 204.692 192.055 204.692 193.754C204.692 195.454 206.082 196.831 207.796 196.831Z" fill="white"/>
<path d="M262.316 178.812L262.955 196.833L238.693 201.398L260.074 194.779L262.316 178.812Z" fill="#C8C6F2"/>
<path d="M249.449 161.248L251.068 165.561C251.654 167.118 253.106 168.191 254.776 168.302C257.95 168.514 260.234 165.331 258.989 162.431L256.142 155.806L249.449 161.248Z" fill="#EB8175"/>
<path d="M250.892 165.089C250.892 165.089 258.882 163.592 257.709 156.667C256.535 149.742 249.021 155.144 249.021 155.144L249.753 162.056L250.892 165.089Z" fill="#E16C5F"/>
<path d="M249.92 162.056C256.845 162.056 262.458 156.492 262.458 149.629C262.458 142.766 256.845 137.202 249.92 137.202C242.996 137.202 237.383 142.766 237.383 149.629C237.383 156.492 242.996 162.056 249.92 162.056Z" fill="#EB8175"/>
<path d="M254.57 152.08C254.57 152.08 252.595 162.033 259.976 162.25C267.358 162.468 263.338 143.579 263.338 143.579L251.658 131.928L233.784 136.288L235.559 147.743C235.559 147.743 238.403 149.238 253.768 146.73L254.57 152.08Z" fill="#231C61"/>
<path d="M247.274 144.291L253.143 152.803L258.206 147.259L247.274 144.291Z" fill="#231C61"/>
<path d="M255.806 154.769C257.763 154.769 259.349 153.197 259.349 151.257C259.349 149.317 257.763 147.745 255.806 147.745C253.849 147.745 252.262 149.317 252.262 151.257C252.262 153.197 253.849 154.769 255.806 154.769Z" fill="#EB8175"/>
<path d="M236.126 147.557C236.126 147.557 233.417 137.764 239.823 131.7C245.104 126.703 253.742 127.025 258.431 132.576C260.634 135.182 262.404 139.105 262.567 145.005L236.126 147.557Z" fill="#F5D100"/>
<path d="M237.485 147.391L237.411 141.279C237.39 139.729 238.617 138.441 240.176 138.368C241.719 138.296 243.048 139.432 243.203 140.956L243.821 147.057" stroke="#F1AB00" stroke-width="0.2802" stroke-miterlimit="10"/>
<path d="M262.567 145.007L233.8 147.743" stroke="white" stroke-width="1.1206" stroke-miterlimit="10" stroke-linecap="round" stroke-linejoin="round"/>
<path d="M524.463 475.381L530.911 481.573L523.562 485.493L517.263 479.379L524.463 475.381Z" fill="#EB8175"/>
<path d="M479.075 429.127L483.382 448.028C484.247 451.814 485.906 455.451 488.289 458.783L516.654 484.042L527.871 474.982L503.652 449.564L494.781 416.042L479.075 429.127Z" fill="#14103D"/>
<path d="M523.346 485.313L521.022 492.66L518.366 496.319C517.147 498.001 517.191 500.281 518.476 501.916L519.077 502.68L537.177 485.965L529.942 479.254L523.346 485.313Z" fill="#14103D"/>
<path d="M537.361 486.018L519.117 502.862L517.658 501.31L535.899 484.464L537.361 486.018Z" fill="#14103D"/>
<path d="M462.443 486.879L460.025 494.885L451.716 492.676L454.144 484.816L462.443 486.879Z" fill="#EB8175"/>
<path d="M473.577 408.043L450.31 486L464.99 489.632L478.087 450.552L494.177 424.982C494.995 423.842 495.796 422.644 496.475 421.41C497.764 419.07 498.343 416.518 498.315 413.962L498.259 408.891L473.577 408.043Z" fill="#231C61"/>
<path d="M452.197 491.907L444.855 494.594L440.276 494.749C438.173 494.82 436.365 496.26 435.845 498.282L435.601 499.226L460.192 503.235L461.133 493.385L452.197 491.907Z" fill="#14103D"/>
<path d="M460.259 503.413L435.477 499.371L435.826 497.261L460.61 501.301L460.259 503.413Z" fill="#14103D"/>
<path d="M441.105 328.864L431.702 343.408L436.209 346.613L445.94 331.227L441.105 328.864Z" fill="#334FBE"/>
<path d="M428.893 304.763C428.893 304.763 433.238 322.789 455.257 329.884C455.891 330.089 456.374 330.617 456.465 331.275C456.746 333.362 456.749 337.873 451.879 339.211C451.419 339.338 450.905 339.246 450.501 338.993C447.134 336.904 430.57 327.305 414.492 330.073L428.893 304.763Z" fill="#4265D1"/>
<path d="M428.893 304.763C428.893 304.763 424.857 322.745 414.492 330.073C414.492 330.076 415.954 314.312 428.893 304.763Z" fill="#334FBE"/>
<path d="M428.637 342.463C427.956 345.773 430.705 349.807 434.042 350.484C437.378 351.162 440.638 349.027 441.321 345.72C442.004 342.408 439.253 338.373 435.917 337.698C432.578 337.019 429.32 339.154 428.637 342.463Z" fill="#EB8175"/>
<path d="M446.305 352.175L439.785 345.425L435.528 350.619L446.305 358.449" fill="#EB8175"/>
<path d="M445.269 345.932L438.377 356.086L457.218 373.181C458.368 373.506 459.569 373.619 460.759 373.52L485.636 370.323C489.558 370.139 492.583 366.839 492.397 362.954C492.211 359.066 492.962 353.444 489.045 353.629L460.141 359.513L445.269 345.932Z" fill="#C8C6F2"/>
<path d="M501.064 369.236C501.728 363.847 499.263 358.516 494.651 355.586C492.578 354.271 490.527 353.382 489.047 353.631C484.084 354.46 478.984 356.689 476.8 363.329C473.087 374.618 472.025 407.993 472.025 407.993L498.696 408.894L501.064 369.236Z" fill="#D8D7FD"/>
<path d="M491.219 370.074L499.237 399.278L500.859 374.503L491.219 370.074Z" fill="#C8C6F2"/>
<path d="M523.905 427.709C526.426 425.436 526.61 420.57 524.319 418.069C522.028 415.57 518.125 415.388 515.606 417.659C513.083 419.93 512.899 424.798 515.19 427.297C517.481 429.796 521.382 429.982 523.905 427.709Z" fill="#EB8175"/>
<path d="M511.805 406.904L516.665 418.797L523.197 417.095L519.159 404.468" fill="#EB8175"/>
<path d="M512.114 416.079L525.469 413.168L516.412 382.467C516.075 381.329 515.534 380.26 514.814 379.316L498.187 358.801C495.943 355.612 492.153 356.18 488.935 358.407C485.717 360.634 484.93 365.024 487.174 368.216L503.187 387.298L512.114 416.079Z" fill="#D8D7FD"/>
<path d="M482.801 349.614L483.308 354.243C483.489 355.913 484.642 357.322 486.256 357.843C489.312 358.835 492.351 356.279 491.858 353.126L490.734 345.927L482.801 349.614Z" fill="#EB8175"/>
<path d="M483.254 353.736C483.254 353.736 491.491 353.469 492.081 346.392C492.669 339.315 483.917 343.527 483.917 343.527L482.899 350.484L483.254 353.736Z" fill="#E16C5F"/>
<path d="M486.184 350.908C493.187 350.908 498.863 345.282 498.863 338.341C498.863 331.4 493.187 325.774 486.184 325.774C479.182 325.774 473.505 331.4 473.505 338.341C473.505 345.282 479.182 350.908 486.184 350.908Z" fill="#EB8175"/>
<path d="M490.127 341.89C490.127 341.89 485.692 351.159 492.873 353.195C500.053 355.231 500.861 335.722 500.861 335.722L492.337 321.418L473.717 321.278L472.578 332.945C472.578 332.945 474.99 335.112 490.682 336.445L490.127 341.89Z" fill="#231C61"/>
<path d="M484.932 332.454L488.55 342.249L494.904 338.062L484.932 332.454Z" fill="#231C61"/>
<path d="M491.544 344.943C493.524 344.943 495.129 343.352 495.129 341.39C495.129 339.427 493.524 337.836 491.544 337.836C489.565 337.836 487.959 339.427 487.959 341.39C487.959 343.352 489.565 344.943 491.544 344.943Z" fill="#EB8175"/>
<path d="M473.108 333.981C473.108 333.981 472.485 323.73 480.102 319.055C486.382 315.2 494.862 317.307 498.336 323.77C499.967 326.803 500.894 331.054 499.814 336.927L473.108 333.981Z" fill="#F5D100"/>
<path d="M474.488 334.103L475.699 328.035C476.005 326.496 477.488 325.476 479.049 325.727C480.589 325.973 481.665 327.374 481.5 328.914L480.826 335.08" stroke="#F1AB00" stroke-width="0.2834" stroke-miterlimit="10"/>
<path d="M499.814 336.924L470.768 333.686" stroke="white" stroke-width="1.1334" stroke-miterlimit="10" stroke-linecap="round" stroke-linejoin="round"/>
<path d="M677.09 411.436L647.038 440.802" stroke="#3D5AC4" stroke-width="2.6489" stroke-miterlimit="10"/>
<path d="M677.09 380.055L647.038 409.421" stroke="#3D5AC4" stroke-width="2.6489" stroke-miterlimit="10"/>
<path d="M677.09 348.675L647.038 378.04" stroke="#3D5AC4" stroke-width="2.6489" stroke-miterlimit="10"/>
<path d="M677.09 317.294L647.038 346.66" stroke="#3D5AC4" stroke-width="2.6489" stroke-miterlimit="10"/>
<path d="M677.09 285.913L647.038 315.279" stroke="#3D5AC4" stroke-width="2.6489" stroke-miterlimit="10"/>
<path d="M677.09 254.533L647.038 283.898" stroke="#3D5AC4" stroke-width="2.6489" stroke-miterlimit="10"/>
<path d="M677.09 223.152L647.038 252.517" stroke="#3D5AC4" stroke-width="2.6489" stroke-miterlimit="10"/>
<path d="M677.09 191.771L647.038 221.137" stroke="#3D5AC4" stroke-width="2.6489" stroke-miterlimit="10"/>
<path d="M677.09 160.391L647.038 189.757" stroke="#3D5AC4" stroke-width="2.6489" stroke-miterlimit="10"/>
<path d="M677.09 129.01L647.038 158.376" stroke="#3D5AC4" stroke-width="2.6489" stroke-miterlimit="10"/>
<path d="M677.09 97.6296L647.038 126.995" stroke="#3D5AC4" stroke-width="2.6489" stroke-miterlimit="10"/>
<path d="M647.038 409.421H677.09" stroke="#3D5AC4" stroke-width="2.6489" stroke-miterlimit="10"/>
<path d="M647.038 378.04H677.09" stroke="#3D5AC4" stroke-width="2.6489" stroke-miterlimit="10"/>
<path d="M647.038 346.659H677.09" stroke="#3D5AC4" stroke-width="2.6489" stroke-miterlimit="10"/>
<path d="M647.038 315.279H677.09" stroke="#3D5AC4" stroke-width="2.6489" stroke-miterlimit="10"/>
<path d="M647.038 283.898H677.09" stroke="#3D5AC4" stroke-width="2.6489" stroke-miterlimit="10"/>
<path d="M647.038 252.517H677.09" stroke="#3D5AC4" stroke-width="2.6489" stroke-miterlimit="10"/>
<path d="M647.038 221.137H677.09" stroke="#3D5AC4" stroke-width="2.6489" stroke-miterlimit="10"/>
<path d="M647.038 189.756H677.09" stroke="#3D5AC4" stroke-width="2.6489" stroke-miterlimit="10"/>
<path d="M647.038 158.376H677.09" stroke="#3D5AC4" stroke-width="2.6489" stroke-miterlimit="10"/>
<path d="M647.038 126.995H677.09" stroke="#3D5AC4" stroke-width="2.6489" stroke-miterlimit="10"/>
<path d="M647.038 449.304V102.648" stroke="#5571E9" stroke-width="2.6489" stroke-miterlimit="10"/>
<path d="M677.09 449.304V102.648" stroke="#5571E9" stroke-width="2.6489" stroke-miterlimit="10"/>
<path d="M691.393 440.802H631.546V502.434H691.393V440.802Z" fill="#231C61"/>
<path d="M677.171 102.648H645.891C640.37 102.648 635.898 98.2144 635.898 92.7447V53.8563C635.898 48.3867 640.37 43.9534 645.891 43.9534H677.171C682.689 43.9534 687.164 48.3867 687.164 53.8563V92.7447C687.164 98.2144 682.689 102.648 677.171 102.648Z" fill="#3D5AC4"/>
<path d="M660.705 85.566H640.572V58.1051H660.705C664.887 58.1051 668.277 61.4652 668.277 65.6106V78.0629C668.275 82.206 664.885 85.566 660.705 85.566Z" fill="#2F4DAB"/>
<path d="M448.77 105.851L472.808 175.073" stroke="#231C61" stroke-width="2.1624" stroke-miterlimit="10"/>
<path d="M432.045 97.6296L385.168 160.391" stroke="#231C61" stroke-width="2.1624" stroke-miterlimit="10"/>
<path d="M446.047 128.425L494.49 191.214C499.82 198.123 498.491 208.008 491.521 213.291L428.172 261.306C421.202 266.589 411.232 265.274 405.902 258.365L357.458 195.574C352.128 188.665 353.457 178.78 360.428 173.5L423.776 125.482C430.744 120.197 440.717 121.516 446.047 128.425Z" fill="#F5D100"/>
<path d="M442.399 140.235L482.034 191.61C486.396 197.262 485.306 205.348 479.604 209.671L427.773 248.957C422.071 253.28 413.911 252.202 409.55 246.548L369.914 195.176C365.553 189.522 366.641 181.436 372.345 177.113L424.176 137.826C429.878 133.506 438.038 134.584 442.399 140.235Z" stroke="#231C61" stroke-width="1.1138" stroke-miterlimit="10"/>
<path d="M430.085 216.823C428.83 226.146 414.557 224.26 415.812 214.937C417.078 205.532 431.351 207.418 430.085 216.823ZM436.223 164.743L430.621 203.927L418.621 202.34C420.396 189.157 421.869 176.346 423.653 163.085L436.223 164.743Z" fill="#231C61"/>
<path d="M441.911 111.685C453.009 111.685 462.006 102.767 462.006 91.766C462.006 80.7652 453.009 71.8474 441.911 71.8474C430.813 71.8474 421.816 80.7652 421.816 91.766C421.816 102.767 430.813 111.685 441.911 111.685Z" fill="#231C61"/>
<path d="M441.911 105.851C449.759 105.851 456.121 99.5451 456.121 91.7661C456.121 83.9871 449.759 77.681 441.911 77.681C434.063 77.681 427.701 83.9871 427.701 91.7661C427.701 99.5451 434.063 105.851 441.911 105.851Z" fill="#373482"/>
<path d="M520.722 1.72546V43.9509" stroke="#3D5AC4" stroke-width="2.6489" stroke-miterlimit="10"/>
<path d="M482.518 1.72546V43.9509" stroke="#3D5AC4" stroke-width="2.6489" stroke-miterlimit="10"/>
<path d="M558.796 1.72546V43.9509" stroke="#3D5AC4" stroke-width="2.6489" stroke-miterlimit="10"/>
<path d="M601.104 1.72546V43.9509" stroke="#3D5AC4" stroke-width="2.6489" stroke-miterlimit="10"/>
<path d="M640.572 1.72546V43.9509" stroke="#3D5AC4" stroke-width="2.6489" stroke-miterlimit="10"/>
<path d="M681.488 1.72546V43.9509" stroke="#3D5AC4" stroke-width="2.6489" stroke-miterlimit="10"/>
<path d="M721.681 1.72546V43.9509" stroke="#3D5AC4" stroke-width="2.6489" stroke-miterlimit="10"/>
<path d="M480.529 43.9509L520.722 1.72546" stroke="#3D5AC4" stroke-width="2.6489" stroke-miterlimit="10"/>
<path d="M520.722 43.9509L560.911 1.72546" stroke="#3D5AC4" stroke-width="2.6489" stroke-miterlimit="10"/>
<path d="M560.911 43.9509L601.104 1.72546" stroke="#3D5AC4" stroke-width="2.6489" stroke-miterlimit="10"/>
<path d="M601.104 43.9509L641.295 1.72546" stroke="#3D5AC4" stroke-width="2.6489" stroke-miterlimit="10"/>
<path d="M641.295 43.9509L681.488 1.72546" stroke="#3D5AC4" stroke-width="2.6489" stroke-miterlimit="10"/>
<path d="M681.488 43.9509L721.681 1.72546" stroke="#3D5AC4" stroke-width="2.6489" stroke-miterlimit="10"/>
<path d="M441.911 43.9511H769.604L725.48 1.72559H475.808L441.911 43.9511Z" stroke="#5571E9" stroke-width="2.6489" stroke-miterlimit="10" stroke-linecap="round" stroke-linejoin="round"/>
<path d="M441.911 43.9511V91.7659" stroke="#5571E9" stroke-width="2.6489" stroke-miterlimit="10" stroke-linecap="round" stroke-linejoin="round"/>
<path d="M268.663 496.728L291.6 437.965C292.695 435.165 296.693 435.165 297.788 437.965L320.725 496.728H268.663Z" fill="#F5D100"/>
<path d="M314.702 450.601H273.977V463.072H314.702V450.601Z" fill="#FAFAFA"/>
<path d="M317.816 474.171H271.751V486.644H317.816V474.171Z" fill="#FAFAFA"/>
<path d="M325.181 496.728H264.47V501.679H325.181V496.728Z" fill="#E8C400"/>
<path d="M601.745 496.91L624.685 438.147C625.779 435.346 629.775 435.346 630.87 438.147L653.809 496.91H601.745Z" fill="#F5D100"/>
<path d="M647.787 450.783H607.059V463.254H647.787V450.783Z" fill="#FAFAFA"/>
<path d="M650.898 474.352H604.835V486.823H650.898V474.352Z" fill="#FAFAFA"/>
<path d="M658.263 496.91H597.554V501.861H658.263V496.91Z" fill="#E8C400"/>
</svg>
