<svg width="113" height="113" viewBox="0 0 113 113" fill="none" xmlns="http://www.w3.org/2000/svg">
<rect width="113" height="113" rx="56.5" fill="#E9E7E5"/>
<path d="M57.0004 88.7155C60.8198 88.7155 64.1089 86.4084 65.5521 83.1155H48.4487C49.8919 86.4084 53.1811 88.7155 57.0004 88.7155Z" fill="#A2A4AA"/>
<path d="M76.2889 55.845V51.7555C76.2889 43.0665 70.5133 35.7021 62.6 33.2967V30.6C62.6 27.5122 60.0879 25 57.0001 25C53.9122 25 51.4001 27.5122 51.4001 30.6V33.2967C43.4867 35.7021 37.7112 43.0664 37.7112 51.7555V55.845C37.7112 63.4774 34.802 70.7145 29.5195 76.2234C29.0018 76.7633 28.8563 77.5598 29.1497 78.2478C29.4432 78.9357 30.1189 79.3821 30.8668 79.3821H83.1333C83.8812 79.3821 84.5568 78.9357 84.8503 78.2478C85.1437 77.5598 84.9982 76.7633 84.4807 76.2234C79.1981 70.7145 76.2889 63.4772 76.2889 55.845ZM58.8667 32.5572C58.2523 32.498 57.6297 32.4666 57.0001 32.4666C56.3704 32.4666 55.7478 32.498 55.1334 32.5572V30.6C55.1334 29.5707 55.9708 28.7333 57.0001 28.7333C58.0293 28.7333 58.8667 29.5707 58.8667 30.6V32.5572Z" fill="#A2A4AA"/>
</svg>
