<svg width="16" height="14" viewBox="0 0 16 14" fill="none" xmlns="http://www.w3.org/2000/svg">
<path d="M7.41612 4.3839H6.51306V3.91731H7.27394C7.40337 3.91731 7.50831 3.82549 7.50831 3.71223C7.50831 3.59897 7.40337 3.50715 7.27394 3.50715H6.51306V3.04053H7.41612C7.54556 3.04053 7.6505 2.94871 7.6505 2.83545C7.6505 2.72219 7.54556 2.63037 7.41612 2.63037H6.27869C6.14925 2.63037 6.04431 2.72219 6.04431 2.83545V4.58898C6.04431 4.70224 6.14925 4.79406 6.27869 4.79406H7.41612C7.54556 4.79406 7.6505 4.70224 7.6505 4.58898C7.6505 4.47572 7.54556 4.3839 7.41612 4.3839Z" fill="white"/>
<path d="M5.37996 2.63037C5.25052 2.63037 5.14559 2.72219 5.14559 2.83545V3.81219L4.44637 2.73422C4.39387 2.65326 4.28568 2.61345 4.18271 2.63718C4.07983 2.66094 4.00818 2.74237 4.00818 2.83545V4.58898C4.00818 4.70223 4.11312 4.79405 4.24255 4.79405C4.37199 4.79405 4.47693 4.70223 4.47693 4.58898V3.61223L5.17615 4.6902C5.21849 4.7555 5.29715 4.79408 5.37996 4.79405C5.3998 4.79405 5.4199 4.79184 5.4398 4.78725C5.54268 4.76348 5.61434 4.68205 5.61434 4.58898V2.83545C5.61434 2.72219 5.5094 2.63037 5.37996 2.63037Z" fill="white"/>
<path d="M9.93767 2.63477C9.81098 2.61123 9.68658 2.68189 9.65964 2.79266L9.46236 3.60375L9.26508 2.79266C9.24204 2.69799 9.14648 2.63029 9.03583 2.63029C8.9252 2.63029 8.82961 2.69799 8.80661 2.79266L8.60929 3.60378L8.41201 2.79266C8.38508 2.68189 8.26064 2.61123 8.13398 2.63477C8.00739 2.65834 7.92661 2.76728 7.95354 2.87805L8.38008 4.63158C8.40308 4.72624 8.49864 4.79395 8.60929 4.79395C8.71995 4.79395 8.81551 4.72624 8.83851 4.63158L9.03583 3.82045L9.23311 4.63158C9.25614 4.72624 9.3517 4.79395 9.46236 4.79395C9.57301 4.79395 9.66858 4.72624 9.69158 4.63158L10.1181 2.87805C10.145 2.76725 10.0643 2.65834 9.93767 2.63477Z" fill="white"/>
<path d="M11.2696 3.5197C10.9122 3.40488 10.8545 3.33704 10.8545 3.21903C10.8545 3.13478 10.9975 3.04053 11.1888 3.04053C11.3802 3.04053 11.5232 3.13478 11.5232 3.21903C11.5232 3.33229 11.6281 3.42411 11.7576 3.42411C11.887 3.42411 11.9919 3.33229 11.9919 3.21903C11.9919 2.89443 11.6317 2.63037 11.1888 2.63037C10.746 2.63037 10.3857 2.89446 10.3857 3.21903C10.3857 3.67272 10.8379 3.81797 11.1081 3.90473C11.4655 4.01952 11.5232 4.08739 11.5232 4.2054C11.5232 4.28967 11.3802 4.3839 11.1888 4.3839C10.9975 4.3839 10.8545 4.28965 10.8545 4.2054C10.8545 4.09214 10.7496 4.00032 10.6201 4.00032C10.4907 4.00032 10.3857 4.09214 10.3857 4.2054C10.3857 4.53 10.746 4.79406 11.1888 4.79406C11.6317 4.79406 11.9919 4.52997 11.9919 4.2054C11.9919 3.75169 11.5398 3.60646 11.2696 3.5197Z" fill="white"/>
<path d="M14.1989 4.72005L13.2445 4.05196V0.424266C13.2445 0.190313 13.027 0 12.7596 0H3.24046C2.97308 0 2.75558 0.190313 2.75558 0.424266V4.05196L1.80115 4.72005C1.61171 4.85267 1.50305 5.05045 1.50305 5.26274V13.1374C1.50305 13.613 1.9453 14 2.48893 14H13.5111C14.0547 14 14.497 13.613 14.497 13.1374C14.497 13.1374 14.497 5.30775 14.497 5.26274C14.497 5.05047 14.3884 4.85267 14.1989 4.72005ZM3.22433 0.424266C3.22433 0.416473 3.23155 0.410156 3.24046 0.410156H12.7596C12.7685 0.410156 12.7757 0.416473 12.7757 0.424266V5.24647C12.7757 5.35973 12.8807 5.45155 13.0101 5.45155C13.1396 5.45155 13.2445 5.35973 13.2445 5.24647V4.57721L13.9061 5.04033C13.9837 5.09469 14.0282 5.17573 14.0282 5.26274C14.0283 5.33881 13.9944 5.41034 13.933 5.46416L11.8777 7.2625C11.8425 7.2441 11.8016 7.2333 11.7576 7.2333H8.50105C8.37161 7.2333 8.26668 7.32512 8.26668 7.43838C8.26668 7.55163 8.37161 7.64345 8.50105 7.64345H11.4423L10.909 8.11005H8.50102C8.37158 8.11005 8.26665 8.20187 8.26665 8.31513C8.26665 8.42838 8.37158 8.5202 8.50102 8.5202H10.4402L9.50305 9.34024L9.22855 9.10005C8.55115 8.5073 7.4489 8.5073 6.77149 9.10005L6.49699 9.34024L5.5598 8.5202H7.49902C7.62846 8.5202 7.7334 8.42838 7.7334 8.31513C7.7334 8.20187 7.62846 8.11005 7.49902 8.11005H5.09105L4.55777 7.64345H7.49899C7.62843 7.64345 7.73336 7.55163 7.73336 7.43838C7.73336 7.32512 7.62843 7.2333 7.49899 7.2333H4.24249C4.19855 7.2333 4.15755 7.24407 4.12243 7.2625L3.22433 6.47667V0.424266ZM2.09399 5.04033L2.75558 4.57721V6.06651L2.06715 5.46413C2.00568 5.41034 1.9718 5.33881 1.9718 5.26271C1.97183 5.17573 2.01633 5.09469 2.09399 5.04033ZM13.5111 13.5898H2.48896C2.43308 13.5898 2.37936 13.5818 2.32893 13.5674L5.71293 10.6064C5.80446 10.5263 5.80446 10.3964 5.71293 10.3164C5.6214 10.2363 5.47299 10.2363 5.38149 10.3164L1.99746 13.2774C1.98099 13.2332 1.9718 13.1862 1.9718 13.1374V5.96077L6.16555 9.6303L6.08077 9.70449C5.98924 9.78458 5.98924 9.91443 6.08077 9.9945C6.1723 10.0746 6.32071 10.0746 6.41221 9.9945L7.10293 9.39012C7.34255 9.18045 7.66115 9.06497 8.00002 9.06497C8.3389 9.06497 8.65749 9.18045 8.89711 9.39012L13.6712 13.5674C13.6207 13.5818 13.567 13.5898 13.5111 13.5898ZM14.0026 13.2774L9.83449 9.63028L14.0282 5.96075V13.1374H14.0283C14.0283 13.1862 14.0191 13.2333 14.0026 13.2774Z" fill="white"/>
<path d="M11.7577 1.53442H4.24255C4.11312 1.53442 4.00818 1.62624 4.00818 1.7395C4.00818 1.85276 4.11312 1.94458 4.24255 1.94458H11.7576C11.8871 1.94458 11.992 1.85276 11.992 1.7395C11.992 1.62624 11.8871 1.53442 11.7577 1.53442Z" fill="white"/>
<path d="M11.7577 5.47974H4.24255C4.11312 5.47974 4.00818 5.57156 4.00818 5.68481C4.00818 5.79807 4.11312 5.88989 4.24255 5.88989H11.7576C11.8871 5.88989 11.992 5.79807 11.992 5.68481C11.992 5.57156 11.8871 5.47974 11.7577 5.47974Z" fill="white"/>
<path d="M7.49912 6.35657H4.24255C4.11312 6.35657 4.00818 6.44839 4.00818 6.56165C4.00818 6.6749 4.11312 6.76672 4.24255 6.76672H7.49909C7.62852 6.76672 7.73346 6.6749 7.73346 6.56165C7.73346 6.44839 7.62855 6.35657 7.49912 6.35657Z" fill="white"/>
<path d="M11.7575 6.35657H8.50098C8.37154 6.35657 8.2666 6.44839 8.2666 6.56165C8.2666 6.6749 8.37154 6.76672 8.50098 6.76672H11.7575C11.8869 6.76672 11.9919 6.6749 11.9919 6.56165C11.9919 6.44839 11.887 6.35657 11.7575 6.35657Z" fill="white"/>
</svg>
