<svg width="144" height="144" viewBox="0 0 144 144" fill="none" xmlns="http://www.w3.org/2000/svg">
<path d="M72 0C32.256 0 0 32.256 0 72C0 111.744 32.256 144 72 144C111.744 144 144 111.744 144 72C144 32.256 111.744 0 72 0ZM72 21.6C83.952 21.6 93.6 31.248 93.6 43.2C93.6 55.152 83.952 64.8 72 64.8C60.048 64.8 50.4 55.152 50.4 43.2C50.4 31.248 60.048 21.6 72 21.6ZM72 123.84C54 123.84 38.088 114.624 28.8 100.656C29.016 86.328 57.6 78.48 72 78.48C86.328 78.48 114.984 86.328 115.2 100.656C105.912 114.624 90 123.84 72 123.84Z" fill="white"/>
</svg>
