<svg width="50" height="50" viewBox="0 0 50 50" fill="none" xmlns="http://www.w3.org/2000/svg">
<path fill-rule="evenodd" clip-rule="evenodd" d="M0 3.9765V46.3925C0 50.369 3.59779 49.9903 6.24879 49.9903H45.4457C48.2861 49.9903 49.8009 49.0435 49.8009 46.2032V3.9765C49.8009 0.757429 48.0967 0 45.067 0H4.16586C1.51486 0.189357 0 0.946786 0 3.9765Z" fill="#FD5E00"/>
<path fill-rule="evenodd" clip-rule="evenodd" d="M14.2017 11.5505L14.3911 13.4441C15.7166 14.0122 22.1547 13.4441 27.4568 19.3142C29.729 21.7758 31.6226 24.9949 32.1907 28.782C32.7588 31.8117 31.6226 32.0011 35.4098 32.0011C36.9246 32.0011 36.7353 31.6224 36.7353 30.2969C36.7353 29.3501 36.5459 28.214 36.3565 27.4565C34.463 17.9887 27.2674 11.3612 17.9889 9.65695C13.6337 8.71017 14.2017 9.65695 14.2017 11.5505Z" fill="#FDFDF9"/>
<path fill-rule="evenodd" clip-rule="evenodd" d="M16.0953 21.3978C19.125 21.2084 22.9121 24.6169 24.2376 28.0253C24.6163 28.5934 24.6163 29.1614 24.8057 29.9189C25.1844 31.8124 24.8057 32.0018 26.8886 32.0018C27.646 32.0018 28.0248 32.0018 28.7822 31.8124C29.3503 30.6763 28.4035 27.8359 28.0248 26.6998C26.8886 22.7233 18.7463 15.7171 14.391 17.2319C13.823 17.9894 13.823 19.6936 14.2017 20.8297C14.7698 21.2084 15.3378 21.3978 16.0953 21.3978Z" fill="#FDFDF9"/>
<path fill-rule="evenodd" clip-rule="evenodd" d="M14.7698 26.889C10.6039 28.4038 12.6868 34.842 17.2314 33.5165C18.7463 32.9484 20.0718 30.8655 19.3143 28.9719C18.7463 27.457 16.8527 26.1315 14.7698 26.889Z" fill="#FDFDF9"/>
<path fill-rule="evenodd" clip-rule="evenodd" d="M19.8826 42.0371L21.3974 41.8477C21.7761 40.7116 21.2081 40.5222 20.0719 40.5222L19.8826 42.0371Z" fill="#FD5E00"/>
<path d="M17.3149 42.7321H16.0312V45.5948H14.4199V37.7745H17.3256C18.2495 37.7745 18.962 37.9804 19.4633 38.3922C19.9646 38.804 20.2153 39.3859 20.2153 40.1378C20.2153 40.6713 20.0989 41.1171 19.8662 41.4752C19.637 41.8297 19.2879 42.1126 18.8188 42.3239L20.5107 45.5197V45.5948H18.7812L17.3149 42.7321ZM16.0312 41.4269H17.331C17.7356 41.4269 18.049 41.3248 18.271 41.1207C18.493 40.913 18.604 40.6284 18.604 40.2667C18.604 39.8979 18.4983 39.6079 18.2871 39.3966C18.0794 39.1853 17.7589 39.0797 17.3256 39.0797H16.0312V41.4269ZM25.5005 43.5431C25.5005 43.2387 25.393 43.006 25.1782 42.8448C24.9633 42.6801 24.5766 42.5083 24.018 42.3292C23.4594 42.1466 23.0172 41.9676 22.6914 41.7921C21.8033 41.3123 21.3593 40.666 21.3593 39.8531C21.3593 39.4306 21.4775 39.0546 21.7138 38.7252C21.9537 38.3922 22.2957 38.1326 22.7397 37.9464C23.1873 37.7602 23.6886 37.6671 24.2436 37.6671C24.8022 37.6671 25.2999 37.7692 25.7368 37.9733C26.1736 38.1738 26.512 38.4585 26.7519 38.8273C26.9954 39.1961 27.1171 39.615 27.1171 40.0841H25.5058C25.5058 39.726 25.393 39.4485 25.1674 39.2516C24.9419 39.0511 24.625 38.9508 24.2168 38.9508C23.8229 38.9508 23.5167 39.035 23.2983 39.2032C23.0799 39.368 22.9707 39.5864 22.9707 39.8585C22.9707 40.1128 23.0978 40.3258 23.352 40.4977C23.6098 40.6696 23.9876 40.8307 24.4853 40.9811C25.402 41.2568 26.0698 41.5988 26.4887 42.007C26.9077 42.4152 27.1171 42.9236 27.1171 43.5323C27.1171 44.2091 26.8611 44.7408 26.3491 45.1276C25.837 45.5107 25.1477 45.7023 24.2812 45.7023C23.6796 45.7023 23.1318 45.5931 22.6377 45.3746C22.1435 45.1526 21.7657 44.8501 21.5044 44.4669C21.2465 44.0838 21.1176 43.6398 21.1176 43.1349H22.7343C22.7343 43.9978 23.25 44.4293 24.2812 44.4293C24.6643 44.4293 24.9633 44.3523 25.1782 44.1984C25.393 44.0408 25.5005 43.8224 25.5005 43.5431ZM32.268 43.5431C32.268 43.2387 32.1606 43.006 31.9458 42.8448C31.7309 42.6801 31.3442 42.5083 30.7856 42.3292C30.227 42.1466 29.7848 41.9676 29.4589 41.7921C28.5709 41.3123 28.1269 40.666 28.1269 39.8531C28.1269 39.4306 28.2451 39.0546 28.4814 38.7252C28.7213 38.3922 29.0633 38.1326 29.5073 37.9464C29.9549 37.7602 30.4562 37.6671 31.0112 37.6671C31.5698 37.6671 32.0675 37.7692 32.5044 37.9733C32.9412 38.1738 33.2796 38.4585 33.5195 38.8273C33.763 39.1961 33.8847 39.615 33.8847 40.0841H32.2734C32.2734 39.726 32.1606 39.4485 31.935 39.2516C31.7094 39.0511 31.3925 38.9508 30.9843 38.9508C30.5905 38.9508 30.2843 39.035 30.0659 39.2032C29.8475 39.368 29.7382 39.5864 29.7382 39.8585C29.7382 40.1128 29.8654 40.3258 30.1196 40.4977C30.3774 40.6696 30.7552 40.8307 31.2529 40.9811C32.1696 41.2568 32.8374 41.5988 33.2563 42.007C33.6753 42.4152 33.8847 42.9236 33.8847 43.5323C33.8847 44.2091 33.6287 44.7408 33.1167 45.1276C32.6046 45.5107 31.9153 45.7023 31.0488 45.7023C30.4472 45.7023 29.8994 45.5931 29.4052 45.3746C28.9111 45.1526 28.5333 44.8501 28.2719 44.4669C28.0141 44.0838 27.8852 43.6398 27.8852 43.1349H29.5019C29.5019 43.9978 30.0175 44.4293 31.0488 44.4293C31.4319 44.4293 31.7309 44.3523 31.9458 44.1984C32.1606 44.0408 32.268 43.8224 32.268 43.5431Z" fill="#FEFEFE"/>
</svg>
