<svg width="18" height="18" viewBox="0 0 18 18" fill="none" xmlns="http://www.w3.org/2000/svg">
<path fill-rule="evenodd" clip-rule="evenodd" d="M0 1.43154V16.7013C0 18.1328 1.2952 17.9965 2.24956 17.9965H16.3605C17.383 17.9965 17.9283 17.6557 17.9283 16.6331V1.43154C17.9283 0.272674 17.3148 0 16.2241 0H1.49971C0.545349 0.0681686 0 0.340843 0 1.43154Z" fill="#FD5E00"/>
<path fill-rule="evenodd" clip-rule="evenodd" d="M5.11276 4.15823L5.18093 4.83992C5.65811 5.04443 7.97584 4.83992 9.88456 6.95315C10.7026 7.83934 11.3843 8.99821 11.5888 10.3616C11.7933 11.4523 11.3843 11.5204 12.7476 11.5204C13.293 11.5204 13.2248 11.3841 13.2248 10.9069C13.2248 10.5661 13.1567 10.1571 13.0885 9.8844C12.4068 6.47597 9.81639 4.09007 6.47613 3.47655C4.90825 3.13571 5.11276 3.47655 5.11276 4.15823Z" fill="#FDFDF9"/>
<path fill-rule="evenodd" clip-rule="evenodd" d="M5.79428 7.70315C6.88498 7.63498 8.24835 8.86201 8.72553 10.089C8.86187 10.2936 8.86187 10.4981 8.93004 10.7707C9.06637 11.4524 8.93004 11.5206 9.67989 11.5206C9.95257 11.5206 10.0889 11.5206 10.3616 11.4524C10.5661 11.0434 10.2252 10.0209 10.0889 9.61187C9.67989 8.18033 6.74864 5.65809 5.18077 6.20344C4.97626 6.47611 4.97626 7.08963 5.1126 7.49864C5.3171 7.63498 5.52161 7.70315 5.79428 7.70315Z" fill="#FDFDF9"/>
<path fill-rule="evenodd" clip-rule="evenodd" d="M5.31712 9.68003C3.81741 10.2254 4.56727 12.5431 6.20331 12.0659C6.74866 11.8614 7.22584 11.1116 6.95317 10.4299C6.74866 9.88453 6.06698 9.40735 5.31712 9.68003Z" fill="#FDFDF9"/>
<path fill-rule="evenodd" clip-rule="evenodd" d="M7.15771 15.1333L7.70306 15.0651C7.8394 14.6561 7.6349 14.588 7.22588 14.588L7.15771 15.1333Z" fill="#FD5E00"/>
<path d="M6.81684 15.8334H6.46674V16.6141H6.02729V14.4813H6.81977C7.07172 14.4813 7.26606 14.5375 7.40278 14.6498C7.5395 14.7621 7.60786 14.9208 7.60786 15.1259C7.60786 15.2714 7.57612 15.3929 7.51264 15.4906C7.45014 15.5873 7.35493 15.6644 7.227 15.722L7.68842 16.5936V16.6141H7.21674L6.81684 15.8334ZM6.46674 15.4774H6.82124C6.93159 15.4774 7.01704 15.4496 7.07758 15.3939C7.13813 15.3373 7.1684 15.2596 7.1684 15.161C7.1684 15.0604 7.1396 14.9813 7.08198 14.9237C7.02534 14.8661 6.93794 14.8373 6.81977 14.8373H6.46674V15.4774ZM9.04926 16.0546C9.04926 15.9716 9.01997 15.9081 8.96137 15.8641C8.90278 15.8192 8.79731 15.7723 8.64497 15.7235C8.49262 15.6737 8.37202 15.6249 8.28315 15.577C8.04096 15.4462 7.91987 15.2699 7.91987 15.0482C7.91987 14.933 7.9521 14.8304 8.01655 14.7406C8.08198 14.6498 8.17524 14.579 8.29633 14.5282C8.4184 14.4774 8.55512 14.452 8.70649 14.452C8.85883 14.452 8.99458 14.4799 9.11372 14.5355C9.23286 14.5902 9.32514 14.6678 9.39057 14.7684C9.45698 14.869 9.49018 14.9833 9.49018 15.1112H9.05073C9.05073 15.0135 9.01997 14.9379 8.95844 14.8842C8.89692 14.8295 8.81049 14.8021 8.69917 14.8021C8.59174 14.8021 8.50825 14.8251 8.44868 14.871C8.38911 14.9159 8.35932 14.9755 8.35932 15.0497C8.35932 15.119 8.39399 15.1771 8.46333 15.224C8.53364 15.2709 8.63667 15.3148 8.77241 15.3558C9.02241 15.431 9.20454 15.5243 9.31879 15.6356C9.43305 15.7469 9.49018 15.8856 9.49018 16.0516C9.49018 16.2362 9.42036 16.3812 9.28071 16.4867C9.14106 16.5912 8.95307 16.6434 8.71674 16.6434C8.55268 16.6434 8.40327 16.6136 8.2685 16.5541C8.13374 16.4935 8.03071 16.411 7.95942 16.3065C7.88911 16.202 7.85395 16.0809 7.85395 15.9432H8.29487C8.29487 16.1786 8.43549 16.2963 8.71674 16.2963C8.82124 16.2963 8.90278 16.2753 8.96137 16.2333C9.01997 16.1903 9.04926 16.1307 9.04926 16.0546ZM10.895 16.0546C10.895 15.9716 10.8657 15.9081 10.8071 15.8641C10.7485 15.8192 10.643 15.7723 10.4907 15.7235C10.3383 15.6737 10.2177 15.6249 10.1289 15.577C9.88667 15.4462 9.76557 15.2699 9.76557 15.0482C9.76557 14.933 9.7978 14.8304 9.86225 14.7406C9.92768 14.6498 10.0209 14.579 10.142 14.5282C10.2641 14.4774 10.4008 14.452 10.5522 14.452C10.7045 14.452 10.8403 14.4799 10.9594 14.5355C11.0786 14.5902 11.1708 14.6678 11.2363 14.7684C11.3027 14.869 11.3359 14.9833 11.3359 15.1112H10.8964C10.8964 15.0135 10.8657 14.9379 10.8041 14.8842C10.7426 14.8295 10.6562 14.8021 10.5449 14.8021C10.4374 14.8021 10.354 14.8251 10.2944 14.871C10.2348 14.9159 10.205 14.9755 10.205 15.0497C10.205 15.119 10.2397 15.1771 10.309 15.224C10.3793 15.2709 10.4824 15.3148 10.6181 15.3558C10.8681 15.431 11.0502 15.5243 11.1645 15.6356C11.2788 15.7469 11.3359 15.8856 11.3359 16.0516C11.3359 16.2362 11.2661 16.3812 11.1264 16.4867C10.9868 16.5912 10.7988 16.6434 10.5624 16.6434C10.3984 16.6434 10.249 16.6136 10.1142 16.5541C9.97944 16.4935 9.87641 16.411 9.80512 16.3065C9.73481 16.202 9.69965 16.0809 9.69965 15.9432H10.1406C10.1406 16.1786 10.2812 16.2963 10.5624 16.2963C10.6669 16.2963 10.7485 16.2753 10.8071 16.2333C10.8657 16.1903 10.895 16.1307 10.895 16.0546Z" fill="#FEFEFE"/>
</svg>
