<svg width="20" height="16" viewBox="0 0 20 16" fill="none" xmlns="http://www.w3.org/2000/svg">
<path d="M13.8434 2.95276H7.69962C7.54022 2.95276 7.41101 3.08197 7.41101 3.24137C7.41101 3.40076 7.54022 3.52997 7.69962 3.52997H13.8434C14.0028 3.52997 14.132 3.40076 14.132 3.24137C14.132 3.08193 14.0028 2.95276 13.8434 2.95276Z" fill="white"/>
<path d="M6.35661 2.95276H5.38346C5.22406 2.95276 5.09485 3.08197 5.09485 3.24137C5.09485 3.40076 5.22402 3.52997 5.38346 3.52997H6.35661C6.51601 3.52997 6.64522 3.40076 6.64522 3.24137C6.64522 3.08197 6.51601 2.95276 6.35661 2.95276Z" fill="white"/>
<path d="M8.40217 11.7993H5.38346C5.22406 11.7993 5.09485 11.9285 5.09485 12.0879C5.09485 12.2474 5.22406 12.3765 5.38346 12.3765H8.40217C8.56157 12.3765 8.69078 12.2473 8.69078 12.0879C8.69078 11.9285 8.56157 11.7993 8.40217 11.7993Z" fill="white"/>
<path d="M9.6134 8.85046H5.38346C5.22406 8.85046 5.09485 8.97967 5.09485 9.13907C5.09485 9.29851 5.22406 9.42768 5.38346 9.42768H9.6134C9.77276 9.42768 9.90201 9.29847 9.90201 9.13907C9.90201 8.97964 9.7728 8.85046 9.6134 8.85046Z" fill="white"/>
<path d="M11.6724 5.90161H5.38346C5.22406 5.90161 5.09485 6.03082 5.09485 6.19022C5.09485 6.34962 5.22406 6.47883 5.38346 6.47883H11.6724C11.8318 6.47887 11.961 6.34966 11.961 6.19022C11.961 6.03078 11.8318 5.90161 11.6724 5.90161Z" fill="white"/>
<path d="M17.1344 0H5.20665C4.15012 0 3.29061 0.859555 3.29061 1.91608V13.2721H0.288585C0.211559 13.2721 0.137686 13.3029 0.0835026 13.3576C0.0292804 13.4124 -0.000791709 13.4865 1.58546e-05 13.5636C0.0113987 14.7095 0.834921 15.5737 1.9156 15.5737H13.8433H13.8797C14.9362 15.5737 15.7957 14.7141 15.7957 13.6576V10.1603C15.7957 10.0009 15.6664 9.87178 15.507 9.87178C15.3477 9.87178 15.2184 10.001 15.2184 10.1604V13.6576C15.2184 14.3959 14.6178 14.9965 13.8797 14.9965H13.8433C13.0885 14.9965 12.5131 14.378 12.5049 13.5579C12.5034 13.3996 12.3746 13.2721 12.2163 13.2721H3.86798V1.91604C3.86798 1.17777 4.46857 0.577216 5.20676 0.577216H15.765C15.7565 0.585868 15.7485 0.594944 15.7402 0.603789C15.7302 0.614518 15.72 0.625131 15.7101 0.636053C15.6997 0.647628 15.6897 0.659511 15.6796 0.671355C15.6698 0.682699 15.66 0.693928 15.6506 0.705503C15.6408 0.717501 15.6314 0.729807 15.6218 0.742036C15.6126 0.75388 15.6033 0.765609 15.5943 0.777684C15.5852 0.790067 15.5764 0.802718 15.5675 0.815332C15.5588 0.827714 15.55 0.84002 15.5415 0.852595C15.533 0.865324 15.5249 0.878322 15.5167 0.891281C15.5085 0.904164 15.5002 0.916931 15.4923 0.930006C15.4844 0.943158 15.4769 0.956579 15.4694 0.969923C15.4618 0.98319 15.454 0.99638 15.4468 1.00988C15.4394 1.02338 15.4327 1.03718 15.4257 1.05091C15.4188 1.0646 15.4116 1.07817 15.405 1.09202C15.3983 1.10594 15.3922 1.12013 15.3859 1.1342C15.3796 1.14824 15.3731 1.16216 15.3671 1.17635C15.3611 1.1907 15.3556 1.20531 15.3499 1.21981C15.3443 1.23411 15.3385 1.2483 15.3332 1.26276C15.3278 1.2776 15.323 1.29272 15.318 1.30775C15.3131 1.32221 15.308 1.33652 15.3035 1.35113C15.2987 1.36651 15.2946 1.38216 15.2902 1.39774C15.2861 1.41228 15.2817 1.4267 15.278 1.44139C15.2739 1.45754 15.2704 1.47392 15.2667 1.49022C15.2634 1.50457 15.2598 1.51884 15.2569 1.53329C15.2534 1.55025 15.2507 1.5674 15.2477 1.58452C15.2452 1.59867 15.2424 1.61267 15.2402 1.6269C15.2374 1.64516 15.2354 1.66366 15.2332 1.68208C15.2316 1.69538 15.2295 1.70854 15.2282 1.72192C15.2261 1.74253 15.2248 1.76337 15.2234 1.78418C15.2226 1.7956 15.2214 1.80694 15.2208 1.8184C15.2192 1.85074 15.2184 1.88332 15.2184 1.91608V2.01295V4.47767C15.2184 4.63711 15.3476 4.76628 15.507 4.76628C15.6664 4.76628 15.7956 4.63707 15.7956 4.47767V2.30156H18.7645C18.8415 2.30156 18.9154 2.27075 18.9695 2.21603C19.0238 2.16127 19.0538 2.08713 19.053 2.0101C19.0416 0.864132 18.2181 0 17.1344 0ZM11.9478 13.8494C11.9518 13.8793 11.9564 13.9088 11.9615 13.9382C11.9632 13.948 11.9653 13.9577 11.9672 13.9675C11.9708 13.9869 11.9745 14.0063 11.9786 14.0255C11.9811 14.037 11.9839 14.0483 11.9865 14.0597C11.9905 14.077 11.9945 14.0942 11.999 14.1113C12.002 14.1232 12.0054 14.1351 12.0086 14.1469C12.0131 14.1631 12.0177 14.1793 12.0225 14.1954C12.0261 14.2074 12.0299 14.2194 12.0338 14.2313C12.0388 14.2469 12.044 14.2624 12.0493 14.2778C12.0534 14.2897 12.0576 14.3016 12.062 14.3133C12.0676 14.3286 12.0734 14.3438 12.0794 14.3589C12.0839 14.3703 12.0884 14.3818 12.0931 14.3931C12.0994 14.4084 12.1061 14.4235 12.1127 14.4385C12.1175 14.4494 12.1222 14.4602 12.1272 14.4709C12.1345 14.4867 12.1422 14.5022 12.1498 14.5177C12.1546 14.5273 12.1592 14.537 12.1641 14.5465C12.1735 14.5647 12.1833 14.5826 12.1932 14.6004C12.1967 14.6069 12.2002 14.6136 12.2038 14.62C12.2175 14.6441 12.2317 14.6679 12.2464 14.6913C12.2498 14.6967 12.2535 14.702 12.2569 14.7074C12.2683 14.7253 12.2799 14.743 12.2919 14.7605C12.2974 14.7685 12.3032 14.7763 12.3088 14.7843C12.3191 14.7988 12.3294 14.8133 12.3401 14.8275C12.3465 14.836 12.3531 14.8443 12.3596 14.8528C12.3699 14.866 12.3803 14.8792 12.3909 14.8922C12.3979 14.9007 12.405 14.909 12.4122 14.9174C12.4228 14.93 12.4335 14.9424 12.4445 14.9546C12.4518 14.9628 12.4593 14.9709 12.4668 14.979C12.4721 14.9848 12.4773 14.9908 12.4827 14.9965H1.91556C1.2532 14.9965 0.729015 14.5202 0.604997 13.8494H11.9478ZM15.8098 1.72426C15.8099 1.7223 15.8101 1.72026 15.8104 1.71827C15.8117 1.70946 15.8133 1.70073 15.8148 1.692C15.8169 1.67969 15.819 1.66739 15.8214 1.65516C15.8233 1.64585 15.8253 1.63662 15.8274 1.6274C15.8299 1.61594 15.8325 1.60451 15.8353 1.59317C15.8377 1.58363 15.8402 1.57413 15.8428 1.56467C15.8458 1.55387 15.8488 1.54306 15.852 1.53237C15.8549 1.52268 15.8579 1.51307 15.861 1.50349C15.8643 1.49326 15.8678 1.48311 15.8714 1.47296C15.8748 1.46315 15.8783 1.45335 15.882 1.44366C15.8856 1.43408 15.8894 1.42462 15.8933 1.41512C15.8973 1.40512 15.9014 1.39516 15.9057 1.38528C15.9095 1.37647 15.9135 1.36778 15.9175 1.35909C15.9223 1.34882 15.9269 1.33848 15.9319 1.32837C15.9356 1.32083 15.9396 1.31344 15.9434 1.30598C15.9491 1.29491 15.9547 1.28383 15.9607 1.27295C15.963 1.26872 15.9656 1.26465 15.9679 1.26045C15.9945 1.21327 16.0238 1.16774 16.0558 1.12432C16.0561 1.1239 16.0564 1.12351 16.0567 1.12309C16.067 1.10917 16.0777 1.09552 16.0885 1.08198C16.0902 1.07983 16.0918 1.07764 16.0936 1.07548C16.1041 1.06241 16.1151 1.0496 16.1261 1.03695C16.1281 1.0346 16.1302 1.03222 16.1323 1.02987C16.1435 1.01718 16.155 1.00476 16.1667 0.992496C16.1686 0.990496 16.1705 0.988458 16.1725 0.986459C16.1846 0.973922 16.197 0.961578 16.2096 0.949503C16.2111 0.948157 16.2125 0.946811 16.2139 0.945427C16.2272 0.932813 16.2407 0.92043 16.2546 0.908355C16.255 0.907932 16.2555 0.907548 16.256 0.907125C16.4327 0.753188 16.6503 0.644628 16.8903 0.599943C16.8904 0.599905 16.8906 0.599905 16.8907 0.599866C16.9103 0.596213 16.9302 0.592983 16.9501 0.590214C16.9513 0.59006 16.9525 0.589906 16.9537 0.589752C16.9727 0.587137 16.9919 0.584907 17.0112 0.583099C17.0141 0.58283 17.017 0.582677 17.02 0.582446C17.0377 0.580908 17.0553 0.5796 17.0732 0.578754C17.0835 0.578293 17.0939 0.578216 17.1043 0.577947C17.1154 0.577677 17.1265 0.577177 17.1378 0.577177C17.8001 0.577177 18.3243 1.05345 18.4483 1.72426H15.8098Z" fill="white"/>
<path d="M19.689 5.31923C19.6889 5.31589 19.6888 5.31254 19.6887 5.30916C19.6876 5.28201 19.6827 5.25586 19.6745 5.23109C19.6741 5.22986 19.674 5.22859 19.6735 5.2274C19.6732 5.2264 19.6726 5.22548 19.6723 5.22448C19.6677 5.21183 19.6625 5.19952 19.6564 5.18775C19.6556 5.18629 19.6547 5.18495 19.6539 5.18349C19.6482 5.1731 19.6419 5.16314 19.635 5.15357C19.6336 5.15153 19.6322 5.14941 19.6307 5.14741C19.6231 5.13742 19.6149 5.12796 19.6061 5.11903C19.6042 5.11707 19.6021 5.11527 19.6002 5.11338C19.5919 5.10538 19.5831 5.09788 19.5739 5.09092C19.5726 5.09 19.5715 5.08896 19.5702 5.08804C19.5598 5.0805 19.5488 5.07377 19.5375 5.06762C19.5353 5.06643 19.5331 5.06535 19.5309 5.06423C19.5193 5.05839 19.5075 5.05304 19.495 5.04878C19.4951 5.04878 19.495 5.04874 19.495 5.04878C19.4827 5.04455 19.4697 5.04128 19.4566 5.0387C19.4537 5.03812 19.4508 5.03762 19.4479 5.03716C19.4349 5.03501 19.4217 5.03339 19.4081 5.03305C16.9932 4.97056 13.8442 5.55189 12.2522 7.36929C11.5554 8.16466 11.234 9.17373 10.9231 10.1495C10.8976 10.2294 10.8722 10.3092 10.8466 10.389C10.8455 10.3923 10.8444 10.3957 10.8435 10.3991L10.3557 12.1315C10.3125 12.2849 10.4019 12.4443 10.5553 12.4876C10.5815 12.4949 10.6078 12.4984 10.6337 12.4984C10.7597 12.4984 10.8755 12.4152 10.9114 12.2879L11.3637 10.6811C11.9168 10.422 12.3621 10.3007 12.9636 10.1372C13.2756 10.0523 13.6293 9.95615 14.0573 9.82452C14.9825 9.53995 16.7575 8.34937 17.5743 7.46539C18.2888 6.69221 18.8899 6.11761 19.5844 5.54412C19.5852 5.54347 19.5859 5.54266 19.5867 5.54197C19.5968 5.53339 19.6064 5.52428 19.6152 5.51439C19.6158 5.51378 19.6164 5.51324 19.6169 5.51266C19.6256 5.50278 19.6335 5.49217 19.6409 5.48109C19.6422 5.47905 19.6435 5.47702 19.6449 5.47494C19.6587 5.4529 19.6696 5.42895 19.6772 5.40341C19.6779 5.40099 19.6786 5.3986 19.6792 5.39614C19.6826 5.38361 19.6853 5.37084 19.687 5.35769C19.6871 5.35715 19.6871 5.35665 19.6871 5.35611C19.6882 5.34719 19.689 5.33815 19.6892 5.329C19.6893 5.32569 19.689 5.32246 19.689 5.31923ZM12.6864 7.74962C13.3582 6.9827 14.3878 6.4046 15.7468 6.03143C16.112 5.93114 16.4979 5.84792 16.8957 5.78224C15.885 6.27235 14.9187 6.88621 14.3787 7.24696C13.5071 7.82918 12.5664 8.53541 11.8716 9.16354C12.0772 8.64278 12.3257 8.16136 12.6864 7.74962ZM17.1504 7.07361C16.3554 7.93397 14.6383 9.04187 13.8876 9.27272C13.4687 9.40154 13.1199 9.49645 12.8121 9.58013C12.5337 9.65585 12.2804 9.72484 12.0299 9.80437C12.1419 9.69704 12.2733 9.57671 12.4282 9.44162C13.0514 8.89801 13.8579 8.28907 14.6993 7.727C16.1561 6.75381 17.4744 6.07069 18.4416 5.77455C18.0215 6.16141 17.6084 6.57796 17.1504 7.07361Z" fill="white"/>
</svg>
