<svg width="20" height="19" viewBox="0 0 20 19" fill="none" xmlns="http://www.w3.org/2000/svg">
<path d="M13.8434 3.61072H7.69962C7.54022 3.61072 7.41101 3.76386 7.41101 3.95277C7.41101 4.14169 7.54022 4.29483 7.69962 4.29483H13.8434C14.0028 4.29483 14.132 4.14169 14.132 3.95277C14.132 3.76381 14.0028 3.61072 13.8434 3.61072Z" fill="#A81C20"/>
<path d="M6.35661 3.61072H5.38346C5.22406 3.61072 5.09485 3.76386 5.09485 3.95277C5.09485 4.14169 5.22402 4.29483 5.38346 4.29483H6.35661C6.51601 4.29483 6.64522 4.14169 6.64522 3.95277C6.64522 3.76386 6.51601 3.61072 6.35661 3.61072Z" fill="#A81C20"/>
<path d="M8.40217 14.0955H5.38346C5.22406 14.0955 5.09485 14.2486 5.09485 14.4375C5.09485 14.6265 5.22406 14.7796 5.38346 14.7796H8.40217C8.56157 14.7796 8.69078 14.6264 8.69078 14.4375C8.69078 14.2486 8.56157 14.0955 8.40217 14.0955Z" fill="#A81C20"/>
<path d="M9.6134 10.6006H5.38346C5.22406 10.6006 5.09485 10.7537 5.09485 10.9426C5.09485 11.1316 5.22406 11.2847 5.38346 11.2847H9.6134C9.77276 11.2847 9.90201 11.1316 9.90201 10.9426C9.90201 10.7537 9.7728 10.6006 9.6134 10.6006Z" fill="#A81C20"/>
<path d="M11.6724 7.10559H5.38346C5.22406 7.10559 5.09485 7.25873 5.09485 7.44764C5.09485 7.63656 5.22406 7.7897 5.38346 7.7897H11.6724C11.8318 7.78974 11.961 7.63661 11.961 7.44764C11.961 7.25868 11.8318 7.10559 11.6724 7.10559Z" fill="#A81C20"/>
<path d="M17.1344 0.111084H5.20665C4.15012 0.111084 3.29061 1.12982 3.29061 2.38199V15.841H0.288585C0.211559 15.841 0.137686 15.8775 0.0835026 15.9424C0.0292804 16.0073 -0.000791709 16.0951 1.58546e-05 16.1864C0.0113987 17.5446 0.834921 18.5688 1.9156 18.5688H13.8433H13.8797C14.9362 18.5688 15.7957 17.55 15.7957 16.2979V12.153C15.7957 11.9641 15.6664 11.811 15.507 11.811C15.3477 11.811 15.2184 11.9641 15.2184 12.153V16.2979C15.2184 17.1729 14.6178 17.8847 13.8797 17.8847H13.8433C13.0885 17.8847 12.5131 17.1517 12.5049 16.1797C12.5034 15.9921 12.3746 15.841 12.2163 15.841H3.86798V2.38195C3.86798 1.50696 4.46857 0.795192 5.20676 0.795192H15.765C15.7565 0.805446 15.7485 0.816202 15.7402 0.826685C15.7302 0.839401 15.72 0.85198 15.7101 0.864924C15.6997 0.878643 15.6897 0.892726 15.6796 0.906764C15.6698 0.920209 15.66 0.933517 15.6506 0.947236C15.6408 0.961456 15.6314 0.97604 15.6218 0.990534C15.6126 1.00457 15.6033 1.01847 15.5943 1.03278C15.5852 1.04746 15.5764 1.06245 15.5675 1.0774C15.5588 1.09208 15.55 1.10666 15.5415 1.12157C15.533 1.13665 15.5249 1.15206 15.5167 1.16742C15.5085 1.18269 15.5002 1.19782 15.4923 1.21331C15.4844 1.2289 15.4769 1.24481 15.4694 1.26062C15.4618 1.27635 15.454 1.29198 15.4468 1.30798C15.4394 1.32397 15.4327 1.34034 15.4257 1.35661C15.4188 1.37283 15.4116 1.38892 15.405 1.40533C15.3983 1.42183 15.3922 1.43864 15.3859 1.45533C15.3796 1.47196 15.3731 1.48846 15.3671 1.50528C15.3611 1.52228 15.3556 1.5396 15.3499 1.55678C15.3443 1.57373 15.3385 1.59055 15.3332 1.60769C15.3278 1.62528 15.323 1.64319 15.318 1.66101C15.3131 1.67815 15.308 1.69511 15.3035 1.71242C15.2987 1.73066 15.2946 1.74921 15.2902 1.76766C15.2861 1.78489 15.2817 1.80198 15.278 1.81939C15.2739 1.83854 15.2704 1.85795 15.2667 1.87728C15.2634 1.89428 15.2598 1.91119 15.2569 1.92832C15.2534 1.94842 15.2507 1.96875 15.2477 1.98903C15.2452 2.0058 15.2424 2.02239 15.2402 2.03926C15.2374 2.0609 15.2354 2.08283 15.2332 2.10466C15.2316 2.12043 15.2295 2.13602 15.2282 2.15188C15.2261 2.17631 15.2248 2.20101 15.2234 2.22566C15.2226 2.2392 15.2214 2.25265 15.2208 2.26623C15.2192 2.30456 15.2184 2.34316 15.2184 2.38199V2.4968V5.41795C15.2184 5.60692 15.3476 5.76001 15.507 5.76001C15.6664 5.76001 15.7956 5.60687 15.7956 5.41795V2.83885H18.7645C18.8415 2.83885 18.9154 2.80235 18.9695 2.73749C19.0238 2.67259 19.0538 2.58472 19.053 2.49343C19.0416 1.13524 18.2181 0.111084 17.1344 0.111084ZM11.9478 16.5252C11.9518 16.5606 11.9564 16.5956 11.9615 16.6304C11.9632 16.6421 11.9653 16.6535 11.9672 16.6652C11.9708 16.6882 11.9745 16.7112 11.9786 16.7339C11.9811 16.7475 11.9839 16.7609 11.9865 16.7744C11.9905 16.7949 11.9945 16.8153 11.999 16.8355C12.002 16.8497 12.0054 16.8637 12.0086 16.8778C12.0131 16.897 12.0177 16.9162 12.0225 16.9352C12.0261 16.9495 12.0299 16.9636 12.0338 16.9778C12.0388 16.9963 12.044 17.0147 12.0493 17.033C12.0534 17.0471 12.0576 17.0611 12.062 17.075C12.0676 17.0932 12.0734 17.1111 12.0794 17.129C12.0839 17.1426 12.0884 17.1562 12.0931 17.1696C12.0994 17.1877 12.1061 17.2056 12.1127 17.2234C12.1175 17.2362 12.1222 17.2491 12.1272 17.2618C12.1345 17.2805 12.1422 17.2989 12.1498 17.3172C12.1546 17.3286 12.1592 17.3401 12.1641 17.3514C12.1735 17.373 12.1833 17.3942 12.1932 17.4153C12.1967 17.423 12.2002 17.4309 12.2038 17.4385C12.2175 17.4671 12.2317 17.4953 12.2464 17.523C12.2498 17.5294 12.2535 17.5356 12.2569 17.5421C12.2683 17.5633 12.2799 17.5843 12.2919 17.605C12.2974 17.6145 12.3032 17.6237 12.3088 17.6332C12.3191 17.6504 12.3294 17.6676 12.3401 17.6844C12.3465 17.6945 12.3531 17.7044 12.3596 17.7143C12.3699 17.7301 12.3803 17.7457 12.3909 17.7611C12.3979 17.7711 12.405 17.7811 12.4122 17.791C12.4228 17.8059 12.4335 17.8205 12.4445 17.835C12.4518 17.8448 12.4593 17.8544 12.4668 17.864C12.4721 17.8708 12.4773 17.8779 12.4827 17.8847H1.91556C1.2532 17.8847 0.729015 17.3202 0.604997 16.5252H11.9478ZM15.8098 2.15466C15.8099 2.15233 15.8101 2.14992 15.8104 2.14755C15.8117 2.13711 15.8133 2.12676 15.8148 2.11642C15.8169 2.10183 15.819 2.08725 15.8214 2.07275C15.8233 2.06173 15.8253 2.05079 15.8274 2.03985C15.8299 2.02627 15.8325 2.01273 15.8353 1.99928C15.8377 1.98798 15.8402 1.97672 15.8428 1.96551C15.8458 1.95271 15.8488 1.9399 15.852 1.92723C15.8549 1.91574 15.8579 1.90435 15.861 1.893C15.8643 1.88088 15.8678 1.86884 15.8714 1.85681C15.8748 1.84519 15.8783 1.83357 15.882 1.82208C15.8856 1.81073 15.8894 1.79952 15.8933 1.78826C15.8973 1.77641 15.9014 1.76461 15.9057 1.7529C15.9095 1.74246 15.9135 1.73216 15.9175 1.72186C15.9223 1.70969 15.9269 1.69743 15.9319 1.68544C15.9356 1.67651 15.9396 1.66776 15.9434 1.65892C15.9491 1.64579 15.9547 1.63267 15.9607 1.61977C15.963 1.61475 15.9656 1.60992 15.9679 1.60495C15.9945 1.54903 16.0238 1.49507 16.0558 1.44361C16.0561 1.44311 16.0564 1.44266 16.0567 1.44215C16.067 1.42566 16.0777 1.40948 16.0885 1.39343C16.0902 1.39088 16.0918 1.38828 16.0936 1.38573C16.1041 1.37023 16.1151 1.35506 16.1261 1.34006C16.1281 1.33728 16.1302 1.33446 16.1323 1.33168C16.1435 1.31664 16.155 1.30191 16.1667 1.28738C16.1686 1.28501 16.1705 1.28259 16.1725 1.28022C16.1846 1.26536 16.197 1.25073 16.2096 1.23642C16.2111 1.23483 16.2125 1.23323 16.2139 1.23159C16.2272 1.21664 16.2407 1.20196 16.2546 1.18765C16.255 1.18715 16.2555 1.1867 16.256 1.18619C16.4327 1.00375 16.6503 0.875088 16.8903 0.822128C16.8904 0.822082 16.8906 0.822082 16.8907 0.822036C16.9103 0.817707 16.9302 0.813878 16.9501 0.810597C16.9513 0.810414 16.9525 0.810232 16.9537 0.81005C16.9727 0.806951 16.9919 0.804307 17.0112 0.802165C17.0141 0.801846 17.017 0.801663 17.02 0.80139C17.0377 0.799567 17.0553 0.798017 17.0732 0.797015C17.0835 0.796468 17.0939 0.796377 17.1043 0.796058C17.1154 0.795739 17.1265 0.795146 17.1378 0.795146C17.8001 0.795146 18.3243 1.35961 18.4483 2.15466H15.8098Z" fill="#A81C20"/>
<path d="M19.689 6.41542C19.6889 6.41145 19.6888 6.40749 19.6887 6.40348C19.6876 6.3713 19.6827 6.34031 19.6745 6.31096C19.6741 6.3095 19.674 6.30799 19.6735 6.30658C19.6732 6.3054 19.6726 6.3043 19.6723 6.30312C19.6677 6.28812 19.6625 6.27354 19.6564 6.25959C19.6556 6.25786 19.6547 6.25626 19.6539 6.25453C19.6482 6.24223 19.6419 6.23042 19.635 6.21907C19.6336 6.21666 19.6322 6.21415 19.6307 6.21178C19.6231 6.19993 19.6149 6.18872 19.6061 6.17815C19.6042 6.17582 19.6021 6.17368 19.6002 6.17145C19.5919 6.16197 19.5831 6.15308 19.5739 6.14483C19.5726 6.14374 19.5715 6.1425 19.5702 6.14141C19.5598 6.13248 19.5488 6.1245 19.5375 6.11721C19.5353 6.1158 19.5331 6.11452 19.5309 6.1132C19.5193 6.10627 19.5075 6.09994 19.495 6.09488C19.495 6.09483 19.4949 6.09479 19.4948 6.09479C19.4825 6.08977 19.4697 6.08599 19.4566 6.08294C19.4537 6.08225 19.4508 6.08166 19.4479 6.08111C19.4349 6.07856 19.4217 6.07665 19.4081 6.07624C16.9932 6.00217 13.8442 6.69116 12.2522 8.84512C11.5554 9.78778 11.234 10.9837 10.9231 12.1402C10.8976 12.2349 10.8722 12.3295 10.8466 12.424C10.8455 12.428 10.8444 12.432 10.8435 12.436L10.3557 14.4892C10.3125 14.671 10.4019 14.86 10.5553 14.9112C10.5815 14.92 10.6078 14.9241 10.6337 14.9241C10.7597 14.9241 10.8755 14.8254 10.9114 14.6746L11.3637 12.7703C11.9168 12.4631 12.3621 12.3194 12.9636 12.1256C13.2756 12.025 13.6293 11.911 14.0573 11.755C14.9825 11.4177 16.7575 10.0067 17.5743 8.95901C18.2888 8.04265 18.8899 7.36164 19.5844 6.68195C19.5852 6.68118 19.5859 6.68022 19.5867 6.6794C19.5968 6.66924 19.6064 6.65843 19.6152 6.64672C19.6158 6.64599 19.6164 6.64535 19.6169 6.64467C19.6256 6.63296 19.6335 6.62038 19.6409 6.60725C19.6422 6.60484 19.6435 6.60242 19.6449 6.59996C19.6587 6.57384 19.6696 6.54545 19.6772 6.51519C19.6779 6.51232 19.6786 6.50949 19.6792 6.50657C19.6826 6.49171 19.6853 6.47658 19.687 6.461C19.6871 6.46036 19.6871 6.45976 19.6871 6.45913C19.6882 6.44855 19.689 6.43784 19.6892 6.427C19.6893 6.42308 19.689 6.41925 19.689 6.41542ZM12.6864 9.29587C13.3582 8.38693 14.3878 7.70178 15.7468 7.2595C16.112 7.14064 16.4979 7.04201 16.8957 6.96416C15.885 7.54504 14.9187 8.27258 14.3787 8.70014C13.5071 9.39017 12.5664 10.2272 11.8716 10.9716C12.0772 10.3544 12.3257 9.78386 12.6864 9.29587ZM17.1504 8.49468C16.3554 9.51437 14.6383 10.8274 13.8876 11.101C13.4687 11.2537 13.1199 11.3662 12.8121 11.4654C12.5337 11.5551 12.2804 11.6369 12.0299 11.7311C12.1419 11.6039 12.2733 11.4613 12.4282 11.3012C13.0514 10.6569 13.8579 9.93522 14.6993 9.26907C16.1561 8.11566 17.4744 7.30603 18.4416 6.95505C18.0215 7.41355 17.6084 7.90724 17.1504 8.49468Z" fill="#A81C20"/>
</svg>
