<svg width="17" height="17" viewBox="0 0 17 17" fill="none" xmlns="http://www.w3.org/2000/svg">
<path d="M12.5263 15.4074H1.78947V4.47369H8.05263V2.68421H1.78947C0.805263 2.68421 0 3.48947 0 4.47369V15.2105C0 16.1947 0.805263 17 1.78947 17H12.5263C13.5105 17 14.3158 16.1947 14.3158 15.2105V8.94737H12.5263V15.4074Z" fill="black"/>
<path d="M14.3158 0H12.5264V2.68421H9.84216C9.85111 2.69316 9.84216 4.47368 9.84216 4.47368H12.5264V7.14895C12.5353 7.1579 14.3158 7.14895 14.3158 7.14895V4.47368H17.0001V2.68421H14.3158V0Z" fill="black"/>
<path d="M10.7369 6.26316H3.57898V8.05263H10.7369V6.26316Z" fill="black"/>
<path d="M3.57898 8.94737V10.7368H10.7369V8.94737H8.05266H3.57898Z" fill="black"/>
<path d="M10.7369 11.6316H3.57898V13.4211H10.7369V11.6316Z" fill="black"/>
</svg>
