<svg width="25" height="25" viewBox="0 0 25 25" fill="none" xmlns="http://www.w3.org/2000/svg">
<circle r="12" transform="matrix(-1 0 0 1 12.8018 12.2576)" fill="#16295F"/>
<path d="M7.00086 17.5845V16.2422C7.00086 15.5301 7.29255 14.8473 7.81176 14.3438C8.33097 13.8403 9.03517 13.5575 9.76944 13.5575H15.3066C16.0409 13.5575 16.7451 13.8403 17.2643 14.3438C17.7835 14.8473 18.0752 15.5301 18.0752 16.2422V17.5845" stroke="white" stroke-linecap="round" stroke-linejoin="round"/>
<path d="M12.79 10.5372C11.261 10.5372 10.0214 9.29763 10.0214 7.76858C10.0214 6.23954 11.261 5 12.79 5C14.3191 5 15.5586 6.23954 15.5586 7.76858C15.5586 9.29763 14.3191 10.5372 12.79 10.5372Z" stroke="white" stroke-linecap="round" stroke-linejoin="round"/>
</svg>
