<svg width="17" height="10" viewBox="0 0 17 10" fill="none" xmlns="http://www.w3.org/2000/svg">
<path d="M8.67 0.210526C5.60567 0.210526 2.82679 1.91942 0.77625 4.69512C0.608926 4.92252 0.608926 5.24022 0.77625 5.46763C2.82679 8.24667 5.60567 9.95556 8.67 9.95556C11.7343 9.95556 14.5132 8.24667 16.5637 5.47097C16.7311 5.24357 16.7311 4.92587 16.5637 4.69846C14.5132 1.91942 11.7343 0.210526 8.67 0.210526ZM8.88981 8.51421C6.85568 8.64463 5.17588 6.93574 5.30383 4.85898C5.40882 3.14674 6.77038 1.7589 8.45018 1.65188C10.4843 1.52146 12.1641 3.23035 12.0362 5.30711C11.9279 7.016 10.5663 8.40385 8.88981 8.51421ZM8.78811 6.92905C7.6923 6.99928 6.78678 6.07962 6.85896 4.96265C6.91474 4.03965 7.64965 3.29389 8.55516 3.23369C9.65097 3.16347 10.5565 4.08312 10.4843 5.20009C10.4253 6.12644 9.69034 6.8722 8.78811 6.92905Z" fill="#16295F"/>
</svg>
