<svg viewBox="0 0 118 98" fill="none" xmlns="http://www.w3.org/2000/svg">
<path d="M116.643 41.773C116.464 41.982 116.269 42.178 116.059 42.357L78.559 74.5C76.313 76.426 72.931 76.167 71.005 73.921C70.171 72.949 69.713 71.71 69.714 70.429V54.357H37.572C34.613 54.357 32.215 51.959 32.215 49V40.509L13.004 59.714L32.215 78.925V70.429C32.215 67.47 34.613 65.072 37.572 65.072H53.643C56.602 65.072 59 67.47 59 70.429C59 73.388 56.602 75.786 53.643 75.786H42.929V91.857C42.93 94.024 41.625 95.977 39.624 96.807C38.974 97.078 38.276 97.216 37.572 97.214C36.152 97.215 34.79 96.652 33.785 95.65L1.64101 63.507C-0.451991 61.416 -0.453993 58.024 1.63701 55.931C1.63801 55.93 1.64001 55.928 1.64101 55.927L33.784 23.784C35.876 21.692 39.268 21.693 41.36 23.785C42.364 24.789 42.928 26.151 42.929 27.572V43.643H75.072C78.031 43.643 80.429 46.041 80.429 49V58.788L104.338 38.286L80.429 17.795V27.572C80.429 30.531 78.031 32.929 75.072 32.929H59C56.041 32.929 53.643 30.531 53.643 27.572C53.643 24.613 56.041 22.215 59 22.215H69.714V6.143C69.714 3.184 72.113 0.785995 75.072 0.785995C76.351 0.785995 77.588 1.244 78.559 2.077L116.059 34.22C118.306 36.144 118.567 39.526 116.643 41.773Z" fill="#16295F"/>
</svg>
