<svg width="35" height="35" viewBox="0 0 35 35" fill="none" xmlns="http://www.w3.org/2000/svg">
<path d="M25.2766 21.7139H23.7373L23.1917 21.1878C25.1013 18.9665 26.2509 16.0827 26.2509 12.9455C26.2509 5.95027 20.5807 0.280029 13.5854 0.280029C6.59016 0.280029 0.919922 5.95027 0.919922 12.9455C0.919922 19.9408 6.59016 25.611 13.5854 25.611C16.7225 25.611 19.6064 24.4614 21.8277 22.5518L22.3538 23.0974V24.6367L32.0965 34.3599L34.9998 31.4566L25.2766 21.7139ZM13.5854 21.7139C8.73355 21.7139 4.81699 17.7974 4.81699 12.9455C4.81699 8.09366 8.73355 4.1771 13.5854 4.1771C18.4373 4.1771 22.3538 8.09366 22.3538 12.9455C22.3538 17.7974 18.4373 21.7139 13.5854 21.7139Z" fill="white"/>
</svg>
