<svg width="35" height="35" viewBox="0 0 35 35" fill="none" xmlns="http://www.w3.org/2000/svg">
<path d="M25.2769 21.7139H23.7375L23.1919 21.1878C25.1015 18.9665 26.2511 16.0827 26.2511 12.9455C26.2511 5.95027 20.5809 0.280029 13.5857 0.280029C6.59041 0.280029 0.920166 5.95027 0.920166 12.9455C0.920166 19.9408 6.59041 25.611 13.5857 25.611C16.7228 25.611 19.6066 24.4614 21.828 22.5518L22.3541 23.0974V24.6367L32.0967 34.3599L35.0001 31.4566L25.2769 21.7139ZM13.5857 21.7139C8.7338 21.7139 4.81724 17.7974 4.81724 12.9455C4.81724 8.09366 8.7338 4.1771 13.5857 4.1771C18.4375 4.1771 22.3541 8.09366 22.3541 12.9455C22.3541 17.7974 18.4375 21.7139 13.5857 21.7139Z" fill="#16295F"/>
</svg>
