<svg width="10" height="10" viewBox="0 0 10 10" fill="none" xmlns="http://www.w3.org/2000/svg">
<path fill-rule="evenodd" clip-rule="evenodd" d="M4.82649 0C6.15351 0 7.35957 0.546314 8.23396 1.42664L8.96147 0.693368C9.19904 0.453919 9.58425 0.453919 9.82182 0.693368C10.0594 0.932817 10.0594 1.32108 9.82182 1.56053L8.98581 2.40316C10.1082 4.31826 9.78856 6.73651 8.23594 8.30145C6.3465 10.2058 3.30653 10.2058 1.41708 8.30145C-0.472361 6.39706 -0.472361 3.33299 1.41708 1.4286C2.29163 0.547131 3.49846 0 4.82649 0ZM3.02166 4.95174C2.78409 4.71229 2.78409 4.32403 3.02166 4.08458C3.25923 3.84513 3.64444 3.84513 3.88201 4.08458L4.73941 4.94879L7.37356 2.2938C5.9591 0.870308 3.69077 0.871207 2.27735 2.29576C0.863213 3.72109 0.863213 6.00892 2.27735 7.43425C3.69154 8.85962 5.96137 8.85958 7.37551 7.43425C8.45084 6.35041 8.74844 4.70509 8.087 3.30899L5.16956 6.24951C4.93199 6.48896 4.54678 6.48896 4.30921 6.24951L3.02166 4.95174Z" fill="white"/>
</svg>
