<svg width="32" height="28" viewBox="0 0 32 28" fill="none" xmlns="http://www.w3.org/2000/svg">
<path d="M31.0767 11.0592L16.1875 0.157636C15.9004 -0.0525454 15.5103 -0.0525454 15.2233 0.157636L0.334081 11.0592C-0.029596 11.3255 -0.108614 11.8361 0.157702 12.1998C0.424018 12.5635 0.934748 12.6424 1.29836 12.3762L15.7054 1.82762L30.1124 12.3761C30.2576 12.4826 30.4265 12.5338 30.5938 12.5338C30.8451 12.5338 31.0931 12.4182 31.253 12.1998C31.5193 11.8361 31.4403 11.3255 31.0767 11.0592Z" fill="white"/>
<path d="M27.1317 12.5609C26.681 12.5609 26.3156 12.9263 26.3156 13.377V26.3676H19.7867V19.2765C19.7867 17.0263 17.9559 15.1956 15.7057 15.1956C13.4556 15.1956 11.6248 17.0264 11.6248 19.2765V26.3677H5.09587V13.3771C5.09587 12.9264 4.73042 12.561 4.27975 12.561C3.82908 12.561 3.46362 12.9264 3.46362 13.3771V27.1839C3.46362 27.6346 3.82908 28 4.27975 28H12.4409C12.8701 28 13.2214 27.6684 13.2539 27.2474C13.2558 27.2283 13.2571 27.2075 13.2571 27.1839V19.2766C13.2571 17.9264 14.3555 16.8279 15.7057 16.8279C17.056 16.8279 18.1544 17.9264 18.1544 19.2766V27.1839C18.1544 27.2074 18.1557 27.2279 18.1576 27.2467C18.1898 27.668 18.5411 28 18.9706 28H27.1317C27.5825 28 27.9479 27.6346 27.9479 27.1839V13.3771C27.9478 12.9263 27.5824 12.5609 27.1317 12.5609Z" fill="white"/>
</svg>
