<svg width="28" height="28" viewBox="0 0 28 28" fill="none" xmlns="http://www.w3.org/2000/svg">
<path d="M22.1667 12.8333H5.83333C4.54467 12.8333 3.5 13.878 3.5 15.1667V23.3333C3.5 24.622 4.54467 25.6667 5.83333 25.6667H22.1667C23.4553 25.6667 24.5 24.622 24.5 23.3333V15.1667C24.5 13.878 23.4553 12.8333 22.1667 12.8333Z" stroke="white" stroke-width="2" stroke-linecap="round" stroke-linejoin="round"/>
<path d="M8.1665 12.8333V8.16667C8.1665 6.61957 8.78109 5.13584 9.87505 4.04188C10.969 2.94791 12.4527 2.33333 13.9998 2.33333C15.5469 2.33333 17.0307 2.94791 18.1246 4.04188C19.2186 5.13584 19.8332 6.61957 19.8332 8.16667V12.8333" stroke="white" stroke-width="2" stroke-linecap="round" stroke-linejoin="round"/>
</svg>
