<svg width="85" height="85" viewBox="0 0 85 85" fill="none" xmlns="http://www.w3.org/2000/svg">
<path d="M70.8334 24.0834H14.1666C13.3847 24.0834 12.75 24.7181 12.75 25.5V69.4166C12.75 70.1985 13.3847 70.8332 14.1666 70.8332H70.8332C71.6151 70.8332 72.2498 70.1985 72.2498 69.4166V25.5C72.25 24.7181 71.6153 24.0834 70.8334 24.0834ZM69.4166 68H15.5834V26.9166H69.4168V68H69.4166Z" fill="#E9EEF4"/>
<path d="M78.625 0H6.375C2.86028 0 0 2.86028 0 6.375V78.625C0 82.1397 2.86028 85 6.375 85H78.625C82.1397 85 85 82.1397 85 78.625V6.375C85 2.86028 82.1397 0 78.625 0ZM82.1666 78.625C82.1666 80.5772 80.5785 82.1666 78.625 82.1666H6.375C4.42282 82.1666 2.83339 80.5772 2.83339 78.625V6.375C2.83339 4.42282 4.42282 2.83339 6.375 2.83339H78.625C80.5772 2.83339 82.1666 4.42282 82.1666 6.375V78.625Z" fill="#E9EEF4"/>
<path d="M12.75 5.66663H7.08336C6.30143 5.66663 5.66675 6.3013 5.66675 7.08324V12.75C5.66675 13.532 6.30143 14.1666 7.08336 14.1666H12.75C13.5319 14.1666 14.1666 13.532 14.1666 12.75V7.0834C14.1666 6.3013 13.5319 5.66663 12.75 5.66663ZM11.3334 11.3334H8.49997V8.50002H11.3334V11.3334Z" fill="#E9EEF4"/>
<path d="M24.0833 5.66663H18.4167C17.6348 5.66663 17.0001 6.3013 17.0001 7.08324V12.75C17.0001 13.532 17.6348 14.1666 18.4167 14.1666H24.0833C24.8653 14.1666 25.5 13.532 25.5 12.75V7.0834C25.5 6.3013 24.8653 5.66663 24.0833 5.66663ZM22.6666 11.3334H19.8332V8.50002H22.6666V11.3334Z" fill="#E9EEF4"/>
<path d="M35.4166 5.66663H29.75C28.9681 5.66663 28.3334 6.3013 28.3334 7.08324V12.75C28.3334 13.532 28.9681 14.1666 29.75 14.1666H35.4166C36.1985 14.1666 36.8332 13.532 36.8332 12.75V7.0834C36.8334 6.3013 36.1987 5.66663 35.4166 5.66663ZM34 11.3334H31.1666V8.50002H34V11.3334Z" fill="#E9EEF4"/>
<path d="M78.625 0H6.375C2.86028 0 0 2.86028 0 6.375V18.4166C0 19.1985 0.634678 19.8332 1.41661 19.8332H83.5832C84.3652 19.8332 84.9998 19.1985 84.9998 18.4166V6.375C85 2.86028 82.1397 0 78.625 0ZM82.1666 17H2.83339V6.375C2.83339 4.42282 4.42282 2.83339 6.375 2.83339H78.625C80.5772 2.83339 82.1666 4.42282 82.1666 6.375V17Z" fill="#E9EEF4"/>
<path d="M32.1681 49.9984C31.6156 49.4446 30.7175 49.4446 30.165 49.9984L20.2484 59.915C19.6946 60.469 19.6946 61.3643 20.2484 61.9182C20.5246 62.1944 20.8874 62.3332 21.25 62.3332C21.6125 62.3332 21.9753 62.1944 22.2515 61.9182L32.1681 52.0016C32.7221 51.4477 32.7221 50.5523 32.1681 49.9984Z" fill="#E9EEF4"/>
<path d="M42.085 59.915L32.1684 49.9984C31.6159 49.4446 30.7178 49.4446 30.1653 49.9984C29.6113 50.5524 29.6113 51.4477 30.1653 52.0016L40.0819 61.9182C40.3581 62.1944 40.7208 62.3332 41.0834 62.3332C41.4462 62.3332 41.8087 62.1944 42.085 61.9182C42.6388 61.3643 42.6388 60.469 42.085 59.915Z" fill="#E9EEF4"/>
<path d="M47.7515 45.7484C47.1975 45.1944 46.3022 45.1944 45.7484 45.7484L35.8318 55.665C35.2778 56.219 35.2778 57.1144 35.8318 57.6682C36.108 57.9444 36.4708 58.0832 36.8333 58.0832C37.1961 58.0832 37.5586 57.9444 37.8349 57.6682L47.7515 47.7516C48.3055 47.1977 48.3055 46.3023 47.7515 45.7484Z" fill="#E9EEF4"/>
<path d="M57.6683 55.665L47.7516 45.7484C47.1977 45.1944 46.3023 45.1944 45.7485 45.7484C45.1945 46.3024 45.1945 47.1977 45.7485 47.7516L55.6651 57.6682C55.9414 57.9444 56.3041 58.0832 56.6667 58.0832C57.0294 58.0832 57.392 57.9444 57.6683 57.6682C58.2223 57.1144 58.2223 56.219 57.6683 55.665Z" fill="#E9EEF4"/>
<path d="M58.0834 34C54.9581 34 52.4167 36.5415 52.4167 39.6666C52.4167 42.7917 54.9583 45.3332 58.0834 45.3332C61.2086 45.3332 63.75 42.7917 63.75 39.6666C63.75 36.5415 61.2084 34 58.0834 34ZM58.0834 42.5C56.5208 42.5 55.25 41.2293 55.25 39.6666C55.25 38.1039 56.5207 36.8332 58.0834 36.8332C59.6459 36.8332 60.9167 38.1039 60.9167 39.6666C60.9167 41.2293 59.6459 42.5 58.0834 42.5Z" fill="#E9EEF4"/>
<path d="M45.3333 75.0834H39.6667C38.8848 75.0834 38.2501 75.7181 38.2501 76.5C38.2501 77.2819 38.8848 77.9166 39.6667 77.9166H45.3333C46.1153 77.9166 46.75 77.2819 46.75 76.5C46.75 75.7181 46.1153 75.0834 45.3333 75.0834Z" fill="#E9EEF4"/>
<path d="M56.6666 75.0834H51C50.2181 75.0834 49.5834 75.7181 49.5834 76.5C49.5834 77.2819 50.2181 77.9166 51 77.9166H56.6666C57.4485 77.9166 58.0832 77.2819 58.0832 76.5C58.0832 75.7181 57.4487 75.0834 56.6666 75.0834Z" fill="#E9EEF4"/>
<path d="M34 75.0834H28.3334C27.5514 75.0834 26.9167 75.7181 26.9167 76.5C26.9167 77.2819 27.5514 77.9166 28.3334 77.9166H34C34.7819 77.9166 35.4166 77.2819 35.4166 76.5C35.4166 75.7181 34.7819 75.0834 34 75.0834Z" fill="#E9EEF4"/>
<path d="M8.5 26.9166H1.41661C0.634678 26.9166 0 27.5513 0 28.3332V66.5832C0 67.3652 0.634678 67.9998 1.41661 67.9998H8.5C9.28193 67.9998 9.91661 67.3652 9.91661 66.5832V28.3332C9.91661 27.5513 9.28193 26.9166 8.5 26.9166ZM7.08339 65.1666H2.83339V29.75H7.08339V65.1666Z" fill="#E9EEF4"/>
<path d="M83.5834 26.9166H76.5C75.718 26.9166 75.0834 27.5513 75.0834 28.3332V66.5832C75.0834 67.3652 75.718 67.9998 76.5 67.9998H83.5834C84.3653 67.9998 85 67.3652 85 66.5832V28.3332C85 27.5513 84.3653 26.9166 83.5834 26.9166ZM82.1666 65.1666H77.9166V29.75H82.1666V65.1666Z" fill="#E9EEF4"/>
</svg>
