<svg width="82" height="87" viewBox="0 0 82 87" fill="none" xmlns="http://www.w3.org/2000/svg">
<path d="M80.6022 39.4829C79.8977 38.5796 78.5947 38.419 77.6913 39.123C76.7882 39.8275 76.6271 41.1305 77.3314 42.0338C78.0237 42.9217 78.0237 44.1614 77.3314 45.0493C72.2583 51.5536 65.6944 56.4412 58.3047 59.3962C62.1887 55.2376 64.5668 49.6611 64.5668 43.5415C64.5668 37.4459 62.2085 31.8895 58.3577 27.7397C62.6276 29.4567 66.6416 31.8163 70.2351 34.7627C70.6811 35.1282 71.1256 35.5073 71.5575 35.8896C72.4151 36.6489 73.7257 36.5691 74.485 35.7116C75.2444 34.8542 75.1646 33.5433 74.3071 32.7841C73.8364 32.367 73.351 31.9537 72.8648 31.5552C64 24.287 52.793 20.284 41.3089 20.284C25.8534 20.284 11.5317 27.2817 2.01576 39.4829C0.151972 41.8726 0.151972 45.2106 2.01576 47.6004C11.5317 59.8016 25.8534 66.7992 41.3089 66.7992C56.764 66.7992 71.0859 59.8016 80.6023 47.6004C82.4659 45.2104 82.466 41.8727 80.6022 39.4829ZM5.28653 45.0493C4.59425 44.1614 4.59425 42.9217 5.28653 42.0338C10.3584 35.5307 16.921 30.6438 24.3093 27.6885C20.4294 31.845 18.0509 37.4193 18.0509 43.5415C18.0509 49.6615 20.4293 55.2379 24.3091 59.3947C16.921 56.4393 10.3583 51.5524 5.28653 45.0493ZM41.3342 62.6508C41.3259 62.6508 41.3175 62.651 41.309 62.651C41.3006 62.651 41.2924 62.6508 41.2839 62.6508C30.7576 62.6372 22.1988 54.0708 22.1988 43.5415C22.1988 33.0121 30.7575 24.4457 41.2839 24.4321C41.2922 24.4321 41.3006 24.432 41.309 24.432C41.3155 24.432 41.3219 24.4321 41.3284 24.4321C51.8572 24.4426 60.4191 33.0104 60.4191 43.5418C60.4191 54.0708 51.8603 62.6372 41.3342 62.6508Z" fill="white"/>
<path d="M41.309 34.7411C36.4561 34.7411 32.5087 38.6886 32.5087 43.5415C32.5087 48.3944 36.4561 52.3418 41.309 52.3418C46.1619 52.3418 50.1094 48.3944 50.1094 43.5415C50.1094 38.6886 46.1619 34.7411 41.309 34.7411ZM41.309 48.1939C38.7443 48.1939 36.6566 46.1062 36.6566 43.5415C36.6566 40.9768 38.7443 38.8891 41.309 38.8891C43.8737 38.8891 45.9615 40.9768 45.9615 43.5415C45.9615 46.1062 43.8737 48.1939 41.309 48.1939Z" fill="white"/>
<path d="M41.3091 12.0081C42.4546 12.0081 43.383 11.0797 43.383 9.93414V2.15693C43.383 1.01139 42.4544 0.0829773 41.3091 0.0829773C40.1637 0.0829773 39.2351 1.01139 39.2351 2.15693V9.93414C39.2351 11.0797 40.1635 12.0081 41.3091 12.0081Z" fill="white"/>
<path d="M41.3091 75.0749C40.1635 75.0749 39.2351 76.0033 39.2351 77.1488V84.9261C39.2351 86.0716 40.1635 87 41.3091 87C42.4546 87 43.383 86.0716 43.383 84.9261V77.1488C43.383 76.0033 42.4543 75.0749 41.3091 75.0749Z" fill="white"/>
<path d="M66.7024 20.2219C67.233 20.2219 67.7637 20.0194 68.1689 19.6145L72.0389 15.7449C72.8489 14.9349 72.8489 13.6218 72.0389 12.8116C71.229 12.0018 69.9161 12.0018 69.1057 12.8116L65.236 16.6813C64.4261 17.4912 64.4261 18.8043 65.236 19.6145C65.641 20.0194 66.1715 20.2219 66.7024 20.2219Z" fill="white"/>
<path d="M14.4491 67.4685L10.5791 71.3381C9.7692 72.1481 9.7692 73.4611 10.5791 74.2714C10.9842 74.6763 11.515 74.8788 12.0457 74.8788C12.5763 74.8788 13.107 74.6763 13.5122 74.2714L17.3822 70.4017C18.1922 69.5918 18.1922 68.2787 17.3822 67.4685C16.5723 66.6589 15.2592 66.6587 14.4491 67.4685Z" fill="white"/>
<path d="M14.4492 19.6145C14.8541 20.0194 15.3851 20.2219 15.9157 20.2219C16.4464 20.2219 16.9774 20.0194 17.3823 19.6145C18.1922 18.8043 18.1921 17.4914 17.3823 16.6813L13.5121 12.8116C12.7022 12.0018 11.3891 12.0018 10.5792 12.8116C9.76926 13.6218 9.76943 14.9348 10.5792 15.7449L14.4492 19.6145Z" fill="white"/>
<path d="M68.1689 67.4685C67.3586 66.6587 66.0459 66.6587 65.2356 67.4685C64.4257 68.2787 64.4257 69.5916 65.2356 70.4017L69.1056 74.2714C69.5107 74.6763 70.0415 74.8788 70.5722 74.8788C71.1029 74.8788 71.6335 74.6763 72.0387 74.2714C72.8487 73.4611 72.8487 72.1482 72.0387 71.3381L68.1689 67.4685Z" fill="white"/>
</svg>
