<svg width="83" height="82" viewBox="0 0 83 82" fill="none" xmlns="http://www.w3.org/2000/svg">
<path d="M41.0014 49.1989C51.5683 49.1989 60.1351 40.6324 60.1351 30.0652C60.1351 19.4983 51.5683 10.9318 41.0014 10.9318C30.4334 10.9318 21.8669 19.4983 21.8669 30.0652C21.8786 40.6283 30.4382 49.1879 41.0014 49.1989ZM41.0014 13.665C50.0585 13.665 57.4019 21.0077 57.4019 30.0652C57.4019 39.1233 50.0585 46.4657 41.0014 46.4657C31.9436 46.4657 24.6008 39.1233 24.6008 30.0652C24.6108 21.0118 31.947 13.6746 41.0014 13.665Z" fill="white"/>
<path d="M79.0081 57.2378C77.1451 56.0524 74.8038 55.9099 72.8106 56.8596L57.0086 64.3452C57.7185 62.4555 57.456 60.3393 56.307 58.6804C55.1583 57.0213 53.2692 56.0329 51.2517 56.0329H34.7206C28.5906 50.2955 19.464 49.1554 12.1099 53.2079L11.9465 53.2994H0V56.0329H10.9338V79.2668H0V82H48.0601C52.6289 81.9986 57.1162 80.7937 61.0707 78.5055L78.7902 68.2473C80.7389 67.1192 81.9565 65.0544 82.0014 62.8039C82.0455 60.5527 80.9099 58.4417 79.0081 57.2378ZM77.4212 65.881L59.7014 76.1392C56.1634 78.1869 52.1483 79.2654 48.0601 79.2668H13.6673V55.4724C20.1098 52.0537 28.0267 53.226 33.2009 58.3659C33.4578 58.6219 33.8052 58.7661 34.1673 58.7661H51.2517C53.1387 58.7661 54.6677 60.2958 54.6677 62.1831C54.6677 64.0691 53.1387 65.5994 51.2517 65.5994H34.1673C33.413 65.5994 32.8007 66.2113 32.8007 66.966C32.8007 67.7214 33.413 68.3333 34.1673 68.3333H54.6677C54.8708 68.3309 55.0702 68.284 55.2528 68.1963L73.9768 59.3249C75.7717 58.4718 77.9201 59.1878 78.8444 60.9477C79.7677 62.7069 79.1376 64.882 77.4168 65.8755L77.4212 65.881Z" fill="white"/>
<path d="M30.0672 30.0651C30.0737 24.0297 34.9652 19.1385 41.0013 19.132V16.3985C33.4561 16.4064 27.3422 22.5206 27.334 30.0651H30.0672Z" fill="white"/>
<path d="M41.0015 43.7325C48.546 43.7239 54.6602 37.6097 54.6678 30.0652H51.9346C51.9281 36.1006 47.0366 40.9921 41.0015 40.999V43.7325Z" fill="white"/>
<path d="M13.4426 8.17937C15.6698 8.55109 17.415 10.2959 17.7863 12.5238C17.8973 13.1812 18.4674 13.6622 19.1338 13.6622C19.8008 13.6622 20.3705 13.1812 20.4808 12.5238C20.8532 10.2959 22.5984 8.55109 24.8249 8.17937C25.482 8.06769 25.9633 7.4983 25.9633 6.83162C25.9633 6.16425 25.482 5.59486 24.8249 5.48352C22.5984 5.11181 20.8532 3.36596 20.4808 1.13877C20.3705 0.482026 19.8008 0 19.1338 0C18.4674 0 17.8973 0.482026 17.7863 1.13877C17.415 3.36596 15.6698 5.11181 13.4426 5.48352C12.7852 5.59486 12.3042 6.16425 12.3042 6.83162C12.3042 7.4983 12.7852 8.06769 13.4426 8.17937ZM19.1338 4.87953C19.6672 5.63803 20.3274 6.2982 21.0855 6.83162C20.3274 7.36366 19.6672 8.02487 19.1338 8.78302C18.6007 8.02487 17.9405 7.36366 17.1817 6.83162C17.9405 6.2982 18.6007 5.63803 19.1338 4.87953Z" fill="white"/>
<path d="M62.644 42.3467C64.8712 42.7184 66.6161 44.4636 66.9874 46.6911C67.0988 47.3486 67.6685 47.8296 68.3352 47.8296C69.0022 47.8296 69.5719 47.3486 69.6826 46.6911C70.0546 44.4636 71.7995 42.7184 74.0263 42.3467C74.6834 42.2347 75.1647 41.6656 75.1647 40.999C75.1647 40.3316 74.6834 39.7622 74.0263 39.6512C71.7995 39.2792 70.0546 37.5333 69.6826 35.3071C69.5719 34.6497 69.0022 34.1673 68.3352 34.1673C67.6685 34.1673 67.0988 34.6497 66.9874 35.3071C66.6161 37.5333 64.8712 39.2792 62.644 39.6512C61.9873 39.7622 61.5056 40.3316 61.5056 40.999C61.5056 41.6656 61.9873 42.2347 62.644 42.3467ZM68.3352 39.0469C68.8686 39.8054 69.5288 40.4655 70.2869 40.999C69.5288 41.5314 68.8686 42.1922 68.3352 42.9504C67.8021 42.1922 67.1419 41.5314 66.3831 40.999C67.1419 40.4655 67.8021 39.8054 68.3352 39.0469Z" fill="white"/>
<path d="M39.634 23.2322C37.3701 23.2322 35.5342 25.0678 35.5342 27.332C35.5342 29.5961 37.3701 31.4321 39.634 31.4321H42.3675C43.1226 31.4321 43.7344 32.0436 43.7344 32.7987C43.7344 33.5541 43.1226 34.1653 42.3675 34.1653H36.9008V36.8988H39.634V38.2658H42.3675V36.8988C44.632 36.8988 46.4676 35.0632 46.4676 32.7987C46.4676 30.5345 44.632 28.6986 42.3675 28.6986H39.634C38.8792 28.6986 38.2674 28.0867 38.2674 27.332C38.2674 26.5772 38.8792 25.9654 39.634 25.9654H45.1014V23.2322H42.3675V21.8652H39.634V23.2322Z" fill="white"/>
</svg>
