<svg class="svg_map" viewBox="0 0 96 125" fill="none" xmlns="http://www.w3.org/2000/svg">
    <path fill-rule="evenodd" clip-rule="evenodd" id="abia_state_cWKKWsp8fhgsgdhg" class="state-map-path"
        d="M47.8624 104.716C47.7024 103.666 46.8824 103.886 46.6824 102.646C47.4524 101.896 48.7923 100.476 49.6723 99.8964L49.4923 97.2765C48.4924 96.6865 46.8524 96.6565 46.2824 95.8465C48.4824 94.3765 50.7323 94.0565 50.2423 89.9066C49.9223 87.1867 47.7324 84.3968 46.2624 83.5168C46.6924 82.1468 47.8424 82.2568 47.6524 79.7469C47.5624 78.3969 46.5024 76.987 45.8524 76.017C46.7324 74.997 47.3524 73.0171 47.2924 71.3371C47.2124 69.2772 45.8824 67.8172 45.9424 66.4372C46.7624 65.7572 48.5624 64.9573 49.6523 65.0473C51.5223 65.1973 51.7123 66.4772 52.7022 67.4672C56.0822 67.2572 58.5921 66.5572 57.0121 62.6273C56.5022 61.3473 55.6322 60.7874 55.2222 59.4674C54.8822 58.3974 54.3822 56.8075 54.1722 55.6975C54.9122 55.0175 55.7322 54.5275 56.5522 53.9475L56.7621 50.4176C64.412 50.8076 60.802 49.8576 65.4519 56.5075C66.5419 58.0574 68.7319 60.2974 71.1518 60.5274C72.8318 60.6874 74.1817 60.4574 75.6117 60.1074C77.3116 59.6874 77.4516 60.4774 78.9516 61.2273C82.3715 62.9273 83.2415 61.9873 84.7915 61.8073C85.4714 61.7173 86.0214 62.0473 87.0914 62.0873C87.3914 60.4074 87.4614 59.6874 88.4114 58.6974L95.1012 51.5676C92.7113 47.3077 92.6013 48.1777 89.4813 47.8977C87.6414 47.7177 87.1714 47.8677 85.6714 47.0177C84.1115 46.1377 84.1515 45.7977 83.0715 44.8878C79.2016 45.0178 79.0916 44.2078 78.2616 40.8579C77.5416 40.6279 77.6216 40.5779 76.9816 40.5279C74.9117 40.3879 76.5617 40.8579 73.8717 39.9179L72.6118 39.2579C71.6318 37.6879 71.5918 31.2281 70.6618 29.3481C69.7518 27.4882 69.4318 27.2082 67.8519 26.0582C66.6219 25.1582 65.5519 24.3683 64.262 23.5883C63.902 20.9983 64.122 22.0683 62.422 20.5084C61.412 19.5884 60.982 19.1784 59.1521 18.9384C57.3321 18.6984 56.4622 18.9284 55.3722 17.7484C54.3022 16.5885 54.3922 16.3685 52.5823 15.6385C50.4423 14.7785 47.7224 15.1585 44.1925 14.6785C41.5525 14.3285 37.5626 15.0485 34.6027 14.9185C31.8828 10.0786 31.1628 12.1586 29.7928 8.50865C28.3829 4.73874 28.2829 3.20878 25.8029 1.06883C24.8629 0.248854 22.483 0.218855 21.133 0.048859C18.3431 -0.281133 14.1932 1.14883 11.2933 1.68882C9.33332 2.04881 7.69336 1.42882 5.80341 1.55882L5.18342 3.85876L3.37347 4.49875C2.62349 4.70874 2.1635 4.83874 1.39352 5.08873C1.12352 6.4387 1.19352 7.82867 1.09352 9.20863C0.963527 10.9286 0.0435502 12.1486 0.00355114 12.7585C-0.0864466 14.2985 1.56351 13.3685 1.62351 19.0284L1.75351 20.0284C2.99348 20.6983 8.17335 22.0483 9.80331 22.4783C12.1633 23.0983 15.5232 20.8383 18.1331 20.6483C22.293 25.0382 24.3829 21.9783 25.5629 22.9983C26.3629 24.0683 28.0329 30.6681 28.3029 32.4481C25.6129 32.2681 22.223 31.9581 19.7231 31.9481C18.5531 31.9481 17.6931 32.788 16.7931 33.338C15.5632 34.088 15.2632 34.188 15.0632 36.068C15.7532 36.9079 17.1331 37.8479 17.9331 38.6079C19.5831 40.2179 18.4231 41.2678 19.2431 42.6778C19.6631 43.3978 24.4329 46.5377 25.4829 47.2377C24.003 48.3177 21.053 49.9876 19.7131 51.2576C20.2731 61.1674 20.403 56.1075 17.0531 61.1574C16.3031 62.2873 15.6032 64.2673 14.9432 65.5772C13.8632 67.7072 14.2432 65.2673 12.5332 69.6971C11.9133 71.2871 11.2933 72.7971 10.6633 74.377C10.1733 75.617 9.38332 77.7969 8.70334 78.9769C8.21335 79.8269 6.55339 82.2368 6.40339 83.1468C6.2834 83.8868 6.2334 88.7867 6.36339 89.4466C6.89338 92.0466 8.11335 92.0166 10.7833 91.7266C10.2533 94.4165 9.81331 93.4565 10.0633 96.8865C10.2133 98.8564 10.3133 100.646 10.4433 102.646L7.93336 104.566C8.32335 115.516 6.87338 112.436 5.85341 118.536C6.42339 119.116 13.1932 123.476 14.3032 123.646C18.7831 124.356 18.5831 123.996 19.6731 122.646C20.1731 122.026 20.403 121.936 20.963 121.366C21.573 120.746 22.923 119.356 23.133 118.686C25.8429 118.756 25.6129 118.586 27.8529 117.976C29.7528 117.456 30.8528 118.166 32.6527 118.206C34.3027 118.246 35.3127 117.266 36.9326 117.976C38.2326 118.546 39.3026 119.166 40.7025 119.816C42.3425 120.586 43.3425 119.686 45.0324 119.436L54.8022 120.616C57.0221 120.786 58.2821 121.516 59.2821 119.936C57.5821 116.776 55.4722 118.156 55.0322 112.886L50.4423 113.606C49.0223 109.886 51.0823 110.286 51.6023 107.256L48.5324 105.656C48.4924 105.626 48.2624 105.416 48.1524 105.336C47.5924 104.896 48.3324 104.936 47.8624 104.716ZM34.6127 61.9973C34.4927 61.9673 34.3827 61.9473 34.2527 61.9273C34.0927 61.8873 33.9627 61.8573 33.7927 61.8573H33.6327C33.4427 61.8273 33.2927 61.8273 33.1127 61.8273C32.3528 61.8273 31.7328 62.4473 31.7328 63.2073C31.7328 63.9573 32.3528 64.5773 33.1127 64.5773H33.2727C33.3927 64.5873 33.4827 64.5973 33.6027 64.5973L33.5727 64.5873C33.6927 64.6273 33.8127 64.6373 33.9327 64.6573C34.0827 64.7073 34.2227 64.7173 34.3727 64.7473C34.5527 64.8373 34.8227 64.8973 35.0327 64.8973C35.2227 64.8973 35.4027 64.9073 35.5927 64.8673C35.6727 64.8873 35.7627 64.8973 35.8527 64.8973C35.9127 64.9073 35.9627 64.9173 36.0227 64.9173C36.0927 64.9273 36.1627 64.9373 36.2327 64.9373C36.3027 64.9573 36.3627 64.9573 36.4227 64.9773C36.5326 65.0273 36.6426 65.0573 36.7526 65.0773C37.7426 65.3972 38.7126 64.5473 38.5226 63.5273C38.5226 63.1273 38.3726 62.7973 38.0926 62.5173C37.9626 62.3873 37.7826 62.2673 37.6126 62.1873C37.4326 62.0873 37.2226 62.0373 36.9926 62.0373H36.4827C36.3627 62.0073 36.2527 61.9873 36.1227 61.9873C35.9527 61.9873 35.7827 61.9873 35.6127 62.0173C35.4427 62.0073 35.3027 62.0173 35.1627 62.0373H34.8527C34.7727 62.0173 34.6927 62.0073 34.6127 61.9973Z"
        fill="#FEFEFE" />
    <path fill-rule="evenodd" clip-rule="evenodd" id="abia_state_cWKKWsp8f" class="state-map-path"
        d="M50.4623 34.798C50.7723 36.268 51.9823 35.298 51.1923 37.5679C50.6823 39.0279 49.5324 38.4079 48.9724 39.5679C47.6824 42.2278 53.5423 46.9077 55.6022 48.8177C57.2722 50.3576 58.4721 50.0076 62.512 50.1876C63.902 51.9076 66.3219 59.6074 71.6218 59.9374C73.2618 60.0374 74.3618 59.7474 75.7417 59.2874C78.2717 58.4474 79.8716 62.8273 84.3015 61.1273C85.2615 60.7674 85.3115 61.0074 86.3915 61.1173C87.3614 58.0974 88.2114 57.9974 90.1014 56.1775C91.5813 54.7575 93.2413 53.0775 94.5213 51.7276C94.3513 51.3076 93.0813 49.3176 92.7913 49.0176C92.0813 48.3277 90.2114 48.4277 89.0814 48.3177C85.2215 47.9677 84.9315 47.0877 82.8415 45.3577C81.4116 45.4577 80.4016 45.4677 79.4216 44.6178C78.3217 43.6678 78.5916 43.0378 77.9317 42.0078C77.1517 42.1978 75.8717 43.0478 75.2317 43.4278C70.3319 46.3877 69.4919 44.2378 68.4219 49.6176C66.8619 49.9576 66.292 50.1076 65.262 48.9876C63.692 47.2877 63.132 45.5277 62.1321 43.4578C61.4021 41.9578 61.3721 34.888 58.4521 34.068C57.4022 33.768 52.0023 34.658 50.4623 34.798Z"
        fill="#D2E28B" />
    <path id="abia_state_YOlKEnocb" class="state-map-path" fill-rule="evenodd" clip-rule="evenodd"
        d="M6.21337 1.99881C5.54338 3.10878 6.10337 3.98876 4.8134 4.50875C4.00342 4.83874 2.54346 5.02874 1.80348 5.46873C1.55348 6.87869 1.69348 8.26866 1.64348 9.68862C1.58348 11.3886 0.563507 11.6886 0.493509 12.7585C0.393512 14.2585 1.99347 13.3185 2.13347 19.7884C4.56341 20.0584 8.9333 22.0883 10.8833 22.0483L17.1431 20.1184C18.7331 19.5884 17.6931 20.2184 19.0631 20.0284C19.233 19.1084 19.593 19.0084 19.653 17.8584C19.723 16.7884 19.583 15.9085 19.753 14.8085C21.983 13.3485 23.043 14.2585 27.1329 11.1986C28.3528 10.2886 28.4528 10.6986 29.8228 10.1386C29.7028 9.29863 27.9328 4.48875 27.4628 3.62877C27.2828 3.30878 25.5329 1.53882 25.2729 1.35883C24.2129 0.638845 22.643 0.808841 21.383 0.618846C18.1631 0.128858 13.6432 1.98881 10.3433 2.2788C9.0633 2.3888 7.61333 1.92881 6.21337 1.99881Z"
        fill="#F6AFCE" />
    <path fill-rule="evenodd" clip-rule="evenodd" class="state-map-path" id="abia_state_igZmiNI3"
        d="M10.9633 102.886C10.4533 103.386 9.1533 104.566 8.49332 104.906C8.36332 107.126 8.77331 110.466 8.20333 112.346C7.68334 114.046 6.53337 117.056 6.45337 118.546C11.6132 121.456 12.4832 123.136 17.0831 123.376C18.4331 123.446 18.3131 123.106 19.0631 122.266C26.3029 114.206 20.033 121.076 31.0528 115.566C32.7527 114.726 33.4327 113.946 33.2327 112.016C32.4227 104.286 33.3427 107.126 24.0129 105.816C23.4329 105.726 22.863 105.476 22.413 105.546C21.653 105.676 21.853 106.166 20.493 105.956C18.9831 105.726 19.0531 104.466 18.6031 103.126C17.8331 100.886 17.1331 98.5464 16.4231 96.1865C15.9431 94.6065 15.4831 94.6065 14.2932 93.8565C13.4732 93.3366 12.3032 92.3166 11.3032 92.1066C9.78329 96.4465 10.8433 97.5664 10.9633 102.886Z"
        fill="#F6AFCE" />
    <path fill-rule="evenodd" clip-rule="evenodd" id="abia_state_Qb1r8Clkv" class="state-map-path"
        d="M9.55334 78.9569C13.1433 79.7069 15.0632 83.3268 17.7631 79.8569C18.3731 79.0769 18.4131 78.8969 19.0231 78.2969C19.8931 77.4269 22.523 74.157 23.273 73.747L23.983 75.117C24.463 75.797 23.793 75.507 24.283 75.387C24.953 75.757 24.433 75.577 25.343 75.117C25.8629 74.847 26.3429 74.607 27.0029 74.587C28.3229 76.847 25.7329 78.0869 28.5129 78.9669L28.3029 83.3768L29.8128 84.7068C32.1528 84.8768 32.1928 83.2268 33.3028 82.0868C34.8327 80.5069 36.4527 81.0669 37.8626 80.4269C38.4126 80.0869 38.2626 80.1569 38.6326 78.7169C38.7726 78.1769 38.9426 77.277 39.2426 76.797C39.9826 75.597 41.2126 75.587 42.6825 75.127L42.2825 68.1672C41.5226 67.7372 40.2126 67.2572 39.2826 66.7972C38.2426 66.2872 37.0627 65.6572 35.6527 65.7072C32.2428 65.8472 31.0428 69.0372 28.7229 67.0472C26.5629 65.1873 25.9329 69.1872 22.893 65.6272C22.213 64.8373 21.733 63.7673 21.3031 62.5773C20.6731 60.7974 21.1331 61.8573 20.1831 61.3473C19.1331 60.7974 19.9131 60.9674 18.3631 60.7474L17.6431 61.7773C17.0132 62.8873 15.5032 66.2272 14.7232 66.9972C13.5032 68.1972 13.0833 69.3071 12.3933 71.4871L10.5533 76.137C10.1133 77.3669 9.78334 77.5669 9.55334 78.9569Z"
        fill="#F6AFCE" />
    <path fill-rule="evenodd" clip-rule="evenodd" id="abia_state_eoI6uhqyv" class="state-map-path"
        d="M50.4623 34.288C52.2523 34.038 56.6322 33.358 58.0721 33.458C59.1721 33.528 60.1921 34.248 60.7421 35.058C61.2921 35.878 62.022 40.5079 62.202 41.9078C62.322 42.7978 64.472 47.1477 64.892 47.6977C65.212 48.1177 65.542 48.4677 65.9619 48.7377C67.9319 49.9976 67.8319 48.0377 67.9819 47.3377C68.2719 45.9477 70.2418 44.6178 71.6218 44.2778C75.2017 43.3878 73.3018 43.6478 76.3617 42.1978C76.6117 42.0878 76.9917 41.9078 77.1317 41.8178C77.1917 41.7778 77.3617 41.6578 77.4217 41.6178C77.7917 41.3178 77.5317 41.5778 77.8117 41.2078C77.0117 40.6179 77.6117 40.9178 76.2117 41.1178C75.0317 41.2978 71.8918 39.8279 71.7618 39.6279C71.1118 37.4679 70.9218 30.9781 70.1218 29.3981C69.4019 27.9782 68.6119 27.2282 67.3219 26.3682C66.0219 25.4982 64.992 24.5783 63.622 23.9583C63.722 22.4183 63.702 22.1683 61.4421 20.3284C59.9721 19.1284 58.9121 19.5084 56.7922 19.1584C54.9122 18.8484 55.2522 17.6984 53.4923 16.5685C53.0223 16.2585 52.0923 15.9585 51.5223 15.7585C50.3523 15.3485 49.9823 15.6685 49.1724 15.4785C49.4424 17.0784 50.5923 17.9884 51.2523 19.3184C51.8823 20.6084 51.8323 22.6283 52.0123 24.3383C52.3723 27.6582 50.8123 30.9381 50.4623 34.288Z"
        fill="#91D8F7" />
    <path fill-rule="evenodd" clip-rule="evenodd" class="state-map-path" id="abia_state_a3SYCf1z1"
        d="M43.0424 68.0072L43.4024 75.647C42.0825 75.707 40.5425 76.297 39.9225 77.017C39.1825 77.8869 39.1425 79.7169 38.5826 80.7769L38.2126 80.9369C36.2426 81.6268 34.1427 81.4868 33.1027 83.2868C32.5927 84.1768 32.1127 84.7468 30.9627 85.1168C29.5628 85.5767 29.3828 85.0368 28.4128 84.2768C26.8628 86.7367 29.1228 88.3567 30.7628 90.2466C31.3227 90.8966 31.6027 91.3066 32.2527 92.0266C34.1627 94.1765 33.0127 93.2766 37.0226 93.6565C38.7526 93.8165 40.6725 94.0665 42.0825 94.8165C44.4024 96.0265 44.1024 96.1765 46.3324 94.8765C47.8023 94.0265 48.9123 93.7465 49.3323 91.6366C50.0323 88.1167 46.7124 84.5168 44.9924 83.5768C45.9024 81.1469 48.7823 81.8268 44.9524 76.017C45.6424 74.567 46.4624 74.357 46.3924 71.8171C46.3524 70.2071 45.9024 68.5272 45.2324 67.3372L43.0424 68.0072Z"
        fill="#9DD3AF" />
    <path fill-rule="evenodd" clip-rule="evenodd" class="state-map-path" id="abia_state_ZdQpKD7f1"
        d="M47.5923 104.956L47.1624 105.146C45.9924 103.446 46.6624 104.126 46.2124 103.236C46.0424 102.906 46.1324 103.036 45.9324 102.796C44.5824 102.966 33.8327 106.036 33.0627 106.626C33.0727 108.676 34.2127 111.536 33.6727 113.516C33.0527 115.776 30.7528 115.976 29.3628 117.116C32.3527 118.326 35.6126 116.876 37.0126 117.416C38.8326 118.116 41.1425 120.036 43.2824 119.426C46.6524 118.466 47.0724 119.126 50.2323 119.636C51.8222 119.886 57.2521 120.626 58.5021 120.336C58.4021 118.606 55.4821 117.326 54.9522 115.616C54.8022 115.156 54.8122 114.886 54.7322 114.496C54.4422 113.056 54.6522 113.126 52.3222 113.676C51.4922 113.876 50.8123 114.096 50.1323 114.176C48.1723 110.266 50.5723 110.376 50.9323 107.436C50.1923 107.156 49.6823 106.936 49.0223 106.536C48.7723 106.386 48.4223 106.156 48.2023 105.966L47.5923 104.956Z"
        fill="#9DD3AF" />
    <path fill-rule="evenodd" clip-rule="evenodd" id="abia_state_LIdQCSKz5" class="state-map-path"
        d="M20.223 14.9985C20.033 17.9384 20.613 17.9884 19.3831 20.6483C19.813 20.9983 20.293 21.3283 20.823 21.6983C22.933 23.1983 23.173 22.0083 26.3029 22.3183C27.1529 24.0683 28.3228 31.3781 29.0528 32.3881C29.4028 32.858 30.5028 33.178 31.2028 33.498C34.8427 35.128 33.4527 35.048 35.6827 33.768C36.6826 33.198 37.2026 33.498 38.2226 33.078C38.6926 31.9381 38.8526 29.5681 39.0226 28.3082C39.5226 24.4983 38.4026 24.7782 35.2527 20.5783C33.7227 18.5384 34.9927 17.8784 34.4227 15.5885C34.4127 15.5385 31.4128 9.25863 28.0628 11.1586C25.3729 12.6985 26.4829 13.3285 20.223 14.9985Z"
        fill="#9DD3AF" />
    <path fill-rule="evenodd" clip-rule="evenodd" class="state-map-path" id="abia_state_HJaaFd0vx"
        d="M25.183 95.4265C23.703 96.8065 22.503 102.666 22.1331 104.786C24.953 105.516 26.9229 105.586 30.0429 105.816C33.6428 106.076 34.7427 105.466 37.9827 104.486C40.4026 103.756 42.6925 103.186 45.0625 102.466C46.4725 102.036 46.5825 101.686 46.9524 101.346L47.2024 101.116C48.2024 100.266 49.1124 99.8764 48.8424 98.3964C48.7224 97.7464 48.9824 98.7664 48.7424 97.9964C48.3924 96.8665 47.5424 97.2865 44.9425 96.6365C42.2226 95.9465 41.7726 93.9365 33.5428 94.0665C33.7228 97.5364 29.7229 99.2264 25.183 95.4265Z"
        fill="#91D8F7" />
    <path fill-rule="evenodd" clip-rule="evenodd" id="abia_state_C6LS33Bmb" class="state-map-path"
        d="M15.9632 81.8568C16.2332 82.0968 14.6732 81.9268 15.3532 82.0468C14.6932 81.7368 14.3632 81.8468 13.7332 81.6068C13.1333 81.3769 11.8633 80.0169 9.28335 79.3869C8.40337 80.7269 6.96341 82.1568 6.90341 84.1768C6.81341 87.2167 6.63342 88.2267 7.3234 90.9866C12.2033 91.9466 11.3033 90.0666 13.8032 89.1667C14.9432 88.7567 16.0832 89.6766 17.3532 89.4667C18.2531 89.3267 19.4431 88.6067 20.4531 88.2167C20.9131 88.7767 21.1331 88.8467 21.633 89.3767C28.1829 86.5367 27.6629 86.9067 27.8329 79.7569C25.333 77.4469 26.8529 78.1169 26.5829 75.297C26.5529 75.367 26.7829 75.257 26.2529 75.527C26.0329 75.637 25.8929 75.677 25.6229 75.807C25.023 76.087 24.713 76.307 24.203 76.547L23.553 75.707C23.293 75.277 23.323 75.187 23.033 74.777L18.0031 80.3369C16.8932 81.4069 17.7331 81.0769 15.9632 81.8568Z"
        fill="#D2E28B" />
    <path fill-rule="evenodd" clip-rule="evenodd" class="state-map-path" id="abia_state_FtYrNB6bx"
        d="M34.8326 52.1876L35.4126 55.1675C39.5425 54.5375 40.3325 55.6875 41.5025 58.0174C42.6024 60.2174 44.3024 60.6374 46.5124 61.7673C46.3424 62.6973 45.3524 63.1073 44.7924 63.5873L45.6024 65.8572C46.9623 65.3872 48.0823 64.3173 49.9023 64.5173C51.6322 64.7173 52.1322 66.1772 53.1722 66.9072C54.0822 66.6672 55.5221 66.4372 56.2021 65.9572C58.0421 63.5473 54.8821 61.2573 54.4322 60.2874C54.1622 59.6874 53.7222 57.8574 53.4722 57.0275C52.9522 55.3275 53.2722 55.2775 53.5822 53.7075L50.0023 54.3975C49.5823 53.3075 48.4623 51.9476 47.8523 50.9476C46.6823 49.0277 46.5024 49.7876 43.8724 49.9476C42.5625 50.0276 40.0725 49.9776 38.8025 50.4276C38.1726 50.6476 35.1926 51.8976 34.8326 52.1876Z"
        fill="#FDD1A1" />
    <path fill-rule="evenodd" clip-rule="evenodd" id="abia_state_i7EKzoTlZ" class="state-map-path"
        d="M27.9428 58.7174C23.9029 58.4774 21.603 57.0675 20.253 58.2774C19.723 58.7474 19.103 59.5974 18.873 60.1374C21.403 61.5573 20.933 59.4874 22.333 63.1773C24.4729 68.8072 26.3529 65.0473 28.4028 65.9472C29.1828 66.2872 29.6628 67.0172 30.5528 66.7372C30.9427 66.6072 32.2527 65.8472 32.7227 65.6472C33.6027 65.2872 34.4527 65.1273 35.1926 64.8473C35.5926 64.8673 35.6926 64.7273 37.1926 65.1473C38.1526 65.4372 39.9325 66.1872 41.0025 66.7172C43.1124 67.7672 42.6925 67.4572 44.8724 66.5872C44.8324 65.6172 44.3224 64.7373 44.2524 63.9773C44.1724 63.1473 45.0924 62.7173 45.5524 61.9973C44.5224 61.2073 42.2525 60.5374 41.4625 59.4674C39.0525 56.1875 40.7625 54.8275 32.7127 56.7275C28.8628 57.6374 28.8128 57.3274 27.9428 58.7174Z"
        fill="#91D8F7" />
    <path fill-rule="evenodd" clip-rule="evenodd" class="state-map-path" id="abia_state_nbVmrwhon"
        d="M35.6526 42.8178C35.3126 40.2879 35.7526 41.6078 35.5626 39.9179C35.5226 39.1479 35.1626 38.5179 34.5327 37.1779C33.5427 35.088 33.2527 35.108 29.7228 33.598C27.4228 32.6081 23.8229 32.848 21.183 32.6081C18.743 32.3881 19.803 32.1281 17.3031 33.628C16.4831 34.108 15.1331 34.778 15.7831 36.078C16.8831 38.2879 19.123 37.2079 19.453 40.7679C19.653 42.8878 20.173 42.5978 22.343 44.2478L23.6929 45.2177C24.0929 45.5077 24.4829 45.8477 24.8829 46.1377C26.2029 47.1177 26.5728 46.6577 29.6428 45.4377L33.8627 43.3478C34.7126 43.0578 34.9726 43.2278 35.6526 42.8178Z"
        fill="#91D8F7" />
    <path fill-rule="evenodd" clip-rule="evenodd" class="state-map-path" id="abia_state_HGkWns67J"
        d="M20.6431 56.9975C31.1328 58.6574 25.253 58.0074 29.4728 56.9975C30.4128 56.7775 31.3128 56.5675 32.2728 56.3275L32.4628 56.2275L34.7127 55.6675L34.0727 51.6176C35.1427 51.2976 39.3426 49.9276 39.8026 48.8777C40.9326 46.2877 38.2326 44.6578 36.3427 44.2578L36.1127 44.1278C34.8927 43.6378 34.7327 43.5178 33.5127 44.2178C32.6128 44.7378 31.8628 45.1777 31.1128 45.5677C28.5029 46.9577 27.4129 46.6077 24.703 48.4777C24.673 48.5077 24.613 48.5477 24.573 48.5777C24.533 48.6077 24.483 48.6477 24.443 48.6677L24.163 48.8577C24.093 48.9077 23.633 49.1976 23.593 49.2276L21.2931 50.6876C19.8331 51.3776 20.2331 51.6376 20.3431 53.3075C20.4331 54.5275 20.4831 55.7875 20.6431 56.9975Z"
        fill="#9DD3AF" />
    <path fill-rule="evenodd" clip-rule="evenodd" id="abia_state_ezfKhjSFV" class="state-map-path"
        d="M12.0432 91.2066C12.5532 92.0266 12.5932 91.7266 13.6232 92.4366C18.1531 95.5865 16.3731 93.9165 17.3331 97.3865C18.0131 99.8664 19.113 104.906 21.163 105.096C21.653 104.506 21.873 103.286 22.023 102.596L23.3129 97.3265C23.5929 96.4065 24.2029 95.8365 24.4529 94.9365C22.153 93.4265 21.193 95.1065 21.393 89.9966L20.263 89.1267C18.1831 89.5766 18.3531 90.4866 15.9531 89.8966C13.9532 89.4066 13.4232 89.8266 12.0432 91.2066Z"
        fill="#9DD3AF" />
    <path fill-rule="evenodd" clip-rule="evenodd" id="abia_state_apGGxtWun" class="state-map-path"
        d="M51.1622 21.3083C51.0022 19.5584 50.0723 18.5184 49.3223 17.2584C49.1023 16.8884 49.1223 16.8584 48.7723 16.3885L48.1323 15.8185C46.2924 15.0285 37.5426 15.4285 35.1326 15.6685C34.8626 19.3284 34.9026 19.6384 36.9626 21.6283L39.4225 25.0682C40.0325 25.9282 39.9425 25.5682 39.8425 26.6882L39.1025 32.0681C38.6325 35.688 37.0826 33.028 34.7126 35.608C35.4126 39.1679 37.3326 37.7779 36.4926 43.6778C37.7226 43.9578 39.0925 44.6678 39.7925 45.4777C40.9725 46.8377 40.6425 47.6477 40.2925 49.4876L47.6723 49.1276C48.4923 50.3576 49.7523 52.1076 50.2923 53.6675L54.5222 52.9676L54.4522 54.5475C55.2821 54.2975 55.2821 54.1175 56.0221 53.8575L56.0321 50.3176L49.4123 43.5678C48.4123 41.8878 46.7024 39.8279 49.7323 38.2479C51.8622 37.1379 49.9123 36.018 49.7323 35.088C49.5423 34.128 51.2522 27.8982 51.4722 26.2082C51.5422 25.6582 51.3022 21.7583 51.1622 21.3083Z"
        fill="#F6AFCE" />
    <path fill-rule="evenodd" clip-rule="evenodd" class="state-map-path" id="abia_state_ruQ0w3KbS"
        d="M25.373 94.3965C25.863 95.2565 25.273 95.0665 26.9529 96.1565C27.7329 96.6665 28.3429 96.8465 29.3429 97.0065C30.8328 97.2565 33.2428 96.2365 32.9528 94.8165C32.9228 94.6865 28.4129 87.8967 27.2429 87.2667C26.7629 87.5067 22.443 89.8366 22.213 90.1466C21.5331 91.0366 21.5231 94.2665 25.373 94.3965Z"
        fill="#F6AFCE" />
</svg>