<svg viewBox="0 0 972 1470" fill="none" xmlns="http://www.w3.org/2000/svg">
    <path fill-rule="evenodd" clip-rule="evenodd" class="state-map-path" id="adamawa_state_YRXK7VpFJ"
        d="M3 1200C3 1201 6 1213 0 1207C0 1215 46 1286 55 1293C59 1295 57 1296 59 1299C69 1299 67 1291 68 1287L75 1276C77 1273 76 1276 76 1273C77 1269 76 1270 77 1267C79 1264 78 1267 79 1264C79 1263 79 1261 79 1260C86 1258 81 1260 84 1255C97 1254 97 1255 105 1258L108 1259C112 1262 115 1263 119 1267C200 1347 162 1341 177 1421C178 1423 178 1428 178 1430C200 1451 206 1485 223 1462C255 1418 252 1436 285 1415C284 1410 281 1412 281 1407C280 1403 281 1398 281 1394C280 1389 278 1390 278 1383C279 1293 370 1238 360 1210C346 1172 378 1163 376 1115C372 1115 370 1116 367 1118H366L362 1120C361 1121 362 1122 358 1122L344 1117C337 1115 341 1113 332 1118C327 1121 324 1119 323 1126C321 1126 321 1126 320 1126L316 1128C316 1128 316 1128 315 1128C307 1133 304 1132 294 1132C289 1132 280 1133 277 1132C277 1132 277 1132 276 1132L265 1126C259 1125 264 1124 258 1124C252 1123 255 1124 251 1121L226 1110C226 1109 226 1109 226 1109L221 1107C218 1106 217 1107 213 1105L210 1103C207 1102 206 1102 199 1099L195 1097C194 1097 194 1097 193 1096L187 1093C178 1091 184 1089 177 1089C173 1089 173 1090 170 1087C164 1082 152 1078 145 1074H144C142 1073 144 1074 142 1073L141 1072C137 1070 119 1061 117 1059C104 1092 3 1191 3 1200Z"
        fill="#F6AFCE" />
    <path fill-rule="evenodd" clip-rule="evenodd" class="state-map-path" id="adamawa_state_aFhqRuzWl"
        d="M305 796C296 796 291 796 295 786C298 778 291 777 295 769L296 764C297 762 297 763 298 760L302 747V746C304 741 302 741 305 735C306 733 309 730 311 729C309 728 309 729 308 728C306 727 306 727 304 726C300 726 302 727 299 726L297 725C295 724 292 725 289 724L286 722C283 722 277 722 274 722L268 723C266 724 263 723 259 725C255 728 253 728 249 728H215C194 728 204 726 196 726C183 726 165 726 152 726C150 729 150 728 150 730C149 732 150 735 150 737C149 743 146 740 147 748C148 752 154 763 157 766C172 786 214 801 215 802L217 805C219 807 218 806 219 808L224 817L230 829C230 833 232 832 232 839C232 846 234 843 234 853C234 860 230 863 227 868C214 895 196 932 183 956C181 959 182 957 182 966C182 972 189 981 189 987C191 985 198 963 217 953C219 952 222 947 225 946L228 944C234 940 234 936 237 933C260 909 334 854 360 859C362 856 350 836 350 832C350 829 349 827 348 823L347 821L344 816V809L339 798C339 798 336 791 334 790C330 789 311 796 305 796Z"
        fill="#F6AFCE" />
    <path fill-rule="evenodd" clip-rule="evenodd" class="state-map-path" id="adamawa_state_TzeKN78a1"
        d="M531.001 643C527.001 646 531.001 644 528.001 648L524.001 654C519.001 662 518.001 655 519.001 671C519.001 672 519.001 673 519.001 673C519.001 676 522.001 679 523.001 682C523.001 684 523.001 688 523.001 691C524.001 695 525.001 690 525.001 698C525.001 704 525.001 711 525.001 717C525.001 724 526.001 719 527.001 723C528.001 726 527.001 730 527.001 732L524.001 739C524.001 740 522.001 741 521.001 743L520.001 748C518.001 751 518.001 756 516.001 758C512.001 760 514.001 758 511.001 761C503.001 768 504.001 765 492.001 765C482.001 766 485.001 763 479.001 763C474.001 763 468.001 763 463.001 763C458.001 763 459.001 763 456.001 762L452.001 760C446.001 757 447.001 756 443.001 752C436.001 746 439.001 753 433.001 742C432.001 739 430.001 738 428.001 735L419.001 728C417.001 725 416.001 722 415.001 719L412.001 715C410.001 712 412.001 713 410.001 711L406.001 705C406.001 704 405.001 704 405.001 703C410.001 679 380.001 692 376.001 696C373.001 699 372.001 697 366.001 701C359.001 704 355.001 713 348.001 716C344.001 718 347.001 718 341.001 720C336.001 721 338.001 722 333.001 724C331.001 725 333.001 724 330.001 727C328.001 728 321.001 733 318.001 733C314.001 733 318.001 732 314.001 731C307.001 731 306.001 745 306.001 746L303.001 753C302.001 756 302.001 754 302.001 756C301.001 758 301.001 758 301.001 760C301.001 765 297.001 769 297.001 773C297.001 780 300.001 776 299.001 783C299.001 790 296.001 784 297.001 792C300.001 793 303.001 793 305.001 793C312.001 793 316.001 790 320.001 788C321.001 788 322.001 788 322.001 788C323.001 788 324.001 788 325.001 788C325.001 788 325.001 787 326.001 787H328.001C329.001 787 329.001 787 330.001 787C334.001 785 338.001 788 340.001 792C349.001 810 357.001 855 373.001 862H404.001C438.001 858 491.001 837 524.001 828L547.001 819C549.001 818 551.001 817 554.001 816L566.001 810L605.001 790C608.001 789 605.001 789 609.001 788C611.001 788 610.001 788 613.001 787C617.001 786 620.001 784 626.001 784L628.001 778C628.001 777 628.001 776 628.001 775C629.001 771 630.001 732 630.001 731C629.001 723 631.001 723 632.001 721C635.001 715 643.001 688 643.001 683C644.001 680 643.001 674 643.001 670C640.001 668 638.001 665 636.001 663C631.001 659 633.001 663 623.001 653C621.001 650 621.001 647 622.001 642L627.001 637C631.001 635 634.001 634 638.001 633C663.001 622 661.001 613 681.001 602H683.001C686.001 600 689.001 596 692.001 595C698.001 591 706.001 586 712.001 586C717.001 586 723.001 587 728.001 586C732.001 585 728.001 586 732.001 584C735.001 586 732.001 586 736.001 586C741.001 586 737.001 585 741.001 584C743.001 584 744.001 584 747.001 584C752.001 584 748.001 584 751.001 582C750.001 578 750.001 579 747.001 578L744.001 577C744.001 576 742.001 575 742.001 575C736.001 572 713.001 560 707.001 559L704.001 558C696.001 555 690.001 555 687.001 554C684.001 552 682.001 552 675.001 549C652.001 542 622.001 529 602.001 512C597.001 509 595.001 509 591.001 505C589.001 503 588.001 502 586.001 501C581.001 498 577.001 493 573.001 490C573.001 494 573.001 498 573.001 502C573.001 509 571.001 504 571.001 512C571.001 516 571.001 522 570.001 525C569.001 529 569.001 523 568.001 529L567.001 536C566.001 540 566.001 540 563.001 543C561.001 545 561.001 549 559.001 552C559.001 553 557.001 554 556.001 555L546.001 565C543.001 568 540.001 571 538.001 575L536.001 579C534.001 581 533.001 583 531.001 584C530.001 586 527.001 594 527.001 596V615C527.001 621 527.001 617 529.001 620C530.001 622 529.001 623 529.001 626C529.001 630 529.001 635 529.001 639C530.001 643 530.001 638 531.001 643Z"
        fill="#9DD3AF" />
    <path fill-rule="evenodd" clip-rule="evenodd" class="state-map-path" id="adamawa_state_InG3FthhJ"
        d="M616.001 385C595.001 383 591.001 379 577.001 375C566.001 368 433.001 371 407.001 371C396.001 373 390.001 376 376.001 376C368.001 380 365.001 421 362.001 449C361.001 452 359.001 450 358.001 458C357.001 464 356.001 458 356.001 464C355.001 466 356.001 468 356.001 469C355.001 474 351.001 475 356.001 485C356.001 485 356.001 485 356.001 486L361.001 497C361.001 498 364.001 500 365.001 501C368.001 505 365.001 504 368.001 507C373.001 512 374.001 519 378.001 523C381.001 526 381.001 526 382.001 529L388.001 543C391.001 549 390.001 548 388.001 553C387.001 555 387.001 554 387.001 555C386.001 556 386.001 556 386.001 557L384.001 570C384.001 575 384.001 571 385.001 574C387.001 577 386.001 580 387.001 584C390.001 584 392.001 583 396.001 582L402.001 580C405.001 579 403.001 580 405.001 578L410.001 574C417.001 570 416.001 569 419.001 567C422.001 565 422.001 563 424.001 561L440.001 554C440.001 553 440.001 553 440.001 553L447.001 551C447.001 551 447.001 551 448.001 551C448.001 551 448.001 550 449.001 550C451.001 549 451.001 549 454.001 549C462.001 549 457.001 548 462.001 547C465.001 547 465.001 548 466.001 548C468.001 549 472.001 549 477.001 552C482.001 556 489.001 566 489.001 566L493.001 568C496.001 570 496.001 571 499.001 571C503.001 571 502.001 570 504.001 569L517.001 563C521.001 561 522.001 558 525.001 556L543.001 548C543.001 547 544.001 547 544.001 547L545.001 546C546.001 546 546.001 546 546.001 546C553.001 543 557.001 548 562.001 541C563.001 540 562.001 541 563.001 539C563.001 538 563.001 538 563.001 537C564.001 532 565.001 534 565.001 529C566.001 523 568.001 527 567.001 515C567.001 502 570.001 511 570.001 497C570.001 493 569.001 490 570.001 487C576.001 486 578.001 491 582.001 494C585.001 497 583.001 496 586.001 497C590.001 499 591.001 502 593.001 504C601.001 511 678.001 551 691.001 552C695.001 552 695.001 551 698.001 552C698.001 552 698.001 553 699.001 553L708.001 556C713.001 557 711.001 558 715.001 560C717.001 561 716.001 559 718.001 561C724.001 556 722.001 548 722.001 537C722.001 485 708.001 460 709.001 438C709.001 424 700.001 388 708.001 377C705.001 377 704.001 376 701.001 377L695.001 379C695.001 380 695.001 380 695.001 380L692.001 381C690.001 381 691.001 381 689.001 381L685.001 384C680.001 386 675.001 387 668.001 391C667.001 392 668.001 391 666.001 392C664.001 393 664.001 393 663.001 393L652.001 400C646.001 406 640.001 402 634.001 399L629.001 397C629.001 396 628.001 396 628.001 396C624.001 394 620.001 392 618.001 389C617.001 387 618.001 388 617.001 387L616.001 385Z"
        fill="#91D8F7" />
    <path fill-rule="evenodd" clip-rule="evenodd" class="state-map-path" id="adamawa_state_WTpG86kGc"
        d="M413 874C411 875 409 877 408 879C405 882 407 881 405 885C391 885 397 880 387 876L377 870C367 865 372 863 360 863C345 862 332 872 320 878C319 878 318 879 317 879L312 882C310 883 309 884 307 884C302 886 306 884 302 888C299 890 300 888 297 890C295 892 295 892 293 894C289 898 280 901 276 904C274 907 273 906 270 909C264 914 257 917 254 924C251 929 244 932 243 937C244 938 245 938 246 938C251 939 247 939 252 940C255 941 253 940 256 941L262 944C265 946 266 948 269 950C271 950 270 950 271 950C272 951 272 951 272 952C275 954 277 956 278 959L281 965C282 967 282 971 282 975C282 978 280 979 279 981L278 983C264 1010 253 1011 276 1025C279 1028 280 1029 285 1031C289 1033 291 1034 296 1033C300 1028 372 1014 377 1014C381 1014 383 1016 385 1018L390 1027C414 1018 395 1023 415 1023C472 1023 438 958 464 957C478 938 496 959 511 960C556 943 554 950 566 912L567 905C568 895 575 901 577 901C620 912 595 867 598 859C611 840 596 843 605 829C608 828 611 826 611 822C595 820 593 833 588 846C586 849 585 848 582 850C578 854 578 851 574 854C573 854 573 854 572 855H571C568 857 564 857 561 859L556 862C524 880 514 886 477 894C474 894 476 894 474 895L461 902C457 903 456 902 453 900L448 898C444 896 444 894 441 893L435 891C432 890 433 889 429 887C424 884 419 875 413 874Z"
        fill="#91D8F7" />
    <path fill-rule="evenodd" clip-rule="evenodd" class="state-map-path" id="adamawa_state_ok3N5ux1x"
        d="M553 185C552 189 551 192 549 195C546 198 548 202 544 204C539 207 535 202 533 199C529 202 528 200 523 201V208C524 208 525 209 525 210H526L530 215C534 221 538 220 542 224C544 227 548 230 549 233C552 238 555 240 556 245C560 246 560 246 562 249C567 253 568 255 570 260L575 267C577 271 578 272 581 277C583 282 587 283 591 291L594 296C594 296 594 296 594 297V298L596 301C598 304 596 302 599 305L604 313L605 316C607 320 604 327 606 332L619 364C621 362 622 364 626 360C629 357 630 357 633 355L665 335C668 333 669 331 672 330L675 329C675 328 675 328 675 328L680 326L711 309C712 309 712 309 712 309L724 303C725 302 726 302 727 302C732 299 734 297 741 297L745 285C746 285 746 284 746 283L750 277C750 276 750 276 750 276L753 269C755 265 756 260 758 256C759 253 760 247 761 244L762 242C763 240 763 240 763 238L765 236V235L769 229L774 222C774 220 774 216 774 214C774 211 777 208 772 207C765 206 759 213 750 208L741 203C739 203 737 203 734 203C730 203 727 200 722 198L712 195C677 182 696 149 608 149C601 149 604 146 596 146C589 146 592 146 588 144C584 146 587 145 585 146C574 150 557 174 553 185Z"
        fill="#9DD3AF" />
    <path fill-rule="evenodd" clip-rule="evenodd" class="state-map-path" id="adamawa_state_hQFYS8Q0O"
        d="M198 980C197 982 197 980 196 982C175 1014 127 1039 124 1046C123 1048 124 1047 123 1050C122 1051 123 1051 122 1052C121 1054 123 1051 122 1053C121 1055 121 1055 119 1057C122 1058 123 1059 126 1060C128 1061 127 1060 127 1061C128 1061 128 1061 128 1061L131 1063C132 1063 132 1063 133 1064L141 1069H142L170 1084C174 1088 178 1084 182 1088C184 1090 189 1091 193 1093C197 1095 201 1097 206 1099L215 1102C219 1104 220 1102 224 1104C224 1104 224 1104 224 1105C231 1109 241 1110 245 1113C250 1117 249 1115 253 1119C253 1120 254 1120 255 1120C256 1121 257 1120 259 1121L278 1129C283 1131 292 1129 298 1129C307 1129 304 1129 311 1127C315 1126 318 1124 321 1121C326 1116 326 1117 332 1114H334C334 1113 334 1113 335 1113C340 1110 341 1113 346 1114L354 1117C357 1118 355 1120 364 1116L374 1111C374 1105 372 1105 372 1099C372 1086 371 1092 370 1087C369 1085 370 1083 369 1081C369 1079 368 1077 367 1075L363 1065C362 1061 363 1056 364 1053C366 1050 365 1051 365 1048L369 1038C376 1030 376 1033 385 1031C386 1026 384 1024 382 1020C381 1019 381 1018 380 1018C368 1017 320 1028 306 1032L297 1036C293 1038 290 1037 287 1035L272 1026C246 1014 268 995 270 990C271 987 270 989 272 987L278 976C281 968 275 956 267 952L255 945C255 944 255 944 254 944L248 942C244 940 238 941 235 944C224 955 203 967 198 980Z"
        fill="#9DD3AF" />
    <path fill-rule="evenodd" clip-rule="evenodd" class="state-map-path" id="adamawa_state_iYItael3X"
        d="M304 536C303 541 305 547 303 552C299 560 297 567 297 575C297 599 295 587 295 596C295 600 295 603 294 606C293 609 293 605 293 610C292 613 293 614 292 617C291 618 291 617 290 618C282 622 283 624 277 624C275 624 271 624 269 624C266 625 263 629 256 626C253 625 256 624 251 624C247 624 236 623 232 624C227 625 230 626 223 626C218 627 219 627 217 629C212 633 209 628 202 642L198 648C194 652 196 650 195 654C194 656 195 655 194 656L191 662C190 665 189 666 186 668C184 671 185 671 183 673C182 676 183 673 182 676C181 679 181 680 180 682L177 686C177 687 177 687 177 687H176C174 692 171 694 168 697C166 700 168 699 165 702C165 703 163 705 162 706C156 712 156 714 148 716C148 719 149 722 150 725C153 722 166 723 170 723C177 723 185 723 192 723C205 723 197 725 210 725C218 725 250 727 255 724L260 722C263 720 262 721 265 721C270 720 266 720 269 719C275 717 284 718 289 720C292 722 295 720 298 721C303 724 300 723 308 723L313 716C315 714 317 712 319 710C326 703 325 708 329 701C331 697 331 699 334 692L337 687C337 686 337 686 338 685L339 683C342 677 343 679 347 676C357 666 357 662 361 659L377 649C380 648 383 645 385 642L397 619C398 618 399 617 400 616L398 614H397L389 610C386 607 388 608 386 605C385 602 383 603 381 602C381 598 380 594 381 590C382 586 384 582 382 576C382 575 382 575 382 575C380 569 380 562 383 556L387 548C386 545 387 548 386 546L383 540C383 539 382 538 382 538C382 537 382 537 382 537L378 527C373 527 376 528 369 529C362 529 365 531 356 531H354H352V532C349 533 346 533 343 533C337 533 315 532 310 534C310 534 310 534 309 534L308 535C306 535 306 535 304 536Z"
        fill="#D2E28B" />
    <path fill-rule="evenodd" clip-rule="evenodd" class="state-map-path" id="adamawa_state_Sq4hfjonM"
        d="M440 255C432 255 415 254 408 255C407 262 408 259 409 262C415 276 402 296 395 308C395 309 395 309 394 310C392 314 391 314 390 317C390 320 390 318 389 320C389 321 389 321 389 321C386 326 376 366 376 371C390 372 398 367 409 367C459 367 508 361 569 368C576 368 583 372 590 376C594 379 606 381 613 378C618 376 614 360 612 354L610 351V350L603 332C600 327 605 323 600 313L599 312C598 309 599 309 596 306L588 292V291C584 284 581 284 578 278C576 274 577 274 574 271C571 268 573 269 571 266L569 264C567 262 568 263 567 261C567 260 566 257 565 256C561 249 555 250 552 244C552 243 550 238 549 238L545 232C544 229 541 227 539 225C533 222 525 215 521 210C520 208 520 207 519 205V203C516 203 510 210 508 212C507 215 509 216 507 219C497 243 467 255 440 255Z"
        fill="#F6AFCE" />
    <path fill-rule="evenodd" clip-rule="evenodd" class="state-map-path" id="adamawa_state_nNujFwEhS"
        d="M103 550C101 551 98 550 97 550C78 550 47 546 41 568L39 572C38 573 38 574 37 575C54 588 58 638 94 630C101 628 111 622 118 618C159 595 176 587 224 593C227 593 227 592 230 594C233 597 235 599 240 599C247 600 249 596 255 592C255 587 254 581 255 576C256 572 256 575 256 572C258 567 257 552 257 545C257 540 256 542 254 539V537C252 535 250 534 247 532C246 532 245 531 244 530C239 525 241 528 236 526C233 525 239 527 235 525C232 524 229 524 225 523L216 519C213 517 216 519 212 518C206 516 171 509 165 509C163 512 160 514 157 516C155 520 113 547 103 550Z"
        fill="#9DD3AF" />
    <path fill-rule="evenodd" clip-rule="evenodd" class="state-map-path" id="adamawa_state_isN5cpzBh"
        d="M714 447C723 491 719 469 725 525C724 533 727 553 724 559L723 560V561C725 565 725 563 729 565C731 565 733 568 738 570L751 577C760 583 754 583 762 580C765 579 766 580 768 578C776 571 771 576 778 571C779 554 780 573 780 543C780 505 801 495 782 458L776 449C766 430 795 410 790 401C786 392 787 371 801 364H802L797 361L790 357C787 356 788 355 784 355C782 355 780 355 778 355C773 353 773 350 770 348C763 344 755 335 749 329L741 316C737 319 736 325 734 329C731 337 729 345 724 352L719 361C718 362 719 361 718 362C717 364 718 362 716 364C712 369 716 366 711 378C709 382 712 375 711 379C704 395 711 431 714 447Z"
        fill="#D2E28B" />
    <path fill-rule="evenodd" clip-rule="evenodd" class="state-map-path" id="adamawa_state_ULtFoVh0J"
        d="M384 590C384 602 386 598 390 606C391 607 391 607 392 608L395 609C395 609 395 609 395 610H396C400 612 402 614 404 617C405 621 409 623 411 626L413 629C416 635 423 637 425 645L428 653C430 657 448 674 453 678L458 683C459 684 459 684 459 684L475 697L481 703L487 709C491 711 498 710 502 710C506 710 507 709 512 707L515 706C522 704 522 705 522 697C522 692 520 695 520 684C520 679 516 678 515 674C515 671 515 661 516 659C516 658 518 657 519 655L528 642C524 639 526 633 526 625C526 622 526 623 526 621C525 619 524 620 524 616C524 611 523 597 524 593C525 589 525 592 526 588C527 584 530 582 535 574C535 573 535 573 536 572C536 571 537 570 538 569L552 555C555 553 556 552 556 548C551 548 548 548 543 551L539 553C538 553 538 553 538 554L528 558C520 562 526 561 513 568L504 573C502 574 501 575 497 574L490 570C483 567 488 567 480 559C477 556 476 555 473 554C473 554 472 554 472 553H471L467 552C461 550 465 549 459 552C456 553 454 552 451 553C447 554 451 554 446 555C442 556 440 557 437 559C436 559 435 559 434 560L428 563C426 564 427 563 426 564C424 566 425 568 421 570C416 572 416 574 411 577C405 580 409 582 395 585C390 586 395 586 390 587C385 588 387 587 384 590Z"
        fill="#F6AFCE" />
    <path fill-rule="evenodd" clip-rule="evenodd" class="state-map-path" id="adamawa_state_oW4X1tzos"
        d="M911 117L908 116C905 114 904 112 901 110L893 104C885 99 884 95 877 92C875 91 877 91 875 90L872 89L865 87V86L850 75C848 74 849 74 848 74L839 70C835 68 838 69 832 68C825 68 831 67 826 66C820 71 825 74 822 81C815 97 802 120 793 137C790 145 794 141 788 147C788 150 788 155 788 157L786 163C784 171 780 174 782 184C785 185 787 184 790 184C797 185 791 186 798 187C804 187 810 185 816 188C831 194 831 188 842 193L851 199H852L854 200C865 206 857 204 870 211C871 211 871 211 871 211L889 219C890 219 890 219 891 220C893 221 895 221 899 221C902 218 899 220 902 219C900 189 902 195 916 176C918 173 902 148 911 117Z"
        fill="#9DD3AF" />
    <path fill-rule="evenodd" clip-rule="evenodd" class="state-map-path" id="adamawa_state_KY8ZHA12X"
        d="M260 545C260 551 261 568 259 573C258 576 259 572 258 576C258 578 258 583 258 585C258 595 258 592 253 598L248 601C244 603 238 603 235 601C232 599 230 599 228 596C173 594 175 592 116 623C113 624 111 624 109 626C106 629 104 629 100 630C97 632 98 632 94 633C91 634 93 632 90 634C86 638 86 636 82 638C88 643 88 639 95 642C97 643 101 642 103 643C108 644 133 684 134 692C135 696 134 694 136 697C138 700 141 703 143 706C144 708 143 706 145 709C151 717 157 708 161 703L163 700C164 698 163 699 165 697C166 695 169 693 170 692C173 689 171 691 172 689C180 672 192 657 199 641C201 636 205 633 208 629C211 627 212 628 215 627C219 625 216 623 223 623C234 623 222 621 240 621C260 621 250 621 258 623C265 625 265 621 273 621C283 621 278 621 284 617C291 613 288 616 290 608C290 604 291 608 292 603C292 601 291 598 291 596C292 589 294 592 294 584C294 578 292 570 295 565L299 552C301 548 300 541 300 535C297 535 293 535 290 536C287 538 279 538 275 537C273 536 275 536 270 535C263 535 269 533 254 533L258 538C259 541 260 541 260 545Z"
        fill="#91D8F7" />
    <path fill-rule="evenodd" clip-rule="evenodd" class="state-map-path" id="adamawa_state_YH4SpxLrG"
        d="M829 3.00005V50C829 56 829 53 826 59C825 62 826 57 825 62L828 64C835 67 830 62.0001 841 68.0001C847 71.0001 843 68.0001 849 71.0001C858 75.0001 856 77.0001 862 81.0001V82.0001L864 83.0001C871 86.0001 868 83.0001 873 86.0001C879 89.0001 879 90.0001 885 92.0001C886 99.0001 890 98.0001 895 101L898 104C902 106 900 105 905 110C909 113 907 112 911 113C911 114 913 115 913 115C915 110 925 104 928 99.0001C931 93.0001 929 97.0001 931 95.0001L933 93.0001C934 91.0001 934 91.0001 934 90.0001C936 85.0001 937 82.0001 937 77.0001C936 59.0001 958 44.0001 964 30.0001C969 24.0001 965 29.0001 970 19.0001V17.0001C974 10.0001 970 13.0001 966 11.0001C935 -0.999949 901 12.0001 870 12.0001C866 12.0001 860 10.0001 857 9.00005C843 2.00005 852 7.00005 845 5.00005C844 4.00005 843 4.00005 842 3.00005C833 -0.999949 833 2.00005 829 3.00005Z"
        fill="#F6AFCE" />
    <path fill-rule="evenodd" clip-rule="evenodd" class="state-map-path" id="adamawa_state_VVwpDIX23"
        d="M777 215C776 224 779 220 774 226C772 229 774 227 772 230C771 231 770 233 769 234L767 238L764 250C761 252 762 252 760 258C759 260 760 260 759 261C757 271 754 273 750 282L746 291C745 293 745 291 745 295C759 284 776 284 776 284C783 284 778 283 783 282C786 282 791 283 794 282C835 278 860 289 879 285C879 281 882 276 882 274L889 265C889 238 893 249 893 225C892 224 892 224 891 223C891 223 891 223 890 223L881 218C880 218 880 218 878 218L875 216C874 216 874 216 873 215C861 210 861 207 857 205C850 201 850 202 844 198C839 195 835 194 830 194C825 194 823 193 818 192C814 191 817 191 814 190C809 188 802 191 796 190C791 189 796 188 789 188C786 188 782 188 779 188C779 197 778 207 777 215Z"
        fill="#F6AFCE" />
    <path fill-rule="evenodd" clip-rule="evenodd" class="state-map-path" id="adamawa_state_ojidQSRLM"
        d="M318 730L331 722C333 720 332 722 335 720C337 719 337 718 338 717L351 711C357 705 361 699 368 696C371 694 371 695 374 694C389 687 409 675 409 704C409 705 411 708 411 709L416 715C419 720 421 720 424 726L434 738C437 740 437 745 440 747L455 758C457 759 457 759 460 760C466 761 476 758 483 761C486 762 481 762 487 762H506C507 761 509 759 511 757C514 754 514 753 516 749C517 746 516 749 518 744C518 740 519 740 522 738L521 727V723L522 716C522 713 522 710 522 708L513 711C502 714 508 713 493 713C489 713 490 714 487 712L486 711C482 709 474 701 473 701C473 705 474 707 471 710C469 712 470 710 467 712C462 715 460 712 455 715C450 717 451 714 442 713C435 713 439 711 434 711C430 711 423 710 420 708L415 704C413 703 411 697 411 695C412 692 414 690 417 688C421 685 423 681 427 678C429 677 427 678 429 677L441 672C441 669 441 670 439 668C435 663 428 659 425 654C422 650 422 646 420 642L419 641C417 636 411 633 409 629C408 626 409 628 407 625C405 623 403 620 400 620L394 632C394 633 394 633 394 633C394 633 393 633 393 634C392 637 388 641 387 644C384 650 386 646 382 649L370 657C368 658 370 656 368 658C367 659 367 660 365 661C357 665 363 664 355 671C353 674 349 678 346 680C341 683 344 681 340 688C340 689 339 689 339 689C337 694 336 695 333 700L331 704C328 708 324 709 320 712C319 714 319 714 317 716C315 718 312 719 312 723C311 727 311 726 314 727C314 728 316 728 316 728C318 729 315 728 318 730Z"
        fill="#D2D3D5" />
    <path fill-rule="evenodd" clip-rule="evenodd" class="state-map-path" id="adamawa_state_NhiXNPihb"
        d="M401 866H380C380 870 382 870 386 872C392 875 396 881 399 881C407 881 406 871 418 871C420 874 418 873 421 877C430 886 426 881 431 885C437 889 436 887 442 890C443 891 443 890 444 891C444 891 445 892 447 893V894L453 897C456 898 457 900 460 899L480 890C519 886 549 857 566 854C570 853 571 852 574 850C576 849 574 850 576 849C580 848 580 849 583 846C584 845 584 845 585 844L589 838C590 834 588 836 593 827C597 818 602 818 613 819C613 812 614 808 619 804C621 801 622 801 622 796C622 791 621 790 623 787L607 793C598 797 598 795 586 801C585 802 584 802 583 803L572 811C571 812 568 812 566 813L553 820C551 821 552 820 550 821C536 829 491 844 478 848C476 848 475 848 473 848C469 849 473 848 470 850L459 852C457 852 455 852 454 852C449 853 454 854 446 855C440 855 445 856 440 857L432 859C430 859 429 859 428 859C423 860 427 859 425 860C421 862 420 860 417 862C414 863 412 863 409 864C405 865 408 866 401 866Z"
        fill="#D2E28B" />
    <path fill-rule="evenodd" clip-rule="evenodd" class="state-map-path" id="adamawa_state_FBbETicsy"
        d="M214 473C210 477 211 471 210 478C203 480 209 479 196 486C184 491 189 492 181 496L175 500C173 501 174 498 173 502C173 504 174 503 177 505L184 507C187 509 188 508 192 508C210 511 213 516 234 521C237 522 234 522 237 523H240C245 525 245 528 249 530C253 530 258 529 262 530C268 530 265 531 268 531C270 532 271 532 274 532C275 533 276 535 286 534C295 533 281 533 298 532C293 526 297 531 287 527C285 526 284 525 283 522L282 521C279 516 278 517 276 510C275 503 273 480 272 472C271 458 270 474 270 454C270 449 271 438 270 433L267 426C265 425 263 423 261 421C260 397 270 388 270 379C264 374 266 377 254 377C247 376 232 372 224 370C217 369 224 367 208 368C207 374 208 372 210 375C212 379 212 418 212 421C212 425 211 422 210 426C203 450 215 473 214 473Z"
        fill="#F6AFCE" />
    <path fill-rule="evenodd" clip-rule="evenodd" class="state-map-path" id="adamawa_state_VMWEWHyZo"
        d="M742 301C742 305 743 309 741 312L743 313C745 315 743 313 745 315L747 320C750 326 751 325 753 329C756 333 761 337 764 340L767 342C767 343 765 341 773 347C778 352 777 351 784 352C788 352 787 352 790 354L797 358C798 358 799 358 800 359C803 360 799 360 803 360C805 358 804 359 805 356C806 355 806 356 807 354C808 353 807 354 808 352L819 338C829 330 865 344 878 307V295C870 285 803 286 790 286C788 286 785 285 783 286C779 287 783 287 777 288L770 289C767 291 766 289 763 290C758 292 753 296 747 298L745 299C744 300 743 300 742 301Z"
        fill="#91D8F7" />
    <path fill-rule="evenodd" clip-rule="evenodd" class="state-map-path" id="adamawa_state_IXuOcrr92"
        d="M711 373C711 367 709 367 713 364C716 361 714 363 716 360C717 356 718 358 719 355C723 348 721 353 724 346L735 319C738 314 736 314 737 312C738 310 740 311 739 301C734 300 735 301 732 303L697 320C697 320 697 320 696 320C695 321 695 321 693 322C689 324 689 325 680 330L669 335C666 338 660 340 656 343C655 343 654 345 653 345L628 362C619 370 618 364 619 380C619 390 625 391 631 394C632 395 631 394 633 395C638 398 646 402 651 398C657 393 654 397 657 394C660 391 657 392 662 390L675 384C680 381 679 383 682 382L697 376C706 374 694 374 711 373Z"
        fill="#D2D3D5" />
    <path fill-rule="evenodd" clip-rule="evenodd" class="state-map-path" id="adamawa_state_H4sVv6BXA"
        d="M406 263C406 262 406 261 405 260C405 260 404 254 396 259C393 260 387 267 386 270C386 270 386 271 385 271C381 279 381 286 375 297C374 299 364 301 363 301C361 302 360 304 358 305L352 308C350 309 351 309 347 311C342 314 347 311 343 316C342 318 338 324 335 329H333C329 333 336 329 327 334C327 348 323 340 318 352C314 360 319 356 315 365C311 372 306 372 299 372H287L278 374L274 382C267 393 258 414 269 425L270 426L271 429C272 431 272 429 273 431C274 434 273 447 273 451C273 474 275 459 275 469C276 480 276 473 277 478C278 479 277 484 277 487C276 493 275 500 278 506C278 506 278 506 279 507C280 509 280 512 282 516C284 519 286 518 286 523L296 526C297 526 297 527 298 527C299 527 300 528 300 528C303 530 300 529 302 532C303 532 306 532 307 532C312 531 306 530 319 530H348C353 529 348 528 356 528C364 528 360 528 364 526C367 525 370 525 374 525C374 521 364 504 361 501C353 493 357 494 353 485C351 482 350 480 350 475C351 467 352 477 352 464C353 459 353 462 354 460C356 454 352 455 359 449C360 431 362 400 368 381C374 354 380 332 387 315C394 300 413 281 406 263Z"
        fill="#9DD3AF" />
    <path fill-rule="evenodd" clip-rule="evenodd" class="state-map-path" id="adamawa_state_Svrr9vsgW"
        d="M421.001 705C421.001 706 429.001 708 433.001 708C439.001 708 436.001 708 439.001 710C442.001 711 443.001 710 446.001 710C451.001 711 447.001 713 453.001 712C457.001 711 453.001 710 459.001 710C466.001 710 464.001 710 466.001 709C469.001 707 470.001 709 470.001 704C468.001 696 463.001 692 454.001 683C451.001 680 447.001 676 446.001 674C444.001 676 442.001 676 438.001 676C435.001 677 437.001 676 435.001 677L430.001 680C427.001 681 429.001 679 426.001 682C426.001 682 416.001 691 414.001 696C413.001 702 421.001 704 421.001 705Z"
        fill="#91D8F7" />
</svg>