<svg class="svg_map" viewBox="0 0 98 119" fill="none" xmlns="http://www.w3.org/2000/svg">
    <path fill-rule="evenodd" clip-rule="evenodd" class="state-map-path" id="state_akwa_ibom_QTVhnJcnx"
        d="M7.48572 81.858C7.63571 82.288 7.99571 82.528 8.0457 83.368C8.1257 84.7779 7.08573 86.1679 9.51567 87.6379C10.6556 88.3278 10.4656 89.0578 9.94566 90.3178C9.80566 90.6578 9.80566 90.6178 9.61567 90.8878C9.34567 91.2578 9.45567 91.2278 9.25567 91.5578C9.07568 91.8478 8.54569 92.2877 8.2557 92.6777C9.16568 92.5977 10.6256 95.8577 10.7656 96.0677C11.9356 96.2576 11.6456 95.1577 12.9556 95.6377C15.8055 96.6676 15.4655 95.0777 17.5055 94.8577C18.4454 94.7477 18.7954 95.6477 19.8654 95.3677C19.8754 94.8377 19.6354 94.6077 19.6254 93.8377C21.6054 94.0277 21.9354 94.5577 23.5153 93.4577C24.8853 92.4877 24.8653 92.3877 25.6153 90.7578C25.6353 90.1878 25.9053 89.9678 26.2053 89.4478C27.2952 87.5479 27.2252 87.4679 28.6652 85.7679C29.4852 84.7979 30.5451 85.1979 31.0251 84.0879C31.8851 82.088 30.4452 81.448 31.0051 80.358C31.0251 80.318 31.1851 80.138 31.2151 80.118C31.3951 79.948 31.6251 79.8381 31.8251 79.6881C32.6251 79.0781 34.2351 77.3281 34.745 76.3581L36.395 73.9682C37.095 73.0882 38.205 72.4182 38.225 71.6783C38.085 71.2983 37.995 71.3983 37.915 70.9483L37.435 70.5783C36.945 70.0383 36.925 69.6383 36.705 68.8783C36.375 67.7083 36.185 67.5484 36.705 66.4184C37.155 65.4684 37.025 64.8284 37.185 63.6384C37.225 63.3285 37.235 63.1885 37.075 62.9785L36.645 62.6985C36.185 62.5185 35.905 62.4885 35.275 62.4485C35.005 61.9885 34.735 61.2285 34.1651 61.2285C33.7551 61.2285 33.2851 61.5285 32.5751 60.6885C31.4751 60.8885 31.1551 61.0885 30.7051 61.9285L28.7852 66.0084C28.4452 66.4584 27.5952 66.6884 27.0152 67.1284C25.2453 68.4683 25.1853 67.9283 24.3053 70.4383C24.0453 71.1883 23.7153 71.8082 23.5253 72.6482C23.0753 74.6082 21.4654 75.0982 20.7554 75.7882C20.0454 76.4781 20.1454 76.8581 18.7554 76.8181C14.9655 76.7081 15.8955 76.2281 14.9255 76.0681C12.7756 75.7182 12.4456 76.7781 11.8656 77.4181C9.66566 79.8381 10.8956 78.7081 9.38567 80.828C9.12568 81.188 7.83571 81.838 7.48572 81.858Z"
        fill="#91D8F7" stroke="#FEFEFE" stroke-width="0.42329" />
    <path fill-rule="evenodd" clip-rule="evenodd" class="state-map-path" id="state_akwa_ibom_YDO6R9lqz"
        d="M22.6753 21.5695L23.0153 21.4895C23.1153 21.7895 24.8353 24.5794 25.1153 24.7994C25.6253 24.9194 25.6353 24.7894 26.0952 24.5994C26.5852 24.3994 26.6752 24.4994 27.1452 24.3894C28.9252 23.9594 28.4252 22.8995 30.5751 22.6195C30.8051 22.5895 32.7551 22.5295 32.9751 22.5495C33.6251 22.6095 34.315 23.1395 34.655 23.4294C36.225 24.7994 35.995 25.1794 37.195 26.0894C37.635 26.4194 38.5149 26.7694 39.1249 26.3794C39.3649 25.4294 38.9849 25.5794 39.6449 24.7494C40.2049 24.4694 40.0649 24.2694 40.3549 23.7294L40.8649 22.9695C40.8849 22.9495 40.8949 22.9195 40.9149 22.8995C40.9249 22.8795 41.1049 22.6395 41.1149 22.6295L41.4749 22.1795C41.6349 21.9095 41.4749 22.1095 41.6449 21.8795C41.9549 21.4395 42.2548 20.5995 42.6448 19.7695C42.8448 19.3695 42.9448 19.1096 43.7348 18.9796C44.0248 18.9196 44.3248 18.9496 44.6248 18.9096C44.8848 18.8796 45.7148 18.6896 45.9748 18.5696L46.6547 18.0796C46.6747 18.0696 46.7047 18.0496 46.7247 18.0396C46.7447 18.0196 46.7747 18.0096 46.7947 17.9896C47.1247 17.7696 46.8547 18.1496 47.0247 17.8096C47.2147 16.6996 48.2847 16.4496 47.3847 15.4296C45.4648 13.2297 46.4147 12.0197 44.9848 11.7897C43.5348 11.5597 41.9549 12.0197 40.5349 11.5397C39.6849 11.2497 39.6249 11.2497 39.0249 10.7298C38.8249 10.5498 38.5749 10.3498 38.3849 10.2098C38.0849 9.99978 37.915 9.98978 37.635 9.68979C36.715 8.72981 36.895 6.64986 35.695 5.73988C35.045 5.2499 35.225 5.67988 34.435 4.68991C33.5751 3.62994 34.775 2.84995 33.6351 1.89998C32.5451 0.99 31.1351 0.950001 29.8551 1.53999C28.6852 2.08997 28.8552 1.87998 28.6252 1L26.8352 1.2C25.1953 3.41994 27.6652 3.40994 27.8252 5.0199C27.8652 5.41989 27.7252 7.22985 27.6852 7.76983C27.6452 8.37982 27.5352 8.59981 27.4252 9.0698C27.2952 9.63979 27.4252 10.0198 27.3552 10.6198C26.7552 10.5198 27.0252 10.1498 25.9152 9.93978C23.8553 9.54979 24.5253 9.0898 23.6053 8.9798C22.5553 8.83981 22.4553 9.49979 21.4354 10.2298C19.9154 11.3097 20.2154 12.0197 20.0454 13.2397C19.7154 15.5296 18.8554 15.5196 18.9254 16.5596C19.4154 16.8596 19.8054 17.0096 20.4854 16.5496C21.2254 16.0496 22.1653 14.9697 23.3553 15.1696C23.8553 15.2596 24.5353 15.5496 24.8253 15.8996C24.9253 17.4396 24.5853 17.8096 24.0753 19.0196C23.9153 19.3995 23.7253 20.0495 23.5053 20.3895C23.1953 20.8695 22.9153 20.9595 22.6753 21.5695Z"
        fill="#F6AFCE" stroke="#FEFEFE" stroke-width="0.42329" />
    <path fill-rule="evenodd" clip-rule="evenodd" class="state-map-path" id="state_akwa_ibom_TrdovIFFh"
        d="M8.25566 92.6777C6.24571 95.1777 7.89567 95.3777 7.87567 97.0076C7.85567 98.5376 6.89569 98.4576 7.90567 100.348C8.04566 100.618 8.33566 101.518 8.43565 101.898C8.79564 103.357 9.34563 103.477 9.99561 104.377C10.6456 105.267 9.67562 106.747 9.13564 106.947C8.62565 107.137 8.18566 107.067 8.01566 107.797C7.84567 108.527 8.98564 109.837 9.47563 110.327C10.5656 111.427 10.3256 112.347 12.7855 113.097C13.5655 112.767 13.0155 112.497 14.3555 112.477C14.4755 112.327 14.6855 111.777 15.4055 111.827C15.9255 111.857 15.6555 111.967 15.9755 112.147C16.2755 112.317 16.3355 112.227 16.7754 112.297C17.0154 112.597 17.0854 112.897 17.3554 113.247C18.2554 113.297 17.9754 113.317 18.3754 112.777C18.8254 113.037 18.9554 113.047 19.3154 112.617C19.1154 112.127 19.3454 112.677 18.9754 112.277C18.6254 111.897 19.1354 112.197 18.6654 111.877C18.2254 111.707 18.3154 111.927 17.8654 111.647C17.4154 111.367 17.6754 111.427 17.0754 111.277C17.3754 110.737 17.5054 110.767 18.0554 110.527C18.5854 110.307 18.5854 110.217 18.9754 109.847C20.1454 109.787 21.3853 110.847 22.3653 110.227C22.9953 109.827 22.1653 110.047 23.5753 109.357C24.2953 109.007 24.1453 108.687 24.8752 108.457C25.2652 108.677 24.9552 108.587 25.4552 108.797C25.9152 108.867 26.9552 108.037 27.3652 107.707C27.5752 107.537 27.6852 107.457 27.9352 107.357C28.6452 107.077 28.7552 107.077 29.2051 106.547C31.2351 104.187 29.8151 105.967 30.8151 104.107L31.6151 102.947C32.2951 102.148 32.3651 100.518 32.2351 99.5576C31.8151 99.3376 31.5551 99.1776 31.1951 98.8976C30.6251 98.4576 29.6151 97.9776 28.9151 97.8276C28.2952 97.6776 28.2752 97.6576 28.0052 97.1276C28.2552 96.3877 28.7651 96.3577 29.0951 95.3377C29.3151 94.6277 29.3451 93.5977 29.3451 92.7377C29.3651 90.8778 28.2952 90.7878 25.6152 90.7578C24.8652 92.3877 24.8852 92.4877 23.5153 93.4577C21.9353 94.5577 21.6053 94.0277 19.6254 93.8377C19.6354 94.6077 19.8754 94.8377 19.8654 95.3677C18.7954 95.6477 18.4454 94.7477 17.5054 94.8577C15.4655 95.0777 15.8055 96.6676 12.9555 95.6377C11.6456 95.1577 11.9356 96.2577 10.7656 96.0677C10.6256 95.8577 9.16563 92.5977 8.25566 92.6777Z"
        fill="#F6AFCE" stroke="#FEFEFE" stroke-width="0.42329" />
    <path fill-rule="evenodd" clip-rule="evenodd" class="state-map-path" id="state_akwa_ibom_RcU5zD8D5"
        d="M53.2446 49.9588C53.9046 50.1688 53.7246 50.2888 54.5745 50.4388C55.1045 50.5388 55.4145 50.6888 55.8645 50.8688C57.5345 51.5488 57.5645 50.8588 58.8444 51.0088C61.5144 51.3288 59.7644 53.2187 60.5744 54.2687C61.3544 55.2987 62.2944 55.5587 62.6143 55.8086C62.9343 56.0586 63.1143 56.3686 63.4743 56.6786C64.2843 57.3586 64.6943 57.8386 64.3543 59.2786C64.1343 60.2085 63.4843 60.8485 62.8543 61.2285C61.2244 62.2285 61.4244 61.4985 60.0044 61.8985C59.8044 63.3285 60.3244 62.9485 60.4844 63.9284H60.9844C61.5644 63.9184 61.3144 63.8184 61.9844 63.9484C62.1344 64.4984 62.5243 65.7184 61.5044 65.7684C60.9844 65.7984 61.0444 65.5784 61.0544 65.5684C61.0544 65.8784 61.0844 65.8584 60.9844 66.1484L60.8644 66.3884C60.8144 66.5084 60.8044 66.2084 60.7944 66.5884C60.7844 66.9084 61.1344 67.1784 61.2944 67.4184C61.8944 68.3083 61.4644 68.6283 61.4144 69.6083L61.7544 69.6283C61.7644 69.6083 61.7844 69.5283 61.7944 69.5483C61.8344 69.6483 61.6444 69.2183 62.5443 69.1583C62.7343 69.1483 63.0843 69.1283 63.2643 69.1383L64.4243 69.4683C65.3743 69.7983 64.5043 69.2983 65.8643 69.8883C66.9842 70.3683 68.2442 69.5883 68.8242 71.2483C69.1042 72.0682 68.7042 71.2983 69.3042 71.8082L69.2842 72.5882C69.3642 71.9382 69.4442 71.9782 70.0742 71.9382L70.3542 72.9082C71.2041 72.7882 70.8741 72.7282 71.1841 72.3482C71.4341 72.0382 71.8341 72.0282 72.4641 71.3183C73.0141 70.6783 73.1441 69.9283 73.9641 69.1183C75.564 67.5484 74.864 69.4383 77.114 65.9184C77.394 65.4884 77.224 65.5484 77.694 65.4384C77.164 65.0784 77.304 65.5484 76.594 64.4884C74.884 61.9085 75.264 63.2185 74.5441 60.5285C73.9641 58.3686 73.9541 59.2086 73.2241 57.9186C71.7541 55.2887 71.3841 55.4887 71.7041 51.9187C71.8241 50.5988 71.7641 49.2088 71.6941 47.8788C71.5841 45.9789 71.4541 46.1389 70.4742 45.1689C69.7842 44.4789 68.9642 43.9789 68.2042 43.379C68.1342 43.7489 68.4142 43.4889 67.8442 43.6889C66.9842 43.9789 64.1543 43.8389 63.1343 43.8589C61.7644 43.8889 61.8444 43.5489 60.9644 44.2089C60.2744 44.7289 60.3044 44.8689 59.4344 45.3389C57.3645 46.4389 57.9545 45.1989 55.8745 47.3289C55.2145 47.9988 53.0546 49.4288 53.2446 49.9588Z"
        fill="#F6AFCE" stroke="#FEFEFE" stroke-width="0.42329" />
    <path fill-rule="evenodd" clip-rule="evenodd" class="state-map-path" id="state_akwa_ibom_S5MsJQwMj"
        d="M39.6449 24.7494C39.5349 25.4194 39.5449 24.9094 39.4049 25.4694C39.2049 26.2594 39.1749 26.9694 39.4949 27.7093C40.0149 27.8693 40.6649 27.7493 41.1849 28.1093C41.3349 28.2293 41.4749 28.3593 41.6249 28.4793C42.4848 29.1793 41.7549 28.9793 42.9148 30.1993C43.5548 30.8593 43.2948 31.5292 43.5048 32.5892C44.1148 35.7491 42.2349 35.2292 42.3748 36.8391C42.4148 37.2891 42.3049 37.8791 42.3748 38.1291C42.4748 38.5091 42.8048 38.6691 43.0348 38.9591C44.1948 40.399 42.2749 42.479 42.3448 43.6089C42.7248 43.8789 43.1948 43.8889 43.3248 44.4289C43.5248 45.2589 43.2348 45.4989 43.1248 46.0689C42.8848 47.3789 44.7548 47.0289 43.8848 48.4188C43.7548 48.6188 42.4548 49.8188 43.7248 50.9988C44.5448 51.7787 44.0748 52.5387 43.3548 53.2487L43.4248 53.8287L46.7747 54.0587C46.9747 53.0987 48.3647 50.9288 49.1647 50.3288C49.6247 49.9788 50.8246 49.4188 51.0346 49.0788C51.8146 47.8488 50.5646 47.5289 50.9946 46.6189C51.4946 45.5589 52.6846 43.459 53.4146 42.779C53.6346 42.569 53.9746 42.199 54.1346 41.999C54.4146 41.659 54.5045 41.419 54.8845 41.129C55.1845 40.889 56.4945 39.859 56.5045 39.559C56.2045 38.6891 55.1745 38.2191 55.6445 36.6891C56.0045 35.5091 56.8245 35.0892 57.1245 34.2292L57.4145 34.3392C57.2645 33.8492 57.2345 33.4692 57.2245 33.0792C57.1945 33.0892 57.1545 33.0892 57.1245 33.0892H56.5345C56.2945 33.0892 56.0745 33.0192 55.8845 32.9092C55.7845 32.8692 55.6845 32.8492 55.5845 32.8092C55.5345 32.7792 55.4945 32.7592 55.4545 32.7392C55.3945 32.7192 55.3445 32.6892 55.2845 32.6492C55.2245 32.6292 55.1745 32.5992 55.1145 32.5692C55.0545 32.5492 55.0045 32.5192 54.9445 32.4892C54.3846 32.2492 54.0646 31.6592 54.1846 31.0593C53.9446 30.6893 53.7646 30.5293 53.6346 29.5493C53.4646 28.3193 53.5646 28.3993 53.0646 27.3294C52.5946 26.3394 51.1946 24.9494 50.3347 24.3894C48.5947 23.2495 48.9047 23.4394 47.2047 23.2994C46.4547 23.2395 46.7747 23.2695 46.1648 23.5094C44.9548 23.9894 45.3548 23.1995 43.8048 21.8995C41.6549 20.0795 45.5448 20.6295 45.9048 20.7295C46.3048 20.8295 46.3947 21.0295 46.6847 21.2195C47.0547 21.4595 48.1647 21.5595 48.6947 21.6695C49.6047 21.8695 50.8746 20.9695 49.3547 20.0395C48.8347 19.7195 48.9247 19.8295 48.5047 19.3895C48.2347 19.1096 47.8947 18.8896 47.7347 18.6596C47.3447 18.0996 47.7647 18.0596 47.0247 17.8096C46.8547 18.1496 47.1247 17.7696 46.7947 17.9896C46.7547 18.0296 46.6947 18.0496 46.6547 18.0796L45.9748 18.5696C45.7148 18.6896 44.8848 18.8796 44.6248 18.9096C44.3248 18.9496 44.0248 18.9196 43.7348 18.9796C42.9448 19.1096 42.8448 19.3695 42.6448 19.7695C42.2549 20.5995 41.9549 21.4395 41.6449 21.8795C41.4749 22.1095 41.6349 21.9095 41.4749 22.1795L41.1149 22.6295C41.1049 22.6395 40.9249 22.8795 40.9149 22.8995C40.8949 22.9195 40.8849 22.9495 40.8649 22.9695L40.3549 23.7294C40.0649 24.2694 40.2049 24.4694 39.6449 24.7494Z"
        fill="#9DD3AF" stroke="#FEFEFE" stroke-width="0.42329" />
    <path fill-rule="evenodd" clip-rule="evenodd" class="state-map-path" id="state_akwa_ibom_Ua4h5OeJ1"
        d="M25.6152 90.7578C28.2952 90.7878 29.3651 90.8778 29.3451 92.7377C29.3451 93.5977 29.3151 94.6277 29.0951 95.3377C28.7651 96.3577 28.2552 96.3877 28.0052 97.1276C28.2752 97.6576 28.2952 97.6776 28.9151 97.8276C29.6151 97.9776 30.6251 98.4576 31.1951 98.8976C31.5551 99.1776 31.8151 99.3376 32.2351 99.5576C32.3651 100.518 32.2951 102.148 31.6151 102.947L30.8151 104.107C29.8151 105.967 31.2351 104.187 29.2051 106.547C28.7551 107.077 28.6451 107.077 27.9352 107.357C27.6852 107.457 27.5752 107.537 27.3652 107.707C26.9552 108.037 25.9152 108.867 25.4552 108.797C25.3152 109.237 24.9952 109.477 24.5152 109.727L24.5052 110.417C25.2052 110.567 24.4353 110.797 26.1552 110.507C26.8752 110.387 27.2452 110.027 27.7952 109.857C29.1451 109.417 30.3251 109.247 31.6151 108.937C33.075 108.587 34.135 108.487 35.485 108.037L39.2549 106.967C39.6249 106.767 39.3749 107.077 39.6549 106.717C39.3849 106.007 38.0349 101.338 38.0949 100.848C38.1849 100.078 39.8249 99.7976 40.4449 99.4976C42.5848 98.4776 41.6948 98.1576 42.5248 97.9176C42.3348 95.9477 42.1648 96.4876 40.4649 95.0577C39.9849 94.6477 39.6449 94.2777 39.2149 93.8877C38.7149 93.4377 38.0949 93.3877 38.0849 92.7377C38.5749 92.3877 38.8049 92.5477 39.4249 92.3278L39.4749 90.4478L38.6449 90.3578L38.6949 88.0379L39.7849 87.9379C39.8549 87.8079 40.1249 86.2579 39.5449 85.3479L39.0949 84.7679C39.0349 84.6579 39.0449 84.6679 38.9849 84.5379C38.3349 82.858 38.4649 82.158 38.8749 80.838C39.1949 79.7981 38.7349 79.7281 39.4249 79.0681C39.8049 78.6981 39.5249 78.7581 39.8749 78.3681C39.8949 78.3481 39.9149 78.3281 39.9349 78.3081C39.9549 78.2981 39.9849 78.2781 39.9949 78.2581C41.2148 77.1181 40.4749 76.8881 40.2349 76.3581C40.1849 76.2481 39.9549 75.3282 39.9349 75.2482C39.8149 74.8182 39.7449 74.6482 39.6749 74.2382C39.5549 73.4882 39.2949 72.8582 39.2249 72.1682C39.2049 72.1482 39.1649 72.1382 39.1349 72.1282L38.3049 71.7383C38.2849 71.6983 38.2549 71.6983 38.2249 71.6783C38.2049 72.4182 37.0949 73.0882 36.395 73.9682L34.745 76.3581C34.235 77.3281 32.625 79.0781 31.8251 79.6881C31.6251 79.8381 31.3951 79.9481 31.2151 80.1181C31.1851 80.1381 31.0251 80.318 31.0051 80.358C30.4451 81.448 31.8851 82.088 31.0251 84.088C30.5451 85.1979 29.4851 84.7979 28.6651 85.7679C27.2252 87.4679 27.2952 87.5479 26.2052 89.4478C25.9052 89.9678 25.6352 90.1878 25.6152 90.7578Z"
        fill="#D2E28B" stroke="#FEFEFE" stroke-width="0.42329" />
    <path fill-rule="evenodd" clip-rule="evenodd" class="state-map-path" id="state_akwa_ibom_N0AhcS0g7"
        d="M69.2842 72.5882C69.0942 73.0482 69.0042 73.2382 68.8242 73.7282C68.4842 74.6282 68.9042 74.4382 68.9042 74.4382C68.6042 75.5982 66.9643 75.5482 66.1943 77.6581C65.9743 78.2681 66.1343 78.4281 66.4643 78.7781C68.7542 81.128 69.8342 80.788 68.2343 82.818C67.8143 83.358 67.4243 84.0379 67.0743 84.5379C66.8743 84.8179 66.2643 86.1279 66.1843 86.5179C66.0643 87.0879 65.9743 88.5278 66.2543 88.9678C66.4143 89.4678 66.6143 89.9178 66.9343 90.3278C67.1943 90.6578 67.6043 90.9078 67.7643 91.2378C68.5842 91.8378 69.5942 92.5777 70.7642 92.9177L70.9142 92.5777L73.7441 88.8978C74.6641 87.6479 73.9641 87.6379 75.4341 86.1979C77.154 84.5079 76.864 86.5279 80.464 84.6279C80.5639 83.498 79.704 83.378 80.5839 82.438C81.2139 81.768 81.4539 81.138 81.7439 80.858C81.6239 79.6981 81.5539 78.5781 82.2139 77.7081C82.6539 77.1281 84.5539 76.5481 85.4938 76.1381C87.4438 75.2982 86.4338 75.6582 86.9438 74.7882L87.4138 74.7782C84.3339 73.5882 85.5438 71.1583 83.6839 68.9483C83.5839 68.8183 81.7739 67.7384 80.9039 66.9984C79.774 66.0384 79.454 65.8684 77.694 65.4384C77.224 65.5484 77.394 65.4884 77.114 65.9184C74.8641 69.4383 75.5641 67.5484 73.9641 69.1183C73.1441 69.9283 73.0141 70.6783 72.4641 71.3183C71.8342 72.0282 71.4342 72.0382 71.1842 72.3482C70.8742 72.7282 71.2042 72.7882 70.3542 72.9082L70.0742 71.9382C69.4442 71.9782 69.3642 71.9382 69.2842 72.5882Z"
        fill="#91D8F7" stroke="#FEFEFE" stroke-width="0.42329" />
    <path fill-rule="evenodd" clip-rule="evenodd" class="state-map-path" id="state_akwa_ibom_dfJijAt3l"
        d="M8.62573 41.929C8.83573 42.849 8.97572 42.599 8.92573 43.6089C8.85573 44.8589 8.84573 46.3489 9.53571 47.3789C9.9657 48.0288 10.3157 48.4288 10.4457 48.8888C10.8457 48.9888 11.6157 49.9588 11.9057 50.3488C12.0856 50.5888 11.9856 50.5088 12.2556 50.6788C12.4356 50.7888 12.5556 50.8288 12.7556 50.9788C15.4156 52.9487 15.9956 52.3087 17.0755 52.6887C17.5555 52.8587 17.7955 53.0587 18.1755 53.1887L18.1655 53.6087C18.6755 53.7887 18.3155 53.5787 18.5355 54.1287C18.8755 54.9587 18.7455 54.8687 18.9355 55.5587L19.2055 56.1586C19.5455 56.1386 19.5255 56.1386 19.6855 55.9786L19.9955 55.4887C20.3054 55.1887 20.1554 55.4087 20.5254 55.2087C21.3054 54.7787 21.4154 54.5187 21.7754 54.1387C22.0154 53.8887 22.4454 53.7687 22.8554 53.6387L24.0654 53.3487C24.2753 53.2987 24.4853 53.2987 24.7353 53.2287C24.7653 53.2187 24.7953 53.2087 24.8253 53.1987C24.8653 53.1787 24.9553 53.1387 24.9953 53.1287C25.8853 52.8287 27.5153 52.9987 28.5552 52.9587C28.7652 51.5488 28.8852 50.7788 30.0452 50.5088C30.5452 50.3988 31.1852 50.2488 31.8052 50.3188C34.2451 50.6088 32.8851 51.5388 35.3151 48.0388C35.6051 47.6188 35.8851 47.0889 36.1751 46.6989C36.455 46.2989 36.805 45.6489 37.115 45.3689C37.245 44.9289 37.075 45.2989 37.325 44.9589C37.515 44.7189 37.365 44.9389 37.555 44.7289L38.335 43.5489C38.355 43.5289 38.365 43.489 38.375 43.469C38.555 43.169 39.165 42.659 37.785 42.409C37.315 42.319 36.925 42.379 36.435 42.369C33.2351 42.329 35.3551 42.469 34.1051 42.759C34.0651 43.069 34.1051 42.939 33.9951 43.149L33.2651 43.9089C33.0251 44.1189 32.9051 44.1289 32.5151 44.1389C31.9452 44.1489 31.2052 44.1989 30.7452 43.9589C30.6052 43.8889 30.6052 43.8989 30.5352 43.8289C30.3552 43.6389 30.4052 43.6289 30.3652 43.329C29.8352 43.249 30.0152 43.299 29.6952 43.069C28.9252 42.489 29.2152 42.929 28.6952 42.449C28.1852 41.989 27.3553 41.869 26.6153 41.869C26.0753 41.859 25.4753 41.919 25.0253 41.719C23.8154 41.179 24.0354 41.579 23.3554 41.169L22.2654 40.219C22.0854 39.889 22.2454 39.679 22.0654 39.0491C22.0554 39.0391 21.9554 38.7291 21.9554 38.7091C21.9054 38.5791 21.8354 38.3991 21.8254 38.3691C21.6254 37.8891 21.8554 38.5291 21.7354 38.1891C21.2454 37.9691 21.1454 37.7591 20.5054 37.9191C20.1454 38.0091 19.8755 38.2191 19.6355 38.3891L19.7555 39.4091C18.9855 39.619 18.0455 39.829 17.3855 39.4291C17.3755 39.4291 17.2655 39.3391 17.1655 39.2891C16.6655 39.0891 15.0056 39.0591 14.3556 39.1791C14.0756 39.589 13.8156 40.039 13.3756 40.299C12.1256 41.019 10.0057 41.809 8.62573 41.929Z"
        fill="#D2E28B" stroke="#FEFEFE" stroke-width="0.42329" />
    <path fill-rule="evenodd" clip-rule="evenodd" class="state-map-path" id="state_akwa_ibom_LCxJJJ5rl"
        d="M25.1152 24.7994C25.1752 26.1294 25.3352 26.0894 26.0852 27.0194C26.3852 27.3893 26.4452 27.3093 26.8152 27.7893C27.0052 28.0293 27.3852 28.4493 27.6152 28.5693C28.0952 29.1793 28.4452 29.7193 28.7551 30.6093C29.1851 31.8392 28.9951 31.5092 29.5351 32.2292C29.8551 32.6592 29.5651 32.7292 30.3651 33.3792C30.9051 33.8092 31.2251 34.1892 31.9151 34.4792C32.845 34.8592 32.3951 34.9392 33.145 35.5191C33.225 36.4791 33.195 36.5991 32.925 37.1191C32.805 37.3591 32.795 37.2091 32.835 37.3691C32.755 36.8091 32.895 36.6691 32.5051 36.3291C32.1151 36.5191 32.2051 36.1291 32.1451 37.0091C32.0451 38.3091 32.0451 38.7691 32.655 38.8691C32.725 39.979 33.455 41.429 34.205 41.809L34.105 42.759C35.355 42.469 33.235 42.329 36.435 42.369C36.9249 42.379 37.3149 42.319 37.7849 42.409C39.1649 42.659 38.5549 43.169 38.3749 43.4689C38.3649 43.4889 38.3549 43.5289 38.3349 43.5489L37.5549 44.7289C37.3649 44.9389 37.5149 44.7189 37.3249 44.9589C37.0749 45.2989 37.2449 44.9289 37.1149 45.3689L39.0849 45.7789C40.1549 45.9789 39.8249 46.6989 39.5249 47.2289C40.2249 47.0889 40.7048 47.8388 40.8548 48.4288C41.2548 50.0488 39.9749 50.9588 41.5048 52.8587C41.9048 53.3487 42.7048 53.7687 43.4248 53.8287L43.3548 53.2487C44.0748 52.5387 44.5448 51.7787 43.7248 50.9988C42.4548 49.8188 43.7548 48.6188 43.8848 48.4188C44.7547 47.0289 42.8848 47.3789 43.1248 46.0689C43.2348 45.4989 43.5248 45.2589 43.3248 44.4289C43.1948 43.8889 42.7248 43.8789 42.3448 43.6089C42.2748 42.479 44.1948 40.399 43.0348 38.9591C42.8048 38.6691 42.4748 38.5091 42.3748 38.1291C42.3048 37.8791 42.4148 37.2891 42.3748 36.8391C42.2348 35.2292 44.1148 35.7491 43.5048 32.5892C43.2948 31.5292 43.5548 30.8593 42.9148 30.1993C41.7548 28.9793 42.4848 29.1793 41.6248 28.4793C41.6048 28.4693 41.5848 28.4493 41.5648 28.4293L41.1848 28.1093C40.6649 27.7493 40.0149 27.8693 39.4949 27.7093C39.1749 26.9694 39.2049 26.2594 39.4049 25.4694C39.5449 24.9094 39.5349 25.4194 39.6449 24.7494C38.9849 25.5794 39.3649 25.4294 39.1249 26.3794C38.5149 26.7694 37.6349 26.4194 37.1949 26.0894C35.995 25.1794 36.225 24.7994 34.655 23.4294C34.315 23.1395 33.625 22.6095 32.975 22.5495C32.755 22.5295 30.8051 22.5895 30.5751 22.6195C28.4252 22.8995 28.9251 23.9594 27.1452 24.3894C26.6752 24.4994 26.5852 24.3994 26.0952 24.5994C25.6352 24.7894 25.6252 24.9194 25.1152 24.7994Z"
        fill="#91D8F7" stroke="#FEFEFE" stroke-width="0.42329" />
    <path fill-rule="evenodd" clip-rule="evenodd" class="state-map-path" id="state_akwa_ibom_ldPOcnYB1"
        d="M28.8252 58.7986C28.7852 59.1786 28.4052 59.4186 27.8852 59.6986C27.2853 60.0185 26.9153 59.7286 26.4953 60.1385C25.6653 61.1285 26.9853 62.5385 28.0052 61.3685C27.9852 62.4685 27.2753 62.6585 27.0453 63.2185C26.7053 63.9984 27.3753 64.9484 26.7653 65.5984C26.3253 66.0784 25.5153 66.3384 24.7553 66.2584C24.1353 66.1984 23.5253 65.6984 23.0154 65.3484C22.1154 64.7384 22.2254 64.8884 21.7154 63.9884C21.5354 63.6785 20.7354 62.7185 20.3554 62.6585C19.9554 62.6085 17.1255 63.9085 16.5055 64.1484C15.5755 64.4984 14.9256 64.1584 14.1456 64.4284C12.6056 64.9584 10.9857 67.6384 10.1657 68.4383L7.34574 70.9283C6.77576 71.4683 6.75576 71.8683 6.28577 72.5282C5.95578 72.9882 5.37579 73.4982 4.9858 73.8882C5.0758 73.9882 5.0358 74.0582 5.1258 74.1882C5.32579 74.5882 5.1258 74.9582 5.0758 75.3082C4.9458 76.2381 6.01578 76.5581 4.83581 77.5581C4.58581 77.7681 4.33582 78.0081 4.09583 78.2881C4.36582 79.0881 5.0758 79.5481 5.76578 80.0581C6.39577 80.528 7.21575 81.458 7.48574 81.858C7.83573 81.838 9.1257 81.188 9.38569 80.828C10.8957 78.7081 9.66569 79.8381 11.8656 77.4181C12.4456 76.7781 12.7756 75.7182 14.9256 76.0682C15.8955 76.2281 14.9656 76.7081 18.7555 76.8181C20.1454 76.8581 20.0454 76.4781 20.7554 75.7882C21.4654 75.0982 23.0754 74.6082 23.5253 72.6482C23.7153 71.8083 24.0453 71.1883 24.3053 70.4383C25.1853 67.9284 25.2453 68.4683 27.0153 67.1284C27.5952 66.6884 28.4452 66.4584 28.7852 66.0084L30.7052 61.9285C31.1552 61.0885 31.4751 60.8885 32.5751 60.6885C32.9051 60.3585 32.7551 60.6985 32.8351 60.2285C32.3351 59.9585 32.4251 60.0185 31.8051 59.9585C30.1152 59.7986 30.7152 58.6586 31.3652 58.5286C32.1151 58.3886 32.3051 58.7886 32.8751 58.8386C33.3951 58.8786 34.7551 58.0786 33.4251 57.0186C32.1551 55.9986 32.2251 57.0486 31.2652 57.6286C30.6352 58.0086 29.5552 58.6786 28.8252 58.7986Z"
        fill="#9DD3AF" stroke="#FEFEFE" stroke-width="0.42329" />
    <path fill-rule="evenodd" clip-rule="evenodd" class="state-map-path" id="state_akwa_ibom_oby0ix4Hx"
        d="M61.7844 104.547C61.3944 104.657 61.0244 104.987 60.0945 104.677C59.8845 104.607 60.1745 104.617 59.6645 104.537L58.2845 104.607C57.9445 105.037 58.3245 104.777 57.9045 104.937C57.8945 104.937 57.5645 105.027 57.5345 105.027L56.5746 105.217C54.0046 105.867 55.3846 105.507 53.8146 106.187C53.3546 106.387 53.7946 106.187 53.3946 106.567C53.1346 106.827 52.8146 106.827 52.2847 107.067L50.6747 107.647C50.2747 107.757 49.7147 107.777 49.2547 107.817C48.5848 108.137 42.2749 107.657 41.0549 107.667C40.6049 107.677 40.515 107.797 40.085 107.727L41.0649 110.997C41.3149 111.547 41.0549 111.207 41.4549 111.367C42.4649 111.337 43.4049 111.197 44.3949 111.107C45.4048 111.017 46.6248 111.217 47.4848 111.077C48.4848 110.917 49.3247 110.687 50.3447 110.577C50.8847 110.517 51.3347 110.557 51.8447 110.467C52.8146 110.287 52.4847 110.377 52.9546 109.887C53.0846 109.827 57.9145 110.277 58.7045 109.937C59.3145 109.667 58.8445 109.537 59.8945 109.607C61.5644 109.737 60.6545 109.307 62.5844 109.477C63.2944 109.537 63.4544 109.347 64.0644 109.357C67.0643 109.437 67.3843 109.157 69.7242 109.157C70.6742 109.157 71.7742 109.067 72.6542 109.227C74.0641 109.477 75.7741 109.067 77.124 109.137C78.674 109.217 77.444 108.587 81.2739 108.937C83.2639 109.117 84.7339 109.227 86.6838 109.647C88.8138 110.117 91.9137 111.317 92.1437 109.007C92.2337 108.157 91.6637 108.537 92.7337 107.187C92.8737 107.017 92.7837 107.117 92.9237 106.917C93.4736 106.077 93.6736 106.237 93.2636 105.917C92.6237 106.197 93.8136 106.227 92.0137 107.037C90.2037 107.847 89.3937 107.007 88.5738 106.907C88.3438 106.887 88.2638 106.867 88.0838 106.847C87.5738 106.797 87.4038 106.857 86.9638 106.697L86.1338 106.387C86.5038 106.287 86.4838 106.317 86.8538 106.457C87.2938 106.627 87.2638 106.607 87.8038 106.637C87.7838 105.907 87.7238 105.807 87.0838 105.677C87.1638 104.287 87.0738 105.677 86.0838 103.897C85.7038 103.197 85.2338 103.057 84.8739 102.457L78.254 102.467C77.894 102.617 77.554 102.527 77.194 102.647C76.6941 102.807 76.984 102.837 76.3141 102.907C74.1341 103.147 69.6042 103.427 67.8943 103.957C67.1243 104.197 66.6343 104.087 65.8543 104.247C64.3244 104.557 63.3644 104.817 61.7844 104.547Z"
        fill="#F6AFCE" stroke="#FEFEFE" stroke-width="0.42329" />
    <path fill-rule="evenodd" clip-rule="evenodd" class="state-map-path" id="state_akwa_ibom_CVQkFa2fB"
        d="M8.62571 41.929C10.0057 41.809 12.1256 41.019 13.3756 40.299C13.8156 40.039 14.0756 39.589 14.3556 39.1791C15.0056 39.0591 16.6655 39.0891 17.1655 39.2891C17.2655 39.3391 17.3755 39.4291 17.3855 39.4291C18.0455 39.829 18.9855 39.619 19.7554 39.4091L19.6354 38.3891C19.8754 38.2191 20.1454 38.0091 20.5054 37.9191C21.4354 37.6891 21.4054 38.2391 21.9854 38.3391C22.1454 38.1091 22.3254 37.8491 22.4354 37.5891C22.8954 36.5591 22.8654 35.9791 23.0554 34.9392L24.2653 34.8592C24.2053 34.2392 24.2453 33.5292 24.0653 33.0892C23.4053 32.9692 23.5553 32.9392 22.8554 33.1292L23.0754 30.9493C24.2053 30.6093 24.7053 31.2193 25.7453 30.1493C26.3653 29.5093 26.8953 28.9993 27.6152 28.5693C27.3852 28.4493 27.0053 28.0293 26.8153 27.7893C26.4453 27.3094 26.3853 27.3893 26.0853 27.0194C25.3353 26.0894 25.1753 26.1294 25.1153 24.7994C24.8353 24.5794 23.1154 21.7895 23.0154 21.4895L22.6754 21.5695C21.2654 23.2195 21.8754 22.4295 19.8454 22.9995C19.8254 23.0095 19.5354 23.1795 19.1254 23.2795C19.0855 23.2994 19.0455 23.3194 18.9955 23.3394C18.8655 23.4194 18.7255 23.4694 18.5655 23.4994C18.3855 23.5594 18.2555 23.5994 18.0455 23.5994H16.5055L16.6655 23.4394C16.6355 23.4494 16.6055 23.4594 16.5755 23.4694C16.4455 23.5494 16.3055 23.5994 16.1555 23.6294C16.0755 23.6494 15.9955 23.6694 15.9055 23.6794C15.8655 23.6894 15.8155 23.6994 15.7755 23.7094C15.6955 23.7394 15.6155 23.7594 15.5255 23.7694H15.5055C15.3555 23.8294 15.2055 23.8594 15.0356 23.8594L15.0755 23.8494C14.9856 23.8694 14.8856 23.8894 14.7856 23.8994C14.7056 23.9194 14.6256 23.9294 14.5456 23.9394C14.4456 23.9894 14.3256 24.0294 14.2056 24.0494L14.1656 24.0594C14.0656 24.1194 13.9656 24.1594 13.8556 24.1894C13.7956 24.2194 13.7356 24.2394 13.6656 24.2494C13.5756 24.2894 13.4556 24.3294 13.3556 24.3594C13.1856 24.4594 13.0656 24.4794 12.8856 24.5294C12.8056 24.5594 12.7056 24.5994 12.6256 24.6194C12.4956 24.6694 12.3256 24.7194 12.1856 24.7394C12.1356 24.7494 12.0956 24.7594 12.0456 24.7694C11.9956 24.7894 11.9356 24.7994 11.8856 24.8094C11.7856 24.8494 11.6756 24.8694 11.5656 24.8694C11.5056 24.8894 11.4456 24.8994 11.3756 24.9094L11.2956 24.9294C11.2356 24.9594 11.1756 24.9794 11.1056 24.9994C10.9857 25.0494 10.8557 25.0794 10.7257 25.0794C10.6257 25.1094 10.5157 25.1294 10.4057 25.1294C10.3157 25.2094 10.2457 25.2894 10.1657 25.3694C10.0957 25.4994 10.0157 25.6094 9.90568 25.7094C9.84568 25.8194 9.77568 25.8994 9.71568 26.0094C10.3657 26.7294 11.3056 27.4693 11.1556 28.4593C11.0756 28.9693 10.3057 29.6393 10.0857 30.0893C9.79568 30.6993 9.93568 31.9992 9.93568 32.7392C9.92568 33.3992 9.75568 37.3791 9.61568 37.8291C9.37569 38.5891 8.7757 39.579 8.50571 40.789C8.33572 41.579 8.56571 41.309 8.62571 41.929Z"
        fill="#9DD3AF" stroke="#FEFEFE" stroke-width="0.42329" />
    <path fill-rule="evenodd" clip-rule="evenodd" class="state-map-path" id="state_akwa_ibom_ZdQpKbgAz"
        d="M18.1654 53.6087C17.5855 54.0987 17.1955 54.5987 16.3655 55.0887C15.6255 55.5286 14.9855 55.7386 14.4155 56.2586C13.5156 57.0786 12.5956 58.6386 11.7756 59.8685C10.8156 61.3285 10.4856 62.4085 9.13567 63.4685C7.9557 64.3884 6.16575 65.1584 4.44579 64.4884C4.43579 63.9984 4.65578 63.3985 4.27579 63.0685C4.31579 63.4385 4.30579 64.6384 4.21579 64.9184C4.0558 65.3684 3.58581 65.5484 3.30582 65.8484C2.94582 66.2484 2.67583 68.3483 2.81583 69.0083C2.92583 69.4983 3.18582 69.8083 3.18582 70.5383C3.17582 71.4683 2.93582 71.3683 3.43581 72.1082C4.0558 73.0382 4.0158 73.6882 5.12577 74.1882C5.03577 74.0582 5.07577 73.9882 4.98577 73.8882C5.37576 73.4982 5.95575 72.9882 6.28574 72.5282C6.75573 71.8682 6.77573 71.4683 7.34572 70.9283L10.1656 68.4383C10.9856 67.6383 12.6056 64.9584 14.1455 64.4284C14.9255 64.1584 15.5755 64.4984 16.5055 64.1484C17.1255 63.9084 19.9554 62.6085 20.3554 62.6585C20.7354 62.7185 21.5354 63.6784 21.7154 63.9884C22.2253 64.8884 22.1154 64.7384 23.0153 65.3484C23.5253 65.6984 24.1353 66.1984 24.7553 66.2584C25.5153 66.3384 26.3252 66.0784 26.7652 65.5984C27.3752 64.9484 26.7052 63.9984 27.0452 63.2185C27.2752 62.6585 27.9852 62.4685 28.0052 61.3685C26.9852 62.5385 25.6653 61.1285 26.4952 60.1385C26.9152 59.7285 27.2852 60.0185 27.8852 59.6985C28.4052 59.4186 28.7852 59.1786 28.8252 58.7986C28.1052 58.3086 26.1952 58.0186 25.5953 55.1387C25.4753 54.5887 25.2853 53.7087 25.4553 53.3287C26.3352 52.7787 28.3152 53.5487 28.5552 52.9587C27.5152 52.9987 25.8853 52.8287 24.9953 53.1287C24.9553 53.1387 24.8653 53.1787 24.8253 53.1987C24.7953 53.2087 24.7653 53.2187 24.7353 53.2287C24.4853 53.2987 24.2753 53.2987 24.0653 53.3487L22.8553 53.6387C22.4453 53.7687 22.0154 53.8887 21.7754 54.1387C21.4154 54.5187 21.3054 54.7787 20.5254 55.2087C20.1554 55.4087 20.3054 55.1887 19.9954 55.4886L19.6854 55.9786C19.5254 56.1386 19.5454 56.1386 19.2054 56.1586L18.9354 55.5586C18.7454 54.8687 18.8754 54.9587 18.5354 54.1287C18.3154 53.5787 18.6754 53.7887 18.1654 53.6087Z"
        fill="#91D8F7" stroke="#FEFEFE" stroke-width="0.42329" />
    <path fill-rule="evenodd" clip-rule="evenodd" class="state-map-path" id="state_akwa_ibom_GI7MPNlSj"
        d="M54.8746 76.7881C54.9746 77.0081 54.7646 77.0881 55.8645 77.1281C55.9045 77.4881 55.5545 78.1781 55.3246 78.4581C54.7646 79.1581 53.6146 79.1481 52.8846 79.0081C52.6646 78.9681 52.4446 78.6781 51.4746 78.8481C51.2847 78.8781 50.9547 78.9781 50.7747 79.0581C50.6647 79.1081 50.5447 79.1881 50.4647 79.2381L49.6147 79.7881C49.5947 79.7981 49.5747 79.8281 49.5547 79.8381L48.6347 80.778C47.4547 81.918 48.4447 80.948 47.9547 81.828L48.4447 81.878C48.4847 82.148 48.6747 82.938 48.5447 83.268C48.3747 83.668 48.6447 83.408 48.2247 83.598C47.7947 83.368 48.0047 84.028 47.8947 82.458C47.8347 83.288 47.5947 83.628 47.5247 84.2979C47.4247 85.2779 47.6947 85.4179 47.9147 86.0979C48.3547 87.3979 47.6847 89.6078 47.9747 90.0078C48.6547 90.0878 48.9747 90.0978 49.5247 90.4078C50.4447 90.9078 52.2446 91.9578 52.9046 92.6777C53.2646 93.0577 53.4846 93.1077 53.9246 93.5077C54.3246 93.8677 54.6946 94.1777 55.2646 93.8777C55.7145 93.6477 56.9945 92.1078 57.3545 92.1178C58.3345 92.4577 58.2045 94.2077 59.7944 93.6677C61.0844 93.2377 61.3144 92.6077 63.0044 92.5977C63.2544 92.4377 63.8743 92.5277 64.2743 92.5077C65.2443 92.4877 64.8643 91.7078 66.6043 91.6278C66.9543 91.6178 67.6742 91.5878 67.7642 91.2378C67.6042 90.9078 67.1943 90.6578 66.9343 90.3278C66.6143 89.9178 66.4143 89.4678 66.2543 88.9678C65.9943 88.9278 66.1143 88.6078 66.0643 88.2278L65.4643 87.9579C63.9243 87.2379 64.9743 87.6879 63.9243 87.0679C63.9043 86.8679 63.8543 86.4379 63.8743 86.2479C63.9743 85.5879 64.1743 85.7079 64.1743 85.7079C64.5243 85.8379 64.2843 85.6079 64.4943 85.9579C64.6643 86.2479 64.5243 86.8179 64.6443 87.1279C65.2643 87.0579 65.0443 85.7179 64.4043 85.6679C64.2543 85.6479 62.6244 85.6779 62.5544 85.6879L62.5244 87.0979C62.5444 86.8979 62.5544 86.6079 62.5544 86.3879C62.5444 86.2679 62.5444 86.0279 62.5144 85.9179C62.4144 85.4779 62.5044 85.7279 62.3244 85.4979C62.1544 85.6879 62.2144 85.5479 62.1244 85.9079L62.1144 87.0979C62.1544 86.2279 62.0044 86.1579 62.2744 85.3879L62.3344 85.1979C62.0744 85.1279 61.9144 85.0779 61.6544 84.9479L61.0344 84.6679C61.1344 84.2479 61.1144 84.5379 60.9944 84.1779C60.6744 83.258 60.5844 83.118 59.8044 82.528C59.4944 82.298 59.7744 82.688 59.5044 82.168L58.8945 80.708C58.8645 80.538 58.8845 80.588 58.8245 80.418C58.8145 80.388 58.8045 80.358 58.7945 80.328C57.9445 78.0981 57.5745 79.9481 57.7445 77.0081L57.6145 76.3981C56.3645 76.4381 56.6745 77.1781 54.8746 76.7881Z"
        fill="#D2E28B" stroke="#FEFEFE" stroke-width="0.42329" />
    <path fill-rule="evenodd" clip-rule="evenodd" class="state-map-path" id="state_akwa_ibom_r8dICDOBe"
        d="M37.915 70.9483C37.995 71.3983 38.085 71.2983 38.225 71.6783C38.255 71.6983 38.285 71.6983 38.305 71.7383L39.135 72.1282C39.165 72.1382 39.205 72.1482 39.225 72.1682C39.825 72.1482 40.915 72.2882 41.435 72.0482L41.5649 71.9582C41.5849 71.9482 41.6149 71.9282 41.6249 71.9182C42.4349 71.2683 42.0449 68.3483 41.7049 67.3684C41.445 66.6284 41.7449 67.5684 41.6049 67.1184L41.475 65.5584C41.505 64.9684 41.6349 64.9384 41.8049 64.7084C42.1749 64.2084 42.2549 63.7684 42.4449 63.1585C42.6049 62.6485 42.7449 61.9885 42.8949 61.4085L43.1949 60.4285C43.3849 59.9485 43.4149 59.9885 43.6249 59.9185C43.7849 59.5186 43.9849 59.5586 44.3149 59.3386C45.0149 58.8686 45.3549 57.6886 45.9148 57.1486C46.4148 57.1686 46.6848 57.4786 47.0048 57.7786C47.4848 58.2386 47.3748 58.2486 47.6348 58.5986L47.7148 58.6986C48.6548 58.5986 50.2847 58.9586 51.3447 59.0086C53.4647 59.1186 52.4747 58.9486 55.0446 59.2286C56.4146 59.3886 56.4946 59.9285 57.4046 60.6585C57.8645 61.0285 59.2445 62.1385 60.0045 61.8985C61.4245 61.4985 61.2245 62.2285 62.8544 61.2285C63.4844 60.8485 64.1344 60.2085 64.3544 59.2786C64.6944 57.8386 64.2844 57.3586 63.4744 56.6786C63.1144 56.3686 62.9344 56.0586 62.6144 55.8086C62.2944 55.5587 61.3545 55.2987 60.5745 54.2687C59.7645 53.2187 61.5145 51.3288 58.8445 51.0088C57.5646 50.8588 57.5346 51.5488 55.8646 50.8688C55.4146 50.6888 55.1046 50.5388 54.5746 50.4388C53.7246 50.2888 53.9046 50.1688 53.2447 49.9588C53.0047 49.9888 53.1447 49.9288 52.9347 50.0488C52.5447 50.2988 52.6947 50.7288 52.4947 51.2588C52.4847 51.2888 52.4747 51.3188 52.4647 51.3388C52.1947 51.9387 52.0647 51.6787 51.7247 51.9587C51.7047 51.9687 51.6847 51.9887 51.6647 52.0087L51.5747 52.1387C51.4647 52.3587 51.5047 52.5587 51.3947 52.7887C51.2947 53.0087 51.3647 52.8387 51.1847 53.0387C50.4847 53.8487 51.1947 53.5987 50.2347 53.9287C50.2147 53.9387 50.1847 53.9487 50.1547 53.9587L45.2449 54.0487L43.4249 53.8287C42.7049 53.7687 41.9049 53.3487 41.505 52.8587C39.975 50.9588 41.255 50.0488 40.855 48.4288C40.705 47.8388 40.225 47.0889 39.525 47.2289L39.085 47.5389C39.435 48.3988 40.335 47.8788 40.305 49.5688C39.485 50.3088 39.475 50.0188 40.065 52.1187C41.6449 57.6986 43.4549 56.7686 40.465 62.7885C39.945 63.8284 40.115 64.6584 39.855 65.7584C39.745 66.1984 39.545 66.7284 39.475 67.2184C39.265 68.5383 39.155 70.2283 37.915 70.9483Z"
        fill="#D2E28B" stroke="#FEFEFE" stroke-width="0.42329" />
    <path fill-rule="evenodd" clip-rule="evenodd" class="state-map-path" id="state_akwa_ibom_lA0p9EX1Z"
        d="M28.5552 52.9587C28.3152 53.5487 26.3353 52.7787 25.4553 53.3287C25.2853 53.7087 25.4753 54.5887 25.5953 55.1387C26.1953 58.0186 28.1052 58.3086 28.8252 58.7986C29.5552 58.6786 30.6351 58.0086 31.2651 57.6286C32.2251 57.0486 32.1551 55.9986 33.4251 57.0186C34.755 58.0786 33.3951 58.8786 32.8751 58.8386C32.3051 58.7886 32.1151 58.3886 31.3651 58.5286C30.7151 58.6586 30.1152 59.7985 31.8051 59.9585C32.4251 60.0185 32.3351 59.9585 32.8351 60.2285C32.7551 60.6985 32.9051 60.3585 32.5751 60.6885C33.2851 61.5285 33.7551 61.2285 34.1651 61.2285C34.735 61.2285 35.005 61.9885 35.275 62.4485C35.905 62.4885 36.185 62.5185 36.645 62.6985L37.075 62.9785C37.235 63.1885 37.225 63.3285 37.185 63.6385C37.025 64.8284 37.155 65.4684 36.705 66.4184C36.185 67.5484 36.375 67.7084 36.705 68.8783C36.925 69.6383 36.945 70.0383 37.435 70.5783L37.915 70.9483C39.1549 70.2283 39.2649 68.5383 39.4749 67.2184C39.5449 66.7284 39.7449 66.1984 39.8549 65.7584C40.1149 64.6584 39.9449 63.8284 40.4649 62.7885C43.4548 56.7686 41.6449 57.6986 40.0649 52.1187C39.4749 50.0188 39.4849 50.3088 40.3049 49.5688C40.3349 47.8788 39.4349 48.3988 39.0849 47.5389L39.5249 47.2289C39.8249 46.6989 40.1549 45.9789 39.0849 45.7789L37.115 45.3689C36.805 45.6489 36.455 46.2989 36.175 46.6989C35.885 47.0889 35.605 47.6188 35.315 48.0388C32.8851 51.5388 34.2451 50.6088 31.8051 50.3188C31.1851 50.2488 30.5451 50.3988 30.0452 50.5088C28.8852 50.7788 28.7652 51.5488 28.5552 52.9587Z"
        fill="#F6AFCE" stroke="#FEFEFE" stroke-width="0.42329" />
    <path fill-rule="evenodd" clip-rule="evenodd" class="state-map-path" id="state_akwa_ibom_E4RrJxSPJ"
        d="M39.225 72.1682C39.295 72.8582 39.555 73.4882 39.675 74.2382C39.745 74.6482 39.815 74.8182 39.935 75.2482C39.955 75.3282 40.185 76.2481 40.235 76.3581C40.475 76.8881 41.2149 77.1181 39.995 78.2581C39.985 78.2781 39.955 78.2981 39.935 78.3081C39.915 78.3281 39.895 78.3481 39.875 78.3681C39.525 78.7581 39.805 78.6981 39.425 79.0681C38.735 79.7281 39.195 79.7981 38.875 80.838C38.465 82.158 38.335 82.858 38.985 84.5379C39.045 84.6679 39.035 84.6579 39.095 84.7679L39.545 85.3479C40.125 86.2579 39.855 87.8079 39.785 87.9379L38.695 88.0379L38.645 90.3578L39.475 90.4478C39.755 90.4278 39.935 90.4878 40.235 90.3678C41.0349 90.0378 40.025 90.7978 40.475 90.1978C44.3149 92.8177 45.2948 90.2878 47.1948 90.0878C47.2048 90.0878 47.4948 90.0878 47.5048 90.0878L47.7748 90.1478C48.0648 90.1578 47.8848 90.1978 47.9748 90.0078C47.6848 89.6078 48.3548 87.3979 47.9148 86.0979C47.6948 85.4179 47.4248 85.2779 47.5248 84.2979C47.5948 83.628 47.8348 83.288 47.8948 82.458C48.0048 84.028 47.7948 83.368 48.2248 83.598C48.6448 83.408 48.3748 83.668 48.5448 83.268C48.6748 82.938 48.4848 82.148 48.4448 81.878L47.9548 81.828C47.6348 81.528 47.8148 81.598 47.5848 81.238C47.2148 80.678 46.6248 80.288 46.2748 79.7681C45.7648 78.9981 46.5648 77.8981 46.5848 76.6581C46.6048 75.4282 45.8348 74.5682 45.8448 73.6582C45.8548 72.6182 47.2948 72.3982 46.6348 71.0883C46.2148 70.2583 45.7748 69.3783 45.4148 68.6083C45.3048 68.3783 45.2748 68.1783 45.1548 67.9384C45.0148 67.6184 44.9348 67.6384 44.8049 67.3784C44.1249 65.9484 44.1349 63.9884 44.4249 62.4585C44.7049 60.9185 43.8349 60.3785 43.6249 59.9185C43.4149 59.9885 43.3849 59.9485 43.1949 60.4285L42.8949 61.4085C42.7449 61.9885 42.6049 62.6485 42.4449 63.1585C42.2549 63.7685 42.1749 64.2084 41.8049 64.7084C41.6349 64.9384 41.5049 64.9684 41.4749 65.5584L41.6049 67.1184C41.7449 67.5684 41.4449 66.6284 41.7049 67.3684C42.0449 68.3483 42.4349 71.2683 41.6249 71.9183C41.6149 71.9283 41.5849 71.9483 41.5649 71.9583L41.4349 72.0482C40.9149 72.2882 39.825 72.1482 39.225 72.1682Z"
        fill="#9DD3AF" stroke="#FEFEFE" stroke-width="0.42329" />
    <path fill-rule="evenodd" clip-rule="evenodd" class="state-map-path" id="state_akwa_ibom_Yq9sikNH1"
        d="M57.4145 34.3392L57.1245 34.2292C56.8245 35.0892 56.0045 35.5091 55.6445 36.6891C55.1745 38.2191 56.2045 38.6891 56.5045 39.559C56.4945 39.859 55.1845 40.889 54.8845 41.129C54.5045 41.419 54.4145 41.659 54.1345 41.999C53.9745 42.199 53.6345 42.569 53.4145 42.779C52.6846 43.4589 51.4946 45.5589 50.9946 46.6189C50.5646 47.5288 51.8146 47.8488 51.0346 49.0788C50.8246 49.4188 49.6246 49.9788 49.1647 50.3288C48.3647 50.9288 46.9747 53.0987 46.7747 54.0587L45.2448 54.0487L50.1546 53.9587L50.2346 53.9287C51.1946 53.5987 50.4846 53.8487 51.1846 53.0387C51.3646 52.8387 51.2946 53.0087 51.3946 52.7887C51.5046 52.5587 51.4646 52.3587 51.5746 52.1387C51.6246 52.0687 51.6546 52.0187 51.7246 51.9587C52.0646 51.6787 52.1946 51.9387 52.4646 51.3388C52.4746 51.3188 52.4846 51.2888 52.4946 51.2588C52.6946 50.7288 52.5446 50.2988 52.9346 50.0488C53.1446 49.9288 53.0046 49.9888 53.2446 49.9588C53.0546 49.4288 55.2145 47.9988 55.8745 47.3289C57.9544 45.1989 57.3645 46.4389 59.4344 45.3389C60.3044 44.8689 60.2744 44.7289 60.9644 44.2089C61.8443 43.5489 61.7643 43.8889 63.1343 43.8589C64.1543 43.8389 66.9842 43.9789 67.8442 43.6889C68.4142 43.4889 68.1342 43.7489 68.2042 43.379C67.3742 41.509 67.5442 41.379 67.8842 39.3291C68.4242 36.0691 66.6842 34.6292 64.9543 32.3092C64.0143 31.0393 62.9443 30.8093 62.2843 31.4092V31.9892C62.2843 32.2992 62.1743 32.5892 61.9843 32.8092C61.9643 32.8392 61.9543 32.8692 61.9343 32.8892C61.8143 33.1892 61.6143 33.3492 61.4044 33.5592C61.3944 33.5692 61.3744 33.5892 61.3644 33.5992C61.3044 33.6692 61.2344 33.7292 61.1544 33.7892C60.8544 34.4092 60.3344 34.9592 60.1044 35.2592C59.4044 36.1491 57.5244 35.8691 57.4145 34.3392Z"
        fill="#91D8F7" stroke="#FEFEFE" stroke-width="0.42329" />
    <path fill-rule="evenodd" clip-rule="evenodd" class="state-map-path" id="state_akwa_ibom_oQcmvwS1N"
        d="M63.0043 92.5977C63.2243 93.2777 62.9143 95.3577 62.7843 96.1977C62.5843 97.5576 61.2444 97.2876 60.7544 98.0876C60.2444 98.9176 60.8544 100.218 61.1144 101.118C61.4344 102.248 61.8143 103.217 61.7843 104.547C63.3643 104.817 64.3243 104.557 65.8542 104.247C66.6342 104.087 67.1242 104.197 67.8942 103.957C69.6042 103.427 74.134 103.147 76.314 102.907C76.984 102.837 76.694 102.807 77.194 102.647C77.554 102.527 77.8939 102.617 78.2539 102.468L77.224 102.487C77.354 101.518 77.564 101.308 77.424 100.168C77.344 99.4676 77.144 98.5576 77.284 97.8176C77.794 97.5676 78.2339 97.6376 78.5739 97.1676C78.2339 97.2276 78.2239 97.2776 78.0939 97.3276C78.0639 97.3376 77.824 97.4476 77.584 97.4676L77.404 96.7176C76.994 95.0377 74.674 93.6577 73.0841 93.2777C72.7041 93.1877 72.2941 93.1277 71.9341 93.0477C70.6141 92.7377 71.0541 92.9277 70.9141 92.5777L70.7641 92.9177C69.5942 92.5777 68.5842 91.8378 67.7642 91.2378C67.6742 91.5878 66.9542 91.6178 66.6042 91.6278C64.8643 91.7078 65.2443 92.4877 64.2743 92.5077C63.8743 92.5277 63.2543 92.4377 63.0043 92.5977Z"
        fill="#9DD3AF" stroke="#FEFEFE" stroke-width="0.42329" />
    <path fill-rule="evenodd" clip-rule="evenodd" class="state-map-path" id="state_akwa_ibom_DVtx6EqdN"
        d="M47.7748 90.1478C47.0148 92.6277 49.7647 92.3877 48.4048 94.1777C48.0448 94.6477 47.8948 94.6377 47.5348 95.2877C47.0348 96.1877 47.2348 97.5476 48.0348 97.8876C48.4648 98.0776 49.0548 98.3976 49.3748 98.3976C49.9347 98.3876 50.3647 98.0576 51.0647 98.2076C51.8447 99.1676 50.5447 99.9276 50.3247 100.708C50.7647 101.528 53.6046 102.178 52.3847 103.137C51.0447 104.187 48.6248 101.978 48.3748 102.937C48.2248 103.507 48.6048 104.777 48.9148 105.217C49.9247 106.647 49.3648 106.067 49.2548 107.817C49.7147 107.777 50.2747 107.757 50.6747 107.647L52.2847 107.067C52.8147 106.827 53.1347 106.827 53.3947 106.567C53.7946 106.187 53.3547 106.387 53.8146 106.187C55.3846 105.507 54.0046 105.867 56.5746 105.217L57.5345 105.027C57.5645 105.027 57.8945 104.937 57.9045 104.937C58.3245 104.777 57.9445 105.037 58.2845 104.607L59.6645 104.537C60.1745 104.617 59.8845 104.607 60.0945 104.677C61.0245 104.987 61.3945 104.657 61.7844 104.547C61.8144 103.217 61.4345 102.248 61.1145 101.118C60.8545 100.218 60.2445 98.9176 60.7545 98.0876C61.2445 97.2876 62.5844 97.5576 62.7844 96.1977C62.9144 95.3577 63.2244 93.2777 63.0044 92.5977C61.3145 92.6077 61.0845 93.2377 59.7945 93.6677C58.2045 94.2077 58.3345 92.4577 57.3546 92.1178C56.9946 92.1078 55.7146 93.6477 55.2646 93.8777C54.6946 94.1777 54.3246 93.8677 53.9246 93.5077C53.4846 93.1077 53.2647 93.0577 52.9047 92.6777C52.2447 91.9578 50.4447 90.9078 49.5247 90.4078C48.9748 90.0978 48.6548 90.0878 47.9748 90.0078C47.8848 90.1978 48.0648 90.1578 47.7748 90.1478Z"
        fill="#FDD1A1" stroke="#FEFEFE" stroke-width="0.42329" />
    <path fill-rule="evenodd" clip-rule="evenodd" class="state-map-path" id="state_akwa_ibom_VKVbFU3OL"
        d="M83.4738 95.0177C82.8639 95.5477 83.5938 96.5176 82.4439 96.8976C81.7339 96.6076 81.4739 95.8777 80.3839 96.0177C79.7839 96.0977 79.6239 96.5376 78.574 97.1676C78.234 97.6376 77.794 97.5676 77.284 97.8176C77.144 98.5576 77.344 99.4676 77.424 100.168C77.564 101.308 77.354 101.518 77.224 102.487L78.254 102.468L84.8738 102.458C85.2338 103.057 85.7038 103.197 86.0838 103.897C87.0738 105.677 87.1638 104.287 87.0838 105.677C87.7237 105.807 87.7837 105.907 87.8037 106.637C87.2638 106.607 87.2938 106.627 86.8538 106.457C86.4838 106.317 86.5038 106.287 86.1338 106.387L86.9638 106.697C87.4037 106.857 87.5737 106.797 88.0837 106.847C88.2637 106.867 88.3437 106.887 88.5737 106.907C89.3837 107.007 90.2037 107.847 92.0136 107.037C93.8136 106.227 92.6236 106.197 93.2636 105.917C92.9136 105.677 92.4836 105.657 92.1536 105.437C91.7536 105.177 92.0936 105.217 91.6736 105.117C91.3936 105.057 91.4436 105.157 91.0437 105.147C91.6836 104.817 91.2237 104.067 90.8137 103.737C91.3636 103.927 91.0837 104.767 93.0736 105.427C94.4136 104.067 95.1036 103.597 94.5036 101.868C95.2836 101.118 95.1336 101.668 95.8135 101.408C96.0035 100.558 95.6335 100.408 96.1235 99.5876C96.4335 99.0676 96.7335 98.7976 96.9335 98.1676C96.3035 97.2476 94.8136 97.0476 94.8336 95.8677C94.8436 95.3777 94.9436 95.0777 94.8736 94.8377C95.0436 95.0277 95.1636 95.2377 95.2336 95.4677C95.4435 96.1577 95.3036 97.1476 96.1335 96.7876C96.3935 96.6676 96.4535 96.5476 96.5035 96.2977C96.7835 94.8277 96.3735 91.3678 96.5335 91.0078C96.7335 90.5878 96.2335 91.3078 96.7035 90.8378C96.8935 90.6378 96.8235 90.9078 97.0035 90.5278C96.7835 90.0578 97.2435 90.4778 96.6835 90.2378C96.6535 90.2278 96.6235 90.2178 96.5935 90.2078C95.9135 90.0278 95.9135 90.3778 95.8535 90.5378C95.6735 90.2278 95.4335 89.8778 95.0636 89.6378H94.6936C94.5436 88.9078 94.1336 88.3778 94.0236 87.9079L93.7236 88.2079C92.8336 89.0678 93.3436 89.5978 90.5037 89.7378C89.0737 89.8078 90.4237 88.7978 87.9437 88.2779C87.2838 88.1379 87.7137 88.2479 87.1338 88.4578C86.6238 88.5078 86.2438 88.7078 85.7838 88.7778C85.2938 88.8678 84.8838 88.8378 84.3438 88.9678C84.5038 89.2878 84.7038 89.3278 84.9938 89.5178C84.7638 89.6878 84.6738 89.7778 84.5538 90.2378L84.6238 90.9678C84.7438 91.6178 84.6338 92.0678 84.3838 92.5077L84.2438 92.7277C84.0038 93.1077 83.7338 93.4477 83.6638 93.8177C83.6038 94.1477 83.5038 94.6477 83.4738 95.0177ZM94.0136 94.1677C93.8936 94.1177 93.7636 94.0677 93.6136 94.0077L93.2936 93.9677C92.7836 94.1177 93.7836 94.0177 93.0736 94.1077C92.6636 93.7577 91.7236 93.5977 91.0637 93.5877L91.1337 93.5677C91.6736 93.4077 92.9936 93.6177 94.0136 94.1677Z"
        fill="#91D8F7" stroke="#FEFEFE" stroke-width="0.42329" />
    <path fill-rule="evenodd" clip-rule="evenodd" class="state-map-path" id="state_akwa_ibom_llvYx4Fdx"
        d="M39.4749 90.4478L39.4249 92.3277C38.8049 92.5477 38.5749 92.3877 38.085 92.7377C38.095 93.3877 38.7149 93.4377 39.2149 93.8877C39.6449 94.2777 39.9849 94.6477 40.4649 95.0577C42.1649 96.4876 42.3349 95.9477 42.5249 97.9176C41.6949 98.1576 42.5848 98.4776 40.4449 99.4976C39.8249 99.7976 38.185 100.078 38.095 100.848C38.035 101.338 39.3849 106.007 39.6549 106.717C39.3749 107.077 39.6249 106.767 39.2549 106.967H39.5549C39.6849 107.137 39.6349 107.017 39.7249 107.287C39.7649 107.407 39.7749 107.527 39.7849 107.647L40.0849 107.727C40.5149 107.797 40.6049 107.677 41.0549 107.667C42.2749 107.657 48.5847 108.137 49.2547 107.817C49.3647 106.067 49.9247 106.647 48.9147 105.217C48.6047 104.777 48.2247 103.507 48.3747 102.937C48.6247 101.978 51.0446 104.187 52.3846 103.137C53.6046 102.178 50.7646 101.528 50.3247 100.708C50.5447 99.9276 51.8446 99.1676 51.0646 98.2076C50.3647 98.0576 49.9347 98.3876 49.3747 98.3976C49.0547 98.3976 48.4647 98.0776 48.0347 97.8876C47.2347 97.5476 47.0347 96.1876 47.5347 95.2877C47.8947 94.6377 48.0447 94.6477 48.4047 94.1777C49.7647 92.3877 47.0147 92.6277 47.7747 90.1478L47.5047 90.0878C47.4947 90.0878 47.2047 90.0878 47.1947 90.0878C45.2948 90.2878 44.3148 92.8177 40.4749 90.1978C40.0249 90.7978 41.0349 90.0378 40.2349 90.3678C39.9349 90.4878 39.7549 90.4278 39.4749 90.4478Z"
        fill="#91D8F7" stroke="#FEFEFE" stroke-width="0.42329" />
    <path fill-rule="evenodd" clip-rule="evenodd" class="state-map-path" id="state_akwa_ibom_b6lpVSIHp"
        d="M54.8745 76.7881C56.6745 77.1781 56.3645 76.4381 57.6145 76.3981L57.7445 77.0081C59.6844 76.8181 61.1844 73.7982 61.4544 72.0782C61.6044 71.1683 61.1444 70.8283 61.4144 69.6083C61.4644 68.6283 61.8944 68.3083 61.2944 67.4184C61.1344 67.1784 60.7844 66.9084 60.7944 66.5884C60.8044 66.2084 60.8144 66.5084 60.8644 66.3884L60.9844 66.1484C61.0844 65.8584 61.0544 65.8784 61.0544 65.5684C61.0444 65.5784 60.9844 65.7984 61.5044 65.7684C62.5244 65.7184 62.1344 64.4984 61.9844 63.9484C61.3144 63.8184 61.5644 63.9184 60.9844 63.9284H60.4844C60.3244 62.9485 59.8044 63.3285 60.0044 61.8985C59.2444 62.1385 57.8645 61.0285 57.4045 60.6585C56.4945 59.9285 56.4145 59.3885 55.0445 59.2286C52.4746 58.9486 53.4646 59.1186 51.3446 59.0086C50.2847 58.9586 48.6547 58.5986 47.7147 58.6986C47.7747 59.2386 48.1747 61.0785 48.5047 61.8185C49.0847 63.1185 48.9447 63.2385 49.8947 64.2484C50.3747 64.7584 52.1646 67.7583 52.4046 68.4383C52.4646 68.6083 52.4746 68.7483 52.4846 68.8783C52.8446 69.2083 53.0146 69.7383 52.8646 70.2183C52.9246 70.4483 53.0046 70.7783 53.1646 71.2483C54.1046 74.0782 52.8746 73.6082 53.7346 75.4282C54.1146 76.2381 54.1046 76.3381 54.8745 76.7881ZM52.6846 71.0683H52.6946H52.6846Z"
        fill="#9DD3AF" />
    <path
        d="M52.6846 71.0683H52.6946M54.8745 76.7881C56.6745 77.1781 56.3645 76.4381 57.6145 76.3981L57.7445 77.0081C59.6844 76.8181 61.1844 73.7982 61.4544 72.0782C61.6044 71.1683 61.1444 70.8283 61.4144 69.6083C61.4644 68.6283 61.8944 68.3083 61.2944 67.4184C61.1344 67.1784 60.7844 66.9084 60.7944 66.5884C60.8044 66.2084 60.8144 66.5084 60.8644 66.3884L60.9844 66.1484C61.0844 65.8584 61.0544 65.8784 61.0544 65.5684C61.0444 65.5784 60.9844 65.7984 61.5044 65.7684C62.5244 65.7184 62.1344 64.4984 61.9844 63.9484C61.3144 63.8184 61.5644 63.9184 60.9844 63.9284H60.4844C60.3244 62.9485 59.8044 63.3285 60.0044 61.8985C59.2444 62.1385 57.8645 61.0285 57.4045 60.6585C56.4945 59.9285 56.4145 59.3885 55.0445 59.2286C52.4746 58.9486 53.4646 59.1186 51.3446 59.0086C50.2847 58.9586 48.6547 58.5986 47.7147 58.6986C47.7747 59.2386 48.1747 61.0785 48.5047 61.8185C49.0847 63.1185 48.9447 63.2385 49.8947 64.2484C50.3747 64.7584 52.1646 67.7583 52.4046 68.4383C52.4646 68.6083 52.4746 68.7483 52.4846 68.8783C52.8446 69.2083 53.0146 69.7383 52.8646 70.2183C52.9246 70.4483 53.0046 70.7783 53.1646 71.2483C54.1046 74.0782 52.8746 73.6082 53.7346 75.4282C54.1146 76.2381 54.1046 76.3381 54.8745 76.7881Z"
        stroke="#FEFEFE" stroke-width="0.42329" />
    <path fill-rule="evenodd" clip-rule="evenodd" class="state-map-path" id="state_akwa_ibom_mMqHmtxGL"
        d="M43.6249 59.9185C43.8349 60.3785 44.7049 60.9185 44.4249 62.4585C44.1349 63.9884 44.1249 65.9484 44.8048 67.3784C44.9348 67.6383 45.0148 67.6183 45.1548 67.9383C45.2748 68.1783 45.3048 68.3783 45.4148 68.6083C45.7748 69.3783 46.2148 70.2583 46.6348 71.0883C47.2948 72.3982 45.8548 72.6182 45.8448 73.6582C45.8348 74.5682 46.6048 75.4282 46.5848 76.6581C46.5648 77.8981 45.7648 78.9981 46.2748 79.768C46.6248 80.288 47.2148 80.678 47.5848 81.238C47.8148 81.598 47.6348 81.528 47.9548 81.828C48.4448 80.948 47.4548 81.918 48.6348 80.778L49.5547 79.838C49.5747 79.828 49.5947 79.798 49.6147 79.788L50.4647 79.2381C50.5447 79.1881 50.6647 79.1081 50.7747 79.0581C50.9547 78.9781 51.2847 78.8781 51.4747 78.8481C52.4447 78.6781 52.6647 78.9681 52.8846 79.0081C53.6146 79.1481 54.7646 79.1581 55.3246 78.4581C55.5546 78.1781 55.9046 77.4881 55.8646 77.1281C54.7646 77.0881 54.9746 77.0081 54.8746 76.7881C54.1046 76.3381 54.1146 76.2381 53.7346 75.4282C52.8746 73.6082 54.1046 74.0782 53.1646 71.2483C53.0346 70.4883 52.4247 68.5083 52.4047 68.4383C52.1647 67.7583 50.3747 64.7584 49.8947 64.2484C48.9447 63.2385 49.0847 63.1185 48.5048 61.8185C48.1748 61.0785 47.7748 59.2386 47.7148 58.6986L47.6348 58.5986C47.3748 58.2486 47.4848 58.2386 47.0048 57.7786C46.6848 57.4786 46.4148 57.1686 45.9148 57.1486C45.3548 57.6886 45.0148 58.8686 44.3149 59.3386C43.9849 59.5585 43.7849 59.5185 43.6249 59.9185Z"
        fill="#F6AFCE" stroke="#FEFEFE" stroke-width="0.42329" />
    <path fill-rule="evenodd" clip-rule="evenodd" class="state-map-path" id="state_akwa_ibom_I0edo0sen"
        d="M61.4144 69.6083C61.1444 70.8283 61.6044 71.1683 61.4544 72.0783C61.1844 73.7982 59.6844 76.8181 57.7445 77.0081C57.5745 79.9481 57.9445 78.0981 58.7945 80.328C58.8045 80.358 58.8145 80.388 58.8244 80.418C58.8844 80.588 58.8644 80.538 58.8944 80.708L59.5044 82.168C59.7744 82.688 59.4944 82.298 59.8044 82.528C60.5844 83.118 60.6744 83.258 60.9944 84.178C61.1144 84.5379 61.1344 84.2479 61.0344 84.6679L61.6544 84.9479C61.9144 85.0779 62.0744 85.1279 62.3344 85.1979L62.2744 85.3879C62.0044 86.1579 62.1544 86.2279 62.1144 87.0979L62.1244 85.9079C62.2144 85.5479 62.1544 85.6879 62.3244 85.4979C62.5044 85.7279 62.4144 85.4779 62.5144 85.9179C62.5444 86.0279 62.5444 86.2679 62.5544 86.3879C62.5544 86.6079 62.5444 86.8979 62.5244 87.0979L62.5544 85.6879C62.6244 85.6779 64.2543 85.6479 64.4043 85.6679C65.0443 85.7179 65.2643 87.0579 64.6443 87.1279C64.5243 86.8179 64.6643 86.2479 64.4943 85.9579C64.2843 85.6079 64.5243 85.8379 64.1743 85.7079C64.1743 85.7079 63.9743 85.5879 63.8743 86.2479C63.8543 86.4379 63.9043 86.8679 63.9243 87.0679C64.9743 87.6879 63.9243 87.2379 65.4643 87.9579L66.0643 88.2279C66.1143 88.6078 65.9943 88.9278 66.2543 88.9678C65.9743 88.5278 66.0643 87.0879 66.1843 86.5179C66.2643 86.1279 66.8743 84.8179 67.0742 84.5379C67.4242 84.038 67.8142 83.358 68.2342 82.818C69.8342 80.788 68.7542 81.128 66.4643 78.7781C66.1343 78.4281 65.9743 78.2681 66.1943 77.6581C66.9642 75.5482 68.6042 75.5982 68.9042 74.4382C68.9042 74.4382 68.4842 74.6282 68.8242 73.7282C69.0042 73.2382 69.0942 73.0482 69.2842 72.5882L69.3042 71.8083C68.7042 71.2983 69.1042 72.0683 68.8242 71.2483C68.2442 69.5883 66.9842 70.3683 65.8643 69.8883C64.5043 69.2983 65.3743 69.7983 64.4243 69.4683L63.2643 69.1383C63.0843 69.1283 62.7344 69.1483 62.5444 69.1583C61.6444 69.2183 61.8344 69.6483 61.7944 69.5483C61.7844 69.5283 61.7644 69.6083 61.7544 69.6283L61.4144 69.6083Z"
        fill="#FDD1A1" stroke="#FEFEFE" stroke-width="0.42329" />
    <path fill-rule="evenodd" clip-rule="evenodd" class="state-map-path" id="state_akwa_ibom_guvfVso3Z"
        d="M25.4553 108.797C24.9553 108.587 25.2653 108.677 24.8753 108.457C24.1454 108.687 24.2954 109.007 23.5754 109.357C22.1654 110.047 22.9954 109.827 22.3654 110.227C21.3854 110.847 20.1455 109.787 18.9755 109.847C18.5855 110.217 18.5855 110.307 18.0555 110.527C17.5055 110.767 17.3755 110.737 17.0755 111.277C17.6755 111.427 17.4155 111.367 17.8655 111.647C18.3155 111.927 18.2255 111.707 18.6655 111.877C19.1355 112.197 18.6255 111.897 18.9755 112.277C19.3455 112.677 19.1155 112.127 19.3155 112.617C18.9555 113.047 18.8255 113.037 18.3755 112.777C17.9755 113.317 18.2555 113.297 17.3655 113.247C17.0855 112.897 17.0155 112.597 16.7755 112.297C16.3356 112.227 16.2756 112.317 15.9756 112.147C15.6556 111.967 15.9256 111.857 15.4056 111.827C14.6856 111.777 14.4756 112.327 14.3556 112.477C13.0156 112.497 13.5656 112.767 12.7856 113.097L14.1556 113.747C16.0156 115.047 15.3556 116.897 16.0856 117.807C16.3956 117.667 16.3956 117.587 16.7555 117.447C18.2655 116.837 18.6355 117.467 20.9854 116.237C21.4754 115.967 21.9554 115.757 22.4354 115.497C24.1154 114.587 22.6054 114.817 25.5253 114.187C25.6753 114.157 25.8153 114.107 25.9653 114.057C26.0853 113.917 26.2453 113.807 26.4153 113.737C26.5153 113.677 26.6253 113.637 26.7253 113.607C26.8253 113.567 26.9453 113.527 27.0453 113.507C27.1053 113.477 27.1553 113.457 27.2153 113.447C27.3253 113.387 27.4453 113.347 27.5653 113.327C27.6453 113.297 27.7253 113.287 27.8153 113.277C27.8553 113.257 27.9053 113.247 27.9453 113.237C28.0453 113.207 28.1553 113.187 28.2553 113.187C28.3953 113.127 28.5553 113.077 28.7053 113.057C28.7553 113.047 28.8052 113.037 28.8652 113.017C28.9952 112.947 29.1452 112.907 29.2952 112.887C29.4252 112.857 29.5352 112.797 29.6852 112.777C29.7952 112.737 29.9152 112.717 30.0352 112.717C30.1352 112.677 30.2352 112.657 30.3252 112.637C30.4152 112.597 30.5152 112.577 30.5952 112.547C30.6152 112.517 30.6552 112.507 30.7052 112.507C30.7852 112.487 30.8752 112.467 30.9652 112.467C31.1152 112.407 31.2752 112.377 31.4452 112.377C31.5452 112.347 31.6552 112.337 31.7652 112.337H32.5852C32.6852 112.307 32.7852 112.287 32.9051 112.287H33.3451C33.4251 112.257 33.5151 112.237 33.5951 112.217C33.6751 112.187 33.7451 112.167 33.8251 112.147C33.8651 112.127 33.9251 112.107 33.9651 112.077C34.1051 111.977 34.2751 111.897 34.4551 111.857C34.5551 111.807 34.6551 111.777 34.7551 111.757C34.8351 111.737 34.9151 111.717 35.0051 111.707C35.1151 111.677 35.2351 111.657 35.3651 111.657H38.295C38.385 111.617 38.485 111.597 38.585 111.587C38.795 111.497 38.955 111.437 39.195 111.447C39.465 111.447 39.705 111.507 39.925 111.657L41.4549 111.367C41.0549 111.207 41.3149 111.547 41.0649 110.997L40.085 107.727L39.785 107.647C39.775 107.527 39.765 107.407 39.725 107.287C39.635 107.017 39.685 107.137 39.555 106.967L35.4851 108.037C34.1351 108.487 33.0751 108.587 31.6152 108.937C30.3252 109.247 29.1452 109.417 27.7953 109.857C27.2453 110.027 26.8753 110.387 26.1553 110.507C24.4354 110.797 25.2053 110.567 24.5054 110.417L24.5154 109.727C24.9953 109.477 25.3153 109.237 25.4553 108.797Z"
        fill="#9DD3AF" stroke="#FEFEFE" stroke-width="0.42329" />
    <path fill-rule="evenodd" clip-rule="evenodd" class="state-map-path" id="state_akwa_ibom_I3UhGlmTR"
        d="M70.9142 92.5777C71.0542 92.9277 70.6142 92.7377 71.9342 93.0477C72.2942 93.1277 72.7041 93.1877 73.0841 93.2777C74.6741 93.6577 76.994 95.0377 77.404 96.7176L77.584 97.4676C77.824 97.4476 78.064 97.3376 78.094 97.3276C78.224 97.2776 78.234 97.2276 78.574 97.1676C79.624 96.5376 79.784 96.0977 80.384 96.0177C81.4739 95.8777 81.7339 96.6076 82.4439 96.8976C83.6139 96.5076 82.8439 95.5177 83.5039 94.9877V94.7777C83.4039 94.5577 83.5739 93.7677 83.6639 93.3277C83.7339 92.9877 84.0039 92.6777 84.2439 92.3277L84.3839 92.1278C84.6338 91.7178 84.7438 91.3078 84.6238 90.7078L84.5538 90.0478C84.6738 89.6178 84.7638 89.5378 84.9938 89.3878C84.7038 89.2078 84.5038 89.1678 84.3439 88.8778C84.8838 88.7578 85.2938 88.7878 85.7838 88.7078C86.2438 88.6378 86.6238 88.4578 87.1338 88.4078L87.1438 87.8079C86.5838 87.5979 87.2838 87.8779 86.8138 87.6479C86.7438 87.6179 86.6338 87.5579 86.5738 87.5279C86.3738 87.4179 86.3338 87.3579 86.0538 87.2679C84.7638 86.8779 84.5938 87.8779 83.7239 87.4079C83.4839 87.2779 83.0739 87.0079 82.8939 86.7379C82.4739 86.1079 82.6439 85.0879 82.8539 84.2279C83.0139 83.598 83.2439 83.238 83.5239 83.148L84.4239 82.988C84.0439 82.638 83.5039 82.438 82.9439 82.058C82.6139 81.828 82.4539 81.768 82.2439 81.488C82.0339 81.238 82.0039 81.098 81.7439 80.858C81.4539 81.138 81.2139 81.768 80.5839 82.438C79.704 83.378 80.5639 83.498 80.4639 84.6279C76.864 86.5279 77.154 84.5079 75.4341 86.1979C73.9641 87.6379 74.6641 87.6479 73.7441 88.8978L70.9142 92.5777Z"
        fill="#D2E28B" stroke="#FEFEFE" stroke-width="0.42329" />
    <path fill-rule="evenodd" clip-rule="evenodd" class="state-map-path" id="state_akwa_ibom_qRZEdD4xm"
        d="M4.27581 63.0685C4.6558 63.3985 4.4358 63.9984 4.4458 64.4884C6.16576 65.1584 7.95572 64.3884 9.13569 63.4685C10.4857 62.4085 10.8156 61.3285 11.7756 59.8685C12.5956 58.6386 13.5156 57.0786 14.4156 56.2586C14.9855 55.7386 15.6255 55.5287 16.3655 55.0887C17.1955 54.5987 17.5855 54.0987 18.1655 53.6087L18.1755 53.1887C17.7955 53.0587 17.5555 52.8587 17.0755 52.6887C15.9955 52.3087 15.4155 52.9487 12.7556 50.9788C12.5556 50.8288 12.4356 50.7888 12.2556 50.6788C11.9856 50.5088 12.0856 50.5888 11.9056 50.3488C11.6156 49.9588 10.8456 48.9888 10.4457 48.8888C10.2057 50.1088 9.59568 51.3988 8.5657 52.0387C8.21571 52.2487 7.77572 52.3587 7.46573 52.6187C7.77572 53.0587 8.5157 53.0887 9.05569 53.3087C9.02569 53.9687 8.6457 54.3587 8.08571 54.4587C7.03574 54.6487 7.37573 53.9687 6.41575 54.6987C6.53575 55.4487 6.76575 55.3187 6.41575 56.1386C6.20576 56.6386 6.16576 57.0786 5.62577 57.3086C5.15579 57.4986 4.6258 57.5186 4.30581 57.8386C4.01581 58.1186 3.89582 58.5486 3.48583 58.9386C2.40585 58.8886 2.37585 58.5886 1.77587 59.5786C0.785894 61.2085 0.505901 61.2685 2.37585 62.4085C3.32583 62.9985 3.59582 62.7685 4.27581 63.0685Z"
        fill="#9DD3AF" stroke="#FEFEFE" stroke-width="0.42329" />
    <path fill-rule="evenodd" clip-rule="evenodd" class="state-map-path" id="state_akwa_ibom_hKUAXgvPN"
        d="M21.7354 38.1891C21.8553 38.5291 21.6254 37.8891 21.8253 38.3691C21.8353 38.3991 21.9053 38.5791 21.9553 38.7091C21.9553 38.7291 22.0553 39.0391 22.0653 39.0491C22.2453 39.679 22.0853 39.889 22.2653 40.219L23.3553 41.169C24.0353 41.579 23.8153 41.179 25.0253 41.719C25.4753 41.919 26.0752 41.859 26.6152 41.869C27.3552 41.869 28.1852 41.989 28.6952 42.449C29.2152 42.929 28.9252 42.489 29.6952 43.069C30.0151 43.299 29.8352 43.249 30.3651 43.329C30.4051 43.6289 30.3551 43.6389 30.5351 43.8289C30.6051 43.8989 30.6051 43.8889 30.7451 43.9589C31.2051 44.1989 31.9451 44.1489 32.5151 44.1389C32.9051 44.1289 33.0251 44.1189 33.2651 43.9089L33.995 43.149C34.105 42.939 34.065 43.069 34.105 42.759L34.205 41.809C33.4551 41.429 32.7251 39.979 32.6551 38.8691C32.0451 38.7691 32.0451 38.3091 32.1451 37.0091C32.2051 36.1291 32.1151 36.5191 32.5051 36.3291C32.8951 36.6691 32.7551 36.8091 32.8351 37.3691C32.7951 37.2091 32.8051 37.3591 32.9251 37.1191C33.1951 36.5991 33.2251 36.4791 33.1451 35.5191C32.3951 34.9392 32.8451 34.8592 31.9151 34.4792C31.2251 34.1892 30.9051 33.8092 30.3651 33.3792C29.5652 32.7292 29.8552 32.6592 29.5352 32.2292C28.9952 31.5092 29.1852 31.8392 28.7552 30.6093C28.4452 29.7193 28.0952 29.1793 27.6152 28.5693C26.8952 28.9993 26.3652 29.5093 25.7453 30.1493C24.7053 31.2193 24.2053 30.6093 23.0753 30.9493L22.8553 33.1292C23.5553 32.9392 23.4053 32.9692 24.0653 33.0892C24.2453 33.5292 24.2053 34.2392 24.2653 34.8592L23.0553 34.9392C22.8653 35.9791 22.8953 36.5591 22.4353 37.5891C22.3753 37.7291 22.3353 37.8091 22.2353 37.9691L22.0353 38.2691C22.0253 38.2791 22.0053 38.3191 21.9853 38.3391C21.6754 38.2891 21.8153 38.3591 21.7354 38.1891Z"
        fill="#F6AFCE" stroke="#FEFEFE" stroke-width="0.42329" />
    <path fill-rule="evenodd" clip-rule="evenodd" class="state-map-path" id="state_akwa_ibom_XQ79qISx1"
        d="M84.4238 82.988L83.5238 83.148C83.2438 83.238 83.0138 83.598 82.8538 84.2279C82.6438 85.0879 82.4738 86.1079 82.8938 86.7379C83.0738 87.0079 83.4838 87.2779 83.7238 87.4079C84.5938 87.8779 84.7638 86.8779 86.0537 87.2679C86.3337 87.3579 86.3737 87.4179 86.5737 87.5279C86.6337 87.5579 86.7437 87.6179 86.8137 87.6479C87.2837 87.8779 86.5837 87.5979 87.1437 87.8079L87.1337 88.4078C87.7137 88.2178 87.2837 88.1178 87.9437 88.2478C90.4236 88.7178 89.0737 89.6578 90.5036 89.5878C93.3436 89.4578 92.8336 88.9678 93.7236 88.1878L94.0235 87.9079C94.1335 88.3378 94.5435 88.8178 94.6935 89.4978H95.0635C95.0835 89.4778 95.1135 89.4278 95.1235 89.4478L95.2935 89.2778C95.8535 88.7378 95.1935 88.7178 95.3235 87.6779C95.4435 86.7379 95.6535 87.6479 95.6935 86.2479C95.6935 86.2179 95.6935 86.1879 95.6935 86.1579C95.6935 86.1379 95.7035 86.1079 95.7035 86.0779C95.7135 86.0479 95.7535 85.9579 95.7735 85.9279C95.9535 85.4679 96.0435 85.2179 95.9835 84.3979C95.9235 83.408 96.0835 83.928 95.6235 83.718C95.1935 83.918 95.4735 83.658 95.3035 84.0579L95.2735 85.4479L94.9235 85.6879C94.7035 85.5879 94.7835 85.5679 94.5735 85.4479C94.5735 85.1779 94.5935 84.9079 94.5935 84.6379C94.5935 84.1179 94.5635 83.9879 94.3435 83.718C93.8135 83.808 93.7536 83.578 93.9335 84.2679C93.6036 83.468 93.4536 83.948 93.0336 83.538C92.8236 83.338 93.1036 83.148 91.8636 82.918C91.1136 83.498 89.4037 83.268 88.3437 83.208C87.2937 83.148 87.0837 83.328 86.2537 83.378C85.5638 83.428 84.9838 83.148 84.4238 82.988Z"
        fill="#9DD3AF" stroke="#FEFEFE" stroke-width="0.42329" />
    <path fill-rule="evenodd" clip-rule="evenodd" class="state-map-path" id="state_akwa_ibom_PS2Twfopl"
        d="M81.7439 80.858C82.0039 81.098 82.0339 81.238 82.2439 81.488C82.4539 81.768 82.6139 81.828 82.9439 82.058C83.5038 82.438 84.0438 82.638 84.4238 82.988C84.9838 83.148 85.5638 83.428 86.2538 83.378C87.0837 83.328 87.2937 83.148 88.3437 83.208C89.4037 83.268 91.1136 83.498 91.8636 82.918C90.8037 82.428 90.3937 82.188 89.8337 81.298C89.2837 80.418 89.6237 80.828 89.6837 79.9081C89.7137 79.2881 89.6037 78.6481 88.9837 78.7081C89.5237 78.3181 90.0737 77.9481 90.2937 77.3181C90.0637 77.0081 90.1737 76.9481 89.7937 76.5881C89.3637 76.1781 87.8937 74.8682 87.4137 74.7782L86.9438 74.7882C86.4338 75.6582 87.4437 75.2982 85.4938 76.1381C84.5538 76.5481 82.6539 77.1281 82.2139 77.7081C81.5539 78.5781 81.6239 79.6981 81.7439 80.858Z"
        fill="#F6AFCE" stroke="#FEFEFE" stroke-width="0.42329" />
</svg>