<svg viewBox="0 0 84 127" fill="none" xmlns="http://www.w3.org/2000/svg">
        <path fill-rule="evenodd" clip-rule="evenodd" class="state-map-path" id="anambar_state_KNqJFiWa8"
            d="M16.2506 72.6081C16.0406 72.2981 16.4206 72.3581 16.8206 72.3481L18.3705 71.9681C18.8605 71.1281 19.1205 67.1382 19.3905 65.7483C19.6305 64.5683 20.1005 64.1083 20.3805 63.1683C21.2105 60.3384 21.8104 60.7984 22.6904 60.0284C23.0604 59.7084 23.7304 58.1885 23.8104 57.5885C24.6604 51.8586 26.6603 53.7886 27.5003 52.0586C26.8903 50.6586 27.3603 51.1586 27.2803 49.9087C27.2203 48.8187 26.6703 49.8887 27.3003 47.9387C27.4403 47.5087 27.7803 46.9987 27.7803 46.6987C27.7703 46.1988 27.4103 45.8988 27.6603 45.3888C28.1903 44.3188 29.1603 42.8988 29.5703 41.8489C30.7802 38.6689 29.6503 38.4789 30.3202 35.679C30.6502 34.2691 31.2702 34.0291 31.8702 31.9091C32.1402 31.0091 32.2302 31.4291 32.7202 30.8791C32.7102 29.9892 32.2402 29.9292 32.2202 29.3692C33.9201 29.2592 33.0602 29.3392 33.2402 28.4692C33.3202 28.0992 34.1101 27.8292 34.5401 27.7092C34.4901 27.0192 34.3101 26.8992 34.1001 26.4192C34.2901 25.9093 34.5901 25.8093 34.9101 25.3793C35.1801 25.0193 35.3101 24.5593 35.5201 24.0793C36.1001 22.7593 37.1601 22.6393 36.7801 21.6994C36.5601 21.1594 36.4201 21.7494 36.1001 20.4794C35.8601 19.5494 36.1401 19.8994 36.3201 19.1194C36.4001 18.7994 36.3401 18.6494 36.4101 18.3194C36.4801 17.9595 36.6501 17.8395 36.6201 17.5295C36.6001 17.1795 36.4501 17.2095 36.2901 16.8395C36.1801 16.5995 36.1401 16.3195 36.0901 16.0695C36.4501 15.7095 36.7601 15.5295 37.2201 15.2395C37.1901 14.7095 37.3701 14.3495 35.6201 14.0795L35.8301 12.1396C36.0701 11.9596 35.9001 12.1596 36.0101 11.8396C36.2201 11.2496 35.9901 4.0498 35.9201 3.25982C35.8701 2.70983 35.5201 2.01985 35.2401 1.55986L34.8401 1.03987C32.6902 1.15987 31.7602 1.91985 30.8502 3.51981C30.6402 3.8798 30.5002 3.9798 30.3002 4.31979C29.9802 4.88978 29.8202 5.71976 29.3403 5.98975C28.8403 6.26974 27.9803 6.45974 27.5203 6.71973C27.2203 6.88973 26.1203 8.32969 25.7703 8.78968C24.0304 11.0396 21.8404 11.5996 20.8805 13.0196C20.3505 13.8096 20.3705 13.9296 20.2805 15.0695L21.2505 21.9194C21.5605 23.4893 21.3205 25.2793 21.2605 26.7592C21.0405 26.8992 20.7405 26.9892 20.5005 27.1292C19.1705 27.9392 14.8906 28.9992 13.2607 29.5092C12.4607 29.7692 11.8007 29.9192 11.0907 30.1092C10.4207 30.2791 9.60075 30.4591 8.83076 30.6391C8.01078 30.8191 7.3908 30.7991 6.63082 31.2491C6.26083 31.4691 6.05083 31.5291 5.67084 31.7391C5.37085 31.8991 5.08086 32.1091 4.70087 32.2191C4.93086 34.1491 5.20085 36.259 5.46085 38.029C5.63084 39.2289 5.60084 39.5889 6.23083 40.5389C6.89081 41.5389 6.74082 41.7689 7.10081 42.8788L7.83079 45.3688C8.27078 46.9787 8.62077 49.6687 9.15076 50.5386C9.75074 51.4986 9.76074 51.7086 10.1407 52.7586C10.5607 53.9386 10.8507 57.0885 10.9907 58.3185C11.4307 62.1184 11.6607 64.2083 12.8907 67.6982C13.4307 69.2482 14.6706 71.9881 16.2506 72.6081Z"
            fill="#F6AFCE" stroke="#FEFEFE" stroke-width="0.677283" />
        <path fill-rule="evenodd" clip-rule="evenodd" class="state-map-path" id="anambar_state_f8eit19ba"
            d="M35.8301 12.1396L35.6201 14.0795C37.3701 14.3495 37.1901 14.7095 37.2201 15.2395C36.7601 15.5295 36.4501 15.7095 36.0901 16.0695C36.1401 16.3195 36.1801 16.5995 36.2901 16.8395C36.4501 17.2095 36.6001 17.1795 36.6201 17.5295C36.6501 17.8395 36.4801 17.9595 36.4101 18.3194C34.4801 28.1392 32.0202 28.4692 30.3202 35.679C29.6502 38.4789 30.7802 38.6689 29.5702 41.8489C27.6003 45.5388 25.7003 46.7887 27.2803 49.9087C27.3603 51.1586 26.8903 50.6586 27.5003 52.0586C27.8703 51.9486 27.7403 51.4286 28.4603 50.6486L28.5703 50.5386C28.5803 50.5286 28.7003 50.4187 28.7403 50.3787C28.8803 50.2487 28.8103 50.3087 28.9103 50.2187L30.1502 48.8887C30.1602 48.8687 30.1802 48.8387 30.2002 48.8287L30.5402 48.5087C31.3902 47.9087 34.3501 47.7987 34.8201 47.4587L35.5901 46.6487C36.1701 45.9188 35.0501 46.9087 35.8801 46.2788C36.7201 45.6388 36.3301 46.5387 36.8401 45.4288L37.0901 45.0288C37.1001 45.0088 37.1201 44.9788 37.1301 44.9588L37.83 43.7588C37.9 43.6188 37.86 43.6688 37.95 43.5488L38.1 43.3888C38.13 43.3588 39.44 42.9388 39.7 43.1688L40.27 44.4988C40.67 45.2388 40.58 44.7088 41.08 45.6088L41.45 45.6488L41.9699 45.6088L42.1299 45.0588C42.8899 44.9888 42.9399 44.7688 43.3399 44.4888L43.7899 44.1688C45.0899 42.9488 44.9699 43.3788 45.4499 43.0388L45.7498 42.6388C45.9798 42.6288 46.4198 42.6288 46.6298 42.5588C47.1398 42.3988 46.8098 42.3189 47.1998 42.1489C47.6798 41.6689 47.5298 41.5589 47.5398 40.7789C47.5498 39.9289 47.6298 39.8989 47.8498 39.3089C48.8898 39.3089 48.4298 39.7089 49.4198 39.2189C49.6097 37.659 48.0398 33.3691 50.7997 30.1292C51.1097 29.7592 51.0897 29.7992 51.7097 29.7092C52.7497 29.5392 53.3097 29.5992 54.1196 27.8892C54.4596 27.1692 54.8996 26.7892 55.3896 26.3692C55.7196 26.0893 55.8696 25.9093 56.1296 25.6693C57.1596 24.6793 57.0796 23.6793 57.4496 22.7393C57.6396 22.2593 57.9695 22.0494 58.4295 20.9494C59.0395 19.4794 59.6995 18.1094 57.9695 17.2095C57.3196 16.8695 56.7896 16.5395 56.2196 16.1695C55.1796 15.4795 55.1796 15.8395 54.0996 15.5095C53.4697 15.3195 52.7197 14.8895 52.1297 14.6995C51.4497 14.4795 50.3097 14.8395 49.5398 14.8595C48.8898 14.2495 46.1398 12.3296 45.2799 12.0996C44.6399 11.9296 44.0499 11.7896 43.4199 11.6096C41.9499 11.1896 38.88 11.5896 37.3601 12.1196C36.6901 12.3496 36.4801 12.7196 35.8401 12.9596L35.8301 12.1396Z"
            fill="#9DD3AF" stroke="#FEFEFE" stroke-width="0.677283" />
        <path fill-rule="evenodd" clip-rule="evenodd" class="state-map-path" id="anambar_state_BopuXGAqU"
            d="M15.3406 79.7279C14.5506 80.9979 13.2007 81.6579 11.9207 82.2979C11.2307 82.6479 10.3607 83.7878 10.0607 84.4878C9.58074 85.5878 11.2007 86.8778 11.6707 88.6277C12.2007 90.5977 11.4707 93.5476 10.9207 95.4875C10.6207 96.5375 10.6207 97.7275 10.3307 98.9075C10.0507 100.037 9.69074 100.997 9.36075 102.047C8.34077 105.307 6.52082 106.787 6.37082 107.067C6.15083 107.497 6.04083 108.057 5.80083 108.507C5.43084 109.197 4.37087 110.167 4.20087 110.917C4.07088 111.507 3.99088 112.107 3.83088 112.677C3.53089 113.767 3.1109 114.607 3.1409 115.827C3.2509 119.377 4.41087 119.067 2.61091 122.457C2.30092 123.047 1.31095 124.757 1.22095 125.167C1.80093 125.647 4.55087 126.217 5.40084 126.207C5.58084 125.577 6.19082 125.067 6.65081 124.687L7.3608 124.067C7.56079 123.887 7.94078 123.687 8.23077 123.487L11.4307 121.147L14.1806 119.757C14.5206 119.557 14.5206 119.397 15.0506 119.197C16.6706 118.607 18.2405 118.547 19.9105 118.347C20.2205 117.687 19.6905 117.027 19.3605 116.047C18.6905 114.037 20.1905 112.257 19.5205 110.767C19.1005 109.827 18.8805 109.557 19.4405 108.637C20.3205 107.177 20.4805 107.447 21.4704 106.337C21.9804 105.777 22.7604 103.607 22.9104 102.867C23.1304 101.737 23.1004 102.237 23.2904 101.707C23.3804 101.457 23.4404 100.837 23.5104 100.507C23.8104 100.797 23.9104 100.847 24.2704 100.877C24.0404 100.487 23.7904 100.407 23.4304 100.187C23.0104 99.9274 22.6704 99.4274 22.5104 98.9775C21.8404 97.1475 22.1904 99.1274 21.9804 96.2175C21.8604 96.1275 22.0404 96.5275 21.7504 95.9875C20.9305 94.4776 21.0705 95.0775 20.8205 94.6576C20.5905 94.2876 20.8505 94.4676 20.4505 93.5776L19.8705 91.1676C19.8305 90.9477 19.8205 90.6477 19.7705 90.4677C19.6305 89.9277 18.9005 88.7077 18.9205 87.7277C19.2605 87.8177 19.1805 87.8277 19.5505 88.1177L20.1405 88.6377C20.6805 88.9577 21.8004 88.8477 22.5004 88.8677C22.3604 88.4877 21.8704 88.6777 21.0305 88.6577C20.1905 88.6277 20.5705 88.4877 19.9505 88.0677C19.9305 88.0577 19.9005 88.0377 19.8805 88.0277L18.9505 87.3977C18.9305 87.3877 18.9105 87.3577 18.8905 87.3477L18.6405 87.1577C18.1705 86.8778 18.1805 87.0877 17.9805 86.4578C17.9405 86.3278 17.9105 86.2178 17.8705 86.0278C17.7805 85.6678 17.7805 85.3878 17.7805 84.9778C17.7805 84.2678 17.7505 83.4478 17.8005 82.7479C18.2205 82.4479 18.9505 81.9979 19.4605 81.9079L19.5805 81.3479C19.5105 81.0079 19.4505 80.6379 19.3405 80.3279C19.2605 80.0879 19.1305 79.8579 19.0805 79.5379C18.5005 79.7879 17.7705 79.4679 17.0706 79.6479C15.9706 79.9479 16.4206 79.8179 15.3406 79.7279Z"
            fill="#9DD3AF" stroke="#FEFEFE" stroke-width="0.677283" />
        <path fill-rule="evenodd" clip-rule="evenodd" class="state-map-path" id="anambar_state_GAbB37hRm"
            d="M41.45 45.6488L41.41 46.1188C41.02 46.2188 41.13 46.1588 40.94 46.4588C40.41 47.2787 40.55 46.7888 40.29 47.2487C40.28 47.2787 40.23 47.3787 40.22 47.4087C40.08 47.7587 40.13 47.9087 39.92 48.3287C38.41 51.2386 40.14 51.8386 40.24 53.3586C40.27 53.8786 40.13 54.1986 40.05 54.5886C40.2 54.7286 40.05 54.7286 40.33 54.7786C40.09 54.8286 40.24 54.7786 40.01 54.8886C39.85 54.9585 39.66 55.0785 39.63 55.2585C40.1 55.3685 39.81 54.8586 40.42 55.3685C40.11 55.8385 40.34 55.3985 39.77 55.7585C39.75 55.7685 39.72 55.7885 39.7 55.7985C39.12 56.2485 39.95 56.5985 40.01 56.6585C39.74 56.8785 39.81 56.5585 39.89 57.1485C41.45 57.2485 42.3899 58.7285 42.9999 60.0084L44.3099 63.2583C44.5299 63.8883 44.6199 63.7183 45.0399 64.0683L45.0899 65.6383C45.4399 65.7883 45.6999 66.3383 45.7299 66.7983C45.9799 66.3483 45.7499 66.4183 46.3598 66.1083C46.6298 65.9683 47.1098 65.7683 47.2898 65.5983C47.8398 65.0883 47.3198 63.7883 47.6398 63.1783L47.9798 63.1483C48.1498 63.4783 48.0798 63.8583 48.0898 64.2783C48.2698 64.0583 48.4398 63.8283 48.7698 63.8083C49.7198 63.7383 48.5798 63.7783 49.1498 63.9083C49.3098 63.9483 48.9798 64.1483 49.4198 63.8383C50.0798 63.3883 49.9098 63.2583 50.8097 62.9883C52.3597 62.5184 53.1597 63.3583 54.3096 63.7083C55.0596 63.9283 54.3296 63.7183 55.5196 64.7383L56.7496 65.7483C57.9296 66.4983 59.5295 65.7383 60.8995 65.9583C60.5195 64.6483 61.1995 64.1383 60.9095 63.1483C60.6695 62.3284 60.3195 61.4384 60.3295 60.4884C60.9195 59.8484 61.6995 59.1184 62.4794 58.8485C62.5194 57.6285 61.8395 57.4085 61.4195 55.9585C61.1095 54.8486 60.7395 54.0786 60.3895 52.9786C60.0695 51.9786 59.6695 51.0986 59.1895 50.2787L58.8195 49.5387C58.4795 48.9587 56.1096 46.4088 55.6596 45.8988C55.1996 45.3688 54.2796 44.2088 53.5597 43.9888C52.5197 43.6788 51.5597 43.3188 50.4397 43.1988C49.3698 43.0788 47.8898 43.0788 47.0498 42.5589C47.1298 42.2189 47.0598 42.4089 47.1998 42.1489C46.8098 42.3189 47.1398 42.3989 46.6298 42.5589C46.4198 42.6289 45.9799 42.6289 45.7499 42.6389L45.4499 43.0388C44.9699 43.3788 45.0899 42.9488 43.7899 44.1688L43.3399 44.4888C42.9399 44.7688 42.8899 44.9888 42.1299 45.0588L41.97 45.6088L41.45 45.6488Z"
            fill="#F6AFCE" stroke="#FEFEFE" stroke-width="0.677283" />
        <path fill-rule="evenodd" clip-rule="evenodd" class="state-map-path" id="anambar_state_f8eit19ba"
            d="M61.2595 66.9382L61.3295 68.4982C61.8894 68.5582 62.2094 68.8682 62.2094 69.5082C62.1994 70.3181 61.8694 70.2181 61.4094 70.5081C61.4094 71.1381 61.3894 72.0881 61.1495 72.6481C60.8895 73.2281 60.5695 73.3481 60.3295 74.168C60.1495 74.798 60.0695 75.478 59.6295 75.808C58.7595 76.478 57.9795 76.498 57.1896 78.1579C56.7096 79.1679 54.2696 80.7879 52.9797 80.9979C52.8397 81.0979 52.5497 81.2979 52.4197 81.4179C52.2797 81.5479 52.1697 81.7279 52.0197 81.8978C51.6697 82.2878 51.4497 82.5178 51.1897 82.8578C51.6097 83.2478 51.5297 82.9378 51.6497 83.6378C50.8697 83.5778 51.2497 83.4078 50.7597 83.4178C50.5797 83.7278 50.5697 84.0478 50.7597 84.3278C51.2597 84.3178 50.9797 84.0978 51.7497 84.0878C51.6297 84.5778 51.6897 84.8478 50.9997 84.8678C50.4597 84.8878 50.2797 84.7378 50.0997 84.4578C50.0297 85.0278 49.6697 85.2178 49.6697 85.9977C49.8597 86.7077 50.6097 86.4977 51.4697 86.5977C52.3497 86.6977 52.6997 86.9877 53.4896 87.1277C55.1396 87.4477 56.0096 86.7977 56.9696 88.6777C57.2296 89.1877 57.5395 89.8177 57.8695 90.2176C59.5595 92.3076 58.7895 93.5576 59.7595 94.6775C59.7595 94.6775 59.9795 95.2875 60.6995 94.9175C61.4694 94.0975 63.2194 93.8876 63.0094 92.7676C62.0994 92.1476 62.0094 93.0976 60.7995 91.6676C60.9295 91.0476 61.3095 90.6576 61.8294 90.3776C65.1394 88.5477 62.9094 88.6677 66.9293 88.2377C67.6393 88.1677 68.5793 88.3477 69.1293 88.0977C70.7192 87.3977 70.5592 88.4077 73.3992 87.7977C73.8491 87.7077 74.0191 87.7277 74.4191 87.5877C74.8591 87.4477 74.9691 87.3477 75.4491 87.3377C74.7591 86.3477 74.4791 86.6877 74.0291 84.3678C73.4092 81.2279 73.3692 81.8479 72.6192 81.4179C71.6392 80.8879 71.6492 80.8479 70.6892 81.3579C70.4092 81.2079 70.5292 81.3279 70.4592 80.9779L70.4492 79.1879C68.5193 74.768 70.5092 73.4881 69.6892 71.7681C69.4792 71.3281 68.3293 70.6881 67.9593 70.3481C67.1293 69.5882 67.4393 67.6882 66.9093 66.8282C66.7493 66.5582 66.1793 66.3582 65.9093 66.2582C65.2794 66.0282 64.3794 66.5382 63.6294 66.7482C62.0294 67.1882 62.2294 67.1982 61.2595 66.9382Z"
            fill="#F6AFCE" stroke="#FEFEFE" stroke-width="0.677283" />
        <path fill-rule="evenodd" clip-rule="evenodd" class="state-map-path" id="anambar_state_H8haJePZW"
            d="M27.5003 52.0586C26.6603 53.7886 24.6604 51.8586 23.8104 57.5885C23.7304 58.1885 23.0604 59.7084 22.6904 60.0284C21.8104 60.7984 21.2104 60.3384 20.3805 63.1683C20.1005 64.1083 19.6305 64.5683 19.3905 65.7483C19.1205 67.1382 18.8605 71.1281 18.3705 71.9681L16.8206 72.3481C17.5005 72.5081 19.4205 71.8081 20.2605 71.8081C20.9705 71.8081 21.5304 71.9481 22.1704 71.9781C22.8104 72.0081 22.9604 71.7681 23.5704 71.2681C23.7704 71.0881 23.8604 71.0281 24.0704 70.8781C24.8704 70.3082 25.2203 70.5282 25.4803 69.4782C25.6803 68.6882 25.4303 68.3082 26.0503 67.8282C26.0703 67.8082 26.0903 67.7882 26.1103 67.7782L26.6703 67.3382C27.7403 66.2783 27.0403 67.2182 28.0703 65.7383C28.2803 65.4483 28.2503 65.3883 28.4203 65.0883C28.7703 64.4783 29.8402 63.5483 30.3502 63.0083C30.6302 62.7083 30.7902 62.4784 31.1102 62.3184C32.1102 61.8484 31.1202 62.6183 32.9802 61.3984C33.5401 61.0284 34.4901 60.7984 35.7001 60.0184L36.2401 59.6484C37.2501 58.7684 38.51 57.4685 39.29 57.4285C39.45 57.5885 39.35 57.3685 39.4 57.6385C39.65 57.1685 39.46 57.2485 39.89 57.1485C39.81 56.5585 39.74 56.8785 40.01 56.6585C39.95 56.5985 39.12 56.2485 39.7 55.7985C39.72 55.7885 39.75 55.7685 39.77 55.7585C40.34 55.3985 40.11 55.8385 40.42 55.3685C39.81 54.8585 40.1 55.3685 39.63 55.2585C39.66 55.0785 39.85 54.9585 40.01 54.8885C40.24 54.7785 40.09 54.8285 40.33 54.7785C40.05 54.7285 40.2 54.7285 40.05 54.5885C40.13 54.1986 40.27 53.8786 40.24 53.3586C40.14 51.8386 38.41 51.2386 39.92 48.3287C40.13 47.9087 40.08 47.7587 40.22 47.4087C40.23 47.3787 40.28 47.2787 40.29 47.2487C40.55 46.7887 40.41 47.2787 40.94 46.4587C41.13 46.1588 41.02 46.2188 41.4099 46.1188L41.4499 45.6488L41.08 45.6088C40.58 44.7088 40.67 45.2388 40.27 44.4988L39.7 43.1688C39.44 42.9388 38.13 43.3588 38.1 43.3888L37.95 43.5488C37.86 43.6688 37.9 43.6188 37.83 43.7588L37.1301 44.9588C37.1201 44.9788 37.1001 45.0088 37.0901 45.0288L36.8401 45.4288C36.3301 46.5387 36.7201 45.6388 35.8801 46.2788C35.0501 46.9087 36.1701 45.9188 35.5901 46.6487L34.8201 47.4587C34.3501 47.7987 31.3902 47.9087 30.5402 48.5087L30.2002 48.8287C30.1802 48.8387 30.1602 48.8687 30.1502 48.8887L28.9103 50.2187C28.8103 50.3087 28.8803 50.2487 28.7403 50.3787C28.7003 50.4187 28.5803 50.5286 28.5703 50.5386L28.4603 50.6486C27.7403 51.4286 27.8703 51.9486 27.5003 52.0586Z"
            fill="#91D8F7" stroke="#FEFEFE" stroke-width="0.677283" />
        <path fill-rule="evenodd" clip-rule="evenodd" class="state-map-path" id="anambar_state_ivr7DA4Qw"
            d="M19.9105 118.347C21.1005 118.317 22.0004 118.527 22.8904 119.077C23.8204 119.647 23.8004 119.847 25.1704 120.587C27.3803 121.787 27.6603 123.727 29.5603 123.547C30.5402 122.317 30.1402 122.147 30.3202 120.427C30.3802 119.827 30.3602 119.197 30.4102 118.597C30.4702 117.937 30.7302 117.657 30.8202 117.007C30.9502 116.167 30.8702 116.307 31.4702 115.787C33.6802 113.867 36.6301 113.877 37.94 112.337C38.37 111.837 38.36 111.547 38.66 111.167C38.82 110.967 41.2 108.747 41.53 108.157L43.2099 105.777C42.7499 105.777 42.5299 105.557 42.0699 105.457C41.65 105.367 41.24 105.367 40.78 105.297C39.1 105.027 38.99 104.537 37.3801 104.377C36.5901 104.297 36.8401 104.247 36.2501 104.037C35.8001 103.877 34.2801 103.737 33.7401 103.687C33.6602 103.837 33.7301 103.717 33.6202 103.897C33.6102 103.917 33.5902 103.947 33.5802 103.967L33.3802 104.317C33.1502 104.777 33.2202 105.047 33.2002 105.637C32.8102 105.637 31.9602 105.667 31.6202 105.597L30.4702 105.177C30.4502 105.167 30.4202 105.147 30.4002 105.137L29.2903 104.677C28.8403 104.477 28.7103 104.457 28.6103 104.107C27.6703 103.977 28.0803 104.007 27.6403 103.647L25.9203 102.457C25.5104 102.157 25.6703 102.187 25.3904 101.887C25.3304 101.817 25.2204 101.727 25.1504 101.677C24.7804 101.347 24.8204 101.347 24.3404 101.257L24.2704 100.877C23.9104 100.847 23.8104 100.797 23.5104 100.507C23.4404 100.837 23.3804 101.457 23.2904 101.707C23.1004 102.237 23.1304 101.737 22.9104 102.867C22.7604 103.607 21.9804 105.777 21.4705 106.337C20.4805 107.447 20.3205 107.177 19.4405 108.637C18.8805 109.557 19.1005 109.827 19.5205 110.767C20.1905 112.257 18.6905 114.037 19.3605 116.047C19.6905 117.027 20.2205 117.687 19.9105 118.347Z"
            fill="#F6AFCE" stroke="#FEFEFE" stroke-width="0.677283" />
        <path fill-rule="evenodd" clip-rule="evenodd" class="state-map-path" id="anambar_state_nj1xDbbCg"
            d="M60.6995 94.9176C60.2995 96.0275 61.1995 95.7475 61.3795 97.7275C61.4395 98.3475 61.3495 99.6074 61.7295 100.167L62.7394 101.057C63.1294 101.437 63.2394 101.547 63.8694 101.807C64.5194 102.057 65.3494 102.907 67.2393 103.127C67.7593 102.287 68.9193 101.817 70.2392 101.767C71.8892 101.697 72.7492 102.367 73.8992 101.127C73.8492 100.507 73.5092 100.037 73.3992 99.4174C73.2292 98.3975 73.2392 98.3275 73.3892 97.3675C73.9191 97.4075 73.6892 97.5175 74.2891 97.4075C75.0391 97.2675 74.5691 97.5875 75.0191 97.3375L74.9391 95.6575L74.1491 95.4775C74.2691 94.9076 74.5791 94.7276 75.0291 94.4376C75.9391 93.8376 79.379 94.4676 80.439 94.1376C81.259 93.8876 81.919 90.9676 82.3089 90.3677C82.7089 89.7577 83.0089 90.0577 82.9289 89.0177L78.699 88.6677C78.029 88.5877 75.7291 87.6477 75.4491 87.3377C74.9691 87.3477 74.8591 87.4477 74.4191 87.5877C74.0191 87.7277 73.8492 87.7077 73.3992 87.7977C70.5592 88.4077 70.7192 87.3977 69.1293 88.0977C68.5793 88.3477 67.6393 88.1677 66.9293 88.2377C62.9094 88.6677 65.1394 88.5477 61.8294 90.3777C61.3095 90.6577 60.9295 91.0476 60.7995 91.6676C62.0094 93.0976 62.0994 92.1476 63.0094 92.7676C63.2194 93.8876 61.4695 94.0976 60.6995 94.9176Z"
            fill="#9DD3AF" stroke="#FEFEFE" stroke-width="0.677283" />
        <path fill-rule="evenodd" clip-rule="evenodd" class="state-map-path" id="anambar_state_ptUZF9ua0"
            d="M41.72 91.6676C41.68 92.1276 41.73 92.9176 41.8499 93.3176C42.1199 94.2076 42.5599 93.9576 43.0599 94.2376C43.9199 94.7276 44.1599 94.3376 45.1899 94.9876C45.7499 94.8076 44.8899 95.0275 45.5499 94.7776L46.6398 94.6776C46.8798 94.4476 46.7698 94.3876 47.0098 94.1676C47.3798 94.3076 47.1098 94.1576 47.5198 94.7276L47.4198 95.2375C47.3798 95.3275 47.3398 95.0275 47.3398 95.4675C47.3398 95.8075 47.4498 95.7375 47.7498 95.7975C47.9298 95.3675 47.7598 94.6376 47.8598 94.3376C47.9598 94.0476 47.8098 94.2076 48.0898 94.0376C48.5698 94.2076 48.4098 94.2376 48.3998 94.8376C49.7498 94.2176 49.5598 95.3775 49.5598 96.3275C49.3898 96.7075 49.7598 96.3875 49.2198 96.6775C49.9397 97.0475 50.9197 97.7775 51.1597 98.6975C51.4197 99.6574 51.0997 99.8674 51.1197 100.337C51.1497 100.927 51.5497 101.257 51.1997 102.227C51.5597 101.897 51.3497 102.037 52.0097 102.087L55.0996 102.437C56.7796 102.577 57.2696 103.217 58.8895 103.307C62.0494 103.467 65.0694 105.777 65.6794 105.637C66.1993 105.507 67.0093 103.647 67.2393 103.127C65.3494 102.907 64.5194 102.057 63.8694 101.807C63.2394 101.547 63.1294 101.437 62.7394 101.057L61.7295 100.167C61.3495 99.6074 61.4395 98.3475 61.3795 97.7275C61.1995 95.7475 60.2995 96.0275 60.6995 94.9176C59.9795 95.2875 59.7595 94.6776 59.7595 94.6776C58.7895 93.5576 59.5595 92.3076 57.8696 90.2177C57.5396 89.8177 57.2296 89.1877 56.9696 88.6777C56.0096 86.7978 55.1396 87.4477 53.4897 87.1277C52.6997 86.9877 52.3497 86.6978 51.4697 86.5978C50.6097 86.4978 49.8598 86.7078 49.6698 85.9978L48.9598 87.0777C47.7998 88.0577 47.9298 87.9177 46.7798 88.2377C46.2698 88.3677 46.2498 88.7077 45.9398 89.0677C45.1899 89.9677 43.9999 90.4977 42.9299 91.1776C42.4299 91.4976 42.1699 91.4776 41.72 91.6676Z"
            fill="#D2E28B" stroke="#FEFEFE" stroke-width="0.677283" />
        <path fill-rule="evenodd" clip-rule="evenodd" class="state-map-path" id="anambar_state_B5sFDnZkM"
            d="M37.3501 91.5476C37.3601 92.0176 37.2401 92.3076 37.2201 92.7676C37.1801 93.4976 37.3101 93.4576 36.9601 93.9976C36.1701 95.2176 35.9301 94.4276 34.7301 94.7876C34.4001 95.6975 33.4402 97.0675 33.2002 97.2475C32.5002 97.7475 32.6202 97.7375 32.1702 98.2175C31.9202 98.4875 32.1202 98.3075 31.7902 98.5275C31.5102 98.7175 31.3002 98.8575 30.9602 99.0375C30.3602 99.3475 29.6902 99.4375 29.2003 99.8174C28.5103 100.347 27.8703 100.727 27.8303 101.107C28.7503 101.477 29.8302 102.077 30.6502 102.497C31.1602 102.757 31.6002 102.967 32.0702 103.207C32.8202 103.577 33.1702 103.117 33.7401 103.687C34.2801 103.737 35.8001 103.877 36.2501 104.037C36.8401 104.247 36.5901 104.297 37.3801 104.377C38.99 104.537 39.1 105.027 40.78 105.297C41.24 105.367 41.65 105.367 42.0699 105.457C42.5299 105.557 42.7499 105.777 43.2099 105.777C44.2499 104.257 45.2499 104.887 46.9198 104.287C48.3298 103.777 48.0898 102.707 49.8497 102.217L50.1397 102.117L50.2097 101.007C50.3897 100.877 50.4597 100.877 50.6497 100.997L50.7197 102.227H51.1997C51.5497 101.257 51.1497 100.927 51.1197 100.337C51.0997 99.8674 51.4197 99.6574 51.1597 98.6975C50.9197 97.7775 49.9397 97.0475 49.2198 96.6775C49.7598 96.3875 49.3898 96.7075 49.5598 96.3275C49.5598 95.3776 49.7498 94.2176 48.3998 94.8376C48.4098 94.2376 48.5698 94.2076 48.0898 94.0376C47.8098 94.2076 47.9598 94.0476 47.8598 94.3376C47.7598 94.6376 47.9298 95.3676 47.7498 95.7975C47.4498 95.7375 47.3398 95.8075 47.3398 95.4676C47.3398 95.0276 47.3798 95.3276 47.4198 95.2376L47.5198 94.7276C47.1098 94.1576 47.3798 94.3076 47.0098 94.1676C46.7698 94.3876 46.8798 94.4476 46.6398 94.6776L45.5499 94.7776C44.8899 95.0276 45.7498 94.8076 45.1899 94.9876C44.1599 94.3376 43.9199 94.7276 43.0599 94.2376C42.5599 93.9576 42.1199 94.2076 41.8499 93.3176C41.7299 92.9176 41.6799 92.1276 41.7199 91.6676C41.42 91.4577 40.3 91.1977 39.83 91.2277C38.69 91.4177 38.76 91.6176 37.3501 91.5476Z"
            fill="#91D8F7" stroke="#FEFEFE" stroke-width="0.677283" />
        <path fill-rule="evenodd" clip-rule="evenodd" class="state-map-path" id="anambar_state_cb0RQmphu"
            d="M45.7299 66.7982C45.8699 67.5682 46.0798 67.5782 46.4298 68.1582C47.2198 69.4582 47.8198 71.1181 48.1498 72.7281L47.6698 73.2981C47.5898 72.6381 47.8498 72.3081 47.3098 72.1281C46.9698 72.3681 47.0898 72.1381 47.0798 73.3981C47.0698 74.788 46.9698 74.528 47.4198 74.648C47.8598 74.368 47.4198 74.468 47.7498 73.9581C47.7998 73.9781 48.0898 74.368 48.1698 74.528C48.2898 74.768 48.4298 75.128 48.0798 75.478C48.1298 76.458 47.6598 76.518 48.3598 77.468C49.0898 78.4479 50.0998 78.9879 51.2897 79.6679C51.8997 80.0079 52.2097 80.2479 52.9597 80.5379L52.9797 80.9979C54.2696 80.7879 56.7096 79.1679 57.1896 78.158C57.9796 76.498 58.7595 76.478 59.6295 75.808C60.0695 75.478 60.1495 74.798 60.3295 74.1681C60.5695 73.3481 60.8895 73.2281 61.1495 72.6481C61.3895 72.0881 61.4095 71.1381 61.4095 70.5081C61.8695 70.2182 62.1995 70.3181 62.2095 69.5082C62.2095 68.8682 61.8895 68.5582 61.3295 68.4982L61.2595 66.9382L60.8995 65.9583C59.5295 65.7383 57.9296 66.4982 56.7496 65.7483L55.5196 64.7383C54.3296 63.7183 55.0596 63.9283 54.3096 63.7083C53.1597 63.3583 52.3597 62.5183 50.8097 62.9883C49.9098 63.2583 50.0798 63.3883 49.4198 63.8383C48.9798 64.1483 49.3098 63.9483 49.1498 63.9083C48.5798 63.7783 49.7198 63.7383 48.7698 63.8083C48.4398 63.8283 48.2698 64.0583 48.0898 64.2783C48.0798 63.8583 48.1498 63.4783 47.9798 63.1483L47.6398 63.1783C47.3198 63.7883 47.8398 65.0883 47.2898 65.5983C47.1098 65.7683 46.6298 65.9683 46.3598 66.1083C45.7499 66.4182 45.9799 66.3482 45.7299 66.7982Z"
            fill="#91D8F7" stroke="#FEFEFE" stroke-width="0.677283" />
        <path fill-rule="evenodd" clip-rule="evenodd" class="state-map-path" id="anambar_state_CJ4WSZ4pa"
            d="M19.4605 81.9079C18.9505 81.9979 18.2205 82.4479 17.8005 82.7479C17.7505 83.4478 17.7805 84.2678 17.7805 84.9778C17.7805 85.3878 17.7805 85.6678 17.8705 86.0278C17.9105 86.2178 17.9405 86.3278 17.9805 86.4578C18.1805 87.0877 18.1705 86.8777 18.6405 87.1577L18.8905 87.3477C18.9105 87.3577 18.9305 87.3877 18.9505 87.3977L19.8805 88.0277C19.9005 88.0377 19.9305 88.0577 19.9505 88.0677C20.5705 88.4877 20.1905 88.6277 21.0305 88.6577C21.8704 88.6777 22.3604 88.4877 22.5004 88.8677C22.5404 89.2577 24.5704 89.0877 25.2703 89.0877C26.6603 89.1077 26.5303 89.1577 27.1603 88.7577C28.0303 88.1977 27.4303 88.8277 28.2003 88.0177C28.4703 87.7377 29.5102 87.0277 29.6902 86.7278C29.8802 86.4278 29.8402 86.3778 30.1402 86.1778L30.8702 85.8078C31.3802 85.7178 31.2802 85.8678 32.2002 85.7178L33.0402 86.4478C33.6301 87.1977 34.0501 88.1877 34.4601 89.0377C34.9201 89.9977 34.8801 91.1176 37.35 91.5476C38.76 91.6176 38.69 91.4176 39.83 91.2276C40.24 90.4577 39.76 88.1377 40.7 85.7078C40.92 85.1178 41.01 85.2978 41.13 84.5778C41.34 83.2978 41.7199 83.0578 41.4399 81.9579C41.3599 81.6479 41.22 80.9979 41.08 80.8179C40.74 80.7379 40.97 80.8179 40.69 80.7379C40.69 79.9379 40.57 79.9179 40.56 79.7779C40.55 79.7279 40.53 79.7179 40.52 79.6879C39.98 79.9679 40.03 80.1479 39.74 80.7279C38.4 80.7979 39.81 80.0479 37.7 81.8179C36.3101 82.9778 37.2101 82.0179 36.0701 83.4478C35.1701 83.4578 34.4401 83.4578 33.6701 83.1378C33.0902 82.8878 32.6002 82.3879 32.0102 82.1079C29.6502 81.0079 30.0202 82.7579 28.2303 82.9978C27.8803 83.0378 25.1004 81.9179 23.8204 81.9779C22.9504 82.0179 22.4004 82.3579 21.5604 82.4579C20.2205 82.6179 20.4505 82.3279 19.4605 81.9079Z"
            fill="#FDD1A1" stroke="#FEFEFE" stroke-width="0.677283" />
        <path fill-rule="evenodd" clip-rule="evenodd" class="state-map-path" id="anambar_state_NooTpR2rW"
            d="M23.5704 71.2681L23.5404 71.7881C23.8504 71.8681 23.6104 71.8181 23.8604 71.9281C23.9804 71.9781 24.1104 72.0281 24.1904 72.0681L24.2804 73.1781C24.6104 72.9381 24.3504 73.0581 24.7504 72.9081C26.1603 75.508 24.9704 74.2281 27.6003 74.738C28.9103 74.998 30.2002 74.848 31.5302 74.768C32.3102 74.728 32.7002 74.708 33.0402 74.1381C33.3602 73.2381 33.9801 73.3181 34.6001 72.8181L37.0601 70.9481C37.4601 70.5481 37.95 68.1682 38.05 67.6182C38.15 66.9882 38.35 67.0482 38.23 66.4182C37.96 64.9283 38.04 64.1283 38.26 62.4883C38.77 58.7884 38.95 60.3884 39.4 57.6385C39.35 57.3685 39.45 57.5885 39.29 57.4285C38.51 57.4685 37.2501 58.7684 36.2401 59.6484L35.7001 60.0184C34.4901 60.7984 33.5402 61.0284 32.9802 61.3984C31.1202 62.6183 32.1102 61.8484 31.1102 62.3183C30.7902 62.4783 30.6302 62.7083 30.3502 63.0083C29.8402 63.5483 28.7703 64.4783 28.4203 65.0883C28.2503 65.3883 28.2803 65.4483 28.0703 65.7383C27.0403 67.2182 27.7403 66.2782 26.6703 67.3382L26.1103 67.7782C26.0903 67.7882 26.0703 67.8082 26.0503 67.8282C25.4304 68.3082 25.6804 68.6882 25.4804 69.4782C25.2204 70.5281 24.8704 70.3081 24.0704 70.8781C23.8604 71.0281 23.7704 71.0881 23.5704 71.2681Z"
            fill="#9DD3AF" stroke="#FEFEFE" stroke-width="0.677283" />
        <path fill-rule="evenodd" clip-rule="evenodd" class="state-map-path" id="anambar_state_k5KjFjNpG"
            d="M24.2804 73.1781C23.0704 75.838 23.9604 74.348 23.5404 75.678C23.3804 76.198 22.9004 77.408 22.6004 77.958C21.9304 79.2379 21.9704 79.5079 21.3505 79.9379L19.5805 81.3479L19.4605 81.9079C20.4505 82.3278 20.2205 82.6178 21.5605 82.4578C22.4004 82.3578 22.9504 82.0179 23.8204 81.9779C25.1004 81.9179 27.8803 83.0378 28.2303 82.9978C30.0202 82.7578 29.6503 81.0079 32.0102 82.1079C32.6002 82.3878 33.0902 82.8878 33.6702 83.1378C34.4401 83.4578 35.1701 83.4578 36.0701 83.4478C37.2101 82.0179 36.3101 82.9778 37.7001 81.8179C39.81 80.0479 38.4 80.7979 39.74 80.7279C40.03 80.1479 39.98 79.9679 40.52 79.6879C40.53 79.7179 40.55 79.7279 40.56 79.7779C40.57 79.9179 40.69 79.9379 40.69 80.7379C40.97 80.8179 40.74 80.7379 41.08 80.8179L41.43 80.6379C41.41 80.5979 41.12 80.2879 41.17 79.5079C41.28 79.4079 41.24 79.4479 41.35 79.3479L41.51 79.1879C41.33 78.7479 41.07 78.6779 41.03 78.5079C41.02 78.4479 40.99 78.4379 40.96 78.4079C40.55 78.6179 40.55 78.8179 40.55 78.8179L40.1 77.938C39.47 77.988 39.49 78.208 38.86 78.158C37.5301 78.068 34.9101 75.128 33.0402 74.1381C32.7002 74.708 32.3102 74.728 31.5302 74.768C30.2002 74.848 28.9103 74.998 27.6003 74.738C24.9704 74.228 26.1603 75.508 24.7504 72.9081C24.3504 73.0581 24.6104 72.9381 24.2804 73.1781Z"
            fill="#F6AFCE" stroke="#FEFEFE" stroke-width="0.677283" />
        <path fill-rule="evenodd" clip-rule="evenodd" class="state-map-path" id="anambar_state_nBxHqWnOw"
            d="M22.5004 88.8677C21.8004 88.8477 20.6805 88.9577 20.1405 88.6377L19.5505 88.1177C19.1805 87.8277 19.2605 87.8177 18.9205 87.7277C18.9005 88.7077 19.6305 89.9277 19.7705 90.4677C19.8205 90.6477 19.8305 90.9476 19.8705 91.1676L20.4505 93.5776C20.8505 94.4676 20.5905 94.2876 20.8205 94.6576C21.0705 95.0775 20.9305 94.4776 21.7504 95.9875C22.0404 96.5275 21.8604 96.1275 21.9804 96.2175C22.1904 99.1274 21.8404 97.1475 22.5104 98.9774C22.6704 99.4274 23.0104 99.9274 23.4304 100.187C23.7904 100.407 24.0404 100.487 24.2704 100.877L24.3404 101.257C24.8204 101.347 24.7804 101.347 25.1504 101.677C25.2204 101.727 25.3304 101.817 25.3903 101.887C25.6703 102.187 25.5103 102.157 25.9203 102.457L27.6403 103.647C28.0803 104.007 27.6703 103.977 28.6103 104.107C28.7103 104.457 28.8403 104.477 29.2903 104.677L30.4002 105.137C30.4202 105.147 30.4502 105.167 30.4702 105.177L31.6202 105.597C31.9602 105.667 32.8102 105.637 33.2002 105.637C33.2202 105.047 33.1502 104.777 33.3802 104.317L33.5801 103.967C33.5901 103.947 33.6101 103.917 33.6201 103.897C33.7301 103.717 33.6601 103.837 33.7401 103.687C33.1702 103.117 32.8202 103.577 32.0702 103.207C31.6002 102.967 31.1602 102.757 30.6502 102.497C29.8302 102.077 28.7503 101.477 27.8303 101.107C27.5203 100.867 27.7203 100.477 27.8203 100.007C27.9203 99.5574 28.0103 99.1374 28.1003 98.7175C28.3703 97.4675 29.7102 92.7176 30.2602 91.9676L30.5002 91.2376C30.7702 90.6676 30.3802 90.4777 31.0102 90.1777C30.8302 90.0477 30.7602 89.9977 30.6302 89.7277L31.2102 89.4277C31.3302 88.6777 31.4902 88.4377 31.2502 87.6677C31.0302 86.9177 31.4002 86.6577 31.4702 85.9978L30.8702 85.8078L30.1402 86.1778C29.8402 86.3778 29.8802 86.4278 29.6902 86.7277C29.5102 87.0277 28.4703 87.7377 28.2003 88.0177C27.4303 88.8277 28.0303 88.1977 27.1603 88.7577C26.5303 89.1577 26.6603 89.1077 25.2704 89.0877C24.5704 89.0877 22.5404 89.2577 22.5004 88.8677Z"
            fill="#D2E28B" stroke="#FEFEFE" stroke-width="0.677283" />
        <path fill-rule="evenodd" clip-rule="evenodd" class="state-map-path" id="anambar_state_hhCb7klNW"
            d="M41.17 79.5079C41.12 80.2879 41.41 80.5979 41.43 80.6379L41.08 80.8179C41.22 80.9979 41.36 81.6479 41.44 81.9579C41.72 83.0578 41.34 83.2978 41.13 84.5778C41.01 85.2978 40.92 85.1178 40.7 85.7078C39.76 88.1377 40.24 90.4577 39.83 91.2276C40.3 91.1976 41.42 91.4576 41.72 91.6676C42.17 91.4776 42.43 91.4976 42.9299 91.1776C43.9999 90.4977 45.1899 89.9677 45.9399 89.0677C46.2499 88.7077 46.2699 88.3677 46.7798 88.2377C47.9298 87.9177 47.7998 88.0577 48.9598 87.0777L49.6698 85.9978C49.6698 85.2178 50.0298 85.0278 50.0998 84.4578C50.2798 84.7378 50.4598 84.8878 50.9997 84.8678C51.6897 84.8478 51.6297 84.5778 51.7497 84.0878C50.9797 84.0978 51.2597 84.3178 50.7597 84.3278C50.5698 84.0478 50.5798 83.7278 50.7597 83.4178C51.2497 83.4078 50.8697 83.5778 51.6497 83.6378C51.5297 82.9378 51.6097 83.2478 51.1897 82.8578C51.4497 82.5179 51.6697 82.2879 52.0197 81.8979C52.1697 81.7279 52.2797 81.5479 52.4197 81.4179C52.5497 81.2979 52.8397 81.0979 52.9797 80.9979L52.9597 80.5379C52.2097 80.2479 51.8997 80.0079 51.2897 79.6679C50.0998 78.9879 49.0898 78.448 48.3598 77.468C47.6598 76.518 48.1298 76.458 48.0798 75.478C47.4998 75.148 46.4699 75.278 45.7099 75.368C45.2399 76.078 45.3499 77.008 45.0699 77.818C44.8099 78.5579 44.3999 79.3179 43.5199 79.4679L43.4399 79.3179C43.2899 79.0979 43.2999 79.0379 43.0499 78.9279C42.7499 78.7979 42.53 78.8379 42.3 78.9679C42.3 78.9479 42.3 78.6379 42.3 78.6179C42.17 78.228 42.34 78.378 41.97 78.198C41.58 78.428 41.62 78.168 41.66 79.5679L41.17 79.5079Z"
            fill="#9DD3AF" stroke="#FEFEFE" stroke-width="0.677283" />
        <path fill-rule="evenodd" clip-rule="evenodd" class="state-map-path" id="anambar_state_QykJieAD2"
            d="M40.1 77.938L40.55 78.8179C40.55 78.8179 40.55 78.6179 40.96 78.408C40.99 78.438 41.02 78.448 41.03 78.508C41.07 78.6779 41.33 78.7479 41.51 79.1879L41.35 79.3479C41.24 79.4479 41.28 79.4079 41.17 79.5079L41.66 79.5679C41.62 78.168 41.58 78.428 41.97 78.198C42.3399 78.378 42.1699 78.228 42.2999 78.6179C42.2999 78.6379 42.2999 78.9479 42.2999 78.9679C42.5299 78.8379 42.7499 78.7979 43.0499 78.9279C43.2999 79.0379 43.2899 79.0979 43.4399 79.3179L43.5199 79.4679C44.3999 79.3179 44.8099 78.558 45.0699 77.818C45.3499 77.008 45.2399 76.078 45.7099 75.368C46.4698 75.278 47.4998 75.148 48.0798 75.478C48.4298 75.128 48.2898 74.768 48.1698 74.5281C48.0898 74.3681 47.7998 73.9781 47.7498 73.9581C47.4198 74.4681 47.8598 74.3681 47.4198 74.648C46.9698 74.5281 47.0698 74.788 47.0798 73.3981C47.0898 72.1381 46.9698 72.3681 47.3098 72.1281C47.8498 72.3081 47.5898 72.6381 47.6698 73.2981L48.1498 72.7281C47.8198 71.1181 47.2198 69.4582 46.4298 68.1582C46.0799 67.5782 45.8699 67.5682 45.7299 66.7982C45.6999 66.3383 45.4399 65.7883 45.0899 65.6383L44.5799 65.7083L44.5199 64.3783C44.3199 64.2483 44.2799 64.2683 44.0799 64.3783C44.0799 64.9183 44.1599 65.3283 43.9499 65.7683L43.5299 66.4882C43.5199 66.5182 43.4999 66.5482 43.4899 66.5682C43.2099 67.0182 43.2099 66.7182 42.1399 67.0182C41.67 67.1382 41.97 66.9782 41.66 67.2982C40.62 68.3582 41.92 69.1282 42.0999 69.9482C40.77 71.2781 39.43 70.0182 37.9601 72.1581C37.5001 72.8281 36.7601 73.4281 37.5801 74.4481L39.77 77.278C39.93 77.578 39.89 77.638 40.1 77.938Z"
            fill="#FDD1A1" stroke="#FEFEFE" stroke-width="0.677283" />
        <path fill-rule="evenodd" clip-rule="evenodd" class="state-map-path" id="anambar_state_mjYjMxnEU"
            d="M39.4 57.6385C38.95 60.3884 38.77 58.7885 38.26 62.4884C38.04 64.1283 37.96 64.9283 38.23 66.4183C38.35 67.0483 38.15 66.9883 38.05 67.6182C37.95 68.1682 37.4601 70.5482 37.0601 70.9482L34.6001 72.8181C33.9801 73.3181 33.3602 73.2381 33.0402 74.1381C34.9101 75.1281 37.5301 78.068 38.86 78.158C39.49 78.208 39.47 77.988 40.1 77.938C39.89 77.638 39.93 77.578 39.77 77.278L37.58 74.4481C36.7601 73.4281 37.5001 72.8281 37.96 72.1581C39.43 70.0182 40.77 71.2781 42.0999 69.9482C41.9199 69.1282 40.62 68.3582 41.6599 67.2982C41.9699 66.9783 41.6699 67.1383 42.1399 67.0183C43.2099 66.7183 43.2099 67.0183 43.4899 66.5683C43.4999 66.5483 43.5199 66.5183 43.5299 66.4883L43.9499 65.7683C44.1599 65.3283 44.0799 64.9183 44.0799 64.3783C44.2799 64.2683 44.3199 64.2483 44.5199 64.3783L44.5799 65.7083L45.0899 65.6383L45.0399 64.0683C44.6199 63.7183 44.5299 63.8883 44.3099 63.2583L42.9999 60.0084C42.3899 58.7285 41.45 57.2485 39.89 57.1485C39.46 57.2485 39.65 57.1685 39.4 57.6385Z"
            fill="#D2E28B" stroke="#FEFEFE" stroke-width="0.677283" />
        <path fill-rule="evenodd" clip-rule="evenodd" class="state-map-path" id="anambar_state_nhBtlqhN2"
            d="M30.8702 85.8078L31.4702 85.9978C31.4002 86.6578 31.0302 86.9178 31.2502 87.6677C31.4902 88.4377 31.3302 88.6777 31.2102 89.4277L30.6302 89.7277C30.7602 89.9977 30.8302 90.0477 31.0102 90.1777C30.3802 90.4777 30.7702 90.6677 30.5002 91.2376L30.2602 91.9676C29.7103 92.7176 28.3703 97.4675 28.1003 98.7175C28.0103 99.1375 27.9203 99.5574 27.8203 100.007C27.7203 100.477 27.5203 100.867 27.8303 101.107C27.8703 100.727 28.5103 100.347 29.2003 99.8174C29.6903 99.4374 30.3602 99.3474 30.9602 99.0375C31.3002 98.8575 31.5102 98.7175 31.7902 98.5275C32.1202 98.3075 31.9202 98.4875 32.1702 98.2175C32.6202 97.7375 32.5002 97.7475 33.2002 97.2475C33.7202 97.8875 34.5301 94.2376 34.4001 96.2275C34.7601 95.9375 34.2601 96.0875 34.7301 94.7876C35.9301 94.4276 36.1701 95.2175 36.9601 93.9976C37.3101 93.4576 37.1801 93.4976 37.2201 92.7676C37.2401 92.3076 37.3601 92.0176 37.3501 91.5476C34.8801 91.1176 34.9201 89.9977 34.4601 89.0377C34.0501 88.1877 33.6302 87.1977 33.0402 86.4478L32.3602 85.7878L30.8702 85.8078Z"
            fill="#F6AFCE" stroke="#FEFEFE" stroke-width="0.677283" />
        <path fill-rule="evenodd" clip-rule="evenodd" class="state-map-path" id="anambar_state_dh9mAwRJO"
            d="M16.8206 72.3481C16.4206 72.3581 16.0406 72.2981 16.2506 72.6081C16.3606 72.7181 16.5506 72.8681 16.6206 73.0281C16.6306 73.0581 16.6706 73.3281 16.6506 73.3781C16.4906 73.9581 16.4606 73.7081 16.8306 74.3781L16.3606 75.998C16.8406 76.098 16.4706 76.128 16.9506 76.258C17.6005 76.428 18.2705 76.108 18.7505 76.798C19.3005 77.588 19.1005 78.5179 19.0805 79.5379C19.1305 79.8579 19.2605 80.0879 19.3405 80.3279C19.4505 80.6379 19.5105 81.0079 19.5805 81.3479L21.3504 79.9379C21.9704 79.5079 21.9304 79.2379 22.6004 77.958C22.9004 77.408 23.3804 76.198 23.5404 75.678C23.9604 74.3481 23.0704 75.838 24.2804 73.1781L24.1904 72.0681C24.1104 72.0281 23.9804 71.9781 23.8604 71.9281C23.6104 71.8181 23.8504 71.8681 23.5404 71.7881L23.5704 71.2681C22.9604 71.7681 22.8104 72.0081 22.1704 71.9781C21.5304 71.9481 20.9705 71.8081 20.2605 71.8081C19.4205 71.8081 17.5005 72.5081 16.8206 72.3481Z"
            fill="#D2E28B" stroke="#FEFEFE" stroke-width="0.677283" />
        <path fill-rule="evenodd" clip-rule="evenodd" class="state-map-path" id="anambar_state_dOHN2d8as"
            d="M15.7306 77.858L15.5906 78.578L15.3406 79.7279C16.4206 79.8179 15.9706 79.9479 17.0706 79.6479C17.7705 79.4679 18.5005 79.7879 19.0805 79.5379C19.1005 78.518 19.3005 77.588 18.7505 76.798C18.2705 76.108 17.6006 76.428 16.9506 76.258C16.4706 76.128 16.8406 76.098 16.3606 75.998L15.7306 77.858Z"
            fill="#F6AFCE" stroke="#FEFEFE" stroke-width="0.677283" />
    </svg>