<svg viewBox="0 0 1134 1427" fill="none" xmlns="http://www.w3.org/2000/svg">
    <path fill-rule="evenodd" clip-rule="evenodd" class="state-map-path" id="bauchi_state_foNDAeZrx"
        d="M1088 1245L1087 1243C1086 1246 1088 1244 1086 1245L1073 1235C1072 1235 1072 1235 1071 1234L1014 1192C1006 1187 1000 1184 993 1179L982 1169C979 1166 976 1162 973 1159C971 1157 970 1155 968 1153C964 1148 959 1139 964 1132C973 1120 971 1120 985 1114C992 1110 1003 1111 1009 1108C1012 1107 1014 1107 1017 1107C1019 1103 1020 1105 1021 1100C1011 1099 999 1100 990 1103C988 1104 988 1104 986 1105C980 1107 974 1112 968 1115L943 1123C931 1125 931 1127 918 1119C916 1118 916 1118 914 1116C892 1102 901 1118 880 1110C861 1103 838 1071 825 1060C822 1059 815 1052 812 1051C811 1051 809 1051 807 1050C804 1050 807 1050 803 1049C796 1047 780 1044 774 1048C771 1062 774 1086 773 1102C773 1110 772 1108 771 1115L768 1126C767 1131 761 1142 761 1146C761 1149 762 1149 763 1152C763 1159 763 1166 763 1173C763 1192 740 1184 736 1184C728 1184 730 1185 724 1183C720 1181 722 1183 713 1180C711 1179 710 1179 707 1179C705 1178 706 1178 703 1177C699 1176 693 1177 689 1176C686 1175 682 1174 678 1174C669 1174 659 1174 650 1174C634 1174 641 1173 629 1181C625 1183 627 1180 625 1184L622 1189C618 1197 614 1205 612 1213C611 1216 610 1216 610 1218C609 1220 610 1221 609 1224C609 1226 608 1227 607 1230C607 1232 607 1233 606 1236C605 1241 605 1242 604 1248C604 1252 601 1259 599 1263C593 1275 596 1267 594 1278C593 1280 593 1281 592 1283C598 1285 603 1288 608 1290C618 1295 627 1295 636 1298L659 1310C671 1315 679 1319 690 1326C696 1329 700 1331 705 1335C711 1339 738 1350 745 1352C760 1356 774 1363 787 1369L823 1392C824 1393 826 1393 827 1394C837 1401 848 1406 858 1412L874 1422C881 1426 886 1428 893 1425C895 1423 898 1422 900 1420C913 1413 921 1407 936 1409C942 1409 948 1413 955 1414C963 1414 968 1414 976 1411C978 1410 978 1410 979 1409L1032 1386C1037 1384 1042 1380 1048 1378C1055 1376 1065 1378 1070 1380C1073 1381 1075 1380 1079 1382L1099 1385C1109 1386 1125 1388 1133 1385C1134 1377 1130 1375 1126 1370C1119 1361 1114 1349 1109 1339L1102 1324C1097 1314 1100 1275 1090 1253C1088 1250 1087 1249 1088 1245Z"
        fill="#9DD3AF" />
    <path fill-rule="evenodd" clip-rule="evenodd" class="state-map-path" id="bauchi_state_QpYZXgzDp"
        d="M557 707C554 705 550 707 545 705C541 703 535 704 531 703C523 703 523 701 518 701H473C458 701 455 696 446 696C446 704 447 705 448 713C449 719 447 724 447 730C445 742 447 753 444 763C442 768 444 774 442 779L435 799C435 800 434 801 434 802L428 819C424 830 426 828 425 833C424 836 423 835 423 840C423 845 423 844 421 847C420 851 421 852 420 855C419 863 416 864 417 876C418 883 417 900 421 909L427 920C429 925 431 928 435 930C446 925 461 930 474 930C485 930 505 933 515 937C543 949 539 940 549 963C551 967 555 971 557 976C560 981 560 984 565 995C573 1010 582 1009 599 1005C608 1003 606 1005 615 1000L629 992C632 991 635 990 637 989L654 984C656 983 656 983 657 982C667 979 697 972 706 972C725 970 725 972 741 964C744 963 744 963 745 961L748 955C758 933 765 927 782 909C784 907 785 906 788 904C794 899 802 896 811 894C815 894 814 892 819 892C823 892 826 892 829 891C839 888 836 892 846 893C849 893 873 872 875 868C876 867 875 868 876 867L887 858C886 858 886 858 886 858C886 858 886 858 885 857C877 853 872 855 875 843C876 837 885 829 885 824C870 823 868 825 856 814C855 813 855 813 855 813C848 806 843 798 850 791C860 780 869 787 880 787C890 788 888 786 896 785C900 784 906 781 908 779V771C903 769 898 770 894 772L881 777C873 781 866 784 853 783C850 782 849 782 847 781C841 779 833 778 828 774L799 760C792 757 789 756 783 751C774 743 775 746 764 735C758 727 758 720 757 708C757 697 756 688 752 678C749 678 746 678 743 679C742 679 742 680 740 681C724 689 726 688 717 700C714 703 716 699 715 703C711 719 722 730 722 739C722 745 713 746 709 747C705 747 703 747 700 746L691 744C686 742 682 739 677 736C667 728 657 733 644 736C641 737 640 737 636 738C632 740 632 739 627 740C616 741 625 743 609 740C606 739 603 739 600 739L574 732L570 729C557 718 560 712 557 707Z"
        fill="#9DD3AF" />
    <path fill-rule="evenodd" clip-rule="evenodd" class="state-map-path" id="bauchi_state_TLAO6ghK3"
        d="M43.0007 825C49.0007 821 57.0007 818 62.0007 814C72.0007 807 67.0007 808 81.0007 803C89.0007 801 101.001 803 109.001 805L123.001 811C134.001 817 134.001 814 143.001 821C149.001 826 148.001 829 152.001 834C161.001 847 211.001 839 224.001 838C231.001 838 250.001 834 257.001 831C268.001 825 266.001 821 288.001 821C296.001 821 303.001 821 310.001 821C319.001 820 322.001 818 329.001 818C335.001 818 345.001 819 350.001 818C356.001 817 361.001 814 368.001 813L401.001 803C407.001 801 411.001 799 417.001 797L423.001 795C425.001 794 424.001 794 425.001 794C433.001 790 432.001 796 436.001 786C438.001 779 438.001 776 439.001 769C441.001 764 439.001 762 441.001 757C443.001 754 442.001 748 442.001 744C443.001 735 443.001 725 443.001 716C443.001 710 443.001 701 442.001 696C442.001 693 441.001 694 441.001 691C439.001 684 440.001 679 437.001 673L431.001 658C429.001 652 431.001 651 432.001 647C435.001 638 441.001 628 443.001 622C443.001 620 443.001 618 443.001 615C445.001 612 446.001 608 444.001 603C438.001 600 427.001 603 421.001 601C413.001 598 412.001 574 400.001 571C391.001 568 390.001 566 381.001 570C379.001 571 378.001 571 376.001 572C372.001 574 367.001 576 363.001 577C358.001 579 339.001 572 333.001 570L329.001 568C317.001 564 306.001 559 294.001 558L262.001 552C256.001 550 248.001 553 242.001 556L233.001 559C230.001 560 228.001 562 224.001 564L218.001 566C192.001 575 198.001 558 185.001 561C183.001 561 184.001 562 180.001 562C176.001 563 172.001 566 168.001 569C166.001 571 162.001 573 160.001 574C159.001 576 157.001 579 155.001 582L135.001 600C132.001 602 131.001 602 128.001 605C119.001 616 118.001 610 105.001 634L89.0007 656C87.0007 659 85.0007 661 83.0007 663C79.0007 668 74.0007 671 68.0007 673C63.0007 674 62.0007 675 58.0007 675C49.0007 675 42.0007 671 35.0007 675C31.0007 677 33.0007 675 31.0007 678L27.0007 687C26.0007 689 27.0007 690 26.0007 692C26.0007 694 25.0007 693 24.0007 696C24.0007 699 24.0007 700 23.0007 702C21.0007 709 19.0007 715 19.0007 722C19.0007 732 17.0007 738 18.0007 748C19.0007 763 18.0007 781 22.0007 795L24.0007 802C25.0007 806 28.0007 809 30.0007 812L43.0007 825Z"
        fill="#F6AFCE" />
    <path fill-rule="evenodd" clip-rule="evenodd" class="state-map-path" id="bauchi_state_LklZ8hPbe"
        d="M588 1280C590 1276 591 1270 593 1266C595 1262 598 1256 598 1253L603 1231C604 1228 604 1226 605 1223C609 1211 608 1211 614 1196C618 1187 622 1180 630 1175C644 1166 642 1169 660 1169C669 1169 669 1169 676 1170C682 1171 689 1170 694 1171C698 1171 698 1172 701 1173C704 1174 706 1173 709 1174C724 1179 741 1183 756 1180C760 1172 757 1159 757 1149C757 1141 761 1132 764 1124C765 1122 765 1120 766 1118C768 1112 770 1105 770 1098C769 1087 767 1079 768 1068C769 1063 770 1059 770 1053C770 1048 770 1043 770 1037C770 1033 771 1025 770 1021C769 1019 769 1019 768 1018C768 1017 768 1017 767 1015C765 1009 761 1003 758 997L749 978C747 974 747 971 744 968C737 970 731 975 723 975C719 975 714 974 710 975C699 977 697 976 687 979C672 983 658 986 645 991L635 995C625 998 609 1007 607 1008C601 1009 603 1010 597 1010L590 1012C573 1018 562 1000 556 986C554 981 553 976 550 971L545 963C544 960 543 956 541 954L535 949C534 949 534 949 532 948L509 939C501 937 493 937 485 935C476 933 469 934 459 934C454 933 453 932 448 931C446 931 444 931 442 932L438 935C439 939 442 941 443 945C444 948 443 949 444 952C446 957 445 965 447 972C448 977 448 978 449 985C449 991 450 993 451 997C452 1005 451 1012 453 1025C454 1029 453 1035 453 1039C453 1045 452 1048 451 1053C449 1062 445 1063 446 1076C446 1080 449 1082 451 1085L453 1088C453 1089 453 1089 454 1090L455 1091C456 1093 456 1092 456 1095C458 1106 456 1112 454 1121C453 1124 450 1129 449 1131C447 1136 446 1138 446 1144C446 1149 447 1147 448 1157C449 1161 448 1159 450 1162C452 1163 452 1164 453 1166C456 1169 457 1171 460 1173C462 1175 463 1176 464 1178C466 1179 467 1180 468 1181C473 1186 478 1190 484 1194C500 1209 492 1202 509 1213L526 1225C543 1237 579 1279 588 1280Z"
        fill="#F6AFCE" />
    <path fill-rule="evenodd" clip-rule="evenodd" class="state-map-path" id="bauchi_state_WjENiMNrr"
        d="M784.001 160C785.001 160 785.001 160 786.001 160C794.001 161 799.001 155 807.001 156C815.001 156 825.001 170 827.001 174C835.001 192 823.001 201 819.001 214C816.001 225 817.001 219 819.001 230C821.001 237 826.001 247 829.001 254C833.001 263 827.001 277 831.001 286C831.001 287 831.001 286 832.001 288C832.001 289 832.001 290 833.001 291C845.001 293 854.001 288 863.001 296C876.001 306 858.001 310 851.001 313C848.001 314 840.001 324 840.001 327C841.001 333 845.001 333 848.001 336C850.001 339 852.001 347 861.001 358L880.001 373C883.001 376 884.001 380 887.001 384C892.001 390 896.001 398 902.001 403C905.001 403 909.001 402 911.001 401C915.001 399 915.001 397 920.001 396C928.001 395 930.001 393 936.001 389L969.001 371C975.001 369 980.001 367 986.001 364C1000 357 1013 358 1032 349L1041 345L1037 338C1036 336 1035 333 1034 331L1023 301C1015 286 1020 267 1016 257L1011 242C1010 240 1010 237 1010 233C1009 225 1008 226 1008 214C1008 202 1009 186 1007 174C1006 162 991.001 147 984.001 137C980.001 131 984.001 126 983.001 119C983.001 113 982.001 106 982.001 99C982.001 95 983.001 92 982.001 90C981.001 88 981.001 89 980.001 86C980.001 84 980.001 83 979.001 81C976.001 80 977.001 80 974.001 80C967.001 78 962.001 75 955.001 75C947.001 74 936.001 67 920.001 76C910.001 82 898.001 87 889.001 78C885.001 74 886.001 72 884.001 68C880.001 67 876.001 73 867.001 77C858.001 80 849.001 81 840.001 85C825.001 91 815.001 102 807.001 116C806.001 119 800.001 131 799.001 132C798.001 132 797.001 133 797.001 134C797.001 134 796.001 134 796.001 135C796.001 135 796.001 135 795.001 135C795.001 136 795.001 136 795.001 136C794.001 137 794.001 138 794.001 138L793.001 139C793.001 140 793.001 140 793.001 140C793.001 141 791.001 143 791.001 144L789.001 146C789.001 147 788.001 147 788.001 148L787.001 149C786.001 150 785.001 151 785.001 151C784.001 151 784.001 152 784.001 152C783.001 153 783.001 153 783.001 154C782.001 155 783.001 155 783.001 156C784.001 157 785.001 158 784.001 160Z"
        fill="#9DD3AF" />
    <path fill-rule="evenodd" clip-rule="evenodd" class="state-map-path" id="bauchi_state_SmR27bUNc"
        d="M795 127C795 127 795 126 796 126V125C797 124 803 116 804 116C803 114 804 113 805 112L806 111L816 97C824 87 836 82 847 78C850 77 851 77 854 77C857 76 873 70 877 67C885 60 886 64 890 72C892 75 895 79 899 79C904 79 913 76 918 73C939 62 943 68 950 69C961 70 975 76 977 74C980 71 971 50 970 48C968 43 971 47 962 38C954 30 953 31 948 27L938 19C930 14 923 12 916 5.00001C915 4.00001 916 4.00001 914 3.00001C909 -1.99999 908 3.00001 895 10L888 14C876 24 868 30 853 37C852 37 851 37 851 37L847 40C846 41 846 41 845 41C841 43 849 39 844 42C842 43 841 44 840 45L830 50C821 55 825 45 823 39L818 30C811 17 791 25 778 29C776 30 777 30 774 31C769 32 754 38 752 41C750 43 748 48 747 50C744 57 746 56 744 60C742 64 743 67 741 71C740 78 730 112 728 120C719 129 722 148 711 157C713 163 708 174 705 179L700 194C700 195 700 195 700 195C700 198 703 205 704 209C705 212 704 216 705 219C711 222 713 224 718 229C724 236 727 245 731 253C733 258 733 264 737 271C739 276 739 275 744 277C749 279 747 279 754 279C759 279 760 280 765 281C774 282 778 280 787 283C793 284 803 284 808 286C813 287 815 286 819 288C821 288 822 288 824 289C826 290 825 290 828 291C828 287 825 285 825 280C825 277 826 273 826 268C826 250 817 242 814 226C811 212 822 205 823 195C825 180 827 177 816 165C813 162 812 160 808 161C798 161 786 168 781 161C780 161 779 160 778 159C778 159 777 158 777 157C777 157 777 156 777 155C777 154 776 152 777 151C778 150 778 149 779 149C779 148 780 147 780 147C781 146 782 145 783 144C783 144 784 144 784 143L785 142C785 141 786 141 786 140L787 139C787 138 788 135 789 135H788L789 133C790 133 791 132 791 131C792 131 792 130 792 130C793 129 793 129 794 129V128C795 127 795 127 795 127Z"
        fill="#F6AFCE" />
    <path fill-rule="evenodd" clip-rule="evenodd" class="state-map-path" id="bauchi_state_fB3WSgkDx"
        d="M775 1043C789 1043 803 1043 813 1048C833 1058 838 1073 859 1091C865 1097 876 1107 888 1107C894 1107 903 1105 908 1108C928 1120 922 1124 945 1117C979 1107 962 1111 985 1101C1005 1092 1008 1100 1022 1094C1023 1089 1021 1085 1021 1080C1020 1074 1021 1068 1021 1062C1021 1040 1022 1047 1023 1032V1007C1023 1004 1022 1005 1021 1001C1019 997 1018 993 1016 989L1012 981C1009 971 1009 973 1000 968C993 964 972 959 965 957L954 952C938 935 944 923 941 899C941 897 939 889 938 887C938 886 936 883 936 882H935C935 882 935 882 935 881C928 872 927 875 919 871L893 860C889 859 887 863 884 865L855 892C838 908 850 886 811 899C795 903 808 897 791 906C783 910 768 928 763 936C747 963 743 961 763 997C770 1011 772 1014 775 1028C776 1032 775 1038 775 1043Z"
        fill="#91D8F7" />
    <path fill-rule="evenodd" clip-rule="evenodd" class="state-map-path" id="bauchi_state_Z7z63gfCv"
        d="M944 695C946 693 947 692 949 690C946 691 947 691 944 692C945 688 945 689 948 687C948 686 948 686 948 686C954 681 957 680 964 677C968 676 966 675 971 675C976 675 982 675 986 673C993 670 1005 662 1010 656C1015 649 1019 637 1031 627C1032 626 1032 626 1033 625L1064 609C1079 601 1074 605 1083 594L1094 580C1097 577 1097 579 1097 575C1091 572 1084 575 1079 572L1071 565C1062 556 1069 542 1069 535L1045 521C1038 517 1031 503 1023 505C1019 505 1012 507 1006 506C1003 505 1005 505 1002 505C996 504 991 512 987 514L977 517C964 520 962 523 959 524C956 525 957 525 954 526C949 528 943 527 937 528C934 529 932 530 927 530C925 534 925 538 923 542L917 560C915 565 916 574 917 579C918 588 921 589 914 593C889 610 894 599 874 612C865 618 867 615 857 617C851 618 849 624 843 624C840 624 837 624 834 624L819 629C812 631 811 633 808 639C806 643 805 650 801 654C789 665 773 674 756 676C756 679 757 680 758 683C762 693 759 695 761 705C762 710 763 714 763 720C763 722 763 725 763 727C767 737 778 742 785 748C789 752 790 752 796 755L830 771C834 774 838 774 842 776L856 779C860 780 864 778 870 777C873 777 875 776 877 775L894 767C899 765 901 764 907 765C909 767 908 768 912 769C914 768 915 767 916 765C917 761 917 758 919 755L921 750C925 740 922 742 925 729C929 713 931 704 942 693C945 693 943 692 944 695Z"
        fill="#F6AFCE" />
    <path fill-rule="evenodd" clip-rule="evenodd" class="state-map-path" id="bauchi_state_U9bwnSXjP"
        d="M239 1267C239 1267 240 1266 241 1266H251C252 1265 253 1265 255 1265C256 1264 257 1264 258 1264C258 1264 259 1263 260 1263C261 1262 262 1262 263 1262C264 1261 265 1260 266 1260C266 1260 266 1260 267 1260C267 1259 269 1257 270 1257C270 1256 270 1256 271 1256C271 1255 273 1253 274 1253C274 1252 274 1252 275 1252C275 1251 275 1251 275 1251C275 1249 277 1248 278 1248L279 1247C279 1245 281 1244 282 1244H283C284 1244 284 1243 285 1243C286 1243 286 1242 287 1242H311C312 1242 313 1241 314 1241H318H319C320 1240 320 1239 322 1239H321C322 1239 322 1239 322 1239C323 1238 324 1237 325 1237C325 1237 324 1237 324 1236C322 1230 321 1223 317 1218L312 1211C309 1203 310 1194 314 1188L320 1170C322 1165 326 1159 329 1154C334 1147 339 1141 348 1137C357 1133 370 1130 373 1128L385 1123C394 1117 399 1117 406 1114C414 1111 417 1112 425 1112C425 1107 421 1104 418 1100C416 1098 415 1098 415 1095C414 1093 415 1089 415 1087C422 1082 424 1083 430 1079C433 1078 437 1078 439 1077C443 1075 442 1073 442 1068C442 1063 443 1062 445 1059C450 1047 448 1039 448 1026L444 983C443 976 443 968 441 962C439 950 441 945 433 935C428 928 423 924 419 914C418 913 416 908 416 906C415 903 415 899 414 896L412 874C412 864 416 854 417 844C418 840 419 840 420 835C421 828 423 822 425 816C427 810 430 805 430 798C415 799 412 804 405 806C396 808 389 810 381 813C378 814 376 813 374 814C372 815 373 815 369 816C363 817 363 818 358 820C352 823 310 825 302 825C295 826 276 825 272 827C263 830 260 835 251 837L238 840C234 842 230 842 226 842L184 846C179 846 176 845 171 844C158 844 158 845 149 836C146 832 146 830 143 826C138 819 130 820 123 816C119 814 117 812 112 811C95.0003 806 83.0003 802 66.0003 816C62.0003 819 49.0003 824 47.0003 828C49.0003 833 55.0003 837 57.0003 843C58.0003 844 58.0003 844 58.0003 845C63.0003 855 59.0003 875 54.0003 885C48.0003 898 44.0003 902 36.0003 914C32.0003 919 31.0003 926 24.0003 929C24.0003 939 23.0003 938 21.0003 947C18.0003 955 18.0003 962 13.0003 970C10.0003 975 3.00025 983 1.00025 988C-0.999748 994 4.00025 998 8.00025 1001C11.0003 1002 9.00025 1001 12.0003 1002C22.0003 1006 28.0003 1016 36.0003 1023C41.0003 1027 39.0003 1028 45.0003 1026C46.0003 1025 44.0003 1025 47.0003 1025C49.0003 1025 53.0003 1025 55.0003 1025C63.0003 1025 71.0003 1024 79.0003 1025L96.0003 1031C104 1035 107 1042 111 1049C112 1051 113 1052 114 1054C117 1060 120 1063 122 1069C131 1092 125 1165 127 1193C132 1194 131 1192 137 1191C142 1190 143 1189 148 1189C166 1188 203 1177 214 1179C220 1181 225 1186 229 1190C233 1195 235 1199 238 1206C242 1215 243 1243 241 1252L237 1268C238 1268 238 1268 239 1267Z"
        fill="#91D8F7" />
    <path fill-rule="evenodd" clip-rule="evenodd" class="state-map-path" id="bauchi_state_LwF0kggzK"
        d="M303 1400C310 1402 318 1401 326 1402C332 1402 336 1403 341 1403C346 1404 349 1407 353 1408C358 1409 364 1408 368 1410C384 1415 384 1414 396 1412H429C436 1411 438 1410 445 1409C466 1408 453 1412 473 1405C481 1402 493 1402 497 1395L505 1379C509 1372 507 1372 514 1363L515 1362C513 1362 512 1361 512 1359V1355C512 1355 511 1354 510 1353C509 1353 508 1352 508 1350C507 1349 506 1348 505 1347C504 1347 503 1345 503 1344L502 1343C501 1342 500 1341 500 1340C500 1340 499 1339 499 1338C498 1337 498 1336 498 1335C497 1334 497 1333 497 1331C496 1330 496 1330 496 1329V1323C495 1322 495 1321 495 1319C494 1318 493 1317 493 1316C493 1315 492 1315 492 1314L491 1313H481C481 1313 480 1314 479 1314C479 1314 478 1315 477 1315H463C462 1315 462 1316 461 1316H441C440 1316 439 1315 438 1315C437 1315 436 1315 435 1314H430C430 1314 429 1313 428 1313C427 1313 425 1313 424 1312H423C422 1312 421 1311 421 1310C420 1310 419 1309 418 1309C417 1309 416 1309 415 1308H397C396 1309 396 1309 394 1309C394 1309 391 1311 390 1311H365C365 1311 364 1312 363 1312C362 1313 361 1314 360 1314H350C349 1314 348 1315 348 1316C348 1317 347 1317 347 1318C347 1319 346 1319 346 1320C346 1321 345 1321 345 1322V1342C345 1343 344 1344 344 1344C344 1346 344 1346 343 1347C343 1349 341 1350 341 1351C341 1353 339 1354 338 1355L336 1358C336 1359 336 1359 336 1359L330 1364C330 1366 330 1366 329 1367C328 1368 328 1368 328 1368C327 1369 327 1369 326 1369L320 1375V1374C320 1375 320 1376 319 1377C319 1378 318 1379 317 1380C317 1380 317 1381 316 1382V1381C316 1382 316 1383 315 1384C315 1384 314 1385 313 1386V1385C313 1386 312 1389 311 1390C311 1392 311 1392 309 1394L308 1395C307 1396 305 1398 305 1398C304 1398 304 1399 304 1399C303 1400 303 1400 303 1400Z"
        fill="#F6AFCE" />
    <path fill-rule="evenodd" clip-rule="evenodd" class="state-map-path" id="bauchi_state_XZM5VWQk2"
        d="M232 1293L231 1288C227 1289 226 1293 224 1298C222 1302 219 1307 218 1310C213 1330 232 1332 235 1333C241 1336 245 1336 253 1340C265 1346 267 1357 270 1365C278 1381 273 1379 286 1391C290 1395 293 1397 297 1399C297 1398 297 1397 298 1396C298 1395 299 1394 300 1394C300 1393 301 1392 302 1392C302 1391 303 1390 304 1390C304 1389 305 1389 305 1389C305 1387 306 1387 307 1386V1385C307 1383 308 1382 309 1381C309 1380 310 1379 311 1379C311 1378 311 1378 311 1377C311 1376 312 1375 313 1374C313 1373 314 1372 315 1372C315 1371 315 1371 315 1371L322 1364H323C323 1363 324 1362 325 1362V1361L331 1355L333 1352C333 1351 334 1350 334 1350C335 1349 336 1346 337 1346C337 1345 337 1344 338 1344C338 1342 338 1342 339 1341V1321C339 1320 339 1319 340 1318C340 1318 340 1317 341 1316C341 1316 341 1315 342 1314C342 1312 343 1311 345 1311H344C345 1310 346 1309 346 1308C347 1308 348 1308 349 1308H358C359 1307 360 1306 360 1306C361 1305 362 1305 363 1305L390 1304C391 1303 392 1303 393 1303C393 1302 394 1302 395 1302H416C417 1302 418 1302 419 1303C420 1303 421 1303 422 1304C424 1304 424 1304 426 1306C427 1306 428 1306 429 1307C430 1307 431 1307 432 1308H437C437 1308 438 1308 439 1309C440 1309 441 1309 442 1310H459C460 1309 461 1309 462 1309H475C476 1308 476 1308 478 1308C478 1307 479 1307 480 1307H494C496 1307 497 1308 497 1310C497 1311 497 1310 498 1311C499 1312 499 1313 499 1314C501 1316 501 1316 501 1319C502 1320 502 1321 502 1322V1328C503 1329 503 1330 503 1332C504 1332 504 1333 504 1334C505 1335 505 1335 505 1337H506C506 1338 507 1338 507 1339C508 1339 508 1340 508 1341H509C509 1342 510 1342 510 1343C511 1343 511 1344 511 1345C512 1345 513 1346 513 1347C514 1347 514 1347 514 1347C514 1348 515 1348 515 1349C516 1349 516 1350 516 1351C517 1352 518 1353 518 1354V1359C520 1358 522 1359 526 1357C538 1352 538 1351 553 1350C555 1345 560 1344 558 1327C555 1256 565 1284 555 1256C551 1255 548 1250 545 1246C532 1234 534 1237 524 1229C511 1218 498 1212 490 1206C483 1199 477 1195 470 1188C464 1182 458 1175 451 1169C443 1159 442 1158 442 1139C443 1134 445 1131 448 1125C451 1117 455 1103 451 1094C450 1092 451 1092 450 1090L445 1082C439 1081 434 1081 430 1084C422 1088 414 1087 423 1100C428 1107 433 1108 429 1113C427 1115 428 1114 426 1115C426 1115 425 1115 424 1116H422C420 1117 423 1117 420 1117C418 1116 418 1114 413 1116L395 1122C394 1123 393 1123 392 1123C390 1124 388 1125 386 1127C378 1131 380 1131 384 1133L395 1140C403 1146 414 1150 419 1155V1156C421 1157 420 1156 420 1157C421 1157 422 1160 422 1161C426 1172 415 1171 413 1173C410 1176 415 1179 415 1184C416 1192 412 1189 413 1196L434 1197C437 1201 437 1208 435 1214C434 1217 434 1218 433 1221L430 1229C428 1235 423 1244 416 1245C412 1246 410 1244 407 1243C400 1241 398 1241 390 1240C378 1240 361 1240 350 1241C344 1242 340 1240 332 1241C332 1241 331 1241 330 1241C330 1242 328 1243 327 1243C327 1244 326 1244 325 1244C324 1245 324 1245 323 1245C322 1246 320 1247 319 1247H315C314 1247 314 1248 313 1248H290V1246C290 1248 289 1249 287 1249C286 1249 285 1250 285 1250C284 1251 282 1253 281 1254C281 1255 281 1255 280 1256L279 1257C278 1258 278 1258 277 1258L276 1259V1258C276 1259 276 1260 275 1261C274 1262 273 1262 272 1262V1263V1262C272 1263 272 1264 271 1265C270 1266 269 1266 268 1266C267 1268 267 1268 264 1268C263 1269 262 1269 261 1269C260 1270 260 1270 258 1270C257 1271 256 1271 254 1271C253 1272 253 1273 252 1273H243C242 1274 241 1274 240 1274C240 1274 239 1275 238 1275C238 1276 237 1277 235 1277L232 1293Z"
        fill="#9DD3AF" />
    <path fill-rule="evenodd" clip-rule="evenodd" class="state-map-path" id="bauchi_state_aLPsZGGtm"
        d="M622.001 350C624.001 354 621.001 351 626.001 354C629.001 356 634.001 357 638.001 359C642.001 361 642.001 362 645.001 364C648.001 365 651.001 366 654.001 367C662.001 371 683.001 375 681.001 388C679.001 403 652.001 418 639.001 417C632.001 417 627.001 413 620.001 412C600.001 410 610.001 426 582.001 446C562.001 460 538.001 450 533.001 456C532.001 457 529.001 463 528.001 465C526.001 469 521.001 477 523.001 482C524.001 483 524.001 484 525.001 486C526.001 489 529.001 495 533.001 497C537.001 498 552.001 494 556.001 492C571.001 486 564.001 502 572.001 517C575.001 522 575.001 528 579.001 532L595.001 554C597.001 557 596.001 556 598.001 557C600.001 554 600.001 550 603.001 547C607.001 542 606.001 543 608.001 537C608.001 536 609.001 533 610.001 533C610.001 532 612.001 531 610.001 527L604.001 511C602.001 505 598.001 497 599.001 490C600.001 486 601.001 486 601.001 479C601.001 466 615.001 462 619.001 452C623.001 445 630.001 430 639.001 427C645.001 425 652.001 429 658.001 432C663.001 435 662.001 435 665.001 438C668.001 440 670.001 441 674.001 442C683.001 445 683.001 447 689.001 437C692.001 431 694.001 424 701.001 424C710.001 424 714.001 429 719.001 432C725.001 437 732.001 433 739.001 432C747.001 431 757.001 431 765.001 432C770.001 432 772.001 432 776.001 433C780 434 784.001 434 788.001 434C810.001 434 802.001 452 801.001 468C803.001 471 804.001 471 805.001 473C808.001 476 809.001 481 811.001 484C812.001 485 815.001 487 817.001 488C823.001 490 825.001 486 831.001 486C839.001 485 848.001 486 856.001 485C858.001 485 860.001 484 863.001 483C869.001 482 872.001 483 878.001 482C882.001 480 890.001 481 893.001 479C897.001 477 895.001 478 899.001 477C912.001 473 928.001 474 938.001 465C945.001 459 945.001 455 940.001 448L927.001 426C926.001 424 925.001 423 924.001 421C922.001 419 921.001 418 921.001 415C919.001 405 922.001 405 923.001 400C918.001 400 916.001 402 913.001 404C909.001 407 907.001 407 900.001 407L889.001 392C886.001 389 884.001 387 882.001 384C879.001 380 881.001 379 877.001 376C869.001 370 856.001 357 850.001 349C847.001 345 847.001 343 845.001 340C845.001 340 838.001 334 838.001 333C835.001 332 833.001 336 831.001 338C827.001 342 819.001 348 813.001 348C810.001 348 790.001 338 785.001 336C776.001 333 769.001 337 761.001 338C746.001 340 739.001 354 722.001 354C711.001 354 709.001 351 701.001 348C696.001 346 696.001 347 690.001 345C682.001 343 673.001 339 666.001 336C648.001 330 644.001 336 631.001 345C628.001 347 625.001 349 622.001 350Z"
        fill="#D2E28B" />
    <path fill-rule="evenodd" clip-rule="evenodd" class="state-map-path" id="bauchi_state_FQ8uBStsz"
        d="M863 302C860 293 847 299 826 295C822 294 824 294 821 293C818 292 817 292 814 291C809 290 815 290 802 289C795 289 795 288 790 287C785 287 780 287 776 286C764 284 753 285 749 283C746 282 749 283 744 282C741 281 740 281 739 279C728 271 732 263 723 247V246C718 237 717 228 705 223C702 229 706 226 699 232C690 239 690 236 678 241C674 243 671 245 667 246L623 263C621 264 611 265 606 268C603 269 596 269 583 275L535 297C531 300 520 307 515 307C505 309 499 310 487 310C470 310 473 308 464 318L449 341C448 344 446 357 445 360C441 371 446 377 456 378C483 380 478 369 501 368C512 368 506 361 524 353C528 351 545 348 549 348C556 347 572 347 579 348C587 350 597 347 607 348C617 348 616 351 630 341C636 337 639 334 643 332C644 332 644 332 644 331C644 331 644 331 645 331C651 328 659 329 663 331C670 334 666 331 675 335L683 338C690 341 694 340 703 344C718 351 720 353 738 345L743 342C748 339 758 333 764 332C767 332 775 330 777 331C788 334 787 332 800 338C803 339 809 342 811 343C818 344 827 338 832 333C835 329 841 312 853 308C855 308 856 307 858 306C859 305 859 305 860 305C862 303 862 304 863 302Z"
        fill="#91D8F7" />
    <path fill-rule="evenodd" clip-rule="evenodd" class="state-map-path" id="bauchi_state_Mn3sPfsvo"
        d="M762 617C772 620 788 618 800 619C801 620 803 622 804 623C806 626 806 627 808 628C814 627 817 625 822 624C836 620 831 619 843 619C848 619 847 619 850 616C861 608 854 621 875 606C888 597 888 604 913 590C914 581 913 577 912 570C910 564 915 555 918 547C919 543 919 541 920 537C924 527 921 528 929 526C941 522 951 525 963 518C968 515 971 514 977 512C984 509 987 511 992 505C992 498 991 497 990 492C989 484 991 486 987 479C980 479 974 483 964 475C962 473 951 462 948 462C945 461 945 463 940 467C932 475 931 473 921 477C913 480 913 476 896 483C889 485 879 486 871 487C866 487 863 488 858 489C849 489 838 489 830 490C816 493 816 493 807 485C802 479 805 480 803 475C803 474 797 468 796 467C790 463 778 467 777 476C777 486 784 481 788 495C790 505 786 514 786 523C786 529 785 529 783 534C783 538 780 541 779 544L774 561C773 564 773 565 773 568C768 580 762 603 762 617Z"
        fill="#9DD3AF" />
    <path fill-rule="evenodd" clip-rule="evenodd" class="state-map-path" id="bauchi_state_GcNcXRLUD"
        d="M990.001 476C991.001 478 992.001 478 993.001 480C996.001 488 995.001 495 996.001 501C1005 501 1014 501 1022 501C1028 501 1029 500 1033 503C1039 509 1037 512 1045 517C1048 519 1050 520 1054 522L1066 530C1068 531 1068 531 1071 531C1076 514 1069 517 1081 490C1085 481 1085 461 1085 451C1084 445 1084 450 1082 445C1076 425 1075 421 1066 402C1064 399 1065 401 1064 399L1061 389C1059 382 1050 359 1046 353C1046 352 1046 350 1043 350C1039 349 1034 353 1027 356L1020 359C1013 361 1017 360 1010 361C1004 362 1007 362 1003 363C995.001 365 1002 362 989.001 367L983.001 370C983.001 370 983.001 370 982.001 370C982.001 370 981.001 370 981.001 371C974.001 375 965.001 377 953.001 383C952.001 384 952.001 384 951.001 384C943.001 389 929.001 396 925.001 405C923.001 409 925.001 418 930.001 424L937.001 434L938.001 436C938.001 437 938.001 437 938.001 437C940.001 442 948.001 452 949.001 456C951.001 463 953.001 460 958.001 464C960.001 466 960.001 467 962.001 469C976.001 479 972.001 473 990.001 476Z"
        fill="#91D8F7" />
    <path fill-rule="evenodd" clip-rule="evenodd" class="state-map-path" id="bauchi_state_MxPSFCpl4"
        d="M673.001 602L696.001 549C711.001 514 715.001 532 735.001 510C739.001 505 741.001 498 738.001 492L737.001 490C733.001 483 728.001 487 727.001 480C725.001 474 728.001 480 724.001 467C722.001 459 722.001 448 721.001 439C712.001 434 714.001 429 698.001 430C691.001 433 692.001 450 679.001 448C668.001 446 660.001 437 655.001 435C637.001 428 636.001 431 626.001 448C618.001 462 616.001 459 610.001 468C608.001 472 606.001 472 606.001 476C605.001 483 604.001 493 605.001 500C606.001 510 612.001 520 615.001 526C617.001 531 614.001 533 613.001 536C611.001 541 614.001 542 610.001 547C608.001 548 609.001 547 608.001 548C603.001 552 605.001 553 604.001 557C602.001 561 600.001 563 603.001 567L616.001 584C620.001 588 626.001 591 631.001 594C645.001 602 640.001 600 662.001 601C668.001 601 668.001 602 673.001 602Z"
        fill="#9DD3AF" />
    <path fill-rule="evenodd" clip-rule="evenodd" class="state-map-path" id="bauchi_state_nIWcrOGZM"
        d="M449 601C447 614 450 614 445 626C437 645 430 648 439 668L443 678C446 695 445 690 457 695C473 702 507 696 527 698C535 699 545 701 555 701C556 679 557 690 558 681C559 669 562 677 561 647L557 628L545 603C544 602 540 595 539 595C534 589 524 593 517 595C515 596 514 596 511 596C507 597 510 598 506 599C499 600 485 599 477 599C473 600 470 601 465 601C459 601 454 601 449 601Z"
        fill="#91D8F7" />
    <path fill-rule="evenodd" clip-rule="evenodd" class="state-map-path" id="bauchi_state_bNmJZuyLB"
        d="M732 482C738 484 742 486 744 495C744 498 743 501 742 505C742 507 742 507 740 509C729 526 710 526 704 541C699 554 690 574 683 589C682 592 682 590 681 593C679 602 679 598 679 603L735 615C740 616 751 616 757 616C757 614 762 587 765 576C766 573 766 576 767 572C768 570 768 567 768 566L773 550C774 543 780 537 780 529C781 520 783 528 783 505C783 500 784 495 782 492C780 486 779 488 775 484C765 474 784 461 788 460C792 459 794 463 798 464V441C791 436 786 439 777 438C774 437 773 436 771 436C762 434 728 437 726 440C723 444 727 444 727 454C727 469 728 462 729 467C731 471 729 476 732 482Z"
        fill="#F6AFCE" />
    <path fill-rule="evenodd" clip-rule="evenodd" class="state-map-path" id="bauchi_state_NwJWtFtcO"
        d="M511 367C513 368 514 368 516 369C528 373 529 373 535 394C536 396 535 398 536 400C539 407 543 431 542 438C542 443 538 444 538 450C547 450 558 451 565 448C569 447 571 448 575 445C586 440 593 433 598 422L600 419C614 397 623 410 639 413C643 414 642 414 645 413C647 412 644 413 647 412C655 409 661 407 667 401C669 399 672 396 674 394L677 383C674 380 665 376 661 375C659 374 658 373 656 373C655 372 653 371 652 371L639 364C638 364 638 364 638 364C629 360 632 362 623 357C616 352 615 353 606 353H550C540 353 536 353 527 357C525 357 520 360 518 361C514 362 512 365 511 367Z"
        fill="#F6AFCE" />
    <path fill-rule="evenodd" clip-rule="evenodd" class="state-map-path" id="bauchi_state_i1b0Sy3hB"
        d="M316.001 1211C317.001 1212 318.001 1213 319.001 1214C320.001 1216 320.001 1215 320.001 1217L322.001 1219C327.001 1226 324.001 1219 326.001 1229C329.001 1239 336.001 1237 351.001 1237C358.001 1237 359.001 1237 365.001 1236C370.001 1234 389.001 1235 394.001 1236C397.001 1237 397.001 1237 401.001 1237C407.001 1238 403.001 1238 407.001 1239C422.001 1245 425.001 1232 428.001 1223C429.001 1218 429.001 1221 430.001 1217C431.001 1207 432.001 1210 432.001 1202H414.001C411.001 1201 415.001 1203 412.001 1201C412.001 1200 412.001 1200 412.001 1200C412.001 1200 412.001 1200 411.001 1200C409.001 1198 411.001 1200 410.001 1198C408.001 1196 407.001 1196 407.001 1194C408.001 1190 407.001 1193 408.001 1191L409.001 1190C414.001 1181 410.001 1182 408.001 1176C407.001 1171 408.001 1172 410.001 1168C416.001 1168 419.001 1169 418.001 1162C417.001 1159 414.001 1156 412.001 1154L382.001 1136C367.001 1131 372.001 1135 365.001 1136C360.001 1136 358.001 1137 354.001 1139C348.001 1141 340.001 1144 337.001 1149L336.001 1151C334.001 1155 333.001 1154 329.001 1162L326.001 1166L323.001 1176C315.001 1198 315.001 1189 316.001 1211Z"
        fill="#D2E28B" />
    <path fill-rule="evenodd" clip-rule="evenodd" class="state-map-path" id="bauchi_state_fAJwcaxWo"
        d="M850 798C850 807 857 809 862 814L868 818C872 820 873 822 884 820C889 819 890 819 893 816L902 803C904 800 906 790 906 785C901 786 897 789 891 791C886 792 889 793 884 793C877 793 880 792 877 791C872 790 873 791 868 789C864 787 865 788 861 789C860 790 851 791 850 798Z"
        fill="#F6AFCE" />
</svg>