<svg viewBox="0 0 121 110" fill="none" xmlns="http://www.w3.org/2000/svg">
        <path fill-rule="evenodd" clip-rule="evenodd" class="state-map-path" id="bayelsa_state_Y8CDPIupA"
            d="M107.954 0.870232C108.594 2.09507 109.148 1.6836 109.406 4.27683C109.454 4.6883 109.511 4.6883 109.234 4.98494C109.072 5.15718 108.948 5.31986 108.823 5.51124C108.307 6.24806 108.298 6.0184 106.864 6.0184C105.479 6.0184 105.546 5.18589 103.51 5.84616C102.516 6.16193 102.622 7.04229 101.819 7.33893C100.194 7.96092 99.7547 7.51118 98.178 7.39635C97.6811 7.35807 97.7767 7.3485 97.4518 7.17626C96.888 6.88918 96.047 6.83177 95.5023 6.52556C94.9863 6.20978 94.8812 6.22892 94.2696 6.22892C93.314 6.22892 92.9509 6.74565 92.5113 7.30066C92.2055 7.69299 92.2151 7.69299 91.6035 7.75997C91.2308 7.79825 90.8486 7.9992 90.5237 8.1236C89.6828 8.46808 89.6063 8.9274 89.0425 9.47284C88.4692 10.047 88.1251 10.3341 88.1251 11.4536C88.1251 12.7837 89.6637 14.4009 88.6698 14.8315C88.4118 14.9464 88.4692 14.8985 88.2398 15.042C87.7716 15.3291 86.558 15.4439 86.0324 15.1377C85.6884 14.9272 84.0543 14.3244 83.7007 14.2861C82.4394 14.133 81.2162 14.0469 80.251 15.0133C79.7924 15.4727 79.4388 16.2286 79.4388 17.0324C79.4388 17.4822 79.6968 17.8649 79.821 18.2381C79.9453 18.6017 80.0217 19.2907 80.0695 19.6639C80.2319 20.8888 80.0886 21.4246 79.2954 21.9605C78.6934 22.1136 77.5467 21.0036 75.9413 22.659C75.7311 22.8791 75.7597 22.9461 75.5782 23.1662C75.1959 23.6638 74.957 24.2666 74.355 24.5441C73.3421 25.013 73.1414 24.6685 71.8227 23.7882C70.762 23.0705 70.7811 22.7547 69.3764 22.7547C69.0037 22.7547 68.803 22.8983 68.5832 23.0418C68.3157 23.2332 68.1341 23.281 67.8379 23.4533C67.0351 23.9126 66.5478 25.6924 66.5574 26.6685C66.5669 28.4292 65.8884 28.0464 63.9486 28.0464C63.3083 28.0464 62.5152 27.7881 62.0278 27.5775C61.292 27.2713 61.1869 27.0417 60.7569 26.458C60.2409 25.7594 59.5051 25.2714 59.0464 24.5537C58.731 24.0753 58.4539 23.5872 58.0334 23.1758C57.4027 22.5442 57.4027 21.9222 55.9789 21.5395C54.7844 21.2141 53.4848 21.1758 53.351 22.6495C53.3128 23.0418 53.437 23.5298 53.3224 23.9222C53.2364 24.1997 53.2555 24.1614 53.0261 24.2858C52.7012 24.4485 52.4814 24.4867 52.3381 24.8982C52.1374 25.5011 52.3381 26.7259 52.0323 27.1182C51.889 27.3 51.8507 27.2426 51.5832 27.2522C50.6562 27.2809 48.3246 27.4244 48.3246 28.477L48.3915 28.9172C48.1335 28.9746 48.0284 29.032 47.7035 29.0895C45.7445 29.4339 43.3746 29.4244 41.4443 29.4244C41.0812 29.4244 40.8327 28.9938 39.9249 29.2043C39.9249 31.032 39.7338 30.3239 38.9884 31.453C38.6826 31.3765 38.4342 31.1564 38.0424 31.1564C37.0008 31.1564 36.7045 32.1803 36.3796 32.1803C35.9496 32.1803 34.9558 31.5296 34.1913 32.3717C33.5511 33.0702 33.3982 35.1467 32.1846 35.1467C29.8625 35.1467 30.5792 34.563 28.926 34.563C27.8271 34.563 27.5499 35.2137 27.5499 36.2376C26.9575 36.2854 26.9575 36.3907 26.2694 36.0653C25.2756 35.5869 25.0081 35.4912 24.3487 34.5056C24.1862 34.2568 24.0525 34.0749 23.7562 33.941C22.9057 33.5582 21.9502 33.2711 20.9659 33.1946C20.9086 32.9362 20.8608 32.898 20.8225 32.6109C20.7843 32.2951 20.7843 32.2664 20.6792 32.0272C20.1727 32.0272 19.9434 31.9602 19.5134 31.9602C18.5005 31.9602 17.908 32.1229 16.9619 31.9028C16.4841 31.7975 15.4234 31.2903 15.0794 31.0416C14.0092 30.2569 13.8276 28.4101 12.2031 28.4101C11.1233 28.4101 10.7028 28.678 9.52741 28.4101C9.36496 27.7115 9.82364 27.3766 9.82364 26.5249C9.82364 25.4532 8.60048 25.1183 7.836 24.7355C6.11593 23.8647 6.28794 23.1758 4.07096 23.8073L2.90513 24.0944C2.39866 24.2379 1.58641 24.1518 1.14683 24.5059C0.898379 24.7068 0.974827 24.7451 0.841044 25.0035C0.506585 25.013 0.363246 25.1183 0.0478993 25.147C0.0383433 25.635 -0.0476603 25.9221 0.105235 26.4675C0.210351 26.8024 0.411026 27.2618 0.554365 27.5393C0.688148 27.8072 0.678592 27.7498 0.860156 27.9603C1.5673 28.745 2.33177 30.5822 2.80001 31.52L6.49817 40.2087C6.8613 41.0987 6.63195 41.8929 6.63195 43.0412C6.63195 44.6201 7.99846 45.5866 8.18957 46.2755C8.24691 46.4956 8.15135 46.754 8.15135 47.0985C8.15135 49.041 8.08446 48.4381 8.85849 50.0936C9.07828 50.5912 9.23117 50.9644 9.47963 51.4237C9.9192 52.2371 10.7506 53.7011 11.2761 54.4093C11.4195 54.6102 11.5055 54.7633 11.6584 54.9738L12.872 56.658C13.0153 56.8398 13.1204 57.0025 13.2733 57.1939C14.4487 58.6196 15.4617 60.1698 16.5893 61.6243C16.8951 62.0167 17.2295 62.2846 17.4875 62.6865C17.4589 63.1171 17.392 63.0119 17.478 63.4903C17.6117 64.2463 17.8984 65.0692 18.2138 65.7295L19.8096 69.0595C19.9243 69.2987 20.0485 69.4614 20.1727 69.7102C20.5263 70.4375 20.899 70.8776 21.3003 71.5475C21.4437 71.7771 21.5488 71.9685 21.6826 72.179C22.1699 72.9063 23.546 75.3464 24.0238 75.8536C24.4347 76.3033 24.6736 76.2746 24.9507 76.887C25.4763 78.0832 26.9192 79.0688 27.7888 80.0544C27.9608 80.2649 28.0086 80.3606 28.2189 80.5616C28.41 80.7529 28.5438 80.8869 28.7253 81.0687L31.1525 83.5662C31.3532 83.7768 31.4201 83.9107 31.6208 84.1213C32.6433 85.1547 35.6725 88.2742 36.5803 89.078C36.8001 89.2694 36.9052 89.3268 37.125 89.5469C37.3448 89.7766 37.4212 89.8244 37.6601 90.0254L38.9502 91.1928C39.084 91.2981 39.1031 91.3268 39.2273 91.432C41.0334 92.9631 42.9159 94.3793 44.9513 95.6233C45.4865 95.9486 45.6298 96.1113 45.9356 96.6663C46.0503 96.8864 46.2318 97.1065 46.2892 97.3266C46.5758 97.2213 46.2987 97.3075 46.5854 97.1065C46.6619 97.1735 46.5567 97.0969 46.7001 97.2022L48.5826 98.5036C49.5382 99.0873 50.4365 99.7571 51.4876 100.169L54.5933 101.623C54.9086 101.776 55.0329 101.901 55.3195 102.054C55.7591 102.303 56.3994 102.513 56.8963 102.714C57.3645 102.896 57.6416 103.058 57.9474 103.403C58.1099 103.594 58.1003 103.518 58.2341 103.7C57.183 105.69 60.2026 105.269 61.0627 105.939C62.0661 106.733 62.3145 106.322 63.3274 106.714C64.1301 107.02 64.952 107.068 65.812 107.269C66.3471 107.393 66.7103 107.613 67.2836 107.613C67.9239 107.613 67.8761 107.355 68.287 107.766C68.4399 107.929 68.4877 107.92 68.5163 108.188C68.5354 108.369 68.5068 108.714 68.5068 108.915C69.0419 109.173 69.6153 108.953 70.1982 109.106C70.6473 109.231 70.5231 109.231 70.9818 109.144C71.3162 109.087 71.4691 108.991 71.7654 108.991L75.2246 109.049C75.6164 108.991 76.0082 108.867 76.4669 108.848C76.8491 108.819 77.4607 108.762 77.7952 108.723C78.6552 108.599 79.6872 108.809 80.509 108.609C80.6715 108.57 80.8722 108.475 81.0633 108.436C81.8851 108.264 83.0605 108.752 83.0605 106.819C83.3567 106.79 83.2994 106.733 83.567 106.666C84.0352 106.982 83.9205 106.972 84.5417 107.058C84.9621 107.125 85.3444 107.25 85.7362 107.25C87.3702 107.25 89.0903 107.211 90.4568 106.982C90.8773 106.905 91.1448 106.924 91.5748 106.867C92.8936 106.695 93.572 106.532 95.0723 106.532C95.5406 106.532 95.789 106.427 96.1617 106.389L98.5316 106.226C98.9616 106.188 99.1145 106.082 99.6974 106.092C100.491 106.092 101.494 106.197 102.048 105.9C102.765 105.508 102.574 104.685 101.876 104.494C101.934 104.283 102.02 104.216 102.182 104.073C103.118 103.212 103.72 104.494 104.16 104.743C104.485 104.924 104.724 104.934 105.202 104.934C106.836 104.915 105.364 105.432 108.298 104.628C108.89 104.465 109.616 104.274 110.41 104.274L114.824 103.843C114.824 102.513 115.149 100.475 113.506 100.092C112.827 99.9294 112.072 100.025 111.633 99.4414C111.165 98.8194 111.174 94.2741 111.384 93.2884L111.757 92.0732C112.445 89.6618 112.665 90.1019 113.21 88.7431C113.487 88.035 113.573 87.0398 114.203 86.5518C115.771 85.3365 114.213 85.1164 114.337 84.1595C114.461 83.26 115.484 83.5567 116.153 82.3414C116.717 81.3271 116.535 81.0879 115.474 80.8008C115.054 80.686 114.901 80.4946 114.624 80.2075C114.461 80.0257 114.251 79.796 114.184 79.5568C114.06 79.174 114.289 79.2219 114.538 78.9157C115.407 77.8726 114.213 77.7291 113.812 77.1071C113.534 76.6765 113.659 75.9205 113.171 75.4995C112.999 75.3368 112.713 75.222 112.512 75.0785L111.872 74.6287C111.642 74.4086 111.681 74.179 111.633 73.7771C111.509 72.734 111.098 72.9828 111.919 72.1599L113.515 70.2844C114.05 69.5571 115.197 68.3418 116.134 68.2653V67.538C117.452 67.2318 117.051 67.0979 117.328 66.4185C117.682 65.5381 118.723 66.2558 119.822 64.1314C120.118 63.5573 120.377 63.1841 120.549 62.4664C120.013 62.1124 119.755 61.7009 119.067 61.4808C118.599 61.3181 117.538 61.0311 116.994 61.0119C116.459 61.0024 116.42 60.9258 115.895 60.9928C115.484 61.0502 115.073 60.9928 114.652 61.0598C113.506 61.2224 112.579 61.2799 111.661 61.8349C110.649 62.4473 110.801 62.5334 110.228 62.9353C109.941 63.1267 109.712 63.2607 109.464 63.4712C109.091 63.7678 107.83 65.1266 107.486 65.2606C107.4 65.2893 106.434 65.3659 106.291 65.3659C106.262 64.4377 105.765 64.2558 105.087 63.9592C104.552 63.7295 104.494 62.476 104.552 61.9688C104.628 61.3755 104.839 60.1698 104.714 59.6148C104.638 59.3182 104.647 59.3852 104.399 59.4043C104.16 59.4139 104.007 59.4426 103.835 59.5C103.51 59.6148 103.262 59.8445 102.956 59.9976C102.555 59.3947 102.383 58.7823 102.067 58.0742L100.844 55.0982C100.261 53.7394 100.28 52.8878 100.28 51.3089C100.28 49.4525 101.675 48.6104 102.383 47.175C102.583 46.7731 102.602 46.4765 102.765 46.0459C103.118 45.1272 105.23 44.1033 104.055 41.2231C103.644 40.2087 102.669 39.6537 101.886 38.9743C101.685 38.7925 101.437 38.6968 101.437 38.4097C101.437 36.8308 102.612 35.9026 103.147 34.5343C103.424 33.8166 103.978 33.2903 104.447 32.075C104.724 31.3478 104.944 30.764 105.297 30.0942C105.613 29.5105 106.062 28.9172 106.348 28.3239C106.549 27.9125 106.692 27.4244 106.855 27.0225C107.046 26.5537 107.256 26.1518 107.447 25.7211L108.059 24.4485C108.346 23.7021 108.871 22.5825 109.588 22.2189C109.846 22.0945 109.961 22.0466 110.238 21.9318C110.486 21.8265 110.629 21.7213 110.878 21.6256C112.33 21.0419 111.948 22.1423 113.238 20.2189C114.213 20.2189 114.939 20.1424 115.465 19.4055C116.344 18.1711 115.044 17.7788 115.044 16.9559C115.044 15.7406 115.99 15.8171 116.64 14.8602C116.506 14.2765 115.369 13.1856 114.882 12.6976C114.519 12.334 114.175 12.1617 113.792 11.8268C113.353 11.4441 113.238 10.9656 113.238 10.2192C113.238 9.97043 114.203 9.13792 114.433 8.95611C114.767 8.69774 115.188 8.01834 115.637 7.61644C116.076 7.2241 116.344 6.58297 116.497 6.0184C116.85 4.64045 116.783 2.91802 116.783 1.45395C116.783 1.25299 116.191 0.78411 116.029 0.67885C115.828 0.544883 115.369 0.46833 114.815 0.439623H111.356C110.878 0.439623 110.62 0.506606 110.199 0.506606C109.014 0.525745 108.718 0.353501 107.954 0.870232Z"
            fill="#FDFDFD" />
        <path fill-rule="evenodd" clip-rule="evenodd" class="state-map-path" id="bayelsa_state_J9d10wWiC"
            d="M66.7198 33.4243V33.9888C67.0352 34.2185 66.9492 34.1706 67.1689 34.5343C67.4365 34.9553 67.4939 34.7161 67.7136 35.0319C67.7901 35.2137 67.7232 35.3285 67.8092 35.5486L68.5737 36.8213C68.9081 37.405 69.3095 37.9791 69.5006 38.6394C69.7491 39.5102 70.1313 39.3954 70.2364 40.6585C70.2555 40.9264 69.988 42.8689 69.9211 43.0699L69.6439 44.0842C69.5006 44.8593 69.2521 45.4909 68.9655 46.1798C68.8412 46.486 68.7552 46.9645 68.6788 47.2707C68.4017 48.3329 68.373 48.4381 68.5163 49.5577C68.6692 50.7634 69.0515 54.9834 68.1628 55.6628C67.8283 55.835 67.9239 55.6054 67.5607 55.9307C67.3505 56.1317 67.2741 56.1604 66.9778 56.1987C65.7164 56.3709 60.6231 56.8398 59.4191 56.4283C59.1133 55.4044 59.3713 53.5385 59.8013 52.5816C60.0593 51.9978 59.8778 51.6629 60.2887 50.907C60.518 50.4859 60.7091 49.2707 60.3364 49.175C59.7631 49.175 60.0593 49.2419 59.6866 49.5003C59.4286 49.6821 59.2853 49.6247 59.0082 49.7587L57.6799 50.3902C57.1448 50.6295 56.4949 50.4668 56.084 50.6773C55.9025 50.7634 55.7209 50.9261 55.5107 51.0409L53.4944 51.9213C52.0419 52.4859 51.4016 53.194 49.586 53.8064C48.7642 54.0839 45.4291 55.6915 44.2824 56.17C43.6709 56.4188 43.3842 56.4188 42.8108 56.591C42.6006 56.658 42.3999 56.8207 42.1897 56.9068C41.8934 57.0312 41.7119 57.0695 41.4539 57.1843C39.858 57.9307 39.3802 56.9833 38.5966 56.5719C38.5202 57.8254 37.6028 58.3517 36.265 58.1699C32.4808 57.6532 34.0098 57.4714 33.2644 57.1077C32.9395 57.0695 32.6719 57.1173 32.3566 57.0695C32.0413 57.0216 31.9075 56.8781 31.6208 56.7632C31.6208 57.5479 31.7737 58.3421 31.4392 58.9737C30.4741 60.8205 29.6045 58.7632 28.1806 59.4713C27.894 59.6053 27.7315 59.7679 27.4544 59.9019C26.9766 60.1507 27.0244 60.0359 26.967 60.6483L26.5275 60.8684C26.4797 62.1315 27.4162 62.5238 26.3937 63.7104C25.8108 63.7965 25.6961 63.6243 25.2756 63.5956C25.1896 64.2176 25.2183 63.9975 24.7309 64.1984C24.7023 64.3515 24.5781 64.0645 24.7883 64.2463C24.8934 64.342 24.989 64.3228 24.5589 64.5429C23.7371 64.9544 22.5522 64.6673 21.6253 64.5525C19.4178 64.275 19.5898 63.8826 18.338 63.4042C18.4718 64.696 20.5646 68.8681 21.4055 70.2078C21.6635 70.6193 21.9215 70.9446 22.1986 71.3752C22.7242 72.1695 23.2211 72.9924 23.7371 73.8249C24.0047 74.246 24.2245 74.6096 24.4825 75.0306C24.8361 75.6048 25.161 75.5761 25.4668 76.0067C26.2599 77.1263 25.419 76.6382 27.1964 78.2554C27.8462 78.8391 28.5151 79.5951 29.1171 80.2458C30.9997 82.284 36.0452 87.5374 37.9468 89.1546C39.7529 90.6952 41.4443 92.2741 43.4224 93.6042C44.2251 94.1401 44.9705 94.6472 45.8401 95.164C47.5601 96.1879 47.1206 95.7094 48.8788 96.1017C50.0351 96.3505 50.7231 96.8386 51.6979 97.2022C52.6343 97.5562 55.3865 98.2739 56.1032 98.7332C56.4758 98.982 57.2116 99.0012 57.4123 98.4557C58.0143 96.8673 57.3263 96.3888 58.1959 95.2597C58.6164 94.7142 58.473 93.6808 59.2566 92.3985C60.088 91.0397 59.5146 90.944 61.378 90.5325C62.563 90.2742 63.2892 89.9393 64.2926 89.4704C65.4393 88.9441 65.8024 88.858 66.9396 88.1403C68.7075 87.0207 69.6726 85.7289 71.0391 84.3509C71.2589 84.1308 71.278 84.1213 71.4691 83.8438C71.6125 83.6332 71.7558 83.4993 72.0616 83.4131C72.8452 83.1835 72.8452 83.4801 73.5428 82.9443C74.8806 81.9204 74.9379 80.8104 76.3427 79.796C76.6007 79.6046 77.26 78.4085 77.4607 78.0257C77.6423 77.7004 77.7474 77.7195 77.8812 77.4325C78.3208 76.4851 79.0088 75.7579 79.4292 74.9923C79.6108 74.6574 79.8115 73.8919 79.9453 73.49C80.3179 72.3896 78.961 70.6097 80.0217 67.05C80.4135 65.7199 80.5473 65.6434 80.5473 64.0645C80.5473 61.8636 80.3466 59.433 81.1206 57.567L82.3438 55.2226C82.8025 54.5049 83.3663 53.9978 83.4619 52.8495C81.4838 52.8686 78.8559 53.7873 75.7789 52.9452C75.5973 52.1797 75.3584 51.6725 75.3393 50.8687C75.3297 50.017 75.3202 49.2132 75.2724 48.3616C75.196 46.8018 74.8424 45.0698 74.8424 43.5483C74.8424 42.7158 74.7468 42.046 74.6608 41.2326C74.5748 40.5054 74.6322 39.3954 74.4506 38.8212C74.0492 38.8212 74.1448 38.9169 73.8486 38.9552C73.6479 38.9839 73.3803 38.9073 73.1796 38.8595C71.6985 38.5628 71.6125 37.7016 70.7047 36.5725C70.0453 35.7687 69.8924 35.0606 69.4242 34.6682C69.0324 34.3333 69.2904 34.6012 69.1279 34.1611C69.0897 34.0462 68.3634 33.1372 68.1819 32.7257L66.7198 33.4243Z"
            fill="#9DD3AF" />
        <path fill-rule="evenodd" clip-rule="evenodd" class="state-map-path" id="bayelsa_state_SwqhyBNX4"
            d="M49.1942 28.4962C49.2037 28.9172 49.3184 29.1756 49.0222 29.4722C48.1717 30.3047 43.2886 30.2569 41.8743 30.2665C41.2054 30.276 41.2245 30.1803 40.7563 30.1038C40.7276 30.6971 40.5174 31.099 40.2116 31.3765C39.7147 31.8071 39.7624 31.8071 39.5235 32.5726C38.1953 32.5822 38.7017 31.9698 37.9755 32.0367C37.4881 32.075 37.3257 32.7257 36.8001 32.9649C36.179 33.252 35.6916 32.6683 35.0227 32.8501C34.2773 33.0511 34.392 35.9218 31.9648 36.0175C30.2638 36.0845 29.4993 35.1275 28.668 35.4625C28.0086 35.7304 28.7922 36.4959 28.0659 36.8978C26.7281 37.6346 24.7118 36.362 24.2531 35.8452C23.4409 34.9266 23.8518 34.7256 22.1795 34.2855C20.7939 33.9218 20.4307 34.3046 19.9912 32.8692C18.4909 32.7736 17.4015 33.0224 16.2357 32.563C15.3948 32.2377 14.4583 31.7592 14.0665 31.2616C13.6938 30.8023 13.0344 29.5201 12.5757 29.3478C11.9259 29.099 10.397 29.6253 9.35539 29.233C8.03667 28.7258 8.86803 27.1565 8.92537 26.9268C9.08782 26.2857 8.7247 26.1039 8.27557 25.8934C7.89333 25.7116 7.47287 25.5011 7.12885 25.3001C6.39304 24.8695 5.82924 24.2092 4.65386 24.5441C3.71737 24.8025 2.79045 25.0609 1.77752 25.1374C1.60551 25.7594 1.38572 25.6063 0.898368 25.8742C0.879256 26.2953 1.21371 27.0034 1.40483 27.2713C2.48466 28.7832 2.53244 29.1277 3.44025 30.8884C3.6696 31.3382 3.83205 31.7114 4.03272 32.1707C4.26206 32.697 4.4723 32.9458 4.70164 33.3955L6.39304 37.4241C6.57461 37.8834 6.67017 38.4002 6.85173 38.8499C7.37731 40.2374 7.62576 40.2183 7.51109 42.0269C7.41553 43.7302 7.63532 43.8737 8.35201 44.955C9.4605 46.62 8.95404 45.8258 8.97315 48.0458C8.98271 48.9357 10.9512 52.3041 11.4386 53.0887C12.4229 54.6963 13.5313 56.1221 14.6016 57.5383C16.1879 59.6531 17.8889 62.5908 20.1154 63.3755C20.8416 63.6338 22.6764 63.9401 23.4982 63.8348L23.5842 63.1458L24.148 63.1267L24.0716 62.6674C25.5336 62.5908 25.5336 62.8875 25.9159 62.83C26.2216 62.7822 25.6005 61.5382 25.6961 60.8205C25.763 60.2847 25.9827 60.3612 26.1643 60.0646C26.4223 59.634 26.2312 59.5861 26.7377 59.3278C27.3588 59.012 27.8366 58.6388 28.3813 58.5144C29.5567 58.2465 29.7669 58.8397 30.4454 58.9163C31.3341 57.9594 30.3498 56.8781 31.0283 56.0934C31.3436 55.7489 31.7545 55.7489 32.1559 56.0456C32.7388 56.4857 32.9873 56.0743 33.6084 56.3326C34.22 56.591 33.876 56.9355 34.5449 57.0695C35.0418 57.1651 35.5196 57.2034 36.0452 57.2895C39.0649 57.8063 36.6185 55.6628 38.6253 55.7106C39.4949 55.7298 39.428 56.7441 40.6798 56.5527C40.9665 56.5144 41.9125 56.1221 42.0941 56.0169C42.6483 55.7011 42.9637 55.7872 43.5848 55.548C44.0913 55.3566 44.464 55.1461 44.9227 54.9356C45.3622 54.7442 45.8878 54.5911 46.3178 54.371C47.0727 53.9786 48.2195 53.4523 48.9839 53.1366C49.4713 52.9452 49.9491 52.8304 50.4078 52.6007C51.1436 52.2275 52.405 51.4715 52.9592 51.2419C53.9244 50.8304 54.6793 50.5816 55.6062 49.9788L59.6388 48.0458C59.3139 46.8305 58.9317 47.1272 58.7119 45.8258C58.2914 43.3283 58.7979 43.7014 59.2184 42.0843C59.8204 39.7686 59.8204 37.0701 59.7822 34.6395C59.7631 33.1563 59.8491 33.4817 59.4764 33.185C58.6832 32.5535 58.2723 31.8454 57.7563 30.9841C57.2212 30.0751 56.6 28.9651 56.6574 27.6732C57.1925 27.3862 57.3072 27.2043 57.4123 26.3623C57.5078 25.5776 57.7085 25.2618 57.8996 24.6398C57.5556 24.1327 57.2403 24.0753 56.9632 23.3671C56.7625 22.8504 56.5714 22.6495 55.7878 22.372C52.8541 21.3385 55.2526 24.1614 53.4179 25.0322C53.0357 25.214 53.1026 25.281 53.1026 25.7977C53.1026 29.0895 51.4972 27.7019 49.1942 28.4962Z"
            fill="#F6AFCE" />
        <path fill-rule="evenodd" clip-rule="evenodd" class="state-map-path" id="bayelsa_state_r8dICEWou"
            d="M106.043 66.2079C105.89 66.4376 105.861 66.5716 105.737 66.8395C105.593 67.1553 105.46 67.2414 105.364 67.4902C105.039 68.294 104.561 68.4854 104.189 69.1935C103.969 69.605 103.921 69.4136 103.644 69.6815L102.794 70.7819C102.65 71.002 102.574 71.1551 102.43 71.3561L100.949 72.8489C100.376 73.4613 99.621 74.466 99.0572 74.9349C99.0476 75.5952 99.6305 78.4946 99.8885 79.0209C100.147 79.5568 100.433 80.1405 100.72 80.6477C101.179 81.4323 101.121 81.7864 101.217 82.705C101.475 85.2408 102.048 84.2935 102.497 86.4178C102.794 87.8436 103.013 89.1929 103.224 90.6856C103.453 92.3411 103.596 93.5659 102.908 95.0204C102.459 95.9869 101.599 97.4414 100.968 98.0825C100.147 98.9151 98.3596 98.8194 97.1077 99.2117C95.5215 99.6997 96.7542 100.36 93.2567 100.37C92.4731 100.379 91.5748 100.417 90.8008 100.379C89.8739 100.322 89.635 99.8528 89.033 99.5945C88.4978 99.3744 87.7716 99.1351 87.1982 98.9725C86.2139 98.695 86.0133 98.9725 85.2966 98.3409C84.9048 97.9964 84.3696 97.6041 84.1212 97.0586C83.7963 96.341 83.8345 95.9295 83.3949 95.2405C82.3247 93.5468 82.4202 93.6329 80.4135 93.2406C78.3972 92.8483 78.5596 92.5516 76.9447 91.7095C74.785 90.5708 75.4731 90.6569 74.8519 88.791C74.6035 88.0446 74.6704 87.4226 74.7181 86.5709C74.8232 84.4753 75.2533 85.3461 76.0655 82.9347C76.314 82.1787 76.6007 81.7003 76.314 80.9443C76.0751 81.0783 75.2246 82.418 74.9857 82.7146C73.2752 84.7624 72.6254 83.7002 72.0234 84.5327C71.7845 84.8485 71.4882 85.0686 71.2207 85.327C70.676 85.8628 70.2555 86.4657 69.6917 86.9824C68.6214 87.968 67.3792 88.9441 66.0413 89.633C64.5888 90.3794 63.0408 91.0206 61.4258 91.3746C60.1549 91.6617 60.6518 91.6904 59.8777 92.9535C59.3522 93.8147 59.4668 94.5515 59.0941 95.3554C58.8935 95.786 58.5877 95.8721 58.5495 96.3888C58.473 97.317 58.9317 98.4749 58.2723 99.0299C56.6765 100.37 55.9693 99.4892 54.794 99.0969C53.9817 98.8194 53.2268 98.5706 52.405 98.3026C50.7805 97.7668 49.2897 96.7811 47.5983 96.7524C47.8468 97.0299 48.6017 97.4797 48.9839 97.7381C49.9873 98.427 50.9429 99.0203 52.0896 99.4988L55.3578 101.068C56.3994 101.709 57.7085 101.881 58.5208 102.752C59.4668 103.767 59.0559 103.451 58.8839 104.427C59.8682 104.695 60.8142 104.714 61.5787 105.278C62.2667 105.786 61.9992 105.537 62.9165 105.69C63.3752 105.757 63.8243 105.987 64.2735 106.121C64.7513 106.264 65.2386 106.293 65.7451 106.389C66.2229 106.484 66.7485 106.762 67.2071 106.752C67.8856 106.752 68.2679 106.618 68.7361 107.02C69.0706 107.317 69.319 107.575 69.3477 108.226C69.8924 108.197 70.6186 108.369 70.934 108.302C72.4343 107.977 74.3454 108.379 75.7884 108.073C77.4607 107.728 79.649 107.967 80.595 107.671C81.0346 107.537 81.7991 107.671 82.1336 107.393C82.2482 107.135 82.1431 106.743 82.1527 106.408C82.4393 106.092 83.5001 105.671 84.083 105.661L84.2836 106.168C84.9908 106.255 85.5833 106.446 86.3095 106.436C87.0644 106.436 87.7333 106.341 88.4787 106.331C89.8261 106.312 91.2882 105.967 92.6164 105.814C93.3236 105.728 94.0498 105.69 94.7856 105.671C95.961 105.633 97.8053 105.432 98.9998 105.269C99.7738 105.164 100.586 105.317 101.379 105.221C101.054 104.857 100.347 104.656 101.217 103.843C101.551 103.527 101.953 103.001 102.593 102.953C103.95 102.848 104.313 104.015 104.905 104.044C105.355 104.054 105.555 104.073 105.985 104.14C106.883 104.293 108.594 103.575 109.76 103.47C111.174 103.346 112.521 103.192 113.945 103.087C114.041 102.676 113.993 102.054 113.907 101.633C113.611 100.226 112.12 101.441 110.964 99.9581C110.228 99.0299 110.4 95.7955 110.438 94.3506C110.477 93.0588 111.184 90.6378 111.786 89.5565C111.958 89.2311 112.177 88.9728 112.34 88.5996C112.646 87.901 112.799 87.0302 113.21 86.4274C113.477 86.0064 113.735 85.9011 113.974 85.5853C113.678 84.504 113.21 85.3939 113.687 83.0686C114.566 82.8007 115.14 82.5041 115.484 81.7385C114.652 81.1453 114.796 81.8534 113.697 80.4084C112.799 79.2314 113.41 78.9061 113.878 78.332C113.506 77.8344 113.104 77.8918 112.885 77.021C112.607 75.911 112.703 76.2459 111.9 75.6813C111.47 75.3751 110.935 75.0402 110.849 74.4182C110.572 72.2747 110.142 72.7149 111.681 71.1264C112.837 69.9207 113.582 68.428 115.255 67.672V67.1074L116.124 66.6577C116.688 66.4089 116.401 65.9687 117.061 65.4233C117.997 64.6386 118.179 65.251 118.981 63.8731C119.153 63.5764 119.497 63.0406 119.555 62.6674C118.781 62.3324 118.8 62.2846 117.863 62.0358C117.061 61.8349 116.688 61.7966 115.771 61.8253C114.308 61.8731 112.99 62.0358 111.929 62.6769C111.384 63.0023 111.107 63.3276 110.62 63.6913C109.664 64.3994 109.005 65.1171 108.097 65.873C107.533 66.3419 106.864 66.1505 106.043 66.2079Z"
            fill="#D2E28B" />
        <path fill-rule="evenodd" clip-rule="evenodd" class="state-map-path" id="bayelsa_state_BdTgkE4mC"
            d="M109.454 1.36782C109.569 1.64533 109.664 1.67404 109.769 2.01852C110.027 2.81276 110.247 3.56871 110.295 4.42036C110.343 5.19546 110.046 5.37727 109.712 5.75046C109.378 6.11409 109.263 6.5447 108.756 6.75522C107.782 7.18583 106.329 6.79349 105.412 6.53513C104.867 6.38202 104.227 6.45858 103.74 6.64996C103.376 6.79349 103.099 7.42505 102.841 7.70256C102.488 8.07575 102.096 8.11403 101.551 8.29584C100.194 8.74559 99.8503 8.46808 98.2735 8.248C96.9453 8.05661 97.7097 8.13317 96.735 7.81739C96.2764 7.66428 95.7317 7.56859 95.3016 7.37721C94.9863 7.24324 94.9863 7.12841 94.6423 7.10927C94.3556 7.08057 93.9447 7.09971 93.7345 7.21453C93.4 7.41549 93.0942 8.01834 92.8171 8.25756C92.2437 8.76473 90.8295 8.51593 90.151 9.43456L89.2527 10.4776C88.1633 11.7024 90.323 13.4057 89.7496 14.9655C89.549 15.4918 89.0998 15.5396 88.6316 15.798C87.9818 16.1712 87.848 16.1234 87.0357 16.1234C85.975 16.1425 86.2522 16.1329 85.4399 15.8076C84.2358 15.31 82.0571 14.4583 80.9008 15.5971C79.7254 16.7453 80.509 17.1377 80.7479 18.4104C81.4551 22.1997 80.4804 21.5777 79.8306 22.7739C78.5501 22.8791 77.26 22.0562 76.4 23.482C76.1897 23.8265 75.7788 24.4676 75.4922 24.7451C72.9407 27.2235 71.2493 23.549 69.5961 23.5968C69.1374 23.6159 69.0897 23.7403 68.803 23.9222C68.5736 24.0561 68.2487 24.1614 68.0767 24.3528C67.8856 24.5633 67.5512 25.5585 67.4747 25.9317C67.1402 27.7498 68.201 29.1851 63.8052 28.8981C62.7254 28.8311 61.1487 28.2761 60.6135 27.6924C60.2695 27.3192 60.0306 26.8599 59.6484 26.4771C59.4764 26.2953 59.2757 26.1422 59.0941 25.9508L58.7023 25.4723C58.5494 25.3288 58.6928 25.4341 58.5017 25.3288C58.3297 26.0465 57.9856 27.3096 57.9761 28.0464L57.7276 28.123C57.5843 28.1708 57.6607 28.1134 57.4983 28.19C57.5174 29.2808 58.9699 31.4913 59.7535 32.3142C60.6135 33.2137 60.6231 32.6874 60.6326 34.6395C60.6326 35.7208 60.6135 36.8213 60.604 37.9026C60.5753 39.5006 60.3077 42.0747 59.6675 43.3187C59.2661 44.1034 59.3426 45.1847 59.591 46.0459C59.7535 46.6296 60.518 47.3186 60.5658 48.3233L61.2442 48.3425C61.5691 51.8065 60.9575 50.5912 60.7664 51.9596C60.604 53.1748 59.8491 54.304 60.2313 55.6915C62.4674 55.8063 64.7895 55.5863 66.9969 55.3566C67.5894 54.304 67.9525 55.9977 67.8761 51.6725C67.8092 48.4477 67.0925 49.5099 68.2583 45.6822C68.373 45.2995 68.2105 45.3186 68.4399 45.0028C68.8125 44.5053 68.7934 43.5483 69.0323 42.9838C69.2043 42.5627 69.5483 40.6968 69.2808 40.0269C69.0992 39.5772 68.8699 39.4719 68.6979 38.8786C68.5545 38.381 68.3443 38.1131 68.115 37.7112L67.1307 36.094C66.9778 35.8644 67.0065 35.6921 66.8727 35.472C66.1369 34.3237 65.7546 34.7735 65.9171 32.9745C66.4236 32.6013 66.5956 32.6205 67.1307 32.3142C68.2774 31.6635 68.4207 31.4722 69.1661 32.7544C69.4528 33.252 69.4146 33.2903 69.9401 33.5678C70.0739 34.3716 70.3988 34.362 70.7237 35.0319C71.1729 35.9696 71.1251 35.6826 71.6411 36.4385C72.5394 37.759 72.7018 38.3141 74.3454 37.9409C74.3168 37.1083 74.3072 36.3237 74.6703 35.6539L75.0717 34.7639C75.6259 33.2137 76.4764 31.721 77.2982 30.3143C79.3528 26.7737 83.5096 20.6878 87.8098 19.6161C88.6316 19.4151 89.3674 19.5299 90.1319 19.329C91.1639 19.0515 94.1358 19.2237 95.359 19.2142C95.6074 19.2142 97.7097 19.0706 97.8531 19.0228C98.2927 18.8792 97.9009 18.841 98.7513 18.6209C99.2005 18.5061 99.5636 18.5826 99.8503 18.4104L102.545 17.1281C103.491 16.8123 104.37 16.3147 105.23 15.8267C105.746 15.5301 106.329 15.176 106.912 14.8985C107.275 14.7167 107.361 14.554 107.657 14.3435C109.741 12.8412 108.718 13.3196 109.731 12.3627C110.046 12.0565 110.132 12.0469 110.381 11.712C111.7 9.92258 112.053 10.2097 112.435 9.77905C112.894 9.24318 113.2 8.90826 113.745 8.41067C114.203 8.00877 114.49 7.49204 114.987 7.04229C115.971 6.16194 115.981 4.05674 115.971 2.75534C115.952 1.08075 115.828 1.26256 112.072 1.27213C111.174 1.27213 110.343 1.35826 109.454 1.36782Z"
            fill="#91D8F7" />
        <path fill-rule="evenodd" clip-rule="evenodd" class="state-map-path" id="bayelsa_state_qflVr1igG"
            d="M98.2258 75.3942C97.1173 75.4421 95.9706 75.3368 94.8525 75.3368C92.8553 75.3368 93.6294 75.2411 92.9127 74.6957C91.1066 73.3369 92.2629 71.4996 88.5456 71.27C87.1695 71.1838 86.8542 70.9733 85.6406 71.5666C84.8379 71.9589 84.255 72.5427 83.5669 72.9828C82.812 73.4613 82.3916 73.5091 81.4073 74.2938C80.7193 74.8392 80.1937 75.356 79.6872 76.0449C77.6231 78.887 77.6231 82.9825 76.142 86.3413C75.7119 87.3269 75.5017 87.3652 75.7884 89.1737C75.9891 90.4847 76.4478 90.4751 77.4225 91.011C78.1774 91.4225 78.8845 92.0349 79.6681 92.2454C82.3151 92.9344 82.4776 92.1688 84.0543 94.7334C84.9048 96.1113 84.6085 96.5515 85.1628 97.0969C85.3157 97.2596 85.9464 97.8337 86.0897 97.9007C86.3382 98.0156 88.4309 98.1878 89.9981 99.2117C90.8868 99.7954 93.4478 99.5658 94.6423 99.4222C95.617 99.3074 95.2157 99.4222 95.875 98.9246C97.146 97.9773 98.4551 98.3122 99.9172 97.7476C100.491 97.518 100.5 97.384 100.835 96.9343C103.08 93.8721 102.736 92.4464 102.106 88.8197C101.972 88.0254 101.771 86.6379 101.523 85.9394C100.94 84.3031 100.624 85.6523 100.309 82.0256C100.252 81.2888 100.108 81.2984 99.8216 80.7529C98.0729 77.3272 99.038 77.8535 98.2258 75.3942Z"
            fill="#F6AFCE" />
        <path fill-rule="evenodd" clip-rule="evenodd" class="state-map-path" id="bayelsa_state_OjbamaYOi"
            d="M80.8053 72.3991C83.0127 72.5044 82.1526 72.734 83.8823 71.6336C84.7614 71.069 84.2741 71.1551 84.513 70.8872C84.8761 70.6193 86.8446 70.2078 87.3989 70.2461C88.2971 70.3035 90.5046 70.3705 91.1257 70.9733C91.7468 71.5762 91.5748 71.136 92.3297 72.4565C92.5782 72.8776 92.7502 73.2029 93.0082 73.5953C93.1993 73.8823 93.6389 74.246 93.916 74.4948L98.1111 74.5617C98.4551 74.4948 99.038 73.7005 99.4489 73.2986C99.6209 73.1359 99.7834 72.8489 100.213 72.3991L101.503 71.0786C101.876 70.7341 102.66 69.6145 102.975 69.1456C103.185 68.8299 103.224 69.0021 103.443 68.7533L104.208 67.7773C104.504 67.4328 104.59 67.1074 104.867 66.6959C104.953 66.562 105.412 65.6433 105.421 65.4998C105.498 64.9065 105.001 64.8491 104.59 64.6769C103.988 64.4089 104.064 64.2558 103.902 63.6147C103.367 61.5861 103.854 62.1698 103.854 60.5048C102.325 61.0885 102.622 61.8253 100.299 55.9977C99.8981 55.0025 99.554 54.5241 99.4872 53.2705C99.4203 52.1414 99.3151 50.84 99.7069 49.8544C100.127 48.7826 100.471 48.4094 101.064 47.6726C101.943 46.5913 101.781 45.8258 102.239 45.2229C102.555 44.8115 102.784 44.7349 103.071 44.2469C103.262 43.9024 103.539 43.3857 103.558 42.9072C103.587 41.9599 102.966 40.6393 102.306 40.5149C102.134 40.8211 101.389 41.558 101.121 41.7781C100.615 42.1895 101.035 41.5962 100.175 42.5053C100.013 42.6871 99.9076 42.735 99.6878 42.8785C99.4012 43.0795 99.0667 43.4814 98.7991 43.7397C98.5029 44.0364 97.576 44.6009 96.9453 45.2134C96.5439 45.6057 96.3432 45.4622 95.9801 45.9119C95.617 46.3808 93.3713 47.5386 92.7884 47.7779L90.8581 49.2611C90.323 49.663 89.3483 50.2945 88.6698 50.4764C87.7333 50.7347 86.4337 50.5912 85.6597 50.8591C84.9239 51.1079 85.0003 50.8974 84.7901 51.6629C84.6659 52.1031 84.6372 52.5911 84.4843 53.0217C84.3887 53.2801 84.3027 53.3279 84.2072 53.548C83.8727 54.371 84.0065 54.3327 83.3376 55.28L82.0953 57.4426C80.681 60.1411 81.9711 63.8252 81.0633 66.562C80.2606 68.983 80.2892 69.8633 80.8053 72.3991Z"
            fill="#FDD1A1" />
        <path fill-rule="evenodd" clip-rule="evenodd" class="state-map-path" id="bayelsa_state_ewpHGNFY6"
            d="M100.147 19.3386L99.3343 19.3673C99.4776 19.9414 99.8407 20.4486 100.166 21.8457C100.71 24.1327 99.5732 24.8695 98.3787 26.3527C98.1111 26.678 96.3242 28.8407 96.047 29.0225C95.5023 29.3574 96.1139 28.8024 95.0437 29.6923L91.4506 32.7544C90.9441 33.3286 90.151 33.8836 89.033 33.6635C89.0043 33.3286 89.0616 32.8979 88.9183 32.6109C87.3989 31.9697 87.2078 34.362 86.8255 35.3763C86.5484 36.1036 86.2235 36.4385 85.7553 36.8308C85.287 37.2232 84.8952 37.6442 84.4174 38.0365L83.0891 39.2422C82.6878 39.6441 82.1909 39.9982 81.7035 40.3905L79.6012 42.046C79.2668 42.3139 79.2285 42.3331 79.1139 42.8689C78.1965 42.8881 78.0914 43.0986 77.4702 43.5388C76.7249 44.0651 76.8873 44.132 75.7024 44.1129C75.8935 46.6391 76.1229 47.5769 76.1706 50.2945C76.1802 50.6007 76.1611 51.0792 76.2089 51.3663C76.2375 51.5577 76.4 51.9596 76.486 52.2179C79.1425 52.6294 81.1111 52.4189 83.7007 51.95C83.7294 51.816 83.739 51.6438 83.8058 51.5385L83.911 51.4237C84.2359 51.0409 84.083 50.7347 84.4365 50.4381C85.2679 49.7778 87.3511 49.9022 88.2303 49.73C89.7974 49.4142 91.9093 47.2516 92.3489 47.0602C92.8553 46.8305 95.0532 45.6822 95.2826 45.4334C95.9897 44.6105 96.133 44.9071 96.5535 44.4574C96.888 44.1033 97.3562 43.778 97.7958 43.4622C98.2449 43.1273 98.5507 42.8019 98.9807 42.3905C99.2387 42.1417 99.4107 42.1225 99.6305 41.8833C100.586 40.7924 100.137 41.6537 100.835 40.8499C101.016 40.6489 101.341 40.5054 101.465 40.314C102.153 39.2997 98.9998 39.759 101.647 35.5007C102 34.9457 102.125 34.7161 102.43 34.0367C102.679 33.5008 103.013 33.1563 103.281 32.6491C103.529 32.1898 103.711 31.5487 103.921 31.0415C104.361 29.9315 104.915 29.0703 105.507 28.0656C105.832 27.5201 106.31 25.9317 106.893 24.8791C107.352 24.0657 107.83 22.7164 108.527 21.9509C108.928 21.5203 109.311 21.3959 109.932 21.1184C111.891 20.2381 111.652 21.0323 112.292 20.0754C113.343 18.5348 113.391 19.8649 114.576 19.0898C115.723 18.3434 113.429 17.951 114.442 15.8458C114.758 15.1856 115.379 15.1186 115.608 14.7071C115.35 14.3913 115.054 14.1617 114.777 13.8172C114.031 12.8986 113.334 12.6976 112.875 12.1043C112.502 11.6259 112.579 11.157 112.369 10.8221C111.442 11.3579 111.165 12.2766 110.515 12.7837C110.066 13.1282 110.219 13.0038 109.903 13.4727C109.76 13.6832 109.521 14.0564 109.32 14.1904C108.986 14.42 108.842 14.4775 108.537 14.7167C107.543 15.4918 108.021 15.243 106.998 15.7884L101.8 18.4008C101.513 18.5348 101.265 18.6879 100.921 18.8314C100.424 19.0515 100.405 18.9367 100.147 19.3386Z"
            fill="#F6AFCE" />
        <path fill-rule="evenodd" clip-rule="evenodd" class="state-map-path" id="bayelsa_state_XnqbQMn8S"
            d="M75.712 43.1656C76.4191 43.3665 76.4096 43.1847 76.8396 42.9072L78.7508 41.558C79.219 41.2326 79.0374 41.4527 79.735 40.8786C80.3562 40.381 80.92 39.9312 81.5602 39.4432C82.2387 38.9073 82.6687 38.4384 83.2898 37.9217C83.8059 37.5007 85.5164 36.0079 85.8031 35.5773C86.0228 35.2328 86.1471 34.8405 86.2809 34.3907C86.6631 33.0702 86.8638 31.7975 88.4787 31.721C89.0999 31.6922 89.3483 31.8741 89.7879 32.0941L89.8166 32.6683C90.9442 32.5822 97.6333 26.4005 98.9998 24.3049C99.4872 23.5585 99.5732 22.927 99.3343 21.9605C99.2005 21.3672 98.8374 20.1806 98.5411 19.7883C98.0538 19.7692 97.8053 19.9414 97.2415 19.9318C96.6491 19.9318 96.4293 20.0275 95.9419 20.0467C94.9863 20.0945 93.9352 20.0467 92.97 20.0371L90.7913 20.0467C90.3612 20.0754 90.495 20.1232 90.1606 20.2285C89.4152 20.4581 88.947 20.0562 87.5231 20.5634C85.029 21.4629 82.5445 24.2762 81.1875 26.0273C79.8306 27.7881 76.4191 32.8501 75.7502 35.3572C75.6833 35.606 75.7024 35.7208 75.5686 35.9122C75.1004 36.5725 75.1195 36.649 75.1577 37.759C75.1959 38.8786 75.2915 38.448 75.3584 39.003C75.4157 39.4719 75.3966 40.0269 75.4253 40.5054C75.4635 41.3474 75.6069 42.3044 75.712 43.1656Z"
            fill="#FDD1A1" />
    </svg>