<svg viewBox="0 0 2346 1560" fill="none" xmlns="http://www.w3.org/2000/svg">
        <path fill-rule="evenodd" clip-rule="evenodd" class="state-map-path" id="benue_state_kCuRXFLjr"
            d="M2183 896C2181 894 2182 895 2181 892C2169 900 2161 897 2150 905C2146 908 2142 907 2138 910L2126 915C2125 916 2124 916 2123 916C2114 920 2117 920 2113 921C2109 922 2106 925 2102 926C2095 927 2093 929 2087 931C2081 933 2076 933 2070 936C2062 941 2063 949 2058 956C2052 965 2047 979 2038 987C2035 990 2035 993 2032 996L2013 1033C2002 1050 2008 1046 1983 1046C1979 1046 1979 1045 1976 1044C1973 1043 1971 1043 1969 1042C1961 1041 1959 1036 1953 1031C1946 1025 1949 1032 1944 1023C1942 1019 1938 1017 1934 1014L1925 1007C1919 1005 1916 999 1911 994C1904 986 1902 984 1894 991C1889 995 1891 992 1887 995L1873 1004C1868 1010 1864 1017 1858 1022C1856 1024 1855 1026 1853 1029C1850 1033 1851 1031 1847 1034L1839 1041C1838 1043 1840 1041 1838 1042L1823 1054C1820 1056 1819 1058 1817 1060C1812 1064 1807 1065 1803 1070C1798 1076 1794 1082 1788 1087C1782 1092 1776 1100 1770 1104L1757 1114C1747 1121 1753 1122 1740 1130C1736 1133 1732 1139 1727 1142C1723 1147 1720 1147 1714 1150C1711 1151 1710 1153 1706 1153H1664C1664 1161 1662 1162 1656 1162C1656 1181 1655 1173 1654 1182C1653 1187 1654 1194 1652 1198L1650 1214C1650 1221 1648 1226 1644 1230L1628 1267C1627 1272 1626 1272 1624 1276C1622 1280 1623 1284 1620 1288C1601 1328 1616 1326 1622 1338C1622 1339 1623 1341 1624 1342L1629 1352C1630 1356 1630 1353 1631 1358C1637 1357 1632 1357 1636 1356L1674 1348C1676 1346 1676 1344 1679 1344H1748C1756 1344 1760 1348 1765 1352C1770 1355 1775 1356 1780 1361C1784 1366 1788 1368 1793 1372C1816 1388 1803 1382 1813 1390C1815 1392 1817 1393 1819 1396C1822 1401 1823 1406 1827 1411L1837 1426C1839 1429 1840 1430 1842 1432C1844 1435 1845 1438 1847 1441C1851 1448 1864 1461 1869 1468L1892 1494C1898 1499 1906 1495 1912 1498L1915 1501C1918 1504 1916 1501 1917 1505C1917 1506 1917 1507 1917 1507L1918 1510C1925 1530 1916 1560 1924 1560H2001C2003 1560 2006 1557 2007 1555C2012 1551 2010 1553 2011 1546C2011 1541 2015 1534 2019 1531L2032 1520C2038 1516 2038 1515 2051 1515C2059 1515 2068 1515 2076 1515C2085 1515 2082 1507 2082 1497C2082 1481 2080 1410 2082 1401C2083 1397 2082 1401 2084 1397C2085 1394 2084 1398 2085 1393L2106 1340C2108 1336 2108 1337 2110 1332C2111 1328 2117 1323 2121 1311C2122 1310 2122 1310 2122 1309C2127 1296 2126 1312 2126 1278C2126 1275 2123 1273 2122 1269C2120 1266 2120 1264 2117 1260L2107 1242C2103 1235 2095 1224 2094 1215C2092 1201 2091 1213 2091 1190C2091 1179 2099 1175 2104 1170C2110 1164 2126 1151 2129 1144C2131 1140 2130 1142 2132 1138C2141 1126 2143 1111 2151 1098C2153 1094 2154 1091 2156 1086C2161 1075 2158 1067 2162 1058C2167 1049 2166 1051 2169 1040C2170 1035 2173 1033 2174 1028V1027L2176 1021C2177 1008 2176 1017 2181 1009C2183 1006 2184 1003 2187 1000C2193 992 2200 984 2205 976C2207 973 2206 974 2209 971L2224 961C2224 961 2224 961 2225 961C2237 954 2243 947 2252 943C2255 942 2253 943 2255 941C2258 940 2257 939 2260 937C2267 934 2265 937 2271 931C2274 927 2275 926 2280 923C2283 921 2286 916 2297 907C2300 904 2300 902 2302 900C2307 893 2307 894 2309 885C2313 869 2314 890 2314 847C2314 840 2306 831 2305 823C2299 827 2299 835 2296 841C2285 859 2293 848 2279 858C2273 862 2279 859 2271 861C2264 862 2252 868 2244 871C2240 873 2219 877 2216 879C2213 881 2214 882 2209 884C2207 885 2202 886 2200 887C2189 889 2189 888 2183 896Z"
            fill="#F6AFCE" />
        <path fill-rule="evenodd" clip-rule="evenodd" class="state-map-path" id="benue_state_G6itn4Nig"
            d="M821 110C821 118 824 124 827 132L832 140C837 147 844 153 847 160L850 164C852 168 853 169 855 173C859 180 857 176 858 184C860 197 861 186 861 209C861 218 861 227 861 237C861 255 864 254 872 267C875 271 874 273 879 274C883 272 886 266 889 262C901 244 913 238 930 227C931 226 932 226 933 225C936 223 934 224 938 223L946 221C949 220 952 220 955 219C958 218 959 216 962 215L978 212C982 211 983 210 988 210C1000 210 1023 208 1033 211C1038 213 1040 216 1045 217C1052 219 1070 228 1075 233C1081 239 1090 243 1097 247L1116 266C1119 269 1121 272 1123 277C1135 303 1128 293 1132 305C1135 313 1136 306 1136 319C1136 328 1138 326 1138 334V390L1170 384C1178 383 1199 384 1208 384C1209 379 1211 380 1212 376C1213 371 1212 372 1214 367C1216 361 1221 358 1225 354L1229 350C1239 344 1239 346 1252 344C1258 343 1257 342 1262 342H1303C1309 342 1315 345 1321 348L1340 359C1343 360 1341 360 1344 361C1366 370 1373 367 1400 367C1410 367 1411 368 1418 379C1422 385 1430 392 1432 396C1433 399 1432 397 1434 400L1446 424C1447 428 1447 427 1448 431L1451 438C1455 446 1456 454 1458 462C1460 470 1464 477 1468 484C1471 491 1480 492 1487 492C1491 492 1488 491 1491 489C1496 486 1511 475 1511 470V384C1511 380 1509 383 1508 374L1507 364C1505 357 1507 348 1500 334L1493 317C1489 305 1489 320 1489 289C1489 284 1494 267 1497 262C1500 255 1504 251 1508 246L1511 244C1517 236 1525 231 1532 224C1537 218 1544 209 1553 209H1638C1638 196 1637 187 1629 179C1628 177 1627 177 1626 175L1614 162C1612 161 1611 161 1609 160L1584 145C1576 140 1570 135 1565 127C1563 125 1562 124 1561 123C1557 118 1561 117 1556 112C1547 103 1549 110 1540 96C1539 93 1540 94 1538 91C1533 85 1523 75 1514 75H1456C1451 75 1452 77 1444 77C1438 77 1436 79 1431 79H1297C1290 79 1285 73 1272 73C1260 74 1255 67 1248 66C1234 64 1247 67 1230 62C1221 59 1209 55 1198 52C1187 50 1188 49 1182 47C1179 46 1177 46 1173 45L1158 41C1153 38 1155 39 1149 38C1143 37 1139 33 1134 31L1093 16C1084 13 1081 13 1072 9C1068 7 1044 0 1039 0H1006C1001 0 999 3 993 4C985 5 984 4 979 8L968 15C964 18 960 21 957 24C954 26 950 30 946 32C943 33 943 32 940 33C937 34 936 36 934 37C930 41 927 42 923 45L902 61C895 65 886 71 882 77C877 84 870 90 862 94C857 97 854 99 850 101L821 110Z"
            fill="#F6AFCE" />
        <path fill-rule="evenodd" clip-rule="evenodd" class="state-map-path" id="benue_state_fUpq6WY8x"
            d="M2047 713C2038 713 2017 687 2014 684C2009 680 2009 679 2005 675C2001 670 2001 668 1999 662C1996 650 1994 648 1988 637L1976 608C1976 608 1976 608 1976 607L1973 603C1973 601 1973 600 1972 599C1972 596 1971 594 1970 591C1969 589 1969 588 1968 585C1967 581 1968 581 1966 578C1952 556 1948 560 1939 550C1936 547 1933 544 1929 541L1916 552C1913 555 1912 555 1909 557C1898 566 1901 565 1888 573L1877 579C1875 580 1876 580 1875 581C1872 583 1874 582 1873 583C1869 586 1854 591 1848 595C1847 596 1847 596 1845 597L1833 605C1829 607 1828 606 1825 609C1800 630 1786 621 1787 644C1787 654 1788 698 1786 706C1785 712 1784 706 1783 714C1780 736 1774 745 1770 763C1767 776 1767 771 1767 788C1767 794 1772 798 1775 802L1789 827C1789 857 1794 861 1771 861C1766 861 1764 857 1753 857C1744 857 1755 869 1757 872C1762 876 1766 880 1771 884C1775 888 1775 888 1778 891C1789 898 1782 895 1788 907C1789 910 1789 910 1790 912C1795 920 1795 928 1804 933C1812 938 1815 938 1824 939C1829 940 1829 942 1833 943C1838 945 1839 943 1844 946C1865 954 1852 951 1862 956C1870 960 1883 966 1890 967C1893 968 1897 969 1901 970C1910 974 1916 981 1923 988C1931 997 1942 1002 1950 1009C1953 1012 1955 1017 1959 1019C1965 1023 1968 1028 1975 1031C1985 1034 1987 1034 1999 1034C2001 1028 2006 1023 2008 1018C2009 1016 2009 1014 2010 1012C2015 1002 2021 985 2028 978C2037 968 2037 964 2045 953C2047 949 2049 946 2050 942C2052 934 2058 927 2066 924C2068 923 2070 922 2072 921C2076 920 2075 921 2079 920L2092 915C2096 914 2094 915 2098 914C2103 912 2100 913 2104 911C2107 910 2108 910 2110 909C2113 908 2113 907 2116 906L2134 898C2148 892 2145 891 2163 887C2170 885 2165 887 2169 884C2175 880 2175 883 2184 878C2189 876 2194 875 2199 874C2199 874 2199 874 2200 873C2207 871 2211 868 2219 866L2243 856C2245 856 2249 855 2250 855C2258 852 2275 849 2280 842C2281 840 2281 838 2282 836C2283 835 2282 836 2284 834L2286 831C2289 827 2288 825 2291 820C2294 816 2292 820 2294 814L2295 811C2301 797 2290 789 2300 777L2307 769C2314 761 2309 761 2313 753C2316 748 2317 738 2320 733L2326 717C2327 705 2325 704 2330 693C2334 685 2333 676 2333 667C2334 661 2336 660 2337 656C2338 651 2336 646 2337 642C2338 638 2341 631 2343 618C2345 603 2345 619 2345 588C2345 583 2346 589 2344 585C2344 585 2343 582 2342 582L2339 575C2337 572 2336 571 2334 569C2330 566 2331 566 2329 562C2325 555 2316 551 2308 540L2307 538C2307 537 2306 537 2306 537C2306 537 2306 537 2306 536L2303 534C2303 534 2303 534 2303 533L2266 498C2264 499 2264 499 2262 500C2245 511 2234 525 2221 533C2217 536 2217 535 2213 539C2210 541 2209 543 2206 546C2197 555 2191 568 2184 578C2182 581 2183 579 2182 582C2181 584 2181 586 2180 588C2178 593 2178 592 2176 597C2172 603 2170 609 2166 615C2163 620 2161 627 2156 632C2152 637 2150 643 2145 648L2137 656H2136L2124 667C2110 679 2108 677 2094 685L2064 702C2058 706 2056 713 2047 713Z"
            fill="#9DD3AF" />
        <path fill-rule="evenodd" clip-rule="evenodd" class="state-map-path" id="benue_state_dwfWZzd8Q"
            d="M990.999 498C979.999 498 967.999 499 957.999 496L952.999 494C942.999 490 931.999 484 922.999 478C909.999 470 917.999 477 903.999 467C892.999 458 885.999 453 874.999 444C871.999 440 867.999 437 861.999 436C861.999 446 859.999 451 854.999 459L839.999 476C831.999 484 827.999 485 822.999 490C818.999 494 817.999 493 813.999 496C811.999 498 812.999 498 810.999 500L790.999 520C784.999 526 779.999 530 773.999 535C769.999 539 770.999 540 765.999 543L750.999 559C747.999 563 748.999 563 746.999 566C745.999 568 745.999 567 744.999 569C741.999 574 738.999 580 737.999 585C735.999 596 733.999 587 733.999 605C733.999 626 735.999 623 730.999 633C729.999 633 729.999 634 729.999 634C724.999 645 725.999 638 720.999 646C716.999 651 720.999 647 715.999 650L707.999 658C704.999 660 706.999 659 703.999 661L701.999 662C701.999 662 701.999 662 700.999 662C699.999 663 700.999 663 697.999 664C690.999 668 684.999 673 677.999 675C666.999 678 652.999 687 644.999 689C638.999 690 636.999 690 631.999 692C619.999 697 623.999 709 623.999 720C623.999 725 633.999 739 635.999 746C635.999 748 636.999 749 636.999 750L641.999 760C642.999 763 642.999 763 644.999 766C649.999 778 651.999 775 653.999 782L654.999 784C656.999 787 657.999 786 659.999 790C664.999 802 663.999 797 665.999 803C670.999 815 676.999 818 681.999 826C682.999 828 683.999 830 685.999 832L714.999 860C719.999 864 720.999 864 725.999 869C729.999 872 731.999 875 735.999 878L746.999 891C752.999 900 754.999 905 754.999 917C754.999 925 753.999 933 755.999 940C757.999 946 758.999 948 764.999 951C769.999 954 767.999 955 774.999 955C778.999 955 780.999 954 784.999 955C788.999 957 789.999 958 793.999 959H795.999C799.999 961 797.999 962 802.999 963C808.999 965 805.999 963 810.999 965C820.999 970 830.999 977 839.999 985L858.999 1004C862.999 1008 865.999 1009 869.999 1013C876.999 1019 888.999 1020 895.999 1025C899.999 1029 903.999 1030 908.999 1032C914.999 1034 920.999 1036 927.999 1036V984C927.999 979 929.999 980 929.999 974C930.999 970 929.999 966 929.999 962C930.999 954 931.999 960 932.999 952C932.999 947 932.999 945 933.999 940C935.999 934 938.999 930 938.999 921C938.999 913 941.999 908 942.999 900C944.999 891 942.999 888 945.999 879C949.999 866 947.999 869 949.999 857C949.999 853 951.999 852 952.999 848C954.999 837 951.999 835 958.999 824C961.999 818 959.999 818 966.999 807C968.999 805 967.999 805 968.999 803C971.999 799 977.999 794 981.999 790C985.999 786 989.999 781 993.999 778C999.999 775 998.999 773 1004 769C1008 767 1004 770 1007 766C1012 759 1014 762 1019 754C1021 750 1022 750 1025 747L1056 703C1059 697 1064 694 1067 689C1072 679 1071 681 1072 668C1072 660 1077 647 1082 641C1084 638 1084 636 1086 633C1089 628 1093 624 1097 620C1100 616 1100 615 1102 612C1104 609 1106 608 1108 606C1111 602 1111 601 1114 598L1125 583C1130 576 1133 568 1139 562C1142 558 1142 556 1144 553C1146 551 1148 549 1150 547L1164 526C1169 520 1175 514 1182 511L1190 507C1195 506 1199 503 1203 501C1225 491 1227 494 1227 475C1227 470 1221 455 1219 449C1218 444 1215 440 1213 435C1212 426 1207 423 1207 414C1207 408 1208 408 1206 402C1203 393 1197 396 1173 396C1169 396 1173 397 1167 398C1164 399 1162 398 1159 399C1154 400 1159 400 1153 401C1149 401 1147 401 1144 401C1139 402 1136 404 1133 408C1130 413 1131 416 1128 421L1121 431C1119 433 1119 434 1118 436L1110 447C1108 453 1102 457 1097 462C1087 472 1092 471 1080 477C1073 481 1072 480 1065 482C1060 484 1063 484 1060 486L1045 489C1023 496 1019 491 997.999 496C994.999 497 994.999 498 990.999 498Z"
            fill="#FDD1A1" />
        <path fill-rule="evenodd" clip-rule="evenodd" class="state-map-path" id="benue_state_lIBn4SuNe"
            d="M565 1074C566 1074 566 1075 567 1075C568 1075 569 1075 570 1076C571 1076 573 1077 574 1077C576 1075 576 1075 582 1075C582 1056 616 1062 630 1061C636 1061 657 1054 661 1051C665 1048 667 1044 671 1040C675 1037 679 1035 683 1032C688 1028 687 1025 694 1021C699 1018 702 1016 705 1012C708 1009 709 1005 711 1002C713 995 712 992 716 984C717 981 716 983 717 980C725 959 729 967 737 953C746 940 743 946 743 927C743 918 744 914 741 907L713 873C705 867 697 861 691 853L681 844C674 836 668 828 662 819L650 801C648 798 648 796 646 794L641 785C640 783 639 783 638 782L624 753C619 739 626 752 615 732C611 726 612 713 612 702C601 702 599 699 596 691C595 687 594 686 593 684C591 672 593 642 593 627C593 614 590 621 588 612C587 609 588 606 587 604C583 588 578 582 577 567C577 562 575 559 574 555C572 549 569 544 568 537C567 530 567 527 565 521C563 518 563 518 562 514L557 490C556 485 556 487 555 483C552 475 549 469 547 462C543 465 537 469 536 474L533 487C532 497 532 505 529 514C527 521 527 526 523 532C516 543 499 554 487 559C483 561 479 562 475 563C472 565 469 567 465 568C461 570 457 571 453 572C449 574 448 576 443 578C438 579 435 578 430 580C418 587 413 584 407 597C404 604 406 612 404 619C403 622 400 627 401 630C402 633 408 646 402 657C398 664 396 673 393 680C392 684 390 688 389 692C386 703 387 699 382 708C381 712 372 721 377 723C383 727 429 721 439 725C446 728 448 732 460 736C465 737 468 737 473 738C489 741 505 737 508 758C509 763 508 760 510 764C512 772 515 782 518 788C534 814 536 809 576 809C594 808 591 816 598 835C602 845 605 865 603 876C601 898 567 909 554 922C547 928 539 933 533 940C526 947 527 957 516 963C512 965 509 967 506 969L504 984C503 992 511 991 514 1000C515 1007 513 1014 515 1021C515 1023 517 1027 518 1029L525 1044C533 1058 521 1046 539 1063L545 1069C547 1068 550 1068 552 1070C552 1070 553 1070 553 1071H558C559 1071 561 1071 562 1072C563 1073 564 1073 565 1074Z"
            fill="#D2D3D5" />
        <path fill-rule="evenodd" clip-rule="evenodd" class="state-map-path" id="benue_state_TCLliJTwo"
            d="M561 1086C558 1085 555 1083 553 1082C550 1082 549 1082 546 1080C545 1079 543 1077 543 1076L527 1067C527 1076 527 1073 524 1078C507 1078 493 1078 478 1086C476 1087 473 1089 471 1090C454 1101 447 1104 441 1107L434 1111C424 1115 406 1128 405 1140C405 1145 407 1155 408 1159C412 1173 426 1193 430 1206C432 1216 433 1236 422 1243C413 1249 393 1249 382 1249C384 1257 388 1260 382 1269C378 1275 381 1280 377 1291C374 1298 369 1313 368 1320C367 1327 368 1326 365 1331C362 1337 364 1333 363 1341L355 1359C351 1364 353 1369 348 1379C347 1384 347 1385 345 1390C345 1392 343 1397 342 1399C338 1406 340 1400 338 1409C338 1412 337 1416 337 1420C337 1426 337 1428 339 1432L341 1436L348 1443C349 1446 348 1445 350 1447L362 1462C367 1468 375 1478 381 1482C386 1484 385 1485 389 1488C391 1490 394 1491 397 1493C406 1498 412 1504 424 1506C437 1508 437 1510 446 1510C449 1505 447 1506 449 1503C451 1498 450 1503 453 1496C455 1487 458 1488 460 1481C461 1477 460 1473 463 1470C463 1469 465 1467 465 1466C468 1463 468 1463 469 1459L482 1419C485 1414 483 1415 484 1410C485 1404 486 1409 486 1401C487 1387 486 1373 486 1359C486 1349 490 1343 497 1338C499 1336 510 1333 514 1333C524 1333 548 1332 556 1334C561 1334 559 1335 565 1336C576 1337 595 1341 604 1341C606 1337 605 1335 607 1332L616 1317C618 1313 618 1311 620 1307C620 1305 622 1302 623 1299C625 1293 623 1295 626 1289C630 1284 633 1280 636 1274C631 1265 621 1255 613 1238C611 1235 610 1232 608 1228L590 1172C586 1161 584 1147 582 1135C579 1119 578 1111 578 1093C573 1092 571 1091 568 1088L569 1087C568 1087 566 1087 565 1086C564 1086 563 1086 562 1085C561 1085 561 1085 561 1085V1086Z"
            fill="#D2E28B" />
        <path fill-rule="evenodd" clip-rule="evenodd" class="state-map-path" id="benue_state_gEiItg1sm"
            d="M1084 672L1085 684C1086 686 1086 686 1086 689L1092 719C1094 725 1094 720 1095 729C1095 742 1100 736 1100 748C1100 760 1106 775 1108 789C1109 793 1111 795 1111 799C1113 807 1112 807 1115 813C1116 815 1116 815 1117 818C1119 823 1118 821 1119 828C1120 834 1121 833 1122 838C1124 845 1121 842 1125 848C1129 854 1126 849 1128 857L1135 874C1141 883 1140 890 1149 897C1152 900 1153 900 1156 903C1160 907 1164 911 1168 915C1176 923 1179 922 1183 926C1187 929 1183 929 1189 932C1201 938 1204 946 1211 948C1214 945 1212 946 1215 942C1217 939 1217 940 1219 936C1226 923 1220 918 1236 903C1240 900 1239 901 1243 899L1254 894V893C1257 893 1254 893 1257 892L1265 891C1267 890 1265 891 1268 889C1272 887 1276 887 1280 885C1282 884 1284 882 1287 881L1318 871C1321 869 1318 871 1321 869C1329 863 1334 861 1342 854C1344 851 1362 823 1367 817C1388 796 1397 801 1429 801C1440 801 1447 811 1452 814C1461 822 1460 813 1471 832C1475 839 1487 854 1488 857C1491 863 1493 860 1497 866C1508 884 1515 887 1523 898C1524 900 1523 899 1524 900C1526 893 1526 887 1531 880L1548 861C1552 858 1550 858 1553 854L1563 840C1565 838 1565 837 1567 834C1569 830 1573 828 1575 824L1581 812C1583 805 1587 800 1589 794L1594 780C1595 777 1595 775 1595 772C1601 755 1608 745 1623 737C1630 733 1638 731 1640 726C1637 725 1637 725 1634 723C1632 722 1632 722 1631 721L1618 717C1618 716 1617 716 1617 716L1608 714C1606 712 1606 712 1605 711L1598 702C1594 696 1590 692 1588 685L1584 667C1583 664 1582 664 1581 660C1578 648 1579 649 1570 645C1562 641 1563 640 1552 635L1537 629C1534 627 1533 627 1530 625C1527 623 1527 623 1523 621C1522 621 1521 620 1520 620L1518 619C1512 616 1505 614 1501 611L1471 598C1460 592 1458 593 1447 590C1437 586 1427 587 1416 587C1412 587 1416 589 1408 590C1392 591 1381 588 1365 593C1361 595 1361 595 1355 595C1351 595 1348 594 1344 595C1340 595 1339 597 1334 597H1302C1298 597 1290 593 1287 593C1272 589 1270 582 1263 575C1258 571 1256 572 1253 564L1246 551C1242 545 1240 526 1238 518L1234 501C1228 502 1225 505 1220 507C1216 510 1211 511 1206 514C1196 521 1191 518 1181 528L1171 538C1167 543 1167 546 1163 551C1160 555 1158 556 1154 561L1146 573C1144 576 1144 576 1142 579C1141 581 1140 583 1139 585L1126 603C1122 607 1124 604 1122 609C1119 616 1123 610 1118 614L1114 618C1109 624 1098 636 1095 642C1094 646 1095 646 1093 649C1088 656 1087 655 1086 663C1085 668 1084 668 1084 672Z"
            fill="#F6AFCE" />
        <path fill-rule="evenodd" clip-rule="evenodd" class="state-map-path" id="benue_state_M52LNqNpS"
            d="M1372 578C1381 576 1392 578 1401 578C1414 578 1433 573 1446 577C1451 578 1451 580 1458 580C1469 581 1478 589 1492 593L1497 595C1501 597 1497 596 1502 597L1524 607C1531 610 1529 607 1534 612C1539 617 1537 615 1543 618L1567 628C1567 628 1567 628 1568 628L1569 629C1573 631 1572 630 1575 632L1580 635C1596 644 1589 645 1594 659C1596 665 1597 662 1598 671C1598 677 1599 677 1601 682C1606 692 1602 687 1609 697C1615 703 1617 703 1625 705C1633 707 1638 711 1645 715C1650 717 1652 719 1656 720C1665 723 1669 733 1658 737L1635 744C1629 747 1621 753 1616 758L1605 785C1605 786 1605 787 1604 787C1604 788 1604 789 1604 790L1600 800C1599 805 1596 808 1594 814C1592 819 1593 819 1590 822C1586 827 1584 834 1580 839C1576 843 1577 842 1574 847C1571 853 1572 850 1569 853C1565 857 1562 865 1558 869C1557 870 1557 870 1555 872C1554 873 1554 873 1553 874L1542 888C1538 893 1538 893 1537 900C1536 907 1530 912 1536 918C1539 921 1540 921 1542 925C1545 928 1546 929 1549 932C1553 936 1553 938 1558 942C1566 948 1561 950 1576 957C1578 958 1585 961 1586 961H1727C1732 961 1750 949 1755 939C1757 936 1758 935 1760 932C1764 924 1762 914 1767 908C1772 900 1766 898 1761 892C1754 884 1740 874 1740 874C1738 872 1736 861 1736 857C1736 851 1737 851 1740 849C1752 842 1745 845 1767 845C1774 845 1765 848 1777 848C1777 838 1778 832 1772 823C1770 819 1769 817 1767 813C1751 791 1755 795 1755 769C1755 765 1756 765 1756 765L1761 752C1763 747 1762 742 1766 736C1768 730 1768 723 1770 718C1771 714 1770 713 1771 708C1772 702 1774 706 1774 701V637C1765 637 1755 637 1749 632L1734 619V618L1719 601C1716 598 1714 596 1711 593C1708 590 1704 587 1701 587H1668C1664 587 1666 590 1662 590C1628 590 1631 595 1619 576C1617 573 1616 570 1614 567C1611 561 1606 557 1603 550L1597 542C1590 536 1595 538 1585 530C1584 528 1585 529 1583 528L1563 508C1559 505 1553 498 1548 496L1540 491C1517 468 1523 482 1508 492C1505 494 1504 496 1501 498C1490 506 1491 504 1477 504C1468 504 1460 497 1456 490L1445 463C1444 456 1444 460 1442 455C1441 451 1441 448 1439 444C1437 440 1436 440 1436 436C1435 435 1435 433 1435 433C1435 431 1434 429 1432 426L1425 413C1424 406 1425 410 1422 406C1422 406 1422 407 1421 407C1421 408 1420 409 1419 410C1419 411 1419 412 1418 413C1418 414 1418 415 1417 417C1417 419 1416 419 1416 421V431C1416 433 1416 434 1415 435V438C1415 440 1414 441 1414 442V447C1414 449 1414 450 1413 451C1413 452 1413 453 1413 454C1412 455 1412 457 1411 458C1411 459 1411 460 1410 461C1410 462 1409 465 1409 464V463C1409 465 1409 466 1408 467C1408 468 1408 469 1407 470C1407 472 1408 474 1406 476C1406 477 1406 477 1405 478V481C1405 483 1405 484 1404 485C1404 487 1405 488 1403 490C1403 491 1403 491 1402 492V491C1402 493 1402 495 1401 496C1401 497 1400 497 1400 497C1400 498 1400 498 1399 499C1399 501 1398 501 1397 502C1397 503 1397 504 1396 504C1396 505 1395 506 1395 507C1394 508 1394 509 1393 510C1392 510 1392 511 1391 511C1391 512 1390 513 1389 514V513C1389 515 1389 517 1388 518C1386 519 1384 521 1382 523C1382 524 1382 524 1381 525C1381 527 1381 528 1379 529C1379 530 1379 531 1378 532C1378 534 1379 535 1377 537V539C1377 541 1376 542 1376 543V549C1376 551 1376 552 1375 553C1375 554 1375 554 1374 555V569C1374 571 1374 572 1373 573C1373 574 1373 576 1372 577V578Z"
            fill="#D2E28B" />
        <path fill-rule="evenodd" clip-rule="evenodd" class="state-map-path" id="benue_state_lgSpQCRlH"
            d="M1305 585H1333C1338 585 1337 583 1345 582C1350 582 1354 582 1358 581C1359 580 1359 579 1359 578C1359 576 1359 575 1361 573C1361 572 1361 571 1361 570C1361 569 1362 568 1362 566V552C1362 551 1363 550 1364 549C1364 548 1364 547 1364 546V541C1364 540 1365 539 1365 538C1365 535 1365 532 1367 530L1366 531C1366 529 1366 527 1368 525L1367 526C1367 524 1368 522 1370 521C1370 520 1371 519 1372 518C1372 517 1372 516 1373 515L1378 511C1378 509 1379 508 1380 507C1380 506 1380 505 1381 505C1381 504 1382 503 1383 502C1383 501 1384 501 1384 500C1385 498 1386 496 1388 495C1388 494 1388 493 1389 493C1389 492 1390 491 1391 490C1391 489 1391 488 1392 487C1392 486 1392 484 1393 483L1392 484C1392 482 1392 480 1394 478L1393 479V474C1393 472 1395 471 1396 469L1395 470C1395 468 1395 467 1396 465C1396 463 1397 462 1398 461C1398 460 1398 460 1398 459C1398 457 1398 456 1400 454C1400 453 1401 452 1401 451L1400 452C1400 451 1401 449 1401 448C1402 447 1402 445 1403 444L1402 445V440C1402 439 1403 438 1403 437V432C1403 431 1404 429 1405 428L1404 429V419C1404 418 1405 417 1405 416C1405 414 1405 412 1406 410C1406 408 1407 407 1408 406C1408 405 1408 404 1409 404C1409 403 1410 402 1411 401C1411 399 1412 399 1413 398C1413 397 1414 396 1414 395L1415 394C1414 394 1414 393 1414 393C1408 386 1407 379 1396 379C1384 379 1364 381 1354 378C1348 377 1342 375 1336 371L1320 362C1318 361 1318 361 1317 360C1308 357 1308 354 1295 354C1282 354 1268 354 1254 355C1248 356 1242 358 1237 362C1219 376 1228 373 1223 383C1219 391 1222 382 1218 396C1217 401 1219 404 1219 410C1219 418 1219 414 1222 419L1230 440C1231 444 1230 442 1231 445L1234 454C1236 458 1235 453 1236 458C1236 460 1236 461 1237 464C1237 468 1238 466 1239 472C1240 494 1238 479 1244 492C1248 503 1246 504 1251 520C1252 523 1252 525 1253 530C1253 534 1254 536 1255 539C1259 552 1266 559 1273 568C1279 576 1294 585 1305 585Z"
            fill="#D2E28B" />
        <path fill-rule="evenodd" clip-rule="evenodd" class="state-map-path" id="benue_state_Q3dgjnbUC"
            d="M1845 254V383L1848 397C1851 405 1848 416 1850 425C1851 429 1851 426 1852 431C1853 436 1852 435 1853 438C1856 450 1859 452 1863 461C1872 479 1867 477 1883 489C1885 491 1883 489 1885 491L1901 503C1905 505 1909 505 1913 508L1923 514C1929 517 1929 515 1934 520C1942 528 1929 525 1955 547C1970 559 1975 566 1981 585C1984 596 1992 616 1997 626L2010 653C2013 668 2018 668 2026 678C2029 683 2032 688 2037 691L2047 699C2050 697 2051 697 2054 694C2060 689 2063 687 2070 683C2076 681 2082 679 2087 674C2093 668 2086 673 2096 670C2099 669 2098 669 2100 668L2108 663C2117 658 2123 650 2131 643L2149 620L2162 594C2164 589 2165 590 2168 586C2169 583 2169 580 2171 576C2173 572 2174 572 2176 568L2183 557C2186 549 2193 543 2197 537L2202 530C2207 526 2206 528 2210 525C2215 521 2212 522 2218 520C2223 518 2223 517 2226 514C2228 512 2230 510 2232 508C2237 503 2250 494 2253 489C2249 482 2246 482 2242 477L2234 469C2230 465 2227 463 2224 458C2219 449 2216 451 2212 442C2211 441 2211 441 2211 441C2206 431 2204 428 2197 419L2186 402C2186 402 2185 402 2185 401C2183 398 2182 393 2180 390L2170 375C2169 372 2170 374 2168 372C2164 366 2164 364 2159 360C2149 350 2152 348 2141 337L2134 329C2127 320 2119 312 2112 305C2108 301 2105 298 2102 295C2100 292 2100 292 2098 289C2093 281 2087 273 2079 267C2075 264 2077 264 2074 261C2072 257 2073 259 2069 257C2064 253 2068 254 2061 253C2043 252 2051 252 2043 251C2037 251 2029 251 2022 251C2014 251 2011 249 2005 250C1979 252 1898 250 1862 250C1856 250 1845 248 1845 254Z"
            fill="#D2E28B" />
        <path fill-rule="evenodd" clip-rule="evenodd" class="state-map-path" id="benue_state_Ytm1ZWoly"
            d="M940 988V1035C940 1038 948 1046 950 1050C955 1057 959 1066 965 1072L1015 1140C1020 1145 1027 1150 1034 1153L1046 1160C1050 1162 1052 1162 1057 1163C1061 1165 1062 1165 1066 1167C1076 1171 1087 1170 1097 1175C1100 1177 1103 1179 1106 1178C1114 1177 1118 1173 1126 1173L1155 1163C1163 1161 1178 1153 1185 1153H1239C1243 1153 1245 1156 1249 1157L1272 1163C1277 1164 1279 1165 1284 1167C1297 1171 1295 1168 1303 1178C1307 1182 1323 1196 1329 1197C1337 1200 1338 1201 1341 1202C1341 1203 1341 1203 1342 1203C1343 1203 1343 1203 1345 1203C1347 1204 1348 1204 1350 1205C1364 1209 1362 1210 1384 1217C1391 1218 1390 1220 1394 1221C1400 1223 1400 1221 1407 1225C1407 1206 1407 1209 1412 1195C1418 1179 1417 1187 1423 1175C1428 1164 1427 1142 1423 1131C1420 1123 1423 1130 1418 1125C1415 1121 1418 1125 1416 1121C1413 1117 1410 1116 1406 1114C1399 1109 1394 1103 1386 1099C1378 1095 1372 1090 1364 1088C1356 1085 1351 1078 1342 1075C1337 1073 1333 1068 1329 1066C1320 1060 1312 1052 1305 1044C1303 1041 1302 1042 1299 1039L1283 1020C1280 1017 1282 1017 1279 1014C1272 1005 1263 999 1254 993C1236 981 1225 980 1211 966L1209 964L1187 946C1184 943 1183 944 1180 941C1177 939 1176 937 1175 936C1168 930 1169 936 1161 926C1160 924 1157 921 1155 920C1153 918 1154 919 1152 918C1149 915 1148 911 1144 908C1130 899 1133 900 1128 889L1125 882C1122 874 1117 867 1115 858C1114 852 1114 855 1112 850C1110 846 1111 845 1110 841C1109 836 1108 838 1107 831C1106 824 1104 820 1101 814C1099 809 1100 811 1099 805C1099 800 1098 800 1097 796C1096 792 1096 790 1095 786L1091 768C1088 756 1088 767 1088 751V750L1086 746C1083 740 1083 734 1082 728C1080 719 1077 710 1077 700C1069 700 1068 708 1065 713L1048 736C1042 743 1049 739 1038 750C1034 754 1036 755 1031 760L991 799C988 803 988 803 985 806C978 812 974 818 972 827C971 833 968 831 967 841C965 857 962 857 962 863C961 869 962 870 961 875L954 909C949 924 953 924 949 936C946 944 946 950 944 958C944 961 943 961 943 964C942 968 943 972 942 977C942 984 940 982 940 988Z"
            fill="#9DD3AF" />
        <path fill-rule="evenodd" clip-rule="evenodd" class="state-map-path" id="benue_state_mXm7v0qKd"
            d="M1501 293C1501 313 1502 302 1505 312C1510 327 1511 323 1516 338C1519 350 1517 353 1519 359L1520 370C1521 376 1523 374 1523 379V466C1537 466 1540 477 1550 482C1559 487 1567 494 1573 501L1587 515C1612 531 1598 526 1609 536L1620 550C1623 554 1622 555 1624 560C1627 566 1633 571 1634 578L1709 576C1713 576 1728 594 1732 597C1737 603 1743 608 1748 614C1753 619 1759 623 1766 624C1772 625 1773 628 1778 624C1780 623 1783 620 1784 619L1798 611C1801 608 1802 608 1805 607L1833 590C1839 585 1838 585 1846 582C1849 581 1851 579 1853 578L1868 570C1873 568 1871 569 1875 566C1878 564 1879 563 1882 562C1892 557 1898 550 1907 543C1912 540 1916 538 1920 533C1918 528 1919 533 1918 528C1914 519 1903 519 1891 510C1888 508 1886 507 1883 505C1876 502 1872 499 1866 493C1866 493 1866 493 1866 492L1861 487C1861 486 1860 484 1859 483L1845 452C1843 449 1842 447 1841 442C1840 441 1840 440 1840 437C1839 429 1836 425 1837 413C1838 406 1836 410 1840 408C1836 403 1836 408 1835 399C1834 392 1833 391 1833 385V250H1751C1748 250 1750 251 1747 252C1743 254 1745 253 1741 254C1737 255 1739 254 1736 256C1729 260 1725 258 1715 265C1711 267 1709 266 1705 269C1703 271 1703 272 1701 273L1654 293C1651 294 1652 294 1649 295C1638 297 1639 297 1630 301L1622 305C1616 307 1618 309 1611 309C1598 310 1585 320 1583 320C1569 320 1570 315 1573 304C1574 301 1574 299 1575 297C1577 290 1579 292 1581 285L1590 267C1593 262 1597 259 1602 251C1603 249 1604 248 1605 246C1606 246 1607 244 1607 244L1609 239C1615 226 1622 227 1626 221C1620 218 1570 220 1560 220C1552 220 1545 228 1541 233L1537 237C1534 239 1534 239 1532 241C1524 247 1517 254 1512 262C1511 264 1512 263 1511 264C1504 274 1505 276 1503 287C1502 291 1501 288 1501 293Z"
            fill="#91D8F7" />
        <path fill-rule="evenodd" clip-rule="evenodd" class="state-map-path" id="benue_state_YLqgIWTZ7"
            d="M831 1158C812 1158 798 1160 781 1155C777 1154 766 1150 754 1148C744 1146 748 1145 741 1143L719 1133L717 1132C716 1131 716 1131 714 1131C713 1130 713 1130 711 1129L692 1122C684 1118 677 1114 669 1111C667 1111 664 1110 662 1109C655 1106 652 1103 644 1101L631 1097C628 1097 627 1096 625 1095L598 1087C595 1087 595 1089 590 1089C590 1133 594 1120 595 1142C596 1154 601 1166 605 1176C606 1180 607 1183 608 1188C609 1199 616 1215 621 1226L628 1240C630 1244 644 1266 647 1266C654 1266 655 1262 659 1260L672 1253C681 1249 688 1251 697 1246C703 1243 694 1244 715 1244C718 1244 717 1245 719 1247C730 1256 739 1257 739 1280V1316C739 1319 737 1323 737 1333C737 1336 738 1336 739 1338C742 1342 740 1337 742 1343C746 1352 757 1366 767 1368C770 1369 771 1368 774 1369C779 1370 777 1371 785 1372C793 1373 805 1377 813 1377C819 1377 834 1358 839 1352L841 1351C849 1343 854 1328 858 1323C860 1322 862 1321 863 1319C869 1312 869 1314 876 1311C893 1304 876 1302 912 1302C930 1302 949 1301 966 1307C983 1312 1010 1310 1027 1310C1031 1310 1037 1308 1041 1307C1050 1304 1053 1307 1067 1294C1073 1289 1073 1292 1077 1285C1080 1280 1081 1279 1084 1273C1085 1271 1086 1269 1087 1267L1093 1258C1098 1245 1098 1250 1098 1229C1098 1219 1100 1212 1095 1204C1087 1191 1088 1202 1089 1185L1040 1171C1030 1166 1022 1160 1013 1155C1006 1150 994 1133 989 1125C985 1119 979 1114 974 1108C968 1101 964 1090 957 1082C952 1077 948 1070 944 1064C928 1038 931 1054 909 1045L893 1040L887 1056C886 1060 887 1062 886 1065C886 1066 885 1067 885 1067C885 1068 885 1068 885 1068L883 1075C880 1084 880 1082 879 1092C878 1098 878 1096 876 1100C874 1105 875 1104 873 1109C872 1113 871 1114 870 1117C868 1127 866 1134 860 1141C858 1144 858 1146 856 1148C854 1150 854 1150 853 1151C852 1151 852 1151 852 1151C846 1154 848 1155 841 1156C837 1157 836 1158 831 1158Z"
            fill="#F6AFCE" />
        <path fill-rule="evenodd" clip-rule="evenodd" class="state-map-path" id="benue_state_cgWfHwo3o"
            d="M543 374C569 374 564 366 564 424L560 440C559 445 551 444 563 470C565 474 566 478 567 482C571 493 572 510 578 520C580 524 580 529 580 533C582 546 583 537 586 551C586 555 587 554 588 557C590 564 587 573 593 583C599 592 595 585 597 595L603 613C608 623 604 673 604 677C605 680 605 678 607 681L608 684C609 688 608 687 610 690C617 689 615 684 634 678C639 676 643 677 648 674C656 671 655 670 667 665C670 664 672 664 675 663C679 662 682 659 686 656C692 653 691 655 697 649C704 642 721 636 721 618C721 593 720 598 726 577C727 575 729 573 732 564C735 558 750 540 753 537C766 526 762 527 777 516C782 512 783 510 786 507C791 501 790 505 796 497C799 492 796 496 801 493C805 489 805 485 820 476C822 475 824 473 826 472C829 469 826 470 830 467C833 465 832 467 836 464C841 459 844 454 847 447C852 435 850 433 850 413C850 401 850 388 850 376C850 373 850 370 850 367L853 351C856 341 856 359 856 325C856 319 855 319 855 314H824C820 314 823 313 818 312C805 308 789 302 778 293L761 280C759 279 758 278 756 278C744 272 739 267 729 259C726 256 723 255 720 253C716 251 715 250 710 247C698 240 698 249 683 258L669 267C661 271 642 281 633 283C616 288 588 294 577 307C561 327 566 324 556 342L548 364C546 368 544 368 543 374Z"
            fill="#D2E28B" />
        <path fill-rule="evenodd" clip-rule="evenodd" class="state-map-path" id="benue_state_ZL4V0p2Lt"
            d="M1222 957C1223 959 1224 960 1226 962L1232 966L1255 979C1260 982 1260 984 1266 986C1271 988 1276 989 1280 991C1289 998 1284 1008 1310 1017C1317 1019 1315 1020 1323 1022L1349 1032C1357 1035 1359 1032 1366 1034C1371 1036 1374 1038 1380 1038C1383 1038 1386 1038 1388 1039C1394 1039 1389 1040 1396 1041C1405 1042 1425 1037 1430 1044C1439 1038 1448 1044 1459 1044H1592C1600 1044 1602 1043 1608 1046C1613 1049 1617 1049 1621 1052C1625 1055 1627 1055 1631 1057C1632 1058 1632 1058 1634 1059C1653 1071 1642 1067 1651 1080C1657 1088 1659 1098 1661 1108C1665 1130 1664 1115 1664 1141H1702C1706 1141 1707 1139 1711 1138L1712 1137C1724 1132 1739 1113 1751 1104C1752 1103 1752 1103 1753 1102L1815 1042C1816 1042 1816 1041 1816 1041C1822 1037 1828 1034 1833 1029C1836 1026 1839 1026 1841 1022C1844 1018 1843 1019 1846 1016L1856 1004C1859 1001 1857 1003 1859 1002L1862 999C1865 993 1870 991 1875 987L1880 984C1884 982 1883 983 1886 979C1878 977 1873 973 1866 971C1857 969 1853 963 1847 961C1844 959 1846 960 1843 960L1840 959C1836 957 1839 956 1834 955C1829 954 1830 956 1825 954C1821 952 1823 952 1818 951C1813 951 1814 952 1809 950C1804 948 1794 944 1791 940C1788 936 1786 932 1782 930C1782 922 1783 918 1777 916C1777 931 1772 938 1765 949C1760 956 1760 953 1755 958C1747 966 1748 964 1739 969C1735 971 1734 973 1730 973H1583C1579 973 1561 963 1558 960C1556 959 1554 957 1553 955L1543 946C1541 943 1541 942 1538 939C1537 938 1535 937 1533 935C1531 932 1532 932 1530 929C1524 921 1523 926 1518 920C1512 914 1515 908 1507 901C1503 898 1502 894 1498 890C1497 888 1495 887 1494 885C1490 881 1490 878 1486 874C1479 866 1474 859 1468 851C1465 847 1463 843 1460 840L1451 829C1422 811 1446 813 1396 813C1390 813 1387 817 1383 820C1380 821 1380 821 1377 824C1374 828 1376 825 1374 830C1371 837 1365 839 1361 847C1359 851 1360 851 1358 854L1350 865C1347 867 1346 867 1344 869C1334 876 1322 883 1310 886C1307 887 1307 888 1304 889C1300 891 1301 890 1296 891C1288 893 1287 896 1282 898C1279 899 1277 899 1274 900C1270 902 1273 902 1268 904C1266 904 1263 905 1260 905L1247 912C1247 913 1246 913 1246 913L1238 920C1236 923 1239 918 1237 922C1234 927 1236 925 1235 930C1234 933 1234 934 1233 938C1232 943 1232 941 1230 945L1222 957Z"
            fill="#FDD1A1" />
        <path fill-rule="evenodd" clip-rule="evenodd" class="state-map-path" id="benue_state_Ucd0vlZyR"
            d="M203 166C203 187 204 178 219 202L230 220C233 226 237 230 242 233C242 245 248 250 253 259L256 266C258 269 259 269 260 271C262 274 262 276 263 278C265 283 264 280 268 283C274 289 273 299 278 311C280 317 285 333 293 335C295 328 303 323 308 318C312 315 318 315 323 312C326 311 327 310 330 309C339 306 342 303 352 303L369 315C373 317 375 318 379 320C385 323 385 321 390 324C396 327 392 327 400 329C405 330 406 332 411 333C416 335 413 333 416 335C420 337 427 337 436 339L468 350C468 350 468 350 469 350C476 352 483 357 489 361L524 372C536 372 547 321 566 302C575 292 587 282 601 280C605 279 611 277 616 275C630 270 642 268 656 260C666 254 676 248 685 241C687 239 689 238 691 237C689 233 686 230 684 227C680 222 678 222 675 219C672 216 670 212 667 210L656 204H617C614 204 612 206 606 206H577C569 206 570 209 565 209H542C539 209 536 206 532 205C530 204 525 203 523 201C512 196 516 193 513 184C509 169 516 144 504 140C496 138 492 136 483 135C477 134 478 133 472 132C469 132 464 132 460 131C457 130 453 128 450 127C443 125 422 123 414 123L391 119C381 116 372 119 361 116L344 112C320 109 327 117 295 108C289 106 285 107 279 105C276 104 278 104 274 103C265 101 254 102 250 100L238 99C220 99 227 87 217 114L213 129C212 132 210 133 209 136C207 140 209 142 207 146L203 166Z"
            fill="#F6AFCE" />
        <path fill-rule="evenodd" clip-rule="evenodd" class="state-map-path" id="benue_state_SwdTAUNYt"
            d="M1438 1142C1438 1191 1435 1172 1426 1192C1426 1194 1425 1197 1424 1199L1422 1205C1419 1211 1420 1220 1420 1229C1420 1234 1422 1232 1425 1234C1430 1236 1427 1235 1430 1238C1445 1253 1437 1246 1439 1269C1440 1276 1444 1280 1444 1285C1444 1329 1448 1310 1433 1334C1430 1338 1429 1338 1427 1343C1425 1347 1425 1350 1424 1355C1427 1355 1431 1355 1435 1355C1442 1355 1439 1356 1444 1358C1450 1360 1461 1357 1467 1371C1469 1374 1467 1372 1469 1375C1470 1376 1471 1376 1472 1378C1476 1383 1478 1388 1478 1396C1486 1402 1495 1407 1506 1407H1549L1565 1399C1572 1395 1566 1397 1572 1394C1576 1393 1573 1395 1577 1392C1578 1392 1584 1386 1585 1386C1587 1383 1585 1385 1588 1382C1589 1381 1590 1381 1592 1380C1596 1377 1595 1375 1600 1373C1612 1366 1604 1367 1612 1363C1614 1362 1615 1362 1617 1361C1617 1359 1617 1358 1616 1356C1614 1350 1614 1354 1612 1349C1610 1345 1612 1347 1610 1343L1603 1337C1597 1330 1599 1321 1599 1309C1599 1305 1601 1303 1602 1299C1606 1285 1615 1271 1620 1249C1621 1243 1623 1246 1627 1235L1631 1226C1634 1221 1633 1224 1636 1218C1636 1217 1636 1217 1636 1217C1636 1216 1636 1216 1636 1216C1636 1215 1636 1215 1636 1215C1638 1212 1637 1215 1637 1212C1638 1208 1638 1203 1639 1200C1640 1194 1641 1195 1641 1188C1642 1182 1641 1182 1643 1176C1647 1164 1640 1162 1647 1152C1654 1142 1652 1146 1652 1127C1652 1121 1651 1120 1649 1116C1646 1109 1647 1103 1645 1097C1641 1085 1641 1089 1637 1081C1634 1075 1635 1076 1632 1074L1624 1068C1617 1064 1607 1058 1600 1057C1592 1055 1460 1058 1451 1056C1446 1055 1448 1054 1439 1054C1413 1054 1425 1053 1415 1052C1411 1051 1405 1052 1401 1052C1378 1052 1377 1051 1359 1046C1356 1045 1356 1046 1353 1045C1348 1045 1346 1043 1342 1042C1340 1042 1340 1042 1337 1041L1323 1035C1318 1032 1319 1032 1311 1032C1320 1046 1333 1052 1338 1056C1347 1064 1341 1059 1352 1065L1389 1087C1395 1090 1394 1088 1399 1092L1416 1105C1430 1114 1438 1124 1438 1142Z"
            fill="#91D8F7" />
        <path fill-rule="evenodd" clip-rule="evenodd" class="state-map-path" id="benue_state_Qe2cL2WAm"
            d="M885 286C886 288 893 302 886 309C883 312 872 314 867 314C871 321 871 345 868 351C862 360 867 352 864 362C863 366 862 363 862 368V416C862 419 865 420 867 422L886 435C891 438 893 443 897 446C906 452 915 459 924 464C929 466 929 468 939 472C941 474 944 475 946 476C963 486 966 486 986 486C990 486 1000 481 1010 481C1049 481 1037 477 1048 475C1051 474 1051 475 1054 474L1070 468C1073 467 1078 464 1080 462C1087 456 1085 455 1093 447C1098 443 1097 444 1099 438C1102 432 1106 431 1109 425L1122 402C1129 387 1126 360 1126 339C1126 334 1124 336 1124 329C1123 322 1124 322 1123 316C1122 313 1120 309 1119 306C1116 292 1117 292 1108 277C1106 272 1094 260 1088 256L1076 249C1074 248 1073 248 1072 246C1057 237 1064 240 1046 231C1039 228 1040 230 1036 228C1033 226 1030 222 1027 222H988C983 222 989 222 985 223C982 224 984 224 981 224L964 228C955 231 957 229 949 234C942 237 942 234 933 241L931 242C922 248 905 259 900 268C898 273 900 272 897 276C896 277 895 277 894 278L885 286Z"
            fill="#91D8F7" />
        <path fill-rule="evenodd" clip-rule="evenodd" class="state-map-path" id="benue_state_Kn9iMdF2b"
            d="M298 345L302 366C303 376 305 386 308 396C308 399 310 399 310 403V424C310 428 308 428 308 432C307 435 308 438 307 442C304 451 305 452 304 456C303 462 299 466 299 476C299 478 299 479 299 481C298 487 296 482 296 495V558C296 580 294 573 294 578C294 609 288 618 324 617C336 617 334 620 336 620C343 620 361 619 366 618L371 616C381 611 389 616 392 613C396 608 387 593 406 578C417 570 415 573 422 571C428 569 425 569 432 568C436 567 438 567 441 565C452 558 450 563 462 556C472 550 474 552 483 546C485 545 488 543 491 542C494 540 496 540 499 538C502 535 501 533 507 533C508 522 512 533 516 516L518 503C519 498 519 484 523 476C528 464 518 471 531 458C540 449 536 454 539 447C542 440 546 443 548 436C549 432 548 431 549 428C550 425 552 424 552 420V389C552 381 532 388 523 386C520 385 514 383 512 382C505 379 506 380 499 379L492 377C486 375 479 369 465 363C455 358 454 357 442 353L430 350C424 348 420 350 414 349C408 348 400 342 398 341C386 337 392 338 380 335L359 323C350 318 350 312 339 319C333 323 335 319 329 323C320 328 317 324 308 336C304 340 303 344 298 345Z"
            fill="#9DD3AF" />
        <path fill-rule="evenodd" clip-rule="evenodd" class="state-map-path" id="benue_state_OuV6jB2aq"
            d="M304 1015C304 1042 306 1038 297 1060L286 1074C284 1076 282 1079 280 1080L271 1087C270 1089 271 1088 270 1089C264 1093 261 1092 261 1101C265 1102 265 1103 268 1104C279 1109 271 1105 276 1109L294 1119C294 1120 294 1120 295 1120C310 1129 306 1135 306 1160C306 1167 306 1157 304 1168C303 1173 302 1172 301 1176C306 1184 323 1200 332 1205C342 1210 346 1214 353 1219C359 1223 364 1227 370 1228C377 1230 378 1230 380 1237C423 1237 419 1231 419 1212L406 1183C404 1179 393 1168 393 1152C393 1132 391 1135 401 1120C404 1116 409 1111 412 1109C426 1100 437 1097 450 1089C453 1087 453 1086 457 1084C460 1082 461 1082 464 1080C466 1078 468 1077 471 1075C478 1071 502 1065 515 1065C515 1054 516 1054 511 1047C509 1043 508 1040 507 1036C503 1025 502 1024 502 1009H506C504 1008 498 1000 497 999C491 996 487 999 482 993C476 986 469 977 460 974C447 968 445 968 434 960L382 931C367 921 366 917 344 908C339 906 336 904 330 901C325 899 321 898 315 896L300 891C297 893 295 896 293 900C291 903 288 906 286 910C279 925 280 919 271 927C267 932 271 931 263 938C257 944 254 951 247 952C242 953 225 948 237 966C241 972 246 980 253 983L270 989C272 990 273 991 275 993C285 999 287 1001 296 1006C298 1008 304 1012 304 1015Z"
            fill="#F6AFCE" />
        <path fill-rule="evenodd" clip-rule="evenodd" class="state-map-path" id="benue_state_T4FVbqdCe"
            d="M307 880C319 883 336 890 347 896C350 898 365 904 375 911C377 913 377 913 380 915L454 958C458 959 459 960 461 961C488 972 481 980 492 984C492 952 504 958 512 950C520 943 511 939 536 921L551 908L558 903C568 897 591 886 591 870L588 843C585 836 582 829 581 821C549 813 533 832 513 804C505 794 506 794 503 784C502 779 497 769 496 762C495 754 501 753 463 749C455 748 443 743 437 739C432 735 435 736 422 736H386C378 736 375 735 369 735C368 739 368 741 367 745C367 747 367 748 366 750L364 752C359 761 362 766 360 777C359 783 358 784 357 799C356 808 347 821 345 826C341 833 345 828 340 834C336 839 328 846 325 852C319 864 323 856 317 863L312 871C308 874 308 875 307 880Z"
            fill="#9DD3AF" />
        <path fill-rule="evenodd" clip-rule="evenodd" class="state-map-path" id="benue_state_It1dcH9PE"
            d="M156 1000V1052C156 1059 166 1072 149 1072C140 1072 137 1075 135 1075C120 1075 114 1075 99.0002 1066C96.0002 1063 95.0002 1062 91.0002 1059C88.0002 1057 85.0002 1056 81.0002 1053C75.0002 1047 75.0002 1046 70.0002 1039L59.0002 1021C56.0002 1015 58.0002 1017 54.0002 1013C46.0002 1005 40.0002 992 33.0002 983C31.0002 981 32.0002 982 30.0002 979L25.0002 970C19.0002 961 16.0002 955 6.00024 955C-1.99976 955 1.00024 974 1.00024 979C1.00024 983 2.00024 983 3.00024 986C5.00024 992 8.00024 998 11.0002 1004C17.0002 1015 18.0002 1015 24.0002 1029C26.0002 1033 28.0002 1035 30.0002 1041C32.0002 1045 34.0002 1049 36.0002 1053C39.0002 1060 47.0002 1073 47.0002 1078C52.0002 1079 51.0002 1080 54.0002 1084C66.0002 1103 73.0002 1098 86.0002 1111C90.0002 1116 94.0002 1120 99.0002 1123C107 1127 118 1139 122 1146L148 1174C153 1178 155 1177 164 1183L176 1190C181 1194 179 1190 183 1193C187 1194 187 1197 194 1200L202 1205C206 1207 200 1206 206 1206C216 1206 230 1208 240 1204L284 1182C287 1179 285 1181 287 1177L291 1167C294 1158 294 1149 294 1139C294 1132 264 1117 257 1112C255 1111 242 1107 250 1089C253 1084 260 1081 264 1076L275 1067C282 1061 291 1047 291 1037C291 1017 295 1021 283 1013L268 1004C263 999 254 998 248 994C248 994 247 994 246 993C243 992 243 992 240 991C237 988 238 989 236 986C232 980 231 983 228 977C224 969 220 965 220 955H200C186 955 190 947 177 962C164 976 162 966 158 991C158 996 156 995 156 1000Z"
            fill="#9DD3AF" />
        <path fill-rule="evenodd" clip-rule="evenodd" class="state-map-path" id="benue_state_Gf0vD3BXs"
            d="M599 1075L625 1081C634 1082 627 1084 637 1086C644 1086 639 1085 644 1088C652 1092 649 1088 661 1094C667 1097 667 1097 673 1099C679 1101 679 1103 685 1104C698 1108 686 1108 708 1115C715 1117 714 1117 720 1119C726 1121 725 1122 732 1124C740 1127 736 1128 743 1130C755 1134 743 1133 769 1138C774 1139 791 1146 795 1146C816 1146 842 1150 853 1131C856 1125 856 1120 858 1115C861 1107 866 1090 867 1083C867 1079 867 1078 868 1074C870 1069 871 1073 872 1067L876 1051C878 1044 881 1038 881 1031C873 1031 868 1028 863 1023C858 1018 854 1017 849 1011L822 987C818 984 819 987 814 982C812 981 813 981 811 980C806 977 792 971 787 971C778 969 784 970 779 967C775 965 772 966 767 966C759 965 755 959 749 957C748 966 736 973 734 975C733 976 731 979 731 981C716 1010 732 1002 713 1022C713 1023 705 1030 704 1030C697 1034 700 1029 695 1038C693 1041 684 1046 681 1049C672 1054 676 1060 656 1067C648 1069 642 1073 637 1073H604C598 1073 602 1071 599 1075Z"
            fill="#91D8F7" />
    </svg>