<svg viewBox="0 0 1374 1440" fill="none" xmlns="http://www.w3.org/2000/svg">
        <path fill-rule="evenodd" clip-rule="evenodd" class="state-map-path" id="borno_state_SWKnEun6A"
            d="M481 497C478 494 478 490 467 486C459 482 445 486 436 484C415 479 407 469 398 453C385 455 393 464 365 485C353 494 322 499 323 512C325 519 329 522 331 530C334 540 340 544 341 549C344 564 342 589 336 600L323 644C322 649 320 650 320 654L317 696C340 696 359 695 378 699H403C440 699 436 702 448 703C453 703 458 702 462 704C473 708 490 722 497 730C504 729 502 727 513 727C521 727 525 727 532 725C555 719 551 731 606 715C618 712 625 709 633 702C632 691 623 681 627 667C633 651 639 655 644 637C646 630 660 608 661 607C663 605 673 600 676 599C685 596 688 598 691 590C684 579 689 591 668 577C664 575 661 574 656 571C649 565 656 568 646 563C641 560 639 557 625 549C608 540 615 550 590 530C586 527 586 523 581 521C565 513 504 513 488 503H489C488 503 487 503 487 502C486 502 486 502 486 502C486 502 484 501 484 500C484 500 483 500 483 499C482 499 482 498 481 497Z"
            fill="#FDD1A1" />
        <path fill-rule="evenodd" clip-rule="evenodd" class="state-map-path" id="borno_state_IT8h5g5x0"
            d="M478 363C474 370 475 377 452 379C425 381 441 385 420 393C424 420 425 416 408 431C397 441 399 444 408 461C424 489 451 470 469 482C475 486 481 489 485 495C486 495 486 495 486 496H487C487 497 487 497 488 497C489 498 490 498 491 499C492 499 493 500 493 500C494 500 494 500 494 500C495 500 497 501 498 502C498 502 498 502 499 502C503 502 508 504 511 504C522 506 522 508 535 508C550 508 570 515 584 515C587 509 584 509 591 497C595 491 597 488 600 481C618 448 607 464 615 444C622 428 617 432 621 426C628 416 636 406 638 390C639 381 643 378 645 371C643 367 642 366 641 361C632 361 620 363 613 359C608 356 609 359 606 350V349C605 346 605 349 605 346L607 340C609 334 612 330 611 321C611 320 600 293 598 291C595 286 591 287 587 281C583 277 582 273 579 268C570 274 568 283 551 299C543 306 554 301 533 319C499 349 512 361 478 363Z"
            fill="#91D8F7" />
        <path fill-rule="evenodd" clip-rule="evenodd" class="state-map-path" id="borno_state_UfPns6azY"
            d="M252 966C250 981 256 971 256 1003C272 1014 263 1025 273 1033C278 1036 279 1034 285 1037C287 1039 286 1038 289 1040C291 1042 292 1042 294 1043C300 1048 295 1047 304 1050L345 1074C350 1077 349 1079 353 1082C367 1096 378 1085 395 1121C397 1127 396 1126 403 1129C406 1130 413 1131 418 1131C435 1130 430 1127 439 1118C448 1110 465 1097 477 1091C490 1086 488 1084 509 1075L535 1070C550 1069 547 1064 584 1065C602 1065 603 1067 613 1075C636 1095 633 1105 637 1112C649 1133 655 1128 689 1128C704 1128 715 1126 725 1130C728 1132 723 1131 730 1132H789C790 1119 792 1090 789 1082C781 1062 777 1077 785 1059C785 1058 786 1058 786 1057V1056C792 1039 802 1042 799 1026C797 1015 796 1030 797 1001C797 987 797 989 793 978L792 975C787 963 791 965 789 953C785 951 778 950 773 948C746 939 729 925 710 904C703 897 687 891 677 897C671 901 677 897 668 913C643 952 677 921 627 951C622 953 615 956 609 957C597 959 600 959 591 967C571 983 584 981 573 987C561 995 562 987 554 980C550 976 546 975 540 973C531 968 521 959 509 961C485 965 484 982 448 948C443 944 429 931 424 929C413 923 403 923 393 916C386 912 377 909 370 902C368 900 369 901 367 899C362 895 360 894 357 887C354 882 353 878 350 873L310 903C304 907 300 908 295 925C293 931 296 933 293 939L284 950L252 966Z"
            fill="#F6AFCE" />
        <path fill-rule="evenodd" clip-rule="evenodd" class="state-map-path" id="borno_state_QxiW0CBAf"
            d="M624 715L623 718C601 719 592 729 567 730C557 730 508 729 503 735C497 740 501 733 507 749C510 757 511 760 511 771C496 776 514 774 480 783C480 797 478 804 480 816C481 823 481 821 484 828C490 843 481 849 495 871C503 884 501 885 501 902C501 922 495 915 508 928C523 945 508 947 523 956L529 960C537 966 547 969 554 972C562 975 559 977 564 983C575 984 567 981 585 964C599 950 595 957 613 952C623 949 621 945 640 939C644 937 650 934 652 931L666 902C671 883 693 887 706 895C722 905 733 921 737 924C740 927 747 932 750 933C752 935 788 949 794 946C803 942 805 932 806 928C807 926 809 924 810 921C813 915 812 913 815 907C817 901 820 898 822 894C826 886 822 882 826 876C829 872 833 872 837 867C848 855 853 864 865 855C869 852 871 848 878 847C885 847 887 850 894 851C901 851 904 853 911 854C919 856 937 864 943 855C948 844 930 841 938 822C943 807 953 807 958 799C966 787 950 799 971 772C974 767 975 769 976 764L956 752C937 742 944 744 926 744C903 744 910 744 893 752C880 758 857 757 844 756C839 756 839 757 833 757C821 758 816 756 807 755C793 754 775 762 761 762C759 759 755 757 754 753C753 745 757 748 764 742C756 741 746 744 745 750C748 764 768 766 777 784C770 794 770 799 749 796C746 796 745 795 743 794C737 792 740 794 736 790C733 788 728 767 711 779C699 788 701 785 680 793C674 796 670 798 662 795C662 795 662 795 661 794H660C629 779 663 764 665 760C669 755 681 717 679 710L673 667C674 655 676 667 676 644C676 606 700 611 702 601C696 596 698 598 692 600L677 605C660 611 669 609 660 621C654 628 652 630 650 638C646 666 621 655 639 694C641 699 642 699 639 704L624 715Z"
            fill="#91D8F7" />
        <path fill-rule="evenodd" clip-rule="evenodd" class="state-map-path" id="borno_state_eYnHpRpba"
            d="M983 769C977 770 969 779 967 785C963 799 973 794 958 806C952 810 945 816 942 824C935 848 961 839 945 864C929 865 930 865 918 861C910 858 899 856 890 855C872 852 876 853 864 861C853 868 849 863 841 872C861 886 864 876 877 881L912 896C918 898 924 899 930 902C939 906 949 908 963 919C970 924 981 953 1008 944C1031 937 1057 943 1077 940C1087 938 1087 942 1098 943C1118 945 1118 950 1123 955C1138 969 1153 958 1160 956C1163 955 1167 955 1171 953C1182 949 1189 935 1197 929C1224 910 1309 879 1344 862C1357 856 1358 857 1362 849L1369 831C1377 808 1334 794 1330 784C1326 775 1334 779 1335 770C1329 767 1320 769 1311 766C1303 764 1295 760 1288 759C1270 756 1229 736 1223 735C1214 733 1204 737 1198 739C1192 742 1156 752 1150 751C1134 748 1121 758 1114 771C1107 784 1116 781 1100 788C1084 795 1076 782 1053 782C1038 782 1044 776 1028 781C1008 787 989 770 983 769Z"
            fill="#F6AFCE" />
        <path fill-rule="evenodd" clip-rule="evenodd" class="state-map-path" id="borno_state_iOTXb2e65"
            d="M791 198C794 203 802 205 802 214C802 223 799 217 799 244L798 291C801 293 803 295 805 297C807 301 806 307 827 316C848 324 847 324 858 337C877 358 872 362 876 371C881 381 885 381 887 387C890 395 888 398 894 407C905 404 902 396 923 395C934 394 965 393 976 389C997 383 977 385 1006 379C1013 378 1019 376 1028 375C1035 374 1041 369 1048 369C1054 368 1055 369 1060 367C1083 360 1072 365 1095 361C1102 360 1099 359 1105 358C1109 357 1114 358 1118 358C1126 358 1124 357 1129 356L1138 354C1148 352 1135 311 1132 304L1122 253C1119 243 1111 242 1102 230L1076 197C1070 189 1066 189 1057 174L1019 128C1011 119 1006 122 989 126C954 135 966 136 943 142C925 147 922 154 914 155C909 156 900 155 895 156C887 158 889 160 879 161C857 161 869 163 841 164C819 164 821 161 808 173C801 178 793 189 791 198Z"
            fill="#9DD3AF" />
        <path fill-rule="evenodd" clip-rule="evenodd" class="state-map-path" id="borno_state_gkkciDwR4"
            d="M719 254C694 254 681 250 658 245C636 240 639 236 615 242C599 246 591 250 582 263C584 270 589 278 594 281C599 285 605 291 608 297C609 298 615 317 615 319C618 337 613 335 610 346C612 349 614 352 615 354L642 355C648 347 661 325 683 332L707 342C716 349 711 358 715 367C726 370 730 363 739 391C742 401 737 403 746 409C750 412 756 415 758 423C748 422 752 419 742 411C733 403 737 406 734 393C729 368 712 375 708 366L706 346L677 337C663 337 658 340 652 351C643 366 653 365 647 381C638 403 651 389 633 416C625 427 625 440 616 459C613 467 609 483 601 492C594 499 589 513 588 520C594 525 601 535 606 537C628 548 609 533 642 555C662 569 691 582 699 589C717 605 720 636 752 644C775 631 760 609 758 600L750 561C749 555 750 549 749 543C748 536 746 539 746 527C746 505 746 513 754 498C761 488 764 485 772 478C774 476 791 466 804 453C811 446 809 449 816 445L792 430C776 427 773 434 759 425C761 424 788 421 799 427C806 431 805 433 813 436C826 441 819 439 827 446C835 445 833 444 844 443C855 443 854 443 862 439C871 434 881 431 888 423C898 409 887 408 883 396C879 383 881 385 874 375C872 373 873 374 872 372C863 359 869 363 864 353C850 325 832 325 818 316C815 314 814 313 812 312C796 303 805 307 796 294C790 287 793 250 793 238C793 231 792 229 794 223C795 220 796 223 796 216L794 209C787 210 789 209 786 216C783 220 783 221 779 224L772 232C769 235 766 237 763 238L746 251C739 254 728 254 719 254Z"
            fill="#F6AFCE" />
        <path fill-rule="evenodd" clip-rule="evenodd" class="state-map-path" id="borno_state_Jx7ZhG4Wn"
            d="M632 87C604 98 576 102 572 132C579 142 588 143 599 151C615 164 604 145 636 174H637C659 193 663 203 675 213C690 226 684 222 694 234C703 245 698 237 701 248C719 249 738 250 751 243C754 241 763 233 765 231C778 216 776 227 783 206C790 185 783 196 802 171C809 162 806 158 831 158C859 159 909 154 927 144C933 140 929 141 936 139C957 132 951 131 987 121C990 120 993 119 997 119L1010 116C1007 109 940 28 940 28C935 21 933 15 926 11C884 -14 801 9.00001 767 35C760 44 755 68 735 82C734 84 659 76 632 87Z"
            fill="#F6AFCE" />
        <path fill-rule="evenodd" clip-rule="evenodd" class="state-map-path" id="borno_state_glIdS7jEY"
            d="M42 1116C66 1147 66 1093 100 1180C108 1179 117 1169 124 1174C133 1188 124 1186 119 1196C117 1202 116 1204 120 1209C126 1217 126 1208 140 1219C140 1219 142 1221 143 1222C157 1233 159 1235 186 1234C189 1228 189 1231 192 1223C194 1219 194 1216 197 1212C201 1206 211 1198 217 1197C230 1194 231 1203 237 1211C241 1216 250 1223 260 1224C260 1224 282 1200 285 1233C299 1236 291 1240 305 1240C325 1219 318 1227 342 1210C350 1205 366 1204 383 1184C387 1179 411 1157 419 1154L429 1150C428 1146 426 1140 423 1136L400 1135C394 1124 392 1131 386 1117C385 1114 385 1114 383 1111C374 1093 361 1095 350 1086C333 1074 281 1032 262 1041C252 1046 245 1049 234 1043C214 1033 219 1042 196 1064C182 1076 82 1108 56 1111C51 1112 54 1111 49 1113L42 1116Z"
            fill="#FDD1A1" />
        <path fill-rule="evenodd" clip-rule="evenodd" class="state-map-path" id="borno_state_EuvGpMcZG"
            d="M1058 407C1049 407 1036 408 1029 406C1024 404 1024 402 1017 404C1014 405 1014 405 1011 406C1008 406 1006 406 1003 407L973 431C963 442 973 438 970 449L967 478C969 499 950 498 940 501C924 504 928 519 904 516C894 514 897 510 884 516C871 523 867 516 862 522C859 525 862 529 857 536L853 544C850 553 855 563 860 569C868 577 863 578 873 588C878 594 887 596 893 601C908 612 911 621 939 620C960 620 966 595 978 591C992 591 1000 599 1016 600C1030 601 1037 610 1043 620C1046 620 1049 620 1053 621C1058 621 1057 623 1062 623C1069 624 1071 620 1074 615L1088 583C1094 572 1099 566 1105 557L1141 483C1150 461 1162 452 1159 439C1156 426 1156 411 1151 401L1058 407Z"
            fill="#F6AFCE" />
        <path fill-rule="evenodd" clip-rule="evenodd" class="state-map-path" id="borno_state_I8XKAg75d"
            d="M787 1064C797 1090 795 1086 814 1090C871 1101 885 1083 946 1080C953 1071 951 1069 964 1066C1015 1055 1033 993 1058 969C1066 962 1068 961 1069 947C1027 945 1030 948 1001 951C968 954 982 930 936 911L873 886C864 883 872 888 846 881C839 880 836 876 832 878C827 882 833 891 823 905C820 911 819 907 817 916C816 925 818 921 813 929C810 934 810 937 808 941C803 950 789 946 800 982C804 995 800 1002 802 1014C804 1024 810 1031 801 1041C798 1045 795 1048 793 1052C789 1063 794 1056 787 1064Z"
            fill="#9DD3AF" />
        <path fill-rule="evenodd" clip-rule="evenodd" class="state-map-path" id="borno_state_H6u1qfirV"
            d="M755 652C758 660 762 655 763 665C763 676 758 672 755 680C756 695 768 692 777 698C782 701 790 715 793 720C790 732 789 735 779 740C775 742 771 743 768 746C761 749 761 748 760 755C769 760 789 746 815 751C825 753 836 751 846 751C860 751 866 751 879 749C888 748 891 747 899 744C911 739 901 736 936 738C950 739 967 755 981 761C993 753 986 757 999 754C1006 738 1011 717 1014 699C1016 690 1020 698 1011 673C1008 664 1011 667 1012 661C1013 657 1011 652 1010 647L1035 628C1038 621 1033 615 1027 611C1014 604 1008 608 997 603C991 601 995 601 991 599C973 590 966 623 944 625C940 625 930 625 926 625C919 625 904 620 900 615C893 608 897 610 889 606C866 592 869 599 859 579C855 572 855 576 851 567C837 566 835 569 825 574C820 577 800 578 793 576L776 558C774 556 774 541 756 544C755 555 757 563 760 572C763 581 763 592 766 602C771 625 774 627 764 642C760 647 758 646 755 652Z"
            fill="#9DD3AF" />
        <path fill-rule="evenodd" clip-rule="evenodd" class="state-map-path" id="borno_state_JrjLbEzA4"
            d="M450 223C423 266 393 237 384 287C380 311 359 321 366 338C369 347 388 363 391 367C400 376 411 394 423 386C432 380 433 376 447 375C455 374 461 372 467 369C479 362 468 361 483 358C511 352 495 348 522 325L555 286C559 282 562 281 565 278L576 262C578 260 577 261 578 259C584 252 594 247 602 241C622 230 641 236 659 241C669 243 681 245 691 245C690 226 672 223 662 209C655 199 663 206 652 197C647 193 648 192 643 187C638 181 636 182 632 176C629 172 632 174 628 170C620 163 609 161 604 160C600 158 598 155 592 152L572 140C569 137 570 136 566 135C560 133 558 140 554 142C477 194 501 146 450 223Z"
            fill="#9DD3AF" />
        <path fill-rule="evenodd" clip-rule="evenodd" class="state-map-path" id="borno_state_gsQTnwcvY"
            d="M288 811C299 817 307 805 326 819C330 822 335 828 338 831C341 835 340 834 341 839C350 868 350 862 360 880C380 915 408 912 432 927C455 942 466 980 509 953C512 930 494 938 494 906C495 857 486 883 482 854L476 828C474 821 472 808 472 801C473 791 473 781 481 777C492 772 527 776 481 720C476 714 476 715 469 713C464 712 461 709 456 708C451 707 446 708 439 706C428 704 402 705 390 705C377 705 375 703 366 702C358 702 347 703 338 702C329 702 318 699 317 707C315 713 317 728 318 734C320 755 309 758 301 772C298 777 293 784 292 789C289 799 286 801 286 807C287 813 286 809 288 811Z"
            fill="#9DD3AF" />
        <path fill-rule="evenodd" clip-rule="evenodd" class="state-map-path" id="borno_state_OdDocN2wg"
            d="M432 1157C412 1157 408 1169 404 1173C400 1177 395 1180 391 1183C390 1184 387 1187 385 1188C381 1193 382 1190 381 1197C406 1212 397 1196 415 1210C427 1220 440 1217 447 1225C455 1234 455 1245 463 1255L482 1276C483 1276 483 1276 483 1277H486C492 1279 491 1275 503 1256C506 1252 507 1248 510 1245C514 1239 515 1239 519 1235C534 1214 537 1226 558 1227C565 1227 571 1227 577 1227C597 1227 606 1230 622 1235L641 1242C661 1250 648 1267 692 1275C702 1277 703 1280 711 1282C721 1285 727 1281 736 1280C737 1269 739 1268 739 1260C741 1244 743 1251 746 1242C750 1229 741 1237 760 1207C763 1202 765 1197 768 1192C769 1190 771 1187 772 1184C781 1171 791 1147 789 1138H736C711 1138 745 1132 694 1132C686 1132 656 1130 652 1134C647 1140 654 1165 647 1175C641 1186 634 1180 624 1181C618 1182 624 1183 615 1181C589 1175 597 1185 578 1180C566 1177 561 1183 538 1182C527 1182 508 1177 500 1176C492 1176 487 1174 481 1175C471 1177 468 1177 459 1175C435 1170 446 1172 432 1157Z"
            fill="#91D8F7" />
        <path fill-rule="evenodd" clip-rule="evenodd" class="state-map-path" id="borno_state_JZRAjgsvb"
            d="M425 1320C429 1312 446 1311 448 1300C450 1292 448 1289 454 1284C460 1279 463 1281 468 1273L446 1234C439 1220 440 1227 427 1223C418 1220 415 1218 410 1210C401 1209 398 1211 391 1207C367 1194 386 1198 348 1213C336 1218 332 1224 322 1230C310 1239 305 1258 282 1234L273 1221C269 1223 272 1222 270 1223C249 1243 230 1201 220 1201L210 1206C196 1219 204 1219 191 1231C196 1244 205 1242 210 1268L209 1290C206 1306 197 1307 197 1313C197 1321 213 1326 219 1333C239 1356 254 1339 282 1337C287 1336 293 1338 300 1339C317 1340 310 1353 331 1333C345 1320 356 1327 380 1325C386 1325 390 1327 397 1327C407 1326 410 1318 425 1320Z"
            fill="#9DD3AF" />
        <path fill-rule="evenodd" clip-rule="evenodd" class="state-map-path" id="borno_state_nWPgJS7Ia"
            d="M1233 662L1227 732C1248 740 1298 762 1318 763C1338 764 1348 769 1353 761L1352 754C1350 747 1351 730 1351 722C1362 714 1361 652 1373 628C1384 605 1291 530 1263 535C1248 537 1255 533 1245 534C1260 581 1251 549 1251 580C1249 608 1249 623 1228 643L1233 662Z"
            fill="#9DD3AF" />
        <path fill-rule="evenodd" clip-rule="evenodd" class="state-map-path" id="borno_state_TNPWXjRiX"
            d="M961 396C939 396 949 398 939 399C921 401 909 396 901 411L893 424C878 444 856 446 836 450C828 452 819 449 812 453L808 459L785 474C779 480 771 486 766 492C764 494 764 495 762 497C757 503 753 507 753 516C751 541 756 537 772 538L786 560C790 566 792 569 798 570C806 572 817 570 824 568C829 566 830 565 834 563C837 562 836 563 839 562C844 561 838 563 842 562C843 561 843 561 844 561L847 560C847 552 845 546 849 540C861 524 849 517 871 515C884 514 882 511 890 509C900 507 908 515 921 508C929 503 922 500 944 494C966 489 960 483 960 475C960 467 962 472 963 463C965 453 963 443 964 433C982 421 955 429 996 405L1020 399C1029 398 1019 402 1048 402H1078C1088 401 1088 399 1101 399L1138 395L1148 390C1148 379 1145 372 1145 359C1126 362 1091 365 1073 369C1062 372 1062 374 1050 375C1034 376 1020 382 1005 385C976 391 983 396 961 396Z"
            fill="#91D8F7" />
        <path fill-rule="evenodd" clip-rule="evenodd" class="state-map-path" id="borno_state_f50AEz7wL"
            d="M1070 630C1059 630 1053 625 1045 626C1040 630 1039 634 1033 638C1024 643 1024 641 1016 649C1021 667 1018 655 1015 669C1017 676 1025 684 1022 694C1018 706 1021 703 1017 715L1012 736C1010 742 1009 744 1007 748C1001 764 997 754 988 764C1000 777 1017 778 1032 775C1039 773 1043 776 1050 776C1060 777 1057 774 1067 778C1071 779 1078 783 1081 784C1086 786 1093 786 1098 784C1113 778 1102 758 1138 747C1157 740 1139 754 1171 742C1178 740 1178 739 1187 738L1220 729C1221 721 1220 718 1222 710C1225 699 1221 702 1223 693C1223 686 1224 681 1224 673C1229 660 1228 653 1225 651C1219 647 1202 658 1193 661C1184 663 1176 662 1170 667C1166 671 1158 690 1133 674C1125 668 1115 648 1112 639C1109 633 1103 630 1099 624C1095 618 1090 612 1083 611C1080 614 1073 627 1070 630Z"
            fill="#FDD1A1" />
        <path fill-rule="evenodd" clip-rule="evenodd" class="state-map-path" id="borno_state_cwHCIZi4U"
            d="M1157 675C1161 666 1172 660 1182 657C1211 651 1230 642 1239 612C1242 605 1242 610 1243 600C1244 588 1245 594 1247 585C1247 579 1247 556 1246 551C1243 543 1240 530 1232 530C1215 536 1191 539 1175 525C1165 517 1160 497 1162 489C1164 479 1175 482 1167 468C1163 460 1167 464 1161 461C1155 465 1143 493 1138 503L1123 533C1120 537 1119 545 1116 550C1111 559 1104 569 1099 577C1094 584 1094 583 1091 591C1086 608 1080 600 1095 612L1106 624C1109 628 1109 627 1112 629C1119 637 1126 677 1157 675Z"
            fill="#91D8F7" />
        <path fill-rule="evenodd" clip-rule="evenodd" class="state-map-path" id="borno_state_W9Gi3sscO"
            d="M430 1133C430 1139 436 1148 440 1156C443 1164 440 1164 446 1167C452 1170 456 1168 462 1169C488 1175 472 1168 490 1171C502 1173 511 1174 522 1175C561 1180 551 1175 569 1174C576 1174 580 1176 585 1176C596 1177 589 1172 616 1176C625 1177 621 1175 630 1175C642 1176 634 1177 644 1173C645 1165 646 1131 645 1129C644 1128 636 1119 634 1116C626 1106 628 1096 616 1085C607 1078 599 1062 561 1071C556 1072 544 1074 540 1074C528 1075 531 1075 520 1078C498 1084 457 1104 444 1122C436 1131 437 1126 430 1133Z"
            fill="#9DD3AF" />
        <path fill-rule="evenodd" clip-rule="evenodd" class="state-map-path" id="borno_state_PxNA8upvk"
            d="M68 1383C73 1387 82 1384 89 1386C95 1390 96 1396 101 1401C104 1403 107 1405 109 1407C138 1438 124 1428 152 1434C166 1437 185 1440 201 1440C214 1440 216 1437 225 1436C238 1434 227 1441 246 1432C247 1424 245 1421 249 1416C252 1413 252 1415 257 1406C264 1395 264 1398 271 1391C278 1383 286 1375 297 1371C301 1369 307 1368 310 1365C314 1362 316 1357 316 1352C301 1337 278 1344 268 1344C261 1345 256 1347 250 1349C230 1355 203 1328 197 1320C189 1322 187 1324 179 1328C164 1335 177 1331 161 1338C158 1339 159 1339 157 1341C154 1343 157 1343 151 1347C140 1355 137 1355 126 1358C91 1367 98 1352 84 1374C79 1382 75 1376 68 1383Z"
            fill="#91D8F7" />
        <path fill-rule="evenodd" clip-rule="evenodd" class="state-map-path" id="borno_state_I7LblgpYm"
            d="M48 1217C45 1226 46 1231 50 1238C80 1289 1 1332 0 1333C3 1342 11 1345 17 1351C23 1357 23 1367 29 1372C33 1375 48 1378 55 1380C73 1383 83 1367 87 1363C103 1349 114 1359 118 1344C121 1338 117 1336 115 1332C112 1321 120 1330 110 1301L108 1290L96 1275C100 1250 91 1252 95 1238C98 1229 108 1216 114 1210C108 1184 120 1205 120 1177C107 1180 113 1184 105 1190C84 1206 70 1208 48 1217Z"
            fill="#9DD3AF" />
        <path fill-rule="evenodd" clip-rule="evenodd" class="state-map-path" id="borno_state_l5qDLbBfk"
            d="M101 1265L115 1297C118 1308 120 1311 120 1320C120 1340 124 1332 125 1343L116 1353C121 1356 137 1351 144 1346C155 1339 146 1339 160 1333C167 1330 162 1333 167 1329C173 1324 187 1324 199 1301C208 1285 206 1268 200 1253C189 1227 174 1250 144 1229C144 1229 141 1227 141 1226C139 1225 139 1225 138 1224C132 1220 129 1217 118 1215C93.9999 1236 101 1239 101 1265Z"
            fill="#F6AFCE" />
        <path fill-rule="evenodd" clip-rule="evenodd" class="state-map-path" id="borno_state_LNY3bIhYI"
            d="M675 752C671 759 671 764 665 768C655 775 654 769 655 786C688 801 696 770 731 772C743 786 737 779 741 788C750 791 760 793 769 789C772 771 759 776 750 764C745 756 742 759 741 752C740 747 743 744 742 742C748 742 758 737 771 736C786 738 792 720 776 703C770 697 768 703 761 698C760 698 752 688 752 687C746 674 762 675 753 656C747 646 749 650 730 640C720 634 728 641 720 629C717 623 716 625 712 617C709 612 706 609 697 611C688 613 682 627 681 637C681 643 682 651 681 656C680 664 680 655 678 664V674L682 697C686 699 702 701 711 710C714 714 714 717 720 720C727 723 734 721 740 723C740 732 735 737 736 739C732 748 736 751 730 755C712 765 702 749 675 752Z"
            fill="#D2E28B" />
        <path fill-rule="evenodd" clip-rule="evenodd" class="state-map-path" id="borno_state_fWAGebiWi"
            d="M684 704C697 710 694 704 705 715L715 724L726 727L732 729C722 746 740 750 712 754C700 749 688 746 677 746C682 729 685 722 684 704Z"
            fill="#FDD1A1" />
    </svg>