<svg viewBox="0 0 84 125" fill="none" xmlns="http://www.w3.org/2000/svg">
        <path fill-rule="evenodd" clip-rule="evenodd" class="state-map-path" id="cross_river_state_eicz1bGrT"
            d="M25.1267 59.0179C25.2667 59.8079 25.2067 59.8879 24.7367 60.2879L21.7968 62.3878C21.0168 62.9178 20.4368 63.3978 19.4468 63.5878C18.3769 63.7878 17.4769 63.7778 16.2669 63.7978C16.2569 64.3678 16.7569 65.9977 17.0369 66.4577C17.3169 67.5277 17.6869 67.4477 18.0269 68.8376C18.2169 69.5976 18.2069 69.4176 18.5069 70.0076L19.5868 72.1976C19.8068 72.5875 19.8468 72.9275 20.0668 73.3475L21.1568 75.4175C21.5768 76.4575 21.5068 76.9474 20.6968 77.6074C19.6168 78.4974 18.2769 79.8874 17.8869 81.2673C17.5169 82.5773 17.2469 81.7273 16.2069 82.7173L15.4769 82.9473C15.8969 84.0473 17.1169 84.5273 18.2769 85.0172C19.6868 85.6272 21.2568 86.7272 23.3567 87.1172C24.6667 87.3572 26.4967 89.1371 27.1966 89.1471C27.3066 89.1471 28.2266 88.5872 28.3866 89.8871C28.5466 91.1171 27.7066 91.2171 29.0466 91.5771C30.6066 91.5871 29.9666 91.9071 30.3766 92.987C30.7666 94.027 31.4265 93.787 31.9665 94.207C32.8065 94.847 32.6565 96.9469 34.0065 97.8469C34.7065 98.3069 35.1864 98.5269 36.0064 98.0969C36.8864 97.6169 37.1964 98.0469 38.3164 97.9069C39.1463 97.7969 43.1262 97.5269 43.7062 97.7269C43.5462 97.4469 43.8162 97.5569 43.3262 97.3769C44.0562 96.367 44.2662 96.397 44.8062 95.767C45.5562 94.877 44.4862 94.067 46.3162 92.7371C46.7562 92.4171 46.8862 92.3371 47.2261 91.9971C47.6361 91.5871 48.5261 90.9171 48.8361 90.3271C49.3261 89.4071 49.8861 86.1972 49.7261 85.0372C49.6061 84.1273 49.3261 83.2073 49.4961 82.2573C49.8261 80.3774 50.8761 79.0774 51.176 77.4774C51.376 76.4475 51.266 75.7875 51.616 74.7575C52.576 71.9876 51.496 72.7775 53.226 69.9376C53.546 69.4076 53.976 68.1577 54.006 67.5277C54.066 66.4277 53.556 65.9677 53.016 65.3177C51.936 63.9878 52.066 64.4678 51.356 63.8078C51.056 63.5278 50.8661 63.3278 50.6461 62.8978C50.1561 61.9678 50.2561 62.4378 49.9961 61.9578C49.8861 62.3878 50.0461 62.0978 49.7961 62.3378C48.9361 62.2178 48.0661 62.0678 47.2261 61.9478C46.7762 61.8778 46.3162 61.8178 45.9362 61.7078C44.8062 61.3878 43.1362 61.2578 42.2863 61.0478L40.4963 60.5878C39.9963 60.4079 40.2563 60.5978 39.9863 60.2779C39.3563 60.2479 38.7164 60.0979 38.1064 59.9879C37.4164 59.8679 36.8764 59.8279 36.1764 59.6579C35.0964 59.4079 33.2965 59.8579 32.8165 58.6479L31.9065 57.8579C30.4366 56.258 30.5166 56.088 27.6866 58.3079C27.1366 58.7479 26.9566 58.8679 26.3167 59.2079C24.8767 59.9679 25.7567 59.1079 25.1267 59.0179Z"
            fill="#F6AFCE" stroke="#FEFEFE" stroke-width="0.677283" />
        <path fill-rule="evenodd" clip-rule="evenodd" class="state-map-path" id="cross_river_state_ZUuezMdjv"
            d="M44.5563 26.6287C44.6763 27.0587 44.7063 26.9687 44.9063 27.2787C44.9163 27.2987 44.9463 27.3287 44.9563 27.3487C44.9663 27.3787 44.9863 27.4087 44.9963 27.4287L45.1163 27.9586C45.1463 28.1386 45.1463 28.2286 45.2063 28.3986C45.2163 28.4386 45.2263 28.4686 45.2363 28.4986C45.6962 29.6586 46.0662 29.7686 46.1862 30.9986L46.2762 31.5186C46.5062 32.2085 46.5562 32.0485 46.8462 32.2585C46.8962 34.0185 46.6562 34.6485 46.2062 36.2384C46.0962 36.6284 46.1462 36.8084 46.0962 37.1984C45.9562 38.0984 45.7562 37.2984 45.6062 38.0784C45.5762 38.2584 45.5862 38.3784 45.6362 38.5384C45.7462 38.8784 45.6162 38.5684 45.7862 38.7984L46.7062 39.3884C48.2162 39.9083 46.9662 39.2284 48.2562 40.1083L49.0862 40.6683C49.1062 40.6883 49.1462 40.7083 49.1662 40.7283C50.1961 41.4883 48.9962 40.8983 50.0961 41.6083C50.4461 44.2482 51.0961 42.5783 51.2361 43.8483C52.5761 43.1683 54.456 44.9482 55.496 45.6482C58.1859 47.4482 57.7959 47.8782 58.6559 49.0181L62.1458 45.2482C63.6958 43.5583 65.7058 42.2283 67.8257 41.3183C68.9657 40.8283 72.7356 39.2384 73.3856 38.4084L74.8955 35.7485C75.2655 34.8285 76.1155 33.5485 76.1655 32.7985C75.9755 32.6585 76.0455 32.6685 75.9355 32.5185C74.9355 31.1686 75.5355 31.4086 74.5155 30.7486C74.4255 29.4986 74.6555 26.8587 74.3755 26.0087C74.2555 25.6787 73.8955 25.0487 73.7256 24.2887C73.5656 23.5588 73.4056 23.3588 72.8456 22.8588C72.4856 22.5488 71.7656 22.1088 71.2856 22.0688C70.9956 22.0488 70.4156 22.0188 70.1356 22.0188C69.7057 22.0288 69.5557 22.0488 69.2957 22.3088C68.5057 23.0888 68.8157 22.6088 68.3557 23.2588C68.1257 23.5788 68.3957 23.2988 68.0957 23.5188C67.4057 24.0187 67.3057 24.0287 66.3457 24.0387C66.0657 24.5187 64.8958 24.5487 64.5258 24.6487C64.1558 24.7387 64.1658 24.8487 63.4258 24.9087C61.8858 25.0187 61.2759 24.9387 60.3359 24.2487C60.3159 24.2387 60.2859 24.2087 60.2659 24.1987C60.2459 24.1787 60.2059 24.1587 60.1859 24.1387C60.1659 24.1287 60.1359 24.1087 60.1159 24.0887L59.9059 23.9187C59.8859 23.8987 59.8659 23.8687 59.8459 23.8487C58.6659 22.6688 58.1359 23.4188 56.486 22.6388C56.096 22.4588 55.686 22.1188 55.986 21.6288C54.796 21.6088 52.2161 21.5288 51.7161 20.6288C51.1961 19.6888 50.9561 17.0889 49.9161 17.1289C49.3162 17.3789 48.4362 18.3689 48.1262 18.9789C47.0962 20.9788 48.4362 22.7488 46.0762 24.2487C45.5662 24.5787 44.7663 25.8287 44.5563 26.6287Z"
            fill="#F6AFCE" stroke="#FEFEFE" stroke-width="0.677283" />
        <path fill-rule="evenodd" clip-rule="evenodd" class="state-map-path" id="cross_river_state_Oa5QRKNKN"
            d="M34.0065 28.0286C34.1265 28.5486 34.1565 28.3686 34.3565 28.8486C33.9565 29.3586 33.9065 28.9286 34.0065 29.9886L33.4765 30.2386L33.3965 31.4986L32.9465 31.8286C32.9265 31.8486 32.8965 31.8786 32.8765 31.8986C32.5965 32.1285 32.6165 32.1085 32.1465 32.1085C31.8466 32.7685 31.6966 32.3785 31.6766 33.0685C32.7565 33.5185 32.4165 33.1885 32.5365 33.5285C32.2265 33.7085 31.6666 33.6185 31.2666 33.7285C30.5566 33.9285 30.8966 34.0085 30.9566 34.6585L30.7766 34.7585C30.4666 34.9185 30.0866 34.8785 30.0166 36.0484C30.4266 36.3984 30.5766 36.5684 30.8966 37.2584C31.4366 38.4184 30.5966 37.8484 30.9266 38.9584C33.2565 39.4084 31.1166 40.4783 31.4166 41.2383C32.0766 42.0283 32.4665 41.3383 32.8565 42.7483C33.1165 43.6683 33.0165 43.5083 34.3665 44.2782C37.3664 45.9882 35.0765 46.5882 34.4365 47.4782C33.9565 47.1282 34.4265 47.0482 33.6265 46.9082C32.8465 46.7782 32.7065 47.1382 32.6065 47.4282L33.1765 47.5382C33.7365 47.4582 32.8265 47.4182 33.4865 47.4282C33.3965 47.6682 33.6965 47.4382 33.1665 47.6682L32.4765 47.9382C32.4765 49.0781 32.7065 48.6681 33.1565 49.4281C33.3865 49.8181 33.8265 50.2181 33.8565 50.7181C33.5165 51.1481 32.5465 51.4781 32.0366 51.8481C31.9166 52.448 31.8866 53.268 31.9666 53.878C32.0566 54.518 32.9865 56.068 32.9265 56.8779C32.8965 57.4279 32.8065 57.9579 32.8165 58.6479C33.2965 59.8579 35.0965 59.4079 36.1764 59.6579C36.8764 59.8279 37.4164 59.8679 38.1064 59.9879C38.7164 60.0979 39.3564 60.2479 39.9864 60.2778C39.6864 60.1179 39.4864 60.1279 39.6064 59.0879C40.3063 53.188 42.0363 54.718 43.4263 54.068C44.6562 53.498 44.2862 52.918 44.5862 51.5681C44.8862 50.2581 45.8062 50.9281 47.3862 49.0681C47.7362 48.6581 47.7362 48.5281 48.1762 48.0882C49.0661 47.1682 49.0561 47.4082 49.6661 46.0382C50.0561 45.1782 50.8961 44.8782 51.2361 43.8483C51.0961 42.5783 50.4461 44.2482 50.0961 41.6083C48.9961 40.8983 50.1961 41.4883 49.1661 40.7283C49.1461 40.7083 49.1061 40.6883 49.0861 40.6683L48.2562 40.1083C46.9662 39.2284 48.2162 39.9084 46.7062 39.3884L45.7862 38.7984C45.6162 38.5684 45.7462 38.8784 45.6362 38.5384C45.5862 38.3784 45.5762 38.2584 45.6062 38.0784C45.7562 37.2984 45.9562 38.0984 46.0962 37.1984C46.1462 36.8084 46.0962 36.6284 46.2062 36.2384C46.6562 34.6485 46.8962 34.0185 46.8462 32.2585C46.5562 32.0485 46.5062 32.2085 46.2762 31.5186L46.1862 30.9986C46.0662 29.7686 45.6962 29.6586 45.2362 28.4986C45.2262 28.4686 45.2162 28.4386 45.2062 28.3986C45.1462 28.2286 45.1462 28.1386 45.1162 27.9586L44.9962 27.4287C44.9862 27.4087 44.9662 27.3787 44.9562 27.3487C44.9462 27.3287 44.9162 27.2987 44.9062 27.2787C44.7062 26.9687 44.6762 27.0587 44.5562 26.6287C44.3862 27.2387 44.4162 27.2987 43.8963 27.6187C42.2063 28.6486 41.8463 28.4586 39.8964 28.9286C38.7864 29.1986 37.8564 29.1486 36.9764 28.6486C35.6765 27.9286 35.5165 28.1486 34.0065 28.0286Z"
            fill="#9DD3AF" stroke="#FEFEFE" stroke-width="0.677283" />
        <path fill-rule="evenodd" clip-rule="evenodd" class="state-map-path" id="cross_river_state_VQBh82V2V"
            d="M29.1966 32.1785C29.8466 32.0085 31.3566 31.9485 32.1466 32.1085C32.6165 32.1085 32.5965 32.1285 32.8765 31.8986C32.8965 31.8786 32.9265 31.8486 32.9465 31.8286L33.3965 31.4986L33.4765 30.2386L34.0065 29.9886C33.9065 28.9286 33.9565 29.3586 34.3565 28.8486C34.1565 28.3686 34.1265 28.5486 34.0065 28.0286C33.6465 26.6687 33.6665 25.7987 33.0565 24.9887C32.8065 24.6587 32.5865 24.5787 32.4665 24.1887C32.2666 23.5388 33.0765 23.1188 33.7065 23.3388C34.3965 23.5788 35.4265 24.0787 36.0165 23.6088C36.4364 22.9688 35.8265 22.0988 35.4565 21.5888C35.2265 21.2688 35.0165 21.1188 34.9865 20.7188C34.9565 20.3888 34.9165 20.4688 35.2765 20.0388C35.6565 19.5789 37.1764 19.7888 37.5364 19.9888C37.2264 20.3188 37.3864 21.3488 37.7464 21.8088C37.7764 21.8388 37.8464 21.9188 37.8764 21.9388C38.0364 22.1288 37.9164 21.9488 38.0364 22.1488C39.1464 22.1488 39.6664 22.2788 39.9664 21.3588C40.1064 20.9088 40.0964 20.6088 39.9664 20.1588C39.8264 19.7089 39.8464 19.5689 39.4164 19.4989C39.8564 19.0389 40.2064 18.8089 40.5563 18.3389C41.4863 17.0389 41.7963 16.8389 43.0863 16.0989C43.6663 15.7689 43.9663 15.359 44.4063 14.999L45.6262 13.819C46.0062 13.489 45.9962 13.659 46.2662 13.329C46.5962 12.939 46.6662 12.009 48.1162 11.5191C48.6561 11.3391 49.3161 11.0391 49.6761 10.6091C49.8261 10.3191 49.9161 10.1891 50.0461 9.96909C50.8361 9.91909 50.6461 9.97909 51.1661 9.6191C52.4461 8.74912 52.0661 9.36911 53.336 7.86914L53.996 7.14916C54.346 6.74917 54.366 6.51918 55.166 5.6592L55.686 4.96922C55.366 4.53923 52.796 3.26926 52.1161 2.88927C50.8961 2.18928 49.2761 1.89929 47.8662 1.4293C47.0962 1.17931 46.2962 1.19931 45.4562 1.05931C43.0563 0.669321 43.3163 2.31928 41.3663 2.60927C40.3464 2.75927 39.9064 2.68927 38.8464 2.97926C39.0164 3.89924 40.1864 4.40923 40.8663 4.76922C40.8363 5.7692 40.5763 6.45918 39.7264 6.88917C37.7764 7.87914 36.3764 7.75915 34.3865 7.92914C33.5665 7.99914 32.5465 8.61913 31.7166 8.54913C30.6266 8.46913 31.0066 7.55915 29.2866 8.19914C27.4267 8.89912 28.2167 10.6191 26.1367 11.5291C24.9967 12.029 24.7467 12.099 23.3168 11.979C23.4768 12.429 23.5468 12.359 23.7068 12.719C23.9168 13.169 23.7568 12.989 23.8068 13.419C23.9368 14.689 25.5767 14.229 24.3067 15.509C24.2967 15.519 24.2567 15.549 24.2367 15.579C24.4767 15.9289 24.3367 15.649 24.5267 15.9389C25.3167 17.0989 29.6266 22.4388 29.6566 22.4388C29.8366 22.5088 29.9066 23.1988 30.4866 23.6288C30.3866 24.3487 30.3766 23.7188 30.2766 24.4287C30.4366 24.5287 30.2766 24.4487 30.5566 24.5687L31.5066 24.9287C31.4766 25.7187 31.4566 25.6987 30.9466 26.0687L30.9766 26.9087C29.3466 27.3487 28.8166 27.1387 28.5266 28.9586C28.4466 29.4086 28.2567 30.4586 28.2567 30.8786C28.2567 31.5686 28.8166 32.0585 29.1966 32.1785Z"
            fill="#F6AFCE" stroke="#FEFEFE" stroke-width="0.677283" />
        <path fill-rule="evenodd" clip-rule="evenodd" class="state-map-path" id="cross_river_state_PQCQUwZ1z"
            d="M67.3356 11.799L68.3156 11.669L68.4556 12.669C67.9356 13.179 65.9856 13.789 65.3557 14.279L68.4356 13.209C68.2556 15.339 66.4756 16.0689 65.3657 18.1389C64.5557 19.6389 64.6457 19.5389 65.0957 21.2188C65.5057 22.7888 66.1756 23.2388 66.3456 24.0387C67.3056 24.0287 67.4056 24.0187 68.0956 23.5188C68.3956 23.2988 68.1256 23.5788 68.3556 23.2588C68.8156 22.6088 68.5056 23.0888 69.2956 22.3088C69.5556 22.0488 69.7056 22.0288 70.1355 22.0188C70.4155 22.0188 70.9955 22.0488 71.2855 22.0688C71.7655 22.1088 72.4855 22.5488 72.8455 22.8588C73.4055 23.3588 73.5655 23.5588 73.7255 24.2887C73.8954 25.0487 74.2554 25.6787 74.3754 26.0087C74.6554 26.8587 74.4254 29.4986 74.5154 30.7486C75.5354 31.4086 74.9354 31.1686 75.9354 32.5185C76.0454 32.6685 75.9754 32.6585 76.1654 32.7985C76.6354 32.4985 76.8854 31.9285 76.9654 31.3386C77.1054 30.2886 76.4554 30.6086 76.5754 29.6086C78.0253 28.9886 78.9753 30.9386 80.2453 30.3786C81.6153 29.7686 81.7753 28.8586 81.9752 27.1287C82.1552 25.6187 82.7552 24.8687 82.9752 23.2088C83.1152 22.1488 83.5852 21.0288 83.2852 20.1288C83.2152 19.9188 83.1652 19.8288 83.0952 19.7688C82.7752 19.7289 82.4952 19.5889 82.2752 19.3789C81.9752 19.2889 81.6253 19.0489 81.4053 18.8189L81.3953 18.7989C81.2253 18.6789 81.1253 18.5589 81.0053 18.3889C80.8853 18.2689 80.7853 18.1289 80.7153 17.9689C80.5853 17.8089 80.4853 17.6489 80.3853 17.4689C80.2953 17.3389 80.2353 17.1989 80.1653 17.0589C80.0653 16.8689 80.0153 16.6689 80.0053 16.4589C79.4053 15.469 78.4053 15.189 77.6654 14.249C77.2354 13.719 77.0054 13.129 76.4654 12.549C76.0354 12.089 75.5554 11.6091 75.2354 10.9691C75.0854 10.8691 74.9454 10.7491 74.8454 10.5991C74.6754 10.4291 74.5154 10.1591 74.4454 9.92909C73.6255 9.96909 72.3855 9.8091 70.1655 10.6591C69.6356 10.8591 69.4156 11.0391 68.8356 11.2291L67.3356 11.799Z"
            fill="#9DD3AF" stroke="#FEFEFE" stroke-width="0.677283" />
        <path fill-rule="evenodd" clip-rule="evenodd" class="state-map-path" id="cross_river_state_YAY20QW3D"
            d="M4.16722 71.2276C4.46721 71.9776 4.59721 72.5675 4.9172 73.3575C5.21719 74.0975 5.73718 74.2775 6.06717 75.0975C6.36716 75.8475 6.61716 76.4075 6.93715 77.1374C7.60713 78.6274 8.8971 79.7274 4.9272 79.1474C3.35724 78.9174 0.0573198 79.9274 1.25729 81.2773C1.57728 81.4173 2.61726 80.6473 4.10722 82.1173C5.31719 83.2973 4.7872 84.0773 5.35719 84.7872C5.73718 85.2672 6.23717 85.1872 6.52716 85.5072C6.59716 85.5972 7.21714 88.1672 8.48711 86.1372C8.64711 85.8872 9.1071 83.6873 10.4271 85.3972C12.307 87.8472 11.537 87.3072 11.587 89.3871C11.617 90.8771 12.387 90.5471 13.097 91.4571L13.397 94.827L14.217 97.0769C14.397 97.6069 14.537 97.5169 14.747 98.4069C14.897 99.0669 15.0269 99.1669 15.4269 99.7469C16.3369 101.077 16.2169 99.9769 17.8069 101.277C19.0469 102.297 18.9669 101.677 19.5568 103.447C19.9768 104.757 20.6968 104.617 21.3868 105.317H21.6368C21.8968 105.317 22.1368 105.387 22.3368 105.517C22.2868 105.427 22.2368 105.327 22.2168 105.217L21.8868 103.887C21.1968 102.297 21.5968 102.267 22.8268 100.717C23.2167 100.217 23.2767 99.8969 23.8567 99.4969C24.4667 98.2369 23.9667 99.0669 23.7367 98.0869C23.6067 97.5369 23.8767 96.8469 24.2167 96.537C24.7767 96.267 25.3267 96.557 25.8467 96.337L24.8667 96.057C25.0867 95.937 25.3967 95.837 25.5067 95.587C25.6667 94.487 24.9167 93.467 25.9567 92.987C26.5767 92.697 28.3066 92.2971 28.8766 92.817C28.8966 92.3471 28.9966 91.9071 29.0466 91.5771C27.7066 91.2171 28.5466 91.1171 28.3866 89.8871C28.2266 88.5871 27.3066 89.1471 27.1967 89.1471C26.4967 89.1371 24.6667 87.3572 23.3567 87.1172C21.2568 86.7272 19.6868 85.6272 18.2769 85.0172C17.1169 84.5272 15.8969 84.0473 15.4769 82.9473L16.2069 82.7173C13.767 82.7573 14.797 83.4473 12.787 82.6673C11.387 82.1173 11.487 82.5073 9.73708 81.5673C9.48709 79.2374 10.0471 78.6774 10.3471 77.3874C10.8971 75.0675 9.80708 76.0075 9.20709 73.9875C8.7671 72.4975 9.79708 72.1576 8.9671 71.0476C8.74711 70.7476 8.54711 70.7176 8.19712 70.6876L4.9072 70.7676C4.20722 70.7776 4.11722 70.6876 4.16722 71.2276ZM22.9068 106.627C22.9168 106.527 22.9068 106.427 22.8868 106.347L22.9068 106.627Z"
            fill="#91D8F7" />
        <path
            d="M22.9068 106.627C22.9168 106.527 22.9068 106.427 22.8868 106.347M4.16722 71.2276C4.46721 71.9776 4.59721 72.5675 4.9172 73.3575C5.21719 74.0975 5.73718 74.2775 6.06717 75.0975C6.36716 75.8475 6.61716 76.4075 6.93715 77.1374C7.60713 78.6274 8.8971 79.7274 4.9272 79.1474C3.35724 78.9174 0.0573198 79.9274 1.25729 81.2773C1.57728 81.4173 2.61726 80.6473 4.10722 82.1173C5.31719 83.2973 4.7872 84.0773 5.35719 84.7872C5.73718 85.2672 6.23717 85.1872 6.52716 85.5072C6.59716 85.5972 7.21714 88.1672 8.48711 86.1372C8.64711 85.8872 9.1071 83.6873 10.4271 85.3972C12.307 87.8472 11.537 87.3072 11.587 89.3871C11.617 90.8771 12.387 90.5471 13.097 91.4571L13.397 94.827L14.217 97.0769C14.397 97.6069 14.537 97.5169 14.747 98.4069C14.897 99.0669 15.0269 99.1669 15.4269 99.7469C16.3369 101.077 16.2169 99.9769 17.8069 101.277C19.0469 102.297 18.9669 101.677 19.5568 103.447C19.9768 104.757 20.6968 104.617 21.3868 105.317H21.6368C21.8968 105.317 22.1368 105.387 22.3368 105.517C22.2868 105.427 22.2368 105.327 22.2168 105.217L21.8868 103.887C21.1968 102.297 21.5968 102.267 22.8268 100.717C23.2167 100.217 23.2767 99.8969 23.8567 99.4969C24.4667 98.2369 23.9667 99.0669 23.7367 98.0869C23.6067 97.5369 23.8767 96.8469 24.2167 96.537C24.7767 96.267 25.3267 96.557 25.8467 96.337L24.8667 96.057C25.0867 95.937 25.3967 95.837 25.5067 95.587C25.6667 94.487 24.9167 93.467 25.9567 92.987C26.5767 92.697 28.3066 92.2971 28.8766 92.817C28.8966 92.3471 28.9966 91.9071 29.0466 91.5771C27.7066 91.2171 28.5466 91.1171 28.3866 89.8871C28.2266 88.5871 27.3066 89.1471 27.1967 89.1471C26.4967 89.1371 24.6667 87.3572 23.3567 87.1172C21.2568 86.7272 19.6868 85.6272 18.2769 85.0172C17.1169 84.5272 15.8969 84.0473 15.4769 82.9473L16.2069 82.7173C13.767 82.7573 14.797 83.4473 12.787 82.6673C11.387 82.1173 11.487 82.5073 9.73708 81.5673C9.48709 79.2374 10.0471 78.6774 10.3471 77.3874C10.8971 75.0675 9.80708 76.0075 9.20709 73.9875C8.7671 72.4975 9.79708 72.1576 8.9671 71.0476C8.74711 70.7476 8.54711 70.7176 8.19712 70.6876L4.9072 70.7676C4.20722 70.7776 4.11722 70.6876 4.16722 71.2276Z"
            stroke="#FEFEFE" stroke-width="0.677283" />
        <path fill-rule="evenodd" clip-rule="evenodd" class="state-map-path" id="cross_river_state_qlRclX2g8"
            d="M6.40721 58.1679L6.18722 57.8079C5.18724 57.8879 4.07727 58.4479 3.86727 59.4279C3.47728 61.1978 3.57728 60.6778 2.47731 61.7078C2.45731 62.5878 2.5873 62.6478 2.98729 63.1278C3.12729 63.2978 3.08729 63.2478 3.16729 63.3278C4.23726 64.3378 3.89727 64.1978 3.70728 66.1277C3.56728 67.6177 2.8173 70.2876 4.16727 71.2276C4.11727 70.6876 4.20726 70.7776 4.90725 70.7676L8.19717 70.6876C8.54716 70.7176 8.74715 70.7476 8.96715 71.0476C9.79713 72.1576 8.76715 72.4975 9.20714 73.9875C9.80713 76.0075 10.8971 75.0675 10.3471 77.3874C10.0471 78.6774 9.48713 79.2374 9.73713 81.5673C11.4871 82.5073 11.3871 82.1173 12.7871 82.6673C14.797 83.4473 13.767 82.7573 16.207 82.7173C17.2469 81.7273 17.5169 82.5773 17.8869 81.2673C18.2769 79.8874 19.6169 78.4974 20.6969 77.6074C21.5068 76.9474 21.5768 76.4574 21.1568 75.4175L20.0669 73.3475C19.8469 72.9275 19.8069 72.5875 19.5869 72.1976L18.5069 70.0076C18.2069 69.4176 18.2169 69.5976 18.0269 68.8376C17.6869 67.4477 17.3169 67.5277 17.0369 66.4577C16.607 65.9877 16.487 64.2378 16.047 63.7478C15.727 63.3978 15.297 63.4578 14.957 62.9278C14.227 61.7878 15.137 62.0378 13.257 60.6978C12.7171 60.3178 11.2571 58.1979 10.9571 57.0179C10.6671 56.5879 10.3571 56.3779 9.69713 56.3279C9.02715 56.2779 8.93715 56.5879 8.63716 57.0779C8.19717 57.7879 7.26719 59.0879 6.40721 58.1679Z"
            fill="#9DD3AF" stroke="#FEFEFE" stroke-width="0.677283" />
        <path fill-rule="evenodd" clip-rule="evenodd" class="state-map-path" id="cross_river_state_K97Fraq3z"
            d="M29.1966 32.1785C29.6666 33.2685 29.4466 33.3385 28.9766 34.3185C28.4667 35.3785 29.0666 35.3885 27.9267 36.0584C26.7367 36.7484 27.3067 36.6384 26.6867 37.5984C26.2067 38.3484 25.7967 38.2884 25.3567 39.1784C25.0367 39.8384 25.1867 39.4984 24.7067 39.9084C24.2168 40.3283 24.5567 40.3283 24.1168 40.7083C23.5168 41.2283 23.6268 40.4983 23.4368 42.8683C23.3968 43.3883 23.2468 43.4083 23.0768 43.8483C22.9568 44.1982 22.9268 44.5982 22.8868 45.0282C22.8068 46.0282 22.7168 46.7982 21.4868 46.5382C21.1768 46.0982 21.2868 46.0282 20.9168 45.5982C20.4069 45.6482 20.8868 45.6282 20.4168 45.7382C18.4869 46.1682 19.8469 45.2582 17.9869 47.0882C17.6669 47.3882 17.4669 47.5282 17.2269 47.8782C17.3869 48.5281 17.6769 47.9182 17.7869 49.1381C19.4669 49.1781 18.3069 49.3481 19.6469 49.7981C19.8969 49.8781 20.0969 49.8781 20.2669 49.9581L20.3869 51.2181L20.0369 51.4281C19.8069 51.6781 19.8669 52.0681 19.9069 52.738C20.7668 53.268 21.4968 53.188 22.2368 53.218L22.6168 54.098C22.7868 54.668 22.9868 54.678 23.0768 55.058C23.1468 55.428 23.1168 55.278 23.0468 55.558C23.0068 55.748 22.9468 55.638 22.8968 56.148C22.8668 56.5579 22.8568 57.2079 22.9968 57.5079C23.3468 57.3079 23.2468 56.8879 23.2668 56.4379C24.2168 56.5279 23.5468 56.3279 23.9868 56.8279C24.4268 57.3179 24.1568 56.8779 24.4368 57.5979L24.9867 58.7179C25.1267 58.9979 24.9367 58.4779 25.1267 59.0179C25.7567 59.1079 24.8767 59.9679 26.3167 59.2079C26.9567 58.8679 27.1367 58.7479 27.6867 58.3079C30.5166 56.088 30.4366 56.2579 31.9066 57.8579L32.8165 58.6479C32.8065 57.9579 32.8965 57.4279 32.9265 56.8779C32.9865 56.068 32.0566 54.518 31.9666 53.878C31.8866 53.268 31.9166 52.448 32.0366 51.8481C32.5466 51.4781 33.5165 51.1481 33.8565 50.7181C33.8265 50.2181 33.3865 49.8181 33.1565 49.4281C32.7065 48.6681 32.4766 49.0781 32.4766 47.9382L33.1665 47.6682C33.6965 47.4382 33.3965 47.6682 33.4865 47.4282C32.8265 47.4182 33.7365 47.4582 33.1765 47.5382L32.6065 47.4282C32.7065 47.1382 32.8465 46.7782 33.6265 46.9082C34.4265 47.0482 33.9565 47.1282 34.4365 47.4782C35.0765 46.5882 37.3664 45.9882 34.3665 44.2782C33.0165 43.5083 33.1165 43.6683 32.8565 42.7483C32.4666 41.3383 32.0766 42.0283 31.4166 41.2383C31.1166 40.4783 33.2565 39.4084 30.9266 38.9584C30.5966 37.8484 31.4366 38.4184 30.8966 37.2584C30.5766 36.5684 30.4266 36.3984 30.0166 36.0484C30.0866 34.8785 30.4666 34.9185 30.7766 34.7585L30.9566 34.6585C30.8966 34.0085 30.5566 33.9285 31.2666 33.7285C31.6666 33.6185 32.2266 33.7085 32.5366 33.5285C32.4166 33.1885 32.7565 33.5185 31.6766 33.0685C31.6966 32.3785 31.8466 32.7685 32.1466 32.1085C31.3566 31.9486 29.8466 32.0085 29.1966 32.1785Z"
            fill="#91D8F7" stroke="#FEFEFE" stroke-width="0.677283" />
        <path fill-rule="evenodd" clip-rule="evenodd" class="state-map-path" id="cross_river_state_cNoAB1MCZ"
            d="M34.0065 28.0286C35.5164 28.1486 35.6764 27.9286 36.9764 28.6486C37.8564 29.1486 38.7864 29.1986 39.8963 28.9286C41.8463 28.4586 42.2063 28.6486 43.8962 27.6187C44.4162 27.2987 44.3862 27.2387 44.5562 26.6287C44.7662 25.8287 45.5662 24.5787 46.0762 24.2487C48.4361 22.7488 47.0962 20.9788 48.1261 18.9789C48.4361 18.3689 49.3161 17.3789 49.9161 17.1289C50.9561 17.0889 51.1961 19.6889 51.716 20.6288C52.216 21.5288 54.796 21.6088 55.9859 21.6288C56.2359 21.2988 56.4359 21.3388 56.7759 20.9088C58.1159 19.2089 60.6358 15.239 57.7759 14.079C56.4759 15.299 55.5059 15.319 54.656 15.7489C54.506 15.8289 54.406 15.8889 54.246 15.9789C53.256 16.5389 52.246 16.6989 51.2161 16.1789C50.7261 12.269 50.8561 14.309 50.1661 11.919L49.6761 10.6091C49.3161 11.0391 48.6561 11.3391 48.1161 11.5191C46.6662 12.009 46.5962 12.939 46.2662 13.329C45.9962 13.659 46.0062 13.489 45.6262 13.819L44.4062 14.999C43.9662 15.359 43.6662 15.7689 43.0863 16.0989C41.7963 16.8389 41.4863 17.0389 40.5563 18.3389C40.2063 18.8089 39.8563 19.0389 39.4163 19.4989C39.8463 19.5689 39.8263 19.7089 39.9663 20.1588C40.0963 20.6088 40.1063 20.9088 39.9663 21.3588C39.6663 22.2788 39.1464 22.1488 38.0364 22.1488C37.9164 21.9488 38.0364 22.1288 37.8764 21.9388C37.8464 21.9188 37.7764 21.8388 37.7464 21.8088C37.3864 21.3488 37.2264 20.3188 37.5364 19.9888C37.1764 19.7888 35.6564 19.5789 35.2764 20.0388C34.9165 20.4688 34.9565 20.3888 34.9865 20.7188C35.0165 21.1188 35.2265 21.2688 35.4564 21.5888C35.8264 22.0988 36.4364 22.9688 36.0164 23.6088C35.4264 24.0787 34.3965 23.5788 33.7065 23.3388C33.0765 23.1188 32.2665 23.5388 32.4665 24.1887C32.5865 24.5787 32.8065 24.6587 33.0565 24.9887C33.6665 25.7987 33.6465 26.6687 34.0065 28.0286Z"
            fill="#91D8F7" stroke="#FEFEFE" stroke-width="0.677283" />
        <path fill-rule="evenodd" clip-rule="evenodd" class="state-map-path" id="cross_river_state_t2nZ9B5T"
            d="M51.236 43.8483C50.896 44.8782 50.056 45.1782 49.666 46.0382C49.0561 47.4082 49.0661 47.1682 48.1761 48.0882C47.7361 48.5281 47.7361 48.6581 47.3861 49.0681C45.8061 50.9281 44.8862 50.2581 44.5862 51.5681C44.2862 52.918 44.6562 53.498 43.4262 54.068C42.0362 54.718 40.3063 53.188 39.6063 59.0879C39.4863 60.1279 39.6863 60.1179 39.9863 60.2778C40.2563 60.5978 39.9963 60.4078 40.4963 60.5878L42.2862 61.0478C43.1362 61.2578 44.8062 61.3878 45.9361 61.7078C46.3161 61.8178 46.7761 61.8778 47.2261 61.9478C48.0661 62.0678 48.9361 62.2178 49.796 62.3378C50.046 62.0978 49.886 62.3878 49.996 61.9578L49.826 61.0578C51.856 60.6578 51.446 60.5978 51.906 58.7279C52.086 57.9679 52.316 57.9079 51.876 57.0079C51.576 56.3579 51.416 56.2679 51.436 55.468C52.156 55.198 52.156 55.368 52.166 54.508C54.1159 53.278 53.5559 53.868 55.7359 53.868C56.7159 51.5281 55.3159 51.2181 56.9059 50.3781C57.4358 50.1081 58.0958 49.7081 58.4658 49.2681L58.6558 49.0181C57.7958 47.8782 58.1858 47.4482 55.4959 45.6482C54.4559 44.9482 52.576 43.1683 51.236 43.8483Z"
            fill="#91D8F7" stroke="#FEFEFE" stroke-width="0.677283" />
        <path fill-rule="evenodd" clip-rule="evenodd" class="state-map-path" id="cross_river_state_qzdt0KXmM"
            d="M28.8766 92.817L29.1466 93.177C28.9466 93.727 28.5366 94.027 28.2767 94.547C27.7667 95.577 27.1267 96.8569 28.4866 97.4569C29.3166 97.8169 29.5266 97.2369 29.8366 98.1069C29.4666 98.5069 28.9566 98.5369 28.7366 98.9469C28.5666 99.2669 28.6066 99.8269 28.4366 100.367C27.5267 100.437 27.3867 99.8069 26.3467 100.287C26.2967 100.607 26.3767 100.847 26.3067 101.247C26.2767 101.427 26.2667 101.457 26.1867 101.657C25.7767 102.757 25.8767 102.997 27.4767 104.247L28.3766 104.737C28.4066 104.757 28.5166 104.827 28.5366 104.837C28.7866 105.047 28.8166 105.277 29.3766 105.637C29.4166 106.357 29.2466 107.177 29.0566 107.797C29.0466 107.807 28.9466 108.077 28.9466 108.077C28.8166 108.307 27.9267 109.937 27.9067 109.987C28.0467 110.387 28.3467 110.737 28.6666 110.877C30.0966 111.487 30.0266 111.147 30.8666 110.787C31.5866 110.487 31.4266 110.457 31.7266 109.857C32.1766 110.297 31.7466 110.457 31.9966 110.897L31.9666 111.107L31.4066 112.637C31.8166 112.767 32.3866 112.967 32.6965 113.057C33.1265 113.177 33.6165 112.967 34.1165 112.957L34.3765 112.417C34.9465 112.407 35.1265 112.327 35.4165 112.017C35.3165 110.757 34.7065 108.947 35.6565 107.747C35.9565 107.117 36.4664 106.287 36.4465 107.447C36.9264 107.537 37.9764 107.347 38.5064 107.157L40.2964 106.287C40.3264 105.967 40.3164 105.357 40.2964 105.067C40.0164 104.917 39.0764 104.287 39.2364 103.667C40.1264 103.227 40.3364 104.567 40.6863 102.537L40.7763 102.217C40.7863 102.187 40.7963 102.147 40.8163 102.117L41.4863 100.257C43.3163 99.6069 41.4563 100.307 43.0663 98.4569C43.3163 98.1869 43.5263 98.2169 43.8563 97.9869L43.7063 97.7269C43.1263 97.5269 39.1464 97.7969 38.3164 97.9069C37.1964 98.0469 36.8864 97.6169 36.0065 98.0969C35.1865 98.5269 34.7065 98.3069 34.0065 97.8469C32.6565 96.9469 32.8065 94.847 31.9666 94.207C31.4266 93.787 30.7666 94.027 30.3766 92.987C29.9666 91.9071 30.6066 91.5871 29.0466 91.5771C28.9966 91.9071 28.8966 92.3471 28.8766 92.817Z"
            fill="#9DD3AF" stroke="#FEFEFE" stroke-width="0.677283" />
        <path fill-rule="evenodd" clip-rule="evenodd" class="state-map-path" id="cross_river_state_o7DceJdHv"
            d="M14.2569 49.5581C14.117 49.8781 14.157 49.5981 13.807 49.9981C13.197 50.6681 13.567 51.4981 13.417 52.278C12.637 52.218 13.037 52.188 12.787 51.5081C11.467 52.528 12.927 53.468 11.857 55.248C11.797 55.348 11.737 55.428 11.657 55.558L10.957 57.0179C11.257 58.1979 12.717 60.3178 13.257 60.6978C15.1369 62.0378 14.227 61.7878 14.9569 62.9278C15.2969 63.4578 15.7269 63.3978 16.0469 63.7478C16.4869 64.2378 16.6069 65.9877 17.0369 66.4577C16.7569 65.9977 16.2569 64.3677 16.2669 63.7978C17.4769 63.7778 18.3768 63.7878 19.4468 63.5878C20.4368 63.3978 21.0168 62.9178 21.7968 62.3878L24.7367 60.2878C25.2067 59.8879 25.2667 59.8079 25.1267 59.0179C24.9367 58.4779 25.1267 58.9979 24.9867 58.7179L24.4367 57.5979C24.1567 56.8779 24.4267 57.3179 23.9867 56.8279C23.5467 56.3279 24.2167 56.5279 23.2667 56.4379C23.2467 56.8879 23.3467 57.3079 22.9967 57.5079C22.8567 57.2079 22.8667 56.5579 22.8967 56.148C22.9467 55.638 23.0067 55.748 23.0467 55.558C23.1167 55.278 23.1467 55.428 23.0767 55.058C22.9867 54.678 22.7867 54.668 22.6167 54.098L22.2368 53.218C21.4968 53.188 20.7668 53.268 19.9068 52.738C19.8668 52.0681 19.8068 51.6781 20.0368 51.4281L20.3868 51.2181L20.2668 49.9581C20.0968 49.8781 19.8968 49.8781 19.6468 49.7981C18.3068 49.3481 19.4668 49.1781 17.7869 49.1381C17.6769 47.9182 17.3869 48.5281 17.2269 47.8782C16.6669 47.9582 16.0369 48.1281 15.5869 48.4781C15.3069 48.6881 15.1869 48.8381 14.9669 48.9981C14.6769 49.2181 14.5369 49.2581 14.2569 49.5581Z"
            fill="#FDD1A1" stroke="#FEFEFE" stroke-width="0.677283" />
        <path fill-rule="evenodd" clip-rule="evenodd" class="state-map-path" id="cross_river_state_QFJQYYmjb"
            d="M36.4464 107.447L36.2264 107.467C35.8965 108.097 35.7265 107.867 35.5365 108.577C35.3665 109.687 35.0165 110.407 35.0465 110.467C35.3065 110.967 35.3165 111.907 35.7665 112.187C34.8665 112.357 33.4165 113.077 33.4465 113.487C33.4265 113.507 33.3765 113.487 33.3665 113.527C33.3065 113.707 34.5365 113.817 33.9665 114.077C33.9465 114.077 33.8965 114.097 33.8765 114.117C33.7865 115.266 34.0265 115.666 33.8265 116.656C33.6865 117.336 33.7765 117.446 34.7565 118.406C36.4264 117.266 35.0865 117.796 36.7264 117.126L36.6864 117.586L35.5665 118.276C35.0765 118.596 35.1965 118.926 35.0165 119.466C34.5065 119.246 34.8165 119.246 34.3765 118.976C34.1065 119.116 33.8665 119.266 33.6265 119.446C33.5965 119.916 33.8165 120.946 33.9265 121.556C34.0665 122.386 34.4165 122.756 35.0265 122.996C36.1764 123.446 35.9964 122.736 37.2464 121.836C37.6564 121.536 37.4664 121.836 37.7164 121.286C37.7464 121.226 37.7664 121.136 37.7964 121.086C37.9064 121.846 37.4364 121.826 38.1964 122.136C37.7064 122.336 37.3664 122.076 36.7564 123.546C37.8664 123.936 37.7464 123.676 38.9164 123.606C40.3163 123.526 43.5463 123.816 44.0063 123.656C44.2562 123.566 45.2062 122.616 45.3462 122.376C45.2462 122.236 45.1362 122.086 45.0562 121.936C44.8562 121.546 44.9762 121.596 44.6762 121.296C44.6062 121.226 44.5462 121.166 44.4862 121.106C44.2662 121.286 45.6162 119.906 45.3062 119.906C42.4963 119.906 42.8663 115.986 43.0463 115.816C43.1063 109.497 41.1963 113.837 40.5163 106.677C40.3863 105.947 40.8063 107.277 40.4663 106.517C40.4463 106.477 40.3263 106.327 40.2963 106.287L38.5064 107.157C37.9764 107.347 35.6765 107.467 36.4464 107.447Z"
            fill="#F6AFCE" stroke="#FEFEFE" stroke-width="0.677283" />
        <path fill-rule="evenodd" clip-rule="evenodd" class="state-map-path" id="cross_river_state_BR7SxDztD"
            d="M57.7759 14.079C60.6359 15.239 58.1159 19.2089 56.776 20.9088C56.436 21.3388 56.236 21.2988 55.986 21.6288C55.686 22.1188 56.096 22.4588 56.486 22.6388C58.1359 23.4188 58.6659 22.6688 59.8459 23.8488C59.8659 23.8687 59.8859 23.8987 59.9059 23.9187L60.1159 24.0887C60.1359 24.1087 60.1659 24.1287 60.1859 24.1387C60.2059 24.1587 60.2459 24.1787 60.2659 24.1987C60.2859 24.2087 60.3159 24.2387 60.3359 24.2487C61.2758 24.9387 61.8858 25.0187 63.4258 24.9087C64.1658 24.8487 64.1558 24.7387 64.5258 24.6487C64.8958 24.5487 66.0657 24.5187 66.3457 24.0387C66.1757 23.2388 65.5057 22.7888 65.0957 21.2188C64.6458 19.5389 64.5558 19.6389 65.3657 18.1389C66.4757 16.0689 68.2557 15.339 68.4357 13.209L68.4557 12.669L68.3157 11.6691L67.3357 11.799C66.2857 11.749 65.6957 12.249 65.0957 12.679L62.9558 13.829C62.2358 14.099 60.8159 13.759 60.3859 13.329L58.9159 11.5691C58.7659 11.5991 58.6359 11.5591 58.3859 12.019C57.8459 12.999 57.7059 13.239 57.7759 14.079Z"
            fill="#FDD1A1" stroke="#FEFEFE" stroke-width="0.677283" />
        <path fill-rule="evenodd" clip-rule="evenodd" class="state-map-path" id="cross_river_state_pZcA7sdSM"
            d="M49.6761 10.6091L50.1661 11.919C50.8561 14.309 50.7261 12.269 51.2161 16.1789C52.2461 16.6989 53.2561 16.5389 54.246 15.9789C54.406 15.8889 54.506 15.8289 54.656 15.7489C55.506 15.319 56.476 15.299 57.7759 14.079C57.7059 13.239 57.8459 12.999 58.3859 12.019C58.6359 11.5591 58.7659 11.5991 58.9159 11.5691C58.8159 11.3891 59.2159 11.1791 57.6859 11.3491C57.7559 10.7591 58.3659 9.6691 58.6359 9.11911C59.3459 7.61915 58.8859 8.03914 58.4859 6.82917L58.1259 6.58918L55.686 4.96922L55.166 5.6592C54.366 6.51918 54.346 6.74917 53.996 7.14916L53.3361 7.86914C52.0661 9.36911 52.4461 8.74912 51.1661 9.6191C50.6461 9.97909 50.8361 9.91909 50.0461 9.96909C49.9161 10.1891 49.8261 10.3191 49.6761 10.6091Z"
            fill="#9DD3AF" stroke="#FEFEFE" stroke-width="0.677283" />
        <path fill-rule="evenodd" clip-rule="evenodd" class="state-map-path" id="cross_river_state_b6lpVTxIh"
            d="M6.40713 58.1679C7.26711 59.0879 8.19709 57.7879 8.63708 57.0779C8.93707 56.5879 9.02707 56.2779 9.69705 56.3279C10.357 56.3779 10.667 56.5879 10.957 57.0179L11.657 55.558C11.737 55.428 11.797 55.348 11.857 55.248C12.927 53.468 11.467 52.528 12.787 51.5081C13.037 52.188 12.637 52.218 13.417 52.278C13.567 51.4981 13.197 50.6681 13.807 49.9981C14.1569 49.5981 14.1169 49.8781 14.2569 49.5581C13.507 49.4181 14.1369 48.8581 12.917 47.1582C12.247 46.2382 11.487 45.9682 10.217 46.3982C9.52706 46.6382 8.00709 47.1882 7.55711 47.5382C7.09712 47.8982 7.20711 48.2781 7.47711 48.7981C7.9971 49.7681 7.38711 49.1481 7.42711 50.3881L8.35709 51.0581C7.43711 53.648 7.23711 51.6481 6.62713 53.798C6.41713 54.518 6.43713 54.378 5.87715 54.588C4.97717 54.918 4.69718 55.398 5.27716 56.2979C5.61715 56.8279 6.07714 57.6279 6.61713 57.9979C6.43713 58.1979 6.69713 58.0279 6.40713 58.1679Z"
            fill="#D2D3D5" stroke="#FEFEFE" stroke-width="0.677283" />
        <path fill-rule="evenodd" clip-rule="evenodd" class="state-map-path" id="cross_river_state_sSVgKXLu0"
            d="M22.6167 107.327C22.9667 107.517 22.9667 107.727 23.5067 107.937C24.5667 107.627 24.3967 107.627 26.7266 108.407C27.4466 108.937 27.6766 108.767 28.6966 108.357C28.9366 108.187 28.6866 108.527 28.9466 108.077C28.9466 108.077 29.0466 107.807 29.0566 107.797C29.2466 107.177 29.4166 106.357 29.3766 105.637C28.8166 105.277 28.7866 105.047 28.5366 104.837C28.5166 104.827 28.4066 104.757 28.3766 104.737L27.4766 104.247C25.8766 102.997 25.7767 102.757 26.1866 101.657C26.2666 101.457 26.2766 101.427 26.3066 101.247C26.3766 100.847 26.2966 100.607 26.3466 100.287C25.3167 100.327 24.5667 99.7369 23.8567 99.4969C23.2767 99.8969 23.2167 100.217 22.8267 100.717C21.5968 102.267 21.1968 102.297 21.8867 103.887L22.2167 105.217C22.4067 106.047 23.3967 106.097 22.6167 107.327Z"
            fill="#FDD1A1" stroke="#FEFEFE" stroke-width="0.677283" />
        <path fill-rule="evenodd" clip-rule="evenodd" class="state-map-path" id="cross_river_state_o4NZCYjTH"
            d="M23.8568 99.4969C24.5667 99.7369 25.3167 100.327 26.3467 100.287C27.3867 99.8069 27.5267 100.437 28.4366 100.367C28.6066 99.8269 28.5666 99.2669 28.7366 98.9469C28.9566 98.5369 29.4666 98.5069 29.8366 98.1069C29.5266 97.2369 29.3166 97.8169 28.4866 97.4569C27.1267 96.8569 27.7667 95.577 28.2766 94.547C28.5366 94.027 28.9466 93.727 29.1466 93.177L28.8766 92.817C28.3066 92.2971 26.5767 92.697 25.9567 92.987C24.9167 93.467 25.6667 94.487 25.5067 95.587C25.3967 95.837 25.0867 95.937 24.8667 96.057C24.5467 96.337 24.8067 96.257 24.2167 96.5369C23.8768 96.8469 23.6068 97.5369 23.7368 98.0869C23.9668 99.0669 24.4667 98.2369 23.8568 99.4969Z"
            fill="#D2D3D5" stroke="#FEFEFE" stroke-width="0.677283" />
    </svg>