<svg viewBox="0 0 139 123" fill="none" xmlns="http://www.w3.org/2000/svg">
        <path fill-rule="evenodd" clip-rule="evenodd" class="state-map-path" id="delta_state_eGESB6AJt"
            d="M128.027 0.988214C126.567 0.988214 126.717 -0.0417607 124.727 0.148235C123.377 0.268232 122.627 0.558224 121.267 0.568224C120.577 0.578224 120.187 0.698221 119.707 0.898216C119.077 1.16821 118.847 0.998214 118.367 1.5382C118.057 1.87819 117.637 2.08819 117.407 2.46818C117.157 2.87817 116.897 3.22816 116.487 3.52815C116.107 3.80814 115.797 4.09814 115.407 4.34813C114.997 4.61812 114.577 4.81812 114.187 5.10811C113.437 5.6481 112.167 6.64807 111.787 7.47805C111.437 8.20804 110.767 8.36803 110.097 8.75802C109.357 9.17801 107.627 9.638 106.777 9.638C106.237 9.638 106.337 9.43801 105.837 9.768C104.767 10.458 104.437 9.89799 102.907 10.788C101.407 11.668 100.528 11.138 99.5375 12.6179C99.0176 13.3979 98.4176 14.0879 97.9676 14.9179C97.8876 15.0779 97.8176 15.1779 97.6876 15.2979C97.6076 15.3779 97.5976 15.3779 97.5176 15.4579L96.7476 16.3278C96.5076 16.5678 96.3076 16.7478 96.0776 16.9878C95.6276 17.4778 95.1477 18.2878 94.4977 18.2878C93.3177 18.2878 94.0577 16.8278 92.6977 15.1379C92.4677 14.8479 92.3277 14.7879 92.0477 14.5579C91.7677 14.3179 91.7277 14.1979 91.3877 13.9879L89.1078 12.4679C87.5278 11.498 86.7879 12.9479 85.6079 14.5079C84.2179 16.3378 85.2679 16.7378 84.7979 17.7378C84.4379 18.5178 83.4479 18.5478 85.6179 20.7377C87.0879 22.2277 87.0079 21.3277 87.1678 24.7076C87.2078 25.5976 88.3578 29.9375 88.7678 30.7675C89.3778 31.9774 90.3378 32.8874 90.9778 34.0774C91.2577 34.5774 91.3277 35.0974 91.7577 35.5274C92.1477 35.9073 92.5477 36.1673 92.8677 36.6373C93.1777 37.0973 93.4477 37.4173 93.8877 37.7673C94.8577 38.5273 95.7976 38.6373 96.3976 39.1273L97.2476 39.9173C97.8176 40.3472 98.1476 40.2172 97.6776 41.8172L97.3776 42.8272C97.2776 43.1672 97.2776 43.5772 97.1976 43.9672C97.1476 44.2271 96.6676 45.0271 96.3676 45.7771C96.1276 46.3871 95.8976 47.0371 95.5676 47.6071L95.0276 48.467C94.6677 49.007 94.2477 49.577 93.7877 50.037L93.5277 50.267C92.6377 51.117 92.2977 51.087 90.9778 52.4069C89.2378 54.1469 89.1978 53.6469 87.8578 54.6469C86.8379 55.4069 86.6079 57.8068 85.2779 58.7368C84.6879 59.1468 84.1979 59.0368 83.5179 59.6968C82.9679 60.2367 83.1079 60.2067 82.338 60.4967C81.758 60.7067 81.428 60.9267 80.738 60.9567C79.568 61.0167 79.368 60.8967 78.5381 61.3967C76.0281 62.9067 77.3881 62.1967 75.2981 62.1967C74.4082 62.1967 74.1382 62.5867 73.0682 62.3667C72.6482 62.2767 72.7982 62.2867 72.5582 61.9767C72.2782 61.6167 72.0582 61.2767 71.7382 60.9767C71.4982 60.7567 71.4482 60.7967 71.4282 60.3867C71.3982 59.8168 71.3682 59.3368 71.1782 58.8168C70.8483 57.9868 70.3583 58.8868 71.3482 56.9268C71.9582 55.7169 71.0482 55.7369 72.0082 53.6269C72.7282 52.027 72.7082 51.717 71.8082 51.107C71.2882 50.757 70.7783 50.187 70.2783 49.837L67.7883 48.0371C67.4583 47.8171 67.2683 47.6771 66.9783 47.4471L66.0884 46.8571C65.4684 46.3071 66.5484 45.5571 65.0884 45.0571C64.6384 44.8971 64.0484 44.9771 63.2984 44.6971C62.2785 44.3271 62.7584 44.5971 62.4585 44.4771C62.3485 44.4371 62.1785 44.2971 61.9785 44.2071C61.8785 44.1571 61.8485 44.1571 61.7485 44.1071C61.3985 43.9172 60.6885 43.0672 60.5285 42.7772C60.2985 42.3972 60.2285 42.1772 60.2285 41.5972C59.8585 41.5172 58.7486 40.7772 58.3486 40.5172L55.5586 38.8473C54.6187 38.2773 53.3987 37.2473 52.7287 37.2373C52.6287 37.6373 52.3187 38.0573 52.0987 38.4173C51.8287 38.8673 51.3387 38.8373 50.8087 38.9373C50.2888 39.0473 49.7588 39.0673 49.2988 39.2473C48.7788 39.4373 48.3688 39.4973 47.8188 39.6573C45.6889 40.2572 45.8289 41.9472 45.0189 42.2972L43.4989 42.6672C42.9089 42.6672 42.8889 42.0472 42.6789 41.6772C42.5389 41.4372 41.939 41.0872 41.649 40.8872C40.669 40.2272 40.689 39.0473 39.789 39.0473C39.049 39.0473 40.239 39.8673 36.8291 39.8673C36.1691 39.8673 35.9791 39.3873 35.5891 39.1273C35.3891 39.1773 35.2591 39.2173 35.0991 39.2873C35.0991 41.1772 34.8991 41.2672 33.1192 41.2672C32.8492 41.2672 32.6492 41.1072 32.3892 41.0072L29.6593 40.6072C28.6593 40.6072 27.0293 40.4772 26.1194 40.6972C26.1194 41.2072 26.0094 41.0472 26.0994 41.5172C26.4693 43.3772 25.8994 43.3272 27.4293 43.3272L27.8393 43.9172C28.1093 44.1571 28.3093 44.0471 28.4993 44.3171C28.3593 44.8771 27.5293 45.1171 27.1693 45.5371C26.6593 46.1171 26.3893 46.2471 25.8094 46.7271C25.2394 47.2071 25.1394 47.6471 24.6794 48.157C24.4394 48.417 24.2294 48.527 23.8594 48.657C23.5194 48.777 23.2394 48.927 22.8194 48.927C22.4994 48.927 22.2595 47.9771 22.2395 47.6171C22.1995 46.5971 22.3994 46.7371 21.7395 46.2271C20.9695 45.6271 20.6795 44.3771 20.6795 43.3272C20.6795 42.6372 20.7895 42.1472 20.9195 41.5972C21.2795 40.1672 22.1295 38.3873 22.2395 36.9873C21.9495 36.7873 21.6095 36.4273 21.2995 36.2773C20.8195 36.0473 20.3895 36.2473 19.7695 36.2473C19.4195 36.2473 19.4595 35.5374 19.4395 35.2574C19.3795 33.9574 19.6795 32.4474 19.0495 31.4475C18.2995 30.2775 18.6795 30.7775 17.4896 30.2075L15.5696 29.3275C14.8296 29.8175 15.2996 29.6875 14.0897 29.5675C13.6497 29.5275 13.6597 29.4075 13.3897 29.4575C12.9997 29.5275 13.1797 29.6575 12.5997 29.6575C12.5997 29.1675 12.4897 28.7975 12.2097 28.4775C11.8197 28.0475 11.9397 28.0975 11.6997 27.5976C10.7697 27.8076 10.3097 29.2275 9.79976 29.9875C9.52976 30.3875 9.20977 30.8675 8.97978 31.2975C8.72978 31.7575 8.47979 32.1974 8.1998 32.6674C7.64981 33.5874 7.27982 34.5974 6.82983 35.5874C6.27984 36.8173 5.82986 38.1073 5.21987 39.3173C4.60989 40.5172 4.0899 41.7972 3.56991 43.0372L0.709982 48.737C0.239994 49.447 0.0299993 49.897 0 50.257V50.437C0.0499988 50.997 0.569986 51.387 1.18997 52.4369C1.58996 53.1269 2.10995 53.8369 2.46994 54.5269C2.98993 55.5469 3.62991 56.3968 3.9999 57.5268C4.2099 58.1568 4.42989 58.5968 4.75988 59.0768C5.60986 60.3167 6.25985 59.7468 6.98983 60.2267C8.31979 61.0867 6.35984 62.0267 7.9398 64.6266C8.1698 65.0066 8.30979 65.0566 8.50979 65.4566C8.71978 65.8866 8.78978 66.0366 9.07978 66.3766C9.51976 66.8966 9.75976 67.5866 10.0198 68.2365C10.1897 68.6865 10.0898 69.0565 10.1897 69.4665C10.2597 69.7565 10.2997 69.7465 10.3997 69.9965C11.1197 71.6765 10.9897 71.6265 12.2597 73.0864C13.9197 74.9964 13.3697 74.3964 15.2096 75.8164C15.4796 76.0264 15.8096 76.2663 15.8996 76.6063C15.5296 77.1563 15.0396 77.0763 14.6396 77.9063C14.4996 78.2063 14.4396 78.4963 14.2896 78.7963C13.8197 79.7963 13.2297 79.3663 14.5896 81.2162C15.3696 82.2662 17.0996 85.3261 18.0096 86.0361C18.2795 86.2461 18.1996 86.2561 18.3895 86.4761L21.2495 88.6361C21.6595 88.856 21.9595 88.966 22.4194 89.116C22.7994 89.246 23.2594 89.406 23.6194 89.566C24.3394 89.906 25.0094 90.386 25.6894 90.796C26.2394 91.126 26.1694 91.066 26.2894 91.836C26.5793 93.5959 26.2094 94.6759 26.4093 95.4259C26.7893 96.8559 26.3693 97.2958 26.9893 99.3758C27.5393 101.206 28.2093 102.846 28.4393 104.766C28.5093 105.406 28.6193 106.086 28.7193 106.796C29.1293 109.816 28.6693 108.866 28.6693 109.726C28.6693 110.246 29.4593 110.716 29.7093 111.235C30.0493 111.915 30.0193 112.415 30.6592 112.845C31.1392 113.165 31.6792 113.695 32.3792 113.525C35.8391 112.645 34.2292 112.945 36.8291 114.255C37.9591 114.825 37.3191 115.105 37.1791 116.105C36.9691 117.625 39.179 117.145 40.119 117.145C40.309 117.145 40.609 117.335 40.709 117.455C41.289 118.145 41.109 118.865 42.299 119.495C42.6989 119.705 43.2489 119.775 43.6089 119.995C44.1789 120.365 46.5689 120.185 47.2888 120.185C48.1788 120.185 47.6288 119.695 49.1788 119.695C50.3688 119.695 50.1588 121.065 50.0888 121.835C50.2788 121.885 50.5688 121.905 50.7687 121.975C51.5087 122.235 51.4787 122.125 52.1087 122.285C52.3587 122.345 52.4987 122.495 52.8087 122.495C53.0387 122.495 53.1487 122.035 54.0387 122.495C54.4287 122.705 54.8586 122.815 55.2786 122.825H55.4186C56.3386 122.805 57.1786 122.285 57.3886 121.225C57.4686 120.865 57.3586 120.725 57.4986 120.435C58.0486 119.335 59.8785 119.985 60.7085 119.195C61.2185 118.705 61.9985 118.735 62.3785 118.135C62.7085 117.605 62.3185 117.905 62.8384 117.855C63.3284 117.795 63.4884 117.385 64.1784 117.385C65.1184 117.385 66.3184 117.245 67.1683 117.605C68.3483 118.105 69.2883 117.695 69.2883 116.315C69.8583 116.595 70.2083 116.075 70.7883 116.005C71.5482 115.915 72.0282 115.985 72.1482 115.315C72.2882 114.585 71.9382 113.965 72.4382 113.535C72.6182 113.385 72.8782 113.285 73.0082 113.115C73.2282 112.835 72.9982 112.335 73.2382 111.295C73.8782 111.235 74.4282 111.095 74.9981 111.595C75.4181 111.975 75.6681 112.575 76.0581 113.005C76.7681 113.755 78.1481 115.815 78.798 116.205C79.108 116.395 79.558 116.585 79.958 116.685C81.008 116.925 82.438 117.055 83.1979 116.305C83.7179 115.785 83.6079 115.375 83.6179 114.415C83.6179 113.805 83.8179 113.115 84.2979 112.785C84.9579 112.325 85.1079 112.365 86.1779 112.365C86.2979 112.825 88.0878 114.005 88.4878 114.005C89.7678 114.005 90.1378 112.965 90.7078 112.115C91.0878 112.125 90.9878 112.195 91.2877 112.195C91.4477 112.195 91.5477 112.085 91.7777 112.035C91.7777 111.705 91.8077 111.695 91.8577 111.455C92.8977 111.455 93.1477 111.945 93.8377 111.046C94.3477 110.386 94.3377 110.306 94.3377 109.476C94.3377 107.796 93.1077 106.796 94.3077 105.586C94.6677 105.236 94.8677 105.036 95.4876 105.036C97.2176 105.036 96.8676 105.936 99.3575 105.936C100.078 105.936 101.337 105.566 101.337 104.706C101.337 104.036 101.177 103.796 100.928 103.216C100.788 102.906 100.508 102.506 100.508 102.066C100.508 101.336 101.647 99.9658 102.217 99.7258C102.457 99.6258 102.737 99.5658 102.987 99.5158C103.277 99.4558 103.627 99.4658 103.807 99.2558C104.257 98.7358 104.027 98.3558 105.047 98.3558C105.267 98.3558 105.907 98.6758 106.127 98.7558C107.427 99.2458 107.277 99.2458 108.527 99.4058C112.867 99.9658 111.117 97.7858 113.117 97.7858C114.087 97.7858 115.497 98.6658 116.557 97.5958C117.077 97.0758 117.397 96.9158 117.397 96.1359C117.397 95.6359 117.317 95.1259 117.207 94.6859C116.767 92.9459 115.667 93.3259 115.667 90.616C115.667 89.726 116.707 90.056 118.457 88.2861C118.967 87.7761 120.447 85.6561 120.447 84.9261C120.447 84.5862 120.327 84.3762 120.237 84.0762C120.117 83.7362 120.087 83.5862 120.027 83.2062C119.807 81.8562 119.707 82.0862 119.707 80.4863C119.707 80.3163 119.957 80.0463 120.047 79.9163C120.777 78.9563 120.417 79.1963 122.067 78.9663C122.797 78.8663 122.987 78.7363 123.397 78.3163C124.487 77.2063 124.187 77.1263 124.767 75.7364C125.147 74.8464 125.027 73.9764 125.427 73.4264C126.497 71.9665 127.117 71.7965 125.887 69.6965C125.747 69.4565 125.687 69.4165 125.587 69.0765C125.427 68.5665 125.577 68.2066 125.817 67.8066C126.267 67.0866 125.957 66.3966 126.307 65.6566C126.387 65.4866 126.377 65.5766 126.437 65.3866C126.657 64.7266 126.707 64.1267 126.887 63.5167C127.147 62.6167 127.697 61.7367 127.697 60.7967C127.447 60.7867 127.397 60.7567 127.207 60.7067L127.157 58.9668C127.157 58.7968 127.207 58.6668 127.207 58.4068C127.647 58.3068 128.147 58.3268 128.607 58.3268C128.617 57.6868 128.897 57.8468 128.937 57.0868C128.967 56.6668 129.107 56.1968 129.237 55.8169C129.527 54.9569 129.447 53.9469 129.937 53.3069C130.647 52.3669 130.617 52.4169 131.067 51.307C131.357 50.587 131.887 49.957 132.297 49.327C132.967 48.307 133.277 47.0471 133.527 45.8571C133.637 45.3671 133.827 44.9871 133.867 44.5571C133.947 43.7972 134.547 40.4972 134.787 39.8673C135.137 38.9573 134.867 37.8473 134.867 36.9073C134.657 36.7973 134.367 36.7373 134.047 36.7373C133.987 36.0973 132.877 35.0774 134.117 34.0874C134.247 33.9774 134.397 33.8574 134.527 33.7574C134.677 33.6474 134.807 33.5874 134.987 33.4774C136.807 32.2874 136.977 32.0174 137.387 29.7875C137.547 28.9175 138.007 28.2675 138.077 27.6276V27.2676C138.027 26.8776 137.787 26.4676 137.197 26.0076C136.557 25.4876 136.597 25.4376 136.217 24.6876C135.477 23.1977 134.717 21.0177 134.617 19.3578C134.537 17.9478 134.457 16.5578 134.257 15.1079C134.157 14.3779 134.127 13.7379 134.127 12.9279C133.457 12.7779 133.577 12.1179 133.347 11.568C132.997 10.688 132.467 9.768 132.417 8.79802C132.347 7.49805 131.877 6.16809 131.557 4.87812C131.387 4.19813 131.267 3.90814 130.967 3.31816C130.407 2.21818 130.497 0.528225 130.267 0.228233C129.667 -0.571748 128.467 0.988214 128.027 0.988214Z"
            fill="#F8F6F8" />
        <path fill-rule="evenodd" clip-rule="evenodd" class="state-map-path" id="delta_state_KK0GR2XzG"
            d="M19.3595 86.8261L20.4895 87.8361C22.1694 89.126 23.1294 88.806 25.5193 90.386C25.6593 90.486 26.0793 90.696 26.1893 90.786C26.4893 91.026 26.5893 91.996 26.6393 92.476C26.7393 93.2859 26.7093 93.7059 26.5993 94.4459C26.4793 95.1659 26.7793 95.5959 26.8193 96.3059C26.8693 97.0058 26.7793 97.6658 26.9593 98.3458C28.1993 103.076 28.2693 101.206 28.9993 107.166C29.0593 107.626 29.2793 108.736 29.1393 109.116C28.8793 109.846 28.5793 109.516 29.5192 110.526C30.4092 111.475 29.7192 111.965 31.3192 113.005C32.5392 113.785 33.2692 112.625 34.7391 112.805C35.3091 112.875 35.7691 113.275 36.1491 113.535C36.4891 113.775 37.2891 114.165 37.519 114.385C38.429 115.225 36.1791 116.985 38.719 116.945C39.399 116.935 40.109 116.735 40.679 117.075C41.069 117.315 41.269 117.965 41.5089 118.395C42.1389 119.475 42.8689 119.315 43.4889 119.625C43.8789 119.825 43.7689 119.885 44.3189 119.905C45.0589 119.945 45.6988 119.865 46.4688 119.945C48.2188 120.135 47.6988 119.205 49.2588 119.425C50.3787 119.585 50.4387 120.455 50.4187 121.585C50.8487 121.845 51.6087 121.925 52.1887 122.065C52.8287 122.215 52.3887 122.255 52.9987 122.095C54.0586 121.815 56.0586 123.775 57.0586 121.395C57.6086 120.095 56.6286 119.805 59.5785 119.365C60.7685 119.185 60.2885 119.055 61.1085 118.605C61.8284 118.205 62.1184 118.395 62.3484 117.535C63.4584 117.715 62.9284 117.305 63.9484 117.165C64.4584 117.095 65.5984 117.135 66.1583 117.145C66.9283 117.165 67.2883 117.445 67.9083 117.545C69.1783 117.745 68.9583 116.295 69.0483 116.005C69.1983 115.485 69.3083 116.415 68.9583 114.735C68.4083 112.115 69.0683 110.756 68.9183 108.696C64.7984 111.405 65.7684 109.216 64.8884 108.606C64.7084 108.486 63.1684 108.306 62.8784 108.276C62.9284 108.686 63.0484 108.676 62.9184 109.146C61.7485 109.666 60.7485 108.476 60.4485 107.776C59.7685 106.176 61.7485 104.936 62.8884 104.486C63.4984 104.246 63.4484 103.976 64.1584 103.686C64.6984 103.466 65.0884 103.296 65.5584 103.026C66.6183 102.426 66.4483 102.626 66.9483 102.386C66.9683 102.256 66.9683 100.246 66.9483 100.126C64.9084 100.056 60.0285 102.306 58.4885 101.586C58.3885 100.866 59.0585 100.586 59.6185 99.8958C59.9185 99.5258 60.3185 99.2958 60.6785 98.8958C60.8485 98.6858 60.8385 98.6358 60.9885 98.4658C61.4285 97.9758 63.6484 96.6559 64.5884 96.3759C65.1584 96.2159 68.8183 96.5659 69.8682 96.5459C70.7882 96.5359 71.7982 96.5559 71.8882 95.7859C71.9282 95.3859 71.8382 93.4759 71.6882 93.1959C71.1182 94.0959 70.8682 94.4159 69.3683 94.4259C66.3883 94.4559 67.3783 94.0159 64.9584 95.1059C64.4484 95.3359 63.9684 95.0559 63.4184 95.2159C62.9684 95.3359 62.8484 95.6859 62.3484 95.8659C61.8684 96.0359 61.3285 96.0459 60.8785 96.2159C59.8485 96.6059 59.9285 97.7758 58.7585 97.5958C56.7186 97.2858 58.0985 93.6359 56.9286 92.346C55.6286 90.896 56.5386 92.426 55.5386 90.186C54.7286 90.146 54.5786 90.466 53.7886 91.266C53.4887 91.576 53.4787 91.806 53.0587 91.946C52.6887 92.076 52.2887 92.056 51.8587 92.226C50.8287 92.616 47.5888 93.0959 46.8688 92.8559C45.0789 92.236 45.8588 92.576 44.5989 92.236C42.5589 91.686 41.6689 90.016 37.979 90.166C37.0191 90.206 36.3691 90.436 35.3391 90.426C34.3891 90.416 33.4791 90.356 32.5492 90.266C31.4492 90.156 31.2692 89.876 30.5292 89.416L28.7193 88.3361C27.3593 87.4661 26.7493 86.8361 24.6794 86.6161C21.9694 86.3361 21.2894 86.8761 19.9595 86.7761C19.6895 86.7561 19.5495 86.7161 19.3595 86.8261Z"
            fill="#F6AFCE" />
        <path fill-rule="evenodd" clip-rule="evenodd" class="state-map-path" id="delta_state_pwKdLzjcQ"
            d="M9.87972 67.2966C11.3897 67.3566 13.4296 67.1366 14.9596 67.0066C15.7496 66.9366 16.5696 66.8766 17.3695 66.7966C18.2895 66.7066 19.0795 66.8866 19.9395 66.8066C20.4495 66.2266 19.9995 65.9766 20.8994 65.4666C21.5494 65.0866 22.0194 64.9366 22.8694 65.1266C24.9493 65.5766 23.8894 66.3766 26.3393 65.2366C26.4493 63.4567 26.9693 63.8467 27.6793 63.0167C27.6593 62.3867 27.3093 61.9767 27.2593 61.3667C27.1993 60.6767 27.3993 61.1967 27.2093 59.5268C27.1293 58.7968 27.5793 58.6868 28.0393 58.3468C28.7893 57.7868 28.5793 57.9168 29.6492 57.8268C30.6492 55.2469 32.2592 56.1868 33.1091 56.2568C33.2091 55.9969 33.2591 55.7769 33.4491 55.5769C33.8491 55.6869 33.7191 55.8269 34.1791 55.7969C34.5991 55.7769 34.5191 55.6769 34.9991 55.8669C35.9891 56.2668 35.5591 55.7969 36.4791 55.8669L36.8191 56.4468C37.359 56.4168 37.489 56.1468 37.889 55.9269C38.289 55.6869 38.839 55.7769 39.359 55.7369C40.009 54.6769 39.889 54.0869 39.909 52.9669C40.249 52.6569 40.619 52.4469 41.1689 52.4969C41.5189 53.1669 41.4989 52.9969 41.5489 53.8769C42.0889 53.9369 42.3589 53.5669 43.1689 53.6869C43.6989 53.7569 44.1489 54.0769 44.7589 53.7269C45.0989 53.0469 44.5489 52.9369 44.3489 52.4769C44.3389 52.017 45.2988 52.2369 44.4789 50.837C43.7989 49.697 43.1989 50.427 42.6989 49.897L42.0089 48.857C41.6889 48.447 41.2989 48.127 41.089 47.7771C41.089 47.3971 41.2189 47.1871 41.4389 46.9571C42.0689 46.9171 42.7089 47.0071 43.2489 46.7771C43.4989 46.6671 44.0889 45.9671 44.2689 45.7471C44.9389 44.8671 45.4288 44.1971 45.3288 42.6572C44.5189 42.6072 43.6389 43.0172 43.2689 42.9072C42.6189 42.7172 42.7089 41.9272 42.2489 41.6072C41.8089 41.3072 41.3889 41.0972 40.949 40.6072C40.529 40.1472 40.489 39.4073 39.869 39.3173C39.169 39.3973 40.299 40.0972 36.9091 40.0972C36.5791 40.0972 36.3191 40.0572 36.0591 39.8873C35.6791 39.6373 35.8391 39.4473 35.3191 39.4373C35.1791 41.3972 35.1191 41.5072 33.2791 41.5072C32.8192 41.5072 31.3092 40.8672 29.7392 40.8672L26.3793 40.8772C26.3093 41.1872 26.4793 42.6972 26.5793 43.0272L27.5493 43.0572C27.9693 44.0371 28.3493 43.7072 28.8293 44.2371C28.6793 44.9671 27.9293 45.0971 27.4293 45.6371C27.1593 45.9271 27.0093 46.1071 26.7393 46.3371C26.4593 46.5871 26.1993 46.7271 25.9493 46.9571C25.4193 47.4371 25.1593 48.057 24.6794 48.477C24.2594 48.847 23.2994 49.197 22.5694 49.217C22.2694 48.897 22.0894 48.257 22.0294 47.8371C21.8994 46.8671 22.2294 46.8871 21.5194 46.3571C21.0194 45.9771 20.9794 45.8971 20.7595 45.1371C20.2295 43.2672 20.3895 42.1572 21.0794 40.1772C21.2894 39.5673 22.0094 37.6873 21.9194 37.0673C20.4495 35.7774 20.5095 36.8773 19.4395 36.4373C19.0695 36.1473 19.1595 34.3074 19.1595 33.7774C19.1595 32.3274 19.3995 32.5174 18.7095 31.3775C18.2795 30.6775 18.4295 30.8375 16.9595 30.2375C14.4096 29.2075 16.2296 29.8775 14.9096 29.9175C14.4996 29.9275 14.0696 29.8175 13.6396 29.7575C13.2996 29.7075 12.8896 29.9275 12.3697 29.9275C12.3397 28.7175 12.3397 29.2075 11.5297 27.9375C11.0097 28.1175 10.4997 29.3475 9.97972 30.1575C8.08977 33.0374 7.59978 34.6074 6.17981 37.7273C5.37983 39.4873 4.65985 41.2172 3.85987 42.9972C3.46988 43.8672 3.10989 44.7471 2.7199 45.6271C2.15991 46.9071 1.35993 48.167 0.62995 49.317C0.379956 49.727 0.0699634 50.147 0.349956 50.717C0.549952 51.107 0.879943 51.517 1.10994 51.847L3.22989 55.4169C4.21986 57.1368 3.76987 56.4868 4.42986 58.0068C5.54983 60.5767 6.5998 59.1368 7.60978 60.5167C8.20976 61.3167 6.6098 62.6167 8.42976 64.8766C8.72975 65.2466 8.85975 65.7066 9.13974 66.0666C9.46973 66.5066 9.65973 66.6466 9.87972 67.2966Z"
            fill="#F6AFCE" />
        <path fill-rule="evenodd" clip-rule="evenodd" class="state-map-path" id="delta_state_iY9gHCm6Y"
            d="M33.1992 56.5069C32.3192 56.4769 31.3593 55.6969 30.2493 57.0968C30.0593 57.3468 30.0393 57.5368 29.9193 57.7568C29.4693 58.6568 29.5093 57.5468 28.2593 58.4868C27.8393 58.8068 27.3594 58.9168 27.4494 59.5968C27.6493 61.0267 27.3894 60.8767 27.5194 61.5267C27.6394 62.1667 27.9093 62.4267 27.9193 63.1867C26.7394 63.9667 26.7094 64.0267 26.5494 65.3466C23.8494 67.3266 23.5095 64.2767 21.1295 65.6066C20.2595 66.0966 20.5795 66.2966 20.1095 67.0466C19.2396 67.0866 18.4296 66.9466 17.5596 67.0166C15.0697 67.2066 12.5397 67.4966 10.0298 67.5366C10.1798 68.1966 10.3498 68.2366 10.4198 69.1065C10.4698 69.6665 11.1798 71.3565 11.4997 71.7865C12.0697 72.5465 13.5497 74.2864 14.2097 74.7564C17.5296 77.1263 15.7096 76.6664 15.0697 77.6663C14.7797 78.1163 14.6497 78.7163 14.3897 79.1263C13.8497 79.9763 13.8097 79.5963 15.2697 81.7662C15.7396 82.4662 17.4496 85.1261 17.8796 85.5861C18.2796 85.9961 18.6296 86.2861 18.9496 86.6461C19.6295 86.4961 19.5795 86.5461 20.3495 86.5461C21.4095 86.5561 22.0195 86.1361 24.5794 86.3761C26.7194 86.5661 27.4794 87.2361 28.8393 88.1361L30.6993 89.236C31.6493 89.846 31.5193 89.936 32.9292 90.066C36.7791 90.416 36.7291 89.876 38.5591 89.926C42.389 90.026 42.599 91.686 45.3389 92.136C46.4089 92.306 46.7489 92.766 47.8589 92.656C49.2388 92.506 50.4088 92.506 51.6788 92.036C52.1387 91.866 52.4987 91.866 52.9387 91.736C53.4987 91.566 53.8087 90.536 54.3787 90.126C55.2087 89.526 55.9687 89.636 56.1586 90.726C56.1786 90.716 56.1986 90.666 56.2086 90.686C56.2386 90.726 56.2486 90.536 56.6086 90.476C56.8586 90.426 57.0086 90.466 57.2686 90.366C57.5186 90.266 57.8286 90.016 58.1786 89.876C59.4586 89.406 58.6686 89.846 60.1585 88.9861C60.6485 88.6961 61.5885 88.1661 61.7785 87.8061C61.9285 87.5061 61.8985 86.8761 61.7785 86.5861C61.7285 86.4661 61.6185 86.2561 61.4185 86.2161C61.0985 86.1461 61.3185 86.2561 60.9685 86.4061C60.7285 86.2961 60.7985 86.2161 60.5485 86.0061C60.3785 85.8761 60.1785 85.8061 59.9686 85.6861C59.1886 85.2561 59.7586 84.9162 59.5086 84.3362C58.9586 83.9862 57.9486 84.3262 57.4886 84.6762C56.3386 85.5361 56.7586 85.4161 56.1886 86.0761C53.5187 86.2061 54.0387 83.9362 51.6288 84.3262C51.0288 84.4262 50.4988 84.0762 49.6688 84.2562C48.7488 84.4562 49.2088 84.9762 48.2388 84.7362C46.1389 84.2062 45.8489 86.2461 44.8389 85.1561C44.3889 84.6762 44.5489 83.8962 44.5689 83.1662C44.6889 83.0562 45.6589 82.1462 45.7289 81.9762C45.9789 81.4062 45.2889 80.6763 45.0489 80.4263C44.6989 80.0563 44.7389 80.4063 44.3689 79.9463C43.549 78.9463 43.649 78.8863 42.889 77.7163C42.369 76.9164 41.159 75.9364 40.559 75.1764C40.139 74.6464 39.5191 74.1264 39.4291 73.9364C39.1491 73.3664 39.0191 72.5365 39.0791 71.8365C39.3191 71.5665 39.829 71.3965 40.159 71.1265C40.309 70.9965 40.479 70.8165 40.629 70.6865C40.869 70.4865 41.009 70.4865 41.239 70.3065C41.799 69.8565 41.759 68.1466 41.929 67.2766C42.209 65.8066 41.609 66.1566 41.059 64.6267C40.689 63.5667 40.169 63.0067 40.379 61.6167C40.749 61.2967 41.379 61.1367 41.869 61.3467C42.339 61.5567 42.709 62.1767 43.239 61.8567C43.249 61.8367 43.259 61.7867 43.259 61.7967C43.259 61.8067 43.269 61.7567 43.269 61.7467C43.309 61.3567 43.309 62.0967 43.279 61.6367C43.259 61.0967 42.619 60.6768 42.159 60.4868C41.189 60.0968 41.369 59.7268 41.499 58.8068C40.919 58.4668 40.999 58.6468 40.309 58.5368C39.919 58.4768 39.5791 58.3068 39.2291 58.1468C38.7791 57.9468 38.5691 57.8968 38.5891 57.2568C38.6291 56.3969 39.0391 56.3569 38.8891 56.1769C37.9091 55.6769 37.6891 56.7369 36.7391 56.6969L36.3491 56.0969C35.6092 56.1469 35.8891 56.4869 34.9892 56.1169C34.4092 55.8869 34.2192 56.1269 33.5292 55.8869C33.3792 56.1269 33.2892 56.3469 33.1992 56.5069Z"
            fill="#91D8F7" />
        <path fill-rule="evenodd" clip-rule="evenodd" class="state-map-path" id="delta_state_NdSGgVMni"
            d="M120.537 42.2272C117.997 42.2272 119.907 42.3072 117.817 42.5872C117.327 42.6472 116.147 42.6272 115.847 42.9272C115.497 43.2772 114.097 46.9671 113.797 47.7871C113.567 48.397 113.277 48.777 113.097 49.407C112.567 51.237 113.987 51.027 115.017 51.807C116.167 52.6669 115.087 54.2069 114.667 55.0969C113.787 56.9568 113.107 56.9268 112.667 57.7068C112.137 58.6668 112.387 60.7867 112.367 62.0267C112.347 63.3567 113.207 64.2867 114.347 64.7566C115.047 65.0466 115.327 65.1566 115.297 66.1466C115.237 68.0966 113.657 67.7266 112.477 67.9666C111.697 68.1266 112.027 68.6965 111.387 69.1965C110.597 69.8065 109.127 69.3365 108.477 69.7465C108.327 69.8365 108.307 69.9265 107.797 70.2265C106.887 70.7465 107.207 70.7065 106.487 71.2165C105.717 71.7665 105.587 71.5665 104.557 71.6865C103.567 71.7965 103.727 72.2765 104.267 72.7764C104.687 73.1664 105.557 75.0664 105.907 75.7464C106.057 76.0164 106.147 76.2564 106.307 76.4964C106.967 77.4563 107.377 79.5463 107.797 80.7762C108.607 83.1962 108.247 82.3462 108.247 85.0961C108.237 85.4961 108.247 85.7561 108.407 86.0261C109.417 86.4861 111.927 85.3161 113.387 86.5561C114.297 87.3261 113.667 88.3161 113.447 88.4661C112.847 88.8461 110.277 88.2961 109.527 88.3561C109.037 88.3861 108.717 88.5461 108.237 88.3261C107.707 88.0861 107.807 87.9961 107.167 88.1361C106.157 88.3361 106.147 88.856 105.797 89.636C105.487 90.326 105.557 89.656 104.747 91.396C104.477 91.976 104.567 91.926 104.617 92.606C105.537 92.646 105.847 92.706 105.717 94.1659C105.617 95.3359 105.057 94.8059 104.717 94.7459C103.937 95.6259 104.747 97.0258 104.747 98.0958C105.867 98.2058 107.147 99.0258 108.007 99.1058C109.287 99.2258 110.777 99.5358 111.547 98.6058C112.057 97.9958 111.567 97.8558 112.667 97.5858C113.667 97.3358 115.357 98.3558 116.307 97.5158C116.857 97.0358 117.187 96.7159 117.167 96.1359C117.157 95.5959 117.007 94.7759 116.817 94.3359C116.577 93.7959 116.247 93.5359 115.957 93.0459C115.537 92.316 114.897 90.156 115.907 89.696C117.037 89.186 117.537 88.996 118.467 87.8861C118.857 87.4361 120.027 85.7361 120.177 85.2261C120.417 84.3662 118.737 81.3062 119.767 79.8763C120.237 79.2263 120.037 79.1463 120.967 78.8563C121.717 78.6163 122.917 78.9863 123.897 77.4163C124.057 77.1763 124.257 76.2464 124.457 75.8364C124.817 75.1264 124.767 74.8864 124.907 74.0664C125.147 72.7064 126.577 72.5265 126.197 71.0265C125.927 69.9165 124.827 69.1565 125.487 67.8866C125.937 67.0166 125.797 67.1866 125.917 66.1666L127.447 61.1267C127.207 60.8567 126.997 61.0667 126.957 60.3868C126.797 57.7068 127.017 58.1768 128.367 58.0868C128.847 56.7268 128.567 57.0868 128.917 55.9869C129.347 54.6369 129.247 54.2569 129.377 53.8269C129.597 53.0869 130.117 52.8369 130.417 52.217C130.747 51.557 130.897 50.997 131.287 50.377C132.037 49.207 132.657 48.447 133.037 46.8571C133.237 46.0571 133.997 42.9872 133.857 42.3472C131.777 41.4672 132.787 41.3572 130.667 41.3872C127.357 41.4372 127.837 40.3372 127.187 40.8372C127.187 40.8372 126.927 41.0672 126.927 41.0772C126.667 41.3372 126.677 41.5472 126.077 41.8772C124.537 42.7372 123.297 41.8672 122.497 42.0972C121.857 42.2672 121.297 42.2172 120.537 42.2272Z"
            fill="#F6AFCE" />
        <path fill-rule="evenodd" clip-rule="evenodd" class="state-map-path" id="delta_state_ZxJD6zXXG"
            d="M118.817 16.8778C115.947 17.1278 117.777 16.9178 116.417 17.9678C116.077 18.2278 115.757 18.4778 115.387 18.7478C115.097 18.9578 115.027 18.8678 114.757 19.0178C114.477 19.1678 114.587 19.2678 114.307 19.4878C114.197 19.5777 113.437 20.0477 113.117 20.1177C111.607 20.4477 111.977 20.7377 110.677 21.1977C109.697 21.5477 108.637 21.7277 107.517 21.6777L108.077 24.1376C108.147 24.9676 108.447 24.4376 108.517 25.2076C108.567 25.6776 108.427 26.1476 108.217 26.4776C108.037 26.7676 107.757 27.0276 107.517 27.2576C107.087 27.6675 107.257 27.2776 106.557 27.8775C105.977 28.3775 106.297 27.9475 105.707 28.5875C105.317 29.0175 105.067 28.6875 105.097 29.6575C105.177 32.4074 105.437 30.4475 105.457 31.7874C105.477 33.2674 104.737 33.4674 104.627 34.1874C104.927 34.3474 105.057 34.4074 105.287 34.1774C105.517 33.9474 105.407 33.9274 105.867 33.7874C106.347 34.6974 106.417 34.4974 106.107 34.9974C105.747 35.5974 106.207 35.8073 106.257 36.3873L104.097 36.4273C103.697 36.9873 103.837 37.6773 103.707 38.4673C103.657 38.8173 103.257 40.2572 103.287 40.4172C103.327 40.6472 103.597 40.9272 103.817 41.0872C105.067 41.9772 104.517 42.4872 106.237 42.4572C106.417 42.0072 106.527 42.2672 107.087 41.0972C107.317 40.6272 107.197 40.7072 107.507 40.3572C107.647 40.1972 107.897 39.8872 107.987 39.6973L109.097 39.8672C109.177 40.4572 109.287 41.2172 109.527 41.7272C109.537 41.7272 110.637 42.9972 110.647 43.0072L114.697 43.0272C115.227 43.0472 115.037 43.1872 115.077 43.7672C115.087 43.7472 115.107 43.6972 115.117 43.7172C115.127 43.7272 115.157 43.6772 115.157 43.6572C115.267 43.5072 115.187 43.6572 115.267 43.4972C115.407 43.2372 115.457 42.8472 115.807 42.6372C116.057 42.4872 117.607 42.3772 118.217 42.3072C118.707 42.2572 118.597 42.1972 118.867 42.0772C119.257 41.9072 121.627 41.9672 122.257 41.9572C122.547 41.4272 122.627 38.9373 122.407 38.3173C122.167 37.6473 121.437 35.9373 122.787 35.2874C123.667 34.8674 125.507 35.3374 126.547 35.3374C127.387 35.3374 127.397 35.0174 127.717 34.4474C128.107 33.7674 128.247 33.6474 127.967 32.8474L127.417 32.7274C127.237 32.2874 127.367 32.4674 127.067 32.1274C127.167 31.7374 127.227 32.0074 127.247 31.6974C127.267 31.4875 127.147 31.4075 127.077 31.1875C126.867 30.4875 127.047 30.4775 127.247 30.0675C127.117 29.8375 126.817 29.5175 126.627 29.4375L126.307 29.9975L125.537 29.7675C125.477 28.7575 125.117 26.9476 125.537 25.5976C125.877 24.4976 126.237 25.2876 126.847 23.4477C127.027 22.8977 127.597 22.2777 127.097 21.7677C126.927 21.5977 126.667 21.3777 126.477 21.2377C126.207 21.0277 125.027 19.7677 124.827 19.4278C124.557 18.9378 124.857 19.0778 124.397 18.6978C124.087 18.4478 124.147 18.2978 123.847 18.0978L123.167 17.5878C121.857 17.5878 121.917 17.7878 120.957 17.1978C120.317 16.8078 119.927 16.3978 119.017 16.3978L118.817 16.8778Z"
            fill="#D2E28B" />
        <path fill-rule="evenodd" clip-rule="evenodd" class="state-map-path" id="delta_state_dZdcTke4E"
            d="M106.197 42.7072C104.407 42.7072 104.927 42.1672 103.657 41.2572C103.277 40.9872 103.287 40.7972 102.987 40.5572C102.518 40.7072 102.718 41.0372 101.908 41.0372C101.168 41.0272 101.338 40.6672 100.858 40.4372C100.448 40.2372 99.9176 40.4372 99.5076 40.5172C98.7276 40.6772 98.7876 40.5772 98.1576 40.4672C98.0976 41.8672 97.4176 43.0072 97.4276 44.2671C99.0276 44.3271 99.8676 45.1371 100.788 45.8571C101.278 46.2371 101.658 46.5471 102.168 46.9471C103.147 47.7071 103.027 47.4771 103.257 48.317C104.377 48.537 104.327 49.197 105.067 50.557C105.357 51.087 105.427 51.477 105.777 51.907C106.587 52.9069 108.277 56.7068 107.627 58.0968C107.417 58.5368 105.347 58.9668 104.697 59.2068L101.958 60.5867C101.758 60.8067 101.848 60.9667 101.458 61.0867C100.528 61.3667 100.678 60.4068 99.1176 60.4867C98.0876 60.5367 96.1877 60.8567 95.3077 60.6567C94.6977 60.5168 94.5077 60.1468 94.0377 59.9168C93.8377 61.0767 94.3777 62.9667 92.6777 63.8367C92.2878 64.0267 91.8378 64.2967 91.4178 64.4067C91.3678 63.9867 91.4078 63.5467 91.1078 63.4167C91.1378 63.4267 91.0578 63.1967 91.1978 63.5267C91.3078 63.7767 91.2678 64.0967 91.3778 64.5067C91.5078 65.0266 91.6578 65.1666 91.8378 65.6066C92.1278 66.3166 91.9878 67.5366 92.1778 68.3766C92.3078 68.9565 92.6677 70.2765 92.9777 70.7165C93.5977 71.6065 93.4077 71.8265 94.5777 72.2165V72.9264C95.0877 72.8464 95.0677 72.9764 95.4977 73.0264C96.1977 73.1164 97.9776 72.9464 98.6876 72.8664C101.018 72.6065 103.257 71.5765 103.447 71.5365C103.957 71.4265 103.747 71.5665 103.847 71.5865C104.017 71.6165 103.857 71.6265 104.167 71.5365C104.847 71.3465 105.247 71.4865 105.727 71.3565C106.347 71.1965 106.527 70.6865 107.677 70.0165C107.967 69.8465 108.157 69.6365 108.347 69.5265C109.437 68.8965 110.997 69.9565 111.657 68.3966C112.187 67.1166 114.087 68.0866 114.807 67.0966C115.057 66.7466 115.197 65.7366 114.907 65.3466C114.747 65.1166 114.207 64.9966 113.497 64.5267C112.937 64.1567 112.777 63.9567 112.427 63.3767C111.987 62.6567 112.177 61.9567 112.157 61.0367C112.127 59.7668 111.847 58.1868 112.737 57.2068C112.987 56.9368 113.217 56.8068 113.457 56.5168C113.997 55.8869 114.747 54.5269 115.097 53.7869C115.527 52.8669 115.207 52.167 114.557 51.777C113.577 51.207 111.827 51.087 113.267 48.417C113.487 47.9871 113.987 46.8471 114.117 46.3771C114.577 44.6971 114.897 45.4371 114.817 43.2772L110.397 43.2272C109.807 42.1072 109.707 42.4972 109.387 41.9572C109.097 41.4572 109.037 40.6772 108.867 40.0773L108.177 39.9373C107.147 40.9772 107.367 41.3872 106.827 42.0672L106.197 42.7072Z"
            fill="#FDD1A1" />
        <path fill-rule="evenodd" clip-rule="evenodd" class="state-map-path" id="delta_state_ZUufdQXMo"
            d="M64.9884 79.7263C65.6784 79.6363 65.8184 79.5863 66.1884 80.0362C66.4783 80.3662 66.6983 80.5762 66.9783 80.8962C67.5683 81.6062 67.5183 82.5262 67.9483 83.3062C68.2583 83.8762 69.7683 84.4461 69.9383 84.6961C70.1383 85.0061 70.1283 85.8261 69.9583 86.1761C69.6783 86.7561 69.6883 86.6861 69.4983 87.4561C69.3183 88.196 69.0983 88.0061 68.9383 88.546C68.7583 89.116 67.9683 89.866 67.3483 90.236C66.4283 90.786 65.9684 90.936 64.6884 90.436C63.7284 90.066 64.1984 89.606 63.0484 88.696C62.7484 88.466 62.3284 88.176 62.1285 87.8861C61.6885 88.186 61.4085 88.556 60.8685 88.876C60.3885 89.156 59.8985 89.416 59.3885 89.696C58.8585 89.986 58.2585 90.046 57.7486 90.366C56.5686 91.086 57.1186 90.236 56.1886 91.106C56.5186 92.086 57.1786 91.676 57.5086 93.0859C57.9686 95.0259 57.4386 96.5558 58.3485 97.1858C58.7285 97.4458 59.2685 97.4258 59.5685 97.1258C60.1085 96.5958 59.9585 96.0959 61.5385 95.8059C63.3184 95.4859 62.5984 94.8959 63.9284 94.9259C64.9084 94.9559 64.5784 94.9859 65.3184 94.6359C67.2583 93.7059 67.8183 94.3259 69.7883 94.1759C71.5282 94.0459 71.1082 92.9959 71.8482 92.9259C72.0782 93.3859 72.1382 94.8059 72.1282 95.4759C72.1182 96.5958 71.6382 96.6658 70.5882 96.7458C68.1783 96.9358 66.8183 96.5258 65.1684 96.5358C64.1584 96.5358 62.0085 97.9558 61.4285 98.4058C61.1385 98.6358 60.9985 98.8758 60.7585 99.1458C60.4585 99.4658 60.2785 99.5458 60.0085 99.7958C59.7485 100.036 59.6385 100.276 59.3485 100.536C59.0985 100.756 58.7785 100.976 58.6985 101.406C59.8485 102.066 65.9084 99.4958 67.1883 99.9558C67.2583 100.506 67.1183 100.856 67.1683 101.386C67.2883 102.836 67.1183 102.176 67.0883 102.806C67.0583 103.296 67.1183 103.946 67.1083 104.456C67.1083 105.056 66.8683 105.476 66.8683 105.846C66.8783 106.326 67.1183 106.626 66.7983 107.156C66.6183 107.476 66.2284 107.726 65.6884 107.636C64.9884 107.516 65.3984 107.136 64.5084 107.496C63.9884 107.716 63.5684 107.576 63.0584 107.666C62.8784 108.496 64.0184 107.986 64.8384 108.316C65.4184 108.546 65.5084 109.376 65.8984 109.796C66.6283 109.856 68.1583 108.896 68.6783 108.546C69.6283 107.896 70.2683 107.396 71.6282 108.126C71.8582 108.246 71.9882 108.356 72.1482 108.596C72.4282 109.026 72.3082 108.836 72.6482 109.166C72.9882 109.506 73.2882 110.116 73.7882 109.366C74.1382 108.856 74.4681 108.096 75.7881 108.366C76.2681 108.456 75.8781 108.596 76.4081 108.766C76.4081 109.586 76.4181 109.306 76.6781 109.926C76.7881 110.196 76.7181 110.236 76.7781 110.465C76.8881 110.895 76.8381 110.535 77.0881 110.895C77.0981 110.875 77.1181 110.825 77.1181 110.835C77.1781 110.975 77.5681 109.196 77.5681 109.196C78.1081 108.736 79.778 108.866 80.598 108.596L83.0879 107.536C82.5879 107.306 82.138 106.916 81.698 106.806C81.068 106.656 80.658 106.456 80.238 106.106C79.498 105.496 78.888 104.566 78.848 103.136C78.828 102.516 78.918 101.816 79.108 101.256C79.168 101.046 79.258 100.666 79.358 100.446C79.648 99.7458 80.708 99.1458 80.328 96.1159C80.148 94.6559 80.018 93.8859 79.368 92.8059C79.188 92.5059 78.508 91.996 78.2381 91.796C77.7581 91.436 77.6881 91.036 77.4581 90.356C76.9081 88.746 77.2381 88.636 77.5681 87.7761C77.6681 87.5061 77.7081 87.2161 77.7981 86.9361C77.9281 86.5561 78.3481 85.7761 78.1881 85.3361C77.9881 84.7861 77.3981 84.7361 76.6481 84.6561C76.6081 84.3361 76.5681 84.0761 76.7481 83.8262C76.7581 83.8162 76.7781 83.7962 76.7881 83.7862C76.7981 83.7662 76.8181 83.7562 76.8281 83.7362L76.9581 83.6162C76.5881 83.2962 75.3881 82.7362 75.3681 82.7162C74.9481 82.3762 75.5481 82.3162 74.8881 82.2862C74.8181 82.4462 74.9481 82.3962 74.8881 82.5562C73.5982 82.8862 72.8282 82.9662 71.3782 82.9162L71.3282 81.7962C71.5882 81.5662 71.5382 81.6562 71.7282 81.3562C71.9082 81.0862 71.9282 81.0762 72.1682 80.8862C72.4982 80.6262 72.9382 80.3962 73.1082 79.9863C72.4582 78.8163 67.7583 78.5263 66.5783 78.6163C65.8584 78.6663 65.3184 79.1463 64.9884 79.7263Z"
            fill="#9DD3AF" />
        <path fill-rule="evenodd" clip-rule="evenodd" class="state-map-path" id="delta_state_pfIIfSKiY"
            d="M78.0881 61.9467L79.1581 63.2867C79.5581 63.8367 80.818 65.6366 81.248 65.9766C82.078 66.6266 81.898 66.5266 81.928 67.7166C81.948 68.4766 82.348 68.8665 82.628 69.4465C82.898 70.0065 83.068 70.6765 83.168 71.3765C83.408 73.0464 82.998 73.7464 81.758 74.7464C81.308 75.0964 80.878 75.3864 80.3081 75.6864C79.7181 75.9864 79.0981 76.0664 78.4681 76.3264C77.3481 76.7863 77.4081 78.8563 75.7582 78.3663C75.2082 78.2063 74.7782 77.6963 74.3282 77.4163C72.4382 76.2664 73.0982 75.9764 71.9983 74.8864C71.8383 74.7364 71.5883 74.4064 71.3183 74.3364C70.9783 74.2464 70.4583 74.2264 70.1083 74.2964C69.5183 75.0064 69.9383 74.6664 69.0583 75.0664C68.2084 75.4464 68.3483 75.2164 67.4884 75.3864C66.7584 75.5264 66.9884 76.2164 66.9784 77.6063C66.9784 78.0263 67.0684 77.9863 67.1784 78.3863C67.7684 78.4663 68.3583 78.4963 68.9583 78.4563C69.8383 78.3963 69.9083 78.6463 70.6483 78.7163C71.5283 78.8063 73.0282 79.3063 73.3682 79.9063C73.4282 80.3263 72.5682 80.8662 72.2883 81.0962C71.9583 81.3562 72.0383 81.3662 71.7583 81.7162C71.5283 82.0162 71.6183 81.6762 71.5583 82.1262C71.5383 82.2662 71.5683 82.5462 71.5783 82.6862C72.3183 82.7162 73.7482 82.6662 74.3982 82.4762C74.4482 82.3262 74.4382 82.4862 74.3982 82.3462C74.3882 82.3062 74.3482 82.2462 74.3082 82.1362C75.8882 81.8962 75.0782 82.2462 75.6482 82.6062C75.7782 82.6962 76.0582 82.8062 76.2482 82.9162C76.5581 83.0962 77.1681 83.3962 77.3681 83.6162C77.0481 83.9562 76.8681 83.8362 76.8581 84.3562C77.2781 84.6162 79.0881 84.3962 78.1981 86.5861C78.0081 87.0561 77.8881 87.6561 77.6981 88.0661C77.3981 88.7261 77.2881 88.956 77.5281 89.806C77.6581 90.256 77.8381 90.866 78.0581 91.236C78.2481 91.576 78.3281 91.536 78.5581 91.726C79.2881 92.336 79.5181 92.426 79.9981 93.3359C80.1681 93.6659 80.3181 94.5959 80.3981 94.9959C81.178 99.2258 79.8081 99.8458 79.5481 100.626C79.0481 102.116 78.9781 103.306 79.5281 104.846C79.6781 105.266 80.1781 105.486 80.538 105.806C80.998 106.216 81.108 106.406 81.998 106.446C82.768 107.766 85.0379 106.546 86.1779 106.436C86.5979 106.396 87.5179 106.396 87.8979 106.166C88.1279 106.036 88.0479 105.976 88.2379 105.856C88.4579 105.716 89.7778 105.726 90.4578 105.376C90.3778 104.676 89.4878 104.706 88.8678 103.656C88.3879 102.836 88.4179 103.046 88.1879 102.686C87.9879 102.366 87.8879 101.876 87.6379 101.596C87.4779 101.406 87.3479 101.386 87.2279 101.176C87.0779 100.916 87.1679 100.796 86.9979 100.596C86.8179 100.386 86.0779 100.326 85.7679 100.176C84.8979 99.7558 85.4679 98.3858 85.4779 97.5358C85.4979 96.4559 85.5479 95.3059 85.5079 94.2359C85.4679 93.1059 85.0379 93.3359 85.0079 91.436C84.9879 90.076 83.048 89.176 82.658 87.1261C82.478 86.2061 82.538 85.0661 82.888 84.2762C83.148 83.6762 83.568 82.4462 83.888 81.9862C84.7779 80.6663 85.6779 79.4763 86.4079 77.8263C86.6779 77.1963 87.1779 76.0364 87.5179 75.6464C88.2079 74.8764 89.0478 75.0964 90.2978 75.0864C92.1378 75.0764 92.5178 73.9264 93.5477 73.3464C94.0877 73.0464 94.4377 73.2364 94.3377 72.4065C93.2277 71.8165 93.7777 72.3065 92.7977 70.8865C92.4178 70.3265 92.5878 70.4865 92.3678 69.8365C92.1678 69.2565 92.3078 69.9865 92.0078 68.6365C91.7978 67.7266 91.8878 66.7066 91.6878 65.9166C91.5878 65.5166 91.3578 65.2566 91.2178 64.8166C91.0878 64.4167 91.0878 63.8967 90.9178 63.5467C90.4978 63.4367 90.0778 63.6367 89.6378 63.6267L85.7179 63.0467C84.5679 62.8667 84.458 63.0067 83.308 62.5867C82.268 62.2167 82.158 62.1367 82.008 60.9367C81.518 61.2067 80.578 61.1967 79.9181 61.2267C79.0781 61.2767 78.6581 61.6867 78.0881 61.9467Z"
            fill="#F6AFCE" />
        <path fill-rule="evenodd" clip-rule="evenodd" class="state-map-path" id="delta_state_oKwggWD1q"
            d="M85.2479 91.196C85.2379 91.836 85.2479 92.346 85.4378 92.9159C85.8078 94.0259 85.7478 94.0059 85.7478 95.1459C85.7478 95.9459 85.7078 96.7458 85.7178 97.5358C85.7278 98.2658 85.2679 99.3858 85.8378 99.7658L86.6678 100.166C87.4678 100.546 87.0878 100.446 87.4478 101.046C87.6778 101.436 87.8678 101.346 88.1278 102.006L89.4177 104.016C89.6077 104.206 90.1377 104.596 90.3977 104.656C91.3577 104.876 90.5677 104.796 91.6677 105.056C92.1777 105.176 92.3977 105.396 93.0177 105.356C93.1577 105.076 93.7576 103.916 93.8976 103.836C94.2676 103.676 94.8876 103.736 95.3376 103.766C95.3976 104.986 95.3276 104.546 96.3876 104.686C96.7576 104.726 97.4376 105.076 97.8475 105.226C99.3175 105.766 99.7975 105.606 100.847 104.886C101.097 102.956 99.9275 102.886 100.377 101.516C100.557 100.976 100.867 100.696 101.157 100.326C101.877 99.3958 102.037 99.4658 103.137 99.2458C104.007 99.0758 103.377 99.0358 104.177 98.3158C104.867 97.6858 104.267 97.5858 104.177 96.0559C104.107 94.9559 104.267 94.9959 104.597 94.4659L105.327 94.6959C105.527 94.3559 105.547 93.7759 105.487 93.3559C105.387 92.6659 105.017 92.9359 104.417 92.8159C104.257 91.686 104.307 91.646 104.967 90.376C105.137 90.036 105.147 90.136 105.347 89.926L106.207 88.3061C105.557 87.8161 105.017 87.7561 104.657 86.9761C104.517 86.6761 104.377 86.2461 104.227 85.9961C103.587 84.8661 102.667 84.7961 103.027 82.9062C103.447 80.6562 104.677 80.7762 102.227 79.9163C101.687 79.7263 101.087 79.3863 100.677 79.2763C100.357 79.5463 100.197 79.8863 99.9475 80.3362C99.5475 81.0662 98.2675 81.6662 97.9075 82.0762C97.4775 82.5762 97.4875 82.7062 96.6276 82.3862C95.9476 82.1262 94.6976 81.1762 94.0876 81.2162C93.8176 81.2262 92.9877 81.6162 92.7177 81.7462C92.2577 81.9562 91.7977 83.1462 90.6277 84.2762C90.2177 84.6861 89.6477 85.1561 89.3678 85.8861C88.2478 88.806 88.0078 88.0561 87.1178 89.256C86.8478 89.626 86.5678 90.046 86.3078 90.336C85.7378 90.946 85.6778 90.866 85.2479 91.196Z"
            fill="#D2E28B" />
        <path fill-rule="evenodd" clip-rule="evenodd" class="state-map-path" id="delta_state_fxIVk5TXm"
            d="M40.139 53.0569C40.089 54.4669 40.279 54.3569 39.699 55.5869C39.529 55.9369 39.579 55.9469 39.149 56.0069C39.289 56.6368 38.1391 57.4368 39.399 57.9768C41.029 58.6768 40.899 58.0368 41.719 58.6868C41.779 59.8068 41.019 59.5868 42.489 60.3967C42.8889 60.6167 43.8489 61.2667 43.4889 62.0167C42.389 62.8067 41.949 60.7167 40.599 61.7867C40.469 62.9467 40.979 63.7567 41.329 64.6866C41.729 65.7266 42.429 65.9166 42.149 67.3466C41.979 68.2266 42.009 69.8765 41.489 70.3965C41.269 70.6165 41.189 70.5965 40.939 70.7565C40.519 71.0165 40.269 71.5165 39.309 71.9165C39.279 72.5964 39.339 73.6764 39.849 74.0864C40.449 74.5664 40.629 74.9864 41.149 75.4964C42.8489 77.1863 42.159 76.1364 43.6289 78.4563C43.7089 78.5863 43.8289 78.7363 43.8889 78.8563C43.9689 79.0063 43.9289 78.9463 43.9689 79.0663C44.0789 79.4063 43.8789 79.0163 44.0289 79.2363C44.4889 79.8863 44.9789 80.0263 45.1289 80.1663C45.3389 80.3663 45.8689 81.0062 45.9789 81.3862C46.1989 82.1362 45.6389 82.4562 45.0589 83.0362C44.5189 83.5862 44.7389 84.7761 45.0789 85.0761C45.7989 85.7161 46.1789 84.1062 48.0988 84.4662C48.8788 84.6061 48.4688 84.6861 49.0288 84.2862C49.8388 83.6862 50.5988 84.1162 51.4087 84.1062C51.8787 84.1062 51.9787 83.8762 52.6187 84.0462C54.0087 84.4362 53.6887 85.3861 55.4486 85.3761C57.0186 85.3761 56.7086 83.9862 59.2385 83.7062C60.4485 83.5762 60.7585 84.1562 61.7185 83.8562C61.7985 83.1662 61.8385 82.2162 61.5185 81.6562C61.1585 81.0662 60.8885 80.7162 60.4985 80.2063C60.3085 79.9663 60.1985 79.7863 60.0085 79.5363C59.8285 79.3063 59.6285 79.1863 59.3985 78.9163C58.6586 78.0363 58.7586 78.5063 57.8686 77.9763L55.7786 76.4464C55.5286 76.2264 55.4386 75.9364 55.2086 75.7764C54.8586 75.5564 54.7886 75.6264 54.4187 75.3364C54.1187 75.0964 53.9987 75.0164 53.7687 74.7364C53.4487 74.3464 52.7687 74.0564 52.2587 73.7864C52.3187 73.3464 52.5787 72.5464 52.7787 72.1365C53.0287 71.6065 53.3887 71.2565 53.6187 70.7665C54.5987 70.7465 54.9186 70.8765 54.7886 69.7765C54.4887 69.6365 54.5687 69.7865 54.2887 69.5365L53.5587 68.6065C53.3787 68.2866 52.7287 67.6966 52.3787 67.3266C51.8687 66.7966 51.8787 67.1766 51.8787 66.1466C50.8687 66.0766 51.1687 66.2866 50.1588 65.3366C49.9388 65.1266 49.7988 64.8966 49.5488 64.6266C46.9688 61.8367 49.6588 62.1067 48.6888 59.9968C47.5588 59.8468 48.1088 60.7167 46.4889 59.7768C45.7389 59.3468 45.4689 59.0868 45.1789 58.1168C44.1589 54.7669 43.8689 56.3069 43.6389 55.2969C43.5789 55.0169 43.5289 54.2969 43.7889 54.1569C42.159 53.4969 42.499 54.2269 41.349 54.1369C41.269 53.2769 41.349 53.3869 41.049 52.7069C40.619 52.7469 40.419 52.8969 40.139 53.0569Z"
            fill="#9DD3AF" />
        <path fill-rule="evenodd" clip-rule="evenodd" class="state-map-path" id="delta_state_Qs4DTDHnW"
            d="M45.3489 42.3672C46.1088 43.0272 45.2189 44.8671 44.8389 45.3871C45.8688 46.4571 45.7088 47.817 47.4388 48.457C49.6387 49.257 48.7988 46.3971 50.3287 45.9571C50.8387 45.8071 50.9987 46.0471 51.2487 46.2871C52.3487 47.3271 51.7187 46.8971 52.4587 47.877C52.7987 48.327 52.8587 48.107 53.1687 48.657C53.5487 49.327 53.9286 49.717 54.7186 49.987C55.9886 50.407 56.0686 50.127 57.2086 50.047C57.1586 51.317 56.5986 52.5869 57.1186 52.8369C57.7885 52.8969 57.8485 52.7069 58.3885 52.6069C59.0785 52.4669 58.9885 52.8069 59.3585 53.1769C59.7185 53.5269 60.1685 53.2269 60.6985 53.4769C61.0985 53.6769 61.2985 54.0369 61.2085 54.5969C61.1285 55.0669 60.9185 55.4269 60.9985 55.9768C61.1085 56.7268 61.4485 56.4768 61.7784 56.8568C61.9384 57.0268 61.7085 56.9068 61.9784 57.0568C62.2484 57.1868 62.9784 56.9768 63.0084 58.9068L64.0384 59.0068C64.0884 59.0868 64.0884 59.0768 64.1384 59.1868C64.2584 59.4468 64.2184 59.6268 64.2884 59.8568C64.3984 60.1967 64.5184 60.2467 64.8884 60.2567L65.1984 59.6668L65.9583 59.6068L66.1483 58.9968C66.5383 58.9868 67.0083 58.9968 67.3883 59.0568C68.3383 59.1968 68.0383 60.0467 68.8383 59.3568C69.0283 59.1968 69.1883 59.1068 69.3283 58.9368C69.6083 58.5768 69.8382 58.2968 70.5082 58.3068C70.6282 57.7168 70.8682 57.3468 71.1082 56.8568C71.4682 56.1468 71.2182 55.7869 71.2782 55.0369C71.3682 53.9069 72.3782 52.7869 72.2382 51.717C71.9982 51.507 71.6082 51.317 71.3482 51.077C71.0582 50.817 70.7482 50.587 70.4982 50.357C70.1682 50.057 69.9882 49.977 69.5983 49.697L66.8483 47.6571C66.5583 47.3871 66.1683 47.2571 65.8983 47.0471C65.5284 46.7371 65.6684 46.1571 65.6184 45.6371C64.6884 44.9771 64.6584 45.4271 63.6484 45.0971L61.7384 44.3771C61.1785 44.1371 60.2385 43.0672 60.0085 42.2172C59.8485 41.6172 59.9685 41.7572 59.4485 41.4672L54.5586 38.5373C54.0386 38.1973 53.5087 37.6073 52.8587 37.5173C52.7687 37.8573 52.5487 38.1973 52.3487 38.4973C51.8787 39.2173 51.1287 39.1373 50.0387 39.3173C49.5588 39.3973 49.2688 39.5773 48.8188 39.6773C45.7388 40.3472 46.2488 41.5972 45.3489 42.3672Z"
            fill="#9DD3AF" />
        <path fill-rule="evenodd" clip-rule="evenodd" class="state-map-path" id="delta_state_RzDYDMtO0"
            d="M122.977 0.708221C122.307 5.4581 123.337 5.5481 123.327 7.07806C123.327 7.82805 123.177 8.47803 123.077 9.19801C122.857 10.708 123.127 11.078 122.657 13.5579C122.277 15.5279 122.847 15.6279 123.137 16.3378C123.607 17.4978 123.287 17.4778 123.967 17.8978C124.327 18.1078 124.257 18.2778 124.567 18.5378C125.007 18.9078 124.767 18.7278 125.017 19.2478C125.197 19.6278 126.417 20.8877 126.737 21.1477C127.107 21.4577 127.747 21.7877 127.457 22.6577L126.757 24.3476C126.137 25.4876 125.637 24.3576 125.567 27.9275C125.557 28.4075 125.607 28.5575 125.687 28.9475C125.807 29.4975 125.627 29.5875 126.137 29.7175C126.407 29.4675 126.247 29.3875 126.537 29.1775C126.887 29.2075 127.317 29.6875 127.507 29.9875C127.397 30.5075 127.157 30.3375 127.257 30.9075C127.337 31.3775 127.577 31.3575 127.477 31.8375C127.407 32.1774 127.297 31.7975 127.457 32.1974C127.467 32.2074 127.477 32.2374 127.487 32.2474L127.587 32.4074C127.667 32.5074 127.627 32.4774 127.777 32.5474C128.257 32.7774 128.197 32.6774 128.357 33.2974C129.547 32.5474 131.447 33.1674 131.907 32.4574C132.007 32.2974 132.077 32.1274 132.177 31.9874C132.297 31.8075 132.377 31.7475 132.507 31.5775C132.847 31.0775 133.227 30.0575 133.357 29.5475C133.627 28.4275 133.087 28.3975 132.777 27.9575C132.007 26.8876 132.257 27.6776 131.797 26.7976C131.267 25.7976 131.627 25.4576 131.857 24.5176C131.957 24.0576 131.967 23.6977 132.087 23.2577C132.337 22.3777 132.447 21.8177 132.627 20.9077C132.877 19.5778 133.717 20.0477 134.287 19.6078C134.497 19.0778 133.887 14.2279 133.877 13.0979C133.257 12.8779 133.447 12.4179 132.817 10.948C132.137 9.36801 132.357 9.798 132.137 8.41803C131.897 6.97807 131.337 4.55813 130.697 3.33816C129.707 1.4582 130.767 -0.371752 129.267 0.498227C128.867 0.728221 128.767 1.04821 128.327 1.20821C127.337 1.5382 126.697 0.688222 125.907 0.478227C125.147 0.278232 123.687 0.418229 122.977 0.708221Z"
            fill="#F6AFCE" />
        <path fill-rule="evenodd" clip-rule="evenodd" class="state-map-path" id="delta_state_GAbCiCceY"
            d="M85.2678 90.846C85.7678 90.726 86.4078 89.816 86.7078 89.416C86.9178 89.136 87.1178 88.826 87.3178 88.6261C87.6478 88.2861 87.9378 88.1861 88.1178 87.9461C88.8778 86.9361 89.1277 85.2361 90.2477 84.3062C90.7777 83.8562 91.1477 83.3462 91.5577 82.7362C92.2877 81.6462 92.1177 81.7762 93.0676 81.3562C94.1476 80.8862 94.1276 80.6962 95.0776 81.3062C95.5276 81.5962 96.5376 82.1562 97.1575 82.2462C97.3775 81.8062 97.6075 81.7662 98.1075 81.5462C99.8275 80.7662 99.7875 79.7363 100.597 79.0063L102.767 79.8663C103.707 80.2363 104.227 80.3363 103.727 81.4762C102.477 84.3162 103.567 84.5762 104.357 85.7761C104.927 86.6361 104.597 86.9861 105.557 87.6261C107.017 88.5861 106.877 87.5261 107.857 87.8761C108.357 88.0561 108.257 88.2661 108.957 88.1961C110.627 88.0461 111.827 88.4561 113.337 88.2261C114.077 86.9861 113.017 86.3261 111.887 86.2261C110.757 86.1361 109.187 86.4961 108.237 86.2561C107.617 85.2261 108.327 83.2062 107.967 81.9162L106.787 78.2463C106.697 77.9763 106.597 77.6563 106.507 77.3663L104.457 73.4064C103.897 72.4065 103.687 73.2364 103.597 71.7865L99.5875 72.9764C98.8475 73.1464 96.8376 73.2964 95.9776 73.2864C95.5476 73.2864 95.0176 73.1264 94.7476 73.1464C93.3376 73.2764 92.6477 74.7564 91.3977 75.1564C89.6277 75.7264 88.0978 74.5564 87.3078 76.4264C85.7278 80.1463 84.3479 81.2762 83.5179 83.3462C82.9579 84.7561 82.4379 86.0061 83.0579 87.7261C83.3279 88.4761 83.6979 88.816 84.0979 89.316L85.2678 90.846Z"
            fill="#91D8F7" />
        <path fill-rule="evenodd" clip-rule="evenodd" class="state-map-path" id="delta_state_CEOQC9CO4"
            d="M103.987 36.1873L105.967 36.1773C105.877 35.8973 105.727 35.6774 105.737 35.3374C105.757 34.9174 105.917 34.8774 106.017 34.5974C105.817 34.3574 105.867 34.2374 105.617 34.1074C105.457 34.2874 105.477 34.9174 104.327 34.3174C104.507 33.1974 105.327 33.3674 105.197 31.4675C104.817 31.5075 104.877 31.6775 104.387 31.7974C103.337 32.0474 100.688 32.6274 99.9676 33.1374C99.5376 33.4474 99.0676 33.8374 98.4376 33.8974C97.4976 33.9874 97.3076 33.5974 96.9276 33.1574C96.5377 32.7074 96.1277 32.5474 95.7577 32.0174C95.4277 31.5475 95.2077 30.9875 94.8677 30.5975C94.1777 29.8375 93.8577 29.5175 93.5277 28.4075C93.4077 28.0275 93.4477 27.8175 93.0977 27.6775C92.4878 27.4476 91.6278 27.5676 90.9778 27.4676C89.0978 27.1876 91.8878 24.5076 92.5777 23.2877C93.8177 21.0877 93.3677 22.3277 95.3677 21.4577C95.8477 21.2477 96.5676 20.8477 97.1376 20.8277C97.5476 21.5177 97.4376 22.6277 97.8776 23.1377C98.7876 23.1177 98.9276 21.7377 99.7276 20.9577C100.368 20.3277 100.368 19.9977 100.298 18.7778C100.268 18.2278 100.138 18.1078 99.8076 17.8378C99.2776 17.4078 98.7876 17.0478 98.3676 16.5578C98.2176 16.3778 97.9276 16.0378 97.6076 16.0078C97.2276 15.9678 97.0276 16.3478 96.8276 16.5778C96.3977 17.0778 95.9477 17.4978 95.5277 17.9978C95.3177 18.2278 95.1677 18.4878 94.7477 18.5178C92.6677 18.6778 94.3077 16.6378 91.7778 14.6579L90.2378 13.4779C88.4978 12.3679 88.0479 11.7679 86.7979 13.3879C85.3479 15.2579 85.0879 15.1479 85.1579 17.0578C85.1979 18.3578 84.278 18.1378 84.5779 19.0578C84.9079 20.0777 86.9379 21.2977 87.1479 21.9377C87.3079 22.4477 87.3379 23.7976 87.3979 24.3976C87.5279 25.9076 88.0279 27.4076 88.4079 28.8175C88.9378 30.7475 89.2178 31.1575 90.1878 32.4874C90.5878 33.0374 90.9478 33.4274 91.2678 34.1174C91.7278 35.0974 91.6378 35.1474 92.3978 35.7073C93.1177 36.2473 93.3777 37.4873 95.2477 38.2873C96.2177 38.6973 96.2877 38.7373 96.9376 39.3273C99.2376 41.3772 99.7876 39.6573 100.978 40.2272C101.398 40.4272 101.308 40.7172 101.748 40.7872C102.308 40.8772 102.478 40.5672 102.777 40.3972C103.187 40.1572 103.097 40.0672 103.227 39.5373C103.737 37.5573 103.357 37.1573 103.987 36.1873Z"
            fill="#91D8F7" />
        <path fill-rule="evenodd" clip-rule="evenodd" class="state-map-path" id="delta_state_LWph5hxD2"
            d="M97.6176 15.7578C98.2676 15.9278 98.6376 16.5678 99.4376 17.2178C100.318 17.9278 100.568 17.9778 100.548 19.5178C100.518 21.1877 99.8575 20.7977 99.4276 21.7277C99.0976 22.4677 98.6576 23.4377 97.7176 23.3777C97.2976 22.6777 97.2676 21.9277 97.0376 21.0777C96.4776 21.1377 95.9076 21.4877 95.4276 21.6877C93.3277 22.5977 93.9477 21.2677 92.7477 23.4577C92.4277 24.0476 92.1577 24.4076 91.7877 24.7976C91.4077 25.1976 91.1578 25.5976 90.8478 26.0876C90.4778 26.6576 90.3678 27.2176 91.2778 27.2676C94.1077 27.4276 93.3277 27.4276 94.0277 29.0575C94.2677 29.6175 94.6177 30.0175 94.9477 30.3575C95.5976 31.0075 95.5576 31.5375 96.3076 32.2874C96.5876 32.5674 96.7176 32.6074 96.9476 32.8074C97.3776 33.1874 97.6776 34.5374 99.8375 32.9274C100.788 32.2174 104.697 31.7475 104.937 31.2175C104.957 30.6175 104.757 29.4675 104.937 28.9675C105.067 28.5975 105.277 28.7075 105.537 28.4275C106.087 27.8476 105.627 28.2775 106.217 27.8576C106.467 27.6776 106.567 27.4776 106.867 27.3476C107.407 27.1076 107.207 27.2276 107.587 26.8476C108.277 26.1676 108.147 26.2176 108.117 25.0776L107.627 24.7676C107.547 24.3876 107.727 24.2876 107.607 23.7777C107.157 21.9277 106.307 20.9477 107.357 18.9578C107.617 18.4678 108.057 17.8178 108.207 17.3278C108.457 16.5478 108.377 15.9978 108.087 15.3179C107.907 14.8579 108.097 14.8179 107.797 14.3779C107.487 13.9179 107.707 13.8479 107.527 13.3979C107.417 13.1179 107.297 13.0279 107.187 12.5979C106.767 11.008 106.597 12.4979 106.147 9.92799C105.747 9.96799 105.777 10.338 104.967 10.388C103.827 10.458 103.167 11.008 102.337 11.378C100.518 12.1879 101.208 10.858 99.1276 13.5979C98.6176 14.2679 98.0376 15.3479 97.8876 15.4979L97.6176 15.7578Z"
            fill="#9DD3AF" />
        <path fill-rule="evenodd" clip-rule="evenodd" class="state-map-path" id="delta_state_Ugkpcz0a4"
            d="M52.0787 65.8366L52.1287 66.8066C52.4987 67.1266 52.5587 67.2166 52.8387 67.5166C53.0887 67.7766 53.3187 67.9466 53.5687 68.1966L54.1487 69.0065C54.6687 69.6565 54.5787 69.2765 55.0287 69.6065C55.0787 70.1465 55.1787 70.4565 54.8787 70.7665C54.5987 71.0565 54.3087 70.9465 53.7987 71.0065C53.3187 71.5465 52.6187 72.6665 52.5587 73.6464C52.9187 73.8864 53.1287 73.9964 53.5187 74.1864C53.7787 74.3064 54.1287 74.8364 54.7187 75.2764C54.9487 75.4564 55.0087 75.3964 55.2687 75.5464C55.5586 75.7164 55.7486 76.0964 56.0186 76.3664L56.0786 76.2364C56.3486 75.5364 56.1586 75.9864 57.1486 75.1764C57.4786 74.9064 57.4086 74.9364 57.8686 74.7464C58.3686 74.5264 57.8486 74.7264 58.3186 74.2964L59.9685 73.2264C60.3785 72.9564 61.1785 72.6065 61.7485 73.0164L62.3585 73.5664C62.8985 74.0964 62.2985 74.0664 63.4685 74.8464L64.6884 76.0164C64.9884 76.3764 66.4084 77.5263 66.7184 77.6363C66.7984 76.4364 66.3184 75.2564 67.6384 75.1264C70.0083 74.8864 69.6783 74.1864 70.0283 74.0564H71.0983C71.0983 74.0464 71.0983 74.0164 71.0983 74.0164C71.0983 74.0264 71.0983 73.9864 71.0983 73.9864L71.1183 73.8964C71.3783 73.1364 72.1082 72.8464 71.7682 71.9865C71.5483 71.4065 70.3283 69.5465 69.8983 69.0765C69.1183 68.2066 67.8883 67.8766 67.0184 67.1166C66.9684 66.2566 67.0684 66.2166 67.2684 65.5266C67.4184 65.0166 67.4384 64.5067 67.5984 63.9667C68.0583 62.4667 68.0483 62.3767 69.5983 62.0967C69.9083 61.3967 70.4483 60.7967 71.1783 60.5467C71.2283 59.7468 71.0783 58.2768 70.0783 58.6068C69.5983 58.7568 69.6183 59.0468 69.2383 59.3468C68.8783 59.6168 68.6983 59.9068 68.0483 59.8068C67.6684 59.5768 68.3783 59.2768 66.3284 59.2268L66.1484 59.8568L65.3184 59.8768C65.1984 60.2968 65.0484 60.7567 64.4084 60.4068C64.0384 60.1968 64.0884 59.7868 63.9384 59.3068C63.6684 59.1368 63.1785 59.1668 62.8085 59.1068C62.7085 58.5068 62.8385 58.2168 62.5285 57.6668C62.3385 57.3168 62.4085 57.4368 61.9885 57.3068C61.3985 57.1268 61.7885 57.1568 61.4585 56.9168C60.7485 57.7368 59.6985 60.2068 58.9486 61.2467C58.3586 62.0667 58.3786 62.5367 57.2386 64.0767C56.2986 65.3466 52.8987 65.4666 52.0787 65.8366Z"
            fill="#D2D3D5" />
        <path fill-rule="evenodd" clip-rule="evenodd" class="state-map-path" id="delta_state_eAYLIaMgc"
            d="M41.499 47.1771C41.149 48.257 41.439 47.4371 42.6089 49.327C42.8689 49.747 42.7889 49.777 43.3189 49.857C44.2289 49.977 44.3789 50.197 44.7389 50.827C45.3089 51.827 45.0989 51.767 44.6289 52.4769C44.9389 53.0369 45.1389 52.5169 45.0389 53.8569C44.6889 54.0869 44.1689 54.2169 43.8889 54.4069C43.6889 56.0969 44.2789 55.1369 44.6989 56.2169C45.0789 57.2168 44.9989 56.7268 45.4489 58.1868C45.7289 59.1168 45.9989 59.1968 46.7088 59.6368C47.8788 60.3567 47.5988 59.6568 48.8488 59.7368C49.8588 61.9567 47.7388 62.0467 49.1188 63.7467C49.4088 64.1067 49.6688 64.3666 49.9588 64.7166C50.2188 65.0466 50.5087 65.3266 50.7987 65.5966C51.4187 66.1866 51.5587 65.9166 52.0287 65.6166C52.7987 65.1266 56.0186 65.3566 57.2486 63.6667C58.0986 62.4967 58.0886 62.0867 58.5686 61.3667C59.6985 59.6768 59.0085 60.7567 59.8485 59.0968C60.2385 58.3368 60.8385 57.5768 61.1785 56.8368C60.8885 56.4968 60.7085 56.3368 60.7485 55.6069C60.7985 54.4769 61.6785 53.6769 59.7285 53.5969C59.1485 53.5769 59.1285 53.1869 58.7385 52.8269C57.9786 52.8269 57.8786 53.2469 56.9286 53.0469C56.5786 52.5869 56.5586 52.3469 56.7086 51.837C56.8186 51.457 56.9186 50.727 56.9486 50.307C55.9486 50.477 55.6786 50.547 54.6586 50.217C53.2887 49.767 53.1087 48.897 52.8387 48.567C52.5887 48.257 52.4987 48.527 51.8587 47.4071C51.6087 46.9571 50.9487 46.0271 50.3988 46.1771C49.7288 46.3671 49.6388 47.2171 49.3088 47.8171C49.0088 48.397 48.9288 49.147 47.4988 48.717C45.5489 48.1471 45.5889 46.4971 44.8189 45.8171C43.9389 46.5571 44.5289 47.1471 41.499 47.1771Z"
            fill="#91D8F7" />
        <path fill-rule="evenodd" clip-rule="evenodd" class="state-map-path" id="delta_state_PKWKFUf1a"
            d="M87.9078 54.9469C88.1878 55.5669 88.1678 56.4368 88.3978 57.1868C88.5078 57.5368 88.7078 57.8068 88.8378 58.1368C89.0178 58.6168 88.7978 58.2768 89.2078 59.1668C89.6678 60.1668 89.4078 60.4767 90.4578 62.0367C90.8078 62.5667 90.6678 62.3867 91.2378 62.6467C91.3478 63.3467 91.5077 63.3767 91.6477 64.0567C94.7377 62.7667 93.3077 61.5667 93.8477 59.6568C95.2877 59.8068 93.8177 60.7467 97.6276 60.3767C98.2476 60.3167 99.1376 60.1868 99.7475 60.2667C100.498 60.3567 100.798 61.0767 101.428 60.8267C101.787 60.6067 101.567 60.4467 102.177 60.1568C102.957 59.7768 104.437 59.0268 105.147 58.8368C105.397 58.7668 107.247 58.1768 107.307 58.1168C107.747 57.7268 107.417 56.2069 107.267 55.6869C106.817 54.1769 106.207 52.8969 105.417 51.847C105.227 51.597 104.677 50.327 104.457 49.927C103.997 49.057 104.187 48.677 102.987 48.537C102.977 47.6271 102.527 47.4971 101.318 46.5571C100.978 46.2971 100.608 46.0371 100.298 45.7671C99.7275 45.2571 98.6976 44.6271 97.8376 44.5171C96.6376 44.3571 96.9376 45.7871 95.6876 47.8871C95.0277 48.997 94.1677 50.197 93.1777 50.907C92.8077 51.177 92.3777 51.417 92.0677 51.697C91.3878 52.2869 90.9078 52.9469 90.1678 53.5069C89.4178 54.0769 88.2178 54.6769 87.9078 54.9469Z"
            fill="#9DD3AF" />
        <path fill-rule="evenodd" clip-rule="evenodd" class="state-map-path" id="delta_state_fJXjUUr6k"
            d="M106.407 9.92799C106.467 10.478 106.557 11.108 106.857 11.448C107.367 12.0179 107.227 11.9479 107.477 12.7279C107.547 12.9779 107.707 13.1579 107.767 13.3279C107.897 13.6679 107.767 13.8379 107.937 14.1579C108.377 14.9479 108.067 14.5379 108.457 15.5378C108.917 16.7278 108.257 17.7578 107.887 18.4978C107.367 19.5478 106.937 19.8877 107.157 21.4177C107.557 21.6177 109.567 21.2877 110.177 21.1077C111.207 20.8177 111.997 20.0777 112.727 19.9477C113.447 19.8177 113.427 19.6977 113.987 19.3978C114.447 19.1578 114.187 19.2178 114.437 18.9478C114.637 18.7478 114.847 18.7678 115.107 18.6278L116.647 17.4478C116.847 17.2078 116.817 17.0478 116.987 16.8178C119.427 16.4678 118.287 16.9578 118.887 16.1778C119.877 16.1278 120.277 16.4878 120.927 16.8978C121.867 17.4878 121.887 17.4378 123.227 17.3478C123.047 16.9778 123.077 16.9278 122.947 16.5178C122.737 15.8678 122.027 15.5978 122.397 13.6379C122.877 11.098 122.617 10.878 122.827 9.298C122.917 8.59802 123.077 7.87804 123.097 7.16806C123.117 6.52807 122.817 5.86809 122.677 5.17811C122.347 3.54815 122.617 2.45817 122.697 0.878212C122.117 0.748215 120.557 1.00821 119.927 1.12821C118.457 1.4182 119.007 1.3482 117.907 2.30818C117.347 2.80816 117.637 3.17816 115.487 4.58812C114.587 5.17811 113.427 5.80809 112.767 6.64807C112.497 7.00806 112.267 7.06806 112.047 7.48805C111.787 7.96804 111.807 8.14803 111.297 8.39803C109.777 9.14801 108.287 9.88799 106.407 9.92799Z"
            fill="#91D8F7" />
        <path fill-rule="evenodd" clip-rule="evenodd" class="state-map-path" id="delta_state_cnMfrtMBG"
            d="M69.6983 62.3367C67.6683 62.5467 68.0583 63.4867 67.5283 65.4466C66.9383 67.6566 67.0883 66.7266 69.0983 68.1566C70.5082 69.1565 70.3882 69.2565 71.2682 70.6665C71.4582 70.9565 71.6982 71.3265 71.8582 71.6465C72.4982 72.9164 71.6882 72.9164 71.4382 73.8964C73.1082 75.4364 72.8782 76.3063 74.2882 77.1263C74.8081 77.4363 75.5881 78.2763 76.2881 78.1963C77.1681 78.0963 77.2581 77.0963 77.7681 76.5263C78.498 75.6964 79.908 76.1464 81.808 74.3764C82.258 73.9564 82.9479 73.4364 82.9979 72.4964C83.1579 69.8565 81.638 68.9065 81.698 67.5466C81.768 66.0166 81.358 66.7066 80.558 65.5866L78.598 62.9367C78.3881 62.6667 78.1681 62.1867 77.7781 62.2067C77.4381 62.2267 77.3981 62.5667 76.6981 62.5767C76.2081 62.5867 75.7981 62.4167 75.2981 62.4367C74.6381 62.4667 73.2282 62.9467 72.6282 62.4767C72.4682 62.3567 71.5582 60.9367 71.2182 60.8467C70.9582 60.7867 70.4782 61.2467 70.3182 61.4067C69.9583 61.7667 69.9883 61.9667 69.6983 62.3367Z"
            fill="#91D8F7" />
        <path fill-rule="evenodd" clip-rule="evenodd" class="state-map-path" id="delta_state_rgEkMjwew"
            d="M122.627 41.7972C123.597 41.9072 124.477 42.2072 125.437 41.8972C125.897 41.7472 126.167 41.5872 126.417 41.3072C126.607 41.1072 126.627 41.0372 126.807 40.8672C126.947 40.7272 127.057 40.5972 127.207 40.4672C128.047 40.4672 127.927 40.8272 128.707 41.0072C130.447 41.4072 131.537 40.7972 132.567 41.4172C133.027 41.6972 133.437 42.0072 134.057 42.1072C134.317 39.5973 134.927 40.2272 134.607 37.0673L133.907 36.9573C132.657 34.6274 133.427 34.1574 135.147 33.0674C137.637 31.4775 136.537 30.7075 137.387 28.8775C138.347 26.7976 137.687 26.8876 136.627 25.8376C136.307 25.5276 136.227 25.2476 135.997 24.8176C135.347 23.6377 134.657 21.4977 134.437 19.9577C132.527 19.8377 132.887 21.4277 132.477 22.8077C132.267 23.5177 132.217 24.1576 132.017 24.8176C131.677 25.9076 131.587 26.6376 132.587 27.3176C132.897 27.5376 132.857 27.6975 133.147 27.9975C133.707 28.5675 133.837 28.9275 133.517 29.8575C132.767 32.0174 132.777 31.3875 132.257 32.3174C131.567 33.5374 131.097 32.8074 129.497 33.1874C128.227 33.4874 128.797 33.4274 128.397 33.8974C126.937 35.6274 128.257 35.7474 124.667 35.3974C122.927 35.2274 121.737 35.6274 122.377 37.6173C122.647 38.4473 122.857 38.5273 122.807 39.6173C122.787 40.2272 122.527 41.2672 122.627 41.7972Z"
            fill="#D2D3D5" />
        <path fill-rule="evenodd" clip-rule="evenodd" class="state-map-path" id="delta_state_W1ZfSZvFy"
            d="M93.2077 105.596C92.2477 105.616 92.1077 105.336 91.3678 105.236C90.9178 105.546 90.7178 106.096 90.1278 106.166C88.9078 106.316 87.5679 106.996 86.6879 107.106C85.7079 107.226 83.9279 107.416 83.048 107.836C82.318 108.176 80.528 108.926 79.748 108.996C79.0681 109.046 78.4781 109.126 77.8281 109.296C77.7081 109.516 77.7681 109.676 77.5181 110.376C77.2281 111.196 78.1481 112.365 77.0681 113.845C77.2581 113.995 77.3381 114.195 77.4881 114.375C77.8381 114.805 78.5181 115.775 78.9781 116.025C79.788 116.465 81.288 116.805 82.348 116.515C84.3079 115.965 82.438 113.535 84.4079 112.405C85.0979 112.015 85.4279 112.165 86.2579 112.095C86.6879 112.665 87.9878 113.855 88.7078 113.735C89.9678 113.525 90.0278 112.335 90.7878 111.715C90.9878 111.795 91.1478 112.025 91.3878 111.895C91.6278 111.765 91.5578 111.485 91.6078 111.216C92.4077 111.156 92.5077 111.365 93.0977 111.375C93.4977 111.146 94.0477 110.586 94.0977 109.976C94.2377 108.286 93.0577 106.846 93.7577 105.856C94.1077 105.346 94.3877 105.016 95.1277 104.786L95.1077 104.046C94.9177 103.976 94.5177 103.966 94.2577 103.996C93.7777 104.046 93.8877 104.386 93.4977 105.026C93.3177 105.326 93.3477 105.306 93.2077 105.596Z"
            fill="#FDD1A1" />
        <path fill-rule="evenodd" clip-rule="evenodd" class="state-map-path" id="delta_state_eI4Vdq38Y"
            d="M63.6484 81.5562L63.6384 82.9062C63.3284 82.9062 62.8384 82.9462 62.5584 82.8462C62.2784 82.7362 62.2884 82.5662 61.9884 82.4062V83.9462C61.0885 84.5561 60.8085 84.0262 59.9485 83.9162L60.1085 85.1461C60.8685 85.5161 62.3884 85.4261 62.3584 87.1561C62.3484 88.0061 62.2884 87.7761 63.1684 88.4961C63.5684 88.826 63.8384 89.116 64.1584 89.646C64.5084 90.226 64.8084 90.266 65.4983 90.426C66.3883 90.626 67.0583 90.206 67.7683 89.676C67.8383 89.626 68.6183 88.766 68.7083 88.4761C68.9083 87.8261 68.8583 88.2461 69.1183 87.8161C69.3683 87.4161 69.3283 86.7561 69.6582 86.2061C69.9082 85.7761 70.0182 84.8761 69.4983 84.6461C68.6083 84.2462 68.9583 84.3862 68.1383 83.8562C67.7583 83.6162 67.8583 83.6762 67.6783 83.2462C67.2683 82.3162 67.2683 81.5862 66.7283 80.9762C66.5283 80.7462 66.3983 80.6662 66.2083 80.4263C65.7983 79.9163 65.3984 79.6463 64.7584 80.0763C64.4084 80.3163 64.5984 80.3663 63.9284 80.3263C62.8484 80.2763 63.0784 79.6963 62.4484 79.6463C62.2784 80.0363 62.4984 80.4862 62.7184 80.7862C63.0084 81.1962 63.3484 81.0362 63.6484 81.5562Z"
            fill="#F6AFCE" />
        <path fill-rule="evenodd" clip-rule="evenodd" class="state-map-path" id="delta_state_YlTmTJ8IU"
            d="M56.3686 76.0164L56.3486 76.5464C56.6686 76.8163 57.8186 77.7463 58.2586 77.9163C58.8086 78.1263 58.9886 78.0863 59.3386 78.4763C60.1085 79.3363 60.9085 80.1963 61.5385 81.2262C62.0685 82.1062 62.2585 82.7862 63.4085 82.6362C63.4085 80.3463 63.1785 82.2662 62.3485 80.5763C62.1085 80.0763 62.1385 80.4063 61.7985 80.0763V79.0863C62.2685 79.0163 62.7385 79.0663 63.1485 79.2063C63.6085 79.3563 63.8184 79.6563 64.1884 79.7163C64.5184 79.3863 64.4384 79.2463 64.8084 78.9663C65.2484 78.6263 65.1884 78.6363 65.4984 78.1363C65.9484 78.1663 66.1484 78.0663 66.4784 77.9263C66.2984 77.5363 65.6484 77.1563 65.3084 76.8863C64.8284 76.4964 64.5584 76.1064 64.1684 75.7964C63.9084 75.5964 63.8384 75.5164 63.6085 75.2864C63.1785 74.8464 62.8485 74.9564 62.4385 74.1564C62.1685 73.6364 62.2885 73.8364 61.9185 73.5064C61.6185 73.2364 61.2485 72.7864 60.3385 73.2664C59.9985 73.4564 59.2986 73.8764 58.9586 74.1164C57.8086 74.9364 58.6286 74.6764 58.1286 74.9164C57.5486 75.2064 58.1486 74.6964 57.0386 75.5664C56.8186 75.7264 56.5786 75.8964 56.3686 76.0164Z"
            fill="#91D8F7" />
        <path fill-rule="evenodd" clip-rule="evenodd" class="state-map-path" id="delta_state_kLtqjhtxi"
            d="M69.1583 108.836C69.1283 110.116 68.9583 111.505 68.9683 112.695C68.9783 113.545 69.2483 115.515 69.6183 116.145C69.9983 116.105 70.0383 115.875 70.5583 115.795C70.9783 115.725 71.4083 115.795 71.7583 115.575C72.0782 115.085 71.8882 114.555 71.9582 113.945C72.0382 113.275 72.3882 113.335 72.8282 112.935C72.9382 112.345 72.7082 111.465 73.1482 111.115C73.5682 110.795 74.4682 111.035 74.8682 111.225C75.6382 111.615 75.4782 112.055 76.3681 112.945C76.5681 113.145 76.6681 113.405 76.9481 113.545C77.2481 113.235 77.3781 112.745 77.3781 112.285C77.3781 111.105 77.1781 111.615 76.5681 111.425C76.0181 111.245 76.5181 110.126 75.6782 108.936C73.5582 108.866 74.3382 111.255 72.4882 109.656C72.0782 109.296 71.6683 108.666 71.1683 108.426C70.4583 108.096 69.5783 108.476 69.1583 108.836Z"
            fill="#91D8F7" />
        <path fill-rule="evenodd" clip-rule="evenodd" class="state-map-path" id="delta_state_Gifr5HQSI"
            d="M90.8777 63.1867C90.7377 62.6767 90.6777 62.7267 90.3877 62.3467C89.7778 61.5567 89.3778 60.5968 89.1078 59.5868L88.3378 57.6468C87.9678 56.8668 88.0878 56.1769 87.8278 55.4269C87.2578 55.7069 87.1678 56.2169 86.7678 57.0968C86.4878 57.7068 86.0778 58.3968 85.6379 58.7768C85.1779 59.1768 84.4179 59.2568 83.8679 59.7268C83.5979 59.9568 83.4579 60.2368 83.1679 60.4168C82.8179 60.6368 82.4279 60.5968 82.3079 60.9767C81.808 62.5767 85.1579 62.7267 85.9379 62.8467C87.0678 63.0167 89.9578 63.7167 90.8777 63.1867Z"
            fill="#91D8F7" />
        <path fill-rule="evenodd" clip-rule="evenodd" class="state-map-path" id="delta_state_XQ8AUN1bm"
            d="M62.7384 108.946C62.7284 108.406 62.4884 108.186 62.4884 107.506C63.0584 107.166 63.5884 107.596 64.6684 107.156C65.3084 106.896 65.8983 107.906 66.5383 107.146C66.7783 106.866 66.7283 106.516 66.6783 106.156C66.5783 105.566 66.6783 105.606 66.8083 105.106C66.9183 104.646 66.9183 103.216 66.8183 102.736C66.4183 102.706 65.3084 103.486 64.2684 103.896C63.5884 104.166 63.6784 104.376 63.1784 104.606C62.3684 104.976 60.1485 105.916 60.6085 107.536C60.8185 108.266 61.7485 109.316 62.7384 108.946Z"
            fill="#91D8F7" />
    </svg>