<svg viewBox="0 0 96 121" fill="none" xmlns="http://www.w3.org/2000/svg">
        <path fill-rule="evenodd" clip-rule="evenodd" class="state-map-path" id="ebonyi_state_tphLlEs5s"
            d="M59.6128 4.84204C59.7628 5.22204 59.9828 5.29203 60.2428 5.97202C60.4728 6.552 60.6028 6.712 60.6928 7.36198C60.7228 7.37198 60.8528 7.42198 60.8728 7.43198L62.0727 8.74195C62.5627 9.68193 62.3527 10.2319 62.5427 11.2919C62.6427 11.8419 62.7427 11.5619 62.8127 12.4119L63.2227 18.1817C63.2827 18.8117 63.7727 19.6417 63.5827 20.7217C63.5027 21.1616 63.3927 21.2616 63.4427 22.0116C63.5027 22.9316 63.7127 23.9316 63.7227 24.8316C63.7327 25.4815 63.6027 25.3815 63.5427 26.0815C63.4927 26.7115 63.3427 26.6415 63.1227 27.0815C62.9027 27.5115 62.7027 28.7415 62.8227 29.3714C63.1927 31.2314 62.8327 30.9714 62.7027 31.7814C62.5127 33.0014 63.2327 33.9013 63.0727 35.7013C63.0527 35.9313 63.0327 36.1013 63.0027 36.2613C62.7027 38.2012 62.6427 36.4613 63.1427 38.5812L63.4027 39.1012C63.9727 39.7312 63.8827 39.9512 64.3127 41.2511C64.5127 41.8511 64.9627 45.931 64.8127 46.621C64.9627 48.381 65.0727 48.711 65.9526 49.8509C66.2426 50.2209 66.4626 50.6909 66.9626 50.8909C67.6726 51.1709 68.0026 51.1009 68.8826 50.9609C71.2725 50.5509 69.2426 51.2509 72.1425 50.0909C72.6325 49.8909 73.2225 49.6909 73.7324 49.5809C74.5624 49.4009 74.8924 49.5609 75.5624 49.1509C76.3124 48.681 79.8423 48.111 80.9123 47.981C81.6322 47.901 82.1422 47.711 82.9222 47.731C84.3822 47.771 86.2921 48.161 87.1321 47.301C87.4021 47.031 87.3321 46.941 87.6321 46.671C87.9721 46.351 88.4221 46.011 89.0521 45.881C89.2921 46.781 89.1321 46.781 89.0421 47.321C88.9621 47.821 89.0921 48.401 89.0821 48.871C89.0621 47.591 89.4921 43.4611 90.132 42.6011C90.602 41.9611 92.152 41.8611 93.022 41.5111C99.2318 39.0012 87.4521 31.0614 88.1521 24.3816C88.4321 21.7516 84.8422 20.5717 82.7422 20.6717C78.2623 20.8816 74.8924 16.2218 74.9124 9.63193C74.9324 4.74205 67.3426 0.662148 66.7126 1.02214C65.9226 1.46213 64.6027 0.882143 63.4527 1.37213C61.9827 2.00212 62.2127 1.49213 61.0928 2.7221C60.7728 3.08209 60.5628 3.33208 60.2328 3.66207C59.7828 4.09206 59.7228 4.20206 59.6128 4.84204Z"
            fill="#F6AFCE" stroke="#FEFEFE" stroke-width="0.677283" />
        <path fill-rule="evenodd" clip-rule="evenodd" class="state-map-path" id="ebonyi_state_W7Flh2Lvs"
            d="M18.3437 62.0906C18.2537 61.6406 19.3637 61.4406 20.1337 61.2607C21.0737 61.0407 21.3636 60.7207 22.3136 60.6207C24.3236 60.3907 26.8435 60.0107 28.3035 61.0107C28.5835 61.2107 28.8135 61.3406 29.1135 61.5506C30.4034 62.4706 29.3934 62.9906 33.1334 62.7506C34.9233 62.6406 34.4833 63.1306 35.4233 63.0406C36.3533 62.1606 35.9133 62.7606 36.5833 61.7306C36.9533 61.1507 37.6032 61.0407 37.6832 60.2707C37.7732 59.4307 37.8932 58.9307 37.9632 58.1707C38.0232 57.4207 37.8432 56.4808 38.1432 55.8908C38.3932 55.4008 38.3632 55.6408 38.5032 55.0408C38.9232 53.2109 39.1032 54.1508 38.9132 51.8009C38.8332 50.9309 38.6532 50.2009 38.8632 49.4209C39.0732 48.611 39.5032 48.591 39.5132 47.611C39.5832 46.011 39.1332 46.031 39.4432 42.8611C39.6132 41.0512 39.4232 39.6412 39.1032 37.8612C38.6532 35.3713 37.2333 35.8913 37.4133 31.6014C37.4332 31.1514 37.4432 30.8414 37.5232 30.4214C37.6232 29.9514 37.7432 29.8014 37.7332 29.3314C35.0633 27.1615 27.8735 26.3215 26.8735 20.0317C26.8135 19.6817 26.7335 19.1317 26.4835 18.9517C25.6335 18.4417 24.1336 19.6617 23.0836 19.7417C20.3837 19.9417 17.2037 20.1217 14.5138 20.0817C13.8938 20.0717 13.2638 19.9417 12.8439 20.3017C12.2639 20.8117 12.4039 20.9816 12.6139 21.9116C12.9639 23.4616 13.4538 23.7416 14.1738 24.7816C16.2538 27.7815 16.2038 27.5915 17.0838 30.9414C18.2337 35.3513 18.8937 37.6812 19.4037 42.4611C19.4937 43.2911 19.9437 45.901 19.8437 46.551L18.7937 49.7609C17.8937 51.9409 17.5737 50.3709 16.0538 55.5208C15.6838 56.7708 16.2238 58.3307 16.7138 59.2607C16.9638 59.7407 17.9637 61.7706 18.3437 62.0906Z"
            fill="#F6AFCE" stroke="#FEFEFE" stroke-width="0.677283" />
        <path fill-rule="evenodd" clip-rule="evenodd" class="state-map-path" id="ebonyi_state_tsXPCzmuW"
            d="M51.943 50.9609C53.5029 52.9009 54.0629 55.8208 53.4329 57.9107C53.1329 58.9007 52.7929 60.3107 52.3729 61.2307C52.2629 61.4806 52.103 61.7806 52.033 61.9706C51.873 62.3906 51.943 62.6506 51.783 62.8606C51.893 64.2606 51.963 65.3406 53.7929 65.5305C54.4129 65.5905 55.2529 65.4905 55.8229 65.6005C56.2328 65.6905 57.0628 66.0005 57.5928 66.1405C58.0328 66.2505 58.9428 66.6305 59.2828 66.6705C59.6428 66.7005 60.8827 66.3105 61.2727 66.1805C61.9327 65.9705 62.2427 65.5905 62.7627 65.3506C63.3827 65.0606 63.9027 64.7706 64.7226 64.8806C64.8526 64.5106 65.2226 65.1506 65.9826 65.2106C67.5326 65.3306 69.5825 64.3406 70.8525 63.5606C71.3125 63.2806 71.6325 63.0306 72.1025 62.7306C72.5024 62.4706 73.0524 62.2506 73.6124 62.0406C77.0523 60.7407 76.5523 62.0206 78.3323 60.3107C78.7323 59.9207 78.9123 59.5807 79.5123 59.3007C80.0223 59.0607 80.5422 58.9307 81.2522 58.9207C82.4122 58.9007 82.5222 59.8907 83.0222 61.3906C83.4922 62.7906 82.9722 63.3206 85.3221 63.3506C85.6721 63.3606 85.8721 63.4306 86.1321 63.5506C86.4921 63.7106 86.6021 63.7206 86.7321 64.0706C87.2121 63.5406 87.2421 62.7406 87.5621 62.0406C87.8021 61.5006 88.782 60.9307 89.202 60.6007C91.952 58.4507 90.242 58.4907 91.202 56.7408C91.962 55.3608 92.6819 53.9908 91.362 52.4809C90.582 51.5809 88.702 51.4909 89.082 48.871C89.092 48.401 88.962 47.821 89.042 47.321C89.132 46.781 89.292 46.781 89.052 45.881C88.4221 46.011 87.9721 46.351 87.6321 46.671C87.3321 46.941 87.4021 47.031 87.1321 47.301C86.2921 48.161 84.3822 47.771 82.9222 47.731C82.1422 47.711 81.6322 47.901 80.9122 47.981C79.8423 48.111 76.3124 48.681 75.5624 49.151C74.8924 49.5609 74.5624 49.4009 73.7324 49.5809C73.2224 49.6909 72.6324 49.8909 72.1425 50.0909C69.2425 51.2509 71.2725 50.5509 68.8825 50.9609C68.0026 51.1009 67.6726 51.1709 66.9626 50.8909C66.4626 50.6909 66.2426 50.2209 65.9526 49.8509C65.0726 48.711 64.9626 48.381 64.8126 46.621C64.4126 46.691 64.2227 46.811 63.9127 46.891C63.4927 47.001 63.4127 47.001 63.0627 47.121C62.1027 47.451 62.4627 47.371 62.1427 48.221L61.5127 49.6709C61.3627 50.0009 61.3827 50.0809 61.0527 50.2309C60.3327 50.5609 58.0728 50.1409 57.0228 49.6809C56.9928 49.6709 56.9628 49.6609 56.9428 49.6509C56.9228 49.6409 56.8928 49.6209 56.8628 49.6109L56.2028 49.2709C55.9729 49.111 55.8129 49.001 55.5929 48.991C55.1929 48.971 54.3429 49.2009 53.8029 49.2809C53.5229 49.7609 53.8529 49.4109 53.4229 49.7609L52.5629 50.7009C52.3829 50.8709 52.3229 50.9409 51.943 50.9609Z"
            fill="#9DD3AF" stroke="#FEFEFE" stroke-width="0.677283" />
        <path fill-rule="evenodd" clip-rule="evenodd" class="state-map-path" id="ebonyi_state_C6LS4Svxw"
            d="M64.7226 64.8806C64.7526 66.9805 65.1526 66.3505 64.1627 68.8705C63.5627 70.3904 63.2827 70.9804 62.2527 71.8704C60.9027 73.0504 60.4028 73.3704 58.8528 73.4803C57.3628 73.5903 55.5629 73.2104 54.3929 73.8403C54.3929 75.4603 56.0829 75.2103 56.7328 76.3503C56.6028 76.7703 55.9929 77.6102 55.6429 78.0002C54.1529 79.6502 51.123 79.2502 50.573 81.3502C50.603 81.5601 50.573 81.6601 50.823 81.9101L51.203 82.2101C51.213 82.2201 51.243 82.2401 51.263 82.2501L52.5329 82.9501C53.9629 83.4501 52.7629 83.1901 53.7529 83.5201L54.6329 83.9801C54.6529 84.0001 54.7429 84.0701 54.7629 84.0801L54.9429 84.5501C55.7229 83.9601 56.8628 84.4801 57.5028 84.8301C58.2628 85.2401 58.8528 85.73 59.4228 86.51C59.6728 86.85 59.8828 87.19 60.1228 87.53C60.2728 87.73 60.3928 87.8 60.5328 88.03C61.1627 89.1 61.4027 90.4099 62.0027 91.2199C62.8527 90.9699 64.9026 88.83 65.6926 88.16C66.4426 87.52 67.2926 87.85 68.0526 87.13C69.9325 85.3601 69.8025 85.3001 71.1425 83.6801C71.4425 83.3201 72.4125 82.4001 73.0824 82.3401C73.6124 82.2901 73.8524 82.4801 74.5024 82.2401C74.9424 82.0701 75.2924 81.7501 75.6924 81.8601C76.6024 82.1001 76.3324 83.1201 77.1723 83.7901C77.8023 83.8601 78.4723 83.6901 78.9123 83.4201C80.4123 82.4601 79.8423 80.4202 79.9623 78.6302C80.0623 77.2903 80.8223 76.5503 80.7723 75.5103C80.7423 74.9503 80.5823 74.0303 80.6723 73.5203C80.8123 72.6904 80.9022 72.7704 80.8922 71.7504C82.0522 70.6004 81.9722 71.4104 82.4122 69.9604C82.7422 68.8705 83.6222 69.1005 83.9822 68.1505C84.4322 66.9205 84.3322 66.9105 85.1621 65.9905C85.6821 65.4105 86.4521 64.7606 86.7321 64.0706C86.6021 63.7206 86.4921 63.7106 86.1321 63.5506C85.8721 63.4306 85.6721 63.3606 85.3221 63.3506C82.9722 63.3206 83.4922 62.7906 83.0222 61.3906C82.5222 59.8907 82.4122 58.9007 81.2522 58.9207C80.5423 58.9307 80.0223 59.0607 79.5123 59.3007C78.9123 59.5807 78.7323 59.9207 78.3323 60.3107C76.5524 62.0206 77.0523 60.7407 73.6124 62.0406C73.0524 62.2506 72.5025 62.4706 72.1025 62.7306C71.6325 63.0306 71.3125 63.2806 70.8525 63.5606C69.5825 64.3406 67.5326 65.3305 65.9826 65.2106C65.2226 65.1506 64.8526 64.5106 64.7226 64.8806Z"
            fill="#F6AFCE" stroke="#FEFEFE" stroke-width="0.677283" />
        <path fill-rule="evenodd" clip-rule="evenodd" class="state-map-path" id="ebonyi_state_KqErjI40y"
            d="M37.7331 29.3314C37.7431 29.8014 37.6231 29.9514 37.5231 30.4214C37.4431 30.8414 37.4331 31.1514 37.4131 31.6014C37.2331 35.8913 38.6531 35.3713 39.1031 37.8612C39.4231 39.6412 39.6131 41.0512 39.4431 42.8611C39.1331 46.031 39.5831 46.011 39.5131 47.611C41.653 47.091 40.9931 46.591 41.963 46.221C43.363 45.701 45.9429 45.751 46.7429 46.511C47.8529 47.581 47.9529 48.061 49.1129 48.901L49.7428 49.4209C49.6428 48.291 49.6928 47.461 50.0628 46.661L51.1128 44.6111C51.4028 43.9611 51.1828 42.5911 51.2528 41.7711C51.3428 40.8312 51.8928 39.6012 52.2828 38.2112C52.3928 37.8312 52.5328 37.4612 52.6428 37.0513C52.8728 36.2113 53.0228 35.4213 53.2827 34.6413C53.3927 34.2913 53.5727 33.8213 53.6627 33.4913C53.9627 32.4414 53.2527 32.9814 54.4127 31.1814C54.9027 30.4214 54.7027 30.3514 55.2427 29.5714C55.2627 29.5514 55.2827 29.5314 55.2927 29.5114L55.5027 29.1714C55.5127 29.1514 55.5327 29.1214 55.5527 29.1014C57.0127 26.9915 56.0627 23.8116 55.6627 20.9916C55.5727 20.3717 55.4027 20.1817 55.2627 19.7517C54.9827 18.8917 55.2027 17.6717 54.7627 16.9417C53.7227 15.1818 53.5627 13.8718 53.1727 11.8819C52.9828 10.9219 52.8528 10.8719 52.5428 9.06194C51.8628 8.82195 49.9528 9.67193 48.5029 9.50193C46.0629 9.22194 44.103 8.82195 43.363 10.8419C42.263 13.8018 42.953 14.6318 43.073 16.9217C43.153 18.5717 43.603 19.6817 43.133 21.1216C42.753 22.2916 42.493 23.4016 42.123 24.5716C41.933 25.1615 41.303 27.7915 41.093 28.0215C40.8831 28.2315 40.7831 28.1715 40.4831 28.5415C40.3431 28.6915 40.0631 29.1114 39.9031 29.2014C39.4831 29.4114 38.2031 29.4014 37.7331 29.3314Z"
            fill="#9DD3AF" stroke="#FEFEFE" stroke-width="0.677283" />
        <path fill-rule="evenodd" clip-rule="evenodd" class="state-map-path" id="ebonyi_state_ScyJpt7se"
            d="M18.3437 62.0906C18.5837 62.7406 19.0137 63.1406 19.2237 63.8206C19.8437 65.8505 20.3537 68.4105 20.0337 70.4904C19.6537 72.9704 19.3437 76.1403 18.3237 78.4702C18.3737 79.0502 18.6437 79.0002 19.9737 79.0902C20.6437 79.1402 21.3537 79.1902 21.9936 79.1902C23.5436 79.2102 29.2335 80.2802 30.8934 80.7602C31.8834 81.0502 31.3034 81.3002 34.0133 81.9201C35.0333 82.1501 35.9833 82.8301 36.7433 83.5301C37.1533 83.9101 37.5833 84.1001 37.9932 84.5201C40.1232 86.66 40.5032 86.19 42.0331 89.49C42.0531 89.51 42.0931 89.5 42.1031 89.53C42.1731 89.6999 42.8931 89.7499 43.4631 89.55C44.3631 89.24 45.7431 88.35 46.073 88.38C46.463 88.41 46.603 88.78 47.563 88.81C47.753 87.93 47.973 87.75 48.883 87.37C49.483 87.11 50.8729 86.16 52.6929 85.3801C53.3529 85.0901 54.4028 84.8201 54.9428 84.5501L54.7628 84.0801C54.7428 84.0701 54.6528 84.0001 54.6328 83.9801L53.7529 83.5201C52.7629 83.1901 53.9629 83.4501 52.5329 82.9501L51.2629 82.2501C51.2429 82.2401 51.2129 82.2201 51.2029 82.2101L50.8229 81.9101C50.5729 81.6601 50.6029 81.5601 50.5729 81.3502L50.2829 81.4202C50.0529 81.0702 49.573 80.4102 49.303 80.1202C49.093 79.8902 48.903 79.7602 48.713 79.5802C48.483 79.3402 48.453 79.2602 48.103 79.0702C47.443 78.7102 47.173 78.6902 46.333 78.9302C45.7631 79.0902 45.2031 79.2902 44.6831 79.5302C44.1331 79.7802 43.5831 80.0502 43.1631 80.3202C42.7531 80.5902 42.1631 80.9902 41.8132 81.1502C41.0432 81.5002 40.7932 81.5302 40.0932 81.2502C39.3332 80.9502 39.3932 80.8502 39.0832 80.0802C37.9932 77.3703 38.9132 72.8504 38.4432 71.8804L37.4133 70.6404C35.9033 68.8505 34.8633 69.1305 35.3533 67.4405C35.4933 66.9505 35.3833 67.0705 35.6633 66.7705C35.4233 66.7205 35.6033 66.8305 35.4533 66.6605C36.0033 66.0205 35.9733 64.1806 35.2333 63.2606L35.4233 63.0406C34.4833 63.1306 34.9233 62.6406 33.1334 62.7506C29.3935 62.9906 30.4034 62.4706 29.1135 61.5506C28.8135 61.3406 28.5835 61.2107 28.3035 61.0107C26.8435 60.0107 24.3236 60.3907 22.3136 60.6207C21.3637 60.7207 21.0737 61.0407 20.1337 61.2607C19.3637 61.4406 18.2537 61.6406 18.3437 62.0906Z"
            fill="#9DD3AF" stroke="#FEFEFE" stroke-width="0.677283" />
        <path fill-rule="evenodd" clip-rule="evenodd" class="state-map-path" id="ebonyi_state_KQgMhUyfA"
            d="M52.5429 9.06194C52.8529 10.8719 52.9829 10.9219 53.1729 11.8819C53.5629 13.8718 53.7229 15.1818 54.7629 16.9417C55.2029 17.6717 54.9829 18.8917 55.2629 19.7517C55.4029 20.1817 55.5729 20.3717 55.6629 20.9916C56.0629 23.8116 57.0128 26.9915 55.5529 29.1014C55.5329 29.1214 55.5129 29.1514 55.5029 29.1714L55.2929 29.5114C55.2829 29.5314 55.2629 29.5514 55.2429 29.5714C54.7029 30.3514 54.9029 30.4214 54.4129 31.1814C53.2529 32.9813 53.9629 32.4414 53.6629 33.4913C53.5729 33.8213 53.3929 34.2913 53.2829 34.6413C53.0229 35.4213 52.8729 36.2113 52.6429 37.0512C52.5329 37.4612 52.3929 37.8312 52.2829 38.2112C51.893 39.6012 51.343 40.8312 51.253 41.7711C51.183 42.5911 51.403 43.9611 51.113 44.6111L50.063 46.661C49.693 47.461 49.643 48.291 49.743 49.4209C50.063 49.5809 49.923 49.5709 50.133 49.8009C50.283 49.9609 50.493 50.1209 50.693 50.2609C50.963 50.4509 51.583 50.8209 51.943 50.9609C52.3229 50.9409 52.3829 50.8709 52.5629 50.7009L53.4229 49.7609C53.8529 49.4109 53.5229 49.7609 53.8029 49.2809C54.3429 49.2009 55.1929 48.971 55.5929 48.991C55.8129 49.001 55.9729 49.111 56.2029 49.2709L56.8628 49.6109C56.8928 49.6209 56.9228 49.6409 56.9428 49.6509C56.9628 49.6609 56.9928 49.6709 57.0228 49.6809C58.0728 50.1409 60.3327 50.5609 61.0527 50.2309C61.3827 50.0809 61.3627 50.0009 61.5127 49.6709L62.1427 48.221C62.4627 47.371 62.1027 47.451 63.0627 47.121C63.4127 47.001 63.4927 47.001 63.9127 46.891C64.2227 46.811 64.4126 46.691 64.8126 46.621C64.9626 45.931 64.5126 41.8511 64.3127 41.2511C63.8827 39.9512 63.9727 39.7312 63.4027 39.1012L63.1427 38.5812C62.6427 36.4613 62.7027 38.2012 63.0027 36.2613C63.0327 36.1013 63.0527 35.9313 63.0727 35.7013C63.2327 33.9013 62.5127 33.0013 62.7027 31.7814C62.8327 30.9714 63.1927 31.2314 62.8227 29.3714C62.7027 28.7415 62.9027 27.5115 63.1227 27.0815C63.3427 26.6415 63.4927 26.7115 63.5427 26.0815C63.6027 25.3815 63.7327 25.4815 63.7227 24.8316C63.7127 23.9316 63.5027 22.9316 63.4427 22.0116C63.3927 21.2616 63.5027 21.1616 63.5827 20.7217C63.7727 19.6417 63.2827 18.8117 63.2227 18.1817L62.8127 12.4119C62.7427 11.5619 62.6427 11.8419 62.5427 11.2919C62.3527 10.2319 62.5627 9.68193 62.0727 8.74195L60.8727 7.43198C60.8527 7.42198 60.7227 7.37198 60.6927 7.36198C60.6027 6.712 60.4727 6.552 60.2428 5.97202C59.9828 5.29203 59.7628 5.22204 59.6128 4.84204C57.2828 9.92192 58.3928 9.32193 52.5429 9.06194Z"
            fill="#91D8F7" stroke="#FEFEFE" stroke-width="0.677283" />
        <path fill-rule="evenodd" clip-rule="evenodd" class="state-map-path" id="ebonyi_state_OjbambbRo"
            d="M22.1935 95.9398C22.0735 96.8898 22.0535 97.1398 21.7835 97.5598L20.9735 98.6597C20.8435 98.8597 20.7236 99.0297 20.5836 99.2697L20.2536 99.9397C20.0036 100.41 19.6036 101.06 19.4836 101.53L19.0436 103.47C19.0036 103.94 19.0036 103.8 18.9236 104.2C18.7736 105.03 18.8936 104.58 18.3736 105.5C18.1536 105.88 18.3536 105.56 18.1436 105.82C17.9336 106.1 17.8036 106.37 17.4736 106.5C17.6336 107.18 17.3736 106.7 17.9136 106.94L17.5736 107C18.4236 107.18 23.2235 107.41 24.5835 107.4C25.0134 107.4 25.3334 107.29 25.7034 107.3C26.0834 107.32 26.9534 107.69 27.3734 107.82C28.3834 108.129 28.0434 107.91 28.6234 108.819C29.3633 110.009 28.9733 111.979 30.4233 114.079C30.7033 114.499 31.3433 114.779 31.6833 115.069C32.2733 115.579 32.0633 115.809 32.8633 116.149C34.5432 116.849 33.4332 116.919 35.4532 118.029C37.0132 118.889 38.6031 119.469 40.2531 119.989C40.2131 118.879 39.9431 119.099 39.8031 118.299C41.623 116.959 42.473 115.659 42.483 113.299C41.803 113.169 41.753 113.279 41.283 112.869C40.6531 112.329 39.9031 111.179 39.7331 111.009L39.4631 110.689C38.7531 109.519 38.7331 108.729 38.5931 107.37C38.2131 103.76 40.3531 102.25 36.9132 102.56C36.7532 101.99 36.5932 101.71 36.5332 101.07C36.4932 100.57 36.5132 99.9597 36.4432 99.4797C36.3232 98.6897 35.8232 98.5597 35.6732 97.8398C34.8532 94.0598 36.0332 92.3699 35.6332 91.6499C34.7732 91.8299 33.2332 91.2399 32.5533 90.9399C31.3333 90.4199 30.4433 89.8299 30.0633 90.8799L30.5033 91.4699C30.2233 91.5699 30.0633 91.6599 29.8733 91.8599C29.6833 92.0599 29.7433 91.9899 29.6433 92.1999C29.4333 92.6599 29.8133 91.7699 29.5833 92.3699C29.5733 92.3899 29.5533 92.4799 29.5533 92.4599C29.5433 92.4499 29.5333 92.5299 29.5133 92.5599C28.7034 92.5199 28.8634 92.5699 28.3434 92.1499C27.0734 91.0999 26.1034 93.1599 25.7334 93.4599C25.3834 93.7499 25.0234 93.7499 24.7135 94.0598C24.3435 94.4198 24.4935 94.5498 23.9835 94.8098C22.0835 95.7998 23.1835 95.3098 22.3935 95.8498C22.2035 95.9798 22.3935 95.8798 22.1935 95.9398Z"
            fill="#F6AFCE" stroke="#FEFEFE" stroke-width="0.677283" />
        <path fill-rule="evenodd" clip-rule="evenodd" class="state-map-path" id="ebonyi_state_dOHN2fgqG"
            d="M35.6634 66.7705C35.3834 67.0705 35.4934 66.9505 35.3534 67.4405C34.8634 69.1305 35.9034 68.8505 37.4134 70.6404L38.4433 71.8804C38.9133 72.8504 37.9933 77.3703 39.0833 80.0802C39.3933 80.8502 39.3333 80.9502 40.0933 81.2502C40.7933 81.5301 41.0433 81.5002 41.8133 81.1502C42.1632 80.9902 42.7532 80.5902 43.1632 80.3202C43.5832 80.0502 44.1332 79.7802 44.6832 79.5302C45.2032 79.2902 45.7632 79.0902 46.3331 78.9302C47.1731 78.6902 47.4431 78.7102 48.1031 79.0702C48.4531 79.2602 48.4831 79.3402 48.7131 79.5802C48.9031 79.7602 49.0931 79.8902 49.3031 80.1202C49.5731 80.4102 50.053 81.0702 50.283 81.4202L50.573 81.3502C51.123 79.2502 54.1529 79.6502 55.6429 78.0002C55.9929 77.6102 56.6029 76.7703 56.7329 76.3503C56.0829 75.2103 54.3929 75.4603 54.3929 73.8403C55.5629 73.2104 57.3629 73.5903 58.8528 73.4803C60.4028 73.3704 60.9028 73.0504 62.2527 71.8704C63.2827 70.9804 63.5627 70.3904 64.1627 68.8705C65.1527 66.3505 64.7527 66.9805 64.7227 64.8806C63.9027 64.7706 63.3827 65.0606 62.7627 65.3505C62.2427 65.5905 61.9328 65.9705 61.2728 66.1805C60.8828 66.3105 59.6428 66.7005 59.2828 66.6705C58.9428 66.6305 58.0328 66.2505 57.5929 66.1405C57.0629 66.0005 56.2329 65.6905 55.8229 65.6005C55.2529 65.4905 54.4129 65.5905 53.793 65.5305C51.963 65.3405 51.893 64.2606 51.783 62.8606C51.133 62.9106 50.573 63.0406 49.9331 63.1206C48.2531 63.3206 47.2431 64.7206 46.1531 65.5505C46.1631 66.5405 46.3231 67.0605 46.2831 68.1005C46.1831 70.2304 43.8732 70.7804 43.1532 70.3504C42.4732 69.9504 42.8732 68.9005 42.3932 68.3105C41.4833 67.9705 41.2633 68.9105 40.5233 68.5205C39.5733 68.0205 39.5833 65.6505 35.6634 66.7705Z"
            fill="#91D8F7" stroke="#FEFEFE" stroke-width="0.677283" />
        <path fill-rule="evenodd" clip-rule="evenodd" class="state-map-path" id="ebonyi_state_Blzq5WpHE"
            d="M18.0138 95.5298C17.8938 95.7098 18.0138 95.5998 17.7738 95.7798C17.6738 95.8498 17.5138 95.8998 17.5038 95.8998L19.1138 96.0398C19.6638 95.4698 19.6638 95.4398 19.9538 94.8998C20.5238 94.9198 20.9138 95.0998 21.3038 95.2498C22.0337 95.5198 21.9437 95.2498 22.1937 95.9398C22.3937 95.8798 22.2037 95.9798 22.3937 95.8498C23.1837 95.3098 22.0837 95.7998 23.9837 94.8098C24.4937 94.5498 24.3437 94.4198 24.7137 94.0598C25.0237 93.7499 25.3837 93.7499 25.7336 93.4599C26.1036 93.1599 27.0736 91.0999 28.3436 92.1499C28.8636 92.5699 28.7036 92.5199 29.5136 92.5599C29.5336 92.5299 29.5436 92.4499 29.5536 92.4599C29.5536 92.4799 29.5736 92.3899 29.5835 92.3699C29.8135 91.7699 29.4336 92.6599 29.6435 92.1999C29.7435 91.9899 29.6835 92.0599 29.8735 91.8599C30.0635 91.6599 30.2235 91.5699 30.5035 91.4699L30.0635 90.8799C30.4435 89.8299 31.3335 90.4199 32.5535 90.9399C33.2335 91.2399 34.7734 91.8299 35.6334 91.6499C36.7634 91.1799 36.1334 90.7699 37.8733 90.4499C38.9633 90.2599 40.0233 90.2399 41.1333 90.0999C41.2933 89.79 41.3633 89.51 41.5433 89.2C41.5633 89.21 41.6033 89.21 41.6133 89.24C41.6633 89.39 41.9032 89.49 42.0332 89.49C40.5033 86.19 40.1233 86.66 37.9933 84.5201C37.5834 84.1001 37.1534 83.9101 36.7434 83.5301C35.9834 82.8301 35.0334 82.1501 34.0134 81.9201C31.3035 81.3002 31.8835 81.0502 30.8935 80.7602C29.2336 80.2802 23.5437 79.2102 21.9937 79.1902C21.3538 79.1902 20.6438 79.1402 19.9738 79.0902C18.6438 79.0002 18.3738 79.0502 18.3238 78.4702C18.3138 78.4902 18.2838 78.5002 18.2738 78.5402L17.3739 79.3602C16.0839 80.3702 14.1539 80.5802 13.6039 81.2902C13.4739 81.4702 13.214 82.4101 13.164 82.6501C12.954 83.7601 13.9539 85.88 14.5939 86.87C15.1239 87.69 16.4139 88.31 17.3939 89.53C18.2038 90.5399 18.8838 90.3499 19.2338 93.3199C19.2638 93.6199 18.9538 94.1498 18.8038 94.4798C18.2438 95.6898 18.3638 95.1098 18.0138 95.5298Z"
            fill="#D2E28B" stroke="#FEFEFE" stroke-width="0.677283" />
        <path fill-rule="evenodd" clip-rule="evenodd" class="state-map-path" id="ebonyi_state_g0bmPQoNE"
            d="M39.5133 47.611C39.5033 48.591 39.0733 48.611 38.8633 49.4209C38.6533 50.2009 38.8333 50.9309 38.9133 51.8009C39.1033 54.1508 38.9233 53.2109 38.5033 55.0408C38.3633 55.6408 38.3933 55.4008 38.1433 55.8908C37.8433 56.4808 38.0233 57.4207 37.9633 58.1707C37.8933 58.9307 37.7733 59.4307 37.6833 60.2707C37.6033 61.0407 36.9534 61.1507 36.5834 61.7306C35.9134 62.7606 36.3534 62.1606 35.4234 63.0406L35.2334 63.2606C35.9734 64.1806 36.0034 66.0205 35.4534 66.6605C35.6034 66.8305 35.4234 66.7205 35.6634 66.7705C39.5833 65.6505 39.5733 68.0205 40.5233 68.5205C41.2632 68.9105 41.4832 67.9705 42.3932 68.3105C42.8732 68.9005 42.4732 69.9504 43.1532 70.3504C43.8732 70.7804 46.1831 70.2304 46.2831 68.1005C46.3231 67.0605 46.1631 66.5405 46.1531 65.5505C47.2431 64.7206 48.2531 63.3206 49.933 63.1206C50.573 63.0406 51.133 62.9106 51.783 62.8606C51.943 62.6506 51.873 62.3906 52.033 61.9706C52.103 61.7806 52.263 61.4806 52.373 61.2307C52.793 60.3107 53.133 58.9007 53.4329 57.9107C53.8929 56.3808 53.5929 57.1608 53.8029 56.0408L53.6429 55.9308C53.103 55.4108 53.7229 56.2408 53.4829 55.7408C53.323 55.3908 53.5729 54.9008 53.5729 54.8708C53.7329 54.0508 53.4929 54.9108 53.4829 54.2108C53.4329 52.0209 52.753 51.9709 51.943 50.9609C51.583 50.8209 50.963 50.4509 50.693 50.2609C50.493 50.1209 50.283 49.9609 50.133 49.8009C49.923 49.5709 50.063 49.5809 49.743 49.4209L49.1131 48.901C47.9531 48.061 47.8531 47.581 46.7431 46.511C45.9431 45.751 43.3632 45.701 41.9632 46.221C40.9933 46.591 41.6532 47.091 39.5133 47.611Z"
            fill="#FDD1A1" stroke="#FEFEFE" stroke-width="0.677283" />
        <path fill-rule="evenodd" clip-rule="evenodd" class="state-map-path" id="ebonyi_state_MzhTlrOPI"
            d="M17.5737 107L17.9137 106.94C17.3737 106.7 17.6337 107.18 17.4737 106.5C17.8037 106.37 17.9337 106.1 18.1437 105.82C18.3537 105.56 18.1537 105.88 18.3737 105.5C18.8937 104.58 18.7737 105.03 18.9237 104.2C19.0037 103.8 19.0037 103.94 19.0437 103.47L19.4837 101.53C19.6037 101.06 20.0037 100.41 20.2537 99.9397L20.5837 99.2697C20.7237 99.0297 20.8437 98.8597 20.9737 98.6597L21.7836 97.5598C22.0536 97.1398 22.0736 96.8898 22.1936 95.9398C21.9436 95.2498 22.0336 95.5198 21.3036 95.2498C20.9137 95.0998 20.5237 94.9198 19.9537 94.8998C19.6637 95.4398 19.6637 95.4698 19.1137 96.0398L17.5037 95.8998C17.5137 95.8998 17.6737 95.8498 17.7737 95.7798C18.0137 95.5998 17.8937 95.7098 18.0137 95.5298C16.5338 96.0698 17.1037 95.7598 15.7638 95.6098C15.2838 95.5498 14.8338 95.6098 14.3838 95.5698C13.9238 95.5398 13.6438 95.3498 13.2238 95.2098C10.8139 94.3798 6.664 93.0999 4.56406 92.2699C3.30409 91.7699 2.59411 90.0999 1.13414 89.6199C1.42413 90.2699 1.80412 90.6999 1.88412 91.3399C1.96412 91.9599 1.99412 93.0699 2.01412 93.7098C2.04412 94.8198 1.56413 96.3498 1.33414 97.4298C1.22414 97.9397 0.964145 98.7697 1.00414 99.1997C1.06414 99.9697 1.33414 100.49 1.22414 101.25C1.09414 102.09 1.04414 104.76 1.70413 105.24C2.10412 105.53 2.7041 105.8 3.37409 105.73C4.82405 105.57 4.28406 105.75 5.41404 105.98C6.00402 106.1 6.61401 106.2 7.23399 106.32C7.96397 106.45 8.33396 106.71 9.01395 106.82C11.4039 107.23 14.9638 106.98 17.5737 107Z"
            fill="#9DD3AF" stroke="#FEFEFE" stroke-width="0.677283" />
        <path fill-rule="evenodd" clip-rule="evenodd" class="state-map-path" id="ebonyi_state_Yfnevkxho"
            d="M42.0331 89.49C41.9031 89.49 41.6631 89.39 41.6131 89.24C41.6031 89.21 41.5631 89.21 41.5431 89.2C41.3631 89.51 41.2931 89.7899 41.1331 90.0999C40.0231 90.2399 38.9632 90.2599 37.8732 90.4499C36.1332 90.7699 36.7632 91.1799 35.6332 91.6499C36.0332 92.3699 34.8533 94.0598 35.6732 97.8397C35.8232 98.5597 36.3232 98.6897 36.4432 99.4797C36.5132 99.9597 36.4932 100.57 36.5332 101.07C36.5932 101.71 36.7532 101.99 36.9132 102.56C40.3531 102.25 38.2132 103.76 38.5932 107.37C38.7332 108.729 38.7532 109.519 39.4631 110.689L39.7331 111.009C39.9031 111.179 40.6531 112.329 41.2831 112.869C41.7531 113.279 41.8031 113.169 42.4831 113.299C42.6131 113.019 42.5931 112.779 42.7031 112.449L43.183 111.709C43.363 111.539 43.663 111.369 43.843 111.229C44.113 111.019 44.293 110.809 44.543 110.679C47.3729 109.239 46.453 110.669 48.1129 110.479C47.6329 109.939 47.4029 109.599 46.793 108.939C45.983 108.059 44.703 106.56 44.093 105.58C43.393 104.42 44.443 103.39 45.583 102.91C46.183 102.66 46.293 102.91 46.573 102.59C46.873 102.25 47.2829 100.88 47.3129 100.37L50.8629 97.3498L48.2229 93.0699C48.1329 92.2599 48.4129 92.1699 48.8329 91.7799C48.6229 90.4499 47.5529 90.1699 47.5629 88.81C46.603 88.78 46.463 88.41 46.073 88.38C45.743 88.35 44.363 89.24 43.463 89.55C42.8931 89.7499 42.1731 89.6999 42.1031 89.53C42.0931 89.5 42.0531 89.51 42.0331 89.49Z"
            fill="#91D8F7" stroke="#FEFEFE" stroke-width="0.677283" />
    </svg>