<svg viewBox="0 0 118 111" fill="none" xmlns="http://www.w3.org/2000/svg">
        <path fill-rule="evenodd" clip-rule="evenodd" class="state-map-path" id="edo_state_Zom3li9Hp"
            d="M6.94549 57.2494L5.68553 57.1694C5.56553 57.8394 5.67553 57.9394 5.90552 58.3294C6.12551 58.7194 6.24551 59.3594 6.5255 59.7094C6.8355 60.1094 6.8755 60.4693 7.40548 60.8993C7.64548 61.0993 7.97547 61.2493 8.21546 61.4493C8.37546 61.5793 8.61545 61.9893 8.80545 62.2193C9.23544 62.7393 9.10544 63.8793 9.05544 64.5392C8.55545 72.3591 -1.96429 74.609 0.325658 78.0189C0.465654 78.2289 0.325658 78.1689 0.545652 78.4489L1.66562 79.7289C1.67562 79.7389 1.69562 79.7589 1.70562 79.7689C6.49551 84.3788 7.16549 84.0988 12.9453 88.5587C13.1653 88.8286 13.2853 89.1486 13.5353 89.4086C13.8653 89.7386 13.6453 89.7686 13.9953 90.1486C14.4953 90.6786 14.0453 91.0086 15.1353 91.7886C15.3453 91.9386 15.9653 92.5786 16.2253 92.2786C16.3653 91.8786 16.1753 91.1586 16.3453 90.6086C16.5053 90.0986 16.4553 89.6486 16.7653 89.1886C17.1152 88.6786 16.9652 88.4187 17.3452 87.9287C17.7352 87.4287 17.6452 86.8787 18.0152 86.6787C19.1652 86.0787 19.8052 87.6887 21.5051 86.0187L22.3251 84.9287C22.8451 83.9088 23.0551 83.6188 22.4851 82.6088C21.4151 80.6788 26.265 78.9389 27.505 78.5389C27.995 78.4489 28.305 78.5989 28.655 78.3289C28.735 78.2689 28.735 78.2489 28.835 78.1789C29.1649 77.9489 29.1149 78.0689 29.2549 77.6589C29.4349 77.1289 29.9749 76.219 29.7249 75.689C29.6249 75.479 29.3149 75.219 29.2349 74.899C28.185 71.2091 27.905 67.7692 31.3849 65.3292C31.5749 65.1892 31.5249 65.1592 31.7149 65.0192C31.9549 64.8392 32.6649 64.3193 32.6549 63.9793C32.6449 63.7793 32.2849 63.6793 32.1649 63.5193C32.0149 63.2993 32.1949 63.4193 31.9749 63.2293L29.4349 61.2193C29.2049 61.0293 29.1649 60.9893 28.895 60.7993C28.425 60.4893 28.035 59.9894 27.625 59.5994C27.355 59.3394 27.575 59.5694 27.415 59.2394C27.275 58.9694 27.135 58.9794 26.995 58.7094C26.845 58.3894 26.955 58.2294 26.765 57.9094L26.115 57.1094C25.945 56.9494 25.975 57.0794 25.815 56.8594C25.595 56.5294 25.845 56.6294 25.435 56.2794C25.095 55.9895 25.245 55.9795 25.145 55.5295C25.065 55.1695 24.9351 55.1995 24.7451 54.9795C24.4051 54.5895 24.4251 53.3195 24.9151 52.5595C25.585 51.5296 28.095 47.0897 28.445 46.0997C28.615 45.6097 28.605 44.7697 28.525 44.1797C25.685 44.1897 22.7651 44.1597 20.0452 44.3197C18.6352 44.3997 17.2452 44.3297 15.8153 44.3997C15.3453 44.4197 15.2953 44.4397 15.0753 44.7197C15.0053 44.8097 14.9153 44.9397 14.8553 45.0497C14.6953 45.3297 14.9053 45.1697 14.6153 45.3797C12.2754 47.0397 8.61545 55.1595 6.94549 57.2494Z"
            fill="#F6AFCE" />
        <path fill-rule="evenodd" clip-rule="evenodd" class="state-map-path" id="edo_state_DmwJQr7NV"
            d="M63.0841 104.328C62.9841 104.748 62.8741 104.498 62.8741 105.238C62.8641 106.688 61.4641 108.208 61.5941 110.588C62.1541 110.978 62.9441 110.728 63.714 110.708C64.624 110.688 65.224 110.468 65.944 110.488C66.744 110.508 67.174 110.318 68.2639 110.308C72.5038 110.268 74.1638 107.328 76.3837 104.658C76.8637 104.168 77.1437 103.838 77.7237 103.538C81.0736 101.788 85.6835 99.6084 85.4135 94.8585C85.3035 94.7785 85.2535 94.7585 85.1335 94.6785C84.9835 94.5585 84.9635 94.5185 84.8735 94.4585C84.7835 94.3785 84.6835 94.3485 84.5635 94.2885C84.4635 94.2385 84.3835 94.1885 84.2635 94.1185C83.9835 93.9585 83.9235 93.8885 83.6735 93.7385C74.7438 89.0086 75.7537 82.0888 74.0838 80.7489C74.0438 80.7189 74.0238 80.6989 73.9938 80.6689C73.9638 80.6389 73.9438 80.6089 73.9138 80.5889L73.4238 80.1289C70.1439 76.9489 78.0237 67.3392 81.3136 74.229C81.4636 74.549 81.5536 74.579 81.7336 74.849C82.0436 75.299 82.4736 76.779 82.7736 77.1589C83.4836 77.1189 83.8935 76.249 84.3335 75.819L84.8435 75.289C84.9235 75.209 84.9535 75.179 85.0335 75.079L85.7135 74.239C86.6835 73.149 87.3835 72.939 85.7335 71.9691C85.4035 71.7691 85.5735 71.8291 85.3435 71.6391L83.9935 70.7391C83.0236 70.3091 83.3136 69.8791 81.9936 69.7891C81.0336 69.7191 80.3436 69.6191 79.3937 69.9891L78.2037 70.3291C78.0037 70.3991 77.8237 70.4491 77.6537 70.4991C72.8038 71.9291 74.8138 71.9491 70.5539 75.759C70.3839 75.849 70.2039 75.859 70.0139 75.949C69.7939 76.039 69.7639 76.129 69.5039 76.229C69.2039 76.339 68.6339 76.439 68.3339 76.519C67.8439 76.649 67.7739 76.8589 67.6139 77.2789C67.174 78.3989 67.6739 78.2989 66.674 79.3089C66.404 79.5789 65.054 80.0489 64.554 80.1489C63.2241 80.4289 61.6541 80.1089 60.3141 80.2889C59.6041 80.3789 59.6241 80.2689 59.0142 80.5189C58.5642 80.7189 57.3442 81.1788 57.0142 81.4488C56.1142 82.2088 54.1643 81.3088 53.2143 81.8888C52.8343 82.1188 52.6043 82.2088 52.4343 82.6388C52.3143 82.9588 52.4343 82.8788 52.2043 83.1188C51.8343 83.4988 51.8943 83.5388 51.7143 84.0588C50.6144 87.3287 52.1043 88.4587 50.2744 89.3186C49.8444 89.5186 49.6644 89.6486 49.7944 90.1786C53.9643 102.548 64.964 97.0184 63.0841 104.328Z"
            fill="#F6AFCE" />
        <path fill-rule="evenodd" clip-rule="evenodd" class="state-map-path" id="edo_state_Qb1smgB59"
            d="M21.8051 93.8185C21.8251 93.7985 21.8551 93.7485 21.8651 93.7685C21.8651 93.7685 22.1451 93.4985 22.3951 93.4585C22.7451 93.4085 22.5651 93.5985 23.0651 93.4085C23.7551 93.1385 23.7551 93.1885 24.555 93.2485C24.685 93.2585 26.055 93.2685 26.095 93.2485L26.455 93.7285C26.785 93.9785 27.045 94.6685 27.355 95.0685C27.505 95.2585 27.525 95.3785 27.635 95.5685C28.025 95.4485 28.025 95.1385 28.105 94.7885C28.185 94.4385 28.415 94.0885 28.5249 93.8385L29.4649 91.1286C29.5449 90.9186 29.7049 90.6886 29.7549 90.4486C30.3049 88.1387 31.6949 85.6887 32.2949 83.4188L33.1148 80.5589C33.3148 80.1589 36.5448 77.8489 36.8747 77.6089C37.8947 76.8589 40.3847 73.789 40.9646 73.029C41.7646 72.949 41.8946 73.289 42.5346 73.139C42.5746 72.3491 42.4246 68.1992 42.6046 67.8492L42.7546 67.6792C42.8946 67.5692 42.9146 67.5892 42.9446 67.5592C43.2246 67.3292 42.9946 67.5292 43.1746 67.2292C43.3646 66.9292 43.3046 67.0992 43.5346 66.9292C43.7646 66.7592 43.6346 66.8392 43.7346 66.6092C43.9346 66.1692 43.7546 66.4992 44.0646 66.2692C44.3746 66.0392 44.1246 66.1892 44.3146 65.8892C44.4646 65.6492 44.4346 65.7892 44.6546 65.5992C44.8845 65.3992 45.0145 65.1492 45.2345 64.9792C45.6345 64.6392 46.2345 64.3393 46.5945 63.9293C46.8145 63.6793 46.7045 63.8193 46.9545 63.6593C47.2945 63.4393 47.0845 63.4893 47.2445 63.3093C47.4645 63.0593 47.3145 63.2693 47.6045 63.1093C47.7945 63.0093 47.7645 62.9593 47.9445 62.8193L48.6245 62.2893C48.8944 62.1093 49.1344 62.0593 49.4044 61.8793L50.0644 61.2793C50.4444 61.2193 50.5544 61.1693 50.8044 60.9693L51.8444 60.2294C52.1844 60.1094 51.9644 60.2794 52.2144 60.0694L52.5344 59.8294C52.8243 59.6794 52.7144 59.8794 52.8843 59.5994C53.0143 59.3294 53.0143 58.7394 53.1943 58.4094C53.4943 57.8694 53.4843 57.8194 53.5043 57.1094C53.5243 56.7294 53.6543 56.5894 53.7743 56.2795C54.0943 55.4895 53.9343 54.6095 54.2343 54.0995C54.4843 53.6795 54.5643 53.3095 54.6743 52.8595C54.7543 52.4995 54.8643 52.5195 55.0043 52.1496L55.4343 50.9896C55.5943 50.6296 55.4643 50.9596 55.6943 50.6896C55.9743 50.3796 55.7343 50.1996 56.0443 49.9296C56.2743 49.7196 56.6643 49.7596 56.4143 48.2097L56.2543 47.6497C56.2343 47.6297 56.1943 47.5897 56.1743 47.5697C55.2643 46.5197 56.8143 46.6997 54.1343 46.4197C53.1843 46.3197 53.3243 46.0197 51.9444 46.8697C51.5244 47.1297 51.0744 47.2097 50.8044 47.6397C50.6044 47.9497 50.8044 48.1097 50.5644 48.4296C50.3644 48.7296 50.4944 48.4496 50.2144 48.6496C50.0344 48.7796 50.1344 48.7896 49.9344 48.9196L48.0545 49.9996C47.6245 50.2196 47.9145 50.1096 47.7145 50.2896C47.5745 50.4096 47.7345 50.2996 47.5645 50.3796L47.1645 50.5496C46.9145 50.6896 46.4645 51.0296 46.1445 51.0696C45.5945 51.1296 45.5945 50.8796 45.3045 50.6996L43.0746 49.4096C42.4046 49.2196 41.8046 50.0796 41.2546 50.2996L40.4447 50.6896C39.2047 51.2096 39.9247 51.4296 39.5747 52.8495C38.9947 52.9895 38.9247 53.0095 38.4247 52.6995C38.2147 52.5795 38.2347 52.6495 38.0447 52.5595C37.9647 52.3996 37.9247 52.1496 37.8247 52.0296C37.6547 51.7996 37.7647 52.0796 37.1047 51.1596L35.8748 49.4396C35.5548 49.0896 35.4848 48.6596 35.4348 48.7496L34.9948 48.5496C34.2648 48.0697 34.3048 47.2297 34.7748 46.5397C35.0448 46.1497 34.9548 45.9797 35.3548 45.6797C35.6748 45.4597 35.5348 45.5497 35.6948 45.2297L36.2448 45.1797C36.2348 44.7597 36.0948 44.8597 35.8148 44.6197C35.2148 44.1198 35.2248 44.0198 34.4248 44.0398L29.5549 44.1098C29.2449 44.5497 29.3049 45.0597 29.3049 45.7797C29.3049 46.7497 29.4749 46.6297 28.8849 47.3397C28.6549 47.6097 28.8149 47.6197 28.5349 47.9597C27.935 48.6996 28.235 48.7496 27.785 49.1996C27.445 49.5396 27.695 49.5196 27.455 49.9096L26.945 50.8396C26.885 50.9496 26.815 50.9996 26.735 51.1096C26.645 51.2396 26.435 51.5996 26.405 51.7196C26.135 52.6295 26.105 52.2296 25.715 53.0295C25.645 53.1795 25.715 53.0595 25.625 53.1895C25.295 53.6195 25.145 53.7495 25.485 54.3295C25.775 54.8195 25.655 54.4395 25.785 55.0895C25.925 55.7295 26.815 56.4295 27.195 56.9894C27.855 57.9194 27.435 57.2594 27.645 58.0594C27.715 58.3094 27.875 58.3394 28.055 58.6994C28.245 59.1094 29.1249 59.9794 29.5449 60.1694C29.8449 60.3094 29.8949 60.5094 30.3649 60.8493C30.4549 60.9193 30.5449 60.9993 30.6249 61.0693C31.1949 61.5393 31.6149 62.0693 32.2149 62.4893L32.9948 63.1693C33.2748 63.4493 33.9348 63.6593 33.2448 64.7892C33.1148 65.0092 33.0048 65.1392 32.7548 65.2792L31.6449 66.1392C31.5049 66.3092 31.5849 66.2492 31.4249 66.4092L30.7049 67.1992C30.0449 67.8592 29.9049 68.3292 29.6749 69.2291C29.6149 69.4791 29.3749 69.5391 29.3649 70.9191C29.3649 71.5691 29.4249 72.2391 29.5749 72.749C29.6349 72.949 29.7949 73.259 29.8349 73.419C30.0949 74.449 29.6349 73.849 30.3349 74.929C30.6249 75.379 30.7849 75.929 30.6349 76.469C30.5149 76.9289 30.5149 77.6589 30.1849 78.0189L29.7449 78.6189C29.3649 79.0489 29.0449 79.2989 28.435 79.2889C27.685 79.2689 26.915 79.5689 26.345 79.6989C26.155 79.7489 26.135 79.7189 25.955 79.7789C25.575 79.9189 25.265 80.2689 24.955 80.5289L23.9451 81.3088C23.5551 81.4588 23.5951 81.5188 23.3151 81.8388C22.9451 82.2588 23.5151 82.0688 23.5151 83.0488C23.5051 83.4988 23.5351 83.9588 23.5051 84.4188C23.4751 84.9587 23.2751 85.0487 23.0451 85.3187C22.8651 85.5287 22.9451 85.5987 22.8251 85.8187C22.6751 86.0987 22.6551 85.9487 22.4651 86.1787C22.3151 86.3887 22.4151 86.4187 22.2151 86.5687C21.9251 86.7887 22.0251 86.4887 21.7751 86.8387C21.5251 87.1987 21.9151 86.9087 21.4151 87.1987C21.1351 87.3587 21.2051 87.3987 21.0051 87.5187C20.5851 87.7587 19.8652 87.3187 18.4752 87.4687C18.1652 88.1887 18.4752 87.8587 17.9152 88.7387C17.7852 88.9386 17.8152 89.1086 17.5052 89.6786C17.0752 90.4586 17.1552 90.7086 17.1652 91.6686C17.1652 92.1786 17.3152 93.1185 17.0852 93.4885C17.0652 93.4985 17.0352 93.4885 17.0252 93.5185C17.0152 93.5485 16.6652 93.5085 16.3952 94.1385C16.2353 94.5085 15.9953 94.6685 15.9553 95.1085C15.9153 95.7085 15.8953 95.8785 15.7653 96.3885C15.5753 97.1484 15.7253 96.9485 15.9453 97.4584C16.2253 98.1084 16.4552 98.3384 16.5352 98.5484C16.7852 99.2184 16.6552 98.8184 16.9852 99.2084C17.2352 99.4984 17.0252 99.4484 17.2052 99.7084C17.3052 99.8584 17.4252 99.8284 17.5752 100.048L18.1352 100.878C18.5552 100.928 18.5552 100.798 18.7452 100.588L19.8052 99.7284C20.1752 99.5084 19.8952 99.4284 20.3552 99.2384C20.6951 99.0984 21.5251 98.3684 21.6851 98.1084C22.0151 97.5984 22.2951 98.0784 22.2551 97.1984L21.8051 96.8685C21.7851 96.8485 21.7751 96.8285 21.7651 96.8185C21.7551 96.7985 21.7451 96.7785 21.7351 96.7685C21.5551 96.4985 21.8251 96.7285 21.5251 96.5085C21.3151 96.3585 21.3751 96.5885 21.2151 96.2485C21.1151 96.0485 21.1351 95.7385 21.1351 95.4985C21.1351 94.9085 21.1651 95.1685 21.3151 94.8585C21.5051 94.4685 21.3551 93.9285 21.8051 93.8185Z"
            fill="#9DD3AF" />
        <path fill-rule="evenodd" clip-rule="evenodd" class="state-map-path" id="edo_state_TPFG5o6vV"
            d="M57.3643 50.4096C56.0043 51.2596 55.6843 53.9295 54.9943 55.3295C54.9443 55.4395 54.9143 55.4895 54.8843 55.5395C54.6443 55.9595 54.8543 56.3495 54.6643 56.7595C54.5043 57.1194 54.4943 56.8295 54.4243 57.3494C54.3643 57.7594 54.2543 57.7894 54.1943 58.0994C54.1243 58.5094 54.2343 58.4894 54.0743 58.8694C53.9043 59.2894 53.7943 59.8094 53.5443 60.1894C53.3643 60.4694 50.9144 61.8393 50.2144 62.3793C50.0544 62.4993 49.8944 62.6093 49.7044 62.7393L48.1045 63.8593C47.4145 64.4593 45.7945 65.4792 45.3545 66.1192L44.6946 66.9092C44.5146 67.0892 44.5046 67.1892 44.2946 67.3892C43.6946 67.9692 43.3846 68.3492 43.5446 69.2191C44.0246 69.3091 45.0746 69.2791 45.4145 69.5891C45.4245 69.6091 45.4645 69.6591 45.4845 69.6791C45.6245 69.8091 45.4045 69.6591 45.6145 69.7791L46.8245 70.4791C47.5545 70.9891 47.8945 70.6691 47.9045 71.4691L47.9145 72.2691C47.9945 72.6191 48.0745 72.5491 48.1345 72.9891L48.3545 73.929C48.3945 74.139 48.3945 74.129 48.5645 74.249C48.8645 74.479 48.6645 74.209 48.9045 74.559C49.4244 75.299 49.5544 74.669 51.4644 75.419C51.8644 75.569 51.9744 75.479 52.3344 75.759C52.6244 75.989 52.9944 75.989 53.7643 76.639L54.7743 77.2989C54.9543 77.4089 54.9943 77.4489 55.1343 77.5689C55.5143 77.8889 56.2343 78.1489 56.4743 78.5789C56.8343 79.2389 56.0443 79.9689 56.5543 80.5489C57.0243 81.0789 57.3742 80.3789 58.1242 80.2789C58.4742 80.2389 59.1542 79.6789 59.7142 79.5789C60.9842 79.3689 63.0541 79.7989 64.3041 79.4589C64.6941 79.3489 65.4041 78.7989 65.774 78.6289C66.074 78.4889 66.294 78.4689 66.464 78.2289C66.534 78.1389 66.844 77.5089 66.854 77.4389C66.944 76.899 66.754 76.989 67.014 76.469C67.244 76.009 67.284 76.179 67.684 75.919C68.004 75.709 68.344 75.679 68.624 75.429C69.014 75.079 69.8839 75.189 70.4139 74.659L70.4839 74.579C70.4939 74.569 70.5139 74.549 70.5239 74.539C71.1239 73.879 70.9839 73.819 71.8739 73.0791C72.0939 72.8991 72.0439 72.8591 72.2839 72.6891L72.6539 72.4491C72.6739 72.4291 72.6839 72.4191 72.6939 72.3991L73.0739 72.0591C73.5838 71.6391 74.3238 70.6891 74.8738 70.2691C75.4438 69.8291 76.0838 70.3591 76.0438 69.1691C76.0238 68.6992 75.9138 68.6092 75.6838 68.3692C75.6738 68.3592 75.6538 68.3392 75.6438 68.3292C75.3238 67.9992 74.8938 67.3092 74.6438 67.1092C74.2838 66.8292 74.4938 66.8292 74.0838 66.4592C73.7338 66.1392 73.4839 65.3792 73.2839 64.9293L72.8439 64.1693C72.7039 63.8593 72.7039 63.5493 72.5439 63.2793L72.3639 62.9793C71.8639 62.0093 71.9339 58.1694 72.2039 57.4694C72.3339 57.1094 72.6039 56.6395 72.7039 56.2295C72.7339 56.0995 72.7139 56.1595 72.7639 56.0395C73.0339 55.2795 73.2839 54.3295 72.8039 53.5195C72.5839 53.1395 72.4339 53.4495 72.4239 52.7296C72.4139 51.9596 71.9539 51.7096 71.9139 50.8196C71.2339 50.3896 71.5539 50.1896 70.5439 49.8896C69.474 49.5696 70.0139 48.9896 69.374 48.6697C68.994 48.4797 68.694 48.6397 68.274 48.5697L67.344 48.2897C66.804 47.9997 66.974 48.1897 66.414 48.0297C66.044 47.9197 65.924 47.8097 65.474 47.7797C64.3141 47.6997 64.5141 47.3897 63.6241 47.2997C62.8741 47.2197 62.2541 47.0497 61.4841 47.0697C61.0342 47.0797 59.4542 47.1597 59.2142 47.0897C58.7242 46.9697 58.8142 46.9197 58.2042 46.9097C57.7642 46.9097 57.5842 46.8297 57.1243 46.8597C57.1143 46.9797 57.0943 47.1797 57.1043 47.2997C57.1243 47.6197 57.2043 47.5797 57.3043 47.7997L57.5642 48.4197C57.6842 48.9496 57.3942 49.7396 57.3643 50.4096Z"
            fill="#91D8F7" />
        <path fill-rule="evenodd" clip-rule="evenodd" class="state-map-path" id="edo_state_N8gsbpZzJ"
            d="M60.5841 19.4204L60.6641 20.1604C60.3741 20.3003 60.2141 20.2303 60.0641 20.5103C59.9241 20.7703 60.0941 20.6403 59.9341 20.8503C59.7341 21.0903 59.4342 21.0803 59.4642 21.8403C59.4742 22.2303 59.6542 22.2203 59.8841 22.4003C59.9641 23.2603 60.2041 23.1103 60.4641 23.6603C60.6241 24.0103 60.4741 24.0603 60.5741 24.4302C60.6941 24.8202 60.8041 24.6102 60.7841 25.2102C60.6141 25.2702 60.4741 25.2702 60.2941 25.3702C60.1141 25.4702 60.1441 25.5202 59.8541 25.6602C59.5442 25.8002 59.1442 25.9002 58.8742 26.1002C58.2942 26.5302 58.6742 26.4302 57.9842 26.6302C57.7942 26.6802 57.2642 27.0002 57.0542 27.1502C56.9242 28.6101 57.1442 28.6101 57.7242 28.7801L59.0042 29.1101C59.4442 29.2201 59.1042 29.2701 59.5642 29.3201C60.2141 29.4001 60.3241 29.4201 60.8741 29.6301C61.5541 29.8801 62.0441 29.9401 62.7541 30.0801C63.1741 30.1601 63.5341 30.3701 63.904 30.5001C64.174 30.5901 64.354 30.5401 64.604 30.6201L65.644 30.7801C65.654 30.7901 65.674 30.8001 65.694 30.8101C66.204 31.0701 66.394 31.2801 66.384 31.9701C66.444 32.0101 66.524 32.1001 66.624 32.0501C66.624 32.3101 66.594 32.42 66.694 32.65C66.734 32.75 64.314 37.7699 68.8239 42.6198C69.6839 42.6398 69.1839 42.3198 69.8939 42.4098C70.8639 42.5298 71.6739 41.6098 71.0539 44.0798C70.9039 44.6697 70.9439 45.2997 70.9239 45.9397C70.9039 46.8997 70.7739 46.7997 70.7539 47.1197C71.2639 47.0397 71.7239 46.5797 72.1938 46.4197C72.6638 46.2697 72.3638 46.4697 72.7038 46.1597L75.9837 44.1798C76.4237 43.9898 77.5837 44.1198 78.0837 43.9398C78.9337 43.6298 79.3837 43.9098 79.5237 43.5598C79.5837 42.8898 79.5937 42.4898 79.7937 41.9098C79.8937 41.6098 79.9337 41.4798 80.0536 41.2098C81.6536 37.4799 82.8336 31.9101 79.9436 28.5201C79.7237 28.1802 79.0937 27.6402 78.9937 27.3102C78.8837 26.9202 79.1137 27.0102 78.8437 26.6602C78.7137 26.5002 78.5937 26.4702 78.4737 26.3202C78.4437 26.2802 77.9237 25.4902 77.9037 25.4502C77.7537 25.1502 77.6737 24.7102 77.4137 24.4202C74.5538 21.2903 76.8037 23.6403 73.0238 22.0403C72.5438 21.8403 72.4138 21.7403 71.7939 21.7403C71.7939 21.3903 71.4939 19.7104 71.3039 19.5104C70.1439 18.6004 66.994 19.8704 66.044 21.0603C65.744 21.2303 65.884 21.1803 65.704 21.4803C65.384 21.4603 65.264 21.3803 65.094 21.1803C64.744 20.7803 64.884 20.9903 64.494 20.7403C64.414 19.9004 64.364 20.5303 63.964 19.8404C63.1441 18.3904 62.2641 19.5104 60.5841 19.4204Z"
            fill="#F6AFCE" />
        <path fill-rule="evenodd" clip-rule="evenodd" class="state-map-path" id="edo_state_S2WpVluOL"
            d="M100.163 46.8797C99.8232 47.7197 100.303 47.1997 99.5032 47.7197C99.6432 54.2595 96.5533 50.0696 94.4134 52.5296C94.1334 52.8495 93.5534 53.3995 93.3834 53.7395C93.2934 53.9095 93.4334 56.3895 93.4634 56.7395C93.8934 60.9193 86.6436 59.1394 88.3035 63.3093C88.3235 63.3693 88.5335 63.6293 88.6135 63.7293C88.8935 64.0993 89.4935 64.4193 89.6235 64.6993C89.7835 65.0392 89.5035 64.9393 89.9135 65.0892C89.0935 67.2692 90.8835 67.0992 90.5735 69.6391C90.5435 69.8991 90.5835 70.1091 90.5535 70.3791C90.5335 70.3791 90.3835 70.3491 90.3535 70.3491L90.0835 70.4391C90.1035 70.8991 90.2535 70.8691 90.7635 70.9091L90.8435 70.5091L91.6134 70.4891C91.7334 70.2391 96.7233 67.6592 97.3633 67.4892C97.6833 67.4092 98.1633 67.1792 98.3833 66.9592C98.6733 66.6792 98.4933 66.7392 98.5933 66.4192C98.9233 66.5292 98.7533 66.5592 99.2032 66.5692C99.6632 65.9192 99.0932 66.1192 100.673 66.1092C103.703 66.0892 106.573 61.5593 107.673 62.2393C107.803 62.3193 108.393 62.4393 108.583 62.4893C108.963 62.5093 108.653 62.4993 108.973 62.3693C109.333 62.4693 108.803 62.2693 109.073 62.4493C109.543 62.7293 111.223 62.6393 111.613 62.7993C111.873 62.9093 111.593 62.9193 112.013 62.9893C112.783 63.1193 113.503 63.1193 114.323 63.1893C114.713 63.2193 115.123 63.4193 115.353 63.0993C115.653 62.6893 115.263 62.4893 115.313 62.0893C115.353 61.8493 115.453 61.8693 115.413 61.4993C115.383 61.1393 115.343 61.2693 115.243 61.0193C115.313 60.7694 115.423 60.8194 115.483 60.5394C115.573 60.1094 115.443 60.1294 115.333 59.9294C115.093 59.5194 115.293 59.7494 115.393 59.5394C115.563 59.1694 115.373 59.3094 115.323 58.9294C114.883 55.8695 111.563 53.8095 111.353 50.7896C112.383 51.3996 111.603 50.3596 111.573 50.0096C111.493 49.9396 111.523 49.9496 111.393 49.8896C111.373 49.8796 111.293 49.8596 111.263 49.8496C111.343 49.6396 111.513 49.5396 111.633 49.3196C111.793 49.0196 111.823 48.8596 112.073 48.5597L112.353 48.1097C112.583 47.8297 113.133 47.6997 112.633 47.3797C112.613 47.3697 112.553 47.3397 112.523 47.3197L112.373 47.2397C111.793 46.9197 111.193 47.4297 110.643 47.1297C110.293 46.9497 110.593 46.8897 109.763 46.9497C109.583 46.9597 109.643 46.9497 109.473 46.9897C109.143 47.0897 109.543 47.0597 109.203 47.0797C108.983 47.0997 108.883 46.9497 108.703 46.8997C108.283 46.7697 108.283 46.9197 108.113 46.9597L107.053 46.7997C104.763 46.5297 101.983 46.7697 100.163 46.8797Z"
            fill="#F6AFCE" />
        <path fill-rule="evenodd" clip-rule="evenodd" class="state-map-path" id="edo_state_LOJXkRYyb"
            d="M67.404 4.38073C66.704 4.47073 67.114 4.21074 65.874 4.22074C64.844 4.22074 63.3241 3.85075 64.0741 5.35071C64.204 5.6107 64.924 6.25069 65.164 6.50068C65.534 6.90067 66.124 7.04067 66.424 7.55066C66.804 8.18064 66.474 8.17064 66.364 8.61063C66.264 8.97062 66.404 8.85062 66.194 9.16062C64.0241 12.3605 70.7339 13.4305 61.8241 17.9404C61.5141 18.1004 61.2641 18.1604 61.2241 18.5804C62.3841 18.5904 62.9741 18.1504 63.9241 18.2704C64.204 18.7604 64.574 19.1304 64.934 19.5804C65.514 20.3103 65.214 20.6603 66.314 20.0503C68.4339 18.8904 72.4438 17.4504 72.2538 21.0203C72.2538 21.0503 72.2638 21.0703 72.2738 21.0903C72.3738 21.4703 73.6538 21.4703 74.2038 21.5703C74.6338 21.6503 75.0838 21.6203 75.4838 21.8003C79.4837 23.6803 76.8437 23.3103 79.3237 26.0302C80.0037 26.7802 79.7437 26.4402 80.4236 26.0202C80.7336 25.8302 80.8736 25.7302 81.1336 25.5202C82.7036 24.2802 82.5336 23.6703 83.4036 22.8603C83.4236 22.8403 83.4636 22.8103 83.4836 22.7903C83.4936 22.7703 83.5136 22.7503 83.5236 22.7403C83.5336 22.7203 83.5436 22.7003 83.5536 22.6903C83.7036 22.4303 83.5236 22.5403 83.7736 22.2603C84.0636 21.9603 84.0636 21.8503 84.2836 21.5703C84.6635 21.0903 84.9435 20.8703 85.2135 20.1903C85.3135 19.9503 85.4335 18.3504 85.4335 18.0104C85.4335 16.3904 84.9435 15.8405 84.7935 15.1205C84.4735 13.5205 84.6035 11.7506 85.4235 12.0005C86.8835 12.4305 88.8834 13.3005 90.0234 13.4105C91.9334 13.5805 95.2733 12.1705 91.0434 9.11062C80.4336 -0.479145 77.6537 20.3003 76.7337 2.59078C76.5337 2.56078 76.3537 2.57078 76.1638 2.54078C75.7938 2.49078 75.9238 2.45078 75.5938 2.39078C75.1838 2.31079 74.6438 2.45078 74.4038 1.48081C74.2438 0.850822 74.3538 1.04082 73.9338 0.53083C73.7138 0.260836 73.8438 0.320835 73.6938 0.0308421C73.0738 -0.0691554 72.9738 0.10084 72.5538 0.160839C72.3538 0.190838 72.1439 0.170839 71.9339 0.200838C71.6339 0.240837 71.6339 0.310835 71.3639 0.350834C70.0339 0.580829 70.1339 0.580829 69.6139 1.24081C69.5439 1.33081 69.3639 1.48081 69.3039 1.5708C69.1639 1.7808 69.2539 1.8008 69.1039 2.01079C68.9839 2.17079 68.8939 2.17079 68.7739 2.32079C68.6139 2.52078 68.6839 2.54078 68.5039 2.76077C68.4239 2.86077 68.2839 2.99077 68.2039 3.10077C68.064 3.31076 68.094 3.38076 67.954 3.58075C67.794 3.81075 67.634 3.87075 67.514 4.11074C67.454 4.25074 67.464 4.29074 67.404 4.38073Z"
            fill="#9DD3AF" />
        <path fill-rule="evenodd" clip-rule="evenodd" class="state-map-path" id="edo_state_kfmEr0Vsj"
            d="M82.5037 34.21C82.5037 34.93 82.5837 36.6199 82.4737 37.2399C82.4037 37.6199 82.1337 37.9199 82.0037 38.2099C81.7337 38.7899 82.1837 38.6499 81.5937 39.3199C81.2437 39.7199 81.5737 39.7599 81.1637 40.3198C80.4237 41.3198 80.9437 41.2598 80.7137 42.0898C80.6037 42.4998 80.2537 43.3498 80.6137 43.8798C81.3037 43.9498 82.7637 43.4398 83.4536 43.2198C83.5936 43.1798 83.9336 43.1198 84.0736 43.0998C84.4236 43.0598 85.1036 43.2098 85.3536 43.3898C85.5236 43.6998 85.4436 44.4197 85.5736 44.8597C85.6736 45.1797 85.7436 45.1497 85.9036 45.3697C86.0536 45.5697 85.9536 45.4397 86.0436 45.6297C86.0536 45.6497 86.0636 45.6697 86.0736 45.6797L86.2236 45.9397L87.0235 45.9497C87.3335 45.1097 88.0835 44.6997 88.5035 44.3197C90.5135 42.4998 90.5635 44.0298 94.6834 44.1797C95.0133 44.1897 95.1433 44.1597 95.4133 44.2397C96.4833 44.5497 96.0333 44.3897 97.2633 42.5398C97.5133 42.1498 97.8133 41.7998 98.2133 41.5598C98.9533 41.1198 98.4733 41.3398 98.8933 41.0498C99.5632 40.5598 99.4732 40.5598 99.9332 40.1698C100.023 40.0898 100.053 40.0898 100.163 39.9998C100.313 39.8699 100.373 39.7099 100.533 39.5799C100.773 39.3899 100.793 39.5099 101.363 38.8899C101.613 38.6199 101.493 38.6699 101.553 38.2899C101.683 37.5099 102.193 37.8199 101.153 37.2299C100.393 36.7899 100.783 37.1199 100.333 36.8599C99.5832 36.4199 99.4332 36.4499 98.4033 36.6499C97.0333 36.9099 96.7433 36.9999 95.5533 37.3899C95.1733 37.5099 95.1433 37.6799 94.6834 37.7099C94.1934 37.0299 94.2134 37.2399 94.0234 36.6099C93.9734 36.4499 93.1634 35.17 93.4434 34.24C93.5334 33.94 93.8734 33.88 94.1634 33.77C94.6034 33.61 94.5234 33.56 94.8934 33.3C95.3033 33.02 95.1033 32.94 95.1933 32.39C95.3633 31.4001 96.2433 31.6901 94.1734 30.4901C94.0534 30.4201 94.0234 30.4001 93.9434 30.3201C93.6834 30.0501 93.6934 30.0501 94.0434 29.5801C94.2034 29.3701 94.2234 29.3101 94.4034 29.1401L94.4834 29.0601C94.9334 28.6201 94.8434 28.8401 95.2333 28.3701L96.4633 27.2002C96.9133 26.8302 96.9933 27.2202 96.9533 25.0302C96.9333 24.5002 97.0033 23.7802 96.8533 23.3403C96.6133 23.2503 96.2633 23.2203 95.9533 23.1903L92.4634 22.4703C90.4335 22.1103 88.1635 21.6103 86.1836 21.3003C85.3636 21.1703 85.4436 21.8903 84.6036 22.7803C84.2636 23.1303 84.4036 22.9403 84.1536 23.4203L83.2136 24.5702C83.0636 24.7802 83.0236 25.2202 82.2337 25.7402L80.4037 27.0402C80.0037 27.4002 80.3237 27.5102 80.5437 27.6802C80.8937 27.9601 80.6337 28.0401 80.9237 28.3301C81.2637 28.6701 81.1037 28.3501 81.4037 28.9001C81.5637 29.1901 81.7437 29.2201 81.8737 29.4701L82.2137 30.2401C82.5037 31.3501 82.4937 32.91 82.5037 34.21Z"
            fill="#91D8F7" />
        <path fill-rule="evenodd" clip-rule="evenodd" class="state-map-path" id="edo_state_jqfEoOJA7"
            d="M42.9346 78.6089C42.9746 78.6389 43.0046 78.6489 43.0646 78.7189C43.1246 78.8189 43.2545 79.6289 43.1945 80.4889C42.9746 80.8388 43.1346 80.8888 42.8646 81.1988C42.0046 82.1888 42.3346 82.0188 42.0746 82.3288C41.0746 83.5488 39.0047 82.6388 38.2947 83.4388C38.0447 83.7188 38.1347 83.6488 38.0447 84.0488C37.9647 84.4288 37.9747 84.8687 37.8747 85.2387C37.6947 85.9587 37.4147 86.4787 37.0747 87.1387C36.8847 87.5187 36.6847 87.6687 36.5347 87.9587C36.1847 88.6187 36.0847 89.0486 35.6047 89.7486C35.4447 89.9886 35.2347 90.2586 35.0048 90.4186C34.8448 90.5286 34.7548 90.5486 34.5648 90.5986C33.6648 90.8486 33.2948 90.8586 32.3348 90.4686C31.8048 90.2486 31.2848 89.7986 30.8549 90.4186C30.5249 90.8786 30.7549 91.0786 30.5649 91.4986C30.5049 91.6186 30.4049 91.7286 30.3349 91.8986L29.9249 92.8485C29.8049 93.1985 29.8749 93.4685 30.2649 93.5085C31.1648 93.6085 32.2048 93.4485 33.0548 93.4285C33.4148 93.4285 34.3448 93.3985 34.6448 93.4485C35.1147 93.5385 35.3447 93.8285 35.5847 94.1785C35.6147 94.2085 35.7247 94.3485 35.7547 94.3985C35.8347 94.4985 35.8447 94.5385 35.9247 94.6385C36.7147 95.7485 37.0247 95.4685 37.6247 94.4785C37.6347 94.4585 37.6447 94.4385 37.6547 94.4185L37.7447 94.1885C38.1247 93.3485 40.1846 93.0485 40.9846 92.8885L42.0346 92.4986C43.0746 92.0386 43.3645 92.0886 44.1045 91.7786C44.1245 91.7786 44.1445 91.7686 44.1645 91.7586C44.1745 91.7586 44.2745 91.6986 44.3145 91.6786C45.0145 91.3386 46.1845 91.3486 46.8245 91.5686L47.6844 91.9086C48.0344 92.0486 48.1544 92.2086 48.4644 92.3986C48.7544 92.5586 48.9244 92.5186 49.3044 92.5086C49.2944 92.0186 49.3044 91.7386 49.0744 91.3886L48.9844 91.2486C48.6944 90.7486 48.3644 89.4586 48.8144 88.9786C49.5644 88.1787 50.1544 88.9186 50.2644 86.0787C50.2744 85.8087 50.2644 85.8887 50.3244 85.6887C50.3944 85.4587 50.3844 85.5287 50.4144 85.2187C50.5144 84.3688 50.5544 83.2688 50.9744 82.5188L51.9443 81.3388C52.8843 80.5489 55.0543 81.2088 55.4842 80.6389C55.7042 80.3489 55.5642 79.0789 55.4142 78.8189C55.3142 78.6489 53.4943 77.6589 53.1843 77.3789L52.6043 76.9189C52.4543 76.7589 52.5143 76.7789 52.2743 76.6889C51.9843 76.589 51.7543 76.569 51.4743 76.449C51.0644 76.289 51.2344 76.279 50.7244 76.159C50.4344 76.099 50.2244 75.989 49.8944 75.959C49.1944 75.889 48.3744 75.969 47.9644 75.339L46.8645 73.259C46.8045 73.089 46.8345 72.979 46.7745 72.789C46.7245 72.629 46.7045 72.669 46.6345 72.4491C46.5745 72.2591 46.5945 72.1691 46.5345 71.9891C46.4345 71.6091 46.2345 71.2291 45.9445 71.0391L45.2245 70.7191C44.9045 70.5491 44.3545 70.2891 43.9645 70.4791C43.6545 70.6291 43.7445 70.9891 43.7445 71.3991C43.7545 72.0191 43.6945 72.889 43.7545 73.479C43.7845 73.819 43.9845 73.979 43.8945 74.329C43.8245 74.559 43.5845 74.629 43.3845 74.859C42.7846 75.529 42.7846 75.069 42.7746 76.349C42.7746 76.8389 42.5746 78.3089 42.9346 78.6089Z"
            fill="#FDD1A1" />
        <path fill-rule="evenodd" clip-rule="evenodd" class="state-map-path" id="edo_state_jOGgKpI0f"
            d="M81.3137 59.9094C81.0937 59.1994 81.0037 58.4294 81.5337 57.8594C82.1236 57.2194 81.6737 57.6794 81.9336 57.2994C82.0836 57.0794 82.1236 57.1994 82.3336 56.9694C82.7336 56.5294 83.2236 56.1795 83.6936 55.7895L85.6836 54.4195C85.6936 54.3995 85.7036 54.3495 85.7036 54.3595C85.7136 54.3695 85.7236 54.3095 85.7336 54.2895C85.8436 53.8995 85.8735 53.7195 85.7736 53.4195C85.6536 53.0995 85.4836 52.9795 85.2836 52.6995C83.9736 50.9096 84.2036 52.5795 84.1036 50.4796C84.0836 50.1596 84.0436 50.2696 84.1636 50.0296C84.4336 49.4696 84.2936 49.5096 84.5036 49.2496C85.2936 48.2796 86.7835 48.4696 87.3135 48.2197C88.1835 47.7997 88.3335 48.0497 89.2735 47.9397C90.1034 47.8397 92.7434 47.8297 93.2234 47.4997C93.3234 47.4397 93.3734 47.3597 93.4534 47.2697C93.9034 46.7897 94.3533 46.2997 94.7933 45.8097C95.1233 45.4997 95.1933 45.6797 95.1933 45.0397L92.6134 44.7397C92.1834 44.6097 91.3734 44.5297 90.9234 44.4697C90.4334 44.4097 90.5134 44.3097 90.2134 44.2897C89.8835 44.2697 89.1935 44.7597 88.9435 44.9897C88.6435 45.2597 88.8235 45.2497 88.3335 45.3297C88.1435 46.1297 88.1735 45.9397 87.7735 46.4497C87.5735 46.7097 87.5935 46.6497 87.2035 46.7397C79.6037 48.4996 81.2137 46.6797 78.1737 50.6696C78.1637 50.6996 78.1137 50.8096 78.0937 50.8396C78.0837 50.8596 78.0737 50.8896 78.0537 50.9096C78.0537 50.9596 78.0337 51.0096 78.0037 51.0496C77.9937 51.0796 77.9837 51.1096 77.9637 51.1296C77.9537 51.1596 77.9437 51.1796 77.9337 51.1996C77.7837 54.4695 79.6237 52.6795 79.6237 55.6795C79.6237 55.7295 79.6037 55.7795 79.5837 55.8195C79.5737 55.8795 79.5637 55.9195 79.5337 55.9595C79.5237 55.9895 79.5037 56.0195 79.4837 56.0395C79.4737 56.0895 79.4437 56.1395 79.4037 56.1695C79.0537 57.3694 77.9737 56.8094 78.4737 58.5694C79.5537 59.9994 79.2337 59.9094 81.3137 59.9094Z"
            fill="#FDD1A1" />
        <path fill-rule="evenodd" clip-rule="evenodd" class="state-map-path" id="edo_state_MGGbFofUr"
            d="M80.2337 44.8197L80.0137 44.4897C79.2637 44.4597 79.1137 44.5697 78.5637 44.6697C78.1237 44.7497 77.4437 44.6897 77.0637 44.7697C76.8237 44.8197 76.8637 44.8897 76.4737 44.9597C76.0238 45.0297 76.1738 45.0897 75.3338 45.4397C74.8638 45.6297 75.1138 45.6497 74.8338 45.8097C74.3838 46.0797 74.9138 45.6097 74.2338 46.1597L73.3738 46.7297C73.1038 46.8697 72.9538 46.8697 72.7538 46.9997C72.5238 47.1297 72.1839 47.4597 71.5739 47.8097C71.3039 47.9597 71.1439 47.9197 70.6739 48.1897C70.5939 48.8496 70.9639 49.1196 71.4339 49.3096C71.8239 49.4696 72.2339 49.8396 72.6538 50.0896C72.6738 50.8996 72.6938 50.4996 72.9238 50.9496L73.2338 51.8496C73.3738 53.0595 73.8738 52.7095 73.8838 53.5195C73.9038 54.2295 73.9438 55.2195 73.8838 55.9095C73.8538 56.2595 73.7338 56.5294 73.5638 56.7394C73.1238 57.2594 73.3538 56.9794 73.2838 57.6694C73.2538 57.9794 72.9838 57.9494 72.9438 59.7494C72.9238 61.2093 72.9738 61.3093 73.2638 62.4093C73.4338 63.0893 73.0138 62.9293 73.7038 63.8093L74.4938 65.3792C74.8038 65.3492 74.6738 65.3192 74.8738 65.1592C75.2038 64.8792 74.9738 65.0992 75.3338 64.9792C75.6138 64.8792 75.4538 64.8792 75.7038 64.7092C79.8837 62.5193 79.2337 64.4093 81.8136 63.9893C81.9536 63.9693 82.0736 63.9293 82.2036 63.8893C82.5936 63.7393 82.4036 62.4593 82.3436 62.3493C82.1736 62.0793 82.3636 62.3393 82.1336 62.1493C81.6936 61.7793 81.9536 61.7593 81.7836 61.2293C81.7236 61.0193 81.6236 60.7893 81.5336 60.5293L81.1936 60.6993C81.1536 60.7193 81.1136 60.7293 81.0736 60.7293H80.0637C79.5637 60.7293 77.6037 59.5394 77.6037 58.8494C77.5037 58.8094 77.4337 58.7194 77.4337 58.6094C77.4337 56.0095 79.1737 56.2395 78.6337 54.4495C78.5537 54.4195 78.4937 54.3595 78.4337 54.2895H78.3637C78.2237 54.2895 78.1137 54.1795 78.1137 54.0395V53.9395C77.7737 53.8195 77.0937 52.8995 77.0937 52.5095V51.4996C77.0937 51.3796 77.8637 49.1296 78.1237 49.0496C78.2337 48.6796 80.3237 47.0097 80.5736 47.0097C80.8136 47.0097 83.4136 46.1597 84.3936 46.1597C84.4335 46.0397 85.0035 45.6597 85.1235 45.6597C84.9035 45.3197 84.7835 45.3997 84.7535 44.9097C84.7135 44.0598 84.7735 43.5898 83.7936 43.9298C83.0636 44.1798 80.9236 44.7897 80.2337 44.8197Z"
            fill="#D2E28B" />
        <path fill-rule="evenodd" clip-rule="evenodd" class="state-map-path" id="edo_state_mEJ75i7ef"
            d="M52.9044 42.2998L52.0044 42.3698C51.7144 42.4598 51.8744 42.7798 51.7044 43.3498C51.4944 44.0598 51.4544 43.9598 51.1544 44.5697C51.0644 44.7297 51.1244 44.4797 51.0744 44.7497C51.0544 44.9097 51.0944 45.0197 51.0944 45.0297L51.3444 46.0797C51.8244 46.0897 51.6344 46.0497 51.8844 45.9397C52.5144 45.6497 52.7344 45.3597 53.4644 45.4997C54.1844 45.6197 55.3443 45.5297 55.9843 45.6997C56.6043 45.8697 56.6743 45.6597 57.0943 45.7797L61.4042 46.2997C61.5342 46.2997 61.5842 46.3097 61.7242 46.2897C62.3242 46.1997 61.7142 46.0797 62.4542 46.2597C63.1941 46.4397 62.9642 46.0697 64.1341 46.6197C64.5341 46.8097 64.7941 46.7997 65.3141 46.8697L68.444 47.7997C68.764 47.8897 69.194 47.8197 69.634 47.7897L70.004 45.6197C70.034 45.0497 70.204 45.0697 70.244 44.5897L70.294 43.6198C70.254 43.2998 70.194 43.2598 69.964 43.2598C69.934 43.2598 69.764 43.2798 69.694 43.2898C69.384 43.3198 69.414 43.2998 69.134 43.3898C68.704 43.5498 68.374 43.5498 67.854 43.4798C67.834 43.2298 67.864 42.9798 67.844 42.7498C67.814 42.3598 67.744 42.5198 67.684 42.1098C67.654 41.8698 67.684 41.6298 67.644 41.4098C67.524 40.6898 66.2341 39.9999 65.7541 38.7799C65.6441 38.5099 65.7341 38.3699 65.5941 38.1399C65.5241 38.0299 65.3441 37.9199 65.2441 37.7899C65.0441 37.5399 65.1341 37.5099 65.0141 37.2099C64.8541 36.7999 64.5641 36.7699 64.5241 36.2099C64.4441 35.15 64.0341 35.58 64.3641 34.94C64.4041 34.85 64.5641 34.55 64.6241 34.48C64.7741 34.29 64.8341 34.35 65.0241 34.08L65.6541 33.17C65.7541 32.75 65.6841 32.06 65.4641 31.8201C65.0941 31.4101 64.9041 31.6301 64.3341 31.4301C63.5741 31.1701 62.7842 30.9901 62.0242 30.7201L57.1743 29.4001C56.5543 29.2501 56.5643 29.4301 56.3243 29.5401C55.7643 29.7801 56.1443 29.3601 55.1143 30.2401L54.1344 31.4901C53.9444 31.8101 53.9944 31.6901 53.7844 31.9401C53.5144 32.26 53.6944 32.15 53.5944 32.5L53.2844 32.98C53.0744 33.26 53.0544 33.09 53.0044 33.49C52.9544 33.81 53.0444 33.88 52.9044 34.19C52.7744 34.49 52.7844 34.27 52.7844 34.76C52.7744 35.46 52.6744 36.9399 53.0744 37.5099C53.2444 37.7599 53.2844 37.5899 53.5244 37.8499L54.1244 38.4399C54.9544 39.1199 54.9844 38.9499 54.7744 39.5399C54.4344 40.4698 54.3844 39.8799 54.1544 40.4298C53.7844 41.3098 53.9244 40.5598 53.5444 41.3498L52.9044 42.2998Z"
            fill="#D2E28B" />
        <path fill-rule="evenodd" clip-rule="evenodd" class="state-map-path" id="edo_state_lz7qqwcZR"
            d="M97.9732 23.2903C97.9232 23.6303 98.0132 23.7903 98.0432 24.0802V26.8702C97.8932 26.9902 97.7632 27.0702 97.6532 27.2002L96.0933 28.6901C95.6433 29.0301 96.0433 28.8901 95.5533 29.2701L95.0033 29.9001C95.2133 30.4601 95.9233 30.5401 96.4133 30.8001C96.6033 32.57 92.9734 37.2899 95.4733 36.5999C98.3232 35.81 98.6932 35.29 101.213 36.3699L104.003 38.0599C104.613 38.5199 104.453 38.4699 104.593 38.5799C104.883 38.8099 104.603 38.4699 105.283 39.0199C105.493 39.1899 105.713 39.3999 105.893 39.5299C107.793 40.8398 107.053 40.3998 106.803 41.0398C106.663 41.4298 106.763 41.3198 106.503 41.6298C106.223 41.9498 106.313 41.7398 106.193 42.1898C106.073 42.6398 106.073 42.4298 105.833 42.7198C105.463 43.1498 105.773 44.4897 105.963 44.9497C106.083 45.2197 106.143 45.3097 106.243 45.6397C106.923 45.6697 107.753 45.7197 108.333 45.5797C108.453 45.5897 108.433 45.6997 108.613 45.8197C108.853 45.9797 108.833 45.9197 109.123 45.9497L112.493 46.2697C112.453 45.8897 112.543 46.1897 112.253 45.7697C111.783 45.0997 112.053 45.1397 111.823 44.7697C111.643 44.4897 111.773 44.8097 111.633 44.4897C111.553 44.2897 111.563 44.2897 111.463 44.0998C111.243 43.6798 111.293 42.4898 111.393 42.2098C113.753 36.0299 121.253 35.22 108.333 33.24C107.733 33.15 107.993 32.98 107.223 32.94C106.733 32.92 106.253 32.99 105.763 32.94C105.403 32.04 105.733 32.3 105.483 31.7801C104.713 30.1801 105.363 28.8301 105.163 26.7902C105.143 26.5702 105.033 25.6502 104.933 25.4702C104.853 25.3402 104.643 25.2602 104.553 25.1402C104.343 24.8902 104.493 24.8802 104.353 24.6202C104.103 24.1402 103.933 24.6702 103.803 23.6603C102.943 23.3803 103.503 23.0703 101.073 23.1303C99.9432 23.1603 99.0532 23.2603 97.9732 23.2903Z"
            fill="#9DD3AF" />
        <path fill-rule="evenodd" clip-rule="evenodd" class="state-map-path" id="edo_state_IuyXZawrl"
            d="M83.0236 64.8392C82.5136 64.8792 79.6537 64.6992 79.4237 64.6092C79.3337 64.5692 79.2737 64.4692 79.0237 64.4092C78.1637 64.1992 76.0538 65.3292 75.3738 65.8192C74.8138 66.2292 76.8038 67.9892 77.0438 69.7991C77.6338 69.8191 78.7437 69.3191 79.1537 69.2191C79.4937 69.1291 79.6137 69.1491 79.9437 69.0391C80.6537 68.7791 82.6836 68.9291 83.3236 69.1791C83.6836 69.3191 83.4336 69.3591 84.0036 69.6191L84.6036 69.9791C84.6136 69.9791 84.7436 70.0691 84.7436 70.0791L87.5735 71.9691C87.7535 72.0991 87.7935 72.489 88.4635 71.6491C88.7235 71.3191 88.7435 71.2991 88.8635 70.7691C88.9935 70.1691 89.5135 70.2891 89.4635 68.9491C87.6035 67.6592 88.4235 67.7792 88.6435 66.8992C89.1335 64.9692 86.2835 63.9893 87.2835 61.8493C87.4035 61.5993 87.6135 61.1093 87.6635 60.8093C87.8235 59.9893 87.7635 59.2294 88.7535 59.0894C89.0835 59.0394 89.6135 58.9694 90.0134 58.8994C90.5434 58.8094 90.7734 58.7694 91.1034 58.4894L91.8134 57.8394C92.1034 57.6094 92.3334 57.5394 92.3634 57.0394L92.3334 54.1495C92.3034 53.4195 92.2234 53.6295 91.5634 53.5695C91.1034 53.5195 91.0134 53.2795 89.9134 53.6595L89.4535 53.8895C88.8435 54.1595 88.1335 54.3895 87.4635 54.6695C86.9535 54.8895 86.1535 55.0495 85.5236 55.5495C85.3836 55.6595 85.3136 55.7595 85.1436 55.8595C85.1236 55.8695 85.1036 55.8795 85.0836 55.8795C85.0736 55.8895 85.0436 55.8995 85.0336 55.9094L82.6836 57.6394C82.4136 57.8994 82.5836 57.7794 82.4336 58.0994C81.8736 59.2594 82.3336 59.3794 82.4836 60.3893C82.6436 61.4293 83.6836 61.9393 83.2236 63.5993C83.1036 64.0592 83.1136 64.3392 83.0236 64.8392Z"
            fill="#9DD3AF" />
        <path fill-rule="evenodd" clip-rule="evenodd" class="state-map-path" id="edo_state_Ws3U7JW0X"
            d="M106.413 32.1801C106.873 32.24 107.223 32.1401 107.693 32.2101C108.133 32.28 107.853 32.2701 108.193 32.36C108.573 32.46 108.643 32.38 109.023 32.56L109.603 32.78C110.043 33 109.453 32.89 110.243 32.94C110.973 32.99 111.073 33.38 111.763 33.39C112.493 33.4 114.313 33.32 114.923 33.53C115.213 33.63 115.283 33.62 115.633 33.62C115.533 33.32 115.633 33.5 115.233 33.33C115.263 33.03 115.223 33.29 115.293 33.18L115.443 33.01C115.893 32.44 115.393 32.46 115.503 31.7901C116.423 26.0502 118.283 28.0702 117.453 22.1703C117.383 21.7103 117.283 22.1803 117.243 21.4403C117.223 21.0903 117.203 20.9303 117.013 20.7403C116.383 20.0904 116.393 20.4303 115.833 20.5303C115.033 20.6803 115.573 21.1603 114.673 20.5303C113.923 20.0104 114.853 20.4403 113.923 19.6004C110.983 16.9904 113.343 16.8704 108.113 18.1804C100.743 20.0404 103.693 15.2205 99.8532 12.2605L99.8232 10.9606C98.8732 10.8806 98.5532 11.0906 98.3732 11.0406C97.3733 10.7306 96.1833 11.0106 96.1533 11.0006C95.7933 10.9506 96.0233 10.8306 95.4333 10.8906L93.4433 10.6906C93.4433 16.8204 87.6935 12.5505 85.4835 12.6505C85.4235 14.3805 85.7635 13.9905 85.7535 14.5505C85.7435 15.3305 85.8835 14.7605 85.9535 15.3705C85.9935 15.7005 85.9235 16.1704 86.0235 16.4504C86.9135 19.0104 86.1335 18.5104 86.3235 20.0004C85.9735 20.1803 86.0835 20.0404 86.0035 20.4603C86.8635 20.4203 87.6235 21.0103 88.4035 20.9103C88.8535 20.8503 88.7035 20.8403 89.0335 21.0203C91.9334 22.6003 99.2232 21.9003 101.323 22.3403C101.663 22.4103 101.783 22.2803 102.033 22.2703C102.103 22.2703 103.473 22.5303 103.843 22.8103C104.653 23.4103 104.603 23.7503 105.243 24.6002C107.533 27.6202 105.273 30.7401 106.413 32.1801Z"
            fill="#F6AFCE" />
        <path fill-rule="evenodd" clip-rule="evenodd" class="state-map-path" id="edo_state_Pmusi3zOX"
            d="M92.4534 48.9696C92.2834 48.7896 92.3434 48.7696 92.2134 48.5796C90.4435 48.5496 85.6836 48.3797 85.1836 50.5396C85.0836 51.0096 85.1536 51.3596 85.3636 51.6796C85.7636 52.2896 86.2936 52.4196 86.5335 52.6595L86.9135 53.0395L86.5136 53.2795V53.8695C86.9535 54.1495 87.1535 53.9895 87.5435 53.8595C87.8335 53.7695 87.9835 53.7995 88.2935 53.6595C89.2735 53.2095 88.6135 53.4995 89.3835 53.2995C89.5435 53.2595 89.9435 52.9395 90.9234 52.8995C91.4634 52.8795 92.2534 53.1895 92.6734 52.9395C93.2834 52.5695 93.2434 51.9096 94.2634 51.6496C94.5634 51.5696 94.6533 51.5096 94.9433 51.3796L96.3633 50.8696C96.7333 50.7996 96.6833 50.9196 97.6433 50.7096C98.3133 50.5596 98.0633 50.5296 98.0933 49.3696C98.1933 45.2497 100.223 46.4197 103.203 45.8997C103.543 45.8397 103.443 45.7797 103.683 45.6697C104.103 45.4797 104.603 45.6597 105.023 45.6597C105.103 44.5397 104.173 41.7498 105.583 41.5998C105.713 40.7698 105.463 41.2298 105.853 40.5898C105.703 40.3498 105.483 40.1299 105.223 39.9599C105.053 39.8599 104.983 39.8299 104.803 39.7399L103.613 38.9999C103.233 38.8299 103.493 38.9499 103.243 38.7399C102.953 38.4999 102.323 38.5199 102.193 39.3199C102.143 39.6299 102.203 39.5699 101.963 39.7299C100.833 40.5198 100.563 40.8998 99.4832 41.7298C99.2932 41.8698 99.3532 41.9298 99.1632 42.0298C98.8732 42.1698 98.8932 41.8398 98.1233 42.9198C96.5833 45.1197 94.4534 49.0296 92.4534 48.9696Z"
            fill="#D2D3D5" />
        <path fill-rule="evenodd" clip-rule="evenodd" class="state-map-path" id="edo_state_teK8cGxzC"
            d="M34.3948 81.2988C34.4348 81.3288 34.4748 81.3488 34.5148 81.3688C34.5948 81.4088 34.6748 81.4688 34.7648 81.4988C34.8148 81.5488 34.8848 81.5688 34.9448 81.5688H34.9248C35.0048 81.5988 35.0448 81.6588 35.1348 81.6688V81.6788C35.1948 81.7288 35.3248 81.7588 35.4048 81.7988C35.4548 81.8288 35.5148 81.8388 35.5748 81.8588C35.6048 81.8788 35.6448 81.9088 35.6948 81.9188C35.8147 81.9588 35.9447 82.0388 36.0747 82.0788C36.1347 82.1088 36.1647 82.1488 36.2347 82.1588C36.2447 82.1688 36.2647 82.1888 36.2947 82.1988C36.3547 82.2288 36.3947 82.2588 36.4547 82.2888C36.4947 82.3188 36.5447 82.3388 36.5947 82.3388C36.5347 82.3388 36.5147 82.3288 36.5847 82.3688C36.6847 82.4188 36.7647 82.4588 36.8547 82.4988C36.9247 82.5388 37.0047 82.5888 37.0847 82.6088C37.1447 82.6588 37.2747 82.6988 37.3447 82.7188C37.4547 82.7788 37.5747 82.8388 37.7047 82.8388C37.7547 82.8688 37.7647 82.8788 37.8347 82.8888L37.6247 83.8188L35.5848 88.8986L34.4048 90.0786H33.1348L31.3549 89.3986V88.1287L33.8048 80.9388C33.8448 80.9788 33.8948 81.0088 33.9448 81.0288C33.9848 81.0788 34.0148 81.0888 34.0648 81.1188C34.1248 81.1488 34.1848 81.1588 34.2348 81.1988C34.2648 81.2288 34.3048 81.2588 34.3448 81.2688C34.3648 81.2788 34.3748 81.2888 34.3948 81.2988Z"
            fill="#91D8F7" />
        <path fill-rule="evenodd" clip-rule="evenodd" class="state-map-path" id="edo_state_VeNz1tDw7"
            d="M42.7846 73.739L42.2746 75.689V77.6389L42.6146 80.0089L42.2746 80.9388L41.5146 81.7788L40.4146 82.4188L39.5146 82.5288C39.4846 82.5088 39.4446 82.4988 39.4146 82.4988H38.7947L38.8047 82.5088C38.7447 82.4788 38.7047 82.4788 38.6447 82.4788C38.6247 82.4688 38.5947 82.4688 38.5647 82.4588C38.4847 82.4288 38.3847 82.4388 38.3047 82.4388H38.3147C38.2847 82.4288 38.2547 82.4188 38.2247 82.4188C38.1647 82.3888 38.1147 82.3988 38.0547 82.3988C38.0247 82.3788 37.9847 82.3788 37.9547 82.3788L37.9747 82.3988C37.9647 82.3988 37.9047 82.3688 37.8747 82.3588C37.8347 82.3388 37.7947 82.3388 37.7547 82.3388C37.7347 82.3288 37.7147 82.3188 37.6947 82.3188C37.6647 82.2988 37.6347 82.2788 37.5947 82.2788C37.5347 82.2488 37.4847 82.2288 37.4247 82.2088C37.3647 82.1588 37.2847 82.1388 37.2247 82.1188C37.1747 82.0988 37.1147 82.0488 37.0747 82.0388L36.9747 81.9988L36.8347 81.9288C36.7747 81.8788 36.7447 81.8488 36.6847 81.8388C36.6447 81.8088 36.6047 81.7888 36.5547 81.7688H36.5647C36.5247 81.7388 36.4847 81.7188 36.4447 81.6988C36.4047 81.6488 36.3447 81.6188 36.2747 81.6188C36.2047 81.5888 36.1347 81.5488 36.0547 81.5288C35.9847 81.4888 35.9447 81.4688 35.8647 81.4388C35.8247 81.4188 35.7647 81.3888 35.7247 81.3688C35.6747 81.3588 35.6347 81.3488 35.5847 81.3188C35.5547 81.3088 35.5347 81.2988 35.5047 81.2888C35.4747 81.2588 35.4047 81.2288 35.3747 81.2188C35.3447 81.1988 35.3247 81.1888 35.2847 81.1788C35.2447 81.1488 35.1247 81.0988 35.0648 81.0888C35.0448 81.0588 35.0048 81.0388 34.9648 81.0288C34.9248 80.9688 34.8648 80.9188 34.8048 80.9088C34.7548 80.8688 34.7048 80.8588 34.6548 80.8388C34.6448 80.8288 34.6248 80.8288 34.6148 80.8188C34.5848 80.7988 34.5548 80.7888 34.5248 80.7788C34.4848 80.7488 34.3748 80.6888 34.3248 80.6788C34.2848 80.6588 34.2948 80.6688 34.2648 80.6388L36.2647 79.3289L40.0746 74.929L41.3446 73.739H42.7846Z"
            fill="#D2E28B" />
    </svg>