<svg class="svg_map" viewBox="0 0 143 123" fill="none" xmlns="http://www.w3.org/2000/svg">
        <path fill-rule="evenodd" clip-rule="evenodd" class="state-map-path" id="ekiti_state_i31xXZEYA"
            d="M71.9136 10.3871L72.7636 10.4971C73.0135 10.617 72.7436 10.667 73.7135 10.657C76.9834 10.627 77.8134 11.107 79.0134 14.357C79.1234 14.7069 79.0534 14.287 79.2034 14.7369C79.2634 14.9169 79.2334 14.9769 79.2934 15.1369C79.4134 15.4369 79.3834 15.0769 79.4634 15.5369C79.5734 16.1069 79.3434 16.2369 79.2734 16.4169C79.1934 16.6569 79.2734 17.1369 79.1934 17.4069C79.0734 17.8069 78.9934 17.5569 78.9834 18.2469C78.9734 19.0468 79.0634 18.5069 79.2134 19.0168C79.4634 19.8368 79.4834 19.6268 80.0534 20.2468C80.1334 20.3368 80.2034 20.4068 80.3134 20.4568C80.4134 20.5068 80.3634 20.4668 80.4934 20.5168L81.0433 20.7868C81.3333 20.9668 81.4533 21.2968 81.6033 21.5668L81.8533 22.0668C81.8633 22.0768 81.8733 22.0968 81.8833 22.1168C82.3633 22.9467 82.2633 23.3467 82.2833 24.3767C82.3133 26.1967 80.9733 26.9166 80.1434 28.5966C80.0534 28.7766 80.0734 28.7266 79.9834 28.9166C79.4934 29.9066 79.8134 29.4566 79.9534 30.0266C79.9934 30.3966 80.0034 30.4366 79.8534 30.7666C79.6434 31.2465 79.2734 32.3065 79.2234 32.8065C79.1734 33.3565 78.7934 33.5465 79.0034 34.2465C79.1034 34.6065 79.1734 34.2265 79.2334 34.9364L80.2034 37.4764C80.2634 37.7764 80.1734 38.0364 80.2734 38.3064C80.4034 38.6564 80.4534 38.3964 80.4634 39.0163C80.4834 39.5363 80.5534 40.3363 80.4534 40.8263C80.3834 41.1763 80.2434 41.1163 80.0634 41.3663C79.8634 41.6663 80.0734 41.5763 79.7934 41.9063C79.4934 42.2263 79.3734 42.2863 79.1734 42.6763C78.3334 44.2962 77.7934 46.0262 77.7434 47.8661C77.7234 48.6261 77.4934 48.6961 77.4934 49.4161C77.4934 50.3561 77.2734 50.0161 77.1934 50.8861C77.1534 51.246 76.6635 52.116 76.6635 52.116C76.6535 52.286 77.4734 53.456 77.5834 53.566C77.8034 53.816 77.8934 53.966 78.0934 54.286L78.6434 54.956C80.7134 56.6159 82.4733 62.3858 86.2132 63.1157C86.7632 63.2157 87.2632 63.8057 87.9432 63.8557C92.0331 64.7657 96.183 64.7557 98.1129 62.0458C98.8429 61.5558 98.2929 62.1758 99.3929 61.1158C99.6229 60.8958 99.6829 60.6058 99.8729 60.3658C102.293 55.4359 110.723 48.1461 113.483 44.9262C113.503 44.8862 113.523 44.8462 113.543 44.8062C114.273 43.2162 115.582 38.0164 115.632 37.0764C115.672 36.4264 108.713 30.7965 108.763 26.9166C108.783 25.1967 108.983 25.9667 109.003 24.3767C109.003 23.9467 109.063 23.9567 109.243 23.6067C110.283 21.9468 113.363 17.1369 114.793 16.4669C115.283 16.2469 115.532 15.8969 115.902 15.5369C115.932 15.5069 116.042 15.3969 116.072 15.3769L117.952 13.487C118.302 13.057 117.862 13.297 118.882 12.287C120.722 10.4671 116.772 6.39715 114.443 6.49715C113.883 6.52715 114.013 6.57715 113.613 6.70714C113.373 6.78714 104.413 8.6771 103.573 8.84709C102.413 9.19708 97.1029 11.667 96.183 10.667C96.023 10.507 95.943 10.4571 95.813 10.2971C95.633 10.0771 95.703 10.0571 95.553 9.82707C95.383 9.57707 95.313 9.63707 95.153 9.40708C95.063 7.23713 97.5729 3.48722 96.073 0.517297C96.003 0.3873 95.863 0.0973076 95.793 0.00730985C92.5131 -0.0426889 93.673 0.177306 92.8631 0.257304C91.8131 0.357301 87.0532 0.217305 85.3232 0.257304C82.2433 0.327302 75.6335 0.937287 73.9535 3.91721C73.9235 3.96721 73.8835 4.02721 73.8635 4.06721C73.0735 5.57717 71.6136 8.6071 71.9136 10.3871Z"
            fill="#9DD3AF" />
        <path fill-rule="evenodd" clip-rule="evenodd" class="state-map-path" id="ekiti_state_i31xXZEYA"
            d="M74.6935 52.996C76.2335 53.026 76.1235 52.486 76.7235 50.8761C76.7735 50.6361 76.7235 50.4861 76.7735 50.2561C76.8435 49.9361 76.8935 50.1261 76.9635 49.8161C77.4035 47.7161 77.3235 43.7062 78.9834 42.1563C79.4834 41.6963 79.4434 41.4663 79.8334 41.0663C79.9634 40.9463 80.0334 40.8863 80.0534 40.6563L80.0434 38.7964C79.9634 38.3364 79.9934 38.8664 79.8334 38.3664C79.4534 37.1264 79.1934 35.6764 78.5934 34.4865C78.2634 33.8465 79.6434 28.6566 79.9634 28.0466C79.9734 28.0366 79.9834 28.0066 79.9934 27.9966C80.2334 27.4366 80.3434 27.4566 80.6134 26.9566C80.7634 26.6867 81.2134 26.1267 81.4434 25.7967C81.4834 25.7467 81.6933 25.4467 81.6933 25.4467C83.4333 21.3268 77.8934 20.5568 78.4934 17.7669C79.0234 15.2369 79.0334 12.687 76.0735 11.237C75.2135 10.807 73.4336 11.307 72.8136 11.017C72.5136 10.877 72.8836 10.787 71.8836 10.847C71.8736 11.587 71.9936 13.297 71.7836 13.857C67.3437 15.0869 62.6538 12.787 57.4839 12.897C56.894 14.497 55.284 18.6569 55.804 20.3568C55.944 20.8068 55.934 20.2868 56.024 20.7868C56.124 21.3168 56.194 23.9467 55.684 24.6767C55.674 24.6867 55.664 24.7067 55.654 24.7167L55.584 24.8167C55.574 24.8367 55.564 24.8567 55.564 24.8767L55.024 25.9067C54.924 26.0967 54.914 26.1067 54.834 26.2767C54.774 26.4067 54.774 26.4067 54.724 26.5067L54.314 27.3466C54.274 27.4566 54.274 27.5266 54.244 27.5866C54.144 27.7566 53.884 27.9366 53.684 28.0166C53.2141 28.2166 55.064 37.8164 54.374 38.9864C54.174 39.3263 54.254 39.7963 54.254 40.2563C54.274 41.3863 54.244 40.9163 54.014 41.4763C53.914 41.7063 53.994 41.8963 53.984 42.1363C53.954 42.6563 53.724 42.7563 53.534 43.1962C53.354 43.5862 53.564 43.3462 53.284 43.6562C53.694 44.0262 53.1741 43.7362 53.724 43.9762C59.6339 46.9062 71.2736 52.936 74.6935 52.996Z"
            fill="#F6AFCE" />
        <path fill-rule="evenodd" clip-rule="evenodd" class="state-map-path" id="ekiti_state_i31xXZEYA"
            d="M73.3535 69.7956C73.2035 69.6456 73.3735 69.9856 73.9035 70.1156C79.7234 71.4856 72.6036 75.0255 72.3836 80.9153C72.3636 81.3053 72.2236 81.5453 72.1536 81.8953C72.0436 82.3653 71.6836 82.5153 71.3836 82.8353C71.3236 82.8953 71.2836 82.9353 71.2636 82.9553L71.2536 82.8953C71.0536 83.1453 71.0136 83.3853 70.8436 83.6253C71.0836 83.7552 70.9236 83.7153 71.1336 83.8252L72.2336 84.3552L72.9535 83.9552C73.4735 83.7352 74.0535 83.6553 74.9335 83.2153C75.4535 82.9653 74.9435 82.8053 76.0035 82.5953C78.9034 81.6253 88.3332 80.3353 92.2631 81.0553C92.4431 81.0853 92.7531 81.2853 92.9731 81.3853C97.3429 83.3453 102.703 83.7852 107.493 83.8552C107.883 83.8552 108.083 83.8752 108.473 83.8052C108.533 83.6753 108.523 83.6053 108.573 83.4853C108.953 82.5253 108.863 82.1553 109.053 81.5053C109.173 81.0653 109.233 81.5053 109.293 80.7553C109.333 80.1753 109.663 79.7753 109.743 79.2354C109.793 78.9354 110.043 77.7654 110.113 77.5754C112.103 72.4455 114.663 65.9657 118.592 62.0458C118.722 61.9258 109.783 62.2758 104.993 57.3959C104.553 56.9459 104.893 56.9859 104.493 56.5859C104.213 56.3059 103.993 56.3259 104.003 55.7759L103.783 56.1859C103.263 56.8459 100.053 60.8558 100.053 60.8558C96.453 67.3257 84.5133 65.0257 82.3833 60.9358C82.3333 60.8858 80.6534 58.6459 80.3634 58.2059L80.3034 58.0959C79.9834 57.3959 80.1334 57.7859 79.8834 57.4059C79.7334 57.1859 79.6034 56.4959 79.0134 56.8359L78.4834 57.1059C78.5034 57.8959 78.3834 57.4859 78.2634 58.0059C78.1934 58.3559 78.3034 58.7559 78.1934 59.0859C78.1134 59.3259 78.1034 59.1559 78.0234 59.4258C77.7634 60.3458 77.8834 59.8358 77.5034 60.6558C76.4035 63.8457 68.2937 68.7456 73.3535 69.7956Z"
            fill="#D2E28B" />
        <path fill-rule="evenodd" clip-rule="evenodd" class="state-map-path" id="ekiti_state_i31xXZEYA"
            d="M30.1946 57.1859C30.1946 57.3059 30.2146 57.4859 30.1946 57.6059C30.1546 58.0359 30.2046 57.7059 30.0946 57.9059C29.9646 58.1559 29.9446 57.9959 29.9646 58.4159C29.8746 59.1559 28.6647 64.2757 28.2647 65.5157C28.1747 65.8957 28.2047 65.5857 28.0947 65.8957C27.9947 66.1557 28.0747 66.1657 27.9947 66.3757C27.8947 66.6657 27.9247 66.2857 27.7847 66.7657C27.7947 67.0557 28.7647 67.8556 29.0046 68.1256C29.2946 68.4456 29.7846 69.0356 30.2846 69.2756C30.6946 69.4656 31.3346 70.2456 31.8346 70.2956C32.2146 70.3256 32.4746 70.0956 32.6646 69.8856C32.9645 69.5556 32.8346 69.4056 33.3145 68.9756C34.7945 67.6357 35.2445 67.3857 36.7645 66.3157C37.1444 66.0357 37.6544 65.8557 38.0844 65.6457C38.3144 65.5457 38.0744 65.6457 38.2444 65.5657C38.7744 65.2757 38.8144 65.4757 39.1644 65.6457C39.4644 65.7757 39.7344 65.3157 40.0244 65.3557C40.5044 65.4157 40.1044 65.4157 40.4744 65.5457C40.7444 65.6357 40.7344 65.5357 41.0143 65.6657C41.2743 65.7757 41.0143 65.7857 41.4143 65.8357C49.3841 65.8157 49.1741 62.4858 54.654 62.3758C54.904 62.2758 54.544 62.1358 55.304 62.1258C56.624 62.1158 56.194 61.8958 56.854 61.8758C57.5039 61.1858 64.3338 60.3858 65.8637 60.4458C67.3537 59.9458 72.0936 61.5858 73.1736 62.6458C73.7335 63.1958 74.0135 63.5758 74.7735 63.7757C77.6334 61.5158 77.1235 57.4559 79.0034 56.4059L79.2134 56.2859L78.8834 55.8459C78.6834 55.466 78.4634 55.246 78.1034 54.916C77.4934 54.366 77.7134 54.606 77.4434 54.036C77.2735 53.676 76.9135 53.546 76.7535 53.176C76.5835 52.756 76.7835 53.616 76.5235 53.286C75.4035 53.166 75.8935 53.596 73.8335 53.556C69.2037 53.476 58.6939 47.0762 54.044 44.7062C53.774 44.4862 54.014 44.5662 53.644 44.3862C52.7841 43.9662 50.5441 44.9762 49.4641 45.3762C49.1641 45.4962 39.1844 45.4262 38.7844 45.4262C38.0644 45.4262 33.0745 46.2862 32.3146 46.4562C32.3046 46.8262 32.3246 47.1862 32.3246 47.5461C32.3046 48.2261 32.1946 47.8561 32.0946 48.2861C32.0046 48.6161 32.1246 48.9461 31.9946 49.2661C31.9846 49.2961 30.1946 56.9159 30.1946 57.1859Z"
            fill="#91D8F7" />
        <path fill-rule="evenodd" clip-rule="evenodd" class="state-map-path" id="ekiti_state_i31xXZEYA"
            d="M81.9133 102.855C81.9133 102.355 81.9933 101.475 81.7833 101.075C80.4234 98.5149 84.1733 93.885 86.0332 92.095C86.5332 91.6051 86.2832 91.635 86.8432 91.0251C88.3632 89.5151 89.8631 88.2751 91.3431 86.7652C91.4331 86.6352 91.6231 86.3052 91.6231 86.1552C92.0631 85.2052 92.0531 83.2553 92.4331 82.8253L92.8931 82.1353C93.0331 81.9553 92.9731 82.2553 93.0131 81.9053C92.0031 81.5153 92.4431 81.4353 91.0231 81.4653C88.6332 81.5053 77.1235 81.4153 75.5135 83.6552C75.0635 83.6852 74.5035 83.7052 74.3635 84.2052C72.4436 84.1952 72.9836 85.2052 71.4336 84.7052L70.8236 84.3652C70.3736 84.0852 63.5038 85.7852 62.3438 85.2352C62.0538 85.0952 62.4038 85.0952 61.9338 84.9852C61.4139 84.8552 60.9839 85.1252 60.5539 85.2352C60.5239 85.2352 60.5039 85.2452 60.4739 85.2552L60.3339 85.3052C60.3139 85.3152 60.2839 85.3252 60.2639 85.3352C60.2039 86.2452 60.4539 85.6552 60.5539 85.9952C60.5639 86.3052 60.5239 86.5952 60.6439 86.8552L61.1339 88.5751C61.5638 89.5251 62.1838 93.115 62.3238 94.185C62.5038 94.545 62.5738 95.415 62.3538 95.8249C62.1438 96.2149 62.3338 96.8749 62.1538 97.2649L61.8038 97.9849C62.6538 98.0349 62.2938 97.9049 62.8638 98.1649C63.1838 98.3049 63.6838 98.2349 64.0638 98.2449C64.2838 98.7549 64.9138 98.6649 65.2238 99.0549C70.2336 105.215 66.9537 101.025 68.6837 107.355C68.7337 107.525 68.7437 107.495 68.8037 107.585C69.2937 108.465 68.1837 116.864 69.2937 118.224C74.1235 124.124 71.8536 121.774 78.9534 121.484C79.2734 121.474 79.5434 121.364 79.7734 121.274C81.3034 120.714 82.1133 120.614 83.8333 119.594L85.3433 119.144C85.4733 116.264 79.4934 106.425 81.4634 103.375C81.5434 103.445 81.9133 102.855 81.9133 102.855Z"
            fill="#91D8F7" />
        <path fill-rule="evenodd" clip-rule="evenodd" class="state-map-path" id="ekiti_state_i31xXZEYA"
            d="M5.45523 28.0166L5.02524 28.9666C4.96524 29.1766 5.48523 29.1366 5.61522 29.6266C7.06519 32.8665 8.65515 35.0764 10.1351 38.5564C10.3951 39.0563 10.3951 39.8463 10.9851 40.7963L12.0451 42.9563C12.1651 43.1962 12.0651 42.9763 12.1651 43.1462C15.835 49.1261 18.6549 49.6861 24.3848 54.566C24.7947 54.916 24.5648 54.486 25.2447 55.1959C25.6547 55.6159 25.5447 55.6459 26.1047 55.7459C26.3847 55.8259 26.1547 55.7259 26.3547 55.8659C26.5147 55.9859 26.4347 55.9359 26.5647 56.0759C28.2447 57.7959 27.8547 57.3059 28.6547 58.8859C28.8047 59.1659 28.7447 59.3258 28.9346 59.5258C30.1746 55.8359 30.0446 55.6559 31.4146 50.2461C31.9646 47.2161 31.9046 44.3162 32.3346 40.1763C32.3246 37.5464 29.5846 24.3167 26.7447 23.2467C25.9647 22.9567 26.1647 22.6268 25.7547 22.5168C25.6147 22.5268 20.2149 18.0569 19.1449 17.7769C19.0449 17.7169 19.0849 17.6069 19.0749 17.7569C17.7249 18.3169 5.82522 27.2666 5.45523 28.0166Z"
            fill="#F6AFCE" />
        <path fill-rule="evenodd" clip-rule="evenodd" class="state-map-path" id="ekiti_state_i31xXZEYA"
            d="M73.7335 70.5956C73.4435 70.4756 73.5235 70.5856 73.2535 70.5056C72.9036 70.3956 73.6035 70.5156 73.3335 70.4156C73.0036 70.2956 73.2036 70.4756 72.7136 70.2256C72.5636 70.1556 72.7636 70.2256 72.5436 70.1556C72.2936 70.0756 72.2836 70.1656 72.0536 70.0456C71.9136 69.9056 71.8036 69.8756 71.5436 69.8256C71.5136 69.7256 71.4936 69.5956 71.4536 69.5056C70.9436 68.4356 70.8236 68.9256 71.2936 67.8756L72.1736 66.3757C72.2836 66.2657 72.3336 66.2357 72.4236 66.1357C72.8436 65.7257 74.1235 64.5957 74.3535 64.2257L72.3336 62.2458C71.9836 61.8958 68.7137 61.1058 68.1437 61.0258C63.5238 60.3758 52.3541 62.5957 48.1642 65.1957C47.9042 65.3557 48.1442 65.2257 47.8042 65.3657L45.9042 66.1957C45.3942 66.4257 45.2442 66.5656 44.5943 66.5557C37.2144 66.5656 38.9344 64.1357 32.9845 70.0356L32.8945 70.1156C32.8845 70.1256 32.8645 70.1456 32.8545 70.1556C32.7945 70.2256 32.7645 70.2756 32.6646 70.3756C32.4546 70.6056 32.4746 70.5756 32.1246 70.5956L32.3146 70.7055C32.4346 70.7655 32.3846 70.7355 32.4746 70.7955C33.4245 71.3755 34.1345 71.6055 34.9745 72.0555C35.2245 72.1855 35.5945 72.2155 35.9345 72.4055C40.6144 74.7154 44.1843 76.2054 48.0642 78.1654C48.1142 78.1854 48.2142 78.2554 48.2242 78.2554L48.8242 78.5554C48.8442 78.5554 48.8642 78.5654 48.8742 78.5754C48.8942 78.5854 48.9142 78.5954 48.9342 78.6054C48.9541 78.6154 48.9741 78.6254 48.9941 78.6254L49.6441 78.9653C49.9441 79.1053 50.0241 79.0253 50.2841 79.1353C60.3239 84.4552 57.5339 84.1352 68.2937 84.1952C68.8837 84.2052 69.0537 83.9652 69.3836 83.8052C70.4136 83.3252 71.0036 82.5953 71.6236 81.4953C72.4836 77.1154 72.5236 76.6654 75.0735 73.5655C75.6735 71.3255 76.0535 71.1255 73.7335 70.5956Z"
            fill="#9DD3AF" />
        <path fill-rule="evenodd" clip-rule="evenodd" class="state-map-path" id="ekiti_state_i31xXZEYA"
            d="M18.0949 99.7349C19.4549 99.7049 29.0146 98.6449 29.7046 98.4549C30.0046 98.3749 29.7646 98.5149 30.0246 98.2549L31.5346 96.7349C31.6646 96.6149 31.7246 96.5549 31.7946 96.4249C33.6645 92.995 38.8444 86.9552 41.2743 83.7752C41.7343 83.1753 41.5843 83.1353 41.8343 82.6653C42.0443 82.2553 41.9543 82.2553 41.9543 81.7353C41.9643 80.8153 42.2643 81.5953 42.2543 80.0153C42.2443 79.2054 42.3443 79.5454 42.4643 79.2254C42.5343 79.0554 42.4843 78.8854 42.5043 78.7054C42.5543 78.2454 42.5043 78.5554 42.6343 78.3154C43.2443 77.2054 43.8443 76.9754 42.6743 76.3854C37.2744 74.8555 27.1647 68.0556 27.6647 67.3857C27.1947 68.9356 25.9547 72.0455 25.9647 73.3055C23.8248 84.0452 16.8849 83.2553 10.8151 82.2753C10.7551 82.2653 9.67512 81.9953 9.64512 81.9853C9.45513 81.9153 9.56512 81.8953 9.31513 81.8153C8.93514 81.7053 8.99514 81.8053 8.56515 81.5953C7.85517 81.2453 7.90516 81.1853 7.51517 80.4953C6.84519 80.7653 7.25518 80.7053 7.49517 81.2053L8.06516 82.3553C13.415 93.565 7.02519 99.6749 18.0949 99.7349Z"
            fill="#D2E28B" />
        <path fill-rule="evenodd" clip-rule="evenodd" class="state-map-path" id="ekiti_state_i31xXZEYA"
            d="M85.2133 94.395C84.1733 95.445 84.7433 94.915 84.3933 95.445C84.1433 95.855 84.0633 95.615 83.7433 96.2549C81.0134 101.635 82.4033 96.5849 82.3133 103.225C82.3133 103.785 82.1833 103.645 82.0933 103.985C81.4834 103.665 81.2434 105.735 81.8933 106.435C82.0233 106.565 85.4133 116.964 85.4633 117.494L85.6532 118.414C85.7832 118.834 85.7332 119.034 86.3032 118.964C86.7632 118.904 86.3932 118.854 86.8232 118.734C89.0132 118.094 92.0431 117.774 93.843 115.944C94.683 115.084 95.883 114.154 96.343 113.035L96.383 112.915C96.493 112.645 96.613 112.635 96.793 112.355C101.853 104.945 107.333 96.1149 107.313 87.1252C107.323 86.8452 108.283 84.7052 108.433 84.3652C108.443 84.3452 108.463 84.3152 108.473 84.3052C108.483 84.2852 108.493 84.2652 108.513 84.2452C106.483 84.1852 107.253 84.4752 105.943 84.4652C103.353 84.4452 96.033 83.1853 94.703 82.4153C94.393 82.2353 93.963 82.3453 93.6631 82.1453C93.0831 81.7653 94.083 82.2753 93.5031 82.0353C92.9531 82.2653 92.2931 84.4952 92.2931 85.1552C92.2931 86.3452 86.2832 93.315 85.2133 94.395Z"
            fill="#F6AFCE" />
        <path fill-rule="evenodd" clip-rule="evenodd" class="state-map-path" id="ekiti_state_i31xXZEYA"
            d="M25.4447 55.7659C24.8847 55.6659 24.9947 55.6359 24.5847 55.216C21.4148 52.796 15.745 48.4361 13.895 46.3862C12.2851 44.0662 12.0651 44.2362 10.7151 41.4763C9.79511 40.0163 9.01513 36.4564 8.00516 34.8865C7.31518 33.5065 6.4552 32.4265 5.82521 31.1665C5.73521 30.9966 5.70521 30.8766 5.59522 30.6566L5.16523 29.7066C4.40525 29.5666 4.50524 29.8366 4.27525 30.2866C4.16525 30.5166 4.05526 30.5166 3.92526 30.6666C1.73531 34.7165 -0.334636 37.6964 0.0453546 42.3863C0.0853537 42.8163 0.185351 42.8563 0.455344 43.0863L2.0953 44.7162C2.4253 45.0462 2.4153 44.9262 2.96528 44.9362C6.4752 44.9962 9.45512 48.0261 12.2251 49.8061C20.2249 57.6359 15.715 61.3758 11.7251 69.5556C11.7151 69.5656 11.7051 69.5856 11.6951 69.6056C10.6751 71.5256 8.89514 78.4554 7.68517 79.6953C7.76516 79.9253 8.04516 80.0753 8.13515 80.2953L8.19515 80.4853C8.20515 80.5053 8.20515 80.5253 8.21515 80.5453C8.43515 81.0553 8.84514 81.1953 9.31513 81.3053C9.77511 81.4053 9.36512 81.4953 10.1551 81.5353C13.645 81.6853 20.7848 83.2753 23.2848 78.1854C25.0147 74.6555 28.0547 63.9557 28.5147 60.5958C28.5147 60.5558 28.0947 58.2959 28.0547 58.1559C27.8647 57.5759 25.7147 56.4659 25.4447 55.7659Z"
            fill="#9DD3AF" />
        <path fill-rule="evenodd" clip-rule="evenodd" class="state-map-path" id="ekiti_state_i31xXZEYA"
            d="M26.3247 22.4267C26.7347 22.5367 26.5347 22.8667 27.3147 23.1567C31.5546 25.8267 33.4145 41.5563 32.5646 44.2662C32.5546 44.9862 32.2446 44.8062 32.3246 45.9062C33.6845 46.1662 37.2144 44.9462 39.1144 44.9462C42.6343 44.9462 48.5542 45.8162 51.8341 44.0662C52.1341 43.9062 52.0341 44.0162 52.3541 43.9562C54.654 43.5062 54.534 28.8666 51.9541 27.6566C49.8041 26.8766 47.5242 25.9467 45.4542 25.0067C35.7945 21.0268 39.2344 21.1068 36.9844 18.8968C36.9344 18.8668 36.7745 18.7968 36.7645 18.7868C31.2046 16.0969 30.5046 18.4868 25.7347 21.8768C25.8547 22.2068 26.1747 22.1868 26.3247 22.4267Z"
            fill="#FDD1A1" />
        <path fill-rule="evenodd" clip-rule="evenodd" class="state-map-path" id="ekiti_state_i31xXZEYA"
            d="M104.163 55.556C104.413 55.8459 104.523 55.536 104.663 55.8359C106.503 59.5159 113.403 61.5158 120.552 61.2458C120.562 61.2358 120.592 61.2258 120.602 61.2158C120.622 61.2058 120.642 61.1958 120.662 61.1858C121.882 60.5558 122.792 59.8458 123.822 59.2859C124.072 59.1459 124.172 58.8959 124.392 58.7159C127.182 56.3659 127.262 50.4461 130.722 51.0561C131.152 51.1361 130.812 51.0061 131.082 51.1861C131.332 51.3561 131.012 51.1961 131.432 51.3861C137.002 53.616 133.852 58.7259 141.872 50.2661L142.132 49.7161C142.312 49.2961 142.472 48.8161 142.742 48.4361L142.032 48.0961C142.012 48.0861 141.992 48.0761 141.972 48.0661L140.872 47.6161C139.952 47.4262 130.972 44.5462 129.642 44.0362C126.672 42.9163 120.852 39.7363 117.672 37.9364C117.462 37.8264 117.782 37.9064 117.462 37.8264C117.242 37.7664 116.772 37.6964 116.502 37.6464C116.442 37.7164 116.382 37.7664 116.322 37.8664L116.222 38.0964C116.222 38.1164 116.212 38.1364 116.202 38.1564C115.293 39.8863 115.143 42.6963 114.483 44.0762L113.773 45.2262C113.703 45.3762 113.683 45.4562 113.623 45.5762C113.573 45.6762 113.613 45.5962 113.533 45.7262C111.253 48.5361 106.893 52.866 104.163 55.556Z"
            fill="#FDD1A1" />
        <path fill-rule="evenodd" clip-rule="evenodd" class="state-map-path" id="ekiti_state_i31xXZEYA"
            d="M30.2646 98.4349C31.2346 98.5749 30.5346 98.2549 31.4146 98.2349C37.0344 98.0949 56.444 96.7949 60.2939 97.7649C60.6039 97.8449 61.1838 98.4749 61.6838 97.4549C61.8038 97.2049 61.8738 97.3349 61.9038 96.9549C62.1538 94.095 61.5438 89.5851 60.2039 86.8952C60.0039 86.5052 60.1039 86.9652 60.0339 86.5452C59.9739 86.1652 59.7439 86.0952 59.8039 85.7152C59.8839 85.2852 60.0639 85.5852 59.9939 85.1552C59.9639 84.9752 59.9539 85.0252 59.8339 84.8952L59.0139 84.2552C58.8139 84.1652 58.7439 84.1152 58.5339 84.0152L58.1839 83.8252C57.8939 83.6953 57.8539 83.6153 57.5439 83.5553C57.1539 83.4853 47.3042 78.4154 47.2742 78.3854C46.2942 77.3854 45.9642 77.9154 44.8143 77.2754C43.8443 77.0054 43.4643 77.4754 43.5243 77.5154L43.2543 77.9454C42.9443 78.3954 42.9343 78.5354 42.8943 79.0354C42.8443 79.6554 42.6343 79.2454 42.6443 80.2653C42.7043 85.0852 39.1744 86.5452 36.7045 90.2851C36.5445 90.5351 36.6445 90.5351 36.4545 90.7751C36.3945 90.8551 36.1545 91.0751 36.0845 91.1451C35.8045 91.4351 35.8445 91.5551 35.4745 92.015C35.3145 92.215 35.3845 92.255 35.2645 92.455L34.3245 93.715C34.1145 94.165 33.9245 94.205 33.6945 94.555C33.4845 94.855 33.4345 95.115 33.1045 95.455C32.9045 95.665 32.5646 95.9349 32.4246 96.1449C32.2146 96.4649 32.1146 96.7049 31.7846 96.9849C31.2646 97.4349 30.8146 97.9249 30.2646 98.4349Z"
            fill="#F6AFCE" />
        <path fill-rule="evenodd" clip-rule="evenodd" class="state-map-path" id="ekiti_state_i31xXZEYA"
            d="M0.305347 63.5757C0.245348 63.9557 0.405344 64.1857 0.545341 64.4957C0.59534 64.6057 0.58534 64.5857 0.635339 64.6657L0.905332 65.4457C1.24532 66.0857 0.795335 65.1357 1.02533 65.6457C2.4053 69.0156 3.67526 71.7755 4.84523 75.2654C5.05523 76.3354 6.0552 78.0354 6.53519 79.0553L6.64519 79.2753C6.84519 79.6453 6.79519 79.5253 6.80519 80.0253C7.10518 79.8153 7.49517 79.4753 7.64517 79.1253C8.15515 77.9254 8.61514 76.7654 9.02513 75.5254C9.61512 67.3556 19.7549 60.1158 14.035 53.146C11.9151 49.5061 5.75521 45.7462 2.78529 45.5562C1.85531 45.4962 2.3953 45.6862 1.69531 45.1262C1.30532 44.8162 1.09533 44.5262 0.735336 44.1362C0.705337 44.1062 0.525341 43.9362 0.485342 43.9062C0.225349 43.6862 0.505342 43.8062 0.125351 43.6862C0.105352 44.6262 0.325346 44.1462 0.365345 44.7962C0.405344 45.2862 0.725337 46.0062 0.875333 46.6661C2.59529 54.236 1.40532 56.9759 0.305347 63.5757Z"
            fill="#F6AFCE" />
        <path fill-rule="evenodd" clip-rule="evenodd" class="state-map-path" id="ekiti_state_i31xXZEYA"
            d="M25.2847 21.5968C25.4747 21.6768 25.4147 21.6468 25.6147 21.6868C26.4147 20.2668 31.4646 16.6369 33.8945 16.9969C34.1045 17.0369 34.3645 17.1669 34.5745 17.2369L35.9945 17.9369C37.3444 18.6369 36.8645 18.5469 38.0544 18.0169C40.7944 16.8069 45.0342 13.267 45.9642 10.9971L46.2842 11.0071C46.2942 10.9871 46.3442 10.9071 46.3542 10.8871L46.4342 10.7571C46.1242 10.6371 46.4742 10.7771 46.2242 10.6471L45.9342 10.5071C45.6542 10.3671 45.4142 9.97708 45.1342 9.84708C39.9444 7.33714 40.3344 4.05722 31.3046 8.62711C31.1346 8.71711 31.2046 8.68711 31.0946 8.74711L29.2946 9.76708L28.6547 9.3071C27.8747 8.9471 27.7247 8.13712 26.6747 7.81713L26.2247 8.45712C25.0247 13.067 22.6748 14.077 19.8149 16.9969C19.7949 17.0069 19.6949 17.1169 19.6949 17.1269C19.5749 17.2669 19.6249 17.2069 19.5249 17.3869C19.9049 17.5669 19.6449 17.5569 19.9849 17.6669L20.7748 17.9469C20.7948 17.9569 21.0548 18.0669 21.0748 18.0669C21.5548 18.2469 25.1647 21.2768 25.2847 21.5968Z"
            fill="#9DD3AF" />
        <path fill-rule="evenodd" clip-rule="evenodd" class="state-map-path" id="ekiti_state_i31xXZEYA"
            d="M37.6244 18.7368C37.5744 19.3968 38.1144 19.7168 38.3344 20.2268C38.5744 20.7668 38.7544 20.6368 39.0544 21.4368C39.0844 21.5268 39.0944 21.5968 39.1044 21.6868C39.1144 21.6868 39.2944 21.7268 39.2944 21.7268C40.6844 22.4367 50.7641 27.2666 52.6941 27.2666C53.744 27.2666 53.124 27.3766 53.674 27.5466C53.874 27.3366 53.984 27.0366 54.084 26.7666C56.754 21.3668 54.254 17.7869 56.554 13.997C56.794 13.597 56.904 13.497 56.894 12.897C56.374 12.887 55.824 12.877 55.304 12.877C50.3441 12.897 51.7341 14.2769 46.8042 11.227C43.3543 14.8269 42.5243 16.4569 37.6244 18.7368Z"
            fill="#91D8F7" />
        <path fill-rule="evenodd" clip-rule="evenodd" class="state-map-path" id="ekiti_state_i31xXZEYA"
            d="M116.732 32.9065L121.492 32.9465L121.502 28.2266L116.742 28.2166L116.732 32.9065Z" fill="white" />

    </svg>