<svg viewBox="0 0 106 129" fill="none" xmlns="http://www.w3.org/2000/svg">
        <path fill-rule="evenodd" clip-rule="evenodd" class="state-map-path" id="enugu_state_aBVUhi6U8"
            d="M24.711 58.6984C24.711 59.3284 24.171 59.9484 24.591 60.6284C24.851 61.0383 24.631 61.8383 25.181 62.2383C25.271 62.3083 26.4709 62.6883 26.8209 62.9083L29.3109 64.6383C29.4508 64.7382 29.4009 64.7182 29.4708 64.7582C29.8108 64.9482 29.8308 64.7782 30.2708 65.0582C31.0708 65.5682 33.6107 64.9182 34.6807 65.2582L43.1405 70.4981L47.6504 74.278C47.6504 74.278 47.7804 74.388 47.8004 74.408L48.3604 74.938C48.7404 75.328 49.1804 75.678 49.5004 76.108C49.6803 76.348 49.6004 76.308 49.7203 76.538C49.8503 76.788 50.3203 77.8379 50.3503 78.1979C50.4603 79.3879 50.2803 79.3379 50.0703 80.2379C49.9603 80.7579 50.1003 80.6479 49.8303 81.0878C49.0504 82.3178 48.9804 82.9478 47.4104 83.8378C47.2004 83.9478 47.2604 83.9878 47.0204 84.0778L46.2104 84.3578C45.9404 84.4978 45.5605 84.4778 45.1905 84.4878C44.4605 84.4978 44.7805 84.4878 44.3705 84.7278C44.2705 84.7878 43.1105 85.0977 42.6805 85.3577C41.1406 86.2677 40.6706 86.6777 39.2006 87.6777C38.9506 87.8477 38.8506 87.9577 38.5906 88.1477L37.5206 88.9177C37.5007 88.9377 37.4407 88.9876 37.4107 89.0076C37.3007 89.0876 37.3807 89.0376 37.2407 89.1176C36.4207 89.5676 35.9107 90.1676 34.9607 90.3176C34.9507 90.8176 35.6807 91.2776 36.1107 91.5076C36.2707 91.5976 36.3207 91.5776 36.4907 91.6676C37.1807 92.0176 37.8106 92.2276 38.3506 92.8676C38.6106 93.1675 38.5206 93.1275 38.8206 93.4075L40.0306 94.3175C41.2206 95.1575 40.8406 94.7775 41.5406 95.8575C41.7905 96.2575 41.6405 96.2075 41.8205 96.5875C41.9905 96.9475 42.0105 96.7975 42.1005 97.3374C42.1705 97.7974 42.2205 97.7074 42.3305 98.1074C42.4105 98.4074 42.4205 98.7974 42.4805 99.0574C42.9105 99.1174 42.8605 99.0174 43.1305 98.8574L44.0005 98.3474C44.1305 98.2474 44.1505 98.2174 44.2605 98.1474C44.9905 97.7374 45.6504 97.6574 46.5804 97.6774C47.7404 97.7074 47.9504 98.6574 48.7804 97.2274C49.0104 96.8275 49.0704 96.7975 49.1904 96.2975C49.3404 95.6375 49.4404 96.1175 49.5104 95.2175C49.5604 94.6075 50.0203 93.7775 50.3503 93.2875C50.9203 92.4376 51.6503 91.8976 52.2503 91.0576C52.6403 90.5076 53.0703 89.9976 53.1303 89.2476C53.1803 88.5077 53.2503 88.6877 53.4203 88.1777C53.5803 87.6677 53.3603 87.5777 53.6702 87.0477L54.5102 85.1977C55.1302 83.9778 55.4202 84.0278 55.1702 83.2778C55.1602 83.2378 55.1502 83.2078 55.1402 83.1778C55.1302 83.1478 55.1102 83.1078 55.1002 83.0778C54.8202 82.8978 54.6102 81.9778 54.5102 81.6678C53.9202 79.7679 54.5802 79.0679 54.5802 77.9179C54.5902 77.0279 54.7002 77.2479 54.8002 77.1179C55.1702 76.628 54.6802 76.628 55.9802 75.088C56.9602 73.938 55.7202 74.828 56.0502 71.4781C56.1102 70.8381 56.1902 71.2381 56.3402 70.7781C56.4902 70.3281 56.3302 70.3581 56.5802 69.8881C56.7702 69.5481 56.7002 69.4781 56.8402 69.1481C57.0402 68.6782 57.0202 69.0081 57.1202 68.2782C57.1602 67.9282 57.2002 67.7682 57.2102 67.3382C57.2202 66.6882 57.2902 66.8582 57.3602 66.4282C57.5402 65.3182 57.4502 63.4883 57.4702 62.2883C57.4902 60.8683 57.4902 59.4684 57.4802 58.0484C57.4702 56.8184 57.5702 54.9785 57.4302 53.8185C56.5102 53.7785 57.0502 54.0785 56.3302 54.1585L51.7303 54.1985C50.6503 54.1685 50.3803 53.9985 49.5604 53.3285L48.2004 52.2886C47.6904 51.9186 48.4104 52.2986 47.5904 51.9086L46.2904 51.3486C45.6504 51.1686 45.8504 51.5086 45.0005 51.0786C44.3705 50.7586 44.8205 51.3086 43.4305 50.3486C42.8805 49.9686 42.9605 49.9086 42.6505 49.6486L41.6005 49.1386C40.8306 48.9586 41.3306 48.8386 40.5006 48.7186C39.6506 48.5986 40.5306 48.5886 39.2806 48.3687L39.3106 48.3487C38.4706 48.2787 39.1306 48.1087 37.7406 48.0687C36.8507 48.0387 37.3107 47.8087 36.4107 47.6887C35.1607 47.5087 36.4407 47.4887 35.0907 47.2887C34.5107 47.2087 34.4207 46.9587 33.6007 46.9987C32.8308 47.0387 33.3908 47.2187 32.2908 47.3187C31.2408 47.4187 30.4908 47.5087 29.7208 48.2787L29.1609 48.9986C29.0809 49.1386 29.1009 49.1786 29.0209 49.3286L28.4409 50.3886C28.2409 50.8386 28.4609 50.8186 27.8809 51.5886C27.7009 51.8186 27.2809 52.2586 27.0409 52.5086C26.2709 53.3385 26.2809 53.1985 25.4509 54.3085C24.971 54.9585 25.171 54.7885 25.101 55.7485C25.061 56.3085 24.871 56.5485 24.801 57.1584C24.741 57.6284 24.861 58.3484 24.711 58.6984Z"
            fill="#FDD1A1" />
        <path fill-rule="evenodd" clip-rule="evenodd" class="state-map-path" id="enugu_state_i4OHYTkyJ"
            d="M95.5192 25.7292C94.8592 25.7792 95.5592 26.0792 93.3093 26.0292C92.6593 26.0092 92.6993 25.9092 92.2893 25.7592C92.0993 25.6892 91.9193 25.6792 91.7593 25.6292C91.1793 25.4492 91.7093 25.2492 89.9993 25.3492C89.0894 25.4092 88.8594 25.8092 88.3794 26.3392C88.1394 26.5992 87.9194 26.7792 87.7394 27.0792C86.9494 27.0892 85.8294 26.9392 85.2195 27.2392C84.6895 27.4992 84.5095 27.3592 84.1195 27.5292C83.9995 27.5792 83.7095 27.9192 83.1095 27.7892C82.3795 28.8891 83.4295 28.3192 82.2495 29.8791C81.9295 30.2991 80.6096 31.5791 80.1596 31.8391C79.7696 32.0691 80.0196 32.0691 79.6796 32.1591C78.1396 32.5491 72.5598 31.6491 71.7198 32.869C71.0798 33.799 71.4398 33.939 71.1498 34.319C71.1398 34.329 71.1198 34.349 71.1098 34.359C70.1198 35.549 70.6698 35.789 68.1199 36.059C65.7599 36.319 65.27 35.899 62.64 36.359C62.01 36.469 61.3001 36.339 60.7901 36.569C60.7901 36.589 60.7801 36.599 60.7801 36.629C60.7601 37.4289 60.8101 37.1889 61.2701 37.9289C61.3201 37.9889 61.3501 38.0289 61.3801 38.0889L62.13 38.9989C62.27 39.1589 62.28 39.2189 62.4 39.3689C62.68 39.7189 62.72 39.5389 62.97 39.8989C63.6 40.7888 63.28 41.1888 63.69 42.7188C63.82 43.2188 63.74 42.8388 63.9 43.1288L65.35 45.2487C65.8099 45.9387 65.33 47.7487 65.6699 48.7087C65.8099 49.0786 65.9199 49.1786 65.8499 49.6686C66.3999 49.9386 66.1299 49.9686 66.3299 50.5386C66.4699 50.9286 66.4199 50.5586 66.6699 51.2986L66.7299 51.4486C67.5699 50.5286 67.8399 49.6786 69.3099 49.3986C70.5698 49.1486 70.9798 49.5586 71.3298 49.6586C71.9298 49.8186 72.2898 49.8986 72.9098 50.3886C73.0498 50.5086 73.1298 50.5486 73.3198 50.7186L74.5497 51.8886C75.0997 52.4286 75.2397 52.6286 75.8297 53.0785L78.0696 54.5285C78.5896 54.9585 79.8596 54.7785 80.8996 54.7585C81.6196 54.7585 81.7195 54.8285 82.2795 54.5585C83.0095 54.2185 83.8595 54.7685 83.6695 54.0785C83.5995 53.7985 83.4795 54.0285 83.3795 52.8985C83.3095 52.0986 83.2195 51.7186 83.8295 51.4186C84.6195 51.0186 84.6995 51.3386 85.3995 51.3786C85.9894 51.4186 86.7394 51.4086 87.3394 51.4086C89.2194 51.4086 93.4493 51.7186 95.0192 51.3686C95.0192 51.0086 95.0592 51.0786 95.1892 50.8286C95.4792 50.2586 95.1392 50.5486 95.5792 49.6286C95.6292 49.5186 95.6092 49.5586 95.6592 49.4286L96.8392 46.9287C96.9792 46.7087 97.1292 46.7087 97.4792 46.0087C97.5592 45.8687 97.5192 45.9287 97.5792 45.8387L97.6592 45.7387C97.9291 45.3787 97.7692 45.5787 97.9091 45.2387C98.0491 44.9087 98.2991 44.6788 98.6791 43.7488L99.6091 41.5188C99.5991 41.1388 99.5891 41.1488 99.7591 40.8588C100.119 40.2589 99.8891 40.4289 100.289 39.9189C100.539 39.5889 100.589 39.5689 101.069 39.2789L103.099 37.8389C103.369 37.6489 103.639 37.5089 103.929 37.2789C104.219 37.0589 104.449 36.9489 104.639 36.629C104.909 36.169 105.149 36.029 105.109 35.859C104.679 35.639 104.319 35.929 103.939 35.649C103.339 35.189 103.639 32.4991 103.689 31.9891C103.759 31.3591 104.069 29.1391 103.899 28.4292C103.849 28.2092 103.839 28.2492 103.819 28.2192C103.179 26.9292 103.439 27.5592 102.669 26.7092C102.119 26.0992 102.439 25.7092 101.369 25.3192C101.219 25.2692 101.289 25.2892 101.129 25.2092C100.799 25.0492 100.769 25.0592 100.309 25.0692C99.2691 25.0792 97.7292 24.9092 96.5792 25.4392C96.0592 25.6692 96.3792 25.7292 95.5192 25.7292Z"
            fill="#F6AFCE" />
        <path fill-rule="evenodd" clip-rule="evenodd" class="state-map-path" id="enugu_state_FzEyG75Gd"
            d="M26.8409 23.8693C26.7909 24.2193 26.4909 24.5593 26.1909 24.6993C25.8509 24.8492 25.4409 24.9292 24.871 24.9492L24.381 25.6292C23.801 26.8592 23.841 27.2892 22.461 27.8692C22.321 27.9292 22.371 27.9092 22.281 27.9592L21.661 28.2592C20.5311 28.7292 20.9711 28.8991 20.1511 29.7791C19.5811 30.4091 19.1011 31.1291 18.4711 31.6891L17.6511 32.6291C17.4211 33.029 17.2411 33.359 16.8312 33.639C16.0812 34.159 14.9212 34.029 14.3712 34.879C14.1912 35.149 13.8112 35.279 13.5212 35.489C13.2012 35.709 13.3612 35.729 12.9113 35.779C11.3113 35.949 11.4213 35.189 9.78133 35.339C9.07135 35.409 8.08137 36.079 7.19139 35.619C6.21142 35.099 6.38141 35.089 6.23142 34.159C6.17142 33.809 6.20142 34.119 6.07142 33.709C5.77143 32.7791 6.29142 32.0591 6.28142 30.4491C6.27142 29.7791 6.19142 29.5191 5.94142 28.9491C5.77143 28.5792 5.92143 28.7192 5.63143 28.5992C4.25147 27.9292 2.8015 30.7691 2.7915 30.8291C2.64151 31.5391 2.7815 33.479 2.7615 34.319C2.7515 34.949 2.52151 35.109 2.39151 35.689C2.29151 36.109 2.15152 36.199 1.92152 36.499C1.91152 36.509 1.90152 36.529 1.88153 36.549L1.70153 36.729C1.32154 37.0589 1.09154 37.1689 0.641556 37.3889C0.611556 37.8789 0.441561 43.4288 0.85155 43.9288C1.51153 43.8888 1.03155 43.8388 1.42154 43.6488C1.68153 43.5188 1.80153 43.6088 2.15152 43.4388L5.18144 42.9388C5.79143 42.9388 6.26142 42.8788 6.7514 43.1288C7.18139 43.3488 7.74138 43.1788 8.30137 43.3188C8.72136 43.4288 8.56136 43.5188 8.82135 43.5988C9.05135 43.6688 9.37134 43.6288 9.65133 43.7088C10.0013 43.8088 9.95133 43.8488 10.2613 43.9488C10.7313 44.0888 11.0813 44.2488 11.4313 44.5288L11.9013 44.9887C11.9813 45.0587 12.2713 45.2287 12.4013 45.3087C12.9813 45.6987 13.3212 46.4587 14.1412 45.9487C14.9712 45.4187 15.6212 45.9087 16.1612 46.0687C16.5312 46.1787 16.5312 46.0787 16.8912 46.2687L18.9611 47.0487C19.6511 47.4587 20.5111 47.6587 21.181 48.0487C21.531 48.2487 21.201 48.2487 21.841 48.2987C21.901 48.8187 21.981 48.5887 22.311 49.0086L22.391 49.1086C22.691 49.5186 22.711 50.4086 22.461 50.7786C22.311 51.0086 22.411 50.6286 22.261 51.1586C22.151 51.5386 22.331 51.3186 22.101 51.6086L21.0011 53.3585C20.8211 53.6485 20.9011 53.3985 20.8011 53.8085L20.4811 54.6685C20.0911 55.8385 19.3711 56.7085 18.5311 57.5984L18.2311 57.9384C18.2211 57.9584 18.1711 58.0184 18.1511 58.0484L17.6411 58.9184C17.5411 59.0384 17.5011 59.0984 17.3811 59.2184C17.3111 59.2884 17.3111 59.2984 17.2311 59.3584C17.2211 59.3684 17.1911 59.3784 17.1811 59.3984L16.8712 59.6184C16.7112 59.7984 16.6512 59.8884 16.3812 59.9684C16.3012 60.2884 16.4112 60.0884 16.2612 60.2884C15.6312 60.3484 15.5612 60.2884 15.1212 60.5484C13.4212 61.5583 13.7112 62.9383 13.5212 63.3983C13.4212 63.6383 13.4312 63.3983 13.3112 63.8183L13.2312 65.9682C13.2612 67.3682 13.1612 66.8882 13.4712 67.9582C13.5412 68.1982 13.5212 68.3682 13.6012 68.5982C14.8212 69.0882 15.5512 68.5182 16.1212 68.4982C16.9012 68.4682 16.9312 68.3982 17.5711 68.0482C17.8411 67.9082 17.5711 68.0582 17.7811 67.8982C17.8511 67.8482 17.9211 67.8082 18.0011 67.7482C18.0111 67.7382 18.0411 67.7182 18.0511 67.7082L18.2011 67.5882C18.2211 67.5782 18.2411 67.5582 18.2511 67.5482C18.3911 67.4482 18.5611 67.4082 18.7411 67.2982C19.4111 66.8582 20.0411 65.8982 20.3511 65.1982L22.011 62.3683C22.401 61.9083 23.741 60.4784 23.881 59.7084C23.921 59.4784 23.901 59.2584 23.941 59.0184C24.031 58.5084 24.051 58.7684 24.181 58.4684C24.441 57.8284 24.131 56.4985 24.451 55.6985C24.591 55.3185 24.591 54.6985 24.701 54.4785L25.1409 53.8185C25.1409 53.8185 25.3009 53.6385 25.3109 53.6285L26.7709 52.0486C26.9109 51.8986 26.9709 51.8486 27.1309 51.6686L27.8609 50.5286C27.9109 50.3486 27.8609 50.3886 27.9609 50.1886L28.1309 49.9086C28.5809 49.0186 29.0309 48.2187 29.8008 47.5287C30.2608 47.1187 30.2208 47.2587 30.8008 47.0387C31.3108 46.8387 31.4708 46.8787 31.9608 46.7887C32.3108 46.7187 33.5607 46.2387 34.6807 46.5187C34.9907 46.6087 34.8907 46.6687 35.1507 46.7587C35.4107 46.8587 35.5907 46.7987 35.8707 46.8787C36.2207 46.9687 36.0807 47.0187 36.3807 47.1187C36.6207 47.1887 36.7807 47.1587 37.0307 47.2087C37.6606 47.3487 37.3106 47.5687 38.3306 47.5187C38.2906 45.7387 38.1406 46.6987 38.0006 45.8787C37.9306 45.3987 37.9506 44.5388 38.0006 44.0488C38.3106 43.8588 38.4006 44.0188 39.0206 43.4988C39.3406 43.2388 39.6806 42.9188 40.1406 42.8488C40.6306 42.6888 39.9606 42.8288 40.8706 42.4688C41.2406 42.3188 41.0206 42.3488 41.2706 42.2388C41.5805 42.0988 41.4605 42.1988 41.7605 42.1288C42.1705 42.0288 41.9105 41.8788 42.5505 41.7788C43.0805 41.6888 43.0705 41.7888 43.3205 41.3988C43.2205 41.0188 43.3305 41.4288 43.1405 41.0688C43.0505 40.8889 43.0705 40.8989 43.0105 40.7389C42.8305 40.3289 43.0205 40.6989 42.8005 40.3889C42.3205 39.7289 41.1906 38.8589 40.4706 38.2089C40.0506 37.8289 39.7706 37.6889 39.7606 36.8989C39.7506 35.599 39.7206 34.139 39.7806 32.839C39.8106 32.2791 40.0806 31.5291 39.9906 31.1391L39.4806 29.6091C39.3706 29.1491 39.5206 29.1391 39.2306 28.7791L36.7007 26.8092C36.6007 26.7292 36.6307 26.7592 36.5407 26.6892C36.5107 26.6692 36.4607 26.6192 36.4407 26.6092C36.1207 26.3592 36.0907 26.4792 35.7707 26.2592C35.4207 26.0292 35.4207 26.1292 35.0907 25.9292L34.1207 25.3792C33.9907 25.3292 33.9107 25.3492 33.7407 25.2792L32.3108 24.6293C31.7208 24.4993 32.2108 24.7292 31.7608 24.4093C31.2008 23.9993 30.8408 24.5293 30.1908 23.2193L30.0208 22.8793C29.3508 22.8493 29.0109 23.1093 28.2709 23.1493C27.4609 23.1893 27.7009 23.1793 26.9809 23.7693L26.8409 23.8693Z"
            fill="#F6AFCE" />
        <path fill-rule="evenodd" clip-rule="evenodd" class="state-map-path" id="enugu_state_pqeVoQzrm"
            d="M64.29 95.9775C64.49 96.0875 64.76 96.3875 64.96 96.6175C65.25 96.9175 65.42 97.0075 65.6399 97.4375C65.9199 97.6875 66.1799 98.6774 66.4699 99.1174L66.9699 100.477C67.0399 101.067 67.3899 101.947 67.8699 102.357C68.6099 103.007 68.1899 102.537 68.7199 102.887C68.8699 102.977 68.7599 102.957 68.9899 103.067C69.1599 103.147 69.1499 103.107 69.3299 103.197L70.0798 103.547C70.4798 103.737 70.2198 103.857 70.9598 103.827C71.3398 103.807 71.3698 103.737 71.6298 103.607C71.9498 103.447 71.9598 103.497 72.3398 103.437C72.8898 103.337 72.5998 103.297 73.0198 103.167L74.8197 103.137C75.3197 103.217 75.8597 103.587 76.2397 104.007L77.1897 105.367C77.6596 106.127 78.0096 107.237 78.1396 108.107C78.2296 108.677 78.5796 108.917 78.9096 109.637C79.0496 109.947 78.9096 109.647 79.0896 109.907C79.2896 110.217 79.2196 110.217 79.2496 110.677C79.2896 111.357 79.5196 111.627 79.5696 112.157C79.6196 112.617 79.5096 112.597 79.7496 112.927C79.7796 112.957 79.8896 113.077 79.9596 113.167C80.1596 113.437 80.1796 113.677 81.1696 113.067C81.8895 112.627 81.5596 113.017 82.0695 112.667C82.0895 112.657 82.1095 112.637 82.1195 112.627C82.1395 112.617 82.1595 112.597 82.1795 112.587L83.5395 111.857C83.7395 111.737 83.9295 111.717 84.2095 111.687C84.3195 111.527 85.0095 111.147 85.1795 110.827L85.5995 109.847C85.6895 109.537 85.6295 109.667 85.7894 109.397L86.2994 108.547C86.5094 107.987 86.7594 106.307 86.7594 106.307C86.7994 106.157 86.8794 106.107 86.9594 105.877C87.0994 105.467 87.0094 104.857 87.2594 104.057C87.5694 103.067 87.5194 98.9474 87.3694 97.6875L86.1994 94.0475L84.5795 90.9876C84.4395 90.6076 84.2895 88.0777 84.7095 87.2577C84.9295 86.8277 84.8495 86.5677 85.0195 86.1877L85.3695 85.2578C85.6595 84.5778 85.6195 84.5478 86.0994 83.9578C86.1794 83.8578 86.1394 83.9178 86.2294 83.8078C86.2894 83.7278 86.3194 83.6678 86.3794 83.5978C86.8194 83.0578 87.6494 82.6378 88.1594 81.3379L88.2194 81.1979C88.5894 80.3779 88.3294 80.9579 88.5194 80.2979C88.6594 79.8379 88.8194 79.9579 88.8194 79.3079C88.7894 77.298 89.0194 73.978 88.6194 72.2281C88.4294 71.4281 88.5194 69.5281 88.3994 69.1182C88.1194 68.2282 88.1594 68.8382 88.0894 67.4282L87.5394 64.3883C87.3594 63.7883 87.4294 63.3483 87.3294 62.7483C87.1894 61.9383 87.0494 62.8083 87.0194 61.3683C86.9894 60.1884 86.9094 60.8284 86.6394 59.8384C86.5194 59.4084 86.5194 59.6184 86.3694 59.2884C86.2094 58.9684 86.2394 58.9484 86.0794 58.6584L85.1495 56.9085C85.0395 56.6985 85.0895 56.8285 84.9595 56.6585C84.8795 56.5385 84.8795 56.5085 84.7795 56.3685L84.0195 55.2485C83.2595 55.1685 82.0695 55.2385 81.2996 55.3085C80.7896 55.3585 80.5196 55.4685 80.1396 55.5085C79.7296 55.5685 78.8796 55.4385 78.8396 55.7285L78.7596 56.0285C78.6296 57.0385 78.4596 58.4084 78.6596 59.2684C79.1796 61.5383 78.6696 60.9684 78.5396 61.7183C78.4896 62.0183 78.5096 62.4383 78.6196 62.6983L78.9096 63.3683C79.0096 63.6783 79.1496 63.7283 79.2196 64.0483C79.2696 64.3283 79.2796 65.7582 79.2396 66.0582C79.1596 66.6282 79.0796 66.3182 78.9496 66.6582C78.7396 67.2082 79.1296 66.7982 78.6196 67.8282C78.4996 68.0582 78.5596 68.0082 78.5096 68.2582C78.2396 69.5581 76.6397 70.9081 76.5597 71.2481C76.5097 71.4781 76.6797 71.6081 76.5497 71.9981C76.4297 72.3581 76.4897 72.0181 76.3997 72.2881C76.2797 72.6081 76.4197 72.6881 76.1797 73.1181C76.0197 73.408 76.1497 73.0281 75.9997 73.508C75.9197 73.768 76.0197 73.618 75.8797 73.838L75.4397 74.398C75.1297 74.828 75.1597 75.118 74.3497 75.808L71.8998 77.328C71.6998 77.4179 71.5898 77.5879 71.3798 77.7379C71.6098 77.9479 71.6298 78.1279 71.9498 78.6779L72.8598 80.7279C73.5797 81.8278 73.3498 82.8078 72.7098 83.9078C72.2898 84.6078 72.5698 83.8978 72.3798 84.6178C72.2898 84.9778 72.0798 84.9378 72.0498 85.0078C71.9698 86.1477 72.1898 88.6977 71.9698 89.5576C71.8498 89.9976 71.7398 89.7576 71.6798 90.3476C71.5698 91.2276 71.6198 90.9576 70.9898 92.0476L70.1098 93.4476C69.2199 94.6675 68.6999 94.6075 67.6499 94.5975C67.1099 94.5875 65.8399 94.4075 65.4899 94.5375C65.04 94.7075 64.87 95.2375 63.91 95.3575L64.29 95.9775Z"
            fill="#91D8F7" />
        <path fill-rule="evenodd" clip-rule="evenodd" class="state-map-path" id="enugu_state_sSVgKYJQY"
            d="M23.671 61.0683C23.641 61.3183 22.701 62.4883 22.431 62.7883C22.291 62.9383 22.221 62.9983 22.081 63.1783L21.531 64.0883C21.431 64.3383 21.571 64.1983 21.321 64.6282L20.7711 65.6382C20.5911 66.0082 20.4411 66.2382 20.1911 66.5282C19.9311 66.8382 19.7211 67.0282 19.4611 67.2782L18.1711 68.2982C17.7411 68.5581 17.2011 68.9181 16.6812 68.9981C15.5412 69.1481 16.5812 69.3381 14.0112 69.2881C13.3912 69.2781 13.0812 69.3581 12.5413 69.3781C12.3013 69.3881 12.0613 69.3581 11.8513 69.4281C11.7213 69.4781 11.5513 69.6181 11.4913 69.7881C11.3813 70.1181 11.4613 70.8181 11.4313 71.2081C11.3813 71.9981 11.0613 71.5781 11.1813 72.3781C12.5013 72.568 13.8612 72.2681 14.7912 72.638L17.6211 73.668C17.9411 73.858 18.0511 74.038 18.3211 74.258L18.9811 74.978C20.1311 75.728 20.9211 76.9579 21.611 78.0479C21.621 78.0679 21.641 78.0879 21.651 78.1079L21.731 78.2179C21.781 78.3079 21.801 78.1679 21.831 78.5079C22.441 78.7979 22.091 78.6479 22.331 79.2579L22.931 80.3979C23.421 81.4878 23.951 82.2578 24.091 82.8178C24.261 83.5078 24.381 83.3578 24.441 84.2778C24.471 84.7377 24.631 84.9377 24.791 85.2777C25.2909 86.3577 25.2609 85.6677 25.5709 86.9177C25.9009 88.3077 26.7309 88.4477 27.7209 89.1576C28.3009 89.5776 28.8509 89.6376 29.2308 89.8376C29.6408 90.0576 29.2109 89.9676 29.5608 90.0976C29.9408 90.1076 30.2708 90.1076 30.6108 90.2076C31.0308 90.3276 31.0508 90.4176 31.5808 90.4576C33.1808 90.5576 32.8908 90.3476 33.7107 90.1676C34.0807 90.0876 34.3007 90.1376 34.6207 89.9676L35.4407 89.5976C35.6307 89.4576 35.3707 89.6076 35.6007 89.4776L37.7206 88.0877C37.7406 88.0777 37.7606 88.0577 37.7806 88.0477L40.3406 86.1977C40.6906 85.9877 40.4306 86.1677 40.6706 85.9877C40.6806 85.9777 40.7006 85.9577 40.7206 85.9477L41.3705 85.4977C42.0305 85.0177 42.9005 84.5178 43.6505 84.3178C44.1105 84.1878 43.8005 84.2678 44.0805 84.0878C44.4005 83.8678 44.7105 83.9878 45.1105 83.9578C45.6904 83.9078 45.5404 83.7678 46.0404 83.6778C47.0804 83.4878 46.6504 83.6378 47.4104 83.2478L48.1204 82.6978C48.1304 82.6778 48.1504 82.6578 48.1604 82.6478C48.4304 82.3478 49.3204 80.9978 49.4503 80.5779C49.4903 80.4379 49.5003 80.1779 49.5203 80.0079C49.6503 79.0179 50.0003 79.2879 49.6503 78.0679C49.5703 77.7779 49.5303 77.2679 49.4403 77.0679C49.2104 76.568 48.8304 76.138 48.4104 75.718L41.3205 69.8481C40.9406 69.5681 40.5306 69.1981 40.1006 68.9781L39.9806 68.9181C39.9606 68.9081 39.9306 68.8981 39.9106 68.8781C39.6906 68.7581 39.7906 68.7781 39.5706 68.6581C39.3906 68.5481 39.3406 68.5481 39.1606 68.4182C39.0106 68.3182 38.9406 68.2882 38.8206 68.2082L37.6606 67.5282C37.4006 67.4082 37.5506 67.4782 37.3006 67.3282L34.6607 65.8382C33.8907 65.3682 31.1208 66.0782 30.1308 65.5782C29.7808 65.3882 29.5408 65.4282 29.2408 65.2682C28.7909 65.0282 28.3109 64.5482 27.9309 64.2983C27.2109 63.8283 26.4709 63.3083 25.7009 62.9383C25.3309 62.7683 25.061 62.9783 24.761 62.6583C24.251 62.1183 24.271 61.4783 24.241 60.7983C24.121 60.8283 23.921 60.9783 23.671 61.0683Z"
            fill="#91D8F7" />
        <path fill-rule="evenodd" clip-rule="evenodd" class="state-map-path" id="enugu_state_LOJW6OJel"
            d="M60.1601 35.969C60.8701 35.519 64.87 35.719 66.1799 35.619C66.7999 35.579 66.8399 35.389 67.4599 35.369C67.9399 35.349 69.2799 35.439 69.6798 35.149L70.1598 34.629C70.1798 34.609 70.2298 34.559 70.2498 34.539C70.7998 33.889 69.8498 34.439 70.7798 33.799L70.7098 32.929C70.0298 32.4191 70.0698 32.669 69.6298 32.4991C69.1999 32.3491 69.6598 32.3591 69.1099 32.2191L67.5399 31.6591C67.0399 31.3791 67.2099 31.6191 66.6299 31.2791C66.2899 31.0791 66.2599 31.1291 65.8099 31.1091C65.5599 30.3191 65.7499 31.1891 65.04 30.5791C64.5 30.1191 63.91 30.3491 62.92 30.1891C60.8401 29.8591 58.8201 30.5191 57.8001 29.4491C56.2102 27.7692 56.9502 27.4092 56.6102 26.7692C56.4902 26.5292 55.9902 25.7792 55.7602 25.6292L54.8102 24.7092C54.7202 24.6392 54.3402 24.3993 54.2402 24.3493L50.8803 22.8493C50.3303 22.7693 49.6703 22.8393 49.1304 22.7593C48.5604 22.6693 48.0304 22.5193 47.4104 22.4893C46.8104 22.4593 46.1504 22.5393 45.7104 22.2993C45.0705 21.9593 44.8305 22.1893 44.0205 22.0393L42.6705 21.5693C42.6505 21.5593 42.5805 21.5093 42.5605 21.4893L42.1405 21.1793C41.9005 20.9793 41.8205 20.9493 41.6005 20.7093C41.5905 20.6893 41.5705 20.6693 41.5505 20.6593L40.4206 18.5094C40.2306 17.9694 40.0106 17.2394 40.3406 16.6694C40.5406 16.3195 40.5006 16.0695 40.7306 15.6995L41.4805 13.9395C41.6105 13.5895 41.5605 13.4395 41.4305 13.1595C41.2905 12.8495 41.3905 13.1595 41.3005 12.8495C41.2705 12.7595 41.2705 12.7095 41.2406 12.6095L41.1506 12.3596C40.1706 12.3096 39.9006 12.7695 39.1406 13.0495C38.9306 13.1195 38.8606 13.0895 38.6206 13.1895L36.6807 14.0195C36.4107 14.1795 36.4707 14.1195 36.1607 14.2195C35.7707 14.3495 34.4807 14.8895 34.2807 15.1195C34.0707 15.3595 33.8607 15.6395 33.8107 16.0095C33.4307 18.4394 34.2607 18.4094 34.4207 19.5394C34.4807 19.8994 34.1607 20.1794 33.9807 20.4294C33.7407 20.7793 33.6107 21.4193 33.2807 21.7493C32.7308 22.2793 32.7308 22.3493 31.9408 22.5393C31.7108 22.5993 31.0608 22.7993 30.9108 22.8793L30.8808 23.2793C31.7508 23.8693 31.1208 23.5293 32.0108 23.7793L35.1507 25.3092C35.4207 25.4692 35.1807 25.3792 35.4207 25.4892C35.5307 25.5492 35.5807 25.5392 35.7007 25.5892L38.5006 27.4892C38.8406 27.7792 39.2006 27.8992 39.4806 28.2692C39.5906 28.4192 39.7606 28.6691 39.8106 28.7591C39.9706 29.0091 39.9106 29.0691 40.0406 29.3491L40.1406 29.5191C40.3906 30.0191 40.1306 29.9191 40.5406 30.5891C40.7706 30.9691 40.6906 32.2791 40.5106 32.779C40.4006 33.079 40.3306 32.809 40.3006 33.479C40.1206 37.5489 40.0306 37.0289 41.9405 38.6789C44.0505 40.4889 43.4705 40.9788 44.0605 41.6288C44.3705 41.9588 45.7404 41.9088 46.1504 41.6188C46.3204 41.5088 46.1104 41.6088 46.3704 41.4688C46.5204 41.3988 46.5504 41.4088 46.7004 41.3288C47.0504 41.1488 46.7404 41.2288 47.3004 41.0488C47.8204 40.8888 47.4204 40.8888 47.8804 40.7389C48.3104 40.5989 48.1304 40.7988 48.4904 40.5489L51.4203 39.2189C51.7803 39.0789 51.5303 39.1189 51.9203 38.9189L54.5002 37.6389C54.7602 37.4889 54.4902 37.5989 54.7802 37.4789L57.1902 36.479C57.5701 36.279 57.9701 36.439 58.5401 36.169C59.0101 35.939 59.5601 36.009 60.1601 35.969Z"
            fill="#FDD1A1" />
        <path fill-rule="evenodd" clip-rule="evenodd" class="state-map-path" id="enugu_state_HUwn25nDv"
            d="M50.7503 117.477C50.9303 117.727 51.4203 118.047 51.4303 118.437C51.9903 118.677 51.8903 119.077 52.4903 119.277C52.8003 119.377 52.9103 119.367 53.2203 119.487C53.5003 119.607 53.7102 119.677 54.1202 119.617C54.4602 119.567 55.2602 119.257 55.5502 119.097L56.9702 118.617C58.1701 118.497 59.5901 118.797 60.7401 118.557C61.1701 118.467 60.9801 118.397 61.3501 118.287C61.6501 118.197 61.96 118.257 62.26 118.157C63.1 117.857 62.41 117.887 63.92 117.907C64.07 117.447 64.07 117.777 64.29 117.237C64.57 116.527 64.51 116.967 64.64 116.467C64.9 115.407 64.99 116.317 65.03 114.727C65.04 113.807 65.18 111.157 64.9 110.487C64.41 109.307 64.86 109.427 64.51 108.757C64.28 108.307 64.37 108.427 64.28 107.907C64.2 107.407 64.19 107.707 64.02 107.317L63.61 106.417C63.52 106.167 63.6 106.237 63.47 106.017C63.2 105.547 62.58 104.517 62.85 103.957C62.87 103.907 63.21 103.777 63.54 103.167C63.82 102.647 64.22 102.087 64.33 101.577C64.41 101.167 64.45 101.247 64.56 100.977C64.74 100.577 64.65 99.9374 64.68 99.4474C64.69 99.2374 64.69 98.9474 64.74 98.7474C64.8 98.5074 64.91 98.4574 64.97 98.1574C65.19 97.0475 63.95 96.4175 63.28 95.8175L63.14 95.6875C62.89 95.4375 62.97 95.6175 62.89 95.3175C62.56 95.2475 62.06 94.7975 61.88 94.5475C61.7601 94.3775 61.5801 94.1675 61.4901 94.0075C60.9701 93.0476 61.2601 93.2476 60.6001 92.1576L59.5301 90.6476C59.4201 90.4876 59.5001 90.6176 59.4101 90.4676L59.3501 90.3376C59.1901 90.0176 59.3701 90.3076 59.1901 90.0576L58.8201 89.5076C58.7101 89.3677 58.7201 89.4177 58.6201 89.2677L57.1902 86.8077C56.7202 86.4177 56.8202 86.4177 56.3402 85.6477C55.7902 84.7578 56.0902 84.7878 55.5902 84.5278C55.5802 84.5478 55.5602 84.5778 55.5502 84.5978C55.5402 84.6078 55.5202 84.6378 55.5102 84.6578C55.5002 84.6778 55.4902 84.7078 55.4802 84.7278C55.4602 84.7478 55.4502 84.7678 55.4402 84.7878L54.7402 86.0077C54.6402 86.2277 54.6602 86.2177 54.5402 86.4377C54.3802 86.7077 54.4602 86.3877 54.3702 86.8577C54.2002 87.7977 54.4202 86.9477 54.0402 87.5877C53.9902 87.9777 54.0402 88.4277 53.9302 88.7977C53.8102 89.1977 53.7202 89.1477 53.6403 89.6976C53.4803 90.8176 51.5603 92.4576 50.6303 93.9375C50.1503 94.7175 50.1103 95.2075 50.0003 95.8175C49.9103 96.3475 49.7703 96.1275 49.6803 96.6975C49.5904 97.2875 49.3904 97.6174 48.9804 97.9674L48.8204 98.1074C47.9304 98.9774 48.4704 99.2174 48.5604 99.9274C48.6604 100.697 48.5304 100.337 48.8304 100.877C49.0404 101.257 48.8104 101.187 49.1204 101.607C49.4304 102.037 49.2104 101.857 49.3804 102.257C49.4804 102.477 49.4504 102.287 49.6004 102.617L50.0103 103.407C50.4203 104.287 50.7403 104.147 50.7603 105.157C50.7703 105.647 50.8003 107.047 50.6503 107.457C50.5403 107.737 50.5203 107.637 50.4303 107.877C50.3703 108.057 50.3903 108.157 50.3203 108.327C50.1203 108.837 50.0303 108.507 50.0203 109.387C50.0103 109.837 49.9603 111.407 50.1103 111.737C50.3303 112.237 50.2503 111.397 50.3903 112.697C50.4503 113.247 50.5803 113.067 50.6703 113.617C50.8803 115.007 50.4903 115.197 50.3903 115.747C50.2403 116.517 49.7403 116.377 50.3503 116.927C50.5503 117.117 50.2903 117.017 50.7003 117.147L50.7503 117.477Z"
            fill="#91D8F7" />
        <path fill-rule="evenodd" clip-rule="evenodd" class="state-map-path" id="enugu_state_fMNmICpn3"
            d="M32.7308 106.317C32.7608 106.657 32.7708 106.357 33.0408 106.727C33.1508 106.887 33.2507 107.117 33.3907 107.307C33.8707 107.947 34.3707 108.387 35.0207 108.807C35.4107 109.057 35.3007 108.917 35.6807 109.427C36.4707 110.497 35.7107 111.817 37.4606 113.917L38.1206 114.617C38.3006 114.707 38.2006 114.677 38.4406 114.677C39.0306 114.727 38.7106 114.837 39.3006 114.977C39.4806 115.017 39.5506 115.007 39.7506 115.087C40.6206 115.407 41.2506 115.277 42.1005 115.517C43.7305 115.977 46.6004 115.547 48.4304 115.747C48.9104 115.797 49.6703 116.567 49.8703 115.617C50.0403 114.807 50.3103 114.527 50.0803 113.807C49.8303 113.067 50.0003 112.757 49.6403 112.117C49.2704 111.467 49.2504 109.017 49.5903 108.347C49.7503 108.027 49.6303 108.417 49.8203 108.047L50.2303 106.807C50.2503 106.377 50.3103 105.097 50.1803 104.757C50.1703 104.727 49.8203 104.207 49.7403 104.107C49.3404 103.617 49.0804 102.847 48.7804 102.307L48.5904 102.037C48.3404 101.687 48.5104 101.557 48.3504 101.167C48.2804 101.007 48.2504 101.067 48.1504 100.817C48.0804 100.647 48.0904 100.547 48.0404 100.387C47.9204 99.8974 47.8104 100.037 47.7404 99.6174C47.6904 99.3574 47.7104 98.8774 47.7104 98.5874C46.9504 98.5074 47.2504 98.5974 46.8504 98.2074C46.5404 98.1974 45.6804 98.1574 45.4104 98.2274C44.9205 98.3474 44.0505 99.0174 43.5705 99.2974C41.4505 100.557 41.9605 97.9774 41.4405 97.0575C41.2706 96.7475 41.3306 97.1175 41.2206 96.5075C41.1206 95.9275 41.2606 96.2975 41.0106 96.0075L40.7606 95.6975C40.0606 94.8775 39.0606 94.4175 38.3106 93.6475L37.4406 92.7676C37.2307 92.5876 37.6106 92.9176 37.3406 92.6876C36.8907 92.2976 36.1507 92.2876 35.3007 91.6776C35.1707 91.5776 35.2307 91.6276 35.1107 91.5176C33.6307 90.1576 34.6407 90.9376 32.8708 90.9776C30.3108 91.0376 30.9708 90.8176 30.0208 90.6676C29.7908 90.6276 29.5508 90.6676 29.3208 90.6176C29.0209 90.5476 29.1209 90.4676 28.8809 90.3576C28.4509 90.1676 28.1409 90.2676 27.5009 89.7376L25.9309 88.6477C25.7509 88.5277 25.3009 87.8277 24.891 88.1277L23.741 89.2677L23.721 90.9976C23.761 91.6176 23.981 91.8076 24.021 92.3676C24.091 93.2676 23.811 94.6175 24.501 95.1175C25.3309 95.1675 25.131 94.9675 25.6109 94.8375C25.8109 94.7775 26.1009 94.7775 26.2409 94.7275C26.2909 94.7075 26.4209 94.5875 26.6409 94.5075C27.3009 94.2675 28.9109 94.3175 29.4008 94.6475L29.6308 94.7875C29.9908 95.0375 30.1708 95.7275 30.1808 96.2275C30.2308 97.4675 29.9808 97.7274 30.8708 98.3174C31.2708 98.5874 31.7108 98.7674 32.0508 99.0874C32.3808 99.3874 32.6508 100.207 32.6708 100.647C32.6808 100.827 32.6908 101.207 32.6608 101.367C32.6008 101.687 32.5508 101.557 32.4408 101.797C32.2708 102.197 32.3608 102.687 32.3308 103.127C32.3008 103.567 32.0508 103.717 32.0308 104.147C31.9908 104.677 32.2208 104.627 32.3508 105.197C32.5208 105.937 32.7008 105.597 32.7308 106.317Z"
            fill="#F6AFCE" />
        <path fill-rule="evenodd" clip-rule="evenodd" class="state-map-path" id="enugu_state_SfoNHfSXL"
            d="M66.9999 51.9786C66.7199 52.4386 66.9499 52.2386 66.3999 52.4786C65.6699 52.7885 61.67 52.7085 60.6501 52.7185C59.5401 52.7385 59.6701 53.2185 58.7301 53.0885C58.6001 53.5985 58.4801 53.3385 58.0101 53.5485C57.8401 54.6985 57.9801 56.0685 58.1101 57.0784C58.2501 58.1484 58.2501 59.4984 58.2401 60.6283C58.2301 61.4383 58.1701 61.5783 58.0401 62.2483C57.9301 62.7883 57.9301 67.2082 57.9701 67.7182C59.0701 67.7882 59.4301 67.5382 60.1701 68.1082C60.6801 68.5082 60.2301 68.4582 60.9401 69.1881C60.9501 69.1981 60.9701 69.2181 60.9801 69.2281C61.0801 69.3181 61.1801 69.4281 61.3 69.5381C63.96 69.6781 66.9699 69.5481 69.6698 69.5481C72.3898 69.5481 72.4098 69.2281 73.9097 70.3781L75.2297 71.3481C75.7597 71.6881 75.5397 71.6681 75.7597 71.6881C75.8397 71.5681 75.8497 71.4381 75.9297 71.2381C76.2597 70.3081 77.2497 69.8681 77.6796 68.7381C77.9196 68.1282 77.7996 68.8981 78.0296 67.8182C78.1496 67.2382 78.2696 67.5882 78.3596 66.9682C78.4896 66.1582 78.5396 66.4582 78.6696 66.0582C78.7496 65.7882 78.7196 65.2882 78.7196 64.9482C78.7296 63.0783 77.5096 63.2083 78.1496 60.9283C78.2796 60.4584 78.0296 59.3784 78.0196 58.6984C78.0096 54.5385 78.3696 55.6785 77.1697 54.6185C77.1597 54.6085 77.1397 54.5885 77.1197 54.5785L75.7697 53.7085C74.3297 52.7985 73.4797 51.2386 71.7898 50.3286C71.6898 50.2786 70.2798 49.8586 69.8498 49.8686C69.3998 49.8786 68.6599 50.2286 68.4499 50.3986C68.3799 50.4486 68.2799 50.5386 68.1499 50.6386C67.1499 51.4386 67.5799 51.9186 66.9999 51.9786Z"
            fill="#9DD3AF" />
        <path fill-rule="evenodd" clip-rule="evenodd" class="state-map-path" id="enugu_state_fR3tBidRL"
            d="M65.93 119.477C66.2599 119.557 68.6899 122.127 68.9699 122.417C69.6299 123.097 69.5199 123.397 70.4898 123.927L71.0198 124.147C71.7998 124.557 71.4898 124.287 72.0298 124.607L72.5598 124.847C73.1898 124.957 73.5898 125.237 73.8598 125.347C74.0797 125.437 74.1697 125.417 74.3697 125.497C74.5897 125.597 74.4997 125.597 74.6997 125.697C74.8697 125.787 74.9797 125.777 75.1697 125.857C75.4697 125.987 75.3197 125.967 75.5297 126.057L79.5596 127.607C80.0196 127.717 80.0396 127.867 80.3696 127.937C80.7296 128.017 81.1696 127.987 81.4596 128.067C81.8596 128.177 82.2395 128.387 83.0195 128.307C83.6495 128.247 83.2495 128.297 83.5195 128.117C84.2595 127.617 84.2395 127.517 84.5995 126.797C85.0895 125.827 84.7995 125.997 84.8195 124.497C84.8195 124.107 84.7795 124.307 84.7395 124.217L84.6795 124.087C84.3295 123.177 84.0695 122.697 83.3795 121.887L81.6496 120.037C81.2496 119.617 80.7596 119.207 80.5196 118.697C80.5096 118.677 80.4996 118.657 80.4896 118.637L80.4196 118.507C79.0996 116.357 80.2896 114.347 79.7096 113.677C79.3796 113.437 79.5196 113.407 79.3296 113.067C79.0996 112.647 79.1696 112.987 79.0996 112.347C79.0396 111.757 78.8796 111.587 78.7996 110.897C78.6396 109.477 77.8497 109.127 77.7097 108.377C77.6397 107.957 77.8097 107.987 77.5797 107.637C77.3397 107.247 77.4097 107.487 77.3397 106.907C77.2997 106.487 76.7497 105.517 76.4797 105.157C76.4097 105.067 76.3697 105.027 76.2697 104.907L76.0897 104.707C76.0797 104.697 76.0597 104.677 76.0497 104.667C75.8497 104.437 75.8597 104.347 75.6597 104.137C75.3697 103.837 74.9397 103.607 74.4597 103.587C74.1897 103.577 73.7998 103.567 73.5298 103.587C72.6898 103.637 73.4398 103.767 72.1098 103.947C71.4798 104.027 71.3398 104.357 70.5898 104.267C70.0798 104.197 70.3398 104.127 69.9199 103.997C68.9199 103.667 69.6599 103.867 69.0499 103.587L68.1299 103.117C67.1799 102.567 66.9699 102.117 66.5999 101.137C66.4799 100.817 66.5499 100.647 66.4599 100.337C66.3499 99.9474 66.2699 100.177 66.2399 99.8174C66.2299 99.7874 66.2099 99.7174 66.1999 99.7374L65.66 98.6674C65.65 98.6474 65.64 98.6174 65.62 98.5874L65.46 98.9474C65.23 99.6174 65.19 99.4774 65.18 100.087C65.18 100.407 65.21 100.777 65.12 101.067C64.97 101.557 64.94 101.147 64.83 101.757C64.73 102.277 64.2 103.247 63.87 103.687L63.79 103.787C63.06 104.847 63.48 104.417 63.7 105.177C63.95 106.077 64.28 106.257 64.41 106.637C64.76 107.657 64.61 106.907 64.76 107.387C64.87 107.727 64.76 107.927 64.91 108.277C65.07 108.637 65.13 108.587 65.17 109.127C65.24 110.037 65.5 109.917 65.54 110.957C65.58 111.867 65.93 111.867 65.81 113.907C65.78 114.417 65.71 114.377 65.61 114.797C65.54 115.077 65.57 115.397 65.53 115.737C65.48 116.317 65.34 116.127 65.21 116.497C65.15 116.677 65.17 116.757 65.1 116.947L64.73 117.697C64.65 117.867 64.61 117.877 64.5 118.037L64.81 118.477C64.82 118.497 64.84 118.517 64.86 118.527C65.22 118.827 65.7 119.047 65.93 119.477Z"
            fill="#F6AFCE" />
        <path fill-rule="evenodd" clip-rule="evenodd" class="state-map-path" id="enugu_state_KvuycpJUJ"
            d="M48.3204 41.3088C47.9504 41.2188 48.1404 41.2988 47.8704 41.4788C47.5504 41.6888 47.7104 41.5288 47.3304 41.6588C46.9904 41.7688 47.2104 41.7488 46.8204 41.9188C46.3404 42.1188 46.6304 41.7388 46.3904 42.2488C44.8905 42.4488 45.9804 42.5988 44.8105 42.3388L42.8905 42.2888C42.0505 42.3688 42.7705 42.5088 41.8905 42.6588C41.0206 42.8088 41.8705 42.7288 40.9706 43.0388C40.7306 43.1188 39.8906 43.5988 39.5806 43.8788L38.7706 44.4388C38.2006 44.8087 38.6406 45.2687 38.7806 45.6787C38.9806 46.2987 38.6406 47.3487 39.3506 47.7987C39.5406 47.9287 39.6606 47.8887 39.8806 47.9387C40.5006 48.0587 39.9406 47.9787 40.3706 48.1687C40.8606 48.3887 40.8206 48.1287 41.3505 48.4687C41.5505 48.5886 41.2506 48.4687 41.5405 48.5686C42.1005 48.7686 41.7605 48.3887 42.3505 48.8486C42.4705 48.9386 42.3805 48.8686 42.5205 48.9586C43.0705 49.3186 44.1905 50.2986 44.7005 50.4386C44.9205 50.4886 45.0305 50.4786 45.2305 50.5586C46.6104 51.0586 45.8804 50.5386 46.7804 51.0286C47.1004 51.2086 46.9504 51.0886 47.3004 51.1786C47.8904 51.3186 48.8904 52.1386 49.3404 52.5286L50.5303 53.2985C50.9103 53.4885 50.6203 53.2785 50.9003 53.6285C52.1803 53.7885 53.8202 53.6685 55.1402 53.6685C56.2302 53.6785 55.7602 53.6285 56.9102 53.3085C57.4302 53.1685 57.1402 53.0885 57.5701 52.9885C58.2501 52.8185 57.6701 53.0985 58.4301 52.7085C58.7401 52.5486 58.9301 52.6385 59.2401 52.5086C59.5901 52.3786 59.4301 52.2586 60.0201 52.2286C60.6901 52.1786 61.4401 52.2286 62.13 52.2086C62.92 52.1886 63.27 52.0086 63.98 51.9586C64.67 51.9086 65.39 51.9786 66.0999 51.9086C66.1399 50.9786 66.0499 51.7586 65.7099 50.5186C65.5799 50.0386 65.52 50.3486 65.41 49.9286C65.26 49.3586 65.47 49.6786 65.17 49.2286C64.67 48.4687 65.31 46.6387 64.92 45.7887C64.76 45.4187 64.52 44.9387 64.24 44.6187L64.07 44.4288C63.87 44.1988 64.08 44.4788 63.89 44.1688L63.38 43.2788C63.22 43.0288 63.35 43.4088 63.23 42.9588C63.15 42.6388 63.16 42.5288 63.06 42.1988C62.9 41.6888 62.87 41.0788 62.86 40.4788C62.2 40.1089 61.73 39.4089 61.2801 38.8389C61.2301 38.7689 60.9801 38.4989 60.9001 38.3989C60.5701 37.9889 60.4401 37.7789 60.3101 37.2889C60.1801 36.8489 60.1601 37.0889 60.0301 36.6889C59.5201 36.209 58.8401 36.7989 58.4101 36.8689C57.9601 36.9389 57.9501 36.8389 57.5701 37.0389C56.8402 37.4289 56.8102 37.1189 56.3402 37.3689L54.2002 38.3789C53.9202 38.4989 54.3802 38.3989 53.5202 38.7189L50.8103 40.1289C50.1303 40.3689 50.5703 40.3289 50.0703 40.4888C49.3504 40.7188 49.8403 40.6588 49.3804 40.8088C49.0204 40.9288 48.8704 40.7388 48.3204 41.3088Z"
            fill="#91D8F7" />
        <path fill-rule="evenodd" clip-rule="evenodd" class="state-map-path" id="enugu_state_T5p597MrM"
            d="M67.4399 13.8295C66.8599 13.7095 66.8099 12.2196 66.7299 12.0396C66.3799 11.2496 65.26 9.04963 64.73 8.24965C64.72 8.21965 64.68 8.14965 64.66 8.12965L64.13 7.37967C64.1 7.33967 64.02 7.21967 63.97 7.16968C63.96 7.14968 63.91 7.08968 63.89 7.06968L62.75 5.54972C62.33 4.98973 62.34 4.67974 61.3701 4.06975C60.7501 3.66976 60.3301 3.40977 59.8901 2.87978C59.6801 2.62979 59.5101 2.36979 59.3401 2.1398C59.2301 1.9998 59.1401 1.88981 59.0501 1.77981C58.8401 1.50982 58.9001 1.50982 58.7001 1.45982C58.6801 1.43982 58.6501 1.38982 58.6401 1.40982L58.5301 1.30982C57.9201 0.879831 59.0101 1.48982 58.3001 1.17982C57.6601 0.899831 57.4602 0.759834 56.7402 1.41982L56.5402 1.58981C56.5202 1.60981 56.3302 1.71981 56.3102 1.73981L55.3702 2.1898C54.4402 2.57979 51.1403 2.0598 50.5203 2.66979C50.0503 3.12978 50.6703 3.77976 50.1703 5.04973C49.7303 6.1397 50.4703 5.27972 49.3604 6.72969C48.8804 7.34967 48.9404 7.27967 48.2404 7.76966C48.2304 7.77966 48.2004 7.79966 48.1704 7.81966C48.1904 8.58964 48.1504 10.4496 48.4004 10.8696L49.3104 13.2695C49.4003 13.7895 49.3404 13.4795 49.5203 13.7995C49.7103 14.1295 49.6203 14.0795 49.6903 14.4495C49.8003 14.9895 49.7803 14.5995 49.9503 14.9995C50.0603 15.2795 49.9803 15.4195 50.0803 15.7095C50.2003 16.0595 50.6403 16.4894 50.7203 16.7594C50.9103 17.4694 50.4703 17.0294 51.1303 18.0094C51.3403 18.3094 51.7503 18.5794 52.0603 18.8094L53.0403 19.2894C53.4802 19.4994 55.5902 19.4094 56.2402 19.4094C56.4702 19.4094 56.7202 19.3994 56.9402 19.4594C57.3102 19.5594 57.1802 19.6294 57.4602 19.7294C57.6801 19.7994 57.9201 19.7594 58.1601 19.8494C58.7401 20.0694 58.1001 19.9594 58.7201 20.1194L59.8901 20.6193C60.2801 20.8493 60.7401 21.2693 60.9301 21.2293C61.2801 21.0093 61.4401 20.6693 61.92 20.5093C62.64 20.2894 63.37 19.4494 63.37 19.4494C63.38 19.4394 63.4 19.4194 63.41 19.3994C63.43 19.3794 63.44 19.3594 63.46 19.3494L65.54 17.6694C65.7799 17.4994 65.8699 17.4594 66.0699 17.2794C66.2999 17.0594 66.3299 17.0594 66.5699 16.8694C66.8999 16.5994 66.7199 16.6194 66.9499 16.3194C66.9599 16.3094 66.9799 16.2895 66.9899 16.2695L67.1199 16.1395C67.1399 16.1195 67.1499 16.0995 67.1699 16.0895L67.4199 15.7695C67.6799 15.4195 68.0899 15.1595 67.8599 14.4495C67.7199 14.0295 67.8599 14.4095 67.6499 14.1595C67.4999 13.9695 67.5499 14.1595 67.4399 13.8295Z"
            fill="#F6AFCE" />
        <path fill-rule="evenodd" clip-rule="evenodd" class="state-map-path" id="enugu_state_SDPon6SMu"
            d="M57.3101 26.5892C57.2302 26.8792 57.2002 27.3392 57.3002 27.6492C57.3401 27.8092 57.4301 27.9192 57.5201 28.0692C57.7101 28.4092 58.0101 28.8391 58.3801 29.0591C58.5601 29.1591 58.6801 29.1691 58.8401 29.2491C59.0201 29.3391 59.0101 29.4091 59.2701 29.4791C60.5201 29.7691 64.05 29.2291 64.7 29.6291C65.4599 30.0891 65.11 29.6791 65.5599 30.0491L66.2899 30.4991C66.5399 30.6491 66.5199 30.5691 66.7899 30.6591C67.1199 30.7791 66.9299 30.7791 67.2199 30.8891C67.4399 30.9691 67.5399 30.9391 67.7499 31.0091C68.2399 31.1791 67.6999 31.0191 68.0799 31.2191C68.5799 31.4791 68.3499 31.1091 69.0299 31.5491C69.2899 31.7091 69.3099 31.6491 69.5498 31.7091C69.9998 31.8291 69.4698 31.7891 70.4498 32.0791C71.0598 32.2591 70.5998 32.3991 71.4198 32.3891L72.0898 31.9691C72.1098 31.9591 72.1298 31.9491 72.1498 31.9391C72.1698 31.9291 72.1998 31.9191 72.2198 31.9091C72.9998 31.5091 73.1998 31.6991 74.5497 31.6991L79.3196 31.6491C80.1196 31.4491 81.5596 29.8091 82.0595 29.2291C82.3795 28.8591 82.4695 28.6391 82.2395 27.7892C81.1896 28.1792 79.9596 27.0192 79.2396 26.4092C78.6996 25.9592 78.7496 25.7392 78.2796 25.4092C77.9596 25.1792 78.1096 25.3492 77.9796 25.0292C77.8696 24.7892 77.9896 25.0092 77.8396 24.7692C77.7396 24.6092 77.6896 24.5392 77.5596 24.3293C77.2297 23.7993 77.1497 23.8493 76.9697 23.3593C76.8097 22.9393 76.8797 23.1693 76.6997 22.8793C76.6097 22.7293 76.6597 22.7793 76.5797 22.6393L76.4297 22.4093C76.3097 22.2593 76.1797 22.0793 76.0697 21.9493L75.2697 21.2693C74.1197 20.2194 74.6097 20.8793 73.8097 20.4293L71.5498 19.6494C71.3298 19.5694 71.1498 19.5594 70.9598 19.4994C69.7798 19.1394 68.7599 17.6894 68.7699 17.1794L68.4699 16.4694C68.3399 16.1995 68.2999 16.1295 68.2099 15.8095L67.3099 16.8694C67.2999 16.8794 67.2799 16.8994 67.2699 16.9194C66.3999 17.8694 66.0599 17.8694 64.48 19.2794L63.99 19.6294C63.48 19.9894 63.38 20.4993 62.5 20.9093C61.73 21.2793 62.08 20.9593 61.41 21.7193C61.1701 21.9893 61.3001 21.8093 61.1701 22.1793L60.7101 23.1293C60.5701 23.3693 60.2801 23.6893 60.0801 23.8893C59.3001 24.6892 58.0601 25.6592 57.3101 26.5892Z"
            fill="#D2E28B" />
        <path fill-rule="evenodd" clip-rule="evenodd" class="state-map-path" id="enugu_state_nSzcW6BOG"
            d="M55.3102 76.7879C55.2902 77.1379 55.2102 76.9179 55.0902 77.3279C54.9502 77.8579 55.2002 78.1379 54.8302 79.4579C54.5002 80.6279 54.9602 81.2778 55.0102 81.6278C55.0702 81.9778 54.9902 81.9578 55.1502 82.2378L56.2702 84.3378C56.4802 84.6278 57.0702 85.9977 57.5002 86.6077C57.5202 86.6277 57.5602 86.6977 57.5802 86.7177L58.0501 87.4377C58.3001 87.8077 58.1201 87.4377 58.3701 87.9177L59.8901 90.3776C60.1301 90.7176 60.3601 90.9676 60.6001 91.3176L61.3701 92.5676C61.7401 93.0675 61.4101 92.9075 61.7201 93.4175L62.22 94.3775C63.02 94.5175 62.4 94.6275 63.05 94.7875C63.35 94.8575 63.84 94.7975 64.15 94.7675L64.66 94.3675C65.53 93.8275 65.61 93.5975 66.5799 93.8175C68.4599 94.2575 68.8099 94.2975 69.6799 92.9175L70.6998 91.3776C71.3398 90.1876 70.9898 89.9976 71.2398 89.3276C71.3998 88.8776 71.4098 89.2376 71.4798 88.7777C71.7698 87.0477 70.9898 86.5077 71.2698 85.5977C71.3598 85.3177 71.3898 85.5077 71.5098 84.8977L72.0098 83.7578C72.0998 83.6478 72.0598 83.7178 72.1398 83.6178L72.3698 83.2878C72.4998 83.0978 72.5698 83.1778 72.5898 82.5278C72.6598 80.9378 72.4898 81.3678 72.3098 80.9978L71.2398 78.6579C71.1098 78.4179 71.0598 77.5279 69.9098 78.2579C68.7499 78.9779 69.3799 79.2179 68.2999 80.1379C68.2899 80.1479 68.2699 80.1679 68.2499 80.1779L67.9399 80.4179C67.4999 80.6479 65.8499 80.5279 65.25 80.5279C64.09 80.5279 64.09 79.9979 62.97 80.0779C60.4001 80.2479 61.5601 80.0879 60.6101 79.8379C60.1401 79.7179 59.8501 79.9179 59.3801 79.6579C58.7701 79.3379 58.9301 79.5179 58.4901 79.1679L56.5002 77.2879C56.4902 77.2779 56.4702 77.2579 56.4602 77.2479C56.4502 77.2379 56.4302 77.2179 56.4102 77.1979C56.1602 76.9579 55.9202 76.648 55.5902 76.558L55.3102 76.7879Z"
            fill="#F6AFCE" />
        <path fill-rule="evenodd" clip-rule="evenodd" class="state-map-path" id="enugu_state_hmsi1IX6G"
            d="M65.85 49.6686C65.86 50.2686 65.8999 49.8686 66.0299 50.1586C66.1099 50.3486 66.0799 50.5286 66.1699 50.7686C66.3299 51.1786 66.3199 50.9086 66.4299 51.1386C66.5299 51.3686 66.3799 51.3686 66.6399 51.6986C67.2999 51.7186 66.7599 51.5486 67.1699 51.3586C67.1299 51.6286 67.0699 51.8086 66.9999 51.9786C67.5799 51.9186 67.1499 51.4386 68.1499 50.6386C68.2799 50.5386 68.3799 50.4486 68.4499 50.3986C68.6599 50.2286 69.3999 49.8786 69.8499 49.8686C70.2798 49.8586 71.6898 50.2786 71.7898 50.3286C73.4798 51.2386 74.3297 52.7985 75.7697 53.7085L77.1197 54.5785C77.1397 54.5885 77.1597 54.6085 77.1697 54.6185C78.3696 55.6785 78.0097 54.5385 78.0197 58.6984C78.0296 59.3784 78.2796 60.4584 78.1496 60.9283C77.5097 63.2083 78.7296 63.0783 78.7196 64.9482C78.7196 65.2882 78.7496 65.7882 78.6696 66.0582C78.5396 66.4582 78.4896 66.1582 78.3596 66.9682C78.2696 67.5882 78.1496 67.2382 78.0296 67.8182C77.7997 68.8981 77.9197 68.1282 77.6797 68.7382C77.2497 69.8681 76.2597 70.3081 75.9297 71.2381C75.8497 71.4381 75.8397 71.5681 75.7597 71.6881C75.5397 71.6681 75.7597 71.6881 75.2297 71.3481L73.9098 70.3781C72.4098 69.2281 72.3898 69.5481 69.6699 69.5481C66.9699 69.5481 63.96 69.6781 61.3001 69.5381C61.1801 69.4281 61.0801 69.3181 60.9801 69.2281C60.9701 69.2181 60.9501 69.1981 60.9401 69.1881C60.2301 68.4582 60.6801 68.5082 60.1701 68.1082C59.4301 67.5382 59.0701 67.7882 57.9701 67.7182C57.9301 67.2082 57.9301 62.7883 58.0401 62.2483C58.1701 61.5783 58.2301 61.4383 58.2401 60.6284C58.2501 59.4984 58.2501 58.1484 58.1101 57.0784C57.9801 56.0685 57.8401 54.6985 58.0101 53.5485C58.4801 53.3385 58.6001 53.5985 58.7301 53.0885C57.4402 53.5685 57.8201 53.0785 57.8201 57.0384L57.6302 67.7082C58.4401 68.1682 59.1701 67.6482 59.7401 68.0982C59.9501 68.2682 59.8401 68.2182 59.8701 68.3282L59.8901 68.4182C60.0201 68.7582 60.1001 68.5282 60.0201 68.8181L60.0501 69.1881C60.6001 69.5281 60.0401 69.2981 60.5501 69.7481L60.6501 69.8381C60.6701 69.8481 60.8301 70.0381 60.8401 70.0381C61.4501 70.3281 71.9298 69.9281 72.4798 70.1481C72.6198 70.1981 72.6298 70.2581 72.8098 70.3681L75.0897 71.8781C76.2597 72.3881 75.7297 72.4281 75.4797 73.148C75.3097 73.638 74.9297 74.308 74.6297 74.708C74.4697 74.908 74.2397 75.138 74.0397 75.308L71.1398 77.0979C70.8798 77.1079 70.5798 76.708 70.1498 76.448L68.7899 75.578C68.5299 75.368 68.7799 75.498 68.4199 75.318L67.0099 74.418C66.8699 74.298 65.63 73.888 65.26 73.878C64.16 73.828 61.7501 73.708 60.9501 74.078C60.5901 74.248 58.4801 74.328 57.8001 74.338C57.6702 74.348 57.3702 74.358 57.2502 74.348C57.0902 74.328 57.1602 74.348 57.0102 74.298L56.7402 74.138L56.8102 74.798C56.5302 74.988 55.7802 75.558 55.7302 75.928C55.6602 76.438 55.8902 75.848 55.9502 76.438L55.3502 76.358L55.3102 76.788L55.5902 76.558C55.9202 76.648 56.1602 76.9579 56.4102 77.1979C56.4302 77.2179 56.4502 77.2379 56.4602 77.2479C56.4702 77.2579 56.4902 77.2779 56.5002 77.2879L58.4901 79.1679C58.9301 79.5179 58.7701 79.3379 59.3801 79.6579C59.8501 79.9179 60.1401 79.7179 60.6101 79.8379C61.5601 80.0879 60.4001 80.2479 62.97 80.0779C64.09 79.9979 64.09 80.5279 65.25 80.5279C65.85 80.5279 67.4999 80.6479 67.9399 80.4179L68.2499 80.1779C68.2699 80.1679 68.2899 80.1479 68.2999 80.1379C69.3799 79.2179 68.7499 78.9779 69.9099 78.2579C71.0598 77.5279 71.1098 78.4179 71.2398 78.6579L72.3098 80.9978C72.4898 81.3678 72.6598 80.9378 72.5898 82.5278C72.5698 83.1778 72.4998 83.0978 72.3698 83.2878L72.1398 83.6178C72.0598 83.7178 72.0998 83.6478 72.0098 83.7578L71.5098 84.8978C71.3898 85.5077 71.3598 85.3177 71.2698 85.5977C70.9898 86.5077 71.7698 87.0477 71.4798 88.7777C71.4098 89.2376 71.3998 88.8777 71.2398 89.3276C70.9898 89.9976 71.3398 90.1876 70.6998 91.3776L69.6799 92.9176C68.8099 94.2975 68.4599 94.2575 66.5799 93.8175C65.61 93.5975 65.53 93.8275 64.66 94.3675L64.15 94.7675C63.84 94.7975 63.35 94.8575 63.05 94.7875C62.4 94.6275 63.02 94.5175 62.22 94.3775L62.69 94.8575C62.9 94.9775 63.08 95.0275 63.3 95.1475C64.14 95.5875 63.58 95.8875 64.29 95.9775L63.91 95.3575C64.87 95.2375 65.04 94.7075 65.49 94.5375C65.84 94.4075 67.1099 94.5875 67.6499 94.5975C68.6999 94.6075 69.2199 94.6675 70.1098 93.4475L70.9898 92.0476C71.6198 90.9576 71.5698 91.2276 71.6798 90.3476C71.7398 89.7576 71.8498 89.9976 71.9698 89.5576C72.1898 88.6977 71.9698 86.1477 72.0498 85.0077C72.0798 84.9377 72.2898 84.9777 72.3798 84.6178C72.5698 83.8978 72.2898 84.6078 72.7098 83.9078C73.3498 82.8078 73.5798 81.8278 72.8598 80.7279L71.9498 78.6779C71.6298 78.1279 71.6098 77.9479 71.3798 77.7379C71.5898 77.5879 71.6998 77.4179 71.8998 77.3279L74.3497 75.808C75.1597 75.118 75.1297 74.828 75.4397 74.398L75.8797 73.838C76.0197 73.618 75.9197 73.768 75.9997 73.508C76.1497 73.028 76.0197 73.408 76.1797 73.118C76.4197 72.6881 76.2797 72.6081 76.3997 72.2881C76.4897 72.0181 76.4297 72.3581 76.5497 71.9981C76.6797 71.6081 76.5097 71.4781 76.5597 71.2481C76.6397 70.9081 78.2396 69.5581 78.5096 68.2582C78.5596 68.0082 78.4996 68.0582 78.6196 67.8282C79.1296 66.7982 78.7396 67.2082 78.9496 66.6582C79.0796 66.3182 79.1596 66.6282 79.2396 66.0582C79.2796 65.7582 79.2696 64.3283 79.2196 64.0483C79.1496 63.7283 79.0096 63.6783 78.9096 63.3683L78.6196 62.6983C78.5096 62.4383 78.4896 62.0183 78.5396 61.7183C78.6696 60.9683 79.1796 61.5383 78.6596 59.2684C78.4596 58.4084 78.6296 57.0384 78.7596 56.0285L78.8396 55.7285C78.8796 55.4385 79.7296 55.5685 80.1396 55.5085C80.5196 55.4685 80.7896 55.3585 81.2996 55.3085C82.0696 55.2385 83.2595 55.1685 84.0195 55.2485L84.7795 56.3685C84.8795 56.5085 84.8795 56.5385 84.9595 56.6584C85.0895 56.8284 85.0395 56.6984 85.1495 56.9084L86.0795 58.6584C86.2394 58.9484 86.2094 58.9684 86.3694 59.2884C86.5194 59.6184 86.5194 59.4084 86.6394 59.8384C86.9094 60.8283 86.9894 60.1884 87.0194 61.3683C87.0494 62.8083 87.1894 61.9383 87.3294 62.7483C87.4294 63.3483 87.3594 63.7883 87.5394 64.3883L88.0894 67.4282C88.1594 68.8381 88.1194 68.2282 88.3994 69.1181C88.5194 69.5281 88.4294 71.4281 88.6194 72.2281C89.0194 73.978 88.7894 77.2979 88.8194 79.3079L89.0294 78.9379C89.2694 78.4079 89.2494 78.4479 89.2494 77.8379C89.2394 77.0579 89.1794 76.728 89.0794 76.088C88.8994 75.018 88.9594 73.638 88.9294 72.4981C88.8894 71.1181 88.6694 70.3681 88.5894 69.0981L88.0094 65.7782C87.7994 65.1782 87.9194 64.6483 87.8294 64.0383C87.7694 63.6083 87.6994 63.8583 87.5694 63.4283C87.4794 63.1483 87.4994 62.7883 87.4894 62.4683C87.4794 61.5083 87.2594 61.6983 87.1694 60.9883C87.0394 59.9284 87.2894 60.6384 86.8794 59.8884L86.4294 58.8784C86.1694 58.1584 85.1695 56.5685 84.6895 55.8085C84.5195 55.5485 84.4195 55.4285 84.3295 55.2685C84.1295 54.9085 84.2495 54.8885 83.8695 54.7185C83.9095 54.0085 83.9695 53.8085 83.6695 53.2685C83.4495 52.8585 83.4895 52.2286 83.6195 51.7586C84.4495 51.3786 94.3592 51.7986 94.7692 51.5986C95.0692 51.4586 94.8592 51.7286 95.0192 51.3686C93.4493 51.7186 89.2194 51.4086 87.3394 51.4086C86.7394 51.4086 85.9895 51.4186 85.3995 51.3786C84.6995 51.3386 84.6195 51.0186 83.8295 51.4186C83.2195 51.7186 83.3095 52.0986 83.3795 52.8985C83.4795 54.0285 83.5995 53.7985 83.6695 54.0785C83.8595 54.7685 83.0095 54.2185 82.2795 54.5585C81.7196 54.8285 81.6196 54.7585 80.8996 54.7585C79.8596 54.7785 78.5896 54.9585 78.0696 54.5285L75.8297 53.0785C75.2397 52.6285 75.0997 52.4286 74.5497 51.8886L73.3198 50.7186C73.1298 50.5486 73.0498 50.5086 72.9098 50.3886C72.2898 49.8986 71.9298 49.8186 71.3298 49.6586C70.9798 49.5586 70.5698 49.1486 69.3099 49.3986C67.8399 49.6786 67.5699 50.5286 66.7299 51.4486L66.6699 51.2986C66.4199 50.5586 66.4699 50.9286 66.3299 50.5386C66.1299 49.9686 66.3999 49.9386 65.85 49.6686Z"
            fill="#FEFEFE" />
        <path fill-rule="evenodd" clip-rule="evenodd" class="state-map-path" id="enugu_state_Oa5QRLKpw"
            d="M57.0702 25.9092C57.3902 25.7492 57.1502 25.8792 57.3702 25.6892C57.4102 25.6492 57.5302 25.5392 57.6001 25.4692C58.4601 24.5892 57.6901 25.1192 58.7501 24.3192L60.3301 22.5893C60.5501 22.1593 60.5901 22.3393 60.6701 21.8993C60.6501 21.8793 60.6201 21.8293 60.6101 21.8493C60.6001 21.8693 60.5601 21.8093 60.5501 21.7993L58.7801 20.7193C58.3701 20.5493 58.8001 20.8293 58.0001 20.4093C57.6201 20.2194 57.5002 20.3593 57.1102 20.2494C56.7702 20.1494 56.8902 19.9894 56.3402 19.9494C55.4502 19.8794 54.1402 19.9694 53.2003 19.9294C52.7603 19.9094 52.1103 19.4994 51.7403 19.2994C51.0303 18.9094 51.7203 19.4594 50.9103 18.5694C49.7403 17.2794 50.5103 17.3194 50.0903 16.7194L50.0003 16.6294C49.3604 15.7995 49.6803 16.1395 49.3304 15.3595C49.1704 14.9895 49.2004 14.9195 49.1404 14.5295C49.0504 13.8895 49.0004 14.3195 48.8504 13.7895C48.7004 13.2695 48.5704 12.7395 48.3004 12.2595C48.0104 11.7596 48.1904 11.7696 47.9704 11.3796L47.8204 11.1896C47.6504 10.9196 47.6304 10.0396 47.6104 9.73961C47.6004 9.34962 48.1704 7.62966 46.2504 8.60964L43.9105 9.48962C43.1805 9.74961 42.6405 10.4996 42.5405 10.6996C42.3005 11.1196 42.5705 10.8096 42.1705 11.3196C42.1305 11.3796 41.9405 11.6496 41.9305 11.6696L41.8805 11.8096C41.8005 12.1296 41.9205 12.1396 42.0205 12.4495C42.1205 12.7495 42.1605 14.0795 42.0505 14.3695C42.0305 14.4395 41.9005 14.6095 41.8505 14.6995L41.3506 15.7595C41.1406 16.1695 41.0706 16.0295 41.0106 16.5494C40.9606 17.0294 40.9206 18.2394 41.1006 18.6294C41.1106 18.6594 41.2306 18.8094 41.2806 18.9194C41.5405 19.4894 41.1406 18.8694 41.6405 19.6794C42.0905 20.4093 42.0705 20.3893 42.7505 20.9293C43.4905 21.5193 43.3405 20.9993 44.1805 21.4293L44.2805 21.4993C44.7905 21.7093 45.5304 21.4493 46.3304 21.7493C46.9704 21.9893 47.4204 21.9393 48.2404 21.9793C48.5704 21.9893 48.8804 21.9793 49.1904 22.0593C49.5503 22.1493 49.6403 22.2393 50.0703 22.2793C51.3603 22.3893 51.1803 22.0793 51.9303 22.5293C52.1103 22.6393 53.5502 23.1493 54.8002 23.9793L56.4202 25.3892C56.5802 25.5692 56.4502 25.4892 56.6802 25.6892C56.9802 25.9492 56.6502 25.7892 57.0702 25.9092Z"
            fill="#91D8F7" />
        <path fill-rule="evenodd" clip-rule="evenodd" class="state-map-path" id="enugu_state_GfpnzTaWK"
            d="M56.7402 74.138L57.0102 74.298C57.1602 74.348 57.0902 74.328 57.2502 74.348C57.3702 74.358 57.6701 74.348 57.8001 74.338C58.4801 74.328 60.5901 74.248 60.9501 74.078C61.75 73.708 64.16 73.828 65.26 73.878C65.63 73.888 66.8699 74.298 67.0099 74.418L68.4199 75.318C68.7799 75.498 68.5299 75.368 68.7899 75.578L70.1498 76.448C70.5798 76.708 70.8798 77.1079 71.1398 77.0979L74.0397 75.308C74.2397 75.138 74.4697 74.908 74.6297 74.708C74.9297 74.308 75.3097 73.638 75.4797 73.148C75.7297 72.4281 76.2597 72.3881 75.0897 71.8781L72.8098 70.3681C72.6298 70.2581 72.6198 70.1981 72.4798 70.1481C71.9298 69.9281 61.4501 70.3281 60.8401 70.0381C60.8301 70.0381 60.6701 69.8481 60.6501 69.8381L60.5501 69.7481C60.0401 69.2981 60.6001 69.5281 60.0501 69.1881L60.0201 68.8182C59.8001 67.9582 58.2801 68.2182 57.6301 68.2882L57.1802 69.6481C57.0602 70.2581 57.0402 69.8781 56.9002 70.3081C56.8102 70.5581 56.8502 70.7881 56.7302 71.0581C56.5602 71.4281 56.5302 71.1581 56.5002 71.7581C56.3802 74.068 56.7202 73.658 56.7402 74.138Z"
            fill="#D2E28B" />
        <path fill-rule="evenodd" clip-rule="evenodd" class="state-map-path" id="enugu_state_NJZrt97xs"
            d="M60.1601 35.969C59.8801 36.249 59.6101 36.159 59.1801 36.159C59.2401 36.359 60.3801 36.249 60.6501 36.249C60.5401 36.539 60.4601 36.479 60.3801 36.799C60.2901 36.729 60.0901 36.719 60.0301 36.689C60.1601 37.0889 60.1801 36.8489 60.3101 37.2889C60.4401 37.7789 60.5701 37.9889 60.9001 38.3989C60.9801 38.4989 61.2301 38.7689 61.2801 38.8389C61.73 39.4089 62.2 40.1089 62.86 40.4789C62.87 41.0788 62.9 41.6888 63.06 42.1988C63.16 42.5288 63.15 42.6388 63.23 42.9588C63.35 43.4088 63.22 43.0288 63.38 43.2788L63.89 44.1688C64.08 44.4788 63.87 44.1988 64.07 44.4288L64.24 44.6188C64.52 44.9387 64.76 45.4187 64.92 45.7887C65.31 46.6387 64.67 48.4687 65.17 49.2286C65.47 49.6786 65.26 49.3586 65.41 49.9286C65.52 50.3486 65.5799 50.0386 65.7099 50.5186C66.0499 51.7586 66.1399 50.9786 66.0999 51.9086C65.39 51.9786 64.67 51.9086 63.98 51.9586C63.27 52.0086 62.92 52.1886 62.13 52.2086C61.4401 52.2286 60.6901 52.1786 60.0201 52.2286C59.4301 52.2586 59.5901 52.3786 59.2401 52.5086C58.9301 52.6386 58.7401 52.5486 58.4301 52.7086C57.6701 53.0985 58.2501 52.8186 57.5701 52.9886C57.1402 53.0885 57.4302 53.1685 56.9102 53.3085C55.7602 53.6285 56.2302 53.6785 55.1402 53.6685C53.8202 53.6685 52.1803 53.7885 50.9003 53.6285C50.6203 53.2785 50.9103 53.4885 50.5303 53.2985L49.3404 52.5286C48.8904 52.1386 47.8904 51.3186 47.3004 51.1786C46.9504 51.0886 47.1004 51.2086 46.7804 51.0286C45.8804 50.5386 46.6104 51.0586 45.2305 50.5586C45.0305 50.4786 44.9205 50.4886 44.7005 50.4386C44.1905 50.2986 43.0705 49.3186 42.5205 48.9587C42.3805 48.8687 42.4705 48.9387 42.3505 48.8487C41.7605 48.3887 42.1005 48.7687 41.5405 48.5687C41.2506 48.4687 41.5505 48.5887 41.3505 48.4687C40.8206 48.1287 40.8606 48.3887 40.3706 48.1687C39.9406 47.9787 40.5006 48.0587 39.8806 47.9387C39.6606 47.8887 39.5406 47.9287 39.3506 47.7987C38.6406 47.3487 38.9806 46.2987 38.7806 45.6787C38.6406 45.2687 38.2006 44.8088 38.7706 44.4388L39.5806 43.8788C39.8906 43.5988 40.7306 43.1188 40.9706 43.0388C41.8705 42.7288 41.0206 42.8088 41.8905 42.6588C42.7705 42.5088 42.0505 42.3688 42.8905 42.2888L44.8105 42.3388C45.9804 42.5988 44.8905 42.4488 46.3904 42.2488C46.6304 41.7388 46.3404 42.1188 46.8204 41.9188C47.2104 41.7488 46.9904 41.7688 47.3304 41.6588C47.7104 41.5288 47.5504 41.6888 47.8704 41.4788C48.1404 41.2988 47.9504 41.2188 48.3204 41.3088C47.8204 41.3188 48.2404 41.3188 47.7904 41.5388C47.5504 41.6588 47.3104 41.6588 47.1504 41.7288L46.8504 41.8988C46.6804 41.9588 46.6704 41.9288 46.5604 41.9788C46.3704 42.0488 46.2504 42.2688 46.2504 42.2688C46.2404 42.2488 46.2204 42.2988 46.2104 42.3188C45.6604 42.3188 45.0105 42.3488 44.4705 42.3188C44.1805 42.2988 43.2905 42.0388 43.0805 42.3188C41.8405 42.3188 42.5705 42.3488 41.9605 42.6188C41.6805 42.7388 41.7705 42.5888 41.4005 42.8488C40.9906 43.1488 41.0406 42.9788 40.7706 43.0888L40.3806 43.3388C39.5606 43.7288 38.9506 44.4588 38.5706 44.5288C38.5706 46.4287 38.6606 45.3387 38.8206 46.4287C38.8606 46.7587 38.8106 47.1887 38.9006 47.4787C38.9806 47.7187 39.0206 47.6087 39.2206 48.1187C39.6606 48.1187 39.7306 48.1687 40.0506 48.2087C39.7806 48.4287 39.6906 48.3987 39.2806 48.3687C40.5306 48.5887 39.6506 48.5987 40.5006 48.7187C41.3305 48.8387 40.8306 48.9587 41.6005 49.1386L42.6505 49.6486C42.9605 49.9086 42.8805 49.9686 43.4305 50.3486C44.8205 51.3086 44.3705 50.7586 45.0005 51.0786C45.8504 51.5086 45.6504 51.1686 46.2904 51.3486L47.5904 51.9086C48.4104 52.2986 47.6904 51.9186 48.2004 52.2886L49.5603 53.3285C50.3803 53.9985 50.6503 54.1685 51.7303 54.1985L56.3302 54.1585C57.0502 54.0785 56.5102 53.7785 57.4302 53.8185C57.5701 54.9785 57.4702 56.8185 57.4802 58.0484C57.4902 59.4684 57.4902 60.8684 57.4702 62.2883C57.4502 63.4883 57.5401 65.3182 57.3602 66.4282C57.2902 66.8582 57.2202 66.6882 57.2102 67.3382C57.2002 67.7682 57.1602 67.9282 57.1202 68.2782C57.0202 69.0082 57.0402 68.6782 56.8402 69.1482C56.7002 69.4781 56.7702 69.5481 56.5802 69.8881C56.3302 70.3581 56.4902 70.3281 56.3402 70.7781C56.1902 71.2381 56.1102 70.8381 56.0502 71.4781C55.7202 74.828 56.9602 73.938 55.9802 75.088C54.6802 76.628 55.1702 76.628 54.8002 77.118C54.7002 77.248 54.5902 77.028 54.5802 77.9179C54.5802 79.0679 53.9202 79.7679 54.5102 81.6678C54.6102 81.9778 54.8202 82.8978 55.1002 83.0778C55.6002 83.1278 55.5302 83.8678 55.4602 84.2978C56.4302 84.3878 55.8802 84.4878 56.3902 85.3378L56.5502 85.6277C56.6802 85.8177 57.1502 86.2377 57.1902 86.8077L58.6201 89.2677C58.7201 89.4177 58.7101 89.3677 58.8201 89.5076L59.1901 90.0576C59.3701 90.3076 59.1901 90.0176 59.3501 90.3376L59.4101 90.4676C59.5001 90.6176 59.4201 90.4876 59.5301 90.6476L60.6001 92.1576C61.2601 93.2476 60.9701 93.0476 61.4901 94.0075C61.58 94.1675 61.76 94.3775 61.88 94.5475C62.06 94.7975 62.56 95.2475 62.89 95.3175L63.32 95.5675C63.81 95.8575 64.91 96.7575 65.1 97.2475C65.17 97.4375 65.2 98.0974 65.28 98.4174C65.45 98.1874 65.55 98.2274 65.8199 98.1674C65.8899 97.6074 65.8399 97.8274 65.6399 97.4375C65.42 97.0075 65.25 96.9175 64.96 96.6175C64.76 96.3875 64.49 96.0875 64.29 95.9775C63.58 95.8875 64.14 95.5875 63.3 95.1475C63.08 95.0275 62.9 94.9775 62.69 94.8575L62.22 94.3775L61.72 93.4176C61.4101 92.9076 61.74 93.0676 61.3701 92.5676L60.6001 91.3176C60.3601 90.9676 60.1301 90.7176 59.8901 90.3776L58.3701 87.9177C58.1201 87.4377 58.3001 87.8077 58.0501 87.4377L57.5801 86.7177C57.5601 86.6977 57.5202 86.6277 57.5002 86.6077C57.0702 85.9977 56.4802 84.6278 56.2702 84.3378L55.1502 82.2378C54.9902 81.9578 55.0702 81.9778 55.0102 81.6278C54.9602 81.2779 54.5002 80.6279 54.8302 79.4579C55.2002 78.1379 54.9502 77.8579 55.0902 77.3279C55.2102 76.918 55.2902 77.138 55.3102 76.788L55.3502 76.358L55.9502 76.438C55.8902 75.848 55.6602 76.438 55.7302 75.928C55.7802 75.558 56.5302 74.988 56.8102 74.798L56.7402 74.138C56.7202 73.658 56.3802 74.068 56.5002 71.7581C56.5302 71.1581 56.5602 71.4281 56.7302 71.0581C56.8502 70.7881 56.8102 70.5581 56.9002 70.3081C57.0402 69.8781 57.0602 70.2581 57.1802 69.6481L57.6301 68.2882C58.2801 68.2182 59.8001 67.9582 60.0201 68.8182C60.1001 68.5282 60.0201 68.7582 59.8901 68.4182L59.8701 68.3282C59.8401 68.2182 59.9501 68.2682 59.7401 68.0982C59.1701 67.6482 58.4401 68.1682 57.6301 67.7082L57.8201 57.0385C57.8201 53.0785 57.4402 53.5685 58.7301 53.0885C59.6701 53.2185 59.5401 52.7386 60.6501 52.7186C61.67 52.7086 65.6699 52.7886 66.3999 52.4786C66.9499 52.2386 66.7199 52.4386 66.9999 51.9786C67.0699 51.8086 67.1299 51.6286 67.1699 51.3586C66.7599 51.5486 67.2999 51.7186 66.6399 51.6986C66.3799 51.3686 66.5299 51.3686 66.4299 51.1386C66.3199 50.9086 66.3299 51.1786 66.1699 50.7686C66.0799 50.5286 66.1099 50.3486 66.0299 50.1586C65.8999 49.8686 65.8599 50.2686 65.8499 49.6686C65.9199 49.1786 65.8099 49.0786 65.6699 48.7087C65.33 47.7487 65.8099 45.9387 65.35 45.2487L63.9 43.1288C63.74 42.8388 63.82 43.2188 63.69 42.7188C63.28 41.1888 63.6 40.7889 62.97 39.8989C62.72 39.5389 62.68 39.7189 62.4 39.3689C62.28 39.2189 62.27 39.1589 62.13 38.9989L61.3801 38.0889C61.3501 38.0289 61.3201 37.9889 61.2701 37.9289C60.8101 37.1889 60.7601 37.4289 60.7801 36.629C60.7801 36.599 60.7901 36.589 60.7901 36.569C61.3001 36.339 62.01 36.469 62.64 36.359C65.27 35.899 65.7599 36.319 68.1199 36.059C70.6698 35.789 70.1198 35.549 71.1098 34.359C71.1198 34.349 71.1398 34.329 71.1498 34.319C71.4398 33.939 71.0798 33.799 71.7198 32.869C72.5598 31.6491 78.1396 32.5491 79.6796 32.1591C80.0196 32.0691 79.7696 32.0691 80.1596 31.8391C80.6096 31.5791 81.9295 30.2991 82.2495 29.8791C83.4295 28.3192 82.3795 28.8891 83.1095 27.7892C82.1095 27.8392 83.0095 28.6692 82.5495 29.0391C82.4595 28.7591 82.5195 28.6992 82.5295 28.4292C82.5395 27.8692 82.6495 27.9692 82.2395 27.7892C82.4695 28.6392 82.3795 28.8591 82.0595 29.2291C81.5596 29.8091 80.1196 31.4491 79.3196 31.6491L74.5497 31.6991C73.1998 31.6991 72.9998 31.5091 72.2198 31.9091C72.1998 31.9191 72.1698 31.9291 72.1498 31.9391C72.1298 31.9491 72.1098 31.9591 72.0898 31.9691L71.4198 32.3891C70.5998 32.3991 71.0598 32.2591 70.4498 32.0791C69.4699 31.7891 69.9998 31.8291 69.5499 31.7091C69.3099 31.6491 69.2899 31.7091 69.0299 31.5491C68.3499 31.1091 68.5799 31.4791 68.0799 31.2191C67.6999 31.0191 68.2399 31.1791 67.7499 31.0091C67.5399 30.9391 67.4399 30.9691 67.2199 30.8891C66.9299 30.7791 67.1199 30.7791 66.7899 30.6591C66.5199 30.5691 66.5399 30.6491 66.2899 30.4991L65.56 30.0491C65.11 29.6791 65.46 30.0891 64.7 29.6291C64.05 29.2291 60.5201 29.7691 59.2701 29.4791C59.0101 29.4091 59.0201 29.3391 58.8401 29.2491C58.6801 29.1691 58.5601 29.1591 58.3801 29.0591C58.0101 28.8391 57.7101 28.4092 57.5202 28.0692C57.4302 27.9192 57.3402 27.8092 57.3002 27.6492C57.2002 27.3392 57.2302 26.8792 57.3102 26.5892C57.1402 26.7192 57.3302 27.5192 57.2302 27.7892C57.0902 28.1092 57.3102 27.9092 56.9702 28.0592C56.9702 27.2392 56.9202 26.7792 56.4302 26.1992C56.1802 25.8992 56.2302 26.1292 56.1502 25.6692L55.7602 25.6292C55.9902 25.7792 56.4902 26.5292 56.6102 26.7692C56.9502 27.4092 56.2102 27.7692 57.8001 29.4491C58.8201 30.5191 60.8401 29.8591 62.92 30.1891C63.91 30.3491 64.5 30.1191 65.04 30.5791C65.7499 31.1891 65.56 30.3191 65.8099 31.1091C66.2599 31.1291 66.2899 31.0791 66.6299 31.2791C67.2099 31.6191 67.0399 31.3791 67.5399 31.6591L69.1099 32.2191C69.6598 32.3591 69.1999 32.3491 69.6298 32.4991C70.0698 32.6691 70.0298 32.4191 70.7098 32.929L70.7798 33.799C69.8498 34.439 70.7998 33.889 70.2498 34.539C70.2298 34.559 70.1798 34.609 70.1598 34.629L69.6798 35.149C69.2799 35.439 67.9399 35.349 67.4599 35.369C66.8399 35.389 66.7999 35.579 66.1799 35.619C64.87 35.719 60.8701 35.519 60.1601 35.969Z"
            fill="#FEFEFE" />
        <path fill-rule="evenodd" clip-rule="evenodd" class="state-map-path" id="enugu_state_klSK7S4CC"
            d="M55.9102 75.898C56.0202 76.128 58.8701 79.1479 60.0201 79.2679C61.87 79.4679 60.7301 79.5179 61.49 79.6279C62.27 79.7479 62.7 79.4179 63.22 79.4679C65.12 79.6679 63.46 80.0279 66.5399 80.0179C68.7399 80.0179 68.0599 78.9979 69.2799 77.9979C69.4999 77.8179 70.0998 77.5179 70.3598 77.4679C70.2898 77.0779 68.1199 75.818 67.8199 75.628L67.0399 75.128C66.2399 74.628 66.0799 74.798 65.6499 74.578C65.02 74.258 63.4 74.368 62.67 74.398C61.89 74.438 62.1 74.728 60.6601 74.758C58.5901 74.798 60.7601 75.138 57.5301 75.098C55.9602 75.078 56.7902 75.378 55.9102 75.898Z"
            fill="#9DD3AF" />
    </svg>