<svg class="svg_map" viewBox="0 0 113 123" fill="none" xmlns="http://www.w3.org/2000/svg">
        <path fill-rule="evenodd" clip-rule="evenodd" class="state-map-path" id="fct_state_f5MvviEx4"
            d="M13.4902 57.4232C13.3802 57.8232 13.3602 57.4632 13.3602 58.8431C13.3602 59.5031 13.3802 60.1431 13.3902 60.8031C13.4202 62.713 13.0403 64.123 12.4603 65.853C12.2603 66.4429 12.1503 66.8629 11.8803 67.3329L10.4503 69.8629L8.26037 72.3528C7.85038 72.6428 6.34042 73.9328 6.20042 74.2028C5.31044 75.9727 5.37044 76.5227 5.35044 78.6126C5.33044 80.3726 6.58041 81.7526 5.95043 85.5225C5.85043 86.1025 5.67043 87.1824 5.47044 87.6224C5.25045 88.0824 4.54046 88.8324 4.76046 89.4224C5.42044 91.2623 6.07042 90.4124 4.95045 93.3423C4.18047 95.3722 4.71046 95.5922 5.12045 97.6422C5.31044 98.5722 5.82043 98.5122 5.82043 99.5221C5.82043 100.402 5.74043 101.342 5.79043 102.212C6.20042 102.362 6.69041 102.562 7.2104 102.742C8.55036 103.242 10.4903 103.612 11.9203 103.912C13.4102 104.222 13.5302 104.422 15.2702 104.192C16.2702 104.062 18.1401 104.092 18.9301 104.472L22.74 106.532C23.73 107.112 24.28 108.682 25.2999 108.962C25.9199 109.132 27.0099 109.372 27.3899 109.802C27.7199 110.172 27.8599 110.672 28.2299 110.982C28.8799 110.532 29.1599 109.732 29.6598 109.162C29.9398 108.842 30.3198 108.622 30.5398 108.332C30.7798 108.012 30.8298 107.482 30.9698 107.082C31.6398 105.062 31.7598 104.342 33.6797 103.022C35.3997 101.832 37.2797 101.052 39.0896 100.052C39.5196 99.8121 39.5996 99.6321 39.9196 99.2021C41.6195 96.9022 40.8996 97.5022 43.0695 95.6722C43.9295 94.9522 43.9095 94.5723 44.3595 93.5923C44.9495 92.3123 45.1295 92.3523 44.8295 91.0823C44.7195 90.6224 44.1695 88.8924 43.9795 88.5924C43.3495 87.5724 43.1395 88.0824 42.7295 86.5425C42.1295 84.2325 41.7995 81.5926 43.5195 79.7326C44.4995 78.6726 44.9495 78.1227 46.3494 77.5827L48.8494 76.7127C50.6293 76.1627 51.1293 76.5927 52.5693 75.3527C53.0693 74.9127 53.0493 75.0227 53.2193 74.3028C53.5793 72.7028 52.3393 70.9228 51.4293 69.6529C50.7393 68.6929 50.7193 68.6029 49.6693 68.0329C49.0494 67.7029 46.7194 66.7929 46.3594 66.353C45.6494 65.483 45.1795 63.933 44.1695 63.463C42.5895 62.723 43.3795 62.543 42.6795 61.5731C42.2895 61.0331 41.2696 60.5531 40.6296 60.2331C39.7296 59.7931 40.1296 59.9831 39.3396 60.1431C38.7296 60.2631 36.6197 60.2431 35.9897 60.1231C34.0797 59.7831 34.4197 59.9231 32.9498 58.1232C32.6998 57.8132 31.5798 56.4832 31.3398 56.3532C30.5998 56.1132 28.4999 56.5832 27.6799 56.8632C27.3399 56.9732 26.9399 57.0932 26.5599 57.2032C25.09 57.6132 23.7 58.1832 22.37 58.6031C21.36 58.9131 18.2901 59.1531 17.2601 58.9431C15.9002 58.6631 14.9902 57.8632 13.9102 57.2432L13.9002 57.2532C13.6402 57.0632 13.5302 57.0732 13.4902 57.4232Z"
            fill="#91D8F7" />
        <path fill-rule="evenodd" clip-rule="evenodd" class="state-map-path" id="fct_state_f5Mvvjhsjkdf"
            d="M12.8102 52.1733C12.4302 51.2133 12.6702 50.1533 12.6802 49.1334C12.6902 48.2334 12.9402 47.9434 12.9302 46.7334C12.9202 45.1835 14.0302 46.7134 12.4702 43.7935C11.6403 42.2435 11.1103 41.5036 11.9303 39.6936C12.4502 38.5236 12.4402 38.8536 12.9702 37.9736C13.0602 37.8236 13.1302 37.6537 13.1902 37.5637C13.6402 36.8637 13.6902 36.9937 13.5702 36.0537C13.4602 35.2337 13.0802 34.7237 12.5202 34.3937C10.9503 33.4938 10.4803 33.3538 9.53031 31.8638C9.69031 31.5338 9.8403 31.3438 10.1403 31.0638C10.1503 29.6538 9.9703 29.1039 11.2903 28.2839C11.7303 28.0139 12.1802 27.8539 12.7102 27.7339C14.3202 27.3539 14.1602 27.2039 15.0202 26.1439C15.4602 25.6139 15.0202 25.214 15.4202 24.584C15.9602 23.734 17.4001 23.784 18.5201 23.724C18.8501 23.704 20.31 23.154 20.62 22.924C20.75 22.824 21.01 22.564 21.12 22.444C21.36 22.174 21.38 21.684 21.68 21.0541C22.19 20.0041 21.03 18.9941 23.16 18.6341C24 18.4941 24.5599 17.6841 25.6299 17.1642L26.5199 16.6242C26.8499 16.4042 26.6599 16.6542 26.8199 16.3742C26.1399 16.3542 23.33 16.2542 22.77 16.4542C22.26 16.6342 22.1 16.5842 21.5 16.6242C20.6 16.6742 19.7601 16.7442 18.8801 16.7642C17.8001 16.7942 15.8902 16.3842 15.0802 16.5042C13.0002 16.8342 14.0802 16.7942 11.2203 16.7942H7.12037C6.69038 16.7942 4.61043 17.2142 3.29047 17.2242C2.66048 17.2242 2.71048 17.2042 2.17049 17.3642C1.8805 17.4442 0.68053 17.3742 0.69053 18.5941L0.520534 19.9041C0.170543 21.0141 0.710529 28.7339 0.67053 30.7138C0.650531 31.5138 0.480535 31.9238 0.470535 33.2938C0.460536 35.1337 0.480535 36.9737 0.470535 38.8136C0.450536 40.3836 -0.269446 45.1935 0.110544 46.5534C0.370538 47.4934 0.140543 48.0034 0.440536 48.9734C0.70053 49.8034 0.68053 50.6533 0.68053 51.5433C0.69053 52.4633 0.69053 53.3833 0.69053 54.3032C0.70053 57.9731 0.840526 61.5131 0.880525 65.163C0.890525 67.0029 0.870525 68.8329 0.890525 70.6728C0.910524 72.4328 1.03052 74.2827 1.05052 75.9327C1.10052 79.6126 1.09052 83.3025 1.13052 86.9824C1.15052 89.1824 1.61051 108.232 1.44051 108.682C1.10052 109.622 0.720529 108.962 0.640531 110.662C0.590532 111.602 0.910524 112.142 1.20052 112.862L4.34044 120.752C4.76043 121.782 5.57041 121.622 7.03037 122.162C7.51036 122.332 7.62036 122.182 8.10035 122.102C8.51034 122.042 8.91033 122.032 9.35032 122.032C10.5403 122.032 11.6903 121.632 13.3402 121.922C14.6002 122.142 14.4702 122.132 15.9402 122.092C17.1201 122.052 17.6901 121.452 19.6801 121.682C20.23 121.742 20.19 121.852 20.83 121.902C22.04 122.002 21.69 122.122 23.42 122.102C24.3399 122.092 25.2599 122.102 26.1799 122.112C26.9299 122.122 27.0199 121.832 27.6199 121.522C27.8399 121.412 27.9399 121.422 28.1299 121.312C28.6298 121.042 29.1398 117.902 29.4798 117.142C29.9598 116.052 29.9798 116.992 30.1898 115.122C30.2398 114.682 30.2498 114.242 30.2498 113.772C30.2598 113.062 30.3298 113.152 30.0098 112.682C28.8998 112.582 29.0498 112.842 28.4698 112.022C27.5799 110.752 27.5699 110.032 26.3799 109.652C25.3799 109.342 24.8699 109.272 24.2699 108.472C23.08 106.922 21.53 106.022 19.7601 105.232C19.3601 105.052 18.7001 104.632 18.2601 104.602C17.8901 104.572 17.6001 104.612 17.2501 104.542C15.5202 104.172 15.6102 104.942 12.3802 104.372C10.7503 104.082 7.39036 103.232 5.9104 102.622C5.7604 102.562 5.65041 102.492 5.50041 102.422C5.45041 101.652 5.48041 100.842 5.49041 100.062C5.51041 98.3122 5.11042 99.1021 4.61043 96.8822C4.43044 96.0722 3.98045 95.1222 4.30044 94.2423L5.17042 91.6123C5.33042 91.1523 5.20042 91.0123 5.04042 90.6623C4.26044 89.0024 4.07045 89.5724 4.81043 88.2324C5.53041 86.9124 5.22042 86.6824 5.61041 85.4625C5.8504 84.7025 5.73041 82.9125 5.70041 81.9826C5.67041 80.9826 5.08042 80.0126 5.05042 78.9726C5.03042 78.2127 5.07042 77.4127 5.07042 76.6527C5.07042 75.5727 5.7704 74.0028 6.59038 73.3528L7.90035 72.2828L9.71031 70.3328C10.1403 69.7229 11.4503 67.6329 11.7503 66.9529C12.1402 66.053 13.1002 62.683 13.1102 61.7831C13.1102 61.4131 13.1002 60.9931 13.0702 60.6731C12.9902 59.9631 12.7002 57.9832 13.1402 57.2932C13.1702 57.2532 13.1902 57.2132 13.2102 57.1832V56.9132H13.2202C13.2302 56.9032 13.2802 56.8632 13.2902 56.8532C13.3002 56.8532 13.3302 56.8232 13.3302 56.8232C13.3502 56.7932 13.3802 56.7732 13.3902 56.7432C13.4002 56.7432 13.4102 56.7332 13.4102 56.7232L13.4202 56.7132H13.5502C13.4802 55.5932 12.9302 52.4933 12.8102 52.1733Z"
            fill="#F6AFCE" />
        <path fill-rule="evenodd" clip-rule="evenodd" class="state-map-path" id="fct_state_fyuweiryskjvn"
            d="M22.35 19.1741C22 19.6941 22.09 19.6541 22.09 20.3841C22.1 21.1741 21.96 21.0441 21.75 21.644C20.51 25.244 16.0002 23.274 15.5602 24.964C15.2402 26.1939 16.1602 24.814 14.6402 27.1939C13.9502 28.2639 11.1203 27.9139 10.5503 29.4139C10.0703 30.6638 10.9603 30.6938 9.82031 31.8638C11.2203 33.5038 11.6303 33.2438 12.9402 34.3337C13.7802 35.0437 14.3702 36.3337 13.7302 37.3237C12.7502 38.8436 12.3103 39.1836 11.8503 41.1536C11.5503 42.4235 13.8302 44.7735 13.8002 46.1134L13.3602 46.2734C13.3202 49.0534 12.5302 49.6434 13.3202 52.7233C13.3702 52.9133 14.0102 56.1532 14.0102 56.1632C14.0102 56.4132 13.9802 56.6532 13.9702 56.9032L15.3202 57.7731C17.2401 59.1531 19.9201 58.4831 22.18 58.3131C23.52 57.8731 31.0298 54.6832 31.8298 56.4832C32.6197 57.3032 33.3397 58.0531 33.9797 58.9731C34.8997 60.3031 41.3595 60.0931 41.2895 58.7531C41.1695 58.4131 40.9195 58.2731 40.6896 58.0431C40.4996 57.8531 40.1796 57.6132 40.1196 57.3732C40.0396 57.0632 40.5896 55.9632 40.8295 55.6832C41.9095 53.9632 43.4795 53.1933 44.3295 51.7033C44.8994 50.6833 45.7094 49.7333 46.4994 48.8934C46.7194 48.6634 46.8694 48.5234 47.1094 48.2634C47.3594 48.0134 47.8994 46.9734 47.9994 46.6634C48.1894 46.0534 47.8494 46.2634 48.2794 45.6835C49.1893 44.5635 51.8793 41.2136 52.4993 39.9336C53.0792 37.1637 53.8292 36.8337 53.2692 33.6937C52.2493 33.6237 52.8092 33.9737 51.5693 33.5637C50.8693 33.3238 50.6893 33.1238 50.1693 32.5538C46.5294 28.5339 35.3197 17.8041 30.5098 16.1642C29.1398 15.6942 29.5698 15.9642 28.4699 16.1342C28.1399 16.1942 28.0499 16.1542 27.7499 16.2542C26.0899 17.2442 24.14 18.8341 22.35 19.1741Z"
            fill="#9DD3AF" />
        <path fill-rule="evenodd" clip-rule="evenodd" class="state-map-path" id="fct_state_pyiprtyio"
            d="M40.6695 59.9131L42.0295 60.7131C43.9195 62.073 42.9295 62.283 43.6495 62.823C44.7394 63.663 44.3294 62.583 45.8794 65.053C46.3294 65.7629 46.4494 66.2229 47.2994 66.5629L50.3593 68.0529C51.0593 68.4629 51.2093 68.9429 51.7393 69.6129L52.6192 70.9528C52.7192 71.1428 52.8392 71.3328 52.9192 71.4628C53.1792 71.9128 53.7592 73.0028 53.6792 73.5828C53.4892 74.9127 53.6092 74.8727 52.6992 75.5627C52.2593 75.8927 51.9793 76.3527 51.4493 76.4527C49.5993 76.8127 47.8694 77.2827 46.1894 77.9826C44.8094 78.5526 43.2495 80.0126 42.8295 81.4826L42.6195 82.2625C42.4795 82.9325 42.6895 84.7525 42.7895 85.4425C42.8395 85.8025 42.8995 85.7025 42.9695 86.0224C43.2695 87.2924 43.1295 87.2524 43.8895 88.0524C44.4294 88.6124 44.6694 89.3224 44.8694 90.0223C45.5494 92.4423 45.5394 91.7823 44.3094 94.5022C44.0795 95.0022 44.0695 95.1622 43.7495 95.4722C43.4895 95.7322 43.1895 95.9322 42.9095 96.1422C42.2695 96.6122 41.8895 97.0022 41.4295 97.5922C40.7995 98.4221 40.2595 99.4321 39.5096 100.132C39.1296 100.492 37.1896 101.362 36.5996 101.662L33.7597 103.292C33.4297 103.522 33.2397 103.692 32.9197 103.952C32.4797 104.292 32.5297 104.182 32.2497 104.722C31.7898 105.582 31.4898 106.502 31.2098 107.412C31.1198 107.712 31.1698 107.752 31.0398 108.042C30.7698 108.632 29.9598 109.152 29.6498 109.582C29.4598 109.832 29.2798 110.192 29.0498 110.502C28.8798 110.732 28.3898 111.062 28.4198 111.372C28.4898 111.552 28.8998 112.162 28.9698 112.222C29.2398 112.432 29.8498 112.352 30.2698 112.412C30.7298 113.242 30.5398 113.832 30.5198 114.842C30.4898 116.412 30.5298 115.952 29.9298 116.992C29.7898 117.252 28.6898 120.962 28.6698 121.242C29.4198 121.272 30.4198 121.092 31.3498 121.032C31.8398 120.992 32.0397 120.862 32.5897 120.842C33.2697 120.802 33.2197 120.812 33.6897 120.572C33.9997 120.422 34.3297 120.272 34.6497 120.102C35.7497 119.542 37.3796 119.812 38.6396 119.762C39.5096 119.732 40.4895 119.732 41.2395 119.482C41.9595 119.262 42.7895 119.092 43.5495 118.912C45.1394 118.532 46.9394 118.482 48.5393 118.132C50.2193 117.752 51.7293 117.912 53.4192 117.322C54.1192 117.082 54.9192 116.902 55.5292 116.592C56.1892 116.252 56.8291 115.912 57.4991 115.612C57.8191 115.472 58.2091 115.292 58.5191 115.182C59.5891 114.802 60.899 114.682 61.949 114.372C62.349 114.252 62.739 114.272 63.169 114.152C64.359 113.812 65.6289 113.752 66.7589 113.362C67.0589 113.262 67.4989 113.122 67.8489 113.032C69.0788 112.692 68.1089 112.322 70.5988 111.512C71.9088 111.092 74.8187 109.252 76.1987 108.492L77.8986 107.342C78.4086 106.982 79.4186 106.832 80.0586 106.672C81.0185 106.422 83.0485 105.172 83.7185 104.542C84.0585 104.212 84.0885 104.152 84.3185 103.722C84.8584 102.742 87.8084 98.6221 88.5184 97.8522C89.6883 96.5922 90.1883 96.2922 91.0983 94.7322L92.2283 92.9523C92.0083 93.0023 91.8183 93.1723 91.5283 93.2923C91.2383 93.4223 91.0083 93.5123 90.6783 93.6023C89.7783 93.8423 89.6183 93.7323 88.6784 93.8323C87.8284 93.9223 87.8984 94.3722 87.0384 93.9622C86.4584 93.6923 85.7784 93.8523 85.4284 93.2623C84.5085 91.7223 86.0184 91.5623 86.8584 90.8523C87.2484 90.5123 87.6284 90.2023 88.0684 89.8424C88.4984 89.4924 88.9083 89.2324 89.3383 88.7824C90.0983 88.0124 90.6683 87.2624 91.6083 86.6024C91.9983 86.3324 92.4983 85.8725 92.8183 85.5925C93.7582 84.7925 93.7982 84.4925 94.1382 83.5525C94.2582 83.2425 94.3782 82.9925 94.5082 82.7425C94.6982 82.4025 95.7382 80.0326 95.8382 79.5626C95.9282 79.1626 95.9582 78.9326 96.0582 78.5926L96.2282 77.8326C96.2282 77.8127 96.2082 77.7826 96.2082 77.7627C96.0982 77.3127 95.2482 77.7127 94.1382 77.3627C93.4182 77.1427 92.9883 76.9927 92.3483 76.7327C91.5483 76.4027 91.5283 76.3527 91.0683 75.6027C89.8783 73.6428 91.1483 73.5228 90.5183 71.7028C90.2683 70.9628 89.7783 70.8628 89.0383 70.7728C88.7784 70.7328 87.2084 70.9528 86.8884 71.0028C85.4984 71.2628 83.6185 71.2628 82.2485 71.0028C81.8585 70.9228 81.6285 70.8428 81.2885 70.7828C80.9885 70.7228 80.4686 70.5528 80.3186 70.5528C79.8386 70.5528 78.9486 70.8928 78.3786 70.9828C77.6486 71.0928 76.9086 71.2128 76.0387 71.1828C74.7487 71.1428 72.3888 70.5428 71.0788 70.1528C67.6489 69.1529 68.1889 69.5729 64.8589 67.8129L58.4091 64.543C56.2792 63.533 54.1692 62.293 52.0793 61.1731C50.6493 60.4131 49.8593 60.5131 48.1894 60.1431C46.3694 59.7531 46.4594 58.9031 44.6094 58.9031C43.8095 58.9031 42.9995 58.8831 42.1995 58.8831C41.4095 58.8831 41.4995 59.1931 40.9995 59.5731C40.7095 59.7931 40.7895 59.6331 40.6695 59.9131Z"
            fill="#FDD1A1" />
        <path fill-rule="evenodd" clip-rule="evenodd" class="state-map-path" id="fct_state_sdfhsf"
            d="M101.968 39.8936C101.568 40.1836 100.748 40.4636 100.228 40.3736C94.6782 39.3636 98.6481 37.4137 93.5382 32.5338C90.6283 29.7639 78.4086 29.5539 76.4686 27.5139C74.2087 25.9839 69.7888 25.974 68.4888 27.3439C67.3689 28.5339 67.8389 28.3739 66.2989 29.2439L63.589 30.6338C62.519 31.1438 62.209 31.6438 61.219 32.3538C60.269 33.0438 57.5691 34.8537 56.3691 34.4437C55.8892 34.2837 55.8892 34.3737 55.3792 34.3437C54.7092 34.3037 54.5392 33.8338 54.2292 33.4838L53.6592 33.5238C53.5492 34.5937 54.1392 36.1437 53.4892 37.6437C53.0292 38.7236 53.2592 38.9236 52.8992 39.9136L52.5492 40.6136C52.3492 41.0436 51.9992 41.2736 51.7793 41.7236L51.6293 42.1036C51.6193 42.1136 51.4193 42.4635 51.3993 42.4935C50.9493 43.1835 50.1493 43.6135 49.7293 44.2935L48.7093 45.5835C48.3393 46.0735 48.5593 46.5534 47.6394 48.0734L44.5194 51.9933C43.9794 53.1133 43.0595 53.4933 42.3095 54.4132C41.9495 54.8632 41.6495 55.2132 41.2295 55.6432C40.9495 55.9332 40.4995 56.9132 40.4595 57.3332C40.5795 57.6632 40.4795 57.4432 40.6795 57.6932C40.7695 57.8032 40.8895 57.9132 40.9895 58.0132C41.3695 58.4031 41.2495 58.4131 41.8395 58.4331L45.2794 58.5931C45.8494 58.6331 45.8494 58.7031 46.2094 58.9431C46.8394 59.3331 47.0994 59.5031 47.8993 59.7031C48.3893 59.8231 49.3993 60.0831 49.9493 60.1031C51.1793 60.1731 52.4292 61.0331 53.4592 61.5731L58.2891 64.123C61.059 65.373 63.779 66.8129 66.4189 68.2829C67.1189 68.6729 67.2889 68.7929 68.1788 69.0229C69.4488 69.3329 70.7088 69.7729 72.0288 70.0729C72.8587 70.2529 74.1687 70.6428 75.0587 70.6928C76.2986 70.7728 75.6187 71.0128 77.1786 70.7528C77.6986 70.6628 78.3486 70.6928 78.8486 70.5429C81.0585 69.8829 80.8885 70.6428 82.5485 70.7228C83.6085 70.7828 84.9484 71.0228 85.9984 70.7628C86.3984 70.6628 86.7684 70.7328 87.1684 70.6728C87.5484 70.6228 87.6684 70.5129 88.2384 70.4829C88.9383 70.4529 89.7683 70.4329 90.3783 70.8528C90.9983 71.2728 91.1883 72.7228 90.8883 73.6828C90.6483 74.4628 91.1683 75.2727 91.5883 75.8827C91.8783 76.2927 92.3383 76.3527 92.8082 76.5527L94.1482 77.0427C94.4182 77.1227 94.4682 77.1627 94.6082 77.2027C95.4482 77.4427 96.0682 76.9027 96.7081 77.6327L95.9682 80.0926C95.6782 80.8026 95.4082 81.8326 95.0182 82.4426C94.4882 83.2925 94.5882 83.3925 94.3082 84.1325C93.9882 84.9825 93.0882 85.8125 92.4082 86.3325L91.5083 87.0524C91.1183 87.3924 90.9283 87.4224 90.6183 87.7624C90.0483 88.4124 89.7683 88.9224 89.0183 89.4524C88.0584 90.1324 87.2984 91.0223 86.2384 91.5623C85.8084 91.7823 85.6984 91.9823 85.3984 92.4123L85.7984 93.3123C86.5384 93.3723 87.3184 93.8723 87.8584 93.7323C88.2884 93.6223 88.4283 93.5423 88.9483 93.5223C89.8183 93.5023 91.2183 93.2823 91.8983 92.7623C92.0283 92.6723 92.4383 92.2223 92.5082 92.1423C92.9682 91.6023 93.3582 89.5624 93.5782 88.7824C93.7482 88.2024 94.5082 85.9925 94.8082 85.6325C95.0682 85.3225 95.9982 85.0025 96.4282 84.7525C96.4781 83.9525 96.5281 82.1626 96.8481 81.6126L97.8981 78.3727C98.3081 76.9027 98.1881 75.2127 98.5481 73.7328C98.6081 73.4828 98.5781 73.1728 98.6081 72.9028C98.7381 71.8328 99.2781 70.9428 99.4181 70.2229C101.068 61.4531 102.768 55.6332 104.338 45.8435C104.378 45.5435 105.078 44.2235 104.638 42.8135L103.798 39.1836C103.768 38.9736 103.738 38.8936 103.668 38.8736C103.638 38.8736 102.058 39.8336 101.968 39.8936Z"
            fill="#D2E28B" />
        <path fill-rule="evenodd" clip-rule="evenodd" class="state-map-path" id="fct_state_eoitueior"
            d="M103.528 38.6036C103.738 38.3536 103.668 38.5336 103.688 38.1036C103.758 36.7837 103.768 35.6137 103.658 34.2837C103.628 33.8037 103.468 33.7137 103.578 33.1538C103.658 32.7438 103.658 32.2738 103.738 31.9538C104.268 29.9738 103.478 27.8839 104.198 25.9239L104.508 24.914C104.678 24.214 105.008 23.654 105.278 22.994C105.748 21.834 105.948 20.1441 106.468 18.7441L107.878 14.8242C108.138 14.0242 108.248 13.6642 108.818 13.0143C109.628 12.0843 109.398 12.4043 110.748 12.2443C111.668 12.1243 111.798 11.9543 112.268 11.1843C112.378 11.0043 112.618 9.33435 112.688 9.04436C112.878 8.26438 112.698 8.38437 112.588 7.88438C112.518 7.56439 112.558 6.85441 112.538 6.48442C112.078 6.48442 111.628 7.2444 110.928 7.53439C110.098 7.88438 109.418 7.62439 108.668 7.3444C108.178 7.1644 108.178 7.1744 107.938 6.73441C107.718 6.35442 107.578 6.31442 107.318 6.02443C106.868 5.51444 106.748 4.71446 106.588 4.09448C106.138 4.13448 105.568 4.48447 105.268 3.87448C104.888 3.1145 105.448 2.90451 105.988 2.68451C106.008 2.50452 106.068 2.40452 105.898 2.31452C105.728 2.21452 105.748 2.31452 105.608 2.28452L105.458 2.24452C105.438 2.24452 105.408 2.23452 105.388 2.21452C105.448 1.78454 105.258 2.02453 105.728 1.86453C105.698 1.64454 105.628 1.56454 105.528 1.40454L105.388 1.17455C105.168 0.814559 104.818 0.594565 104.428 0.38457C103.618 -0.0354198 103.008 -0.135417 102.158 0.204574C100.738 0.78456 100.378 2.09453 99.6081 3.3245C98.5181 5.05445 97.7081 6.98441 96.1082 8.40437C95.8182 8.66437 95.4882 8.76436 95.1482 8.88436C93.6183 9.41435 92.2283 7.4444 91.1883 7.2244C90.1683 7.00441 88.3484 6.86441 87.2584 6.84441C85.6284 6.82441 83.6685 6.36442 82.0585 6.78441C80.3486 7.2344 78.4986 7.0844 76.7587 7.0744C74.5987 7.05441 74.0287 7.89438 73.3788 7.91438C71.6888 7.97438 71.8088 7.68439 70.7888 9.61434C68.4689 13.9942 68.2989 12.9943 67.8389 13.7742L66.2089 16.4242C65.319 17.8841 64.359 19.2941 63.309 20.6441C62.589 21.584 62.829 21.1241 62.109 22.304C61.0291 24.064 59.7791 25.6339 58.4591 27.1939C57.2391 28.6339 57.6791 28.2139 56.6992 29.7038C56.0992 30.6238 54.8592 32.2738 54.4492 33.2938C54.8192 34.1437 55.3392 33.9237 55.9092 33.9637C56.9092 34.0237 56.3392 34.3537 57.8491 33.8737C58.0491 33.8137 58.4991 33.6837 58.7091 33.5838C58.8691 33.5138 59.1491 33.3238 59.3291 33.2238C61.289 32.1138 62.439 30.8038 63.419 30.3638C64.509 29.8638 65.4889 29.3339 66.4989 28.8139C67.7089 28.2039 67.9589 27.2139 68.8789 26.5839C69.2589 26.3139 70.0688 25.8639 70.5088 25.9039C71.1488 25.9539 71.9188 26.0439 72.6588 26.0939C73.5787 26.1539 73.9587 25.9839 74.7287 26.3239C75.2487 26.5539 75.9287 26.7339 76.3387 27.0239C76.5287 27.1539 76.7787 27.4539 76.9487 27.5739C77.7686 28.1839 78.7986 28.1439 79.7786 28.2239C80.3086 28.2639 82.3685 29.0239 83.3685 29.1739C84.1885 29.2939 84.8485 29.5338 85.6384 29.5338C89.1984 30.0638 92.0883 30.7438 94.6182 32.9238C95.1382 33.3738 95.3782 33.8137 95.7582 34.5737C96.0982 35.2537 96.1982 35.5237 96.9482 37.0437C97.0982 37.3437 97.2682 37.5337 97.2882 37.8436C97.3682 38.6536 97.0582 38.7636 98.0881 39.3536C98.7581 39.7536 99.0281 39.7036 99.7181 39.9036C100.328 40.0736 101.258 40.0736 101.718 39.7336C102.058 39.4936 103.488 38.6436 103.528 38.6036Z"
            fill="#F6AFCE" />
    </svg>