 <svg viewBox="0 0 1088 1383" fill="none" xmlns="http://www.w3.org/2000/svg">
        <path fill-rule="evenodd" clip-rule="evenodd" class="state-map-path" id="gombe_state_UeKo7ptVZ"
            d="M319 143C319 161 318 171 308 182C300 190 291 188 280 188C271 188 260 174 254 168C247 164 243 156 239 150C236 146 237 145 231 145C229 151 226 154 220 157C213 161 206 166 198 169C183 175 175 184 170 199C167 210 169 207 163 215C150 231 151 236 128 236C111 236 109 231 108 255C104 299 96 288 121 319C139 342 134 359 125 359C102 359 102 356 90 337C86 332 86 331 81 329L77 336C69 350 66 367 58 381L48 402C47 405 48 401 47 407C45 417 40 424 35 433L29 457C22 476 8 478 0 488C2 495 11 498 16 502L33 520C36 523 39 528 40 533C41 543 43 543 46 550C47 553 46 554 47 557C48 559 48 560 49 563C54 573 61 580 68 589C73 597 79 601 85 607L91 613C96 619 99 626 106 630L131 641C140 645 153 648 163 648C172 649 183 651 189 654C207 661 244 665 258 678C269 689 269 705 275 709C275 706 275 706 276 703C282 703 282 704 283 709C304 708 315 707 338 712L368 719C378 722 391 721 402 723C406 724 415 724 419 725C423 728 424 732 431 732C430 713 408 694 401 676L393 659C392 656 392 656 391 653C390 651 389 650 388 648C379 631 382 627 367 605L366 604L365 602C365 601 364 601 364 601C359 593 341 574 341 567C341 551 339 543 354 535C358 533 360 533 364 530C367 528 369 526 372 523C400 500 418 504 454 504C464 504 469 507 477 507V469L486 419C486 416 487 412 487 410C489 398 490 390 492 379C497 350 496 358 496 325C496 320 492 312 491 307L487 295C485 290 485 296 485 290C485 244 490 270 505 229C507 224 509 218 510 212C513 201 506 198 497 195C479 187 474 190 444 175C439 173 434 171 430 167C425 162 424 162 418 158L407 148C402 144 400 145 392 137C387 132 380 130 375 125L369 120C361 111 358 106 348 118C341 126 351 127 331 136C326 139 325 142 319 143Z"
            fill="#F6AFCE" />
        <path fill-rule="evenodd" clip-rule="evenodd" class="state-map-path" id="gombe_state_K9tpYsOCq"
            d="M275 783C275 801 277 800 291 811C301 819 303 830 303 842C303 857 282 849 269 899C266 909 270 920 264 929C256 943 252 939 219 939C209 939 185 934 180 935C172 938 166 955 166 965C166 968 169 969 171 972L176 977C187 986 216 1008 230 1016L237 1022C242 1026 248 1028 254 1032C265 1038 279 1042 290 1048C296 1052 297 1057 302 1063C310 1073 320 1079 331 1084C334 1086 333 1086 336 1087L350 1093C373 1102 367 1128 367 1153C367 1160 367 1160 368 1165C372 1177 364 1178 398 1178C410 1178 422 1176 432 1169C442 1161 444 1146 449 1135C449 1135 449 1135 449 1134L455 1113C457 1104 457 1106 458 1098C460 1073 515 1067 528 1062L531 1061C536 1059 548 1047 554 1042C555 1041 557 1041 558 1040C560 1038 559 1038 560 1037C576 1025 590 1028 609 1028C618 1028 624 1035 630 1039L648 1035C656 1034 660 1032 668 1032C685 1032 730 1030 744 1034C748 1035 750 1037 755 1038C777 1045 774 1052 800 1061L816 1069C816 1056 813 1050 813 1038C813 1011 811 1023 822 1004C809 997 786 1000 770 1000C750 1000 722 1004 704 997C688 992 677 989 664 979C658 975 654 968 650 961C643 952 639 937 634 928C630 919 621 913 613 908L595 895C595 895 595 895 595 894L589 889C586 886 585 886 582 883L558 849C553 840 554 837 554 826C551 827 550 827 548 829C545 831 544 831 543 834C528 834 522 829 505 821C472 805 476 808 476 775C476 770 478 767 479 764C480 762 481 760 482 759C483 756 482 755 484 753C472 753 468 751 458 750C450 750 438 749 432 746C426 743 422 737 416 734C412 732 408 733 403 732C391 730 375 731 365 727C342 718 311 716 287 716C285 723 286 727 285 733C284 738 281 743 280 748C277 758 275 772 275 783Z"
            fill="#9DD3AF" />
        <path fill-rule="evenodd" clip-rule="evenodd" class="state-map-path" id="gombe_state_YbAlubiOj"
            d="M581 780C577 788 577 791 571 801C561 817 561 816 561 836C561 846 573 857 578 866L594 883C596 885 598 887 601 889C612 897 635 912 639 919C644 929 646 938 651 948C653 952 654 953 656 956C658 960 658 961 661 964C674 978 681 981 699 987C720 995 758 992 782 992C795 992 809 990 820 994C825 996 826 997 830 998C831 993 833 993 837 990C842 987 843 987 848 984C853 982 855 981 859 979C864 978 866 977 871 975C878 971 900 962 907 962C914 961 914 959 921 959H984L1041 966C1041 960 1039 959 1037 954C1035 950 1034 946 1032 941C1028 930 1025 929 1014 926C996 920 989 906 974 896C966 891 955 896 944 892C939 890 937 890 932 888L895 877C895 877 895 877 894 877C894 877 894 877 893 876C887 874 872 869 865 868C864 857 853 833 847 824L828 797C819 781 828 771 840 757L855 744C875 732 896 731 901 703C906 670 902 626 903 590C903 578 906 567 906 553C895 553 889 554 881 557C872 559 872 558 865 562C860 565 857 565 852 567C847 570 847 572 842 573C830 577 821 571 818 585L815 599C814 601 814 603 813 606C812 609 812 609 811 612L809 614C806 623 800 627 798 634C788 657 775 678 755 694L724 715C720 716 717 718 712 720L618 772C607 778 596 780 581 780Z"
            fill="#F6AFCE" />
        <path fill-rule="evenodd" clip-rule="evenodd" class="state-map-path" id="gombe_state_S4NktYsQX"
            d="M481 515C467 515 474 515 470 514C467 513 468 513 463 512C441 509 405 509 386 523C386 523 385 524 384 524C384 525 384 525 383 525C376 530 371 536 363 540L355 544C355 545 354 545 354 545C347 549 348 552 348 563C348 566 349 565 351 568C352 571 352 571 354 573C358 581 363 585 368 592L412 681L429 705C432 708 432 708 433 711C436 719 440 731 436 739L476 745C487 745 488 742 494 749C497 752 502 760 507 760C515 760 531 747 550 766L566 776C569 778 570 777 573 779C576 767 584 774 595 772C598 771 601 769 606 768C612 767 612 766 616 763L653 742C659 738 663 734 670 731C683 724 721 709 730 702L750 688C794 646 782 639 796 622C803 613 811 592 812 580C812 575 812 570 812 565C812 557 813 559 815 553C809 546 788 544 778 544H718C713 544 714 547 708 547C685 547 667 547 645 545C640 545 639 543 635 543C627 541 632 544 614 540C604 538 597 538 584 533C580 532 580 532 575 531C569 530 570 530 566 528C564 528 563 527 562 527C554 523 553 520 543 514L540 513C540 513 540 513 539 513C529 507 519 504 507 504C506 504 496 509 495 510C491 512 486 515 481 515Z"
            fill="#91D8F7" />
        <path fill-rule="evenodd" clip-rule="evenodd" class="state-map-path" id="gombe_state_hO9GNvYWn"
            d="M820 1026C820 1043 822 1047 823 1061C823 1067 824 1069 826 1075C827 1081 823 1102 828 1107C829 1108 862 1115 862 1133L858 1222C856 1238 856 1240 843 1250C837 1255 837 1255 827 1257C793 1263 770 1251 750 1277C747 1282 749 1280 746 1284C744 1290 741 1294 739 1299C737 1301 737 1303 735 1306C730 1315 728 1317 722 1325L715 1335C711 1343 706 1363 705 1373C713 1378 712 1376 721 1380C724 1382 723 1383 727 1383C739 1383 744 1378 751 1371C763 1360 757 1357 762 1347C767 1337 774 1337 791 1333L816 1331C823 1330 823 1329 831 1328C838 1328 841 1328 847 1326C855 1324 868 1323 877 1321L891 1317C906 1313 920 1300 926 1298C931 1295 932 1294 937 1292C955 1280 959 1267 973 1257C975 1255 976 1255 978 1253L1044 1204C1055 1194 1057 1200 1071 1188L1088 1176L1083 1170C1075 1162 1063 1154 1063 1141V1073C1063 1069 1065 1068 1066 1065C1071 1049 1076 1030 1071 1014C1069 1007 1069 1002 1065 994C1062 986 1062 990 1051 978C1044 971 1012 971 1002 969C983 966 946 967 925 967C909 967 895 974 885 978C872 983 882 977 863 987C851 993 840 995 837 1001C834 1006 837 1004 833 1007C832 1008 820 1013 820 1026Z"
            fill="#FDD1A1" />
        <path fill-rule="evenodd" clip-rule="evenodd" class="state-map-path" id="gombe_state_PLR0lHKad"
            d="M436 9H429C429 31 428 29 416 46C406 59 401 63 388 72C380 78 370 96 366 105C374 111 381 121 390 127C401 133 408 140 417 148L439 163C445 166 440 163 445 166C460 178 483 182 502 188C512 191 518 196 518 207C518 243 492 260 492 276C492 294 502 306 503 323C503 329 503 336 503 343L527 360C532 364 538 366 545 370L573 385C597 397 595 392 619 396L674 399C674 397 687 359 678 336C676 332 676 329 675 324C671 311 658 293 656 281C655 269 655 256 655 244C655 222 704 208 713 188C715 184 715 179 717 175L709 168C709 168 708 168 708 167L700 155C699 153 699 152 698 150L685 130C683 127 683 127 680 123C672 110 662 97 657 81C656 78 656 74 655 71C653 64 648 47 640 47C636 47 636 49 634 50L621 58C612 62 594 55 585 52C580 50 579 50 574 48C570 46 567 45 562 44L540 38C531 36 521 31 513 27L498 19C494 17 492 15 489 13C483 10 475 5 471 0C464 4 455 5 446 7C441 7 441 9 436 9Z"
            fill="#91D8F7" />
        <path fill-rule="evenodd" clip-rule="evenodd" class="state-map-path" id="gombe_state_VdUnNXCfK"
            d="M661.001 252C661.001 293 675.001 295 682.001 324C688.001 348 687.001 334 687.001 362C687.001 370 687.001 378 685.001 386L679.001 405C663.001 405 627.001 406 612.001 402C608.001 401 603.001 402 598.001 401C576.001 400 546.001 378 529.001 371C517.001 366 511.001 357 503.001 352L499.001 379C498.001 382 498.001 386 497.001 388L485.001 463C482.001 475 484.001 492 484.001 506C497.001 503 499.001 492 529.001 500C530.001 501 533.001 501 533.001 501L537.001 502C547.001 505 558.001 516 569.001 521C574.001 524 574.001 523 580.001 525H581.001L637.001 536C648.001 537 648.001 540 672.001 540H706.001C711.001 540 708.001 537 713.001 537C732.001 537 800.001 533 816.001 544L820.001 466C822.001 449 818.001 412 820.001 396L825.001 374C827.001 366 826.001 333 826.001 323C826.001 312 823.001 306 821.001 298C816.001 279 816.001 279 807.001 266L766.001 229C755.001 220 751.001 208 747.001 202L739.001 193C736.001 189 727.001 180 723.001 179C723.001 185 719.001 197 714.001 202C708.001 208 700.001 211 693.001 216C693.001 216 693.001 216 693.001 217L674.001 230C672.001 232 674.001 230 672.001 232C671.001 234 671.001 233 670.001 235C664.001 241 661.001 238 661.001 252Z"
            fill="#9DD3AF" />
        <path fill-rule="evenodd" clip-rule="evenodd" class="state-map-path" id="gombe_state_bLHO5v9EJ"
            d="M469 1285C434 1285 453 1287 426 1278C402 1271 410 1270 391 1262C385 1259 379 1256 370 1256C370 1289 378 1280 390 1309C392 1311 393 1314 394 1316C400 1328 393 1354 405 1362C417 1370 430 1365 444 1369C450 1371 457 1370 465 1370C476 1370 476 1373 485 1373C511 1374 505 1380 524 1380C540 1380 552 1383 565 1379C572 1377 582 1375 589 1369C595 1363 591 1364 603 1364C607 1364 605 1365 611 1367C615 1368 616 1367 620 1368L661 1372C667 1374 681 1380 692 1377C698 1375 695 1377 696 1373C697 1372 697 1371 697 1370C705 1345 702 1334 718 1316C723 1310 729 1303 731 1296C727 1296 712 1295 710 1294L702 1289C698 1287 698 1286 696 1283C692 1278 691 1273 688 1266C683 1250 683 1250 673 1237L671 1236C666 1229 668 1230 660 1222C654 1215 653 1220 638 1205C635 1201 637 1202 633 1201C633 1147 638 1153 624 1114C621 1106 612 1091 606 1087C598 1103 603 1147 602 1165C601 1185 590 1196 581 1207C579 1210 579 1211 577 1214C562 1235 576 1231 545 1256C540 1260 539 1261 533 1265C527 1268 526 1269 519 1272C513 1274 493 1280 486 1281C482 1281 481 1281 477 1282C473 1283 476 1282 473 1283C468 1285 475 1285 469 1285Z"
            fill="#F6AFCE" />
        <path fill-rule="evenodd" clip-rule="evenodd" class="state-map-path" id="gombe_state_XYL8WgqJY"
            d="M638 1045C638 1050 639 1048 637 1051C627 1049 628 1042 611 1069L607 1079C621 1086 617 1086 626 1101L631 1111C645 1140 638 1180 640 1192C642 1203 660 1208 672 1224C678 1231 687 1239 690 1248C695 1258 696 1285 716 1286C723 1287 728 1288 736 1288C737 1280 736 1286 738 1282C738 1282 740 1279 740 1278C743 1272 745 1270 750 1266V1265C758 1259 769 1252 780 1251C797 1249 814 1254 832 1247C839 1245 843 1240 847 1234C852 1228 850 1226 852 1212C852 1209 852 1204 853 1200C854 1194 856 1193 856 1187C856 1173 858 1135 853 1129L847 1124C847 1124 846 1124 846 1123C834 1115 828 1117 823 1112L819 1104C818 1098 819 1087 819 1080C812 1078 814 1077 809 1075L788 1066C784 1064 782 1062 778 1060C766 1054 778 1056 760 1048C755 1046 742 1041 736 1041C709 1041 680 1039 654 1043C650 1043 642 1044 638 1045Z"
            fill="#91D8F7" />
        <path fill-rule="evenodd" clip-rule="evenodd" class="state-map-path" id="gombe_state_LFZe93ORE"
            d="M398 1186H379C379 1204 380 1205 375 1222C372 1232 371 1235 371 1248C375 1248 380 1249 382 1249C391 1252 397 1256 404 1260C406 1261 406 1261 408 1262L426 1270C444 1276 450 1280 473 1275C486 1272 485 1273 504 1268C513 1265 530 1259 537 1253C555 1236 555 1240 564 1219C569 1208 568 1213 574 1204C576 1201 577 1200 579 1197C581 1194 582 1192 584 1190L587 1186C603 1163 591 1109 596 1092C599 1082 597 1084 601 1072C604 1063 617 1048 621 1042C609 1034 599 1037 579 1037C573 1037 579 1036 576 1038L572 1039C570 1041 568 1042 565 1044L543 1062C529 1075 525 1069 507 1076C503 1077 502 1077 498 1078C491 1080 473 1087 469 1091C464 1096 464 1115 458 1131L450 1155C441 1178 425 1186 398 1186Z"
            fill="#D2E28B" />
        <path fill-rule="evenodd" clip-rule="evenodd" class="state-map-path" id="gombe_state_MMNtmNmMR"
            d="M482 777C482 790 480 799 489 805C496 809 508 813 517 817C534 826 532 831 544 823C560 812 553 813 562 800C565 796 569 791 569 785C558 785 547 773 540 768C522 755 512 775 497 764C493 762 493 762 492 757C489 759 488 762 486 766C485 770 482 773 482 777Z"
            fill="#D2E28B" />
        
    </svg>