<svg viewBox="0 0 134 116" fill="none" xmlns="http://www.w3.org/2000/svg">
        <path fill-rule="evenodd" clip-rule="evenodd" class="state-map-path" id="imo_state_e8BU3QiOY"
            d="M60.6822 108.446C61.3687 108.073 60.6623 108.389 61.0702 107.786C60.2444 107.403 60.4633 107.365 59.8265 106.781C59.7768 106.733 59.7171 106.685 59.6773 106.637C58.553 105.652 58.5928 106.197 58.6624 104.322C58.5032 102.867 58.7918 101.451 58.6226 100.245C58.4734 99.164 57.8764 98.6569 57.3789 97.5469C55.0408 92.2934 59.0505 89.9394 58.0058 88.1309C57.0307 86.4372 54.6129 86.5807 50.9415 83.3176C47.7377 80.4565 48.8222 79.9206 47.6283 78.5331C45.8473 76.4757 43.3997 77.1647 42.1958 76.026C40.4048 74.3418 41.3202 68.8587 42.7131 66.1124C43.4494 64.6675 43.6186 65.1364 43.3002 63.0216C41.5789 63.0503 40.7033 61.4236 39.2805 60.3423L35.0718 55.8544C33.7286 54.2659 34.3853 54.4381 33.2311 53.5004C27.719 48.9838 22.4258 51.2708 17.2819 49.5196C16.068 49.1082 6.07855 48.7254 4.67565 48.9455C4.30751 50.266 4.20802 51.8066 3.97918 53.2037L3.3026 57.2323C3.13346 59.0026 2.16834 65.0981 1.74051 66.1603C0.566447 66.3899 1.27287 66.7057 0.785339 65.5861V67.1267C0.894785 67.1172 0.994282 67.0023 1.02413 67.0119C1.08383 67.0119 0.75549 66.055 1.40222 67.2703C1.88975 68.1985 1.34252 67.7583 1.74051 68.8875C4.16822 69.1937 11.8891 69.7582 14.4562 69.3851C16.3068 69.1171 16.2172 68.6865 18.5156 68.8013C19.232 70.5525 20.1076 71.0501 20.1076 73.1935C19.1623 73.9017 18.1276 74.648 19.5404 76.8681C22.8835 82.1024 21.7293 81.5569 21.411 84.5808C21.2219 86.4659 21.5304 87.7003 21.6 89.461C21.7691 94.3316 19.232 92.6188 22.5253 97.4225C24.7242 100.657 31.0721 106.178 35.1017 106.523C42.0863 107.126 42.1261 112.101 46.6532 111.039C47.4691 110.848 47.8969 110.57 48.5138 110.369C49.658 110.006 52.7523 109.996 55.4885 109.049C57.5182 108.331 58.1948 109.231 60.6822 108.446Z"
            fill="#9DD3AF" stroke="#FEFEFE" stroke-width="0.42329" />
        <path fill-rule="evenodd" clip-rule="evenodd" class="state-map-path" id="imo_state_XnqbQOfhK"
            d="M87.2279 76.7532C86.422 78.2173 87.0886 79.557 86.8995 81.4038C84.6111 83.1358 82.7605 82.3033 79.5567 82.5808C76.144 82.8679 76.0047 83.5951 74.552 85.7578C72.3532 89.0495 72.8904 90.0447 69.4678 93.0015C69.0499 93.3652 68.8608 93.5661 68.423 93.9393L67.4977 94.8579C67.3485 95.901 67.0301 97.5851 66.4829 98.6186C65.9257 99.6425 66.2142 99.097 65.3784 99.8243L58.6624 104.322C58.5928 106.197 58.553 105.652 59.6773 106.637C59.7171 106.685 59.7768 106.733 59.8265 106.781C60.4633 107.365 60.2444 107.403 61.0703 107.786C60.6623 108.389 61.3687 108.073 60.6822 108.446C61.8861 107.881 64.7815 107.413 66.3038 107.039C69.8359 106.197 69.5872 107.25 71.8159 108.178C85.815 114.015 80.7308 110.81 89.1482 112.503C91.8246 113.039 92.4216 113.709 94.6404 114.388C96.491 114.953 101.834 116.101 103.267 113.652C104.321 111.853 103.456 112.886 105.107 111.786C105.704 110.379 105.525 108.896 105.953 107.451C106.262 106.417 106.6 106.57 106.998 105.949C107.465 105.212 107.306 104.59 107.436 103.652C107.913 100.121 109.973 99.6329 109.863 95.6235C107.356 95.4034 106.192 94.0637 104.172 91.6906L101.933 88.5711C99.6848 84.8583 98.9088 87.3941 98.0431 84.8965C96.9686 81.777 99.4162 79.8345 99.5057 79.5379C99.7346 78.0451 99.9336 77.2508 99.0083 76.2365C98.4809 75.6624 97.3168 74.9925 96.4612 74.9543C95.5557 74.9256 94.5807 75.4997 93.0186 75.4614C92.143 75.4327 90.3819 74.9925 90.2625 74.6385C90.2327 74.5524 90.1332 74.5524 90.0735 74.5141C89.5163 75.0404 89.2278 75.0787 88.6208 75.5475C87.7652 76.2078 88.0935 76.3609 87.2279 76.7532Z"
            fill="#F6AFCE" stroke="#FEFEFE" stroke-width="0.42329" />
        <path fill-rule="evenodd" clip-rule="evenodd" class="state-map-path" id="imo_state_muuw91lGE"
            d="M4.67566 48.9455C6.07856 48.7254 16.068 49.1082 17.2819 49.5196C22.4258 51.2708 27.719 48.9838 33.2311 53.5004C34.3853 54.4381 33.7286 54.2659 35.0718 55.8544L39.2805 60.3423C40.7033 61.4236 41.5789 63.0503 43.3002 63.0216C44.0066 62.5527 44.0962 62.2082 44.7329 61.7681C45.1309 61.4906 46.0264 61.1843 46.5139 60.9738C47.6581 60.4762 49.26 60.0074 50.7823 59.9404C50.8221 58.7634 51.3296 57.7682 51.9166 56.8208C52.623 55.6726 52.5434 55.0984 52.4439 53.3473C52.3544 51.7492 52.3643 48.9933 51.9763 46.6776C49.3197 46.6872 48.4541 46.9838 47.3994 46.2374L46.2851 45.3284C44.9021 43.7208 45.3299 44.5724 43.6385 43.1945C43.0415 42.7064 43.2007 42.716 42.753 42.1323C41.8475 40.9362 40.2854 40.0271 40.0069 38.9554C38.0667 38.6492 34.3953 32.8886 34.1863 32.0943C33.5595 29.7212 34.7037 28.0466 34.7733 26.1902C34.7833 26.1232 34.7833 26.0945 34.8131 26.0467L31.8481 23.9319C28.7041 21.9128 22.6746 22.9367 19.2519 24.5635C17.9485 25.1759 17.0232 25.6161 15.7994 26.2476C14.4761 26.927 13.9686 27.3576 12.6752 28.1806C11.7598 28.7643 7.12327 32.0561 6.79493 32.6972C6.64569 34.1134 6.88448 33.0991 6.97403 33.8263C7.17302 35.3287 6.08851 40.2376 5.65072 42.8787C5.79002 43.0892 5.86962 43.3284 5.86962 43.5868C5.86962 43.7016 5.86962 43.826 5.84972 43.9409C5.85967 43.9983 5.86962 44.0557 5.86962 44.1131V44.9935C5.86962 45.4145 5.66067 45.8068 5.31244 46.0461C5.27264 46.113 5.22289 46.1609 5.16319 46.2183C5.12339 46.2949 5.07365 46.3618 5.0239 46.4288L4.67566 48.9455Z"
            fill="#F6AFCE" stroke="#FEFEFE" stroke-width="0.42329" />
        <path fill-rule="evenodd" clip-rule="evenodd" class="state-map-path" id="imo_state_VNLehIxO8"
            d="M106.998 2.33449L106.54 2.31535L105.655 2.29621L104.779 0.746019L102.889 0.851279C102.172 1.76034 102.59 2.17181 101.376 2.2388L101.914 0.84171L98.262 0.717312C98.1725 3.0426 99.7445 4.61193 99.5555 6.68842C99.4063 8.23861 98.1426 10.7361 97.4163 12.0662L97.3964 12.6882C101.396 13.5303 100.033 13.8365 102.053 17.3771C102.491 18.1522 102.889 18.3244 103.426 19.377C104.839 22.1138 108.391 24.5156 109.714 26.0658C113.982 26.018 113.704 31.702 117.345 32.9938C118.659 33.4627 120.062 33.5297 120.798 34.5344C121.912 34.7641 121.773 35.0607 122.907 35.367C123.663 35.5679 123.385 35.3382 124.061 35.654C125.007 36.1038 124.31 35.6158 124.867 36.4961L125.007 35.6636C129.166 35.6732 127.783 35.0129 127.036 29.6925C126.688 27.2237 126.579 19.7311 126.469 16.3915C126.42 14.7073 125.773 13.7982 125.624 12.2672C125.345 9.31035 127.793 6.2004 126.877 4.25787C125.345 3.08087 124.838 4.60236 122.977 5.01383C121.912 5.24349 119.206 4.6502 117.972 4.27701L107.555 2.61199C107.863 1.99957 107.893 1.23404 107.893 0.277134L107.933 1.77948C107.346 2.44932 108.779 2.33449 106.998 2.33449Z"
            fill="#F6AFCE" stroke="#FEFEFE" stroke-width="0.42329" />
        <path fill-rule="evenodd" clip-rule="evenodd" class="state-map-path" id="imo_state_LfLrmv6EM"
            d="M43.3002 63.0216C43.6185 65.1364 43.4494 64.6675 42.7131 66.1124C41.3202 68.8588 40.4048 74.3418 42.1957 76.026C43.3997 77.1647 45.8473 76.4757 47.6283 78.5331C48.8222 79.9206 47.7377 80.4565 50.9415 83.3176C54.6129 86.5807 57.0307 86.4372 58.0057 88.1309C59.0504 89.9394 55.0407 92.2934 57.3789 97.5469C57.8764 98.6569 58.4734 99.164 58.6226 100.245C58.7918 101.451 58.5032 102.867 58.6624 104.322L65.3784 99.8243C66.2142 99.0971 65.9257 99.6425 66.4828 98.6186C67.0301 97.5851 67.3485 95.901 67.4977 94.858C64.5327 91.8724 66.8311 86.9443 67.6668 83.7865C68.3235 81.2986 69.1792 79.9685 71.6567 78.8489C71.2885 77.4135 69.4876 76.782 68.632 75.2031C64.4332 74.2653 64.4332 77.2987 62.6423 77.2891C61.5677 77.2891 57.6674 75.3083 56.8516 74.8968C56.8914 71.6816 58.8813 68.7535 60.8911 66.5526C62.3736 64.9259 61.9856 65.2034 64.1447 64.39L63.8561 63.1269C63.4581 61.902 62.294 62.0551 61.1996 61.3375C60.2345 60.7059 59.5579 60.0361 58.3142 59.9021C55.777 59.6246 54.3343 61.347 50.7823 59.9404C49.26 60.0073 47.6581 60.4762 46.5139 60.9738C46.0264 61.1843 45.1309 61.4906 44.7329 61.7681C44.0961 62.2082 44.0066 62.5527 43.3002 63.0216Z"
            fill="#91D8F7" stroke="#FEFEFE" stroke-width="0.42329" />
        <path fill-rule="evenodd" clip-rule="evenodd" class="state-map-path" id="imo_state_O3Tyuuif6"
            d="M68.9603 44.8212C67.6668 45.0126 68.0947 45.2614 67.1295 45.4623C66.5326 45.5867 65.2889 45.5389 64.6322 45.5389C62.8413 45.5293 61.4782 45.2997 59.6972 45.2231C57.0705 45.3188 53.4488 45.3666 51.9762 46.6776C52.3643 48.9933 52.3543 51.7492 52.4439 53.3473C52.5434 55.0984 52.623 55.6725 51.9165 56.8208C51.3295 57.7682 50.8221 58.7634 50.7823 59.9404C54.3343 61.347 55.777 59.6246 58.3142 59.9021C59.5579 60.036 60.2344 60.7059 61.1996 61.3374C62.294 62.0551 63.4581 61.902 63.8561 63.1269C64.3934 62.4953 63.6372 62.8494 64.6421 62.5814L68.3633 62.725C69.3981 62.6293 69.3881 62.457 70.4328 62.3135C72.0248 62.0838 71.786 62.6006 72.383 61.5193C73.1789 62.3039 72.1243 61.7681 74.4226 61.8063C74.4823 61.8063 74.5918 61.8255 74.6415 61.8255C74.6913 61.8255 74.7908 61.8255 74.8604 61.8542L76.3927 62.0838C75.6663 61.4714 74.6813 61.5001 74.3828 60.4667C74.0545 59.3279 74.4624 58.4476 74.9699 57.7586C76.5519 55.6151 76.2534 55.7013 76.7907 52.9071C77.4672 49.4431 83.2778 48.1608 84.4121 46.6967C82.3028 43.9696 76.731 45.3092 74.2336 43.7016C72.1641 44.3906 71.0696 44.3523 68.9603 44.8212Z"
            fill="#9DD3AF" stroke="#FEFEFE" stroke-width="0.42329" />
        <path fill-rule="evenodd" clip-rule="evenodd" class="state-map-path" id="imo_state_pkyOuvZuE"
            d="M70.7313 0.803432C70.791 0.994814 70.9303 1.35844 70.9303 1.55939C70.9403 2.30578 70.8109 2.02827 70.6617 2.32492C69.9155 1.90388 70.3035 2.80337 69.8359 1.31059C67.9454 1.70293 67.9852 3.02346 66.1943 3.79856C64.2442 4.64063 62.5627 3.70286 61.2095 5.4253L61.9856 5.31047C62.5527 6.89894 62.5527 6.69799 64.085 6.48747C64.5924 6.40135 66.8609 6.93721 67.6271 7.22429C68.9106 7.71231 69.2986 8.83189 69.7165 9.84622C70.8109 12.4873 70.4727 16.6211 72.582 16.7168L78.7607 14.2671C80.5715 13.5399 83.0988 11.9323 85.4668 12.65C86.7901 13.0519 86.7801 13.7504 87.5064 14.8126C89.1083 17.157 89.4068 15.1475 90.8794 19.8268C91.357 21.3578 91.7549 21.7597 92.4912 22.8315C93.7449 22.4487 93.2772 21.9415 93.5061 19.7598C93.6653 18.2766 94.123 18.0756 95.4264 15.913L96.2422 14.7647C96.7397 13.8461 96.7795 12.7648 97.4163 12.0662C98.1426 10.7361 99.4062 8.23861 99.5555 6.68842C99.7346 4.68848 98.272 3.14786 98.262 0.956538C98.1924 0.956538 98.0929 0.994814 98.0232 1.01395C97.8839 1.07137 97.7446 1.10964 97.5954 1.11921C97.4859 1.16706 97.3566 1.19576 97.2372 1.20533C97.1178 1.25318 96.9885 1.28189 96.8691 1.30102C96.6999 1.35844 96.5308 1.39672 96.3517 1.39672H96.0532C93.8941 3.32967 94.9587 2.52587 92.9887 5.61668C91.9838 5.52099 91.2177 5.0521 90.3023 4.64063C88.5313 3.86554 86.6309 2.92777 84.5812 2.69811C83.5067 2.57371 81.6461 2.83208 81.8351 2.07612C80.084 2.59285 79.5169 2.01871 78.1936 1.41585L72.9004 0.813001C72.6616 0.889554 72.4526 0.956538 72.2039 0.956538C71.9253 0.956538 71.7164 0.918261 71.4676 0.784294L70.7313 0.803432Z"
            fill="#9DD3AF" stroke="#FEFEFE" stroke-width="0.42329" />
        <path fill-rule="evenodd" clip-rule="evenodd" class="state-map-path" id="imo_state_HGkWoJfoQ"
            d="M68.632 75.2031C69.4876 76.7819 71.2885 77.4135 71.6567 78.8489C69.1792 79.9685 68.3235 81.2986 67.6669 83.7865C66.8311 86.9443 64.5327 91.8724 67.4977 94.8579L68.423 93.9393C68.8608 93.5661 69.0499 93.3652 69.4677 93.0015C72.8904 90.0447 72.3531 89.0495 74.552 85.7577C76.0047 83.5951 76.144 82.8679 79.5567 82.5808C82.7605 82.3033 84.6111 83.1358 86.8995 81.4038C87.0886 79.557 86.4219 78.2173 87.2279 76.7532C87.7651 75.1935 89.0188 75.1265 90.163 74.0261C89.5859 72.629 88.392 72.7151 87.7253 70.074C86.9592 69.3946 86.3622 68.2368 85.427 67.5286C84.1534 66.5622 83.248 66.9449 82.0043 66.1316C81.0292 65.4904 80.3527 64.3804 79.3278 63.7584C78.4523 63.2417 77.1489 62.4762 76.3927 62.0838L74.8605 61.8542C73.0894 62.6771 66.7316 63.347 64.4631 63.3757C64.7914 65.2799 66.1346 66.9928 68.2837 67.4617C70.1543 67.8731 72.2138 67.653 72.1442 70.7152C71.5472 72.0165 72.0646 70.6864 71.3084 71.8826C71.1791 72.0644 71.0895 72.2749 70.8905 72.5811C69.9553 74.0739 69.3782 73.8825 68.632 75.2031Z"
            fill="#D2E28B" stroke="#FEFEFE" stroke-width="0.42329" />
        <path fill-rule="evenodd" clip-rule="evenodd" class="state-map-path" id="imo_state_jOGfgmRMY"
            d="M102.481 65.4713L100.978 66.7153C98.3815 67.6818 99.7645 65.988 94.5309 66.8301C89.3074 67.6626 91.5361 68.6004 87.7254 70.074C88.392 72.7151 89.586 72.629 90.163 74.0261C89.0188 75.1265 87.7652 75.1935 87.2279 76.7532C88.0935 76.3609 87.7652 76.2078 88.6209 75.5475C89.2278 75.0787 89.5163 75.0404 90.0735 74.5141C90.1332 74.5524 90.2327 74.5524 90.2625 74.6385C90.3819 74.9925 92.143 75.4327 93.0186 75.4614C94.5807 75.4997 95.5558 74.9255 96.4612 74.9543C97.3168 74.9925 98.4809 75.6624 99.0083 76.2365C99.9336 77.2508 99.7346 78.0451 99.5058 79.5378C99.4162 79.8345 96.9686 81.777 98.0432 84.8965C98.9088 87.3941 99.6849 84.8583 101.933 88.5711L104.172 91.6906C106.192 94.0637 107.356 95.4034 109.863 95.6235C109.913 93.1738 110.968 93.4417 111.624 91.3365C112.649 88.0065 112.659 90.8868 113.963 87.8151C115.037 85.2697 114.679 85.7673 114.928 82.887C115.077 81.1742 116.271 80.1024 116.947 78.6766C115.336 79.2699 115.186 81.088 114.241 82.2459C113.157 81.9971 113.863 81.9014 113.097 81.4899L111.047 81.1263C110.54 80.0737 110.311 80.112 109.674 79.2412C109.664 79.2316 109.028 78.2269 109.028 78.2269C108.291 76.7437 106.401 73.8155 106.122 72.6385C106.729 72.2079 106.928 72.3993 107.416 71.5859C108.102 70.4185 107.774 69.5094 110.391 68.1219C113.405 66.5239 111.654 67.1363 113.754 64.7153C114.281 64.1221 114.211 64.5622 114.54 63.5288C112.828 63.8158 114.022 63.5766 113.206 64.2369C112.908 64.4857 112.55 64.744 112.201 64.8876C109.913 65.7966 104.829 65.701 102.481 65.4713Z"
            fill="#9DD3AF" stroke="#FEFEFE" stroke-width="0.42329" />
        <path fill-rule="evenodd" clip-rule="evenodd" class="state-map-path" id="imo_state_Lnr18CngI"
            d="M76.3927 62.0838C77.1489 62.4762 78.4523 63.2417 79.3278 63.7584C80.3527 64.3804 81.0292 65.4904 82.0043 66.1316C83.248 66.9449 84.1534 66.5622 85.427 67.5287C86.3622 68.2368 86.9592 69.3946 87.7253 70.074C91.5361 68.6004 89.3073 67.6626 94.5309 66.8301C99.7644 65.988 98.3814 67.6818 100.978 66.7153L102.481 65.4713C101.237 65.6818 101.078 66.0742 100.033 66.2751C99.2072 66.4282 98.4312 66.1794 97.8839 65.7392C97.2472 65.2512 96.3616 62.658 96.093 61.6724C95.5458 59.6055 97.3864 59.3184 98.1526 58.2754C102.152 52.8305 97.1477 53.0602 97.1278 50.9263C97.8441 50.5053 99.8838 51.1272 101.625 51.1655C102.64 51.1942 104.63 51.3186 105.525 50.8306C106.132 50.4957 105.883 50.6392 106.262 50.1799C104.421 50.4 104.112 50.7062 102.202 50.6871C100.371 50.6679 99.9137 50.4574 98.4212 50.2852C94.8891 50.0938 96.4313 51.8832 91.2177 49.3283C86.2229 46.8786 89.1879 48.4479 85.9941 47.1944L84.4121 46.6968C83.2778 48.1608 77.4673 49.4431 76.7907 52.9071C76.2534 55.7013 76.5519 55.6151 74.9699 57.7586C74.4625 58.4476 74.0545 59.328 74.3829 60.4667C74.6814 61.5001 75.6664 61.4714 76.3927 62.0838Z"
            fill="#F6AFCE" stroke="#FEFEFE" stroke-width="0.42329" />
        <path fill-rule="evenodd" clip-rule="evenodd" class="state-map-path" id="imo_state_O895oQWJO"
            d="M90.7202 30.9365L89.7252 33.0417C89.3472 33.7115 89.0984 34.3335 88.8099 35.0225C86.1434 41.4051 83.5366 38.4769 79.5667 39.2616C78.3627 39.5008 76.2136 41.0414 75.6863 42.161C74.8207 42.0462 75.159 42.3141 74.6913 41.8548C75.0893 42.9935 74.8605 43.1849 74.2336 43.7016C76.731 45.3092 82.3028 43.9696 84.4121 46.6968L85.9941 47.1943C89.188 48.4479 86.223 46.8786 91.2177 49.3283C96.4313 51.8832 94.8891 50.0938 98.4212 50.2852C98.2222 49.156 97.6153 42.7543 99.854 41.1467C102.57 39.2042 103.744 42.1801 105.505 31.4532C105.724 30.0848 105.446 29.0705 105.694 27.7021C106.729 27.1375 108.142 27.3481 108.848 26.8122C98.7396 27.4246 101.048 30.0274 95.4363 30.6494C94.2225 30.7834 91.6754 30.7547 90.7202 30.9365Z"
            fill="#D2E28B" stroke="#FEFEFE" stroke-width="0.42329" />
        <path fill-rule="evenodd" clip-rule="evenodd" class="state-map-path" id="imo_state_gJ0wg57dK"
            d="M108.848 26.8122C108.142 27.3481 106.729 27.1375 105.694 27.7021C105.446 29.0705 105.724 30.0848 105.505 31.4532C103.744 42.1801 102.57 39.2042 99.854 41.1467C97.6153 42.7543 98.2222 49.156 98.4212 50.2852C99.9137 50.4574 100.371 50.6679 102.202 50.6871C104.112 50.7062 104.421 50.4 106.262 50.1799C107.625 49.3857 109.306 49.1369 111.008 49.4909L112.261 49.4527C115.147 49.7206 117.674 47.2135 118.599 44.6011C119.037 43.3667 118.669 40.3429 118.579 38.9936C118.301 34.9938 118.947 36.276 120.798 34.5344C120.062 33.5297 118.659 33.4627 117.345 32.9938C113.704 31.702 113.982 26.018 109.714 26.0658L109.545 26.7452L108.848 26.8122Z"
            fill="#91D8F7" stroke="#FEFEFE" stroke-width="0.42329" />
        <path fill-rule="evenodd" clip-rule="evenodd" class="state-map-path" id="imo_state_DB1ZxzX60"
            d="M40.0068 38.9554C40.2854 40.0271 41.8475 40.9362 42.7529 42.1323C43.2007 42.716 43.0415 42.7064 43.6385 43.1945C45.3299 44.5724 44.9021 43.7208 46.2851 45.3284L47.3994 46.2374C48.4541 46.9838 49.3197 46.6872 51.9763 46.6776C53.4488 45.3667 57.0705 45.3188 59.6972 45.2231C59.2295 43.1275 59.5678 38.6587 58.3042 36.5153C56.8516 34.0273 58.1749 35.3095 56.2248 32.812C55.3094 31.6446 54.2746 31.1948 54.3244 29.3576C54.404 26.6113 56.5332 27.4342 58.5231 26.4103C59.4783 28.0849 59.9658 31.5967 66.642 30.7355C67.1196 30.6781 67.7564 30.5441 68.2141 30.4006C68.7912 30.2284 68.6519 30.3145 69.0498 30.0657C69.9155 29.5394 69.3881 29.836 69.7961 29.4054C67.9255 29.7595 67.2589 30.391 64.9207 30.3049C63.299 30.2379 61.7269 29.97 60.8016 29.1853C59.8862 28.4102 58.543 24.5826 58.2843 23.2621C58.1649 22.6401 58.2744 23.3769 58.2246 22.7549C58.2047 22.4583 58.2545 21.9894 58.2644 21.664C57.5083 21.4727 58.0455 21.7214 57.5182 21.0229C55.5283 18.3818 55.0109 20.1808 52.5533 19.1761C51.6877 18.822 52.0559 18.6785 50.7525 18.3818C49.449 18.5062 51.1504 18.3627 49.0411 19.3196C48.275 19.6737 47.6681 19.8746 46.9417 20.3339C46.1458 20.8315 45.8174 21.1856 45.5189 21.9702C43.9767 25.9988 47.1706 24.3625 49.7276 24.5922C51.2798 24.7261 52.5931 25.3003 52.9215 26.8696C52.225 28.0849 49.8371 28.4485 49.3396 29.7595C48.8322 31.1087 49.6082 34.123 49.2103 35.6827C48.6531 37.8166 46.4443 37.0607 44.2653 37.0511C41.9968 37.0416 41.151 37.9028 40.0068 38.9554Z"
            fill="#91D8F7" stroke="#FEFEFE" stroke-width="0.42329" />
        <path fill-rule="evenodd" clip-rule="evenodd" class="state-map-path" id="imo_state_KnOoHYzh6"
            d="M64.085 6.48747C63.7765 7.48265 63.886 7.808 63.6969 8.87017C63.5278 9.82708 63.1597 10.1716 63.0005 10.9371C62.8214 11.8557 63.0005 14.4298 62.9806 15.5494C62.9209 20.755 61.3389 19.0995 59.5977 20.3722C59.0007 20.8028 59.0902 21.0612 58.2644 21.664C58.2545 21.9894 58.2047 22.4583 58.2246 22.7549C58.2744 23.3769 58.1649 22.6401 58.2843 23.2621C58.543 24.5826 59.8862 28.4102 60.8016 29.1853C61.7269 29.97 63.2989 30.2379 64.9207 30.3049C67.2589 30.391 67.9255 29.7595 69.7961 29.4054L69.9155 29.3193C70.6219 28.2571 70.6617 28.7547 71.9551 28.0658C72.7412 27.6543 73.4177 27.0993 74.0346 26.7739C74.7908 26.3816 75.537 26.305 76.2932 25.8936C78.0344 24.9367 76.3131 25.6639 78.7707 25.6161L78.6811 23.2142C78.4821 18.0661 74.3729 19.9129 72.1442 17.224C72.5521 16.6977 71.6965 17.1761 72.582 16.7168C70.4726 16.6211 70.8109 12.4873 69.7165 9.84622C69.2986 8.8319 68.9106 7.71231 67.627 7.22429C66.8609 6.93722 64.5924 6.40135 64.085 6.48747Z"
            fill="#F6AFCE" stroke="#FEFEFE" stroke-width="0.42329" />
        <path fill-rule="evenodd" clip-rule="evenodd" class="state-map-path" id="imo_state_qXFLWmsnC"
            d="M106.262 50.1799C105.883 50.6392 106.132 50.4957 105.525 50.8306C104.63 51.3186 102.64 51.1942 101.625 51.1655C99.8838 51.1272 97.8442 50.5053 97.1278 50.9263C97.1477 53.0602 102.152 52.8305 98.1526 58.2754C97.3865 59.3184 95.5458 59.6055 96.093 61.6724C96.3617 62.658 97.2472 65.2512 97.884 65.7392C98.4312 66.1794 99.2073 66.4282 100.033 66.2751C101.078 66.0742 101.237 65.6818 102.481 65.4713C104.829 65.701 109.913 65.7967 112.202 64.8876C112.55 64.7441 112.908 64.4857 113.206 64.2369C114.022 63.5766 112.828 63.8159 114.54 63.5288L115.067 61.4714C114.142 60.6868 113.196 60.3136 112.291 59.4045C112.032 57.4046 112.43 57.2897 112.699 55.7491C112.938 54.3329 112.659 53.1368 112.709 51.7205C111.873 51.3856 111.057 52.4765 111.008 49.4909C109.306 49.1369 107.625 49.3857 106.262 50.1799Z"
            fill="#91D8F7" stroke="#FEFEFE" stroke-width="0.42329" />
        <path fill-rule="evenodd" clip-rule="evenodd" class="state-map-path" id="imo_state_TabUEnqXy"
            d="M114.54 63.5288C114.211 64.5622 114.281 64.1221 113.754 64.7153C111.654 67.1363 113.405 66.5239 110.391 68.1219C107.774 69.5095 108.102 70.4185 107.416 71.5859C106.928 72.3993 106.729 72.2079 106.122 72.6385C106.401 73.8155 108.291 76.7437 109.028 78.2269C109.028 78.2269 109.664 79.2316 109.674 79.2412C110.311 80.112 110.54 80.0737 111.047 81.1263L113.097 81.4899C113.863 81.9014 113.157 81.9971 114.241 82.2459C115.186 81.088 115.336 79.2699 116.948 78.6766C117.176 78.4661 117.704 77.7676 118.072 77.4422C118.987 76.6289 118.738 77.136 119.763 76.5714C121.196 75.7772 121.116 74.7629 121.823 73.3275C122.559 71.8347 123.355 72.2558 124.111 70.2845C124.609 68.9736 125.454 67.3947 125.653 66.4091C125.206 65.366 124.867 65.1938 123.604 64.7632C122.659 64.4474 121.594 64.0455 120.758 63.6436C119.136 62.8781 117.644 61.2609 115.067 61.4714L114.54 63.5288Z"
            fill="#D2E28B" stroke="#FEFEFE" stroke-width="0.42329" />
        <path fill-rule="evenodd" clip-rule="evenodd" class="state-map-path" id="imo_state_bhDKThB8A"
            d="M111.008 49.4909C111.057 52.4765 111.873 51.3856 112.709 51.7205C113.475 51.5196 116.957 51.0028 117.972 51.0124C120.221 51.0315 120.718 52.2277 122.31 52.4478C123.932 52.6679 126.071 52.4669 127.643 52.8401C129.355 53.2516 130.24 54.5625 131.763 54.6391C132.439 53.8927 131.962 53.5004 132.449 52.1033C133.106 50.2373 133.265 51.7301 132.668 49.6823C132.29 48.3713 132.479 48.3905 131.772 47.2326C131.225 46.3236 130.897 45.7973 130.698 44.716C129.534 38.2185 126.678 40.1993 124.867 36.4961C124.31 35.6158 125.007 36.1038 124.062 35.654C123.385 35.3383 123.664 35.5679 122.907 35.367C121.773 35.0608 121.912 34.7641 120.798 34.5345C118.947 36.276 118.301 34.9938 118.579 38.9936C118.669 40.3429 119.037 43.3667 118.599 44.6011C117.674 47.2135 115.147 49.7206 112.261 49.4526L111.008 49.4909Z"
            fill="#9DD3AF" stroke="#FEFEFE" stroke-width="0.42329" />
        <path fill-rule="evenodd" clip-rule="evenodd" class="state-map-path" id="imo_state_bByiYNH84"
            d="M112.709 51.7205C112.659 53.1368 112.938 54.3329 112.699 55.7491C112.43 57.2897 112.032 57.4046 112.291 59.4045C113.196 60.3136 114.142 60.6868 115.067 61.4714C117.644 61.2609 119.136 62.8781 120.758 63.6436C121.594 64.0455 122.659 64.4474 123.604 64.7632C124.867 65.1938 125.206 65.366 125.653 66.4091C126.897 66.0263 128.947 63.5958 129.215 61.902C129.464 60.3901 128.897 60.3805 129.892 59.3088C131.504 57.5864 130.389 58.2562 130.479 56.1032C131.126 55.5864 131.424 55.4812 131.762 54.6391C130.24 54.5625 129.355 53.2516 127.643 52.8401C126.071 52.4669 123.932 52.6679 122.31 52.4478C120.718 52.2277 120.221 51.0316 117.972 51.0124C116.957 51.0028 113.475 51.5196 112.709 51.7205Z"
            fill="#F6AFCE" stroke="#FEFEFE" stroke-width="0.42329" />
        <path fill-rule="evenodd" clip-rule="evenodd" class="state-map-path" id="imo_state_GfpnzTyB2"
            d="M34.8131 26.0467C34.7833 26.0945 34.7833 26.1232 34.7734 26.1902C34.7037 28.0466 33.5595 29.7212 34.1863 32.0943C34.3953 32.8886 38.0667 38.6492 40.0069 38.9554C41.1511 37.9028 41.9968 37.0416 44.2653 37.0511C46.4443 37.0607 48.6531 37.8166 49.2103 35.6827C49.6083 34.123 48.8322 31.1087 49.3396 29.7595C49.8371 28.4485 52.225 28.0849 52.9215 26.8696C52.5932 25.3003 51.2798 24.7261 49.7277 24.5922C47.1706 24.3625 43.9768 25.9988 45.519 21.9702C45.8175 21.1856 46.1458 20.8315 46.9418 20.3339C47.6681 19.8746 48.275 19.6737 49.0411 19.3196C51.1505 18.3627 49.4491 18.5062 50.7525 18.3818C49.6381 17.5398 48.8422 18.1139 47.7377 17.3962C45.1807 18.2766 43.3897 19.2813 42.743 21.8267C42.1958 23.9415 42.6336 28.1901 41.2804 29.7403C38.1662 30.1135 37.3205 26.5825 34.8131 26.0467Z"
            fill="#9DD3AF" stroke="#FEFEFE" stroke-width="0.42329" />
        <path fill-rule="evenodd" clip-rule="evenodd" class="state-map-path" id="imo_state_g3RprCWhe"
            d="M72.582 16.7168C71.6965 17.1761 72.5522 16.6977 72.1442 17.224C74.3729 19.9129 78.4822 18.0661 78.6811 23.2142C78.7209 23.2812 78.7607 23.3099 78.7806 23.4247C78.8005 23.5683 78.9299 23.7884 78.9597 23.8745C79.2184 24.6209 79.2483 25.2237 79.7458 25.9031C84.8698 25.1567 85.8449 27.0897 88.2328 27.5012L91.1282 28.305C91.7848 27.0227 92.9788 25.3673 93.128 23.2908L92.4913 22.8315C91.755 21.7597 91.357 21.3578 90.8794 19.8268C89.4069 15.1475 89.1084 17.157 87.5065 14.8126C86.7802 13.7504 86.7901 13.0519 85.4569 12.65C83.0988 11.9323 80.5716 13.5495 78.7607 14.2671L72.582 16.7168Z"
            fill="#91D8F7" stroke="#FEFEFE" stroke-width="0.42329" />
        <path fill-rule="evenodd" clip-rule="evenodd" class="state-map-path" id="imo_state_LCxJJM53u"
            d="M92.4913 22.8315L93.128 23.2908C92.9788 25.3673 91.7848 27.0227 91.1282 28.305L90.7202 30.9365C91.6754 30.7547 94.2225 30.7834 95.4363 30.6494C101.048 30.0274 98.7396 27.4246 108.848 26.8122L109.545 26.7452L109.714 26.0658C108.391 24.5156 104.839 22.1138 103.426 19.377C102.889 18.3244 102.491 18.1522 102.053 17.3771C100.033 13.8365 101.396 13.5303 97.3964 12.6882L97.4163 12.0662C96.7795 12.7648 96.7397 13.8461 96.2423 14.7647L95.4264 15.913C94.123 18.0756 93.6653 18.2766 93.5061 19.7598C93.2773 21.9415 93.7449 22.4487 92.4913 22.8315Z"
            fill="#D2D3D5" stroke="#FEFEFE" stroke-width="0.42329" />
        <path fill-rule="evenodd" clip-rule="evenodd" class="state-map-path" id="imo_state_LzEFvEOws"
            d="M59.6972 45.2231C61.4782 45.2997 62.8413 45.5293 64.6322 45.5389C65.2889 45.5389 66.5326 45.5867 67.1296 45.4623C68.0947 45.2614 67.6668 45.0126 68.9603 44.8212C68.2141 44.8882 68.7215 44.936 68.2837 44.515C68.8409 38.5439 65.856 38.8214 65.5675 36.5248C65.3884 35.0895 66.3336 33.6637 67.428 33.1182C68.8309 32.4197 70.7413 32.5536 72.4924 32.6876L73.7361 32.5632C73.6267 31.2331 72.8904 31.2427 71.8059 29.1758L69.9155 29.3193L69.7961 29.4054C69.3881 29.836 69.9155 29.5394 69.0498 30.0657C68.6518 30.3145 68.7911 30.2284 68.2141 30.4006C67.7564 30.5441 67.1196 30.6781 66.642 30.7355C59.9658 31.5967 59.4783 28.0849 58.5231 26.4103C56.5332 27.4342 54.404 26.6112 54.3244 29.3576C54.2746 31.1948 55.3094 31.6446 56.2247 32.812C58.1749 35.3095 56.8516 34.0273 58.3042 36.5152C59.5678 38.6587 59.2295 43.1275 59.6972 45.2231Z"
            fill="#D2E28B" stroke="#FEFEFE" stroke-width="0.42329" />
        <path fill-rule="evenodd" clip-rule="evenodd" class="state-map-path" id="imo_state_cvspY7VBa"
            d="M75 34.4783C75.1194 36.2007 74.9503 37.0236 75.4278 38.5069C75.8258 39.7604 76.0149 41.1192 76.1641 42.3536C76.6317 42.8129 76.2935 42.545 77.1591 42.6598C77.6864 41.5402 79.8355 39.9996 81.0394 39.7604C85.0094 38.9757 87.6162 41.9039 90.2827 35.5213C90.5712 34.8323 90.8199 34.2103 91.198 33.5405L92.193 31.4353L92.6009 28.8038L89.7056 28C88.8599 29.8564 87.5067 28.7177 85.9347 29.6172C84.6313 30.3636 84.7009 31.531 83.6065 32.0477C82.7806 32.4401 79.7659 31.1865 77.1292 34.6696L75 34.4783Z"
            fill="#FDD1A1" stroke="#FEFEFE" stroke-width="0.42329" />
        <path fill-rule="evenodd" clip-rule="evenodd" class="state-map-path" id="imo_state_UEMGVORy0"
            d="M63.8561 63.1269L64.1447 64.39C61.9856 65.2034 62.3736 64.9259 60.8911 66.5526C58.8813 68.7535 56.8914 71.6816 56.8516 74.8968C57.6674 75.3083 61.5677 77.2891 62.6423 77.2891C64.4332 77.2987 64.4332 74.2653 68.6319 75.203C69.3782 73.8825 69.9552 74.0739 70.8905 72.5811C71.0895 72.2749 71.1791 72.0644 71.3084 71.8826C72.0646 70.6864 71.5472 72.0165 72.1442 70.7152C72.2138 67.653 70.1542 67.8731 68.2837 67.4617C66.1346 66.9928 64.7914 65.2799 64.463 63.3757C66.7316 63.347 73.0894 62.6771 74.8604 61.8542C74.7908 61.8255 74.6913 61.8255 74.6415 61.8255C74.5918 61.8255 74.4823 61.8063 74.4226 61.8063C72.1243 61.7681 73.1789 62.3039 72.383 61.5193C71.786 62.6006 72.0248 62.0838 70.4328 62.3135C69.3881 62.457 69.3981 62.6293 68.3633 62.725L64.6421 62.5814C63.6372 62.8494 64.3934 62.4953 63.8561 63.1269Z"
            fill="#F6AFCE" stroke="#FEFEFE" stroke-width="0.42329" />
        <path fill-rule="evenodd" clip-rule="evenodd" class="state-map-path" id="imo_state_TuTsM59GU"
            d="M47.7377 17.3962C48.8421 18.1139 49.6381 17.5398 50.7525 18.3818C52.0559 18.6785 51.6877 18.822 52.5534 19.1761C55.0109 20.1808 55.5283 18.3818 57.5182 21.0229C58.0456 21.7215 57.5083 21.4727 58.2645 21.664C59.0903 21.0612 59.0007 20.8028 59.5977 20.3722C61.3389 19.0995 62.9209 20.755 62.9806 15.5494C63.0005 14.4298 62.8214 11.8557 63.0005 10.9371C63.1597 10.1716 63.5278 9.82708 63.697 8.87017C63.886 7.808 63.7766 7.48265 64.085 6.48747C62.5528 6.69799 62.5528 6.89894 61.9856 5.31047L61.2096 5.4253C58.165 9.18595 59.3291 8.40128 55.4189 12.2193C54.4935 13.1188 54.4836 12.7744 53.8767 13.76C53.2896 14.7169 53.3593 14.9561 52.3345 15.5781C50.5933 16.6116 49.2998 16.7551 47.7377 17.3962Z"
            fill="#D2E28B" stroke="#FEFEFE" stroke-width="0.42329" />
        <path fill-rule="evenodd" clip-rule="evenodd" class="state-map-path" id="imo_state_s6GSa9IXK"
            d="M69.9155 29.3193L71.8059 29.1758C72.8904 31.2427 73.6267 31.2331 73.7361 32.5632L72.4924 32.6876C72.5919 32.7163 72.9501 32.8024 73.0198 32.8312C73.4774 33.0417 73.5073 33.0704 73.7262 33.2139L73.5272 33.9794L75.6564 34.1708C78.2931 30.6877 81.3078 31.9412 82.1336 31.5489C83.2281 31.0322 83.1584 29.8647 84.4618 29.1184C86.0339 28.2189 87.387 29.3576 88.2328 27.5012C85.8448 27.0897 84.8698 25.1567 79.7457 25.9031C79.2482 25.2237 79.2184 24.6209 78.9597 23.8745C78.9298 23.7884 78.8005 23.5683 78.7806 23.4247C78.7607 23.3099 78.7209 23.2812 78.6811 23.2142L78.7706 25.6161C76.3131 25.6639 78.0344 24.9367 76.2932 25.8936C75.537 26.305 74.7908 26.3816 74.0346 26.7739C73.4177 27.0993 72.7412 27.6543 71.9551 28.0658C70.6617 28.7547 70.6219 28.2571 69.9155 29.3193Z"
            fill="#D2D3D5" stroke="#FEFEFE" stroke-width="0.42329" />
        <path fill-rule="evenodd" clip-rule="evenodd" class="state-map-path" id="imo_state_XfKQ47yFO"
            d="M68.9603 44.8212C71.0697 44.3523 72.1641 44.3906 74.2337 43.7016C74.8605 43.1849 75.0893 42.9935 74.6913 41.8548C74.5421 40.6204 74.3531 39.2616 73.9551 38.008C73.4775 36.5248 73.6466 35.7019 73.5272 33.9794L73.7262 33.2139C73.5073 33.0704 73.4775 33.0417 73.0198 32.8312C72.9502 32.8024 72.592 32.7163 72.4925 32.6876C70.7413 32.5536 68.831 32.4197 67.4281 33.1182C66.3336 33.6637 65.3884 35.0895 65.5675 36.5248C65.856 38.8214 68.8409 38.5439 68.2838 44.515C68.7215 44.936 68.2141 44.8882 68.9603 44.8212Z"
            fill="#91D8F7" stroke="#FEFEFE" stroke-width="0.42329" />
    </svg>