<svg viewBox="0 0 2476 1524" fill="none" xmlns="http://www.w3.org/2000/svg">
        <path fill-rule="evenodd" clip-rule="evenodd" class="state-map-path" id="jigawa_state_oAU0IsVcT"
            d="M1829 1260C1829 1259 1830 1258 1831 1258C1831 1257 1832 1256 1833 1256C1834 1256 1835 1255 1835 1255C1836 1253 1837 1253 1839 1253C1839 1252 1840 1252 1841 1252C1843 1251 1843 1251 1845 1251C1847 1250 1847 1250 1849 1250L1850 1249C1851 1248 1852 1248 1853 1248C1853 1247 1853 1247 1854 1246C1854 1245 1855 1244 1857 1244H1856C1857 1242 1857 1241 1858 1240C1858 1238 1858 1238 1860 1236C1860 1235 1860 1234 1861 1234L1865 1230L1866 1228C1866 1228 1867 1226 1868 1226L1870 1225C1871 1224 1872 1222 1874 1222H1873C1874 1222 1875 1221 1876 1221C1878 1219 1878 1219 1881 1219C1882 1218 1883 1218 1884 1218C1884 1217 1885 1217 1885 1217L1888 1216C1888 1215 1889 1214 1890 1213C1892 1213 1892 1212 1894 1212C1896 1211 1896 1211 1898 1211C1898 1210 1899 1210 1900 1210C1901 1209 1902 1209 1904 1209L1906 1208C1907 1208 1908 1208 1908 1208C1910 1206 1910 1207 1912 1207C1914 1206 1914 1206 1916 1206C1918 1205 1918 1205 1920 1205C1922 1203 1922 1202 1924 1202C1925 1202 1926 1201 1927 1201C1928 1200 1928 1199 1930 1199H1929C1930 1198 1931 1198 1932 1197C1932 1196 1933 1196 1933 1196C1934 1195 1934 1194 1935 1194C1936 1193 1937 1192 1938 1191C1938 1191 1938 1190 1939 1190V1189C1939 1187 1940 1186 1942 1185C1942 1184 1943 1184 1944 1183C1944 1183 1944 1182 1945 1182C1945 1181 1945 1180 1946 1180C1946 1179 1946 1178 1947 1178C1947 1177 1947 1176 1948 1176L1950 1173C1950 1172 1951 1171 1951 1170C1952 1169 1953 1168 1954 1167C1954 1166 1955 1165 1956 1164C1956 1163 1956 1161 1957 1160L1937 1092C1942 1083 1943 1083 1943 1078C1941 1058 1942 1057 1937 1035C1935 1026 1933 1020 1931 1012C1925 986 1922 988 1913 986C1891 979 1905 985 1876 985C1870 985 1874 984 1871 986L1857 993C1852 995 1851 995 1847 998C1844 1001 1843 1003 1841 1007C1835 1024 1836 1024 1834 1042C1834 1047 1834 1052 1834 1056C1833 1078 1824 1091 1824 1103C1824 1111 1829 1117 1826 1128C1825 1131 1822 1131 1819 1134C1820 1138 1826 1143 1829 1145C1829 1148 1828 1155 1826 1159C1827 1160 1827 1161 1827 1162H1826C1827 1162 1827 1163 1827 1164C1828 1164 1828 1165 1828 1166V1171V1172C1828 1173 1828 1173 1827 1174C1827 1175 1827 1175 1826 1176V1177C1826 1178 1825 1179 1825 1179C1825 1180 1824 1181 1824 1182C1824 1183 1823 1183 1823 1184V1194C1824 1195 1824 1197 1824 1198H1823C1824 1198 1824 1199 1824 1199C1825 1200 1825 1201 1825 1202V1211C1825 1212 1825 1212 1825 1213C1825 1214 1824 1214 1824 1214C1824 1216 1824 1216 1823 1217C1823 1218 1823 1218 1823 1218C1823 1219 1823 1221 1823 1222V1226C1823 1227 1822 1227 1822 1228C1822 1228 1822 1229 1821 1229V1234C1821 1235 1821 1236 1821 1236V1239C1821 1240 1821 1240 1820 1241C1820 1242 1820 1242 1820 1243C1820 1243 1820 1244 1819 1244V1245C1820 1245 1821 1246 1821 1247C1821 1247 1821 1248 1821 1249V1254C1822 1255 1822 1255 1822 1256V1264C1822 1265 1822 1265 1822 1265C1823 1266 1823 1268 1823 1269C1823 1269 1823 1268 1824 1268C1824 1268 1824 1267 1825 1267L1826 1265C1826 1265 1826 1264 1827 1264V1263C1827 1261 1828 1260 1829 1260Z"
            fill="#F6AFCE" />
        <path fill-rule="evenodd" clip-rule="evenodd" class="state-map-path" id="jigawa_state_ON5y5k8lF"
            d="M1821 1314C1833 1313 1841 1312 1857 1311C1869 1311 1877 1310 1888 1309C1913 1309 1930 1294 1942 1303C1944 1304 1954 1319 1956 1322C1974 1359 1976 1361 1976 1403C1976 1419 1966 1434 1968 1462C1969 1467 1975 1483 1978 1487C1980 1491 1991 1501 1996 1503C2001 1506 2042 1514 2050 1515C2063 1516 2096 1508 2108 1504C2121 1500 2118 1500 2134 1502C2138 1503 2141 1506 2145 1508C2158 1519 2159 1519 2180 1523C2189 1525 2198 1520 2206 1517C2207 1502 2196 1488 2196 1473C2196 1459 2194 1461 2201 1452C2212 1438 2211 1440 2223 1433C2226 1432 2229 1430 2232 1429C2238 1425 2245 1423 2252 1422C2261 1421 2266 1419 2274 1417C2287 1413 2318 1396 2323 1385C2325 1380 2327 1372 2329 1366C2333 1355 2332 1355 2326 1346C2321 1339 2318 1340 2305 1340C2295 1340 2265 1338 2255 1337C2246 1335 2238 1336 2229 1335C2213 1332 2182 1325 2164 1321L2116 1314C2087 1310 2097 1318 2065 1298C2063 1296 2060 1294 2057 1293C2054 1290 2043 1275 2040 1271C2031 1260 2012 1231 2001 1216C1997 1210 1986 1186 1985 1178C1984 1173 1983 1171 1983 1167C1982 1159 1983 1161 1980 1155C1977 1155 1971 1157 1968 1158C1965 1158 1965 1158 1963 1159C1962 1159 1961 1159 1961 1160C1962 1160 1962 1161 1962 1162V1165C1962 1167 1961 1167 1960 1168C1960 1171 1956 1172 1956 1175C1956 1175 1955 1176 1955 1177C1954 1177 1953 1178 1952 1179C1952 1180 1952 1180 1951 1181C1951 1182 1951 1183 1950 1183C1950 1184 1950 1185 1949 1185C1949 1187 1948 1187 1947 1188V1187C1947 1189 1946 1190 1945 1190C1945 1189 1945 1190 1945 1191C1944 1192 1944 1193 1943 1194C1943 1195 1942 1196 1941 1196C1941 1198 1940 1198 1939 1199V1198C1939 1200 1937 1200 1935 1201C1935 1202 1934 1203 1933 1204C1932 1205 1931 1205 1931 1205C1930 1206 1929 1206 1928 1207C1927 1208 1927 1208 1924 1208C1922 1210 1923 1210 1920 1210C1918 1211 1918 1211 1915 1211C1914 1212 1914 1212 1912 1212C1910 1214 1910 1213 1908 1213L1905 1214C1905 1215 1904 1214 1903 1214C1902 1215 1902 1215 1901 1216C1900 1217 1899 1217 1897 1217C1896 1217 1896 1218 1894 1218H1893C1893 1219 1892 1220 1891 1220L1888 1222C1887 1223 1887 1223 1886 1223H1885C1883 1225 1883 1225 1880 1225C1879 1226 1878 1227 1877 1227C1876 1228 1876 1228 1875 1228C1874 1229 1873 1230 1873 1230L1871 1231C1870 1232 1870 1233 1869 1234L1866 1237C1866 1238 1865 1239 1864 1240C1864 1242 1864 1242 1862 1244C1862 1245 1861 1246 1860 1248C1860 1248 1860 1249 1859 1249C1859 1249 1859 1249 1858 1250C1858 1252 1857 1252 1855 1253C1854 1254 1854 1255 1853 1255C1851 1256 1851 1256 1849 1256C1847 1257 1847 1257 1845 1257C1844 1257 1843 1258 1842 1258C1841 1258 1841 1259 1840 1259C1839 1259 1839 1260 1838 1260C1837 1260 1836 1261 1836 1262C1836 1262 1835 1263 1834 1263C1834 1264 1833 1264 1833 1265L1832 1267C1831 1267 1831 1268 1830 1268C1830 1269 1830 1270 1829 1271C1829 1272 1828 1273 1827 1273C1827 1274 1826 1275 1826 1275C1826 1276 1825 1277 1824 1278V1280L1823 1279C1824 1281 1824 1282 1824 1283C1825 1284 1825 1285 1825 1286C1826 1287 1826 1287 1826 1288H1825C1826 1288 1826 1289 1826 1290V1295C1826 1296 1826 1296 1826 1297C1826 1298 1825 1299 1825 1299C1824 1299 1824 1299 1824 1300C1824 1300 1824 1301 1823 1302V1301C1823 1302 1823 1302 1823 1303C1823 1304 1823 1304 1822 1305V1311C1822 1312 1822 1312 1821 1313C1821 1313 1821 1313 1821 1314Z"
            fill="#F6AFCE" />
        <path fill-rule="evenodd" clip-rule="evenodd" class="state-map-path" id="jigawa_state_HVzRsekSU"
            d="M2294 427C2295 430 2295 432 2295 434C2298 444 2286 459 2294 475L2298 481C2300 481 2301 481 2304 481C2310 479 2330 473 2337 478C2346 485 2350 493 2356 502C2357 504 2356 504 2357 506L2360 517C2366 516 2371 511 2375 508L2420 483C2425 480 2429 478 2434 474C2455 457 2454 460 2476 446L2466 409C2466 406 2467 408 2466 406C2460 385 2459 354 2456 330L2449 297C2448 289 2449 292 2446 286L2424 254C2422 252 2408 246 2404 245C2397 245 2387 251 2382 251C2371 250 2334 227 2323 228C2319 229 2285 241 2282 242C2282 248 2284 256 2285 260C2289 270 2288 273 2284 277C2296 284 2292 299 2295 309C2299 320 2299 337 2303 346C2307 357 2295 370 2292 376L2287 384C2287 385 2286 386 2286 386C2279 398 2285 401 2286 407C2293 405 2295 427 2294 427Z"
            fill="#F6AFCE" />
        <path fill-rule="evenodd" clip-rule="evenodd" class="state-map-path" id="jigawa_state_SEuvvAq3S"
            d="M2137 432L2123 446C2120 460 2116 462 2111 476C2109 481 2107 481 2105 486C2105 493 2122 497 2101 515C2097 517 2100 513 2098 519L2096 524C2102 525 2105 526 2112 526H2169C2191 527 2203 518 2221 524C2228 526 2225 529 2234 529L2242 511C2246 503 2249 503 2256 499C2261 496 2268 493 2273 491C2278 490 2289 487 2293 484C2292 480 2291 478 2289 475C2282 462 2291 446 2291 436C2291 433 2290 430 2290 427H2289V426V424C2289 424 2289 424 2288 423V421C2271 418 2282 383 2286 377C2299 357 2301 358 2296 339C2295 336 2295 333 2295 330L2288 294C2288 288 2284 281 2282 280C2278 278 2267 286 2256 286C2247 287 2239 291 2232 296C2228 299 2215 306 2210 308C2197 313 2197 313 2181 314C2179 319 2177 324 2174 329C2174 329 2174 329 2174 330C2174 330 2175 331 2176 331C2182 336 2184 340 2187 347C2190 356 2187 354 2187 360C2187 363 2188 370 2189 375L2198 381C2199 387 2198 397 2193 403V406C2189 409 2151 424 2143 426L2142 427H2141V428H2140V429L2139 430H2138L2137 431V432Z"
            fill="#91D8F7" />
        <path fill-rule="evenodd" clip-rule="evenodd" class="state-map-path" id="jigawa_state_KzmnVAneB"
            d="M1939 409C1941 432 1942 482 1942 484C1942 493 1935 501 1928 506C1927 524 1936 520 1956 517C1965 515 1971 520 1980 521C1994 522 1988 514 2012 529C2015 531 2018 533 2021 534C2025 527 2025 527 2031 522C2041 514 2039 522 2049 522C2051 520 2052 519 2054 517C2056 515 2057 515 2059 513C2058 512 2055 501 2055 499C2055 495 2056 498 2057 492C2057 489 2057 486 2057 482C2062 478 2071 471 2079 471C2084 471 2088 474 2092 476C2096 478 2099 481 2103 481C2129 423 2104 464 2134 425L2140 421C2149 420 2193 401 2190 399C2193 396 2195 391 2194 383C2192 381 2188 380 2185 378L2183 365C2181 354 2186 351 2178 338C2176 336 2172 333 2169 332C2167 334 2166 335 2164 336L2162 338C2155 344 2158 343 2146 347C2125 353 2132 349 2119 341C2117 340 2114 339 2113 338C2109 337 2110 336 2105 338C2095 343 2093 347 2086 354C2083 357 2077 359 2073 361C2057 370 2073 366 2048 373C2042 375 2038 375 2032 377C2028 378 2024 381 2019 382C2007 387 1998 385 1985 385C1979 384 1972 385 1967 384C1962 382 1959 378 1953 376L1943 401C1942 403 1942 403 1942 404C1942 405 1941 406 1941 406C1941 407 1941 407 1940 407C1940 408 1939 408 1939 409Z"
            fill="#F6AFCE" />
        <path fill-rule="evenodd" clip-rule="evenodd" class="state-map-path" id="jigawa_state_QfUxcYfSS"
            d="M1889 407L1879 439H1878L1874 451C1876 462 1861 465 1845 473C1825 484 1827 481 1813 494C1800 507 1810 502 1803 510C1799 514 1794 518 1790 523C1785 529 1784 535 1780 539C1775 544 1767 543 1764 550C1766 554 1769 556 1770 560C1772 565 1770 567 1770 574C1783 576 1776 575 1781 577C1788 578 1790 575 1795 575C1797 576 1802 578 1805 579C1809 580 1814 580 1818 580C1824 581 1819 582 1828 584C1831 585 1829 584 1831 585C1832 586 1832 586 1833 587L1846 595C1849 598 1851 601 1854 602C1859 599 1858 587 1872 594C1889 603 1883 595 1913 585C1933 578 1920 580 1936 579C1950 579 1977 563 1987 555C1990 553 1992 551 1996 549C1999 547 2013 540 2014 537C2014 535 2014 535 2011 533L1997 525C1990 523 1980 527 1969 523C1962 521 1964 520 1958 522C1953 523 1949 522 1944 524C1927 529 1917 512 1927 502C1928 501 1938 491 1937 486C1937 475 1940 461 1938 446C1936 432 1933 418 1935 408C1937 397 1943 390 1945 386C1948 378 1949 374 1946 365C1943 358 1935 345 1930 338C1928 336 1927 334 1925 332C1920 325 1910 300 1905 290C1896 269 1893 267 1890 247C1879 245 1870 244 1859 241C1856 240 1852 237 1848 235L1840 229C1834 228 1838 228 1836 230C1834 234 1834 230 1836 235C1839 241 1843 242 1844 250C1851 286 1860 283 1872 315L1892 356C1897 365 1895 372 1895 380C1894 386 1894 389 1893 395C1891 401 1894 405 1889 407Z"
            fill="#91D8F7" />
        <path fill-rule="evenodd" clip-rule="evenodd" class="state-map-path" id="jigawa_state_oCxGyH9Cv"
            d="M2184 607L2183 606C2182 606 2182 606 2182 605C2181 605 2181 605 2180 604C2180 603 2179 603 2179 602C2178 601 2177 601 2177 600C2176 600 2175 599 2175 598C2175 598 2175 598 2174 597C2174 597 2174 597 2174 596C2173 595 2171 594 2171 592C2171 592 2170 591 2170 590C2169 590 2169 590 2169 589C2168 589 2168 588 2168 588L2167 587C2167 586 2166 586 2166 585C2165 585 2165 584 2165 584C2163 583 2163 582 2162 580C2161 580 2160 579 2159 577C2158 577 2158 576 2158 574C2155 572 2154 569 2149 566C2143 563 2139 559 2132 557C2127 555 2119 553 2112 553C2107 553 2105 551 2102 552C2099 552 2094 553 2091 554C2074 559 2069 569 2063 575C2058 580 2054 579 2050 587C2048 590 2049 592 2046 595C2044 598 2042 599 2040 602C2039 609 2041 609 2042 613C2027 630 2000 631 1980 635C1976 635 1972 636 1967 635C1962 635 1960 633 1957 634C1959 636 1961 640 1961 642C1961 644 1959 650 1957 652C1950 662 1933 671 1938 686L1941 697C1943 702 1945 714 1943 720L1940 730C1938 737 1939 749 1939 757C1939 767 1939 775 1940 785C1940 796 1937 800 1943 810C1956 812 1974 809 1983 816C1997 825 1997 822 2010 834V835C2015 839 2028 832 2034 830L2076 818C2108 809 2132 794 2156 786C2161 785 2162 786 2167 783C2177 776 2177 775 2175 752C2175 743 2171 739 2170 733C2170 727 2180 703 2182 696C2186 682 2190 670 2193 656L2203 630C2205 627 2206 624 2207 621C2202 617 2200 613 2194 611C2193 612 2191 612 2190 611C2190 610 2189 610 2188 610C2188 609 2187 609 2187 609C2186 609 2186 608 2185 608C2185 607 2184 607 2184 607Z"
            fill="#F6AFCE" />
        <path fill-rule="evenodd" clip-rule="evenodd" class="state-map-path" id="jigawa_state_G8E5dQbzG"
            d="M2035 529L2034 528C2035 528 2036 528 2036 529C2037 529 2038 529 2039 529C2040 529 2040 530 2041 530H2047C2048 530 2048 530 2049 530C2050 530 2050 531 2051 531H2055C2055 531 2056 531 2056 532C2057 532 2058 532 2058 532H2078C2078 532 2079 532 2080 532H2079C2080 531 2081 531 2082 531C2082 531 2082 531 2083 531C2083 530 2084 530 2084 530C2084 529 2086 528 2087 528C2087 528 2088 528 2088 527C2089 527 2090 526 2090 526C2091 526 2091 526 2091 526C2092 521 2093 516 2097 512C2099 511 2104 506 2107 504C2108 487 2086 473 2074 477L2063 482C2062 485 2063 488 2063 491C2062 498 2062 492 2061 497C2060 499 2061 510 2062 517C2058 518 2056 522 2051 525C2043 531 2042 518 2031 528C2032 528 2034 528 2035 529Z"
            fill="#D2E28B" />
        <path fill-rule="evenodd" clip-rule="evenodd" class="state-map-path" id="jigawa_state_IuuBI901N"
            d="M1863 597C1861 600 1860 602 1860 606C1874 613 1880 624 1898 624C1913 624 1937 613 1947 624C1955 631 1959 629 1969 631C1976 632 2009 625 2017 623C2026 620 2028 619 2037 613C2036 601 2029 608 2041 594C2046 588 2043 585 2052 577C2056 574 2057 575 2060 571C2064 566 2069 561 2075 557C2077 556 2081 553 2084 552C2089 550 2101 546 2106 547C2112 549 2110 549 2118 549C2125 549 2134 552 2140 556C2149 562 2152 562 2157 567C2158 569 2159 570 2160 571C2162 571 2163 572 2163 573C2162 572 2164 574 2165 575V576C2166 577 2166 577 2167 578L2168 579C2169 580 2169 580 2169 581C2170 581 2171 582 2171 582C2171 584 2173 585 2173 586C2174 586 2174 587 2174 587C2175 587 2175 588 2175 588C2175 588 2176 589 2176 590C2177 591 2177 591 2177 592C2177 592 2178 592 2178 593C2179 593 2179 594 2180 595C2180 596 2181 596 2182 597C2182 598 2183 598 2183 599H2184C2184 600 2185 600 2185 600C2186 601 2187 601 2187 602C2188 602 2188 603 2189 603L2190 604C2190 604 2191 605 2192 605C2199 607 2201 613 2209 616C2213 611 2220 586 2223 578C2225 574 2225 567 2226 562C2229 555 2232 542 2233 534C2231 533 2233 534 2230 533C2228 532 2228 533 2227 532C2225 531 2225 531 2223 529C2219 527 2213 527 2208 527C2194 527 2191 530 2179 530C2164 531 2119 532 2097 529C2097 530 2096 530 2095 531C2094 532 2093 532 2092 532C2091 533 2091 533 2090 533C2090 533 2089 534 2088 534L2087 535C2086 535 2085 536 2085 536C2084 537 2083 537 2082 537C2081 537 2081 537 2081 537C2080 538 2080 538 2079 538H2058C2057 538 2057 537 2056 537H2055H2054H2051C2050 537 2049 536 2049 536C2048 536 2048 536 2047 536H2040C2039 536 2038 535 2038 535C2039 535 2037 535 2036 535C2035 534 2035 534 2034 534C2033 534 2032 534 2031 534H2030C2029 534 2029 534 2028 535C2027 535 2026 535 2025 535L2024 536C2021 540 1992 556 1983 564C1975 569 1966 574 1957 578C1944 584 1946 582 1931 583C1927 583 1913 590 1909 591L1887 601C1884 603 1888 601 1886 602C1882 603 1879 603 1875 601C1870 599 1871 597 1863 597Z"
            fill="#D2E28B" />
        <path fill-rule="evenodd" clip-rule="evenodd" class="state-map-path" id="jigawa_state_IuZSbZVYR"
            d="M1883 409C1883 410 1876 412 1875 412C1874 413 1873 412 1873 413C1836 425 1836 418 1790 392C1781 390 1779 390 1774 393C1768 395 1763 399 1759 402L1747 411C1740 414 1734 410 1727 409C1705 407 1714 410 1695 402L1691 400C1687 408 1679 415 1672 419C1659 425 1653 423 1638 424C1637 435 1643 427 1637 440C1636 443 1637 441 1636 443C1636 448 1642 451 1640 481C1640 488 1638 489 1638 495C1637 509 1637 502 1636 510C1635 518 1631 531 1628 536C1633 541 1633 543 1640 546C1665 556 1669 547 1684 554C1700 561 1691 556 1705 550C1709 549 1710 549 1715 549C1720 549 1719 548 1723 547C1728 546 1738 547 1744 547C1751 546 1754 541 1760 548C1763 545 1764 544 1767 542C1775 535 1774 543 1781 530C1785 520 1797 513 1800 509C1803 503 1797 505 1810 492C1826 476 1820 481 1841 471L1868 457C1871 454 1866 449 1870 449C1872 444 1883 409 1883 409Z"
            fill="#D2E28B" />
        <path fill-rule="evenodd" clip-rule="evenodd" class="state-map-path" id="jigawa_state_XfbidOeOL"
            d="M1655 339C1667 362 1671 381 1691 395C1698 399 1711 405 1719 404C1726 404 1733 406 1741 408C1751 409 1766 383 1785 387C1810 392 1840 422 1860 409C1864 408 1881 401 1886 401C1888 388 1894 375 1886 356C1877 338 1875 339 1868 317C1859 294 1842 274 1841 256C1840 250 1837 241 1832 236C1819 237 1835 242 1804 241L1775 239C1749 236 1706 240 1672 230C1669 229 1671 229 1666 229C1664 228 1660 229 1657 229C1647 228 1610 234 1600 236C1601 252 1601 262 1585 276C1577 282 1579 277 1575 293C1573 298 1572 294 1573 301C1573 309 1580 322 1583 329C1586 337 1585 336 1585 345L1589 342C1604 329 1620 320 1640 329L1653 335L1655 339Z"
            fill="#F6AFCE" />
        <path fill-rule="evenodd" clip-rule="evenodd" class="state-map-path" id="jigawa_state_eYtswHEI7"
            d="M1895 248C1895 254 1897 260 1899 265C1901 270 1903 274 1905 279C1912 294 1917 306 1924 321L1932 335C1948 355 1946 367 1962 376C1965 377 1967 379 1969 380C1972 381 2005 381 2009 381L2024 376C2036 370 2028 373 2040 371C2044 370 2042 369 2047 368C2062 366 2061 363 2069 359C2087 348 2076 357 2093 341C2095 339 2103 334 2105 333C2110 331 2114 333 2119 336C2133 345 2124 348 2148 341C2156 339 2155 339 2161 334C2165 330 2168 328 2171 323C2183 303 2182 310 2197 308C2201 307 2221 298 2226 295C2238 288 2238 284 2254 282C2260 282 2272 277 2278 275C2287 272 2281 265 2281 265C2280 261 2278 247 2276 245C2274 244 2265 246 2262 248C2256 250 2252 256 2247 252L2232 226L2228 199C2227 194 2227 195 2226 191C2222 172 2225 179 2215 159C2202 132 2207 131 2191 122C2175 113 2181 113 2145 124C2122 131 2108 136 2085 147C2077 151 2062 154 2052 156C2038 158 2008 174 1994 181C1988 184 1985 184 1983 189C1980 195 1979 200 1977 205C1970 219 1961 228 1950 237C1941 244 1928 249 1916 249C1909 248 1902 248 1895 248Z"
            fill="#9DD3AF" />
        <path fill-rule="evenodd" clip-rule="evenodd" class="state-map-path" id="jigawa_state_Q9kt34IIO"
            d="M1568 386C1571 389 1572 394 1577 400C1587 410 1582 413 1599 428C1612 442 1618 434 1622 434C1624 434 1630 438 1634 439L1635 422C1647 414 1639 425 1666 416C1674 414 1686 406 1687 398C1663 373 1659 366 1653 341C1650 336 1638 332 1633 330C1611 322 1588 350 1582 353C1578 355 1580 353 1577 356C1573 359 1577 358 1572 359C1572 367 1574 378 1568 381V386Z"
            fill="#9DD3AF" />
        <path fill-rule="evenodd" clip-rule="evenodd" class="state-map-path" id="jigawa_state_K7fdIMOcr"
            d="M1388 339L1371 385C1371 390 1364 388 1361 403C1359 414 1364 414 1366 422C1374 446 1372 432 1384 443C1387 445 1390 447 1393 448C1425 461 1435 445 1463 455C1474 459 1477 458 1488 470C1492 474 1491 474 1493 479C1495 487 1502 482 1514 497L1524 507C1527 510 1524 509 1530 509C1547 510 1548 506 1566 513C1584 519 1589 511 1608 524C1611 526 1623 532 1626 532C1628 523 1630 515 1632 508C1634 498 1634 491 1635 482C1637 473 1638 464 1635 456C1634 453 1633 447 1632 445C1627 436 1614 442 1609 440C1602 438 1589 425 1585 419C1582 414 1581 412 1574 401C1572 399 1567 393 1565 388H1562C1562 387 1563 381 1568 377C1569 375 1568 361 1570 356C1574 353 1579 348 1580 343C1583 336 1580 334 1577 327C1573 317 1566 305 1570 293C1575 279 1571 280 1582 273C1585 271 1585 270 1587 268C1596 256 1598 251 1594 236C1579 235 1586 238 1567 234C1562 232 1560 232 1555 231C1549 230 1549 228 1543 227C1524 224 1505 226 1499 225C1495 225 1491 222 1488 221L1444 219C1438 219 1435 220 1429 219L1371 217C1368 221 1366 252 1374 265C1381 276 1378 282 1384 293C1385 295 1386 296 1386 299C1390 316 1395 320 1388 339Z"
            fill="#91D8F7" />
        <path fill-rule="evenodd" clip-rule="evenodd" class="state-map-path" id="jigawa_state_b8ZRqWF27"
            d="M1542 1179C1541 1181 1541 1182 1540 1184C1538 1187 1540 1183 1538 1186L1536 1188C1536 1188 1536 1188 1535 1188C1541 1190 1537 1198 1536 1201C1534 1205 1534 1209 1533 1213C1531 1223 1533 1217 1534 1225C1534 1228 1534 1230 1534 1233C1535 1237 1534 1234 1534 1239C1536 1239 1539 1239 1541 1239C1542 1239 1544 1239 1545 1239C1551 1240 1545 1239 1548 1240C1554 1242 1556 1240 1561 1241C1567 1242 1563 1242 1567 1243C1569 1243 1572 1243 1574 1243C1584 1244 1576 1242 1580 1245C1583 1247 1591 1247 1593 1248H1595C1599 1249 1604 1249 1611 1251C1612 1251 1612 1251 1612 1251L1619 1254C1624 1257 1630 1259 1635 1261L1672 1272C1687 1278 1689 1276 1702 1272C1703 1271 1703 1271 1703 1271L1718 1265C1723 1261 1720 1261 1722 1261L1741 1264C1745 1265 1753 1267 1756 1272L1757 1275C1757 1275 1758 1275 1758 1276L1768 1293C1771 1298 1772 1304 1774 1309C1781 1309 1791 1308 1798 1309C1801 1309 1805 1311 1808 1311C1813 1311 1812 1309 1819 1309L1820 1302C1821 1298 1821 1296 1824 1294C1823 1291 1822 1291 1821 1287C1818 1274 1820 1269 1817 1258C1816 1253 1815 1253 1815 1249C1814 1242 1816 1247 1817 1241L1819 1227C1820 1221 1818 1214 1820 1209C1820 1207 1820 1209 1821 1205C1821 1204 1821 1201 1821 1200C1820 1195 1817 1188 1820 1180C1823 1172 1826 1173 1826 1170C1827 1165 1825 1168 1822 1163C1819 1155 1824 1157 1823 1147C1822 1146 1805 1133 1823 1127C1824 1117 1822 1117 1821 1110C1817 1089 1824 1090 1826 1078C1827 1073 1830 1056 1829 1051C1829 1048 1828 1047 1829 1043C1831 1034 1830 1033 1831 1024C1831 1020 1834 1017 1835 1009C1838 1001 1841 1002 1843 998C1838 997 1825 997 1820 997C1813 998 1817 1000 1803 1009C1787 1019 1778 1015 1765 1023L1760 1025C1747 1033 1752 1037 1731 1047C1730 1047 1729 1047 1728 1048L1715 1054C1711 1057 1707 1061 1703 1064C1698 1068 1694 1071 1690 1075C1677 1087 1681 1083 1671 1091C1668 1093 1667 1093 1664 1095C1655 1103 1642 1123 1622 1123C1614 1123 1611 1120 1603 1120C1600 1123 1594 1129 1589 1133L1542 1179Z"
            fill="#91D8F7" />
        <path fill-rule="evenodd" clip-rule="evenodd" class="state-map-path" id="jigawa_state_Or4P8OgYk"
            d="M1389 582H1390C1408 582 1421 594 1455 586C1463 584 1484 583 1492 587C1510 597 1512 601 1533 609C1544 612 1557 613 1568 612C1580 610 1571 610 1591 610C1596 609 1627 603 1633 601C1653 594 1660 593 1680 582C1684 580 1703 563 1705 555C1700 556 1698 559 1694 562C1685 560 1681 555 1670 555C1659 555 1652 555 1643 551C1624 545 1629 537 1615 532C1608 529 1596 521 1596 521C1593 519 1586 520 1581 520C1565 520 1558 512 1549 513C1514 518 1519 502 1502 492C1483 479 1494 488 1487 475C1486 473 1483 469 1480 467C1477 464 1463 460 1458 458C1450 455 1437 457 1427 457C1416 458 1396 457 1388 450C1384 446 1385 446 1379 443C1361 436 1365 429 1362 422C1360 418 1359 419 1357 411C1356 409 1356 407 1355 405C1349 405 1340 411 1336 417C1333 421 1328 436 1326 441C1321 454 1318 457 1304 467C1294 476 1276 471 1280 491C1282 502 1281 511 1275 518C1269 525 1241 523 1229 523C1223 522 1219 523 1221 531C1222 535 1229 548 1228 557C1226 569 1217 568 1227 582C1234 591 1237 592 1250 592C1262 592 1268 595 1278 597C1282 597 1289 597 1293 598C1305 598 1310 604 1329 597C1343 591 1338 597 1353 588C1360 585 1382 582 1389 582Z"
            fill="#9DD3AF" />
        <path fill-rule="evenodd" clip-rule="evenodd" class="state-map-path" id="jigawa_state_hqyKsERmh"
            d="M1570 774L1604 790C1613 795 1615 805 1621 812C1635 830 1623 822 1630 835C1636 845 1632 849 1641 857C1646 862 1649 866 1658 864C1676 860 1696 850 1712 841C1722 835 1718 833 1732 830C1736 829 1734 829 1737 828C1741 828 1746 827 1749 826C1756 824 1763 825 1771 823C1778 821 1791 809 1809 828C1812 831 1811 834 1817 845C1835 847 1846 838 1862 833C1866 832 1866 832 1869 831L1896 823H1897L1899 822L1938 811C1936 804 1933 808 1934 796V736C1914 736 1876 757 1876 734C1876 725 1878 731 1878 724L1857 717C1851 715 1841 716 1834 716C1824 716 1822 724 1790 708C1788 706 1784 703 1782 702C1782 702 1762 703 1757 703C1755 701 1754 700 1753 698C1750 694 1751 695 1749 691C1745 691 1740 691 1736 691C1729 691 1729 689 1724 689C1711 686 1717 684 1709 676C1704 676 1703 679 1698 677C1694 676 1688 675 1685 674C1667 671 1666 681 1654 689C1648 693 1648 687 1626 688C1619 689 1621 690 1612 691C1604 691 1596 696 1593 703C1592 706 1592 705 1590 707C1587 710 1588 707 1587 713C1587 720 1587 719 1584 725C1579 736 1577 733 1578 750C1578 764 1571 767 1570 774Z"
            fill="#91D8F7" />
        <path fill-rule="evenodd" clip-rule="evenodd" class="state-map-path" id="jigawa_state_mnBggzpKN"
            d="M1681 1073L1684 1076L1712 1052C1722 1043 1737 1041 1746 1032C1751 1027 1751 1026 1758 1022L1759 1021C1776 1011 1788 1013 1799 1007C1803 1004 1812 1000 1812 994C1804 989 1804 993 1802 981C1801 969 1806 946 1812 935C1814 932 1815 931 1817 928C1821 921 1839 891 1849 891C1855 890 1865 891 1872 891C1881 891 1884 889 1893 888L1914 886L1943 869C1959 860 1974 852 1990 846C1995 844 2003 842 2007 840C2006 832 1978 817 1972 817C1969 816 1965 817 1961 816C1952 816 1950 813 1940 816C1921 820 1903 826 1886 831C1875 834 1858 838 1849 842C1841 846 1820 855 1812 846C1810 844 1805 830 1805 830C1802 825 1791 819 1780 824C1763 831 1750 831 1730 834C1724 835 1721 840 1716 843C1698 856 1683 859 1668 866C1662 869 1663 875 1661 883C1659 889 1657 905 1653 910C1651 913 1649 914 1649 917C1645 933 1648 928 1642 946C1640 950 1641 952 1640 956C1637 969 1637 985 1642 997C1647 1008 1641 1005 1643 1017C1644 1028 1649 1021 1657 1027C1662 1030 1665 1034 1669 1038C1680 1050 1682 1052 1681 1073Z"
            fill="#9DD3AF" />
        <path fill-rule="evenodd" clip-rule="evenodd" class="state-map-path" id="jigawa_state_Zh53E4uvy"
            d="M1518 825C1520 832 1520 842 1521 850C1522 857 1518 860 1514 868L1513 870C1508 877 1509 882 1508 893C1507 904 1481 935 1473 945C1468 951 1469 957 1466 966C1464 974 1466 983 1468 991C1486 993 1498 991 1515 989C1522 989 1523 991 1527 994C1540 1006 1536 1010 1540 1023C1542 1028 1552 1045 1555 1051C1558 1056 1575 1071 1581 1076C1585 1080 1585 1081 1592 1082C1604 1084 1608 1085 1615 1092C1617 1095 1621 1099 1622 1102C1618 1104 1618 1105 1615 1108C1611 1112 1610 1111 1609 1117C1647 1121 1642 1106 1664 1090C1669 1087 1676 1083 1680 1078C1678 1070 1678 1083 1677 1064C1677 1055 1674 1051 1670 1045C1667 1041 1663 1036 1659 1033C1651 1027 1636 1030 1637 1014C1637 1006 1642 1008 1638 999C1636 992 1632 975 1633 969C1633 966 1634 965 1635 961C1635 958 1634 955 1635 952L1641 932C1642 930 1642 927 1643 924C1645 918 1644 917 1648 911C1651 905 1660 873 1660 869C1648 869 1650 870 1642 863C1625 846 1634 850 1625 834C1623 829 1623 832 1623 825C1622 817 1618 817 1610 802C1606 794 1605 797 1597 792L1566 776C1564 780 1558 786 1555 788C1544 798 1540 804 1531 813L1518 825Z"
            fill="#F6AFCE" />
        <path fill-rule="evenodd" clip-rule="evenodd" class="state-map-path" id="jigawa_state_Lg7GIHZXl"
            d="M1366 383L1381 342C1381 333 1382 333 1385 326C1386 321 1384 303 1381 297C1374 282 1378 291 1375 280C1374 275 1373 270 1370 266C1364 258 1363 245 1364 235C1365 231 1365 230 1364 226C1364 221 1365 220 1364 218C1359 221 1363 220 1361 226C1359 235 1335 232 1331 250C1330 257 1327 258 1324 264C1317 283 1321 272 1305 287L1280 306L1250 318C1231 325 1216 329 1196 329C1185 329 1179 341 1171 346C1146 362 1175 363 1167 376C1161 385 1137 381 1122 397C1121 397 1119 399 1118 400C1115 403 1116 401 1115 404C1125 413 1150 410 1156 417C1165 428 1153 476 1166 489C1169 492 1186 501 1192 505C1205 513 1206 511 1210 513C1212 515 1214 518 1217 520C1236 518 1248 520 1258 518C1263 516 1267 517 1272 516C1272 515 1273 513 1274 512C1274 511 1276 508 1276 508C1280 498 1263 477 1295 467C1302 465 1304 463 1311 457C1318 450 1318 450 1321 441C1334 408 1333 410 1355 400C1361 397 1356 395 1360 387C1363 382 1363 383 1366 383Z"
            fill="#F6AFCE" />
        <path fill-rule="evenodd" clip-rule="evenodd" class="state-map-path" id="jigawa_state_Q4hBD84L7"
            d="M1320 603C1333 609 1335 622 1338 630C1343 647 1341 674 1341 694C1341 704 1343 707 1338 713C1318 734 1329 731 1322 742C1324 743 1324 744 1324 744C1325 744 1325 744 1325 744C1325 744 1326 744 1326 745C1333 747 1322 743 1328 745C1331 746 1336 748 1339 750L1342 754V755C1342 755 1342 755 1343 755C1349 753 1348 747 1363 747C1395 745 1396 738 1401 759C1403 765 1402 780 1402 787C1426 793 1415 789 1430 788C1439 788 1437 787 1443 784C1473 767 1468 760 1480 753C1482 752 1489 748 1492 748C1498 755 1507 790 1511 801C1513 807 1515 816 1517 820C1521 819 1549 789 1553 785C1584 757 1567 748 1574 736C1579 725 1589 716 1575 705L1560 696L1558 695C1551 691 1544 686 1535 682C1532 679 1527 676 1523 676C1519 675 1509 676 1504 676L1477 667C1467 663 1458 656 1453 647L1436 618C1427 604 1431 594 1425 593C1418 591 1417 594 1409 590C1396 584 1376 588 1361 590C1355 591 1355 593 1349 596L1320 603Z"
            fill="#D2E28B" />
        <path fill-rule="evenodd" clip-rule="evenodd" class="state-map-path" id="jigawa_state_Mk05KrlAl"
            d="M1433 593C1430 604 1447 631 1453 639C1459 649 1463 656 1478 664L1504 672C1520 673 1516 664 1543 681C1550 686 1576 700 1580 704C1582 707 1581 707 1585 708C1588 705 1592 690 1610 686C1616 685 1638 682 1643 684C1646 685 1649 687 1654 684C1655 684 1664 675 1666 673C1677 663 1696 676 1707 671C1726 664 1722 659 1725 654C1732 644 1746 608 1753 598C1761 588 1765 587 1765 573C1765 559 1768 561 1760 554C1752 545 1752 553 1729 552C1704 552 1716 555 1694 576C1684 585 1678 589 1664 595C1650 601 1610 612 1597 613C1581 614 1567 617 1551 616C1526 615 1513 604 1498 595C1490 590 1490 590 1479 590C1471 590 1463 590 1455 590C1446 591 1443 593 1433 593Z"
            fill="#F6AFCE" />
        <path fill-rule="evenodd" clip-rule="evenodd" class="state-map-path" id="jigawa_state_JOqbva68F"
            d="M1714 674C1719 685 1720 685 1739 686C1751 687 1751 681 1757 698C1765 698 1770 698 1778 697C1786 697 1791 704 1805 709C1812 712 1819 714 1827 712C1845 708 1849 710 1864 715C1891 724 1879 722 1882 740C1897 742 1914 734 1927 731C1936 729 1935 732 1938 722C1942 710 1936 698 1934 690C1929 671 1934 672 1950 655C1952 653 1956 646 1956 643C1957 639 1951 633 1950 631C1939 618 1918 627 1907 628C1892 629 1886 629 1875 622C1871 619 1868 617 1865 614C1858 608 1858 612 1843 598C1823 582 1809 586 1802 583C1794 579 1797 580 1786 581C1779 581 1775 578 1771 581L1760 595C1751 605 1736 646 1731 653C1726 660 1733 663 1714 674Z"
            fill="#9DD3AF" />
        <path fill-rule="evenodd" clip-rule="evenodd" class="state-map-path" id="jigawa_state_HeYXCwyQX"
            d="M776 237C773 259 781 255 772 285C771 287 768 304 768 307C768 314 767 327 769 333C797 335 795 325 808 339C817 348 812 353 824 344C826 343 826 343 828 342C833 338 835 337 844 338C849 339 849 340 852 343C856 346 856 345 860 348C863 350 865 352 867 353C869 355 869 355 871 356C882 364 870 372 894 368C901 367 904 362 914 357C921 355 920 358 926 358C932 356 932 352 935 348C940 343 941 342 941 335C941 317 944 327 943 318C943 309 942 309 943 299C944 293 942 288 942 282C942 268 946 276 942 264C938 253 947 238 945 230C938 227 931 231 915 226C912 225 913 225 910 224C884 216 869 225 850 226C844 226 845 227 840 228C829 230 790 229 776 237Z"
            fill="#F6AFCE" />
        <path fill-rule="evenodd" clip-rule="evenodd" class="state-map-path" id="jigawa_state_Nws8BbVU5"
            d="M950 232L945 255C944 263 947 261 947 268V315C947 326 945 332 945 342C949 342 954 338 958 337C973 331 973 349 987 327C991 322 995 319 999 316C1005 312 1012 296 1029 306C1037 310 1035 310 1043 314C1056 320 1045 331 1042 336C1040 341 1041 341 1040 346C1039 350 1037 348 1037 355C1037 360 1038 360 1040 363C1078 367 1067 357 1089 351C1093 350 1119 339 1133 335C1147 331 1150 330 1154 317C1149 318 1148 322 1140 320C1121 317 1085 298 1082 280C1081 275 1082 277 1080 273C1071 254 1073 234 1058 225C1047 218 1035 226 1024 226H995C990 226 991 227 987 228C976 231 960 229 950 232Z"
            fill="#9DD3AF" />
        <path fill-rule="evenodd" clip-rule="evenodd" class="state-map-path" id="jigawa_state_kK38Rq0BT"
            d="M1044 320L1026 309C1016 306 1012 307 1006 314C1000 320 995 323 991 329C988 333 979 344 974 344C966 340 966 338 955 343C936 352 945 342 934 357C921 373 931 360 925 374C924 376 917 386 928 390C937 393 958 390 966 388C969 386 971 385 975 388C981 392 989 399 993 404L996 409C1002 409 1010 403 1016 401C1027 396 1024 397 1038 396C1048 395 1045 393 1064 393C1076 393 1077 397 1087 399C1091 399 1108 403 1110 403C1113 402 1120 392 1124 389C1140 377 1155 382 1164 373C1161 358 1142 365 1171 341C1173 339 1186 329 1187 326C1184 323 1181 323 1178 318L1172 306C1169 306 1164 309 1161 311C1155 315 1160 331 1139 338L1114 346C1109 348 1082 357 1078 360C1073 364 1074 365 1068 367C1050 371 1037 372 1033 357C1032 353 1033 349 1035 344C1037 338 1036 337 1040 332C1042 328 1045 326 1044 320Z"
            fill="#D2E28B" />
        <path fill-rule="evenodd" clip-rule="evenodd" class="state-map-path" id="jigawa_state_W0KeGu54O"
            d="M770 339C769 346 772 349 778 352C780 352 782 353 784 354C800 361 806 379 824 380C834 380 835 376 841 381C861 399 859 404 871 420C884 438 907 437 917 455C919 459 923 465 924 469C927 482 919 483 930 494C933 497 932 497 936 499C942 493 943 486 945 482L946 479C952 470 953 464 954 455C958 430 968 424 992 413C991 407 990 406 986 402C984 400 980 396 977 394C968 388 966 395 950 395C935 396 911 396 919 375C922 369 924 371 923 362C912 360 909 365 902 369C893 375 888 374 876 374C871 365 873 363 869 360C864 356 849 344 844 343C834 339 830 344 821 351C819 353 818 355 814 353C810 350 810 345 805 341C794 331 797 339 770 339Z"
            fill="#91D8F7" />
       
    </svg>