<svg viewBox="0 0 1706 1567" fill="none" xmlns="http://www.w3.org/2000/svg">
        <path
            d="M32.8001 524.4C26.9475 516.596 17.2773 507.768 8.26894 504.389C9.51785 500.894 10.9098 498.359 12.1942 496.021C12.3403 495.755 12.4851 495.491 12.628 495.229C14.1384 492.46 15.4608 489.832 15.9884 486.153C16.7655 481.478 16.1748 476.902 15.3587 472.46C15.1613 471.386 14.9518 470.323 14.7439 469.269C14.0815 465.91 13.4352 462.633 13.2486 459.319C13.006 455.013 13.5524 450.739 15.8815 446.394C18.2174 442.037 22.3915 437.525 29.5482 432.836L30.2496 432.377L29.9193 431.606C29.1576 429.829 28.4592 428.432 27.8501 427.214L27.8477 427.209C27.2343 425.982 26.7249 424.962 26.3071 423.888C25.5323 421.895 25.0522 419.663 25.0041 415.677C27.2036 414.804 29.0237 414.122 30.8513 413.436L30.8566 413.434C32.8549 412.685 34.8627 411.932 37.3715 410.928L37.4459 410.899L37.5146 410.858C40.0519 409.335 41.085 408.562 42.2391 407.664C42.3187 407.602 42.3988 407.54 42.4801 407.477C43.5354 406.654 44.7843 405.68 47.5158 403.858C53.9363 400.405 57.7532 399.25 61.5001 399.25C64.4802 399.25 67.4385 399.968 71.6912 401.001C72.9316 401.302 74.282 401.63 75.7753 401.974L76.4836 402.138L76.8576 401.515C77.4108 400.593 77.9228 399.745 78.3997 398.956C80.4925 395.491 81.9087 393.147 83.1517 390.558C84.6858 387.362 85.9537 383.801 87.9559 377.294C91.453 366.054 94.122 358.803 96.4304 354.063C98.7402 349.32 100.631 347.215 102.507 346.112C104.042 345.209 105.611 344.926 107.687 344.553C108.226 344.456 108.798 344.353 109.413 344.231C112.341 343.652 115.897 342.68 120.522 339.853L120.576 339.82L120.625 339.781C123.294 337.645 125.626 333.982 127.745 330.243C128.456 328.989 129.143 327.726 129.815 326.491C131.187 323.968 132.498 321.558 133.821 319.571C137.749 314.174 141.515 310.915 145.152 308.924C148.79 306.933 152.361 306.176 155.96 305.871C157.765 305.718 159.57 305.68 161.403 305.654C161.643 305.651 161.884 305.648 162.126 305.645C163.716 305.624 165.329 305.604 166.946 305.514C170.649 305.309 174.44 304.742 178.312 302.957C178.408 302.932 178.483 302.9 178.527 302.881C178.635 302.833 178.738 302.775 178.824 302.722C178.999 302.615 179.203 302.472 179.414 302.321C179.507 302.254 179.605 302.184 179.708 302.109C180.092 301.833 180.546 301.504 181.086 301.145C182.449 300.236 184.299 299.165 186.551 298.454C190.991 297.051 197.136 296.997 204.358 302.767C207.116 305.183 208.724 307.292 210.215 309.247C210.843 310.071 211.45 310.867 212.113 311.648C214.37 314.303 217.045 316.412 222.737 317.965L222.928 318.017L223.124 317.992C227.148 317.489 229.63 316.914 231.272 316.237C232.981 315.532 233.774 314.718 234.425 313.85C234.544 313.692 234.653 313.54 234.759 313.393C235.204 312.773 235.597 312.226 236.406 311.606C237.415 310.832 239.102 309.938 242.294 308.956L242.356 308.937L242.414 308.91C245.142 307.67 246.867 307.086 248.089 306.858C249.26 306.64 249.978 306.748 250.725 306.962C250.936 307.022 251.172 307.099 251.434 307.186C252.091 307.402 252.914 307.673 253.911 307.858C255.363 308.128 257.27 308.252 260.091 307.996L260.101 307.995L260.111 307.994C264.692 307.485 267.507 306.718 270.303 305.828C270.805 305.668 271.304 305.506 271.811 305.34C274.11 304.59 276.576 303.785 280.217 302.976L280.225 302.974C286.651 301.492 289.767 301.514 292.102 301.864C292.88 301.981 293.547 302.128 294.255 302.283C294.666 302.374 295.09 302.467 295.557 302.559C296.792 302.803 298.17 303 300 303C303.364 303 305.695 302.48 307.736 301.569C309.349 300.849 310.771 299.883 312.318 298.832C312.681 298.586 313.05 298.335 313.43 298.082C317.451 295.401 323.334 291.951 337.21 288.978L337.226 288.974L337.243 288.97L377.243 278.97L378 278.781V278V262.565C378.368 262.343 378.711 262.134 379.034 261.937C380.694 260.926 381.839 260.228 383.144 259.669C384.776 258.97 386.676 258.485 390.142 257.99L391 257.867V257C391 244.547 392.251 239.504 394.378 235.604C395.222 234.056 396.204 232.684 397.362 231.067C397.697 230.599 398.046 230.11 398.412 229.591C400.024 227.299 401.866 224.505 403.895 220.447C406.415 215.406 407.768 211.694 408.402 208.607C409.04 205.499 408.939 203.069 408.617 200.62C408.506 199.777 408.369 198.933 408.227 198.056C407.559 193.929 406.772 189.071 407.991 180.135L407.993 180.121L407.994 180.107C409.466 166.369 414.587 158.352 422.395 151.764C426.33 148.444 430.96 145.478 436.203 142.326C437.722 141.413 439.293 140.483 440.912 139.526C444.862 137.19 449.096 134.686 453.539 131.842L453.551 131.835C478.6 115.302 486.252 106.199 490.116 99.4997C490.972 98.0163 491.638 96.6585 492.254 95.4016C492.327 95.2519 492.4 95.1037 492.472 94.9568C493.154 93.5685 493.795 92.3044 494.618 91.0478C496.241 88.5691 498.624 86.0403 503.521 82.8542C510.215 79.0384 516.401 79.2712 522.184 81.1987C527.002 82.8048 531.482 85.5615 535.741 88.1824C536.666 88.7516 537.58 89.3143 538.486 89.8575L538.495 89.863L538.504 89.8683C548.997 95.8645 552.795 96.8108 556.946 95.9806C557.928 95.7842 558.897 95.5012 559.973 95.1868C563.15 94.2583 567.265 93.0558 575.427 93.0019C576.382 94.6041 577.428 96.0481 578.47 97.4178C578.835 97.8984 579.197 98.366 579.554 98.8273C580.333 99.8343 581.089 100.811 581.809 101.828C583.873 104.742 585.523 107.823 586.002 112.077C586.467 123.092 579.784 131.052 572.401 138.811C571.763 139.481 571.12 140.15 570.477 140.819C567.429 143.988 564.374 147.166 561.873 150.493C558.831 154.538 556.532 158.896 556.006 163.895L555.897 164.931L556.936 164.998C572.327 165.991 583.454 168.965 593.58 173.657C603.482 178.246 612.451 184.487 623.573 192.225L624.429 192.821L624.434 192.824C632.287 198.223 637.954 205.356 642.693 211.84C643.398 212.805 644.086 213.76 644.758 214.693C646.328 216.874 647.814 218.938 649.248 220.746C651.293 223.327 653.318 225.503 655.47 226.848C663.788 232.047 671.113 231.514 677.931 229.327C680.84 228.394 683.679 227.153 686.444 225.944C686.884 225.751 687.322 225.56 687.758 225.37C690.174 224.322 692.538 223.337 694.907 222.604C693.785 224.514 692.736 226.265 691.754 227.906C688.527 233.293 686.014 237.488 683.958 242.227C681.033 248.967 679.018 256.814 677.014 270.835C675.617 278.171 674.704 285.405 673.816 292.439C673.43 295.496 673.049 298.514 672.635 301.487C671.262 311.342 669.525 320.749 666.068 329.638L666.065 329.645L666.062 329.653C661.852 341.046 656.714 349.343 651.792 356.33C650.317 358.424 648.85 360.414 647.428 362.343C644.135 366.811 641.085 370.949 638.746 375.274C635.353 381.547 633.393 388.3 634.081 397.295C634.762 406.193 638.03 417.237 644.965 432.145C643.998 438.292 643.812 442.787 644.097 446.422C644.387 450.127 645.163 452.9 646.051 455.566C646.255 456.176 646.464 456.781 646.675 457.391C648.284 462.036 650 466.995 650 477V477.029L650.002 477.059L650.94 493.001C634.435 493.044 622.273 494.088 612.55 495.131C610.323 495.37 608.23 495.608 606.246 495.833C599.356 496.616 593.783 497.25 588.5 497.25C575.054 497.25 563.511 493.139 537.547 476.163L537.546 476.162C510.308 458.42 490.706 445.831 476.193 438.026C468.934 434.122 462.908 431.393 457.807 429.814C452.708 428.236 448.465 427.787 444.804 428.519C437.403 430 432.847 436.194 428.373 445.926C426.122 450.821 423.853 456.704 421.25 463.49L420.946 464.283C418.415 470.884 415.556 478.338 412.078 486.613L412.075 486.621L412.072 486.629C410.614 490.272 408.104 494.385 405.08 498.828C403.291 501.456 401.351 504.159 399.362 506.93C397.981 508.855 396.576 510.812 395.181 512.801C391.8 517.623 388.52 522.571 385.958 527.458C383.399 532.338 381.526 537.215 381.006 541.89L380.929 542.583L381.553 542.894L395.128 549.682C395.935 553.134 397.414 556.378 398.853 559.301C399.143 559.891 399.43 560.464 399.71 561.023C400.905 563.412 401.961 565.525 402.544 567.419C403.254 569.726 403.157 571.377 402.006 572.66C400.76 574.049 398.081 575.263 392.872 576.008C386.432 576.75 379.046 576.938 371.351 577C369.157 577.018 366.936 577.026 364.706 577.033C359.133 577.052 353.505 577.072 348.092 577.251C340.511 577.501 333.284 578.066 327.117 579.398C320.98 580.723 315.764 582.834 312.312 586.274C309.758 588.575 307.969 590.75 306.478 592.764C305.888 593.561 305.36 594.31 304.855 595.026C304.054 596.164 303.311 597.217 302.475 598.243C299.92 601.379 296.683 603.986 289.153 605.929C280.838 601.026 277.253 598.446 275.552 594.249C274.679 592.097 274.279 589.453 274.108 585.72C273.976 582.815 273.984 579.319 273.994 574.957C273.997 573.711 274 572.394 274 571V570.4L273.471 570.118C270.462 568.513 268.192 567.116 266.308 565.957C265.864 565.683 265.441 565.423 265.035 565.177C262.932 563.9 261.21 562.939 259.342 562.524C257.436 562.1 255.475 562.262 252.894 563.008C250.335 563.748 247.09 565.088 242.594 567.086L242.573 567.095L242.553 567.106C238.134 569.315 233.115 571.132 228.147 572.93C227.566 573.14 226.986 573.35 226.408 573.56C220.924 575.555 215.574 577.587 211.47 580.152L211.466 580.155C201.879 586.209 194.322 593.015 187.056 600.031C185.424 601.606 183.81 603.189 182.191 604.777C176.585 610.275 170.929 615.822 164.364 621.228L164.352 621.238L164.34 621.249C154.554 629.861 145.555 635.997 137.272 641.645C135.021 643.18 132.823 644.678 130.677 646.181C120.642 653.205 111.775 660.288 104.174 671.437L104.168 671.445C99.9829 677.723 94.9216 681.658 90.063 685.435C89.2437 686.072 88.4302 686.704 87.6276 687.342C82.2521 691.618 77.4183 696.141 75.23 704H51.5695C48.791 699.265 46.8874 694.459 44.972 687.761C43.5799 680.994 42.8262 675.791 42.2428 671.763C42.0979 670.763 41.9635 669.836 41.8325 668.975C41.5044 666.818 41.1918 665.042 40.7773 663.606C40.3621 662.167 39.8221 660.985 38.9873 660.074C37.2906 658.223 34.6738 657.812 30.7974 657.75C28.9402 657.72 26.7047 657.774 24.0251 657.839L23.4956 657.852C20.6983 657.919 17.4119 657.993 13.5321 658C11.4814 654.983 10.0726 653.528 9.09251 652.516C8.72005 652.131 8.40948 651.81 8.1491 651.492C7.18591 650.315 6.47633 648.782 4.97028 642.757L4.96464 642.735L4.95796 642.713C1.98473 632.802 1.45688 625.525 2.34656 620.051C3.232 614.603 5.53038 610.884 8.33225 608.082C11.0114 605.403 14.1552 603.553 17.0906 601.825C17.2565 601.728 17.4218 601.63 17.5862 601.533C19.1051 600.638 20.5727 599.754 21.8203 598.8C23.0697 597.845 24.1562 596.778 24.8743 595.486L24.8848 595.467L24.8946 595.447C28.0743 589.088 26.9763 581.766 24.9488 575.684C23.9264 572.617 22.9499 570.773 22.0683 569.519C21.6277 568.892 21.2209 568.426 20.8671 568.044C20.7551 567.923 20.6547 567.816 20.5631 567.719C20.3502 567.493 20.185 567.318 20.031 567.125C19.6837 566.691 19.4288 566.217 19.3742 564.987C19.3163 563.685 19.4897 561.644 19.9901 558.141L19.9937 558.116L19.996 558.091C20.4762 552.809 22.8831 547.72 25.6404 542.331C25.9032 541.817 26.1691 541.301 26.4366 540.781C28.9453 535.911 31.5838 530.789 32.9703 525.243L33.0857 524.781L32.8001 524.4Z"
            fill="#F6AFCE" stroke="white" stroke-width="2" class="state-map-path" id="kaduna_state_F7ArrfOKH" />
        <path
            d="M652.998 493.941L652.202 480.411C662.068 494.391 664.875 500.474 665.769 504.946C666.133 506.764 666.184 508.309 666.243 510.1C666.262 510.677 666.282 511.279 666.314 511.924C666.442 514.545 666.763 517.679 668.033 522.255C669.323 527.408 671.529 531.19 674.363 534.09C677.189 536.982 680.598 538.951 684.223 540.541C686.803 541.672 689.546 542.632 692.282 543.59C693.365 543.969 694.447 544.348 695.518 544.737C699.184 546.068 702.774 547.538 706.073 549.596C706.954 556.217 706.229 561.467 704.904 566.888C704.397 568.96 703.806 571.044 703.182 573.249C702.965 574.013 702.744 574.792 702.521 575.59C701.659 578.678 700.777 582.018 700.019 585.804L700.017 585.817L700.014 585.831C698.51 594.606 698.058 600.38 698.267 604.349C698.477 608.347 699.362 610.584 700.571 612.219C701.14 612.989 701.763 613.6 702.33 614.155L702.38 614.204C702.971 614.784 703.504 615.312 703.988 615.978C704.915 617.255 705.744 619.156 705.995 622.949L705.979 623.039C705.957 623.174 705.923 623.375 705.88 623.637C705.793 624.161 705.667 624.931 705.509 625.915C705.192 627.883 704.746 630.707 704.23 634.132C703.198 640.983 701.883 650.244 700.757 659.884C699.631 669.519 698.689 679.551 698.407 687.935C698.266 692.126 698.288 695.925 698.538 699.068C698.784 702.156 699.258 704.731 700.09 706.416C702.79 712.858 708.73 715.52 714.692 715.123C720.631 714.727 726.701 711.303 729.878 705.479L729.886 705.463L729.894 705.447C730.96 703.317 731.667 700.578 732.204 697.533C732.742 694.478 733.12 691.038 733.495 687.48C733.527 687.169 733.56 686.857 733.593 686.545C734.314 679.669 735.074 672.422 736.949 666.317C740.171 657.402 743.576 652.523 747.265 650.015C750.918 647.532 755.024 647.255 759.978 647.989C762.46 648.357 765.115 648.972 768.002 649.667C768.38 649.759 768.761 649.851 769.147 649.944C771.695 650.561 774.411 651.219 777.289 651.793C783.809 653.094 791.206 653.977 799.652 653.046C800.604 653.89 801.497 654.243 802.362 654.076C802.437 654.061 802.508 654.043 802.577 654.022C802.642 654.672 802.717 655.6 802.825 656.914C802.859 657.327 802.895 657.778 802.936 658.271C800.62 658.855 798.941 658.374 797.687 657.71C796.971 657.331 796.381 656.885 795.853 656.482C795.599 656.289 795.335 656.086 795.093 655.926C794.867 655.778 794.552 655.591 794.196 655.519C793.758 655.432 793.27 655.525 792.888 655.91C792.583 656.217 792.436 656.627 792.347 656.976C792.164 657.696 792.078 658.81 792.032 660.377C791.968 662.531 791.976 665.741 791.988 670.385C791.994 672.587 792 675.112 792 678V680.081L793.625 678.781C794.884 677.773 795.795 677.045 796.538 676.52C797.28 675.995 797.79 675.72 798.239 675.579C799.115 675.302 799.941 675.456 802.283 675.976C806.854 676.992 815.927 679 839 679H840.057L839.998 677.945L838.04 642.684C843.147 640.8 846.334 639.312 848.956 637.439C851.617 635.538 853.651 633.272 856.508 629.944C872.566 627.878 892.987 621.638 912.959 614.568C926.871 609.642 940.618 604.294 952.559 599.648C957.901 597.569 962.882 595.631 967.355 593.935L967.363 593.932L967.371 593.929C974.863 590.932 986.042 586.711 997.073 584.48C1002.59 583.365 1008.03 582.755 1012.93 583.03C1017.83 583.305 1022.12 584.461 1025.41 586.811C1032.21 591.722 1032.82 596.745 1033.49 602.313C1033.66 603.773 1033.85 605.271 1034.14 606.815C1034.86 610.521 1036.28 614.316 1040.06 618.07C1043.65 621.63 1049.32 625.101 1058.4 628.481C1056.44 631.104 1054.71 633.15 1053.11 635.035C1048.73 640.216 1045.37 644.185 1041.08 655.615C1039.89 658.187 1038.86 660.515 1037.92 662.655C1034.05 671.406 1031.58 677.001 1025.29 683.293C1021.81 686.771 1018.65 689.489 1015.57 692.125C1014.7 692.875 1013.83 693.618 1012.97 694.371C1009.08 697.76 1005.28 701.299 1001.24 706.354C984.332 725.242 969.426 735.181 957.203 743.163C956.837 743.402 956.472 743.64 956.11 743.876C944.422 751.502 935.08 757.598 929.122 768.521L929.117 768.53L929.112 768.54C921.923 782.405 924.264 794.495 929.212 805.534C931.374 810.355 934.045 815.005 936.633 819.509C936.994 820.138 937.354 820.764 937.71 821.387C940.491 826.25 943.075 830.945 944.797 835.611C934.142 842.763 924.4 842.757 915.185 842.75C914.914 842.75 914.645 842.75 914.375 842.75C904.735 842.75 895.568 842.981 887.253 852.336L887.234 852.357L887.216 852.379C877.734 864.357 872.931 867.84 866.69 869.017C863.809 869.561 860.604 869.618 856.406 869.692C855.929 869.701 855.438 869.709 854.934 869.719C850.031 869.813 843.934 870.001 835.891 871.006C819.698 872.527 809.997 877.857 803.455 883.757C800.197 886.696 797.746 889.756 795.685 892.492C795.243 893.08 794.821 893.649 794.415 894.196C792.907 896.23 791.62 897.966 790.293 899.293C786.47 903.116 782.665 904.552 778.521 905.527C777.384 905.794 776.202 906.029 774.98 906.272C771.792 906.906 768.328 907.595 764.656 909.061C760.099 910.582 755.806 912.604 751.689 914.6C751.241 914.818 750.795 915.034 750.351 915.25C746.741 917.006 743.266 918.696 739.796 920.008C734.522 920.247 730.282 920.37 726.613 920.476C715.121 920.81 709.24 920.98 694.794 924.021C685.482 925.982 679.882 925.008 674.174 924.015L674.171 924.015C668.39 923.009 662.5 921.986 652.841 924.012C649.208 924.42 647.108 925.161 645.446 925.747C645.008 925.902 644.599 926.046 644.202 926.171C642.406 926.732 640.589 926.995 636.217 926.024C629.499 924.531 625.278 923.289 622.006 922.25C621.25 922.01 620.54 921.779 619.858 921.558C617.6 920.823 615.647 920.188 613.353 919.651C607.36 918.249 599.005 917.5 576.022 917L576.011 917H576C563.633 917 549.749 914.276 537.467 909.81C525.169 905.338 514.61 899.168 508.77 892.362C504.827 887.431 502.167 882.808 500.841 877.866C499.516 872.928 499.504 867.598 500.974 861.225L500.98 861.199L500.985 861.174C502.46 852.814 504.91 847.669 507.38 843.101C507.726 842.46 508.075 841.827 508.422 841.197C510.451 837.517 512.444 833.902 513.772 829.003C517.598 829.033 521.006 829.282 524.076 829.506C524.325 829.524 524.573 829.542 524.818 829.56C528.254 829.809 531.31 830.005 533.972 829.745C536.661 829.483 539.028 828.75 541.056 827.086C543.072 825.432 544.654 822.94 545.939 819.344C547.463 815.278 548.164 812.158 548.624 809.633C548.753 808.926 548.861 808.281 548.962 807.684C549.227 806.1 549.437 804.852 549.824 803.691C550.813 800.724 552.975 798.381 561.457 793.89C562.691 793.273 564.185 792.67 565.794 792.02C566.755 791.632 567.757 791.228 568.769 790.794C571.384 789.673 574.054 788.36 575.707 786.707C577.462 784.952 578.451 783.839 579.035 783.016C579.658 782.136 579.825 781.574 579.97 780.993L579.99 780.913C580.101 780.466 580.216 780 580.664 779.157C581.157 778.23 582.055 776.844 583.789 774.614L583.821 774.574L583.848 774.53C586.262 770.668 589.157 768.005 592.283 765.129L592.302 765.111C595.427 762.236 598.759 759.165 601.832 754.555L602.038 754.245L601.992 753.876C599.945 737.499 590.687 726.175 575.316 721.051L575.299 721.046L575.282 721.041C566.652 718.502 558.041 718.001 549.544 717.626C548.983 717.601 548.423 717.577 547.863 717.553C540.172 717.221 532.583 716.893 525.002 715.204C525.099 694.349 529.019 682.69 533.025 674.437C534.044 672.337 535.072 670.45 536.056 668.672C536.201 668.411 536.345 668.151 536.488 667.894C537.314 666.407 538.106 664.979 538.815 663.576C540.485 660.266 541.735 657.004 541.998 653.067L542 653.033V653C542 649.863 541.221 646.01 540.212 642.475C539.199 638.933 537.929 635.622 536.894 633.553L536.882 633.528L536.868 633.504C534.791 629.869 529.692 624.278 524.457 619.043C519.191 613.776 513.668 608.755 510.64 606.232L510.577 606.18L510.507 606.138C506.145 603.572 502.534 602.563 499.25 602.563C495.975 602.563 493.133 603.568 490.336 604.84C489.38 605.274 488.428 605.739 487.46 606.212C482.952 608.413 478.106 610.78 471.005 610.986C471.071 604.95 471.723 601.894 472.258 599.387C472.441 598.527 472.611 597.731 472.738 596.902C473.274 593.418 472.965 589.736 469.958 579.713L469.953 579.698L469.949 579.684C469.466 578.237 468.914 575.972 468.287 573.274C468.139 572.64 467.988 571.984 467.833 571.312C467.333 569.143 466.795 566.806 466.22 564.507C465.468 561.498 464.646 558.522 463.754 556.037C462.879 553.602 461.881 551.467 460.707 550.293C457.474 547.059 451.952 545.27 446.171 544.265C440.357 543.254 434.063 543.002 429.045 543C418.162 542.017 405.201 542.957 395.98 547.872L383.081 541.422C383.662 537.296 385.358 532.909 387.729 528.386C390.23 523.617 393.45 518.753 396.819 513.949C398.183 512.003 399.579 510.058 400.959 508.135C402.965 505.34 404.937 502.591 406.733 499.953C409.769 495.493 412.382 491.234 413.925 487.38C417.414 479.078 420.282 471.6 422.811 465.005C422.914 464.737 423.016 464.471 423.117 464.206C425.726 457.405 427.972 451.586 430.19 446.762C434.653 437.056 438.847 431.75 445.196 430.481C448.41 429.838 452.292 430.201 457.216 431.725C462.139 433.248 468.035 435.909 475.245 439.787C489.669 447.544 509.192 460.08 536.453 477.837C562.489 494.861 574.446 499.25 588.5 499.25C593.907 499.25 599.629 498.599 606.547 497.812C608.515 497.588 610.58 497.353 612.763 497.119C622.645 496.059 635.046 495 652 495H653.061L652.998 493.941Z"
            fill="#9DD3AF" stroke="white" stroke-width="2" class="state-map-path" id="kaduna_state_khEhwIXBC" />
        <path
            d="M746.984 1117.82L746.865 1117.17L746.217 1117.02C742.599 1116.22 738.497 1115.73 734.483 1115.26C733.437 1115.13 732.398 1115.01 731.374 1114.88C726.389 1114.26 721.802 1113.53 718.456 1112.11C716.026 1110.64 712.852 1108.2 709.489 1105.59C709.246 1105.4 709.002 1105.21 708.758 1105.02C705.783 1102.7 702.712 1100.31 700 1098.47V1082.55C717.105 1071.88 723.685 1071.86 727.949 1073.2C728.923 1073.51 729.795 1073.9 730.7 1074.29C730.839 1074.36 730.978 1074.42 731.119 1074.48C732.16 1074.93 733.261 1075.39 734.505 1075.66C737.055 1076.22 740.031 1075.97 744.42 1073.91C747.54 1072.49 749.665 1069.28 751.093 1065.02C752.529 1060.74 753.325 1055.22 753.655 1048.88C754.316 1036.18 753.12 1019.96 751.244 1003.26C749.659 989.158 747.583 974.673 745.716 961.641C745.372 959.239 745.035 956.886 744.709 954.594C742.681 940.321 741.108 928.478 741.005 921.687C744.401 920.369 747.796 918.718 751.224 917.05C751.669 916.833 752.115 916.616 752.561 916.4C756.685 914.4 760.884 912.426 765.316 910.949L765.344 910.939L765.371 910.928C768.871 909.529 772.066 908.894 775.202 908.27C776.465 908.019 777.719 907.77 778.979 907.473C783.335 906.448 787.53 904.884 791.707 900.707C793.149 899.265 794.554 897.369 796.076 895.316C796.47 894.785 796.871 894.243 797.283 893.695C799.317 890.994 801.678 888.054 804.795 885.243C811.001 879.645 820.296 874.477 836.093 872.996L836.109 872.994L836.124 872.992C844.074 871.999 850.097 871.812 854.972 871.719C855.481 871.709 855.979 871.7 856.466 871.692C860.616 871.619 864.002 871.56 867.06 870.983C874.065 869.661 879.26 865.648 888.766 853.643C896.445 845.019 904.773 844.75 914.375 844.75C914.669 844.75 914.965 844.75 915.261 844.751C924.445 844.758 934.686 844.767 945.817 837.335C953.904 846.933 967.588 863.038 981.631 878.668C995.997 894.658 1010.8 910.223 1020.38 917.785L1020.39 917.792L1020.4 917.798C1032.91 927.249 1046.58 929.205 1061.35 927.02C1076.07 924.843 1091.96 918.541 1109.01 911.423C1110.77 910.689 1112.54 909.947 1114.32 909.199C1146.97 895.5 1183.93 879.99 1225.94 883.902C1225.03 897.022 1220.19 908.327 1213.84 919.134C1210.59 924.672 1206.94 930.064 1203.23 935.505C1202.96 935.913 1202.68 936.321 1202.4 936.73C1198.96 941.762 1195.49 946.848 1192.27 952.102C1185.3 963.472 1179.44 975.703 1177.49 990.163C1175.54 1004.63 1177.52 1021.25 1186.08 1041.39L1186.08 1041.4C1192.45 1056.13 1191.74 1069.02 1191.1 1080.7C1190.95 1083.48 1190.8 1086.2 1190.75 1088.86C1190.62 1095.72 1191.18 1102.2 1194.27 1108.25C1197.35 1114.31 1202.91 1119.82 1212.53 1124.88C1219.59 1128.66 1226.39 1131.37 1232.68 1133.84L1233.5 1134.16C1239.5 1136.51 1244.99 1138.66 1249.89 1141.37C1254.99 1144.2 1259.4 1147.61 1262.96 1152.44C1266.45 1157.16 1269.17 1163.28 1270.9 1171.63C1267.56 1174.54 1264.9 1177.46 1262.37 1180.34C1261.84 1180.95 1261.32 1181.55 1260.79 1182.16C1258.72 1184.55 1256.67 1186.92 1254.29 1189.29C1249.55 1194.04 1247.92 1196.59 1245.29 1200.72C1244 1202.76 1242.46 1205.17 1240.19 1208.42C1236.29 1213.78 1232.24 1216.72 1228.3 1218.38C1224.34 1220.04 1220.42 1220.44 1216.7 1220.63C1216.04 1220.66 1215.38 1220.69 1214.72 1220.71C1211.76 1220.83 1208.88 1220.94 1206.4 1221.68C1203.41 1222.58 1200.96 1224.38 1199.34 1228C1190.82 1228.05 1184.15 1229.04 1178.63 1230.06C1177.14 1230.34 1175.75 1230.62 1174.44 1230.88C1170.7 1231.62 1167.59 1232.24 1164.7 1232.38C1160.89 1232.55 1157.54 1231.88 1153.87 1229.43C1150.14 1226.96 1146.04 1222.64 1140.82 1215.42C1135.23 1207.3 1128.38 1201.47 1121.1 1195.95C1119.33 1194.6 1117.53 1193.28 1115.71 1191.94C1110.08 1187.78 1104.33 1183.54 1098.69 1178.28C1097.33 1176.92 1095.62 1175 1093.62 1172.75C1092.72 1171.75 1091.76 1170.67 1090.74 1169.55C1087.49 1165.95 1083.71 1161.92 1079.67 1158.26C1075.64 1154.61 1071.31 1151.29 1066.94 1149.13C1062.58 1146.98 1058.07 1145.95 1053.76 1147.03L1053.75 1147.03L1053.74 1147.03C1046.01 1149.09 1037.12 1155.22 1029.23 1161.86C1021.31 1168.52 1014.28 1175.8 1010.26 1180.33C1000.96 1190.4 996.537 1198.31 993.202 1204.27C992.206 1206.05 991.306 1207.65 990.403 1209.09C988.448 1212.21 986.49 1214.53 983.496 1216.28C980.484 1218.03 976.335 1219.26 969.913 1220C965.066 1220.29 958.649 1220.98 951.707 1221.73C946.466 1222.3 940.926 1222.9 935.536 1223.38C929.234 1223.94 923.111 1224.34 917.825 1224.36C912.51 1224.37 908.151 1224 905.316 1223.05C900.044 1221.29 895.001 1219.4 890.032 1217.53C875.38 1212.02 861.373 1206.76 844.068 1206C827.867 1204.49 818.193 1207.79 809.825 1211.72C808.263 1212.45 806.756 1213.2 805.268 1213.94C798.801 1217.16 792.692 1220.2 783.955 1221H749.053C749.414 1215.4 750.835 1211.08 752.978 1207.59C755.254 1203.87 758.383 1201.03 762.055 1198.58C765.738 1196.13 769.924 1194.09 774.312 1191.96C778.679 1189.84 783.234 1187.63 787.543 1184.84L788.157 1184.44L787.965 1183.74C786.406 1178.02 782.04 1171.39 777.012 1165.48C771.979 1159.56 766.176 1154.25 761.584 1151.19C756.096 1146.95 752.727 1144.12 750.667 1141.93C748.631 1139.75 747.953 1138.28 747.741 1136.74C747.629 1135.93 747.64 1135.07 747.701 1134C747.723 1133.63 747.752 1133.22 747.783 1132.78C747.837 1132.01 747.897 1131.16 747.937 1130.25C748.064 1127.29 747.999 1123.4 746.984 1117.82Z"
            fill="#91D8F7" stroke="white" stroke-width="2" class="state-map-path" id="kaduna_state_fdmlRR6EG" />
        <path
            d="M1194.72 581.631C1197.7 585.292 1199.85 589.86 1199.99 599.005C1189.93 599.097 1183.09 600.572 1176.76 602.155C1175.99 602.348 1175.23 602.541 1174.47 602.734C1168.8 604.176 1163.34 605.566 1155.95 606.001C1150.88 606.242 1146.87 606.132 1143.52 606.039L1143.25 606.032C1139.87 605.939 1137.08 605.87 1134.59 606.262C1129.45 607.074 1125.75 609.835 1120.2 617.399C1112.71 627.132 1107.36 632.638 1103.05 635.46C1100.9 636.861 1099.05 637.581 1097.33 637.841C1095.62 638.102 1093.99 637.915 1092.28 637.415C1090.56 636.911 1088.78 636.094 1086.78 635.102C1086.31 634.87 1085.83 634.629 1085.33 634.381C1083.73 633.577 1081.98 632.702 1080.06 631.852C1075.04 629.624 1068.77 627.534 1060.2 627.01C1050.6 623.551 1044.92 620.067 1041.47 616.649C1038.04 613.247 1036.77 609.854 1036.11 606.436C1035.85 605.095 1035.69 603.723 1035.52 602.333C1034.86 596.649 1034.15 590.654 1026.59 585.189L1026.58 585.186C1022.87 582.538 1018.17 581.32 1013.04 581.033C1007.91 580.745 1002.29 581.385 996.677 582.52C985.462 584.788 974.146 589.065 966.637 592.068C962.139 593.774 957.145 595.718 951.796 597.799C939.867 602.44 926.175 607.767 912.292 612.682C892.914 619.543 873.264 625.563 857.65 627.771C864 613.118 864 598.379 864 581.113V581V578.586L862.293 580.293L859.396 583.191C854.005 586.112 851.648 586.139 850.484 585.692C849.903 585.468 849.503 585.087 849.08 584.606C849.024 584.542 848.963 584.471 848.899 584.397C848.743 584.215 848.567 584.01 848.402 583.839C848.374 583.811 848.346 583.782 848.317 583.753C849.071 582.575 849.716 581.922 850.246 581.503C850.567 581.249 850.865 581.065 851.163 580.89C851.205 580.865 851.248 580.84 851.293 580.814C851.546 580.667 851.838 580.497 852.1 580.3C852.822 579.759 853.307 579.035 853.6 577.754C853.877 576.542 854 574.756 854 572C854 571.66 853.943 571.226 853.653 570.869C853.447 570.616 853.196 570.486 852.964 570.425C853.157 569.968 853.454 569.329 853.895 568.447L854.795 566.646L852.816 567.017L836.816 570.017L837 571.993C837 572 837 572 836.999 572H836.998H836.997L836.993 572L836.987 572L836.98 572C836.976 572 836.976 572 836.979 572C836.985 572 837.003 572.002 837.031 572.006C837.088 572.014 837.185 572.032 837.309 572.074C837.554 572.155 837.915 572.329 838.293 572.707L838.332 572.746L838.376 572.781C839.014 573.292 839.509 573.656 839.893 573.909C840.228 574.13 840.528 574.3 840.796 574.397C841.06 574.849 841.474 575.511 842.11 576.467C843.079 578.9 843.225 579.677 843.132 580.515C843.084 580.944 842.972 581.398 842.797 582.107C842.776 582.192 842.755 582.279 842.732 582.371C842.656 582.684 842.572 583.031 842.484 583.423L837.832 576.445L836 573.697V577C836 577.199 835.885 577.495 835.668 577.82C835.571 577.967 835.472 578.091 835.397 578.177C835.361 578.22 835.331 578.253 835.312 578.273C835.303 578.283 835.296 578.29 835.293 578.293L835.293 578.294L835.292 578.294L835.291 578.295L835.291 578.296L835.157 578.429L835.081 578.606L833.006 583.449C832.635 582.355 832.487 581.464 832.339 580.582C832.269 580.156 832.198 579.733 832.103 579.29C831.678 577.307 830.807 575.392 827.707 572.293L826 570.586V573C826 578.486 825.686 581.446 825.28 583.088C825.079 583.9 824.867 584.336 824.698 584.582C824.545 584.806 824.401 584.914 824.22 585.027C824.198 585.041 824.17 585.058 824.137 585.077C823.945 585.19 823.595 585.398 823.322 585.706C822.961 586.114 822.751 586.637 822.639 587.322C822.433 588.571 822.503 590.706 822.949 594.613C816.929 600.313 811.257 610.035 806.951 620.494C802.683 630.86 799.697 642.09 799.056 651.099C791.038 651.933 783.981 651.089 777.68 649.832C774.845 649.266 772.172 648.619 769.622 648.001C769.236 647.908 768.852 647.815 768.471 647.723C765.588 647.028 762.853 646.393 760.272 646.011C755.102 645.245 750.395 645.469 746.141 648.361C741.928 651.225 738.335 656.59 735.06 665.66L735.052 665.683L735.045 665.706C733.106 672.008 732.326 679.442 731.611 686.264C731.576 686.601 731.541 686.937 731.506 687.27C731.13 690.837 730.759 694.21 730.234 697.186C729.71 700.164 729.044 702.669 728.114 704.537C725.288 709.704 719.864 712.774 714.559 713.127C709.28 713.479 704.23 711.151 701.923 705.615L701.91 705.584L701.895 705.553C701.237 704.237 700.777 701.981 700.532 698.909C700.29 695.872 700.266 692.155 700.406 688.002C700.686 679.699 701.62 669.731 702.744 660.116C703.867 650.506 705.178 641.267 706.208 634.43C706.723 631.012 707.168 628.195 707.484 626.233C707.642 625.252 707.767 624.485 707.854 623.963C707.897 623.703 707.93 623.503 707.952 623.369L707.978 623.217L707.984 623.179L707.986 623.17L707.986 623.167C707.986 623.167 707.986 623.167 707 623L707.986 623.167L708.006 623.053L707.998 622.938C707.74 618.806 706.826 616.482 705.606 614.803C705.012 613.985 704.365 613.349 703.78 612.776L703.769 612.765C703.178 612.185 702.653 611.671 702.18 611.031C701.264 609.792 700.46 607.966 700.265 604.244C700.067 600.497 700.49 594.899 701.984 586.182C702.726 582.474 703.592 579.193 704.448 576.128C704.666 575.349 704.883 574.581 705.098 573.823C705.726 571.607 706.331 569.473 706.847 567.362C708.242 561.657 709.014 556.022 707.99 548.859L707.926 548.406L707.541 548.159C703.945 545.847 700.048 544.254 696.201 542.857C695.08 542.45 693.968 542.06 692.868 541.676C690.162 540.728 687.533 539.808 685.027 538.709C681.528 537.174 678.373 535.331 675.794 532.692C673.223 530.062 671.181 526.598 669.971 521.757L669.967 521.745L669.964 521.732C668.737 517.315 668.434 514.328 668.312 511.826C668.284 511.251 668.265 510.69 668.247 510.136C668.187 508.306 668.13 506.548 667.731 504.554C666.689 499.345 663.342 492.482 652 476.677C651.963 466.548 650.178 461.393 648.567 456.742C648.357 456.134 648.149 455.535 647.949 454.934C647.088 452.35 646.364 449.748 646.091 446.266C645.828 442.905 645.983 438.688 646.879 432.854C662.625 429.935 679.304 428.02 696.931 428.998C697.339 429.032 697.743 429.065 698.143 429.099C709.43 430.042 717.512 430.717 724.079 429.354C731.009 427.916 736.201 424.232 741.798 416.603C743.035 415.013 744.335 413.352 745.685 411.627C759.567 393.887 778.67 369.478 786.932 348.364L786.936 348.354L786.939 348.344C790.199 339.436 792.098 331.882 793.65 325.711C793.894 324.741 794.129 323.806 794.36 322.904C796.077 316.192 797.501 311.578 800.119 308.669C802.642 305.865 806.434 304.506 813.374 304.843C820.336 305.181 830.243 307.216 844.742 310.966C859.351 314.995 877.693 317 895.757 316.875C913.573 316.751 931.195 314.554 944.756 310.134C950.128 315.114 952.576 318.832 953.976 321.718C954.621 323.05 955.05 324.216 955.449 325.303C955.498 325.434 955.546 325.565 955.594 325.694C956.03 326.875 956.471 328.009 957.168 329.055C958.608 331.214 960.998 332.804 966.072 334.422C971.143 336.038 979.08 337.735 991.827 339.985L991.839 339.987L991.851 339.989C1008.38 342.493 1018.71 343.255 1028.69 342.623C1037.98 342.035 1046.94 340.238 1060.27 337.567C1061.19 337.382 1062.14 337.192 1063.11 336.998C1069.21 336.887 1073.56 337.919 1076.58 339.725C1079.58 341.521 1081.34 344.131 1082.16 347.37C1082.98 350.641 1082.85 354.572 1081.99 358.94C1081.13 363.299 1079.56 368.031 1077.58 372.87C1073.6 382.552 1068.01 392.564 1063.26 400.748C1062.4 402.229 1061.57 403.652 1060.78 405.003C1059.39 407.374 1058.14 409.52 1057.1 411.361C1056.28 412.808 1055.59 414.083 1055.07 415.145C1054.56 416.185 1054.18 417.094 1054.02 417.783L1054.01 417.832L1054.01 417.881C1052.46 430.768 1057.9 440.782 1064.83 449.977C1066.98 452.83 1069.3 455.646 1071.62 458.445C1073.01 460.129 1074.39 461.807 1075.73 463.484C1079.33 467.983 1082.65 472.542 1085.11 477.447C1089.07 485.369 1091.05 491.74 1092.52 496.93C1092.71 497.578 1092.88 498.211 1093.06 498.829C1094.25 503.107 1095.25 506.664 1097.03 509.527C1099.12 512.904 1102.25 515.275 1107.77 517.046C1113.25 518.802 1121.16 519.996 1132.91 520.996C1143.35 521.991 1148.45 523.472 1152.53 525.634C1154.59 526.724 1156.42 528 1158.58 529.534L1158.94 529.788C1160.91 531.19 1163.16 532.788 1166.05 534.589C1166.68 540.645 1169.46 546.627 1172.76 552.256C1174.47 555.157 1176.32 557.99 1178.12 560.708L1178.56 561.381C1180.21 563.864 1181.78 566.242 1183.14 568.515L1183.16 568.535L1183.17 568.555C1185.22 571.63 1187.33 573.931 1189.32 575.952C1189.81 576.446 1190.28 576.919 1190.74 577.381C1192.19 578.825 1193.52 580.152 1194.72 581.631Z"
            fill="#D2E28B" stroke="white" stroke-width="2" class="state-map-path" id="kaduna_state_a6HXkUFlc" />
        <path
            d="M1464.82 598.834C1463.07 607.494 1460.81 612.599 1458.54 617.722C1458.26 618.345 1457.98 618.969 1457.71 619.599C1455.05 625.668 1452.52 632.263 1451.01 644.881L1451.01 644.89C1450.81 646.616 1450.64 648.218 1450.48 649.71C1449.36 659.939 1448.81 664.956 1447.42 669.323C1446.02 673.74 1443.77 677.478 1439.07 685.283C1438.47 686.28 1437.83 687.345 1437.14 688.485L1437.12 688.518L1437.11 688.553C1434.56 693.645 1431.54 702.473 1429.16 711.751C1426.77 721.027 1425 730.873 1425 738V738.022L1425 738.044C1426 760.634 1440.38 772.628 1455.88 785.556C1456.17 785.793 1456.45 786.03 1456.73 786.268C1472.6 799.509 1489.61 814.074 1496.03 842.222L1496.03 842.237L1496.03 842.252C1498.99 853.579 1498.81 866.25 1497.38 878.824C1496.26 888.639 1494.39 898.331 1492.67 907.241C1492.18 909.75 1491.71 912.197 1491.27 914.567C1490.27 919.947 1489.43 924.937 1489.01 929.327C1488.6 933.705 1488.58 937.564 1489.27 940.655C1489.97 943.766 1491.41 946.219 1493.97 947.558C1496.49 948.876 1499.88 948.997 1504.23 947.973L1504.24 947.97L1544.22 937.975C1556.14 935.494 1563.81 936.062 1569.22 939.471C1574.52 942.816 1577.91 949.051 1580.85 958.659C1576.88 962.064 1575.34 965.102 1575.63 968.11C1575.91 971.12 1578.03 973.759 1580.25 976.285C1580.58 976.658 1580.91 977.032 1581.24 977.407C1585.6 982.301 1590.21 987.484 1588.03 995.745L1588.02 995.783L1588.02 995.821C1587.53 998.489 1586.87 1000.26 1586.17 1001.57C1585.46 1002.88 1584.69 1003.78 1583.87 1004.72L1583.87 1004.72L1583.87 1004.72C1583.06 1005.66 1582.2 1006.65 1581.49 1008.07C1580.79 1009.5 1580.26 1011.31 1580.01 1013.89C1579.73 1016.36 1580.29 1018.78 1581.14 1021.36C1581.53 1022.53 1581.99 1023.76 1582.47 1025.05L1582.63 1025.48C1583.17 1026.93 1583.74 1028.49 1584.3 1030.19C1586.51 1036.95 1588.49 1046.05 1587.01 1059.89C1585.5 1072.19 1585.56 1079.94 1585.92 1085.1C1586.07 1087.18 1586.27 1088.84 1586.43 1090.18C1586.46 1090.5 1586.5 1090.8 1586.53 1091.09C1586.7 1092.6 1586.77 1093.56 1586.64 1094.34C1586.4 1095.75 1585.5 1096.77 1581.92 1099.41C1581.06 1100.05 1580.05 1100.77 1578.89 1101.61C1575.42 1104.11 1570.54 1107.62 1563.77 1112.91C1559.04 1111.7 1555.23 1110.33 1551.82 1109.06C1551.47 1108.93 1551.13 1108.81 1550.79 1108.68C1547.69 1107.52 1544.87 1106.47 1541.98 1105.78C1535.62 1104.25 1529.05 1104.5 1518.34 1108.79C1513.64 1102.28 1514.29 1094.18 1516.35 1085.35C1516.95 1082.77 1517.65 1080.21 1518.35 1077.63C1518.9 1075.63 1519.45 1073.61 1519.95 1071.57C1521.1 1066.97 1522 1062.38 1522 1058C1522 1047.25 1518.91 1041.04 1514.65 1035.75C1513.11 1033.83 1511.4 1032.02 1509.66 1030.18C1509.04 1029.53 1508.43 1028.87 1507.81 1028.21C1505.44 1025.65 1503.05 1022.9 1500.85 1019.47C1494.84 1009.32 1491.41 998.212 1488.06 987.381C1487 983.939 1485.95 980.526 1484.82 977.181C1480.18 963.39 1474.34 950.837 1461.51 943.142C1449.97 936.216 1436.96 934.535 1423.5 932.797C1422.13 932.62 1420.76 932.442 1419.38 932.259C1404.41 930.262 1388.86 927.533 1373.56 917.172L1373.55 917.168C1357.25 906.3 1348.6 892.966 1342.4 880.431C1340.44 876.489 1338.75 872.664 1337.13 869.003C1336.16 866.805 1335.21 864.665 1334.25 862.595C1331.77 857.26 1329.23 852.446 1326 848.628C1325.86 835.907 1318.5 825.607 1312.04 816.561C1311.29 815.504 1310.55 814.465 1309.83 813.44C1302.37 802.009 1298.72 794.007 1296.19 787.929C1295.76 786.901 1295.36 785.921 1294.98 784.984C1293.13 780.419 1291.69 776.859 1289.16 773.633C1286.09 769.709 1281.46 766.316 1272.75 761.92C1264.03 757.523 1251.12 752.071 1231.38 744.073C1222.19 740.351 1218.25 736.755 1216.88 732.358C1216.18 730.124 1216.11 727.587 1216.47 724.553C1216.84 721.513 1217.63 718.053 1218.6 713.982C1218.7 713.536 1218.81 713.083 1218.92 712.623C1222.83 696.29 1228.8 671.35 1220.98 629.815L1220.98 629.804L1220.98 629.794C1220.32 626.659 1219.83 623.873 1219.38 621.352C1219.15 620.06 1218.94 618.838 1218.72 617.674C1218.08 614.277 1217.4 611.39 1216.28 608.957C1215.15 606.491 1213.57 604.499 1211.13 602.872C1208.87 601.359 1205.92 600.188 1202 599.212C1201.88 589.54 1199.61 584.468 1196.28 580.369C1195 578.802 1193.57 577.374 1192.1 575.912C1191.65 575.462 1191.2 575.009 1190.74 574.548C1188.8 572.573 1186.79 570.38 1184.85 567.465C1183.46 565.159 1181.87 562.749 1180.24 560.282C1180.09 560.057 1179.94 559.831 1179.79 559.605C1177.99 556.885 1176.16 554.093 1174.49 551.244C1171.19 545.62 1168.56 539.874 1168.02 534.192C1169.2 531.809 1169.76 530.324 1170.05 529.35C1170.2 528.842 1170.28 528.483 1170.33 528.229C1170.36 528.111 1170.37 528.04 1170.38 527.998C1170.39 527.997 1170.39 527.997 1170.39 527.996C1170.5 527.92 1170.67 527.827 1170.97 527.656C1171.03 527.626 1171.08 527.594 1171.14 527.56C1171.94 527.116 1173.26 526.361 1175.5 524.868C1176.37 524.441 1177.25 524.218 1178.24 523.97L1178.28 523.961C1179.25 523.718 1180.33 523.447 1181.43 522.905C1183.66 521.913 1184.78 521.505 1185.33 521.355C1185.34 521.351 1185.36 521.347 1185.37 521.343C1185.55 521.414 1185.73 521.425 1185.86 521.41C1186.05 521.388 1186.19 521.317 1186.22 521.299L1186.22 521.298C1186.27 521.271 1186.31 521.245 1186.33 521.232C1186.38 521.197 1186.44 521.149 1186.47 521.123C1186.48 521.121 1186.48 521.118 1186.48 521.116L1186.49 521.109C1186.54 521.072 1186.6 521.023 1186.68 520.956C1187.03 520.684 1187.78 520.106 1189.38 518.958C1200.54 517.46 1208.32 515.715 1214.31 514.155C1216.51 513.583 1218.45 513.042 1220.21 512.549C1223.33 511.677 1225.91 510.957 1228.43 510.483C1236.15 509.037 1243.17 509.947 1262.63 516.93C1273.93 521.838 1286.41 524.115 1299.01 526.415C1299.36 526.48 1299.72 526.544 1300.07 526.609C1313.08 528.986 1326.22 531.469 1338.6 536.915L1338.61 536.92L1338.62 536.925C1347.02 540.383 1354.88 545.333 1363.05 551.009C1366.01 553.062 1369.02 555.217 1372.1 557.429C1377.5 561.304 1383.15 565.353 1389.2 569.335C1408.09 581.763 1431.2 593.717 1464.82 598.834ZM1186.73 520.577C1186.73 520.578 1186.73 520.57 1186.74 520.551C1186.73 520.566 1186.73 520.576 1186.73 520.577Z"
            fill="#91D8F7" stroke="white" stroke-width="2" class="state-map-path" id="kaduna_state_Z5iKWv179" />
        <path
            d="M1213.47 1123.12L1213.47 1123.12C1204.09 1118.18 1198.9 1112.94 1196.05 1107.34C1193.19 1101.73 1192.63 1095.65 1192.75 1088.89C1192.8 1086.34 1192.94 1083.7 1193.1 1080.96C1193.75 1069.25 1194.49 1055.81 1187.92 1040.61C1179.48 1020.75 1177.58 1004.49 1179.48 990.43C1181.37 976.36 1187.08 964.403 1193.98 953.148C1197.17 947.937 1200.62 942.89 1204.06 937.85C1204.33 937.444 1204.61 937.038 1204.89 936.632C1208.59 931.194 1212.27 925.75 1215.57 920.147C1222.03 909.145 1227.05 897.472 1227.95 883.837C1243.88 880.78 1263.54 874.86 1278.35 868.936C1286.88 865.925 1295.15 862.416 1303.02 859.044C1303.51 858.834 1304 858.624 1304.49 858.415C1311.59 855.369 1318.34 852.473 1324.69 850.176C1327.63 853.738 1330.03 858.253 1332.44 863.437C1333.37 865.439 1334.3 867.551 1335.27 869.739C1336.91 873.437 1338.64 877.351 1340.6 881.319C1346.9 894.033 1355.75 907.698 1372.44 918.83C1388.15 929.467 1404.09 932.238 1419.12 934.241C1420.49 934.424 1421.85 934.6 1423.2 934.775C1436.73 936.528 1449.32 938.158 1460.49 944.857C1472.66 952.163 1478.32 964.11 1482.93 977.819C1484.02 981.063 1485.05 984.411 1486.1 987.812C1489.46 998.696 1492.99 1010.13 1499.14 1020.51L1499.15 1020.53L1499.16 1020.54C1501.46 1024.11 1503.94 1026.98 1506.34 1029.57C1506.99 1030.27 1507.63 1030.94 1508.25 1031.6C1509.97 1033.42 1511.6 1035.15 1513.1 1037C1517.09 1041.96 1520 1047.75 1520 1058C1520 1062.12 1519.15 1066.53 1518.01 1071.09C1517.53 1073.02 1516.99 1075.01 1516.44 1077.02C1515.73 1079.66 1515 1082.32 1514.4 1084.9C1512.29 1093.97 1511.42 1103.08 1517.08 1110.44L1522.83 1135.36C1517.12 1137.36 1510.16 1138.34 1502.57 1138.75C1494.62 1139.19 1486.03 1139 1477.53 1138.75C1476.49 1138.72 1475.45 1138.69 1474.41 1138.66C1466.99 1138.43 1459.71 1138.21 1453.1 1138.38C1445.58 1138.56 1438.82 1139.25 1433.67 1141.06L1433.66 1141.06L1433.65 1141.06C1429.53 1142.61 1426.81 1144.51 1424.93 1146.77C1423.06 1149.02 1422.11 1151.56 1421.41 1154.25C1421.09 1155.47 1420.82 1156.72 1420.54 1158C1419.59 1162.4 1418.56 1167.18 1415.16 1172.46L1415.13 1172.5L1415.11 1172.55C1413.18 1176.4 1409.29 1180.79 1405.03 1185.18C1403.64 1186.61 1402.21 1188.04 1400.81 1189.44C1398.07 1192.18 1395.44 1194.82 1393.43 1197.12C1385.03 1199.62 1379.65 1202.4 1376.12 1205.39C1372.52 1208.45 1370.9 1211.7 1369.92 1214.96C1369.45 1216.53 1369.12 1218.06 1368.81 1219.56C1367.79 1224.36 1366.84 1228.84 1361.38 1233.22L1361.33 1233.25L1361.29 1233.29C1360.54 1234.04 1359.34 1234.8 1357.71 1235.53C1356.09 1236.26 1354.11 1236.94 1351.85 1237.57C1347.35 1238.83 1341.83 1239.89 1336.1 1240.76C1324.99 1242.45 1313.16 1243.44 1306.53 1243.96C1305.09 1241.64 1303.99 1239.73 1303 1238.04C1300.8 1234.24 1299.19 1231.46 1295.77 1227.36L1295.71 1227.29L1295.64 1227.23C1294.17 1226.01 1292.89 1225.03 1291.73 1224.14C1288.07 1221.33 1285.56 1219.41 1281.86 1213.48C1275 1201.73 1274 1186.99 1273 1171.93L1272.99 1171.87L1272.98 1171.8C1271.21 1162.94 1268.35 1156.36 1264.57 1151.25C1260.79 1146.14 1256.14 1142.55 1250.86 1139.63C1245.84 1136.85 1240.23 1134.65 1234.28 1132.31C1233.99 1132.2 1233.7 1132.09 1233.41 1131.98C1227.12 1129.51 1220.41 1126.84 1213.47 1123.12Z"
            fill="#9DD3AF" stroke="white" stroke-width="2" class="state-map-path" id="kaduna_state_RgIiG7GfG" />
        <path
            d="M1365.98 346.813L1365.96 346.682L1365.9 346.563C1361.53 337.567 1353.97 331.257 1345.41 325.603C1342.06 323.39 1338.53 321.262 1334.97 319.113C1333.98 318.516 1332.99 317.919 1332 317.317C1327.42 314.539 1322.84 311.667 1318.47 308.445C1309.74 302.007 1301.91 294.193 1296.86 283.026C1291.9 272.032 1289.58 257.695 1291.88 238.064L1333.93 240.998L1333.95 240.999L1333.96 240.999C1346.65 241.497 1358.49 243.053 1369.64 244.785C1373.11 245.323 1376.52 245.88 1379.87 246.426C1387.27 247.636 1394.4 248.798 1401.26 249.618C1421.21 252.002 1439.24 251.529 1456.53 240.851L1457 240.558V240C1457 227.55 1449.96 220.542 1444.57 215.401C1444.42 215.258 1444.27 215.117 1444.12 214.978C1442.94 213.854 1441.87 212.834 1440.96 211.852C1439.95 210.746 1439.2 209.75 1438.77 208.795C1438.36 207.867 1438.25 206.989 1438.5 206.064C1438.74 205.132 1439.38 204.057 1440.62 202.792C1441.87 202.036 1442.55 201.433 1442.97 200.957C1443.03 200.887 1443.09 200.821 1443.13 200.76C1443.18 200.778 1443.23 200.798 1443.29 200.821C1443.91 201.066 1444.94 201.452 1446.73 201.961C1448.49 202.466 1449.42 202.761 1449.96 202.995C1450.22 203.107 1450.33 203.185 1450.39 203.231C1450.43 203.267 1450.47 203.302 1450.52 203.389C1450.54 203.426 1450.57 203.483 1450.61 203.557C1450.75 203.821 1451 204.3 1451.41 204.837C1451.95 205.555 1452.82 206.48 1454.34 207.753C1460.36 213.267 1468.7 220.102 1477.48 223.917C1486.13 227.68 1495.44 228.587 1503.27 222.08C1508.94 223.299 1512.66 224.791 1515.2 226.515C1517.79 228.266 1519.21 230.29 1520.2 232.641C1520.94 234.373 1521.44 236.235 1521.99 238.331C1522.22 239.168 1522.45 240.043 1522.71 240.962C1523.61 244.123 1524.82 247.641 1527.12 251.482C1529.77 256.746 1535.5 260.867 1541.34 264.593C1542.56 265.374 1543.79 266.138 1545 266.893C1549.71 269.819 1554.19 272.608 1557.29 275.707C1563.42 281.836 1566.76 288.111 1568.24 294.477C1569.73 300.855 1569.38 307.389 1568.02 314.05C1566.66 320.72 1564.31 327.469 1561.84 334.284C1561.58 335.007 1561.32 335.73 1561.05 336.453C1558.84 342.532 1556.61 348.659 1555.03 354.739C1545.98 386.96 1550.01 422.157 1554.01 454.123C1556.51 475.143 1557.3 487.276 1556.57 494.159C1556.2 497.607 1555.46 499.556 1554.52 500.652C1553.64 501.685 1552.45 502.097 1550.73 502.125C1549.22 502.15 1547.45 501.878 1545.32 501.549C1544.96 501.494 1544.59 501.437 1544.21 501.38C1541.62 500.99 1538.63 500.6 1535.29 500.672C1528.64 500.816 1520.71 502.79 1511.65 510.001C1500.61 510.07 1492.95 513.388 1487.18 519.035C1481.39 524.695 1477.57 532.621 1474.07 541.637C1469.76 552.66 1470.18 562.567 1470.56 571.37C1470.58 571.931 1470.6 572.488 1470.63 573.04C1470.99 582.111 1470.96 589.866 1465.57 596.925C1432.07 591.902 1409.11 580.039 1390.3 567.665C1384.27 563.699 1378.7 559.7 1373.32 555.844C1370.23 553.626 1367.2 551.456 1364.2 549.366C1355.99 543.67 1347.99 538.622 1339.39 535.08C1326.77 529.529 1313.41 527.013 1300.43 524.641L1299.47 524.466C1286.78 522.149 1274.49 519.906 1263.4 515.083L1263.37 515.07L1263.34 515.059C1243.82 508.052 1236.35 506.964 1228.07 508.517C1225.46 509.006 1222.74 509.765 1219.55 510.656C1217.8 511.145 1215.91 511.674 1213.81 512.22C1208.65 513.564 1202.13 515.049 1193.21 516.393C1201.14 510.81 1205.36 505.734 1208.06 500.639C1209.59 497.741 1210.61 494.867 1211.55 491.958C1211.79 491.24 1212.01 490.522 1212.24 489.802C1212.94 487.585 1213.65 485.341 1214.56 482.985C1219.31 470.67 1229.58 455.319 1272.49 430.873C1282.54 425.341 1306.83 409.813 1328.12 393.035C1338.76 384.646 1348.69 375.915 1355.72 367.942C1359.23 363.957 1362.05 360.13 1363.86 356.602C1365.67 353.091 1366.54 349.756 1365.98 346.813ZM1442.68 200.587C1442.68 200.586 1442.69 200.588 1442.71 200.595C1442.69 200.591 1442.68 200.588 1442.68 200.587Z"
            fill="#F6AFCE" stroke="white" stroke-width="2" class="state-map-path" id="kaduna_state_kW1Ck2weO" />
        <path
            d="M1042.91 656.419L1042.92 656.386L1042.94 656.351C1047.11 645.232 1050.22 641.557 1054.52 636.478C1056.27 634.422 1058.2 632.136 1060.48 629.033C1068.56 629.578 1074.47 631.561 1079.25 633.68C1081.12 634.51 1082.81 635.356 1084.41 636.156C1084.91 636.407 1085.4 636.654 1085.89 636.895C1087.9 637.89 1089.82 638.777 1091.72 639.335C1093.64 639.897 1095.57 640.133 1097.63 639.819C1099.69 639.505 1101.82 638.655 1104.14 637.134C1108.76 634.113 1114.28 628.371 1121.79 618.61L1121.8 618.601L1121.81 618.591C1127.25 611.163 1130.55 608.926 1134.91 608.238C1137.17 607.88 1139.76 607.936 1143.19 608.031L1143.48 608.039C1146.83 608.131 1150.9 608.244 1156.05 607.999L1156.06 607.998C1163.66 607.551 1169.3 606.115 1174.97 604.672C1175.72 604.479 1176.48 604.286 1177.24 604.095C1183.68 602.487 1190.56 601.011 1200.88 601C1205.02 601.981 1207.92 603.126 1210.02 604.534C1212.12 605.939 1213.47 607.634 1214.47 609.793C1215.47 611.985 1216.11 614.66 1216.75 618.045C1216.96 619.167 1217.18 620.368 1217.4 621.649C1217.85 624.187 1218.35 627.037 1219.02 630.196C1226.76 671.307 1220.86 695.924 1216.98 712.145C1216.87 712.61 1216.76 713.067 1216.65 713.518C1215.69 717.572 1214.87 721.143 1214.49 724.314C1214.1 727.491 1214.15 730.345 1214.97 732.955C1216.62 738.245 1221.31 742.149 1230.62 745.927L1230.62 745.927C1250.38 753.929 1263.22 759.352 1271.85 763.705C1280.48 768.059 1284.79 771.291 1287.59 774.867C1289.93 777.853 1291.25 781.106 1293.1 785.658C1293.49 786.611 1293.9 787.621 1294.34 788.696C1296.91 794.866 1300.62 802.985 1308.16 814.546L1308.17 814.56L1308.18 814.573C1308.91 815.615 1309.66 816.662 1310.41 817.718C1316.84 826.747 1323.73 836.413 1323.99 848.3C1317.6 850.617 1310.8 853.533 1303.72 856.569C1303.22 856.78 1302.73 856.993 1302.23 857.206C1294.36 860.581 1286.13 864.069 1277.67 867.057L1277.65 867.064L1277.63 867.072C1262.73 873.032 1242.86 878.995 1226.96 881.991C1184.09 877.748 1146.42 893.556 1113.64 907.316C1111.82 908.078 1110.02 908.832 1108.24 909.577C1091.16 916.709 1075.49 922.907 1061.06 925.042C1046.68 927.169 1033.59 925.252 1021.61 916.209C1012.19 908.768 997.499 893.337 983.119 877.332C968.825 861.422 954.9 845.015 946.883 835.496C945.096 830.457 942.333 825.441 939.446 820.394C939.088 819.767 938.727 819.138 938.365 818.509C935.773 813.996 933.155 809.439 931.038 804.716C926.238 794.008 924.078 782.601 930.883 769.47C936.597 759.001 945.545 753.16 957.394 745.427C957.693 745.232 957.994 745.035 958.297 744.837C970.57 736.822 985.657 726.765 1002.75 707.667L1002.76 707.646L1002.78 707.625C1006.73 702.691 1010.43 699.235 1014.28 695.879C1015.13 695.144 1015.98 694.411 1016.85 693.668C1019.93 691.024 1023.17 688.245 1026.71 684.707C1033.28 678.131 1035.92 672.151 1039.8 663.34C1040.74 661.214 1041.75 658.923 1042.91 656.419Z"
            fill="#F6AFCE" stroke="white" stroke-width="2" class="state-map-path" id="kaduna_state_KHNBx52v4" />
        <path
            d="M1188.42 517.186C1186.82 518.326 1185.99 518.955 1185.56 519.293C1185.32 519.298 1185.06 519.355 1184.8 519.426C1184.09 519.62 1182.85 520.084 1180.59 521.086L1180.57 521.095L1180.55 521.105C1179.67 521.549 1178.77 521.777 1177.76 522.03L1177.72 522.039C1176.74 522.284 1175.65 522.556 1174.55 523.105L1174.5 523.133L1174.45 523.168C1172.22 524.651 1170.93 525.388 1170.17 525.815C1170.11 525.845 1170.06 525.875 1170.01 525.904C1169.71 526.068 1169.46 526.208 1169.28 526.332C1169.03 526.497 1168.78 526.709 1168.61 527.053C1168.48 527.296 1168.43 527.576 1168.39 527.763C1168.38 527.782 1168.38 527.801 1168.38 527.818C1168.33 528.049 1168.26 528.345 1168.14 528.775C1167.91 529.519 1167.49 530.689 1166.59 532.566C1164 530.93 1161.94 529.47 1160.09 528.154L1159.74 527.903C1157.58 526.375 1155.66 525.026 1153.47 523.866C1149.05 521.528 1143.65 520.01 1133.09 519.004L1133.08 519.004C1121.34 518.004 1113.63 516.823 1108.38 515.141C1103.19 513.475 1100.51 511.346 1098.72 508.473C1097.11 505.87 1096.2 502.621 1094.98 498.293C1094.81 497.678 1094.63 497.042 1094.45 496.383C1092.95 491.135 1090.93 484.631 1086.89 476.553C1084.35 471.457 1080.92 466.767 1077.3 462.235C1075.91 460.501 1074.51 458.801 1073.11 457.109C1070.82 454.343 1068.55 451.6 1066.42 448.773C1059.61 439.731 1054.55 430.26 1055.99 418.172C1056.09 417.732 1056.38 417.023 1056.87 416.025C1057.36 415.015 1058.03 413.778 1058.84 412.343C1059.87 410.515 1061.11 408.394 1062.49 406.036C1063.28 404.682 1064.12 403.251 1064.99 401.752C1069.74 393.561 1075.4 383.448 1079.43 373.63C1081.44 368.719 1083.06 363.857 1083.95 359.326C1084.84 354.803 1085.02 350.547 1084.09 346.88C1083.16 343.181 1081.11 340.104 1077.61 338.009C1074.49 336.141 1070.29 335.095 1064.84 334.997C1067.05 331.482 1067.75 329.441 1067.49 327.02C1067.37 325.885 1067.05 324.676 1066.66 323.25C1066.6 323.058 1066.55 322.862 1066.5 322.661C1066.03 320.944 1065.48 318.795 1064.99 315.847C1064.24 310.59 1063.87 307.646 1063.8 305.91C1063.72 304.19 1063.95 303.958 1064.07 303.84L1064.08 303.832C1064.15 303.769 1064.23 303.701 1064.36 303.597C1064.38 303.58 1064.4 303.563 1064.43 303.544C1064.54 303.455 1064.69 303.343 1064.83 303.216C1065.21 302.894 1065.64 302.465 1066.09 301.797C1066.99 300.483 1067.96 298.29 1068.97 294.242C1071 286.112 1071.26 277.709 1069.73 270.297C1068.2 262.892 1064.86 256.405 1059.62 252.219L1059.31 251.964L1058.9 252.005C1056.31 252.264 1054.56 252.79 1053.16 253.498C1052.02 254.073 1051.14 254.765 1050.29 255.425C1050.12 255.562 1049.94 255.698 1049.77 255.831C1048.75 256.612 1047.61 257.4 1045.83 258.12C1044.26 258.753 1042.18 259.344 1039.22 259.812C1040.24 254.502 1041.94 251.219 1043.86 248.887C1045.57 246.82 1047.47 245.471 1049.42 244.078C1049.89 243.743 1050.37 243.406 1050.84 243.055C1053.28 241.261 1055.63 239.194 1057.2 235.518C1058.2 233.191 1058.86 230.261 1059.08 226.407C1059.2 226.489 1059.34 226.554 1059.51 226.595C1059.83 226.675 1060.17 226.625 1060.28 226.608C1060.29 226.606 1060.3 226.604 1060.31 226.604C1060.45 226.586 1060.55 226.58 1060.66 226.597C1060.87 226.63 1061.37 226.787 1062.29 227.707L1062.74 228.155L1063.34 227.942C1070.48 225.389 1077.83 220.562 1084.6 215.421C1088.89 212.166 1093.01 208.732 1096.71 205.648C1098.83 203.882 1100.81 202.231 1102.61 200.794C1117.58 189.815 1122.62 188.233 1127.3 187.999C1128.23 187.952 1129.14 187.959 1130.14 187.967C1130.45 187.969 1130.77 187.972 1131.1 187.973C1132.48 187.977 1134.02 187.953 1135.85 187.777C1139.49 187.425 1144.23 186.473 1151.23 183.979C1153.68 183.673 1155.9 183.391 1157.93 183.133C1169.16 181.707 1174.57 181.021 1179.98 181.125C1185.17 181.225 1190.35 182.05 1200.65 183.691C1203.02 184.069 1205.67 184.491 1208.65 184.958L1270.49 221.859L1270.52 221.878L1270.55 221.894C1273.59 223.415 1276.13 224.428 1278.26 225.273L1278.37 225.317C1280.46 226.149 1282.1 226.799 1283.5 227.614C1286.18 229.178 1288.05 231.392 1289.98 237.103C1287.51 257.373 1289.83 272.311 1295.04 283.849C1300.28 295.432 1308.39 303.493 1317.28 310.055C1321.73 313.333 1326.37 316.242 1330.96 319.027C1331.96 319.636 1332.96 320.239 1333.96 320.838C1337.51 322.984 1341 325.084 1344.31 327.272C1352.74 332.841 1359.9 338.875 1364.04 347.314C1364.43 349.599 1363.77 352.408 1362.08 355.687C1360.37 359.011 1357.67 362.699 1354.22 366.62C1347.31 374.46 1337.49 383.104 1326.88 391.465C1305.67 408.184 1281.47 423.652 1271.52 429.124L1271.51 429.127L1271.5 429.131C1228.41 453.683 1217.69 469.331 1212.69 482.265C1211.76 484.685 1211.02 487.012 1210.32 489.242C1210.1 489.952 1209.88 490.652 1209.65 491.343C1208.72 494.219 1207.74 496.962 1206.29 499.704C1203.4 505.156 1198.61 510.725 1188.46 517.155L1188.44 517.17L1188.42 517.186Z"
            fill="#9DD3AF" stroke="white" stroke-width="2" class="state-map-path" id="kaduna_state_WgjeoBj2k" />
        <path
            d="M1511.01 512.009C1511.15 521.832 1513.44 532.087 1518.14 539.891C1523.03 547.999 1530.59 553.522 1541.05 552.999L1541.06 552.998C1545.48 552.738 1549.98 551.249 1554.48 549.461C1556.11 548.811 1557.74 548.126 1559.37 547.441C1562.29 546.213 1565.21 544.983 1568.2 543.945C1577.44 540.744 1586.78 539.589 1596.4 546.8C1602.16 551.123 1606.07 558.874 1609.97 567.295C1610.32 568.051 1610.67 568.812 1611.02 569.576C1614.52 577.203 1618.14 585.091 1623.26 590.676L1623.29 590.701L1623.31 590.724C1634.06 600.965 1645.37 602.766 1655.22 601.871C1660.12 601.425 1664.65 600.313 1668.56 599.263C1669.25 599.075 1669.93 598.89 1670.58 598.712C1673.08 598.028 1675.22 597.442 1677 597.145C1676.9 610.563 1675.14 621.793 1671.08 631.23C1666.91 640.913 1660.3 648.763 1650.46 655.162L1650 655.457V656C1650 663.498 1650.37 668.438 1651.3 671.712C1651.78 673.365 1652.4 674.649 1653.25 675.634C1654.1 676.63 1655.12 677.266 1656.28 677.69C1657.43 678.106 1658.72 678.32 1660.12 678.478C1660.82 678.558 1661.56 678.625 1662.34 678.695L1662.4 678.7C1663.16 678.769 1663.97 678.841 1664.82 678.932C1668.28 679.301 1672.5 679.975 1677.64 681.934L1677.69 681.952L1677.74 681.965C1688.48 684.895 1700.71 690.599 1704.8 701.609C1701.16 704.096 1698.78 705.543 1697.06 706.285C1695.29 707.045 1694.35 707.01 1693.47 706.687C1692.98 706.506 1692.47 706.217 1691.81 705.809C1691.63 705.696 1691.43 705.572 1691.23 705.441C1690.72 705.118 1690.14 704.749 1689.49 704.37C1687.62 703.284 1685.1 702.059 1681.26 701.034L1680.1 700.726L1680 701.917C1679.51 707.86 1678.77 711.017 1677.81 713.658C1677.35 714.923 1676.84 716.08 1676.25 717.4L1676.15 717.625C1675.52 719.035 1674.82 720.62 1674.06 722.649L1674.06 722.666L1674.05 722.684C1672.02 728.786 1671.74 732.436 1672.13 735.865C1672.3 737.298 1672.58 738.687 1672.88 740.155C1672.93 740.406 1672.98 740.66 1673.04 740.917C1673.39 742.681 1673.76 744.639 1674 747.083C1674.24 750.729 1673.87 753.37 1673 755.476C1672.13 757.575 1670.72 759.231 1668.74 760.851C1666.85 762.399 1664.49 763.874 1661.61 765.667C1661.45 765.77 1661.28 765.874 1661.11 765.98C1658.03 767.904 1654.44 770.171 1650.4 773.197C1648.43 774.642 1646.1 776.288 1643.53 778.099C1636.42 783.123 1627.5 789.418 1619.48 796.238C1614.01 800.885 1608.92 805.811 1605.07 810.794C1601.22 815.764 1598.53 820.878 1598.01 825.895L1598 825.904C1597.26 833.598 1596.09 838.44 1594.8 841.782C1593.57 844.994 1592.21 846.858 1590.95 848.608L1590.82 848.788C1589.49 850.624 1588.23 852.409 1587.48 855.431C1586.74 858.411 1586.5 862.535 1587 869.077L1587 869.1L1587.01 869.124C1587.28 871.27 1588.51 874.948 1590.24 879.321C1591.99 883.734 1594.27 888.971 1596.72 894.292C1601.6 904.931 1607.11 915.953 1610.12 921.479L1610.14 921.518L1610.17 921.555L1612.13 924.504C1612.92 926.057 1613.76 927.224 1614.53 928.252L1614.68 928.458C1615.39 929.42 1616 930.235 1616.48 931.197C1617.47 933.177 1618 935.928 1617.02 941.809C1616.05 946.152 1614.37 949.283 1612.21 951.562C1610.04 953.847 1607.33 955.332 1604.21 956.294C1598.51 958.046 1591.61 958.026 1584.39 958.005C1583.84 958.003 1583.29 958.001 1582.74 958.001C1579.78 948.343 1576.22 941.52 1570.28 937.779C1564.19 933.94 1555.86 933.507 1543.8 936.021L1543.78 936.025L1543.76 936.03L1503.77 946.027C1503.77 946.027 1503.77 946.028 1503.76 946.028C1499.62 947.003 1496.79 946.78 1494.89 945.786C1493.03 944.812 1491.84 942.984 1491.23 940.219C1490.6 937.436 1490.59 933.827 1491 929.517C1491.41 925.22 1492.23 920.303 1493.23 914.933C1493.67 912.59 1494.14 910.162 1494.62 907.665C1496.35 898.745 1498.24 888.951 1499.37 879.051C1500.81 866.38 1501.01 853.432 1497.97 841.763C1491.39 812.921 1473.9 797.988 1458.02 784.732C1457.8 784.554 1457.59 784.375 1457.37 784.197C1441.71 771.13 1427.97 759.664 1427 737.978C1427 731.106 1428.73 721.463 1431.09 712.249C1433.46 703.048 1436.43 694.395 1438.88 689.481C1439.56 688.341 1440.2 687.274 1440.81 686.271C1445.46 678.549 1447.85 674.584 1449.33 669.927C1450.78 665.357 1451.35 660.108 1452.46 649.957C1452.63 648.455 1452.8 646.845 1452.99 645.115C1454.48 632.735 1456.95 626.331 1459.54 620.401C1459.81 619.776 1460.09 619.155 1460.37 618.532C1462.72 613.234 1465.13 607.798 1466.94 598.429C1473.04 590.661 1473 582.119 1472.62 572.959C1472.6 572.421 1472.58 571.881 1472.56 571.338C1472.18 562.507 1471.78 552.984 1475.93 542.364L1475.93 542.362C1479.43 533.379 1483.11 525.805 1488.57 520.465C1493.82 515.336 1500.78 512.199 1511.01 512.009Z"
            fill="#9DD3AF" stroke="white" stroke-width="2" class="state-map-path" id="kaduna_state_JpX4IeBFa" />
        <path
            d="M678.987 271.164L678.983 271.187C677.596 278.467 676.695 285.606 675.809 292.618C675.422 295.69 675.037 298.738 674.616 301.763C673.238 311.655 671.477 321.246 667.935 330.355C663.646 341.958 658.41 350.409 653.427 357.482C651.887 359.669 650.383 361.708 648.944 363.661C645.695 368.067 642.775 372.028 640.505 376.226C637.272 382.203 635.42 388.575 636.075 397.142C636.724 405.616 639.829 416.285 646.58 430.875C662.404 427.945 679.235 426.011 697.056 427.001L697.07 427.002L697.083 427.003L698.038 427.083C709.58 428.046 717.396 428.698 723.672 427.396C729.988 426.085 734.794 422.772 740.194 415.409L740.202 415.397L740.211 415.386C741.448 413.795 742.747 412.136 744.091 410.417C758.011 392.626 776.917 368.462 785.065 347.645C788.283 338.847 790.157 331.399 791.708 325.232C791.953 324.259 792.189 323.318 792.422 322.408C794.111 315.808 795.625 310.672 798.632 307.331C801.733 303.885 806.255 302.494 813.471 302.845C820.663 303.194 830.755 305.283 845.251 309.032L845.258 309.034L845.266 309.036C859.656 313.006 877.81 314.999 895.743 314.875C913.488 314.752 930.939 312.555 944.252 308.194C945.93 304.137 947.381 300.203 948.812 296.323C949.436 294.631 950.056 292.949 950.69 291.272C952.818 285.637 955.085 280.092 958.114 274.537C959.817 271.131 961.212 268.517 962.332 266.417C962.854 265.439 963.316 264.572 963.722 263.789C965.01 261.306 965.74 259.652 966.148 257.786C966.559 255.909 966.656 253.759 966.579 250.272C966.535 248.312 966.437 245.968 966.316 243.047C966.226 240.894 966.124 238.428 966.02 235.571C962.238 233.284 958.057 231.694 953.851 230.192C953.334 230.007 952.816 229.823 952.298 229.64C948.472 228.285 944.655 226.932 941.28 225.132C937.423 223.075 934.062 220.395 931.814 216.362C929.568 212.333 928.493 207.061 929.003 199.929L929.004 199.915L929.005 199.9C930.005 189.904 932.016 177.688 937.152 169.47L937.213 169.373L937.293 169.293L937.303 169.283C939.799 166.787 943.076 163.51 946.738 160.48C950.276 157.551 954.229 154.806 958.242 153.221L962.872 142.107C962.557 141.628 962.268 141.177 961.991 140.746C960.645 138.65 959.585 136.999 957.293 134.707L957.259 134.673L957.228 134.636C947.512 122.838 941.297 118.889 933.245 113.774C929.781 111.573 925.977 109.157 921.409 105.806L921.396 105.797L921.384 105.787C916.391 101.88 913.272 99.1895 911.178 97.3839C910.852 97.1025 910.551 96.8426 910.271 96.603C909.225 95.7058 908.525 95.1298 907.966 94.7594C907.428 94.4035 907.085 94.2815 906.758 94.2431C906.397 94.2006 905.962 94.2476 905.191 94.3992C904.969 94.4429 904.719 94.4951 904.441 94.5532C903.801 94.6869 903.011 94.8519 902.062 95.0165C899.296 95.4961 895.051 96 888 96H887.465L887.168 95.5547C886.378 94.369 885.474 92.6049 884.444 90.5707C884.359 90.4022 884.272 90.2315 884.185 90.0587C883.205 88.1217 882.095 85.9249 880.814 83.6274C878.021 78.6152 874.462 73.2006 869.839 69.1251C865.235 65.0664 859.604 62.3569 852.608 62.6708C845.583 62.986 837.033 66.3552 826.629 74.7772L826.625 74.7808C809.315 88.6286 803.679 101.425 800.975 113.346C800.079 117.298 799.51 121.118 798.948 124.894C798.651 126.885 798.357 128.863 798.017 130.841C797.042 136.52 795.708 142.077 792.886 147.464L792.595 148.02L791.968 147.999C779.914 147.611 770.756 143.475 761.991 139.517C759.317 138.309 756.678 137.118 754.006 136.054C748.255 133.766 742.282 132.026 735.3 131.828C728.318 131.629 720.267 132.97 710.372 136.928L710.354 136.935L710.337 136.942C703.497 139.384 698.774 143.234 696.669 148.144C694.575 153.031 694.978 159.201 698.876 166.517C700.826 169.927 702.276 171.618 703.881 173.47L703.96 173.561C705.577 175.426 707.349 177.471 709.848 181.47L709.859 181.487L709.868 181.504C710.645 182.863 711.348 184.074 711.999 185.194C714.684 189.821 716.481 192.917 718.919 198.606L719.169 199.187L718.75 199.662L703.75 216.662L703.452 217H703C703.006 217 703.005 217 702.995 217.003C702.963 217.012 702.839 217.047 702.606 217.181C702.341 217.332 702.043 217.547 701.75 217.781C701.461 218.012 701.198 218.245 701.007 218.422C700.972 218.454 700.94 218.484 700.911 218.511C700.859 218.56 700.816 218.601 700.783 218.633C700.757 218.658 700.737 218.678 700.724 218.69L700.71 218.704L700.707 218.707L700.707 218.707L678.987 271.164ZM678.987 271.164L678.99 271.141C680.985 257.178 682.969 249.529 685.793 243.023C687.794 238.411 690.212 234.375 693.401 229.051C694.725 226.839 696.183 224.405 697.8 221.614L678.987 271.164Z"
            fill="#D2D3D5" stroke="white" stroke-width="2" class="state-map-path" id="kaduna_state_MB6r7JJ0w" />
        <path
            d="M737.474 1235.88L737.498 1235.87L737.521 1235.85C746.339 1230.46 755.419 1228.74 763.635 1227.62C764.863 1227.45 766.078 1227.29 767.272 1227.14C770.045 1226.79 772.704 1226.45 775.15 1226C778.573 1225.37 781.702 1224.49 784.316 1222.97C793.364 1222.11 799.808 1218.9 806.259 1215.69C807.721 1214.96 809.183 1214.23 810.675 1213.53C818.802 1209.71 828.123 1206.52 843.907 1208L843.932 1208L843.957 1208C860.927 1208.74 874.535 1213.85 889.11 1219.33C894.128 1221.21 899.26 1223.14 904.684 1224.95C907.849 1226 912.49 1226.38 917.831 1226.36C923.202 1226.34 929.391 1225.93 935.714 1225.37C941.203 1224.88 946.773 1224.28 952.015 1223.71C958.908 1222.97 965.233 1222.28 970.059 1222L970.087 1222L970.115 1221.99C976.677 1221.24 981.146 1219.96 984.504 1218C987.885 1216.03 990.052 1213.42 992.097 1210.16C993.051 1208.64 993.982 1206.97 995.001 1205.15C998.333 1199.2 1002.61 1191.56 1011.73 1181.68L1011.74 1181.67L1011.75 1181.66C1015.72 1177.19 1022.69 1169.98 1030.52 1163.39C1038.38 1156.78 1046.98 1150.91 1054.25 1148.97C1057.93 1148.05 1061.93 1148.89 1066.06 1150.93C1070.19 1152.96 1074.36 1156.14 1078.33 1159.74C1082.29 1163.33 1086.01 1167.3 1089.26 1170.89C1090.24 1171.98 1091.18 1173.03 1092.07 1174.03C1094.11 1176.31 1095.89 1178.3 1097.29 1179.71L1097.31 1179.72L1097.32 1179.73C1103.05 1185.08 1108.94 1189.42 1114.59 1193.59C1116.39 1194.92 1118.16 1196.23 1119.9 1197.55C1127.12 1203.03 1133.77 1208.7 1139.18 1216.57L1139.18 1216.58L1139.19 1216.59C1144.46 1223.87 1148.73 1228.42 1152.76 1231.1C1156.83 1233.81 1160.61 1234.57 1164.8 1234.37C1167.85 1234.23 1171.17 1233.57 1174.96 1232.82C1176.25 1232.56 1177.59 1232.29 1179 1232.03C1184.32 1231.04 1190.69 1230.09 1198.77 1230.01C1194.98 1247.43 1182.24 1256.76 1169.34 1266.21C1167.65 1267.45 1165.95 1268.69 1164.27 1269.95C1156.95 1275.46 1149.97 1281.37 1145.28 1289.24C1140.63 1297.05 1138.29 1306.71 1139.95 1319.67C1139.66 1320.03 1139.44 1320.38 1139.29 1320.62C1139.24 1320.7 1139.2 1320.77 1139.17 1320.82C1139.12 1320.89 1139.08 1320.94 1139.05 1320.97C1139.04 1320.99 1139.04 1320.99 1139.03 1321C1139.02 1321 1139.01 1321 1139 1321H1138.59L1138.29 1321.29L1137.31 1322.28C1137.3 1322.28 1137.3 1322.28 1137.3 1322.29C1123.36 1335.74 1114.47 1350.8 1106.32 1364.62C1105.92 1365.29 1105.53 1365.95 1105.14 1366.62C1096.74 1380.82 1088.94 1393.47 1076.94 1401.83C1044.01 1384 1027.97 1362.29 1014.43 1343.66L1013.82 1342.81C1000.5 1324.48 989.282 1309.04 966.212 1304.02L966.211 1304.02C947.381 1299.95 934.596 1305.06 924.039 1312.69C919.401 1316.04 915.184 1319.89 911.096 1323.62C910.562 1324.11 910.03 1324.59 909.499 1325.07C904.892 1329.26 900.4 1333.19 895.5 1336.13C886.688 1341.03 880.92 1341.47 875.293 1340.51C872.971 1340.12 870.674 1339.49 868.153 1338.79C867.552 1338.62 866.938 1338.46 866.308 1338.28C863.057 1337.41 859.441 1336.52 855.121 1336.01C842.951 1334.49 836.007 1336.26 830.319 1338.97C828.409 1339.88 826.623 1340.91 824.862 1341.93C824.057 1342.39 823.257 1342.85 822.453 1343.3C819.934 1344.69 817.275 1345.99 814.006 1346.96C811.714 1346.25 810.23 1345.62 809.142 1345.04C808.209 1344.54 807.559 1344.08 806.89 1343.61C806.743 1343.51 806.596 1343.41 806.444 1343.3C804.681 1342.08 802.794 1341.04 797.206 1340.02C784.458 1336.97 774.507 1339.28 765.313 1342.3C763.591 1342.87 761.903 1343.45 760.233 1344.03C753.069 1346.53 746.227 1348.91 738.443 1349L730.096 1339.72C732.06 1331.78 735.382 1327.54 739.196 1323.84C740.159 1322.91 741.169 1322 742.206 1321.07C745.36 1318.22 748.762 1315.16 751.832 1310.55L752.064 1310.21L751.979 1309.8C750.718 1303.75 749.117 1299.63 747.024 1296.93C744.886 1294.18 742.283 1292.97 739.235 1292.63C736.265 1292.3 732.846 1292.8 729.046 1293.4C728.736 1293.45 728.423 1293.5 728.107 1293.55C724.651 1294.11 720.816 1294.72 716.505 1294.97C712.232 1288.76 709.855 1284.43 708.064 1279.53C706.279 1274.65 705.065 1269.19 703.175 1260.68C703.158 1260.6 703.141 1260.53 703.124 1260.45C707.746 1257.33 712.086 1253.92 716.392 1250.54C717.508 1249.66 718.623 1248.78 719.739 1247.91C725.355 1243.55 731.051 1239.34 737.474 1235.88Z"
            fill="#F6AFCE" stroke="white" stroke-width="2" class="state-map-path" id="kaduna_state_G3hvESrEx" />
        <path
            d="M1255.95 1439.7L1255.95 1439.69L1255.95 1439.68C1249.39 1420.02 1241.05 1408.86 1230.52 1399.99C1225.28 1395.57 1219.51 1391.72 1213.21 1387.69C1211.96 1386.89 1210.69 1386.08 1209.39 1385.26C1204.32 1382.04 1198.92 1378.6 1193.14 1374.57C1194.02 1371.06 1194.23 1370.3 1194.62 1369.62C1194.76 1369.37 1194.92 1369.15 1195.16 1368.81C1195.29 1368.62 1195.44 1368.4 1195.64 1368.11C1196.13 1367.39 1196.78 1366.39 1197.7 1364.78C1205.69 1361.23 1211.24 1356.62 1215.31 1351.21C1219.43 1345.75 1222 1339.54 1224.08 1332.92C1225.12 1329.62 1226.04 1326.2 1226.96 1322.72C1227.04 1322.43 1227.12 1322.14 1227.19 1321.85C1228.04 1318.65 1228.9 1315.4 1229.88 1312.11C1232.01 1304.95 1234.67 1297.67 1238.86 1290.51C1244.81 1280.85 1250.48 1274.51 1256 1270.11C1261.51 1265.72 1266.9 1263.23 1272.33 1261.32C1274.74 1260.47 1277.17 1259.73 1279.63 1258.99C1288.15 1256.4 1297.01 1253.71 1306.39 1245.97C1312.97 1245.46 1325.05 1244.47 1336.4 1242.74C1342.17 1241.86 1347.78 1240.79 1352.4 1239.49C1354.7 1238.85 1356.79 1238.13 1358.53 1237.35C1360.23 1236.59 1361.67 1235.73 1362.67 1234.75C1368.71 1229.89 1369.82 1224.56 1370.85 1219.65C1371.15 1218.24 1371.44 1216.86 1371.83 1215.54C1372.73 1212.55 1374.17 1209.67 1377.41 1206.92C1380.59 1204.22 1385.55 1201.6 1393.54 1199.18C1396.98 1204.96 1400.87 1210.06 1404.84 1215.12C1405.37 1215.8 1405.91 1216.48 1406.45 1217.16C1410.06 1221.74 1413.7 1226.36 1417.16 1231.54C1418.3 1233.4 1419.36 1235.27 1420.43 1237.13C1421.22 1238.53 1422.02 1239.93 1422.86 1241.34C1424.78 1244.56 1426.82 1247.66 1429.27 1250.3C1431.72 1252.95 1434.59 1255.15 1438.17 1256.54C1441.74 1257.94 1445.97 1258.51 1451.1 1258L1451.12 1257.99L1451.14 1257.99C1462.14 1256.49 1477.28 1250.32 1493.23 1243.81L1493.88 1243.55C1509.77 1237.07 1526.5 1230.29 1541.13 1227.2C1542.13 1235.23 1543.98 1240.16 1546.63 1247.2C1546.77 1247.57 1546.92 1247.96 1547.06 1248.35L1547.07 1248.36L1547.07 1248.37C1548.58 1252.13 1549.67 1254.5 1550.53 1256.39C1550.82 1257.02 1551.09 1257.6 1551.34 1258.16C1552.26 1260.25 1552.97 1262.11 1553.89 1265.69C1546.38 1273.11 1538.82 1277.81 1531.44 1282.41C1528.23 1284.41 1525.05 1286.38 1521.93 1288.55C1511.54 1295.77 1502.15 1304.93 1495.06 1323.65L1495.06 1323.66L1495.06 1323.66C1484.56 1353.16 1477.88 1362.16 1473 1366.1C1471.78 1367.08 1470.65 1367.76 1469.56 1368.37C1469.34 1368.5 1469.12 1368.62 1468.89 1368.75C1468.03 1369.22 1467.16 1369.71 1466.32 1370.29C1464.14 1371.8 1462.16 1373.94 1460.11 1378.54C1458.53 1381.21 1457.51 1385.35 1456.65 1389.29C1456.49 1390.03 1456.33 1390.76 1456.18 1391.48C1455.55 1394.44 1454.97 1397.15 1454.27 1399.09C1449.32 1399.77 1441.63 1400.07 1432.62 1400.25C1428.63 1400.33 1424.37 1400.39 1420 1400.45C1414.14 1400.53 1408.07 1400.61 1402.1 1400.75C1391.66 1401 1381.46 1401.44 1373.18 1402.38C1369.04 1402.85 1365.36 1403.45 1362.34 1404.23C1359.36 1404.99 1356.92 1405.96 1355.37 1407.23L1355.31 1407.28L1355.25 1407.34C1351.77 1411.25 1350.96 1415.42 1350.1 1419.82C1349.92 1420.75 1349.74 1421.7 1349.52 1422.66C1348.31 1428.13 1346.13 1434.45 1338.29 1442.29L1338.28 1442.31L1338.26 1442.33C1332.53 1448.61 1326.9 1454.42 1321.54 1459.95C1319.66 1461.89 1317.82 1463.79 1316.01 1465.67C1309.06 1472.9 1302.68 1479.78 1297.33 1486.77C1286.73 1500.61 1280.13 1514.92 1280.97 1533.44C1274.84 1536.88 1270.48 1537.59 1267.36 1536.74C1264.19 1535.87 1261.99 1533.29 1260.42 1529.49C1258.85 1525.69 1257.99 1520.84 1257.4 1515.74C1257.1 1513.21 1256.88 1510.63 1256.66 1508.12L1256.61 1507.54C1256.42 1505.23 1256.23 1502.98 1255.99 1500.89L1255.99 1500.88C1254.63 1489.52 1255.77 1479.84 1256.84 1470.75C1256.93 1469.95 1257.03 1469.16 1257.12 1468.36C1258.24 1458.61 1259.02 1449.42 1255.95 1439.7Z"
            fill="#F6AFCE" stroke="white" stroke-width="2" class="state-map-path" id="kaduna_state_IiPmul01Q" />
        <path
            d="M1340 1482H1339.59L1339.29 1482.29C1336.86 1484.73 1333.9 1487.82 1330.58 1491.29C1324.95 1497.19 1318.29 1504.16 1311.43 1510.78C1306 1516.02 1300.5 1520.99 1295.37 1524.96C1290.76 1528.52 1286.52 1531.23 1282.94 1532.61C1282.33 1515.07 1288.65 1501.4 1298.92 1487.98C1304.19 1481.09 1310.51 1474.28 1317.46 1467.05C1319.25 1465.19 1321.09 1463.29 1322.96 1461.36C1328.32 1455.83 1333.97 1450 1339.72 1443.69C1347.87 1435.54 1350.19 1428.86 1351.48 1423.09C1351.71 1422.03 1351.91 1421.02 1352.1 1420.05C1352.95 1415.72 1353.65 1412.18 1356.69 1408.73C1357.9 1407.76 1359.97 1406.9 1362.84 1406.16C1365.73 1405.42 1369.32 1404.83 1373.41 1404.37C1381.6 1403.44 1391.72 1403 1402.15 1402.75C1408.12 1402.61 1414.16 1402.53 1419.99 1402.45C1424.37 1402.39 1428.63 1402.33 1432.66 1402.25C1442.01 1402.06 1450.07 1401.75 1455.15 1400.99L1455.72 1400.9L1455.93 1400.37C1456.78 1398.23 1457.46 1395.06 1458.15 1391.82C1458.3 1391.12 1458.45 1390.41 1458.6 1389.71C1459.48 1385.68 1460.46 1381.85 1461.86 1379.51L1461.89 1379.46L1461.91 1379.41C1463.85 1375.04 1465.62 1373.2 1467.46 1371.93C1468.21 1371.41 1468.97 1370.99 1469.82 1370.52C1470.05 1370.39 1470.3 1370.26 1470.54 1370.12C1471.68 1369.48 1472.91 1368.73 1474.25 1367.65C1479.61 1363.34 1486.44 1353.84 1496.94 1324.34C1503.86 1306.07 1512.96 1297.22 1523.07 1290.2C1526.04 1288.13 1529.13 1286.2 1532.3 1284.23C1539.76 1279.59 1547.63 1274.68 1555.33 1267.08C1560.19 1268.07 1563.76 1269.73 1566.51 1271.85C1569.37 1274.06 1571.41 1276.81 1573.12 1279.97C1574.68 1282.88 1575.94 1286.09 1577.3 1289.54C1577.43 1289.88 1577.56 1290.21 1577.69 1290.55C1579.2 1294.37 1580.84 1298.43 1583.13 1302.49L1583.13 1302.5C1588.71 1312.13 1594.1 1317.05 1600.83 1320.16C1605.89 1322.49 1611.71 1323.79 1618.8 1325.38C1620.77 1325.82 1622.83 1326.28 1625 1326.79C1625.01 1330.61 1625.12 1334.98 1625.23 1339.59L1625.25 1340.57C1625.38 1345.87 1625.5 1351.45 1625.5 1356.88C1625.5 1367.78 1624.99 1377.86 1623.05 1383.68L1623.05 1383.69L1623.05 1383.7C1620.64 1391.39 1615.86 1395.72 1609.98 1399.27C1607.57 1400.73 1604.99 1402.04 1602.31 1403.41C1601.7 1403.72 1601.09 1404.03 1600.48 1404.35C1597.16 1406.05 1593.74 1407.89 1590.43 1410.18L1589.62 1410.74L1590.17 1411.55C1591.72 1413.88 1593.34 1415.63 1594.88 1417.12C1595.52 1417.74 1596.13 1418.3 1596.7 1418.84C1597.57 1419.63 1598.37 1420.37 1599.15 1421.19C1600.41 1422.51 1601.49 1423.92 1602.32 1425.76C1603.15 1427.59 1603.75 1429.9 1604 1433.04C1603.99 1436.91 1603.02 1442.3 1601.9 1447.41C1601.34 1449.96 1600.73 1452.47 1600.21 1454.65C1599.71 1456.72 1599.29 1458.49 1599.04 1459.71C1593.07 1474.61 1584.14 1490.45 1574.27 1501.31C1550.74 1525.35 1544.86 1537.49 1542.66 1545.1C1542.21 1546.69 1541.91 1548.07 1541.65 1549.28C1541.61 1549.51 1541.56 1549.73 1541.51 1549.94C1541.21 1551.32 1540.94 1552.44 1540.48 1553.49C1539.58 1555.52 1537.9 1557.45 1533.48 1560.15L1533.45 1560.17L1533.42 1560.19C1526.81 1564.91 1519.24 1565.97 1506.63 1566C1503.07 1558.58 1501.09 1553.04 1499.59 1548.29C1499.11 1546.76 1498.67 1545.3 1498.25 1543.87C1497.33 1540.8 1496.47 1537.91 1495.31 1534.89C1491.87 1525.98 1485.78 1515.87 1467.75 1495.34C1464.97 1492.13 1462.44 1489.19 1460.14 1486.52C1453.14 1478.41 1448.21 1472.7 1444.48 1468.67C1439.55 1463.33 1436.61 1460.79 1433.63 1459.57C1432.13 1458.96 1430.66 1458.7 1429.01 1458.54C1428.11 1458.45 1427.11 1458.4 1426 1458.33C1425.13 1458.28 1424.19 1458.23 1423.2 1458.16C1418.57 1457.82 1411.95 1457.02 1401.27 1454.04L1401.26 1454.03C1383.53 1449.29 1372.47 1446.52 1365.55 1445.5C1362.11 1444.98 1359.58 1444.89 1357.74 1445.25C1355.83 1445.62 1354.59 1446.5 1353.86 1447.92C1353.19 1449.22 1353.02 1450.89 1352.91 1452.67C1352.88 1453.14 1352.86 1453.62 1352.84 1454.13C1352.77 1455.59 1352.69 1457.18 1352.48 1458.96C1351.9 1463.66 1350.34 1469.53 1345.24 1476.34C1344.73 1476.86 1343.74 1477.85 1342.87 1478.84C1342.42 1479.35 1341.99 1479.89 1341.66 1480.38C1341.49 1480.62 1341.34 1480.87 1341.22 1481.12C1341.22 1481.12 1341.22 1481.13 1341.21 1481.14C1340.77 1481.31 1340.49 1481.6 1340.31 1481.77L1340.29 1481.79C1340.08 1482.01 1340.06 1482 1340.02 1482C1340.01 1482 1340.01 1482 1340 1482Z"
            fill="#9DD3AF" stroke="white" stroke-width="2" class="state-map-path" id="kaduna_state_jyiH5pgsM" />
        <path
            d="M1248.92 103.617L1248.92 103.617L1248.92 103.606C1237.05 75.9146 1215.45 42.3846 1198.46 24.1001C1201.03 22.0737 1203.24 20.8931 1205.31 20.2161C1207.6 19.4683 1209.78 19.3136 1212.23 19.3747C1213.35 19.4028 1214.53 19.4783 1215.8 19.5591C1220.01 19.8283 1225.15 20.1562 1232.16 18.9864L1232.17 18.9852L1232.18 18.9838C1240.75 17.426 1246.44 13.4509 1252.12 9.48991C1253.89 8.25064 1255.67 7.01274 1257.53 5.85067C1266.26 0.517734 1276.64 0.0618126 1284.55 4.0194C1292.41 7.9492 1297.97 16.298 1297 28.9233L1297 28.9389L1297 28.9546C1296.57 38.5415 1291.03 45.9675 1285.58 53.2796C1284.99 54.0729 1284.4 54.8648 1283.82 55.6581C1277.95 63.6467 1272.85 71.8194 1277.07 82.3714L1277.07 82.378L1277.08 82.3846C1282.23 94.7439 1290.52 98.8821 1297.61 101.919C1299.37 102.676 1300.46 103.026 1301.18 103.156C1301.56 103.223 1301.86 103.238 1302.14 103.206C1302.35 103.182 1302.52 103.132 1302.62 103.099C1302.65 103.112 1302.7 103.134 1302.77 103.166C1303.18 103.365 1303.93 103.825 1305.45 104.832L1305.45 104.836C1312.66 109.56 1316.56 112.78 1319.05 115.011C1319.68 115.571 1320.22 116.07 1320.7 116.522L1320.74 116.555C1321.21 116.99 1321.64 117.387 1322.04 117.741C1322.87 118.47 1323.63 119.057 1324.55 119.519C1326.38 120.432 1328.7 120.781 1333.2 121.168C1334.87 121.313 1336.84 121.461 1339.21 121.64C1343.35 121.952 1348.72 122.357 1355.9 122.995C1358.99 123.367 1361.21 123.794 1362.79 124.297C1364.39 124.803 1365.23 125.352 1365.69 125.895C1366.12 126.407 1366.3 127.022 1366.3 127.908C1366.3 128.743 1366.15 129.704 1365.96 130.92C1365.93 131.058 1365.91 131.199 1365.89 131.343C1365.44 134.132 1364.95 137.795 1366.14 142.496C1367.33 147.18 1370.17 152.809 1376.22 159.633C1377.4 161.2 1378.26 162.451 1379.13 163.72C1379.35 164.042 1379.57 164.365 1379.8 164.694C1380.93 166.326 1382.19 168.086 1384.19 170.591C1390.78 180.456 1397.24 184.685 1403.84 185.661C1410.37 186.627 1416.83 184.359 1423.24 181.804C1423.99 181.508 1424.73 181.207 1425.48 180.906C1431.24 178.582 1437.04 176.243 1443.18 175.636C1450.03 174.958 1457.33 176.444 1465.37 182.78C1484.33 198.245 1488.44 204.876 1490.34 209.041C1490.57 209.539 1490.77 210.023 1490.97 210.498C1491.59 211.977 1492.18 213.371 1493.34 214.828C1494.77 216.605 1497.04 218.495 1501.27 221.117C1494.41 226.314 1486.3 225.574 1478.27 222.083C1469.81 218.402 1461.66 211.747 1455.68 206.263L1455.66 206.247L1455.64 206.232C1454.18 205.013 1453.42 204.192 1453 203.631C1452.7 203.237 1452.58 203.007 1452.46 202.763C1452.39 202.64 1452.32 202.514 1452.23 202.36C1452.1 202.135 1451.93 201.905 1451.66 201.687C1451.41 201.479 1451.11 201.315 1450.76 201.161C1450.08 200.864 1449.01 200.534 1447.27 200.038C1445.56 199.548 1444.59 199.184 1444.02 198.96C1443.96 198.935 1443.89 198.909 1443.83 198.884C1443.64 198.809 1443.47 198.739 1443.34 198.696L1443.33 198.694C1443.19 198.647 1442.76 198.504 1442.3 198.731C1442.09 198.837 1441.96 198.984 1441.89 199.07C1441.82 199.151 1441.76 199.241 1441.73 199.283C1441.67 199.385 1441.59 199.492 1441.47 199.636C1441.21 199.929 1440.67 200.429 1439.49 201.142L1439.38 201.206L1439.29 201.293C1437.85 202.74 1436.94 204.138 1436.56 205.549C1436.18 206.987 1436.38 208.336 1436.95 209.611C1437.5 210.859 1438.42 212.043 1439.49 213.207C1440.45 214.241 1441.57 215.309 1442.74 216.424C1442.89 216.565 1443.04 216.706 1443.18 216.849C1448.46 221.875 1454.79 228.24 1454.99 239.443C1438.43 249.481 1421.1 249.975 1401.49 247.632C1394.68 246.818 1387.63 245.666 1380.24 244.461C1376.88 243.912 1373.46 243.353 1369.95 242.809C1358.77 241.073 1346.85 239.504 1334.05 239.001L1291.73 236.049C1289.75 230.36 1287.67 227.735 1284.5 225.886C1282.98 224.994 1281.21 224.295 1279.19 223.494L1278.99 223.414C1276.88 222.575 1274.42 221.593 1271.48 220.122L1211.55 184.358C1228.65 179.567 1242.04 169.927 1249.26 156.473C1256.8 142.403 1257.51 124.331 1248.92 103.617Z"
            fill="#91D8F7" stroke="white" stroke-width="2" class="state-map-path" id="kaduna_state_ZKH2D1U6w" />
        <path
            d="M1118.99 127.859L1118.98 127.821L1118.98 127.783C1117.36 120.504 1113.29 117.015 1109.49 113.76C1108.39 112.821 1107.32 111.903 1106.33 110.918C1104.11 108.698 1102.19 106.064 1101.11 102.007C1100.05 98.0636 1099.77 92.7092 1100.86 84.9934C1103.97 84.9446 1106.29 84.6219 1108.27 83.9278C1110.44 83.1646 1112.11 81.9792 1113.92 80.3709C1114.89 79.504 1115.9 78.5151 1117.05 77.3863C1120.17 74.3325 1124.33 70.255 1131.6 64.8L1131.61 64.7957L1131.61 64.7913C1136.73 60.8371 1141.13 57.0611 1145.3 53.4819C1159.09 41.655 1170.37 31.9769 1196.68 25.1166C1213.53 43.1277 1235.21 76.7052 1247.08 104.389C1255.49 124.672 1254.7 142.098 1247.49 155.527C1240.31 168.923 1226.65 178.51 1208.95 182.981C1206.01 182.52 1203.39 182.102 1201.03 181.726C1190.71 180.081 1185.36 179.228 1180.02 179.125C1174.45 179.018 1168.87 179.727 1157.66 181.151C1155.61 181.411 1153.38 181.695 1150.92 182.003L1127.76 182.968C1118.11 146.877 1118.65 143.656 1119.32 139.702C1119.67 137.612 1120.06 135.318 1118.99 127.859Z"
            fill="#D2E28B" stroke="white" stroke-width="2" class="state-map-path" id="kaduna_state_neCntxJXp" />
        <path
            d="M1524.35 1136.94L1525.17 1136.63L1524.97 1135.78L1519.17 1110.61C1529.54 1106.47 1535.67 1106.32 1541.52 1107.72C1544.27 1108.38 1546.98 1109.39 1550.1 1110.56C1550.44 1110.68 1550.78 1110.81 1551.12 1110.94C1554.53 1112.2 1558.4 1113.6 1563.19 1114.83C1567.3 1129.48 1567.95 1137.91 1566.75 1142.78C1566.15 1145.19 1565.11 1146.68 1563.85 1147.64C1562.57 1148.61 1560.96 1149.12 1559.11 1149.39C1557.62 1149.6 1556.05 1149.66 1554.42 1149.72C1554 1149.73 1553.58 1149.75 1553.16 1149.77C1551.12 1149.86 1549.01 1150.01 1547.11 1150.59C1545.19 1151.18 1543.44 1152.22 1542.15 1154.08C1540.88 1155.92 1540.13 1158.47 1540 1161.96L1540 1161.98V1162C1540 1165.6 1540.52 1168.1 1541.32 1170.13C1542 1171.84 1542.87 1173.18 1543.71 1174.48C1543.86 1174.71 1544.01 1174.94 1544.16 1175.16C1545.13 1176.69 1546.08 1178.32 1546.79 1180.71C1547.51 1183.1 1548 1186.31 1548 1190.98C1547.75 1197.23 1547.56 1201.5 1547.29 1204.44C1547.15 1205.9 1546.99 1207 1546.8 1207.82C1546.6 1208.65 1546.39 1209.13 1546.19 1209.42C1545.88 1209.85 1545.49 1210 1544.24 1209.97C1543.98 1209.96 1543.69 1209.95 1543.37 1209.93C1542.23 1209.88 1540.72 1209.8 1538.89 1210.01L1537.84 1210.12L1538.01 1211.16C1538.44 1213.71 1538.86 1215.38 1539.28 1217.02C1539.37 1217.34 1539.45 1217.66 1539.53 1217.99C1539.98 1219.8 1540.43 1221.82 1540.89 1225.21C1525.99 1228.33 1509.02 1235.22 1493.12 1241.7L1492.73 1241.86C1476.58 1248.44 1461.64 1254.54 1450.88 1256.01C1446.02 1256.49 1442.13 1255.94 1438.89 1254.68C1435.66 1253.42 1433.03 1251.42 1430.73 1248.95C1428.43 1246.46 1426.47 1243.5 1424.58 1240.32C1423.79 1239 1423 1237.61 1422.2 1236.21C1421.11 1234.29 1420 1232.34 1418.85 1230.48L1418.84 1230.46L1418.83 1230.45C1415.33 1225.19 1411.63 1220.5 1408.01 1215.92C1407.48 1215.24 1406.94 1214.56 1406.41 1213.88C1402.43 1208.82 1398.6 1203.79 1395.23 1198.11C1397.14 1195.94 1399.57 1193.51 1402.15 1190.93C1403.56 1189.52 1405.02 1188.06 1406.47 1186.57C1410.69 1182.22 1414.78 1177.64 1416.87 1173.5C1420.46 1167.89 1421.58 1162.69 1422.54 1158.26C1422.8 1157.03 1423.05 1155.86 1423.34 1154.75C1424.01 1152.19 1424.87 1149.98 1426.47 1148.04C1428.07 1146.12 1430.47 1144.39 1434.34 1142.94C1439.19 1141.25 1445.68 1140.56 1453.15 1140.37C1459.7 1140.21 1466.92 1140.43 1474.34 1140.66C1475.38 1140.69 1476.43 1140.72 1477.47 1140.75C1485.97 1141 1494.63 1141.19 1502.68 1140.75C1510.72 1140.31 1518.21 1139.24 1524.35 1136.94Z"
            fill="#D2E28B" stroke="white" stroke-width="2" class="state-map-path" id="kaduna_state_e7eMwriEP" />
        <path
            d="M1098.85 84.9906C1097.77 92.7214 1098.04 98.2842 1099.17 102.524C1100.37 106.998 1102.51 109.927 1104.92 112.332C1106.07 113.486 1107.25 114.503 1108.41 115.497C1112.11 118.676 1115.55 121.635 1117.02 128.18C1117.98 134.981 1117.63 137.245 1117.31 139.363C1116.66 143.554 1116.1 147.171 1126.03 184.259L1126.24 185.032L1127.04 184.999L1143.5 184.313C1140.28 185.165 1137.76 185.583 1135.65 185.786C1133.92 185.953 1132.46 185.977 1131.1 185.973C1130.8 185.972 1130.5 185.969 1130.2 185.967C1129.18 185.959 1128.19 185.952 1127.2 186.001C1121.88 186.267 1116.42 188.184 1101.41 199.194L1101.39 199.206L1101.38 199.219C1099.51 200.711 1097.5 202.389 1095.36 204.171C1091.69 207.229 1087.66 210.59 1083.4 213.829C1076.85 218.795 1069.91 223.351 1063.24 225.849C1062.37 225.081 1061.64 224.726 1060.97 224.621C1060.65 224.572 1060.38 224.585 1060.19 224.605C1060.15 224.484 1060.09 224.314 1060.03 224.074C1059.79 223.171 1059.49 221.6 1058.99 218.861L1058 208.9L1056.06 208.658C1054.48 213.017 1054.23 215.468 1054.11 216.617C1054.08 216.914 1054.06 217.124 1054.03 217.257C1054 217.366 1053.98 217.381 1053.98 217.385C1053.98 217.386 1053.98 217.386 1053.98 217.386C1053.94 217.421 1053.83 217.503 1053.51 217.645C1053.14 217.807 1052.65 217.978 1051.97 218.221C1051.62 218.346 1051.21 218.491 1050.74 218.663C1049.77 213.887 1049.93 210.618 1050.5 208.232C1051.04 205.987 1051.94 204.476 1052.76 203.102C1052.88 202.9 1053 202.702 1053.11 202.504C1054.02 200.957 1054.78 199.366 1054.04 197.179C1053.36 195.166 1051.43 192.766 1047.69 189.273C1041.53 183.379 1035.58 181.024 1029.76 180.535C1023.99 180.05 1018.42 181.41 1013.12 182.782C1012.88 182.846 1012.63 182.911 1012.38 182.975C1007.3 184.294 1002.47 185.546 997.683 185.345C992.734 185.137 987.783 183.369 982.707 178.293C980.624 176.21 978.181 173.154 975.5 169.802C974.38 168.4 973.218 166.946 972.023 165.491C968.261 160.906 964.183 156.307 960.242 153.618L964.694 142.934C970.263 142.3 977.122 139.82 983.523 137.042C989.063 134.638 994.344 131.972 998.256 129.997C999.045 129.599 999.779 129.229 1000.45 128.894L1000.48 128.877L1000.51 128.857C1005.41 125.919 1012.3 122.961 1017.29 120.963C1018 120.821 1018.85 120.659 1019.8 120.479C1022.16 120.03 1025.1 119.47 1027.85 118.85C1029.79 118.41 1031.67 117.934 1033.2 117.435C1033.96 117.186 1034.66 116.925 1035.24 116.654C1035.76 116.411 1036.25 116.129 1036.62 115.793C1038.75 114.435 1040.5 112.39 1042.08 110.06C1043.54 107.89 1044.9 105.401 1046.27 102.892C1046.39 102.671 1046.51 102.45 1046.63 102.229C1049.64 96.6976 1052.79 91.1703 1057.56 87.8257C1064.84 82.981 1070.85 82.2603 1077.3 82.7472C1079.72 82.9296 1082.17 83.2794 1084.8 83.6535C1085.73 83.7859 1086.68 83.9214 1087.66 84.0535C1091.07 84.5132 1094.75 84.924 1098.85 84.9906Z"
            fill="#D1AC82" stroke="white" stroke-width="2" class="state-map-path" id="kaduna_state_acDnsLEI6" />
        <path
            d="M1237.15 1289.48L1237.14 1289.49L1237.14 1289.49C1232.83 1296.84 1230.12 1304.3 1227.96 1311.54C1226.98 1314.86 1226.11 1318.13 1225.26 1321.33C1225.18 1321.62 1225.11 1321.92 1225.03 1322.21C1224.1 1325.69 1223.19 1329.07 1222.17 1332.33C1220.12 1338.84 1217.63 1344.81 1213.72 1350.01C1209.96 1355 1204.85 1359.31 1197.47 1362.69C1196.05 1359.81 1194.83 1357.07 1193.67 1354.46C1189.45 1345 1186 1337.25 1176.6 1330.2C1172.52 1327.14 1165.68 1323.34 1158.85 1320.81C1155.43 1319.55 1151.98 1318.58 1148.84 1318.2C1146.29 1317.88 1143.87 1317.93 1141.83 1318.59C1140.42 1306.44 1142.7 1297.48 1147 1290.26C1151.47 1282.75 1158.18 1277.04 1165.48 1271.55C1167.13 1270.31 1168.81 1269.08 1170.5 1267.84C1183.63 1258.24 1197.31 1248.24 1200.96 1229.28C1202.35 1225.89 1204.4 1224.37 1206.97 1223.6C1209.19 1222.94 1211.75 1222.83 1214.7 1222.72C1215.38 1222.69 1216.08 1222.66 1216.8 1222.62C1220.58 1222.43 1224.79 1222.02 1229.08 1220.22C1233.38 1218.41 1237.71 1215.22 1241.81 1209.59L1241.81 1209.58L1241.82 1209.57C1244.21 1206.16 1245.78 1203.68 1247.08 1201.65C1249.63 1197.63 1251.12 1195.3 1255.71 1190.71C1258.14 1188.28 1260.24 1185.85 1262.33 1183.44C1262.84 1182.85 1263.36 1182.25 1263.88 1181.66C1266.1 1179.12 1268.39 1176.61 1271.14 1174.1C1272.1 1188.38 1273.32 1202.82 1280.14 1214.5L1280.14 1214.52L1280.15 1214.53C1284.07 1220.79 1286.86 1222.93 1290.61 1225.8C1291.73 1226.66 1292.94 1227.59 1294.29 1228.71C1297.56 1232.64 1299.05 1235.22 1301.19 1238.9C1302.15 1240.56 1303.24 1242.45 1304.69 1244.78C1295.81 1251.97 1287.55 1254.48 1279.22 1257.01C1276.72 1257.77 1274.21 1258.54 1271.67 1259.43C1266.1 1261.39 1260.49 1263.97 1254.75 1268.55C1249.02 1273.12 1243.2 1279.65 1237.15 1289.48Z"
            fill="#D2E28B" stroke="white" stroke-width="2" class="state-map-path" id="kaduna_state_cPkG2ekYm" />
        <path
            d="M1063.01 316.141L1063.01 316.153L1063.01 316.164C1063.52 319.21 1064.09 321.433 1064.57 323.183C1064.62 323.385 1064.67 323.579 1064.72 323.766C1065.12 325.23 1065.4 326.266 1065.51 327.23C1065.71 329.17 1065.19 330.867 1062.4 335.101C1061.56 335.269 1060.74 335.433 1059.93 335.594C1046.55 338.278 1037.71 340.048 1028.56 340.627C1018.79 341.245 1008.63 340.507 992.162 338.013C979.416 335.764 971.605 334.086 966.679 332.516C961.752 330.946 959.893 329.536 958.832 327.945C958.28 327.117 957.908 326.187 957.469 325.001C957.422 324.874 957.375 324.745 957.327 324.614C956.928 323.529 956.467 322.272 955.775 320.845C954.258 317.716 951.664 313.824 946.191 308.738C947.847 304.718 949.293 300.799 950.703 296.974C951.324 295.291 951.938 293.626 952.56 291.978C954.68 286.368 956.911 280.918 959.878 275.479L959.886 275.463L959.894 275.447C961.591 272.055 962.96 269.489 964.075 267.397C964.603 266.408 965.075 265.525 965.497 264.71C966.803 262.194 967.635 260.348 968.102 258.214C968.566 256.091 968.656 253.741 968.578 250.228C968.534 248.255 968.435 245.877 968.313 242.933C968.232 241.003 968.142 238.829 968.05 236.366C972.826 237.914 978.033 240.538 983.513 243.592C986.026 244.993 988.615 246.494 991.238 248.016C994.804 250.085 998.434 252.191 1002.02 254.13C1008.3 257.516 1014.63 260.498 1020.74 262.123C1026.82 263.738 1032.76 264.031 1038.25 261.976C1041.99 261.469 1044.61 260.771 1046.58 259.974C1048.58 259.163 1049.88 258.263 1050.98 257.419C1051.19 257.264 1051.38 257.113 1051.57 256.968C1052.4 256.316 1053.11 255.762 1054.06 255.283C1055.13 254.743 1056.52 254.291 1058.69 254.039C1063.28 257.863 1066.34 263.766 1067.77 270.703C1069.24 277.791 1069 285.888 1067.03 293.757C1066.04 297.71 1065.14 299.641 1064.44 300.672C1064.1 301.175 1063.8 301.473 1063.54 301.694C1063.42 301.79 1063.32 301.87 1063.21 301.959C1063.18 301.979 1063.15 302.001 1063.13 302.023C1062.99 302.131 1062.82 302.262 1062.67 302.418C1061.91 303.176 1061.72 304.159 1061.8 305.997C1061.88 307.853 1062.26 310.906 1063.01 316.141Z"
            fill="#D2D3D5" stroke="white" stroke-width="2" class="state-map-path" id="kaduna_state_RL1oH5r6Z" />
        <path
            d="M1056.15 216.527C1056.21 215.929 1056.29 215.185 1056.51 214.14L1057 219.082C1057.5 226.746 1056.74 231.501 1055.36 234.732C1053.99 237.931 1051.97 239.739 1049.66 241.445C1049.23 241.759 1048.79 242.073 1048.34 242.393C1046.36 243.795 1044.21 245.324 1042.32 247.613C1040.04 250.377 1038.15 254.21 1037.11 260.26C1032.26 261.948 1026.93 261.696 1021.26 260.19C1015.37 258.627 1009.2 255.734 1002.98 252.37C999.382 250.43 995.827 248.367 992.303 246.322C989.681 244.8 987.077 243.289 984.487 241.845C978.529 238.525 972.741 235.622 967.41 234.077C963.341 231.556 958.858 229.856 954.524 228.308C954.001 228.121 953.48 227.937 952.962 227.753C949.118 226.391 945.454 225.092 942.221 223.368C938.578 221.425 935.563 218.98 933.561 215.388C931.558 211.795 930.508 206.945 930.997 200.085C931.993 190.126 933.97 178.405 938.788 170.626C941.28 168.135 944.468 164.954 948.013 162.02C951.46 159.168 955.191 156.594 958.887 155.116C962.611 157.583 966.611 162.048 970.477 166.759C971.618 168.15 972.748 169.563 973.852 170.944C976.569 174.342 979.127 177.541 981.293 179.707C986.717 185.131 992.141 187.113 997.599 187.343C1002.7 187.557 1007.79 186.234 1012.79 184.936C1013.07 184.863 1013.35 184.79 1013.63 184.718C1018.95 183.34 1024.2 182.075 1029.59 182.528C1034.92 182.976 1040.46 185.12 1046.31 190.722L1046.31 190.722L1046.32 190.731C1050.07 194.236 1051.64 196.335 1052.15 197.821C1052.59 199.134 1052.23 200.043 1051.39 201.496C1051.28 201.678 1051.17 201.866 1051.05 202.062C1050.23 203.44 1049.17 205.207 1048.56 207.768C1047.86 210.701 1047.75 214.611 1049.02 220.222L1049.28 221.338L1050.35 220.936C1051.2 220.619 1051.92 220.362 1052.53 220.145C1053.3 219.87 1053.89 219.66 1054.31 219.48C1054.7 219.309 1055.07 219.11 1055.37 218.817C1055.71 218.493 1055.87 218.124 1055.97 217.743C1056.06 217.376 1056.1 216.996 1056.15 216.527Z"
            fill="#FDD1A1" stroke="white" stroke-width="2" class="state-map-path" id="kaduna_state_QcGiObf11" />
        <path
            d="M837.943 676.999C815.833 676.939 807.105 674.999 802.738 674.029L802.717 674.024C802.642 674.007 802.568 673.991 802.495 673.974C800.461 673.521 799.083 673.215 797.636 673.671C796.897 673.905 796.189 674.317 795.384 674.887C794.97 675.179 794.514 675.526 793.999 675.928C793.997 673.858 793.992 671.998 793.988 670.328C793.976 665.715 793.968 662.557 794.031 660.436C794.07 659.124 794.135 658.281 794.225 657.76C794.344 657.847 794.48 657.95 794.639 658.072C795.166 658.474 795.873 659.013 796.751 659.478C798.553 660.432 801.023 661.046 804.316 659.949L805.062 659.7L804.996 658.917C804.931 658.126 804.873 657.424 804.822 656.802C804.682 655.081 804.591 653.97 804.508 653.286C804.48 653.049 804.45 652.844 804.416 652.671C804.384 652.512 804.338 652.319 804.255 652.141C804.183 651.988 803.966 651.598 803.469 651.486C803.007 651.382 802.66 651.608 802.57 651.668C802.459 651.742 802.356 651.835 802.306 651.88L802.297 651.889C802.231 651.948 802.188 651.986 802.142 652.022C802.056 652.09 802.009 652.107 801.982 652.112L801.982 652.112C801.966 652.115 801.882 652.131 801.688 652.044C801.532 651.974 801.312 651.84 801.026 651.592C801.594 642.805 804.528 631.63 808.8 621.256C813.051 610.93 818.569 601.541 824.265 596.121C828.998 597.568 830.976 599.481 831.658 601.589C832.401 603.885 831.753 606.769 830.435 610.41C830.015 611.568 829.528 612.802 829.018 614.093C827.98 616.721 826.847 619.591 825.992 622.568C824.701 627.062 823.977 631.984 825.019 637.196L825.12 637.698L825.586 637.91L836.035 642.66L837.943 676.999Z"
            fill="#FDD1A1" stroke="white" stroke-width="2" class="state-map-path" id="kaduna_state_RuQfuSMim" />
        <path
            d="M827.975 575.536C829.47 577.343 829.898 578.547 830.147 579.71C830.222 580.057 830.282 580.421 830.346 580.81C830.581 582.228 830.869 583.974 832.106 586.447L833.07 588.376L833.919 586.394L836.851 579.553C836.871 579.53 836.893 579.506 836.916 579.479C836.997 579.384 837.098 579.259 837.206 579.111L842.168 586.555L843.571 588.659L843.986 586.164C844.231 584.699 844.474 583.663 844.674 582.848C844.697 582.755 844.72 582.664 844.742 582.574C844.909 581.898 845.056 581.305 845.119 580.735C845.275 579.334 844.925 578.12 843.929 575.629L843.89 575.532L843.832 575.445C843.02 574.227 842.599 573.533 842.394 573.164C842.393 573.157 842.391 573.15 842.39 573.144C842.36 573.004 842.311 572.886 842.269 572.803C842.229 572.721 842.172 572.626 842.099 572.537C842.071 572.504 841.991 572.409 841.866 572.325C841.81 572.287 841.658 572.19 841.435 572.16C841.288 572.14 841.118 572.152 840.953 572.212C840.699 572.043 840.367 571.802 839.938 571.467L851.252 569.345C851.017 569.878 850.86 570.289 850.772 570.604C850.699 570.862 850.602 571.274 850.727 571.673C850.806 571.925 850.972 572.172 851.244 572.333C851.489 572.478 851.73 572.5 851.875 572.5C851.916 572.5 851.958 572.498 851.999 572.494C851.984 574.938 851.859 576.394 851.65 577.308C851.443 578.215 851.178 578.492 850.9 578.7C850.739 578.821 850.563 578.923 850.307 579.073C850.258 579.102 850.206 579.132 850.15 579.165C849.823 579.357 849.433 579.595 849.004 579.935C848.136 580.622 847.183 581.665 846.132 583.504L845.607 584.422L846.553 584.894C846.657 584.947 846.784 585.043 846.962 585.227C847.087 585.357 847.199 585.487 847.333 585.644C847.406 585.729 847.485 585.821 847.577 585.926C848.06 586.476 848.723 587.157 849.766 587.558C851.844 588.357 854.959 587.889 860.479 584.878L860.605 584.809L860.707 584.707L861.999 583.415C861.985 600.316 861.677 614.392 855.151 628.453C852.194 631.902 850.28 634.035 847.794 635.811C845.343 637.562 842.287 638.998 837.041 640.92L826.886 636.304C826.069 631.697 826.717 627.288 827.914 623.12C828.745 620.229 829.81 617.535 830.827 614.961C831.348 613.643 831.857 612.356 832.315 611.09C833.622 607.481 834.537 603.99 833.561 600.973C832.59 597.974 829.883 595.761 824.918 594.229C824.487 590.407 824.459 588.575 824.612 587.647C824.687 587.191 824.789 587.066 824.819 587.032C824.87 586.974 824.907 586.952 825.055 586.862C825.111 586.827 825.184 586.783 825.28 586.723C825.599 586.524 825.987 586.241 826.349 585.711C826.696 585.203 826.984 584.522 827.221 583.569C827.612 581.99 827.893 579.521 827.975 575.536ZM851.996 571.925C851.996 571.925 851.996 571.928 851.997 571.934C851.996 571.929 851.996 571.925 851.996 571.925Z"
            fill="#00FBFE" stroke="white" stroke-width="2" class="state-map-path" id="kaduna_state_dhraUomey" />
        <path
            d="M1143.04 1372.27L1143.04 1372.27L1143.04 1372.27L1143.18 1372.78L1143.68 1372.95C1143.87 1373.01 1143.91 1373.08 1143.92 1373.1C1143.94 1373.12 1143.97 1373.19 1143.96 1373.33C1143.93 1373.64 1143.73 1374.02 1143.47 1374.24C1143.44 1374.27 1143.4 1374.3 1143.38 1374.31C1143.33 1374.23 1143.25 1374.08 1143.18 1373.8C1143.08 1373.43 1143.01 1372.89 1143 1372.15C1143.01 1372.17 1143.01 1372.19 1143.02 1372.21L1143.03 1372.26L1143.04 1372.27L1143.04 1372.27L1143.04 1372.27Z"
            fill="#F9F8F9" stroke="white" stroke-width="2" class="state-map-path" id="kaduna_state_YawdHqlTc" />
    </svg>