<svg viewBox="0 0 2352 1560" fill="none" xmlns="http://www.w3.org/2000/svg">
        <path fill-rule="evenodd" clip-rule="evenodd" class="state-map-path" id="katsina_state_dpgYY5STV"
            d="M1265 534C1264 536 1262 536 1255 537C1249 539 1249 539 1244 541L1223 551C1211 556 1211 553 1199 551L1186 549C1183 548 1181 549 1179 548L1168 545C1165 544 1166 544 1162 543C1157 542 1156 540 1150 540C1139 540 1132 541 1124 545C1113 551 1105 547 1093 551C1089 552 1090 552 1087 553C1082 555 1081 554 1076 557C1074 569 1080 580 1082 592C1083 597 1083 594 1084 598C1085 602 1084 610 1085 615C1085 620 1086 624 1086 630C1087 635 1087 641 1087 646C1088 660 1099 669 1102 682C1102 686 1101 692 1101 698C1100 703 1101 709 1099 713C1096 721 1099 722 1104 732C1105 734 1105 735 1107 738L1119 760C1121 765 1122 769 1124 772C1128 772 1132 770 1136 769C1140 767 1142 765 1145 763C1150 758 1148 758 1151 754C1163 737 1193 746 1201 747C1212 747 1220 747 1231 749C1235 750 1239 752 1242 753L1255 755C1263 757 1267 764 1273 769C1282 776 1295 780 1306 784C1311 776 1318 779 1326 778C1325 771 1325 756 1326 749C1327 741 1330 735 1334 728L1336 721C1336 705 1341 694 1332 678C1324 663 1330 670 1319 653C1316 649 1316 643 1314 638C1313 637 1311 634 1310 633C1309 629 1306 607 1300 593C1297 586 1296 575 1291 569C1282 556 1286 545 1286 538H1285C1285 538 1285 537 1285 536H1283V535H1282H1280H1279H1278V534H1273C1272 534 1272 534 1271 534H1270H1267H1266H1265Z"
            fill="#9DD3AF" />
        <path fill-rule="evenodd" clip-rule="evenodd" class="state-map-path" id="katsina_state_H4SaJIqaI"
            d="M1301 489V488H1302C1304 484 1309 479 1309 479C1312 475 1311 475 1313 470C1315 465 1314 464 1315 460C1316 456 1319 456 1320 452C1320 449 1320 442 1320 439C1320 432 1319 433 1316 427L1312 422C1307 419 1295 424 1281 410C1280 410 1278 407 1278 406C1276 403 1274 390 1275 385C1276 381 1277 381 1277 375C1278 371 1278 367 1277 363C1273 361 1268 360 1265 357C1248 342 1252 330 1247 325C1245 324 1241 322 1240 321C1232 316 1224 312 1215 307C1211 305 1206 303 1202 301C1196 298 1194 296 1186 296C1182 303 1181 304 1183 313C1184 319 1183 317 1187 320C1189 323 1197 341 1198 345C1200 348 1201 349 1203 352L1212 367C1215 372 1214 369 1215 376C1216 384 1219 387 1215 397C1212 403 1205 403 1198 401C1193 400 1189 401 1185 399C1182 398 1184 399 1183 398C1172 391 1167 378 1155 372C1151 370 1137 369 1133 371C1128 374 1128 383 1126 388C1125 391 1123 394 1122 396C1120 401 1119 407 1115 412C1113 415 1111 416 1109 419C1106 425 1105 429 1102 435C1100 439 1094 446 1090 447C1085 446 1085 444 1080 446C1077 448 1074 449 1071 451C1070 455 1071 459 1071 463C1072 469 1073 470 1073 475C1074 483 1073 493 1074 501C1074 510 1077 516 1076 525C1075 532 1072 543 1075 550C1081 551 1081 549 1086 548C1090 547 1089 548 1093 546C1103 542 1113 547 1125 540C1129 538 1143 534 1149 534C1154 535 1161 539 1167 540C1173 541 1169 540 1172 542C1174 542 1176 542 1178 543C1181 543 1180 544 1184 545C1186 545 1188 545 1191 545C1196 546 1195 547 1203 548C1208 548 1206 548 1210 549C1213 550 1213 550 1216 549L1231 543C1239 539 1245 536 1253 534C1256 534 1257 533 1259 532V531C1260 531 1260 531 1260 531C1261 531 1261 531 1261 531H1263V530H1274C1275 531 1275 531 1276 531H1277H1282H1283H1284H1285V528H1286V527V526C1286 526 1286 526 1286 525C1286 525 1286 525 1286 524H1287V520C1287 520 1287 520 1288 519L1289 517C1289 517 1289 516 1290 516C1290 515 1290 515 1290 514C1291 513 1291 512 1292 512C1292 511 1292 511 1293 510C1293 509 1293 509 1293 509V508C1294 507 1294 506 1294 505C1295 504 1295 503 1295 502C1295 502 1296 502 1296 501C1296 500 1295 500 1296 500V499C1297 499 1297 499 1297 498V497H1298C1298 496 1298 495 1298 494H1299V493V492L1300 491V489H1301Z"
            fill="#F6AFCE" />
        <path fill-rule="evenodd" clip-rule="evenodd" class="state-map-path" id="katsina_state_eDdUfuN54"
            d="M1398 1260C1399 1261 1400 1262 1401 1264C1409 1273 1409 1272 1414 1283C1416 1286 1419 1288 1422 1290C1424 1293 1423 1292 1427 1295V1300C1419 1304 1410 1321 1411 1330C1412 1333 1413 1332 1414 1336C1414 1339 1413 1341 1414 1344C1421 1362 1423 1360 1433 1364C1437 1365 1435 1365 1439 1365C1444 1366 1447 1370 1450 1371C1454 1370 1458 1366 1462 1366C1470 1364 1481 1365 1490 1367C1493 1367 1496 1366 1498 1365L1506 1361L1500 1346C1497 1338 1498 1342 1497 1333C1497 1329 1495 1322 1494 1319L1491 1304C1491 1302 1494 1298 1495 1296L1497 1293C1502 1285 1509 1278 1509 1268C1509 1261 1508 1264 1506 1260C1505 1255 1507 1256 1508 1252L1509 1251C1514 1250 1511 1251 1514 1249L1527 1237C1533 1229 1542 1229 1550 1226C1563 1222 1561 1230 1581 1215C1595 1204 1596 1206 1604 1206C1610 1206 1609 1205 1613 1204C1620 1202 1625 1205 1633 1202C1634 1195 1629 1181 1626 1175C1624 1173 1623 1170 1621 1168C1617 1161 1613 1152 1612 1144C1610 1136 1610 1135 1606 1131C1602 1126 1601 1125 1600 1118L1601 1113C1607 1096 1602 1093 1605 1083C1608 1075 1606 1070 1603 1064C1601 1064 1590 1067 1588 1068C1574 1074 1587 1069 1574 1072C1571 1073 1567 1076 1561 1077L1541 1085C1534 1087 1534 1089 1524 1094C1518 1097 1518 1099 1514 1103C1501 1112 1506 1106 1498 1124C1495 1129 1486 1140 1481 1143C1464 1154 1462 1151 1451 1157C1451 1157 1450 1157 1450 1158L1444 1162C1441 1165 1442 1164 1439 1166L1435 1168C1418 1177 1419 1156 1408 1180C1407 1181 1406 1183 1405 1184C1403 1187 1399 1190 1398 1192C1398 1194 1398 1197 1398 1200C1398 1201 1398 1203 1398 1205C1398 1205 1399 1206 1399 1207V1240C1399 1241 1398 1241 1398 1242C1398 1242 1398 1243 1397 1243C1397 1244 1398 1246 1397 1247C1397 1249 1397 1250 1396 1252V1255C1396 1255 1397 1255 1397 1256C1399 1257 1399 1258 1398 1260Z"
            fill="#91D8F7" />
        <path fill-rule="evenodd" clip-rule="evenodd" class="state-map-path" id="katsina_state_fpwMhyAJv"
            d="M1251 1223C1251 1223 1252 1223 1252 1224C1252 1224 1253 1224 1253 1225C1254 1225 1254 1226 1254 1227C1255 1228 1256 1230 1257 1231C1257 1232 1258 1232 1258 1233C1259 1234 1260 1235 1261 1236C1262 1237 1263 1238 1263 1239C1263 1240 1264 1240 1264 1241C1265 1242 1265 1243 1265 1244C1266 1244 1266 1245 1266 1246C1266 1246 1267 1246 1267 1247C1267 1248 1268 1248 1268 1249C1268 1250 1269 1251 1269 1252L1270 1253C1271 1254 1271 1256 1271 1257V1258C1272 1260 1272 1262 1273 1266C1281 1287 1269 1297 1282 1319C1289 1331 1297 1325 1305 1318C1319 1304 1324 1299 1342 1292C1344 1291 1357 1289 1359 1289C1361 1290 1363 1293 1365 1294C1367 1297 1367 1297 1369 1300C1371 1304 1371 1302 1372 1309C1372 1327 1366 1343 1378 1350L1415 1359C1415 1354 1411 1350 1410 1342C1409 1338 1405 1329 1406 1326C1406 1324 1410 1313 1411 1311C1418 1299 1428 1300 1413 1288C1404 1281 1410 1280 1404 1274L1398 1266C1397 1264 1395 1263 1394 1262C1394 1261 1393 1261 1393 1261C1392 1261 1391 1260 1391 1259C1390 1259 1389 1258 1389 1257V1250C1389 1249 1390 1248 1390 1247C1390 1246 1390 1245 1391 1244C1391 1242 1391 1242 1392 1240C1392 1239 1392 1239 1392 1238V1209C1392 1208 1392 1207 1392 1207V1202C1388 1204 1391 1204 1385 1205C1378 1205 1369 1199 1366 1196C1362 1193 1360 1191 1356 1187C1350 1180 1347 1174 1340 1167C1328 1155 1322 1160 1317 1145C1315 1137 1308 1117 1303 1113C1302 1112 1300 1112 1297 1111C1287 1106 1292 1112 1275 1112C1268 1112 1264 1111 1258 1113C1254 1115 1248 1115 1243 1116C1236 1117 1236 1124 1232 1132C1231 1135 1230 1135 1230 1139C1247 1147 1250 1145 1256 1161C1259 1168 1261 1199 1258 1206V1207L1256 1208C1256 1209 1257 1209 1256 1210V1211H1255V1212H1254C1254 1216 1253 1219 1250 1221C1251 1222 1251 1222 1251 1223Z"
            fill="#9DD3AF" />
        <path fill-rule="evenodd" clip-rule="evenodd" class="state-map-path" id="katsina_state_MMX37XChh"
            d="M1174 1268C1162 1269 1171 1267 1155 1274C1152 1275 1151 1276 1148 1278C1144 1281 1138 1283 1132 1285C1132 1290 1138 1291 1140 1294C1147 1303 1150 1310 1163 1310C1186 1308 1188 1308 1197 1323C1199 1325 1199 1328 1200 1330C1203 1336 1205 1336 1209 1340L1222 1365C1224 1370 1225 1376 1225 1381C1226 1384 1227 1386 1227 1389C1228 1392 1227 1395 1228 1398C1229 1405 1234 1413 1235 1419C1236 1423 1235 1423 1237 1427C1243 1435 1256 1433 1257 1445C1258 1455 1253 1458 1255 1462C1259 1467 1277 1468 1281 1466C1283 1465 1285 1464 1285 1461C1287 1453 1283 1454 1289 1437C1291 1431 1293 1425 1297 1419C1299 1416 1300 1416 1301 1414C1302 1411 1301 1388 1300 1386C1300 1386 1298 1383 1298 1382C1293 1376 1289 1373 1288 1370C1287 1366 1288 1367 1287 1364C1286 1363 1283 1360 1283 1360L1282 1358C1277 1348 1281 1347 1283 1339C1284 1335 1285 1333 1288 1330C1281 1329 1278 1323 1276 1317L1272 1308C1265 1292 1277 1286 1268 1265C1267 1263 1266 1262 1266 1260C1265 1259 1265 1258 1264 1257C1264 1257 1263 1256 1263 1255C1263 1254 1263 1253 1262 1253C1261 1252 1262 1251 1261 1251C1261 1250 1261 1250 1260 1249C1260 1248 1260 1248 1260 1247C1259 1247 1259 1246 1259 1246V1245C1258 1244 1258 1243 1257 1243C1257 1242 1256 1242 1256 1241C1255 1240 1255 1240 1254 1239C1254 1238 1253 1237 1252 1236C1251 1236 1250 1235 1250 1233C1250 1233 1250 1232 1249 1232C1249 1232 1248 1231 1248 1230V1229C1247 1229 1246 1228 1246 1227C1245 1226 1245 1226 1245 1225C1235 1230 1221 1232 1215 1234L1206 1235C1205 1235 1205 1235 1205 1236L1198 1241L1196 1243C1188 1251 1179 1267 1174 1268Z"
            fill="#D2E28B" />
        <path fill-rule="evenodd" clip-rule="evenodd" class="state-map-path" id="katsina_state_PHSJDJ2uH"
            d="M1193 1239L1194 1237L1196 1235L1198 1234L1199 1233L1201 1232C1202 1231 1202 1232 1203 1232L1205 1230C1252 1230 1255 1209 1253 1173L1248 1154C1247 1153 1248 1152 1242 1149C1227 1143 1234 1148 1225 1143C1224 1139 1224 1138 1225 1134L1227 1131C1233 1120 1238 1110 1234 1097C1232 1092 1230 1082 1228 1078C1227 1077 1227 1076 1226 1075L1221 1064C1218 1060 1219 1060 1217 1056L1203 1034C1200 1030 1196 1033 1194 1035C1189 1041 1184 1047 1176 1049C1164 1053 1156 1042 1141 1042L1140 1046C1137 1055 1138 1065 1135 1072C1132 1079 1119 1085 1116 1089C1107 1099 1108 1097 1097 1105C1084 1114 1079 1122 1071 1114C1070 1113 1069 1111 1068 1110L1040 1109C1034 1109 1019 1114 1000 1111C993 1110 985 1111 980 1118C975 1126 977 1152 971 1166C967 1177 957 1199 957 1209C957 1224 948 1236 954 1254C957 1263 974 1271 976 1279C976 1283 976 1282 977 1285C980 1295 976 1296 980 1303C981 1306 983 1312 983 1314C984 1319 980 1335 979 1339C975 1350 979 1355 972 1375C970 1381 970 1381 971 1388C975 1387 976 1386 979 1384C984 1380 983 1383 988 1381C991 1378 990 1378 994 1375C1009 1365 993 1372 1009 1356C1016 1350 1013 1350 1023 1347C1028 1345 1036 1338 1036 1337C1041 1334 1052 1337 1058 1336C1065 1336 1063 1332 1076 1331C1081 1331 1082 1330 1084 1328C1097 1320 1091 1317 1099 1309C1093 1303 1104 1290 1106 1288C1116 1280 1121 1287 1133 1280L1142 1276C1150 1272 1148 1272 1153 1270C1157 1268 1161 1267 1164 1265C1166 1263 1166 1263 1169 1262C1172 1262 1173 1263 1177 1262C1179 1261 1186 1245 1193 1239Z"
            fill="#F6AFCE" />
        <path fill-rule="evenodd" clip-rule="evenodd" class="state-map-path" id="katsina_state_oruAneoq1"
            d="M1109 945C1112 947 1115 951 1119 954C1125 959 1144 965 1149 969C1155 974 1160 980 1169 986C1182 996 1192 1007 1197 1022C1199 1028 1210 1033 1214 1041C1217 1046 1218 1049 1221 1054C1225 1061 1230 1070 1233 1079C1234 1081 1235 1083 1235 1085C1239 1102 1237 1096 1239 1110C1250 1113 1256 1107 1272 1107C1280 1107 1286 1104 1294 1105C1297 1105 1298 1106 1301 1108C1312 1112 1314 1124 1319 1134C1321 1138 1320 1132 1321 1138C1323 1152 1324 1150 1330 1154L1338 1159C1343 1163 1345 1168 1349 1172C1352 1175 1354 1176 1355 1179C1357 1177 1362 1164 1362 1161L1365 1147C1366 1142 1365 1145 1366 1141C1369 1134 1368 1130 1374 1125C1382 1116 1387 1107 1395 1099C1403 1090 1409 1081 1417 1072C1430 1058 1428 1064 1432 1052L1433 1049L1437 1045C1441 1040 1451 1028 1446 1021C1445 1021 1438 1017 1438 1016C1435 1015 1431 1016 1428 1017C1422 1019 1423 1018 1417 1019C1413 1019 1412 1021 1410 1023C1403 1027 1395 1029 1386 1027L1377 1024C1371 1022 1369 1020 1363 1023C1357 1026 1349 1023 1346 1016C1350 1011 1358 1007 1363 1005C1376 997 1386 994 1398 984C1401 981 1407 967 1407 965C1406 962 1405 960 1402 957C1399 952 1400 954 1399 947C1395 946 1391 939 1387 936C1384 933 1382 932 1380 930C1369 920 1363 924 1349 923C1340 923 1339 917 1335 911C1326 911 1311 914 1308 915C1304 915 1298 912 1295 913C1291 914 1289 917 1283 914C1282 913 1277 909 1275 907C1272 903 1261 895 1257 894C1253 893 1248 894 1244 896C1237 889 1235 892 1225 891C1225 891 1212 886 1205 889C1198 892 1197 895 1188 890C1183 887 1177 882 1175 879C1175 878 1172 875 1172 875L1169 867C1162 848 1168 847 1149 832L1139 826L1132 823C1132 847 1151 841 1133 889C1132 892 1132 894 1131 897C1130 900 1131 896 1130 900C1128 906 1129 915 1121 926C1119 928 1118 930 1117 932C1115 936 1115 935 1113 939C1112 941 1110 944 1109 945Z"
            fill="#D2E28B" />
        <path fill-rule="evenodd" clip-rule="evenodd" class="state-map-path" id="katsina_state_NRwUhQwWA"
            d="M1840 364C1844 368 1844 379 1847 383C1851 383 1854 383 1857 382C1862 380 1868 379 1873 376L1893 363C1897 361 1901 358 1906 355C1907 349 1907 342 1907 335C1906 325 1901 321 1912 315C1916 312 1919 308 1924 306L1931 302C1931 296 1929 280 1927 278C1916 272 1902 286 1888 274C1884 270 1881 266 1876 262C1873 259 1861 248 1856 246C1853 245 1854 246 1852 245C1845 244 1845 240 1839 246C1834 250 1829 252 1823 254L1818 257C1817 258 1816 259 1814 260C1810 265 1804 265 1800 267C1802 274 1802 272 1806 276C1810 280 1811 285 1812 290C1813 294 1814 291 1814 295C1816 305 1813 314 1817 323C1819 326 1822 328 1824 330C1825 332 1828 340 1831 345C1832 346 1833 347 1834 349C1834 349 1834 350 1835 350C1835 351 1837 353 1837 354C1837 355 1837 355 1838 356C1838 356 1838 357 1839 358C1839 360 1840 362 1840 364Z"
            fill="#D2D3D5" />
        <path fill-rule="evenodd" clip-rule="evenodd" class="state-map-path" id="katsina_state_Q3geyij4I"
            d="M1755 426C1760 429 1768 430 1773 433C1776 434 1778 434 1781 434C1785 427 1783 422 1801 420C1804 420 1803 420 1805 419C1808 418 1805 418 1809 418C1822 417 1827 418 1841 415C1845 415 1849 415 1852 414L1844 389C1843 386 1841 381 1840 376C1837 376 1837 374 1837 372C1836 372 1836 369 1836 369C1835 369 1835 368 1835 367C1834 366 1834 364 1833 363V361C1832 360 1832 359 1831 358V356C1830 356 1830 354 1829 354C1829 353 1828 351 1827 350C1826 350 1826 349 1826 348C1825 346 1825 343 1823 339C1820 333 1818 331 1814 325C1806 314 1812 296 1806 288C1801 288 1802 289 1798 290C1786 294 1777 286 1768 301C1767 302 1767 302 1766 303L1762 308C1760 310 1756 317 1754 317C1744 318 1741 302 1732 300C1732 305 1732 305 1735 307L1747 325C1748 326 1750 331 1750 331C1752 334 1752 336 1753 339C1761 358 1759 344 1759 370V371C1759 372 1759 373 1758 375C1758 376 1759 377 1758 378V379C1757 390 1744 419 1755 426Z"
            fill="#D2E28B" />
        <path fill-rule="evenodd" clip-rule="evenodd" class="state-map-path" id="katsina_state_FAPLRihbq"
            d="M1547 398C1549 408 1539 440 1554 438C1555 438 1557 437 1558 437C1562 435 1563 435 1566 433C1574 428 1584 424 1593 423C1601 422 1608 419 1616 421C1619 421 1621 424 1626 422L1634 418C1648 412 1649 432 1674 439C1678 440 1684 448 1686 451C1686 453 1685 454 1685 456C1683 462 1685 460 1682 467C1681 469 1681 471 1681 474C1681 484 1680 491 1692 492C1711 493 1715 484 1728 470C1742 454 1755 458 1756 441C1756 428 1751 431 1747 421C1744 416 1749 382 1751 378C1751 377 1752 375 1752 375C1752 374 1752 374 1752 373C1752 373 1753 372 1752 372C1752 371 1752 370 1753 369V351L1752 350C1752 349 1752 348 1752 347C1748 342 1746 333 1744 328C1742 323 1739 320 1736 316C1735 313 1733 313 1732 310C1730 308 1729 305 1727 304C1723 310 1726 319 1723 326C1719 334 1722 340 1714 344C1711 345 1706 348 1705 348C1701 350 1699 346 1696 345C1692 343 1690 345 1685 342C1671 336 1675 338 1669 350C1668 353 1668 353 1666 355C1664 358 1665 356 1663 359L1658 360C1656 356 1656 357 1654 354C1650 349 1647 342 1644 336C1643 335 1643 333 1642 332C1640 327 1631 314 1627 309C1622 304 1621 297 1618 291C1615 285 1612 281 1612 274C1610 255 1607 260 1603 249L1601 240C1599 241 1601 240 1599 243L1586 259C1584 262 1582 262 1580 265C1575 271 1580 274 1571 280C1559 288 1565 288 1555 286C1555 298 1558 309 1557 323C1556 328 1556 327 1555 331C1554 334 1555 337 1554 340C1553 343 1552 344 1552 348V353C1552 353 1553 354 1552 354V355C1552 356 1552 356 1552 356C1552 357 1552 357 1552 357V359H1551C1551 359 1551 359 1551 360V364C1551 365 1551 365 1551 366C1551 366 1551 366 1551 367C1551 368 1550 369 1550 370C1550 370 1550 371 1550 372V389C1549 389 1550 390 1550 390C1550 391 1549 390 1549 391C1549 392 1550 392 1549 392C1549 393 1549 393 1549 394L1548 396C1548 396 1548 396 1548 397V398H1547Z"
            fill="#91D8F7" />
        <path fill-rule="evenodd" clip-rule="evenodd" class="state-map-path" id="katsina_state_IjRrZe1l3"
            d="M1192 227C1184 227 1183 230 1178 236C1174 239 1171 243 1167 247C1157 255 1150 266 1140 274C1135 280 1128 286 1120 287C1110 289 1096 294 1086 298C1074 302 1078 304 1074 318C1074 322 1074 326 1073 329C1072 334 1072 331 1071 337C1070 350 1069 350 1068 367C1068 383 1062 402 1063 417L1067 435C1068 439 1068 439 1069 444L1076 442C1078 441 1079 441 1082 441C1088 441 1092 442 1096 438C1099 434 1102 422 1106 417C1109 412 1115 409 1115 403C1117 388 1130 356 1151 366L1154 367C1160 369 1163 372 1167 377C1186 396 1182 396 1196 396C1207 396 1215 404 1211 375C1210 369 1203 361 1200 354C1196 347 1190 341 1187 332C1186 328 1187 328 1184 325C1182 321 1174 313 1178 304C1178 303 1179 301 1179 299C1182 293 1187 289 1194 292C1195 292 1195 293 1196 293L1207 299C1222 305 1236 313 1250 322C1253 324 1254 328 1255 331L1257 337C1258 343 1256 341 1260 345C1264 349 1264 352 1268 354L1274 357C1286 363 1289 355 1303 370C1305 372 1307 375 1310 375C1314 375 1331 361 1337 358C1343 355 1346 352 1352 351L1361 348C1363 348 1363 347 1365 346L1374 340C1378 338 1381 335 1384 332L1390 327C1391 326 1392 326 1394 325C1399 322 1404 321 1405 313C1405 308 1403 308 1402 304C1401 296 1405 294 1399 291C1396 289 1392 288 1389 285L1379 273V272L1373 264C1373 264 1373 263 1372 263C1369 258 1366 252 1365 246C1363 235 1368 235 1371 227C1376 211 1392 218 1391 188C1386 189 1382 192 1378 194L1365 202C1363 202 1362 203 1360 205C1354 209 1351 208 1340 216L1330 222C1325 224 1319 228 1314 229C1310 230 1311 230 1308 231C1296 236 1263 236 1249 233C1245 232 1239 232 1235 232C1227 232 1226 230 1220 230C1216 230 1210 230 1206 230C1204 229 1202 228 1200 228C1196 227 1195 227 1192 227Z"
            fill="#9DD3AF" />
        <path fill-rule="evenodd" clip-rule="evenodd" class="state-map-path" id="katsina_state_aRahebiS7"
            d="M1397 183C1396 193 1400 191 1395 201C1392 208 1392 209 1387 214C1386 216 1387 215 1385 217L1381 219C1377 222 1377 229 1374 233C1372 236 1370 235 1369 239C1368 242 1375 258 1377 263C1380 269 1395 287 1404 288C1407 281 1412 275 1418 271C1419 270 1420 270 1421 269C1427 265 1429 250 1449 250C1459 250 1452 252 1464 256C1474 259 1483 276 1489 283C1489 284 1489 284 1489 284C1491 286 1489 284 1490 286C1491 286 1492 288 1493 289C1504 287 1512 271 1522 271C1525 272 1536 276 1540 276C1544 277 1549 276 1552 277C1554 278 1556 281 1559 282C1562 282 1568 277 1570 275C1576 269 1566 274 1581 259C1587 253 1593 246 1597 238L1615 213L1618 204C1619 203 1622 199 1622 199C1624 191 1621 192 1628 183C1634 175 1634 167 1634 155C1633 137 1633 145 1631 139C1628 129 1631 139 1624 127C1622 123 1620 120 1618 114C1617 110 1618 109 1617 106C1617 100 1616 103 1615 100C1614 94 1615 86 1614 81H1612C1611 80 1610 80 1609 80C1602 79 1583 75 1578 76C1567 78 1551 90 1542 96L1488 129C1473 138 1476 137 1462 145C1460 146 1462 145 1459 146L1437 160C1434 161 1432 163 1430 164C1427 165 1427 167 1424 168C1414 172 1415 172 1407 177L1397 183Z"
            fill="#F6AFCE" />
        <path fill-rule="evenodd" clip-rule="evenodd" class="state-map-path" id="katsina_state_dyHYt24ce"
            d="M1674 335C1682 334 1680 336 1685 338C1690 339 1692 339 1697 341C1700 343 1702 344 1706 343C1712 341 1715 337 1715 337L1717 329C1725 309 1717 306 1724 299C1726 297 1729 295 1732 295C1739 296 1745 310 1752 312C1758 305 1763 299 1771 292C1776 286 1776 287 1786 287C1793 287 1796 285 1803 284C1803 275 1800 277 1790 265C1778 251 1771 254 1771 235C1771 230 1771 232 1769 228C1769 227 1769 227 1769 227L1767 223C1764 212 1766 216 1759 199C1758 195 1757 191 1755 187L1745 165C1743 157 1741 149 1737 141C1730 126 1744 106 1738 99C1732 95 1731 99 1725 96C1721 95 1723 95 1718 94C1714 94 1713 94 1710 93C1703 91 1690 90 1681 89C1675 88 1675 86 1667 86C1662 86 1657 85 1652 84C1647 84 1641 84 1636 84C1629 82 1637 81 1621 81C1621 86 1621 90 1621 94C1621 105 1622 101 1623 105C1624 109 1622 112 1624 117C1626 125 1635 134 1637 143C1639 150 1641 157 1638 166C1636 174 1637 179 1632 185C1631 186 1630 187 1629 188C1629 190 1627 198 1624 203C1618 214 1619 217 1611 227C1603 236 1606 231 1607 246C1608 254 1615 256 1615 262C1616 267 1615 269 1617 274C1620 287 1622 286 1624 293C1627 304 1627 302 1633 310L1641 321C1641 322 1643 324 1643 325C1650 335 1658 362 1664 352C1665 350 1665 340 1674 335Z"
            fill="#9DD3AF" />
        <path fill-rule="evenodd" clip-rule="evenodd" class="state-map-path" id="katsina_state_FYtoqT8nu"
            d="M1342 913C1344 924 1360 916 1366 917C1375 920 1378 924 1385 929C1397 939 1390 933 1397 941C1411 956 1400 945 1406 955C1408 958 1412 961 1413 964L1410 973C1405 986 1404 985 1389 996C1384 1000 1379 1002 1371 1006C1366 1008 1356 1013 1353 1016C1357 1021 1362 1017 1367 1017C1380 1016 1383 1023 1393 1023C1396 1023 1400 1022 1402 1021C1411 1017 1410 1016 1416 1014C1416 1010 1415 1007 1414 1004C1413 1000 1413 1001 1414 997C1415 994 1417 990 1420 987C1424 985 1442 979 1451 981C1453 981 1458 984 1460 984C1464 985 1469 984 1473 984C1489 985 1502 977 1517 977C1546 979 1533 998 1540 1005C1544 1009 1548 1004 1563 1008C1569 1010 1580 1011 1587 1009C1588 1008 1586 1010 1587 1007C1591 995 1591 1002 1591 985C1590 965 1594 975 1593 960C1593 953 1591 954 1591 949C1591 944 1591 939 1591 934C1591 911 1594 913 1591 881C1590 873 1592 862 1589 855C1587 848 1585 826 1586 817C1587 812 1589 812 1587 804C1583 803 1578 803 1570 798C1560 790 1563 782 1544 804C1536 814 1540 812 1535 820C1532 824 1527 830 1526 834C1523 844 1529 846 1511 856C1499 863 1502 865 1495 865C1490 865 1488 864 1483 865L1434 877C1430 879 1431 879 1428 882C1413 895 1399 875 1383 887L1372 894C1362 900 1368 894 1357 903C1350 909 1344 910 1342 913Z"
            fill="#9DD3AF" />
        <path fill-rule="evenodd" clip-rule="evenodd" class="state-map-path" id="katsina_state_OMl5wPpkB"
            d="M1446 663L1437 677C1434 683 1434 690 1432 697C1426 713 1436 719 1438 735C1441 735 1439 734 1442 734C1445 733 1448 734 1450 733C1454 732 1449 734 1453 732C1453 731 1453 731 1454 731C1455 730 1457 729 1459 728C1464 727 1483 727 1489 734C1494 739 1496 745 1497 747C1500 749 1502 751 1504 754C1511 761 1513 767 1519 768C1527 769 1544 775 1551 778C1557 781 1555 781 1558 783H1559C1567 788 1564 790 1576 796C1579 797 1585 800 1588 800C1591 792 1589 795 1595 789L1608 776C1613 772 1615 770 1620 767C1642 755 1640 759 1636 743C1635 738 1637 736 1634 731L1629 715C1626 707 1629 711 1623 700L1620 695C1619 691 1620 685 1619 682C1619 678 1618 679 1618 676C1618 672 1619 674 1619 670C1621 661 1618 656 1632 654C1638 653 1633 653 1637 652C1640 651 1640 651 1643 650C1652 646 1653 648 1656 640L1654 621C1653 618 1653 620 1652 616C1652 614 1651 605 1652 602C1652 593 1653 604 1655 590C1652 587 1650 587 1646 583C1643 580 1637 568 1634 567C1629 567 1621 568 1616 567C1611 566 1609 563 1600 565C1596 566 1595 566 1586 564C1582 562 1584 562 1579 562C1573 561 1574 561 1571 560C1564 569 1569 573 1556 581C1554 582 1536 588 1532 595C1530 597 1530 598 1529 601C1523 611 1522 605 1523 623C1523 633 1522 632 1517 637C1512 643 1513 642 1510 649C1502 666 1509 665 1506 682C1506 688 1497 696 1493 697C1491 698 1490 699 1489 699C1471 706 1473 680 1472 675C1469 664 1459 666 1454 664C1450 663 1452 663 1446 663Z"
            fill="#FDD1A1" />
        <path fill-rule="evenodd" clip-rule="evenodd" class="state-map-path" id="katsina_state_Or04Uxvzz"
            d="M1289 534C1294 554 1288 558 1294 565C1298 570 1301 577 1302 583C1303 589 1305 594 1308 598C1324 599 1324 590 1345 596C1347 596 1351 598 1353 599C1364 603 1363 599 1371 598C1375 598 1377 600 1381 600C1397 603 1404 597 1416 592C1424 588 1429 588 1434 583C1436 581 1433 584 1436 582L1444 576C1445 571 1446 563 1441 561C1430 559 1429 570 1418 539L1417 538C1417 537 1416 537 1416 536L1415 535C1415 535 1415 535 1414 534L1413 531H1412L1410 528H1409V527H1408L1405 524L1398 519V518L1396 517V516C1394 515 1392 513 1390 512L1377 498L1374 494V487H1373C1368 488 1372 487 1371 486C1372 479 1378 477 1381 469C1382 465 1382 465 1384 462C1385 460 1386 459 1388 457C1390 455 1390 455 1392 452C1397 443 1416 417 1418 413C1418 412 1419 406 1419 405C1421 387 1408 393 1406 394C1403 395 1401 396 1398 396C1384 399 1386 393 1372 400C1357 408 1363 406 1352 412C1346 416 1344 415 1337 417C1333 419 1332 418 1328 417L1321 413C1318 413 1315 413 1313 412L1301 408H1288C1286 409 1287 408 1286 409C1288 412 1287 411 1297 415C1305 418 1305 416 1312 417C1324 420 1328 448 1324 453C1317 464 1322 454 1320 465C1319 469 1317 475 1315 478C1313 481 1309 483 1307 487C1306 490 1305 489 1305 491L1304 493V494H1303C1303 495 1303 496 1302 496V497C1301 499 1301 499 1301 500C1301 501 1301 501 1300 502C1300 502 1300 502 1300 503L1299 505C1299 505 1299 505 1299 506C1299 507 1298 508 1298 509C1298 510 1297 511 1297 511C1296 512 1297 512 1296 513V514C1296 514 1296 514 1296 515L1294 517C1294 518 1294 518 1294 518C1293 519 1293 519 1293 519C1293 520 1293 520 1293 521C1292 521 1292 521 1292 522C1292 522 1292 522 1291 523C1291 524 1291 524 1291 524L1290 528C1290 529 1290 529 1289 530V532V533V534Z"
            fill="#D2E28B" />
        <path fill-rule="evenodd" clip-rule="evenodd" class="state-map-path" id="katsina_state_HkuRGPgxn"
            d="M1126 778C1126 782 1127 783 1127 787C1128 798 1131 795 1132 817C1135 819 1133 817 1136 819C1137 819 1138 820 1140 821C1149 826 1160 836 1167 844C1170 847 1169 848 1169 854C1170 857 1174 870 1176 873C1178 877 1183 882 1189 885C1201 892 1200 885 1206 883C1209 882 1236 887 1239 887C1243 889 1242 891 1248 889C1257 886 1259 891 1266 894C1274 899 1276 904 1283 908C1290 913 1290 909 1296 909C1300 908 1305 909 1309 909C1315 909 1315 907 1319 907C1338 904 1341 913 1360 896C1365 892 1369 890 1375 887C1378 885 1380 884 1383 882C1387 878 1386 880 1391 877C1390 874 1391 877 1389 874C1381 864 1387 871 1383 862C1379 853 1382 857 1380 849C1378 838 1378 824 1379 812C1378 812 1356 815 1356 815C1355 815 1353 817 1346 815C1335 812 1333 795 1332 791C1330 784 1323 782 1315 782C1308 785 1309 790 1299 786C1294 784 1294 786 1287 782C1279 777 1278 778 1270 771C1265 766 1260 758 1250 758C1231 757 1239 753 1222 752C1215 752 1210 750 1202 750C1188 750 1187 749 1175 749C1154 749 1156 757 1150 763C1135 777 1136 772 1126 778Z"
            fill="#91D8F7" />
        <path fill-rule="evenodd" clip-rule="evenodd" class="state-map-path" id="katsina_state_O2dUJTZCa"
            d="M1382 497L1389 506L1393 508C1396 510 1398 511 1400 513L1402 515L1411 522L1412 524H1413V525H1414L1416 528L1418 531C1418 532 1419 533 1419 533H1420V534H1421C1425 541 1423 542 1426 549L1431 557L1444 555C1452 563 1446 570 1449 582C1449 585 1450 584 1451 587C1451 590 1451 592 1451 595L1458 619C1459 624 1459 644 1458 649C1457 653 1454 655 1452 659C1476 664 1477 665 1477 685C1477 692 1479 694 1485 694C1499 694 1504 682 1503 669C1502 663 1499 662 1502 655C1507 644 1507 643 1514 635C1523 627 1514 618 1519 609C1521 604 1528 593 1532 589C1543 579 1558 580 1562 569C1565 559 1572 554 1558 540C1556 538 1557 539 1556 538C1552 534 1545 532 1545 495C1546 494 1546 494 1546 493C1547 492 1546 492 1546 490C1528 487 1518 487 1498 487C1496 489 1494 487 1490 489H1439V490C1429 490 1427 493 1417 493C1415 491 1407 484 1407 489C1403 489 1395 496 1392 496V497H1382Z"
            fill="#91D8F7" />
        <path fill-rule="evenodd" clip-rule="evenodd" class="state-map-path" id="katsina_state_baz85xWbV"
            d="M1536 323C1537 321 1538 321 1538 316C1536 306 1514 309 1508 306L1502 301V300C1500 297 1503 298 1503 290C1499 291 1496 293 1493 295L1484 301C1482 303 1481 304 1480 305C1477 306 1477 306 1475 308C1474 310 1473 311 1468 317C1468 317 1466 319 1465 320C1461 326 1466 321 1459 329C1457 331 1457 332 1456 334C1452 341 1446 344 1442 350C1437 350 1428 350 1424 348C1415 343 1404 337 1402 327C1395 328 1394 329 1387 334C1382 338 1370 349 1362 353C1361 353 1361 353 1360 353C1343 360 1353 353 1330 368C1317 376 1313 385 1300 373C1293 367 1296 365 1284 365C1284 384 1280 362 1281 402C1291 406 1300 402 1307 405L1331 412C1356 414 1363 391 1392 391C1412 391 1402 389 1410 388C1442 385 1412 428 1406 437L1389 461C1385 466 1385 471 1382 475C1381 477 1379 478 1377 480H1378L1379 494L1381 493H1384L1386 491H1387V490C1399 490 1413 477 1413 466H1414C1419 427 1520 348 1536 323Z"
            fill="#FDD1A1" />
        <path fill-rule="evenodd" clip-rule="evenodd" class="state-map-path" id="katsina_state_Oy6Dxv87q"
            d="M1546 486C1547 470 1544 459 1543 453C1543 445 1545 447 1545 441C1543 438 1542 438 1542 433C1541 426 1542 426 1543 420C1543 412 1543 403 1543 395L1545 394C1545 393 1545 370 1547 367C1547 366 1547 366 1547 366C1547 365 1547 365 1547 365V364C1547 363 1547 363 1547 363C1547 362 1547 361 1548 361C1548 333 1549 365 1551 319C1552 313 1552 287 1549 284C1546 279 1541 281 1535 280C1532 279 1524 276 1521 276C1511 277 1507 289 1507 299C1508 300 1509 301 1511 302L1531 305C1539 307 1544 313 1541 323C1535 342 1436 415 1421 462L1419 465V466H1418C1418 473 1413 475 1413 479C1412 482 1409 483 1413 483V484C1430 493 1417 487 1435 487V485H1488C1491 484 1492 485 1494 483C1510 483 1530 482 1546 486Z"
            fill="#D2D3D5" />
        <path fill-rule="evenodd" clip-rule="evenodd" class="state-map-path" id="katsina_state_XHqrLaqKo"
            d="M1632 540C1648 541 1647 535 1659 547C1666 554 1664 556 1668 562C1671 567 1670 562 1671 570C1672 574 1675 584 1678 587C1681 587 1696 582 1706 585C1708 586 1709 588 1712 589C1718 593 1713 587 1722 597C1722 597 1722 597 1723 598L1731 616C1734 624 1731 639 1735 647C1737 651 1744 653 1745 659L1748 668C1749 671 1748 674 1749 678C1751 682 1751 680 1752 687C1752 691 1756 695 1758 703C1762 713 1765 710 1774 704H1775L1779 701C1782 698 1789 696 1790 689C1790 687 1790 685 1790 682L1799 653C1802 643 1805 640 1809 632L1818 610C1827 583 1846 589 1886 585C1886 580 1884 577 1882 574C1880 570 1875 556 1867 555C1864 554 1859 557 1852 555C1829 552 1819 557 1794 547C1790 545 1785 544 1782 542L1779 539C1778 537 1775 535 1775 532C1774 527 1774 506 1774 499C1774 487 1775 493 1777 486L1779 471C1780 463 1782 464 1782 457C1782 454 1782 442 1781 440C1779 438 1766 434 1762 434C1761 439 1762 448 1755 455C1746 464 1738 463 1727 476C1722 483 1718 488 1708 494C1703 497 1699 499 1692 498C1686 496 1683 495 1680 490C1674 484 1667 477 1661 471C1658 469 1651 464 1648 464C1644 464 1646 463 1644 466C1643 467 1643 466 1643 468C1642 470 1642 470 1641 471C1637 478 1637 484 1637 492C1637 503 1638 501 1635 509C1634 512 1634 514 1633 517C1633 518 1631 521 1630 523C1626 534 1630 537 1632 540Z"
            fill="#F6AFCE" />
        <path fill-rule="evenodd" clip-rule="evenodd" class="state-map-path" id="katsina_state_OqUVKyCjb"
            d="M2075 430C2076 434 2076 430 2077 434C2077 436 2077 437 2078 439C2079 443 2078 439 2079 443C2080 444 2080 446 2081 447C2082 451 2082 452 2083 456C2084 458 2086 462 2087 465C2089 471 2087 474 2094 481C2095 482 2096 483 2097 484L2100 486C2103 488 2105 489 2107 491L2122 500C2128 502 2144 508 2151 504C2157 500 2151 501 2165 494C2170 492 2167 491 2175 491C2179 501 2181 510 2190 513C2194 514 2213 513 2216 513L2238 507C2247 503 2247 504 2254 501C2255 501 2257 500 2258 500C2261 499 2258 500 2261 498L2283 488C2285 486 2285 485 2288 483C2291 481 2296 478 2298 476L2313 464C2316 461 2315 461 2316 457C2317 452 2320 449 2322 445C2326 437 2321 439 2332 428C2340 421 2347 422 2351 419L2352 415C2346 410 2332 407 2330 406C2324 403 2305 399 2297 395C2292 393 2293 395 2287 391C2283 387 2281 390 2275 388C2268 385 2260 382 2253 381C2246 380 2248 378 2237 375C2231 374 2224 371 2218 371C2208 370 2190 361 2185 360C2182 359 2175 359 2171 360C2170 366 2182 372 2181 385C2180 388 2179 391 2177 394C2172 402 2167 398 2159 400C2156 401 2147 404 2144 403C2140 402 2142 401 2140 400C2138 399 2133 400 2130 400C2117 400 2117 412 2098 416C2096 416 2097 416 2096 416C2096 417 2096 417 2095 417L2083 425C2081 426 2080 426 2079 427C2077 428 2077 428 2075 430Z"
            fill="#9DD3AF" />
        <path fill-rule="evenodd" clip-rule="evenodd" class="state-map-path" id="katsina_state_c4ExdsMcu"
            d="M971 1402C983 1403 985 1405 994 1407C998 1408 1002 1408 1006 1409C1015 1411 1022 1411 1031 1409C1038 1407 1038 1409 1041 1412C1045 1415 1051 1416 1056 1425C1056 1427 1057 1428 1058 1430L1060 1434C1062 1438 1062 1441 1061 1445C1060 1450 1061 1449 1057 1454C1052 1459 1051 1455 1034 1473C1033 1475 1032 1475 1031 1477C1028 1481 1025 1487 1026 1493C1038 1497 1027 1494 1040 1496C1050 1497 1086 1508 1093 1514C1099 1518 1116 1533 1119 1538L1120 1541C1122 1545 1130 1551 1133 1554C1137 1558 1134 1556 1140 1558C1150 1561 1155 1560 1163 1556C1164 1556 1164 1556 1164 1556L1166 1555C1180 1547 1195 1540 1195 1524C1195 1522 1195 1518 1194 1516L1187 1505C1182 1494 1181 1499 1175 1482C1173 1478 1175 1477 1173 1473C1163 1450 1176 1446 1158 1435C1150 1429 1148 1433 1138 1419C1131 1411 1137 1406 1127 1395C1115 1382 1115 1394 1103 1374C1101 1371 1100 1372 1099 1368L1095 1359C1094 1358 1094 1357 1093 1356C1091 1352 1088 1349 1089 1342C1090 1336 1094 1336 1089 1330C1081 1333 1086 1337 1073 1337C1063 1338 1065 1343 1054 1342C1040 1340 1043 1338 1032 1346C1023 1353 1029 1349 1019 1354C1008 1360 1005 1372 1003 1375C1001 1379 1000 1377 996 1380C993 1381 992 1384 990 1386C986 1388 983 1384 973 1393C971 1396 970 1398 971 1402Z"
            fill="#9DD3AF" />
        <path fill-rule="evenodd" clip-rule="evenodd" class="state-map-path" id="katsina_state_XTjcVc9IK"
            d="M1422 1012C1433 1013 1431 1007 1440 1012C1444 1014 1450 1018 1451 1022C1454 1032 1442 1046 1438 1051L1437 1054C1432 1064 1435 1060 1426 1068C1415 1079 1410 1091 1396 1104C1387 1113 1392 1109 1387 1116C1381 1123 1375 1126 1374 1134C1373 1138 1372 1139 1371 1143C1370 1146 1369 1147 1369 1150C1368 1157 1368 1162 1365 1168C1358 1184 1362 1189 1372 1195C1378 1199 1382 1200 1391 1198C1394 1196 1391 1192 1399 1185C1403 1180 1408 1166 1415 1164C1420 1162 1428 1169 1444 1157C1449 1154 1448 1152 1455 1149C1464 1146 1469 1147 1480 1139L1496 1118C1499 1113 1496 1111 1501 1106L1528 1087C1531 1085 1531 1085 1533 1083C1537 1081 1554 1075 1559 1073L1586 1064C1590 1062 1598 1060 1600 1059C1599 1056 1597 1052 1596 1049C1595 1045 1594 1042 1593 1037C1592 1035 1590 1031 1588 1028C1583 1023 1586 1023 1585 1016C1578 1015 1577 1017 1570 1014C1565 1013 1562 1014 1556 1012C1555 1011 1553 1010 1549 1011C1543 1013 1549 1014 1541 1011C1540 1011 1539 1011 1537 1010C1535 1009 1534 1008 1532 1007V987C1527 985 1532 985 1526 984C1519 983 1516 981 1510 982C1507 982 1502 986 1496 987C1479 988 1495 989 1468 989C1446 990 1465 986 1441 986C1435 987 1436 987 1432 988C1429 990 1412 989 1422 1012Z"
            fill="#F6AFCE" />
        <path fill-rule="evenodd" clip-rule="evenodd" class="state-map-path" id="katsina_state_hnevp1p0h"
            d="M1961 252C1957 262 1963 281 1963 287C1963 292 1963 294 1963 300C1964 302 1965 307 1966 309C1968 316 1979 319 1986 333C1990 343 1995 361 1991 371C1989 379 1992 384 1992 393C1992 398 1992 399 1994 403L1999 412C2011 413 2033 413 2043 410C2049 409 2059 409 2063 413C2065 414 2067 416 2069 418C2071 420 2072 422 2074 424C2079 423 2085 417 2091 414C2097 411 2104 410 2110 406C2117 401 2115 399 2126 395C2129 394 2132 393 2137 394C2140 394 2142 396 2143 397C2148 400 2145 398 2154 397C2159 396 2173 397 2175 389C2176 383 2175 375 2172 372C2169 366 2166 366 2167 357L2151 350C2145 346 2131 345 2130 334C2129 324 2131 333 2124 319C2120 311 2107 297 2100 292L2089 283C2086 281 2085 280 2082 279C2079 276 2074 273 2070 271C2057 264 2054 262 2041 259C2033 256 2039 256 2023 256C1994 256 1986 270 1977 262L1970 257C1966 253 1966 250 1961 252Z"
            fill="#D2E28B" />
        <path fill-rule="evenodd" clip-rule="evenodd" class="state-map-path" id="katsina_state_cN0atu1r3"
            d="M1937 305C1943 307 1944 306 1950 306C1958 306 1952 309 1959 308C1961 299 1958 299 1957 294C1957 289 1958 274 1956 269C1955 265 1953 261 1955 255C1956 249 1961 249 1952 241C1950 239 1948 238 1946 236C1940 230 1940 226 1936 223C1885 185 1839 138 1779 111C1773 109 1750 99 1745 100C1742 104 1743 108 1743 112C1742 121 1741 114 1740 124C1740 127 1740 135 1740 138L1757 180C1757 180 1757 180 1757 181L1761 189C1764 199 1763 198 1769 210C1771 214 1772 215 1772 221C1773 230 1775 225 1775 233C1775 242 1772 244 1784 253C1800 265 1788 265 1800 261C1805 260 1807 261 1811 258C1827 244 1828 250 1838 242C1848 232 1869 250 1876 257C1879 260 1881 261 1883 264C1885 266 1888 267 1891 270C1897 275 1905 276 1914 273C1918 271 1924 271 1927 272C1934 276 1935 296 1937 305Z"
            fill="#91D8F7" />
        <path fill-rule="evenodd" clip-rule="evenodd" class="state-map-path" id="katsina_state_JR4ATA4JD"
            d="M1310 605C1310 615 1312 608 1313 621C1313 628 1314 631 1317 636C1323 645 1317 645 1324 653C1325 655 1325 654 1326 656C1330 663 1331 666 1334 673L1342 687C1344 697 1342 724 1338 731C1335 736 1331 737 1331 752C1331 770 1326 767 1334 784C1335 786 1336 788 1336 791C1337 795 1337 794 1338 798C1340 802 1341 809 1345 810C1348 811 1361 811 1364 810C1367 809 1366 809 1372 808C1376 808 1377 808 1380 807C1384 792 1374 780 1380 768C1383 764 1383 766 1384 761C1385 747 1378 738 1382 731C1387 723 1399 728 1406 732C1410 734 1415 735 1419 736C1426 738 1423 739 1434 738C1434 735 1430 723 1428 719C1426 715 1426 716 1426 709C1426 692 1427 697 1428 693C1429 691 1429 688 1429 686C1430 678 1435 674 1437 670C1445 657 1450 660 1453 647C1454 642 1456 644 1455 637C1455 631 1453 631 1453 625C1453 622 1453 617 1452 614L1447 601C1447 599 1447 597 1446 595C1446 591 1446 594 1445 590C1444 587 1445 587 1444 584L1442 583C1438 584 1443 583 1440 584C1438 586 1432 591 1423 594L1413 598C1412 599 1409 600 1409 600C1402 604 1391 608 1384 606C1376 604 1378 604 1365 604C1343 605 1341 593 1325 601C1321 603 1321 600 1313 604L1310 605Z"
            fill="#F6AFCE" />
        <path fill-rule="evenodd" clip-rule="evenodd" class="state-map-path" id="katsina_state_ajw90yljV"
            d="M1555 785C1548 783 1533 776 1525 774C1512 772 1513 771 1501 756C1497 751 1495 750 1491 744C1489 740 1486 735 1481 734C1459 730 1457 735 1450 737C1448 738 1447 738 1445 738C1437 740 1437 748 1412 739C1393 733 1384 723 1387 743C1388 749 1391 754 1390 761C1388 768 1384 763 1384 778C1384 781 1384 785 1385 788C1385 796 1389 795 1386 805C1383 815 1383 849 1386 858C1388 862 1388 865 1391 869C1399 879 1398 876 1407 880C1409 881 1412 883 1419 882C1425 880 1430 873 1433 872L1437 870C1437 870 1437 870 1438 869C1440 868 1441 869 1444 869C1445 869 1447 869 1447 869C1451 868 1450 867 1452 866C1460 864 1471 864 1476 862C1479 861 1481 861 1485 860C1493 858 1487 859 1492 861C1496 861 1498 860 1500 858C1505 853 1517 848 1518 846C1519 845 1520 834 1523 828C1525 826 1526 825 1528 822L1532 817C1533 814 1534 811 1536 808C1544 796 1547 796 1555 785Z"
            fill="#D2E28B" />
        <path fill-rule="evenodd" clip-rule="evenodd" class="state-map-path" id="katsina_state_P3Am0dvGy"
            d="M1308 1406C1312 1405 1319 1398 1325 1393C1334 1386 1345 1382 1357 1386C1366 1389 1376 1391 1384 1394C1388 1395 1386 1394 1393 1397C1416 1406 1420 1403 1440 1422C1444 1427 1447 1429 1451 1435C1456 1444 1455 1444 1463 1447C1473 1451 1475 1453 1489 1445C1491 1444 1491 1444 1493 1443C1501 1439 1528 1430 1532 1427C1542 1416 1535 1417 1539 1410C1541 1404 1548 1401 1549 1396C1544 1390 1543 1390 1538 1387L1531 1383C1518 1369 1525 1382 1510 1367L1499 1370C1494 1371 1495 1373 1488 1372C1475 1370 1474 1370 1462 1372C1456 1373 1457 1375 1452 1376C1449 1376 1446 1373 1444 1372L1421 1366C1413 1363 1381 1357 1376 1354C1373 1353 1371 1350 1369 1347C1367 1344 1367 1339 1366 1336C1364 1329 1367 1329 1367 1324C1368 1314 1368 1295 1354 1295C1346 1295 1335 1300 1329 1304H1328C1317 1311 1327 1303 1315 1314L1300 1327C1285 1338 1292 1332 1287 1342C1282 1353 1291 1361 1292 1363C1297 1372 1288 1366 1302 1380C1310 1388 1307 1393 1308 1406Z"
            fill="#F6AFCE" />
        <path fill-rule="evenodd" clip-rule="evenodd" class="state-map-path" id="katsina_state_ULjaO0cv6"
            d="M1094 1327C1097 1336 1092 1343 1096 1351L1098 1356C1099 1358 1099 1358 1100 1360C1102 1363 1103 1367 1105 1370C1117 1387 1106 1377 1119 1383C1125 1386 1130 1391 1133 1397C1134 1398 1135 1400 1136 1401C1136 1402 1138 1404 1138 1405C1141 1410 1138 1418 1147 1424C1150 1426 1166 1431 1171 1442C1176 1452 1173 1458 1176 1466C1183 1466 1176 1464 1191 1459C1208 1454 1200 1457 1210 1455C1216 1454 1234 1455 1240 1457C1243 1458 1244 1459 1248 1459C1253 1452 1252 1443 1249 1440C1247 1437 1247 1440 1236 1430C1228 1423 1232 1421 1228 1414L1225 1409C1222 1400 1222 1395 1221 1385L1218 1366L1205 1343C1201 1339 1197 1334 1195 1329C1187 1309 1180 1316 1175 1316C1170 1316 1171 1313 1165 1314C1164 1314 1159 1319 1148 1310C1135 1300 1142 1300 1131 1292C1126 1289 1128 1289 1121 1289C1109 1289 1108 1290 1103 1301C1100 1308 1106 1305 1101 1314C1097 1321 1097 1322 1095 1325C1094 1328 1092 1327 1094 1327Z"
            fill="#91D8F7" />
        <path fill-rule="evenodd" clip-rule="evenodd" class="state-map-path" id="katsina_state_P9B0U4mDD"
            d="M1662 591C1656 598 1657 617 1658 621C1659 624 1662 627 1661 640C1660 648 1653 651 1647 653L1640 657C1629 661 1623 650 1623 686C1624 696 1633 710 1638 728C1641 736 1642 743 1642 753C1652 752 1650 750 1656 747C1660 745 1673 739 1678 739C1683 738 1682 738 1686 737C1689 736 1690 736 1693 735C1697 734 1699 734 1702 733C1703 733 1706 731 1708 730C1711 729 1713 729 1715 728L1730 723C1738 722 1753 717 1758 711C1752 702 1754 702 1749 692C1746 686 1750 690 1745 680L1740 660C1738 652 1739 657 1734 652C1727 645 1731 640 1727 623C1726 615 1723 599 1714 595C1696 586 1704 588 1686 591C1681 592 1678 594 1674 594C1668 594 1668 592 1662 591Z"
            fill="#91D8F7" />
        <path fill-rule="evenodd" clip-rule="evenodd" class="state-map-path" id="katsina_state_KvvYXM4ZT"
            d="M1558 534C1558 534 1558 534 1557 534C1566 538 1571 553 1572 554C1574 557 1574 555 1577 556C1581 557 1580 558 1584 558C1597 559 1587 561 1599 561C1604 561 1610 560 1616 561C1638 564 1631 559 1640 568C1644 573 1645 573 1648 578C1650 583 1653 582 1658 585C1662 587 1659 586 1664 587C1667 588 1670 588 1672 588L1662 560C1654 542 1650 546 1638 546C1628 546 1622 539 1624 530C1628 509 1629 529 1632 491C1632 490 1633 478 1634 477C1634 475 1638 468 1639 466C1649 451 1657 465 1667 471C1670 474 1671 478 1676 478C1676 475 1675 473 1676 470C1685 440 1681 449 1665 440L1650 430C1640 421 1644 417 1631 425C1625 429 1619 426 1604 426C1597 426 1593 428 1586 429C1583 430 1584 430 1580 431C1577 433 1573 434 1570 436L1560 441C1552 444 1555 440 1549 446C1548 452 1548 462 1550 467C1552 471 1553 481 1551 486V492H1550V495C1549 497 1549 496 1549 498C1549 499 1549 498 1549 500V510L1550 513V515H1551V520L1552 521V522C1553 523 1552 523 1552 524H1553H1554V526V527H1555L1556 529V531H1557V532L1558 533V534Z"
            fill="#9DD3AF" />
        <path fill-rule="evenodd" clip-rule="evenodd" class="state-map-path" id="katsina_state_MaZFzDMV6"
            d="M1910 321C1910 326 1910 330 1911 334C1913 339 1915 351 1911 356C1905 361 1895 367 1888 372C1869 383 1873 384 1856 386C1855 387 1852 386 1852 389L1853 401C1855 406 1856 409 1858 413C1864 413 1870 412 1875 410C1878 409 1879 410 1883 409C1888 409 1888 408 1891 408C1899 406 1916 410 1923 413C1930 416 1934 414 1940 415C1954 418 1981 420 1994 414C1994 409 1988 406 1987 395C1987 389 1985 376 1987 370C1987 365 1989 366 1988 360C1986 356 1987 352 1986 348L1979 329L1966 316C1960 311 1953 312 1944 312C1933 311 1939 302 1926 310C1922 312 1921 313 1918 315C1915 317 1913 319 1910 321Z"
            fill="#F6AFCE" />
        <path fill-rule="evenodd" clip-rule="evenodd" class="state-map-path" id="katsina_state_i1YzzKlvC"
            d="M1445 255C1438 258 1435 256 1431 262C1424 273 1426 269 1416 279C1410 284 1404 289 1407 303C1408 309 1410 314 1407 322C1405 325 1405 326 1407 329C1409 333 1411 335 1414 338L1425 344C1427 345 1438 347 1443 342C1457 330 1447 337 1458 325C1461 322 1460 318 1472 306C1480 299 1489 297 1487 289C1487 286 1484 283 1483 282L1474 269C1467 260 1469 264 1461 260C1458 258 1450 253 1445 255Z"
            fill="#91D8F7" />
    </svg>