<svg viewBox="0 0 1334 1653" fill="none" xmlns="http://www.w3.org/2000/svg">
        <path fill-rule="evenodd" clip-rule="evenodd" class="state-map-path" id="kebbi_state_FkrQkShAp"
            d="M174 627C165 620 162 603 157 601C152 602 151 603 147 604L138 607C126 610 117 618 105 623C96 627 92 624 83 623C83 629 86 637 88 642L91 650C91 653 91 660 91 663L66 686C63 690 64 695 65 701C66 741 66 729 87 745C93 750 93 762 96 769C97 774 95 777 92 780C90 782 89 782 87 784C85 785 84 786 82 787L55 810C54 812 50 819 50 821C51 823 52 824 54 826C55 828 55 829 57 830C62 831 66 832 70 829C73 826 74 824 78 822C97 834 99 843 108 852C115 858 113 849 127 863C128 864 131 868 135 870C148 875 150 872 166 884C181 896 183 892 193 890C203 888 198 887 213 887C237 887 231 885 241 884C250 883 263 878 271 875C281 871 285 868 289 859C296 846 293 833 294 818C295 813 296 812 295 807C293 800 295 797 292 788C288 776 290 778 283 766C281 761 280 757 279 752C278 750 278 750 277 749L274 735H273L272 733C272 732 272 732 272 731C271 731 271 730 271 729C271 729 272 729 271 728V726H270V725V723C269 722 270 722 269 721C269 721 269 721 269 720H268C268 719 268 719 268 719C268 718 268 718 267 717C267 716 267 716 266 715L265 712C265 712 264 711 264 710C264 710 263 709 263 708C263 707 263 707 263 706C263 705 263 705 262 705V703C262 703 261 703 261 702C261 702 262 702 261 701V700C261 699 261 699 260 699V697C259 696 259 696 259 695C259 694 259 694 259 693H258C258 692 258 692 257 691C257 691 258 691 257 690C257 690 257 690 256 689L259 690C259 652 181 633 174 627Z"
            fill="#9DD3AF" />
        <path fill-rule="evenodd" clip-rule="evenodd" class="state-map-path" id="kebbi_state_hQPMfGY1X"
            d="M249 919C252 922 257 925 267 921C278 916 274 904 289 891C293 887 299 881 309 885L315 888C326 892 325 891 336 879C339 875 342 872 345 869C353 861 348 864 352 859C363 846 375 854 376 854C379 855 381 853 386 851L396 847C405 841 404 843 412 839C413 831 410 827 410 821L409 781C410 772 412 772 412 763C412 754 408 737 407 727C405 717 409 724 404 709C403 705 404 698 401 694H399V692C398 692 398 691 398 691V690C398 689 397 689 397 689V688C397 687 397 687 396 686C396 686 396 686 396 685V683H395V682C395 681 395 681 395 681V680H394C394 679 395 679 394 679C394 678 394 678 394 677C394 676 394 676 394 676V673H393C393 672 393 672 392 671V665C385 656 376 654 366 651C360 650 346 640 340 636L336 634C328 634 287 674 276 685C275 686 275 685 274 686C274 686 274 686 273 686C272 686 272 687 271 687V688L269 689C268 689 268 690 267 690C268 691 268 692 268 693C269 693 268 693 269 694L270 697C270 698 270 698 270 699H271C271 700 270 700 271 701C271 702 271 702 271 702L272 703C272 704 272 704 272 705L273 706C273 707 274 708 274 708L275 709C275 710 275 710 275 710C275 711 275 711 276 712V713C276 713 276 713 276 714C277 715 276 715 277 715V717H278V719L279 721C279 721 278 722 279 722C279 723 279 723 279 724C279 725 279 725 280 725V733C281 737 282 740 282 743C283 746 283 748 284 752C286 756 287 761 289 766C299 785 296 784 299 795C303 810 301 834 298 849C296 859 290 868 284 874C278 879 264 883 256 885C252 886 252 887 249 888C246 888 243 888 241 889C234 891 231 891 223 891C218 891 208 891 204 892C197 894 192 893 192 898C205 904 214 896 237 908C238 909 239 909 239 910C240 910 241 910 241 911C242 912 243 912 244 912C244 913 245 914 246 915C246 915 246 915 247 916C247 916 247 916 247 917C248 917 248 918 249 919Z"
            fill="#FDD1A1" />
        <path fill-rule="evenodd" clip-rule="evenodd" class="state-map-path" id="kebbi_state_IOJBOC69d"
            d="M478 1091C474 1086 474 1090 474 1081C474 1077 474 1073 474 1068V1072C462 1071 465 1072 457 1068L449 1065C448 1064 445 1061 444 1060C433 1049 430 1051 413 1050C411 1044 413 1039 416 1036C418 1033 422 1027 424 1026C439 1015 448 1023 454 998L460 987C462 983 466 980 469 977C471 974 470 973 474 969L477 962C478 949 471 946 467 940C459 928 459 930 450 924L414 900C406 892 398 887 391 878C389 875 385 863 373 859C362 855 357 860 353 865C349 871 342 877 340 880C317 911 313 880 297 889C284 897 282 912 274 921C269 926 265 926 261 927C261 927 257 930 248 925C247 924 247 924 246 923C244 923 244 922 243 920C243 920 242 920 242 919L241 918C241 917 240 916 240 916C239 916 238 916 238 915C237 915 236 914 235 913C233 912 231 911 228 910C227 909 225 909 224 908C221 906 223 906 218 906C198 904 205 909 185 900C167 892 171 893 156 883C142 875 136 878 128 871C125 868 124 866 121 863C117 861 121 863 115 861C103 858 85 828 78 828C73 828 66 841 57 837C53 833 53 831 48 828C46 830 47 830 46 833L43 837C37 848 31 870 29 883C28 888 27 891 26 896C26 898 26 900 25 903L23 915C22 920 22 919 21 922C19 929 18 939 16 947C14 954 11 970 11 972L8 984C7 989 8 983 6 989C5 991 6 993 5 996C4 1000 4 998 3 1001L0 1022C12 1034 27 1044 39 1056L99 1105C107 1110 114 1103 121 1103C135 1102 146 1107 157 1113C158 1114 158 1114 160 1114L181 1126C202 1139 207 1141 228 1151C232 1153 236 1156 240 1158L260 1165C264 1167 261 1167 266 1168C281 1171 301 1174 317 1170C326 1167 339 1168 350 1167C356 1166 359 1168 366 1168C372 1167 375 1165 382 1165C394 1165 409 1166 420 1165C424 1158 424 1152 431 1144C434 1140 436 1140 439 1136C445 1130 453 1128 459 1123C466 1116 464 1091 478 1091Z"
            fill="#F6AFCE" />
        <path fill-rule="evenodd" clip-rule="evenodd" class="state-map-path" id="kebbi_state_Z2V7tP3Nd"
            d="M832 819H833L839 838C840 841 840 841 841 844C846 853 843 858 853 873L863 889C870 898 873 893 876 909C882 910 881 912 886 911L895 908C896 907 896 907 897 907C897 907 899 908 901 911L903 910H905L906 908L908 907H912L916 906L920 905H922L927 903L930 902H935L936 901H941L943 900H946V898H958L961 897H981L983 896H987L991 895L992 893H995L996 892H998V891H1001L1002 888H1005V887H1006L1007 885H1008V883H1010L1012 881C1012 881 1012 881 1012 880V879H1013V877H1014C1014 876 1014 876 1015 874C1016 874 1015 874 1015 873L1016 871H1017V869H1018V868L1019 864H1020C1020 863 1020 863 1021 862L1022 859H1023L1025 856L1026 855V854H1027L1030 851L1031 850H1032V849V848H1033L1034 844C1034 843 1034 843 1035 843L1036 841C1036 840 1036 840 1037 839C1037 838 1036 838 1037 837L1038 833C1039 832 1038 832 1038 831V827L1039 826C1032 826 1024 826 1021 825C1012 821 1015 803 1002 795C994 791 982 799 960 798C947 798 949 794 942 792C934 790 928 795 924 799C912 810 925 814 909 820C904 822 904 822 898 822C886 822 865 832 856 826C850 822 851 818 842 816C838 815 835 814 832 813V819ZM1003 900L1002 901H1000L998 902L995 903H990L987 905H967L965 906H953V907H950L946 908H943L942 910H936L932 911L928 912H926L922 913L917 915L915 916H913L912 917L910 918H903C903 919 903 919 903 919L897 928C895 931 898 929 893 931C893 948 891 941 888 953C886 957 888 956 886 960C883 967 885 969 883 974C880 981 881 985 881 992H880V998C882 998 884 998 886 998C896 997 939 995 946 998C948 999 951 1000 954 1001V998H955V996C955 995 955 995 955 994C956 993 956 993 956 992L959 989V988H960V987H961L963 984L964 982H965C965 981 964 981 965 980L968 977V976H969V975H970L971 974V973H973V971H975V970L978 967L980 965V964H981V963H982V962L984 961L986 960L989 957H990L992 954L993 952H994L995 928C995 925 994 924 996 923C996 921 996 921 997 920V915L998 911L1000 909C1000 908 1000 908 1000 907L1002 903V902H1003L1004 900H1003Z"
            fill="#F6AFCE" />
        <path fill-rule="evenodd" clip-rule="evenodd" class="state-map-path" id="kebbi_state_kkLoe9AT3"
            d="M154 305L155 308C155 308 150 310 141 319L127 331C122 335 118 338 113 342L98.9996 355C81.9996 370 73.9996 370 76.9996 385C77.9996 395 78.9996 396 78.9996 408L82.9996 484C82.9996 488 84.9996 506 83.9996 508C82.9996 512 83.9996 508 81.9996 513C78.9996 527 73.9996 535 73.9996 551C72.9996 558 73.9996 570 72.9996 577C71.9996 582 67.9996 584 73.9996 597C74.9996 599 74.9996 598 75.9996 601C76.9996 603 75.9996 605 76.9996 608C76.9996 609 79.9996 616 80.9996 617C84.9996 618 87.9996 618 91.9996 618C101 620 95.9996 622 112 615C128 607 122 607 148 598C163 593 154 596 159 585C164 572 154 570 176 539L193 520C199 516 216 515 206 494L204 490C201 484 201 474 205 470C218 456 224 470 241 463C248 459 255 457 260 450C264 444 258 447 264 436L279 415C283 411 282 411 289 403L304 393C310 390 318 380 321 373C328 372 331 372 338 365C343 360 345 360 347 356C351 349 349 347 355 338C381 289 461 222 486 183C494 160 508 158 518 135C522 127 528 124 532 120C540 112 552 101 556 93.0001C560 88.0001 559 87.0001 564 81.0001C566 78.0001 571 71.0001 571 67.0001L547 61C542 60 543 61 539 59L524 54C521 52 515 49 511 47C504 44 506 48 497 41C482 28 468 29 451 6.00005C441 -8.99995 419 11.0001 407 13.0001C390 16.0001 406 3.00005 354 10.0001C347 10.0001 341 9.00005 334 11.0001C333 24 336 40 333 53L328 70.0001C325 81.0001 323 96.0001 321 107C319 113 319 119 315 124C312 128 310 132 307 136L288 162C286 165 285 166 283 168C279 174 278 178 270 188C269 190 267 192 265 195L249 222C240 234 242 236 228 250L154 305Z"
            fill="#F6AFCE" />
        <path fill-rule="evenodd" clip-rule="evenodd" class="state-map-path" id="kebbi_state_FC0qmtx3q"
            d="M706 1038C707 1036 710 1036 712 1034L759 1018C762 1016 775 1015 779 1014C785 1013 784 1013 789 1011C797 1008 805 1009 812 1006C816 1005 813 1005 818 1004C835 1003 843 999 847 998L872 995C874 995 875 994 876 994V992V990C877 989 876 989 877 988C877 987 877 987 877 987C877 986 878 986 878 985V984C878 983 878 983 879 983C879 982 879 982 879 981C880 980 879 980 880 980V977L881 975V972L882 965C882 965 882 965 882 964V963L883 960V958V956C884 955 884 955 884 954C884 953 884 953 884 952C884 952 884 951 884 950H885C885 949 884 948 885 947V946H886C886 945 886 945 886 945C887 944 887 944 887 943C887 942 888 943 888 942C888 941 888 942 888 941L889 940C889 940 889 940 889 939C890 939 890 938 890 937V936L891 935V934V933V932C892 932 891 932 892 931C892 930 892 930 892 929C892 928 893 928 893 927V925L894 923C894 923 894 923 895 923L896 921C896 920 898 920 898 919H899V918L898 917V916C897 915 897 915 896 915L894 914C894 914 894 914 893 914L892 915C891 915 892 916 891 916C889 916 889 917 888 917H875L873 916V915H872V904V903C871 903 871 903 871 902H869C868 901 867 901 867 901V900H865V899C864 899 865 899 864 899L863 897H862C862 897 862 897 862 896C861 895 861 895 860 895V894L858 892C858 891 858 891 858 891L857 890V889L856 888H855L854 886L851 882L850 881V880C849 879 849 879 849 878C848 878 848 878 848 877V876V875C848 874 847 875 847 874V873V872H846C846 872 846 872 846 871C846 871 845 871 845 870C845 869 845 869 844 868C844 868 844 868 844 867H843C843 866 843 866 843 866C842 865 843 866 843 865H842V863H841C841 862 841 863 841 862C841 861 841 862 841 861C841 861 840 861 840 860V859C840 858 840 858 839 857V856C839 856 839 856 839 855C838 855 839 854 838 854V853V852C838 851 837 850 837 849V848C836 847 836 847 836 847C836 846 836 846 836 846V844H835V842V839V838V836H834V835C834 834 835 834 834 833V832H833C833 831 834 831 833 831V830V828L832 827V826C832 825 832 826 831 825C831 824 831 824 831 824V818C818 814 805 821 796 827C791 830 787 828 781 827C781 826 780 824 780 823C778 820 776 818 774 815C767 815 770 816 766 817C760 819 754 819 750 815C747 813 747 812 743 812C729 811 730 812 716 822C712 824 705 825 701 827L693 832C692 832 690 833 689 834L680 836C674 837 661 844 653 847L642 850C639 852 635 854 632 856L623 864C622 865 621 866 620 867L616 870C611 878 603 890 596 894C585 899 567 892 563 892C562 896 561 902 564 904C566 907 574 904 576 903C582 900 578 901 590 901C602 901 606 899 615 907C619 910 624 912 627 915L643 931C644 932 645 933 646 934C651 938 654 942 659 946C663 948 667 950 671 953C675 955 681 956 684 960C688 964 691 966 692 971C693 975 696 980 699 984L701 986C703 988 703 986 704 990C705 995 704 1001 703 1006C698 1010 697 1013 699 1022C700 1029 701 1033 701 1036V1037C702 1037 702 1037 702 1038C703 1038 704 1038 704 1038C705 1038 705 1038 705 1038C705 1038 705 1038 706 1038Z"
            fill="#9DD3AF" />
        <path fill-rule="evenodd" clip-rule="evenodd" class="state-map-path" id="kebbi_state_XDpTzy2Pc"
            d="M546 1040H548C548 1041 548 1042 549 1043L550 1046C550 1047 550 1047 551 1048H552L553 1051V1052L555 1053L557 1056H558V1057L562 1063L563 1064L565 1067L566 1068H567V1069H568L570 1073L571 1075C571 1077 571 1077 573 1079V1089C572 1089 572 1089 571 1089C569 1090 568 1091 564 1092C563 1092 562 1093 562 1093C561 1093 561 1093 561 1094H560C560 1099 557 1097 562 1103C572 1113 580 1105 595 1116C600 1120 598 1120 602 1124L620 1143C621 1146 620 1147 621 1150C626 1160 631 1153 643 1168C646 1171 646 1171 650 1173C652 1174 653 1175 655 1176C660 1179 660 1179 666 1180C671 1180 677 1179 681 1180C687 1182 693 1189 697 1194C702 1194 704 1191 710 1193C714 1194 719 1194 723 1195C733 1199 732 1196 746 1203C751 1200 764 1190 768 1188C775 1183 781 1179 787 1173C792 1168 786 1174 795 1167L805 1161C802 1156 802 1159 800 1154C799 1152 799 1152 798 1150C797 1149 796 1146 795 1145C788 1134 765 1144 751 1138C748 1136 749 1137 746 1136L737 1133C734 1132 735 1131 732 1130C728 1129 727 1129 723 1127C720 1126 721 1126 719 1125L704 1120C638 1089 602 1044 693 1041V1039C691 1033 692 1024 692 1017C692 1004 694 1009 697 999C698 994 694 986 690 982L686 978C681 964 675 963 662 955L644 940C641 937 637 935 636 930C628 930 632 927 625 922C621 919 618 918 614 916C602 908 607 907 589 907C588 911 586 909 586 915C585 922 587 930 587 937C589 949 595 954 587 966L586 968C583 974 583 975 577 978L564 991C562 994 560 995 558 997C555 1001 554 1005 552 1009C551 1011 551 1011 550 1013C544 1029 546 1017 546 1040Z"
            fill="#F6AFCE" />
        <path fill-rule="evenodd" clip-rule="evenodd" class="state-map-path" id="kebbi_state_Y0bfWuq7S"
            d="M1083 1019L1084 1021C1085 1026 1084 1022 1084 1022C1093 1022 1092 1026 1098 1030C1099 1030 1100 1031 1101 1032C1105 1036 1111 1038 1115 1041C1116 1041 1116 1041 1116 1041C1119 1043 1119 1043 1120 1046C1129 1046 1146 1044 1153 1047L1157 1050C1167 1058 1166 1068 1169 1079C1172 1088 1163 1097 1173 1101C1178 1103 1180 1102 1185 1106C1189 1109 1187 1110 1190 1114L1191 1115C1194 1119 1193 1122 1195 1125C1200 1133 1205 1130 1212 1132L1223 1142C1235 1154 1227 1146 1246 1146C1270 1146 1264 1149 1273 1135L1291 1117L1292 1116L1293 1115C1297 1112 1299 1106 1304 1104C1310 1102 1324 1104 1329 1108L1333 1112C1333 1102 1334 1097 1331 1088C1329 1081 1332 1068 1329 1061C1327 1051 1325 1024 1323 1019C1323 1018 1323 1018 1323 1018L1321 1012C1320 1011 1319 1009 1319 1007C1317 1003 1314 996 1311 993L1309 991C1309 990 1308 990 1308 990C1304 985 1305 985 1300 983C1296 981 1296 980 1294 979C1286 973 1301 982 1290 977C1286 975 1280 974 1276 971L1261 964L1257 958C1256 952 1257 961 1257 956C1256 952 1258 949 1259 947C1260 945 1259 946 1261 943C1263 938 1262 943 1263 937C1265 930 1267 919 1269 913C1272 907 1270 914 1271 906C1272 902 1272 900 1274 899C1274 892 1276 875 1273 870L1272 868C1270 865 1267 861 1264 860C1264 859 1264 859 1263 859L1229 845C1225 844 1223 844 1219 844C1216 843 1215 842 1211 842C1201 841 1200 842 1192 840C1190 839 1190 839 1189 839L1188 840C1182 842 1180 846 1173 848C1161 851 1158 851 1146 849C1143 849 1121 847 1118 848C1109 851 1110 851 1100 851C1095 851 1097 852 1092 853C1090 853 1085 853 1082 853C1076 853 1076 853 1072 852C1061 846 1060 840 1048 834C1039 831 1036 847 1032 852C1032 852 1031 852 1031 853L1029 857C1029 857 1029 857 1028 858C1027 863 1024 867 1022 872C1022 872 1022 872 1022 873L1016 885C1012 891 1010 898 1006 904L1001 913V914C999.999 914 999.999 914 999.999 914C995.999 922 995.999 939 997.999 947L1001 957C1004 963 1005 969 1010 973C1012 974 1012 974 1014 975L1021 983C1022 983 1022 984 1022 984L1072 1016C1076 1018 1077 1019 1083 1019Z"
            fill="#9DD3AF" />
        <path fill-rule="evenodd" clip-rule="evenodd" class="state-map-path" id="kebbi_state_Ergszo1uU"
            d="M651 1338C649 1341 648 1356 645 1361C640 1371 631 1377 623 1384C620 1388 617 1392 613 1395C608 1398 605 1402 600 1405C592 1408 585 1409 578 1412C570 1415 564 1418 559 1423C552 1428 550 1431 544 1438L533 1457C531 1461 531 1466 531 1471C531 1479 529 1475 528 1482C528 1490 527 1517 530 1524C534 1533 534 1537 542 1543C548 1547 563 1557 564 1566C564 1576 563 1592 559 1601C553 1613 551 1631 552 1644C561 1650 563 1649 576 1649C586 1650 588 1653 601 1652C602 1636 604 1626 604 1612C604 1603 606 1599 614 1595C618 1592 622 1594 627 1593C631 1592 628 1592 632 1591L670 1579C690 1575 691 1584 716 1567C727 1560 724 1558 730 1552C731 1551 732 1550 733 1549C736 1545 738 1537 736 1531C734 1524 733 1516 729 1510L718 1492C712 1480 690 1468 690 1448C690 1439 695 1436 693 1421C691 1412 690 1404 691 1394C691 1389 693 1388 693 1381C693 1372 690 1365 693 1356C694 1354 697 1351 699 1350L709 1343C714 1341 730 1341 735 1343C757 1350 754 1350 777 1337L797 1327C801 1326 802 1325 808 1324L831 1318C841 1315 847 1298 843 1289C841 1283 832 1278 828 1275C824 1273 821 1271 818 1270C815 1268 812 1266 810 1263C809 1262 807 1254 806 1253C805 1244 814 1236 820 1231C825 1227 829 1228 831 1221C833 1214 829 1210 829 1194C829 1189 829 1185 827 1181C824 1174 826 1167 820 1160C814 1159 814 1159 811 1162C805 1168 798 1170 791 1176L772 1191C770 1192 767 1194 765 1195C762 1197 761 1198 758 1200C741 1214 745 1207 735 1211L728 1215C724 1217 717 1221 715 1225C708 1238 714 1245 701 1258L695 1262C684 1268 685 1286 685 1298C684 1305 682 1305 682 1318C682 1322 682 1326 682 1330C682 1333 681 1334 679 1337L670 1345C668 1346 670 1346 665 1346C657 1347 655 1343 651 1338Z"
            fill="#9DD3AF" />
        <path fill-rule="evenodd" clip-rule="evenodd" class="state-map-path" id="kebbi_state_KK0p0H9xj"
            d="M577 70C574 73 567 85 565 89C553 107 558 100 543 115L527 130C522 135 524 134 521 140C516 151 501 164 497 171L485 199C480 211 473 209 469 216C470 223 482 235 487 238C492 242 495 242 502 241C507 240 515 240 519 239C525 235 528 238 534 240C544 244 552 245 559 255C562 259 561 263 564 269C574 270 574 268 581 267C588 266 591 271 596 272C603 274 604 275 608 280C611 283 628 293 633 294C639 296 644 294 650 293C661 292 679 294 689 292L693 273C694 269 694 270 695 267C698 258 695 247 698 238C701 228 695 224 690 209C689 204 686 197 682 193C679 189 669 181 668 177L670 149C672 143 674 147 676 139C676 136 678 128 679 126C680 124 680 125 682 122C686 116 680 111 683 101C683 97 685 95 686 93C688 91 686 94 688 91L696 68C696 64 691 45 678 55L661 77C657 84 653 90 645 93C639 94 624 94 618 92C613 90 610 90 606 88C598 83 586 71 577 70Z"
            fill="#9DD3AF" />
        <path fill-rule="evenodd" clip-rule="evenodd" class="state-map-path" id="kebbi_state_HVzq7Dtki"
            d="M408 700C408 705 409 704 410 708C411 711 410 714 411 718C411 725 412 720 413 736C414 741 414 741 415 744C418 753 414 784 414 795C414 809 416 821 416 835C425 836 417 832 437 829C455 826 446 824 456 820C459 818 464 819 468 819C475 819 477 817 481 821C486 825 490 831 494 836L539 837C542 832 545 817 552 802C556 795 559 786 562 780C564 777 566 773 568 769L572 749C572 746 572 745 572 743C571 740 567 741 558 737L541 728C539 728 539 727 538 727C507 713 500 724 474 724L462 721C453 723 434 727 426 716C420 707 420 691 424 684C425 681 426 682 427 680C429 676 424 685 428 678C448 660 478 687 462 668C458 662 461 658 466 656C466 651 472 650 477 650C478 649 478 648 480 647C473 622 463 635 462 613C461 609 457 596 456 593C455 592 452 588 451 586C443 576 446 576 442 569C440 566 438 563 437 561C432 551 429 531 422 523L406 513C399 517 405 519 395 531C391 536 387 533 383 548C379 563 378 558 370 566C365 572 354 572 352 577C351 581 352 583 351 587C346 597 351 599 345 605C341 609 337 609 340 623L349 636C351 637 352 638 353 639L359 642C368 650 372 640 393 660C394 661 407 697 408 700Z"
            fill="#D2E28B" />
        <path fill-rule="evenodd" clip-rule="evenodd" class="state-map-path" id="kebbi_state_kXtGYzAAQ"
            d="M959 995C964 997 969 1001 973 1006C978 1011 980 1016 982 1023C983 1029 984 1030 984 1038C985 1043 985 1049 985 1054C985 1062 988 1073 995 1078C999 1081 1001 1083 1006 1085C1010 1086 1013 1089 1017 1091V1092L1026 1100C1031 1107 1029 1122 1029 1132C1029 1137 1029 1143 1029 1149C1028 1154 1027 1158 1028 1164C1030 1181 1025 1178 1033 1193C1053 1195 1051 1196 1073 1196C1080 1196 1081 1194 1087 1194C1097 1194 1106 1193 1116 1193L1134 1190C1143 1186 1128 1194 1137 1189C1142 1186 1146 1186 1152 1182C1158 1178 1168 1176 1176 1172C1181 1170 1185 1166 1191 1164L1223 1153L1214 1140L1208 1139C1208 1138 1208 1138 1207 1138C1195 1134 1195 1144 1187 1122L1184 1114C1182 1111 1182 1111 1178 1110C1178 1110 1177 1110 1177 1109L1171 1106C1156 1099 1163 1103 1162 1079C1161 1072 1159 1068 1158 1059C1155 1058 1158 1059 1155 1057C1143 1048 1124 1057 1114 1049L1110 1045C1106 1043 1101 1041 1099 1040C1097 1038 1098 1038 1095 1036L1090 1032C1089 1031 1089 1031 1088 1030C1083 1026 1066 1021 1058 1016L1049 1011C1043 1008 1042 1009 1036 1005C1029 999 1025 997 1019 990L1012 983C1012 983 1012 983 1011 982C1005 976 997 975 997 963L989 967C981 972 975 980 968 986L959 995Z"
            fill="#F6AFCE" />
        <path fill-rule="evenodd" clip-rule="evenodd" class="state-map-path" id="kebbi_state_WaJUAG6dM"
            d="M429 522C431 521 441 516 444 515C448 514 450 513 453 512C458 510 460 509 462 499C464 492 466 488 470 483C473 478 475 471 487 464C492 461 497 458 502 456C521 444 535 462 538 461C541 461 545 451 557 445C564 442 566 444 573 443C580 443 576 443 580 441L586 437C587 430 584 424 580 421L573 416C567 413 558 406 557 399C554 384 555 387 543 380C518 365 511 384 485 389C482 389 467 391 465 391C462 391 459 390 455 390C451 390 447 390 444 390C436 390 430 388 423 389C417 389 405 390 401 387C391 382 392 366 391 364C390 358 382 348 378 344C372 339 372 338 361 339L356 345C353 350 356 356 349 362C349 362 347 363 347 364C337 370 339 370 333 375C328 378 327 375 324 379C322 381 321 384 318 387C316 389 314 392 311 394L304 399C291 408 298 400 283 417C278 422 280 419 290 430C298 441 293 431 302 445C303 447 305 449 307 452C312 459 308 463 331 471C334 472 331 471 333 471C335 472 335 472 338 473C344 475 340 475 348 476C354 477 355 478 360 478C364 479 373 471 385 481L399 498C401 501 403 503 406 506C410 510 410 509 414 511C420 516 422 516 429 522Z"
            fill="#9DD3AF" />
        <path fill-rule="evenodd" clip-rule="evenodd" class="state-map-path" id="kebbi_state_YT8L6OfeJ"
            d="M474 1068C468 1066 457 1064 451 1061C447 1059 442 1052 438 1049L437 1048C433 1045 422 1044 417 1045C418 1040 418 1040 421 1037C431 1022 429 1030 440 1024C461 1012 456 1001 462 991L477 973C485 965 485 951 474 941L464 930C460 926 456 922 452 920C423 904 439 913 414 894C404 886 398 881 393 871C390 865 385 863 383 858C388 854 385 858 394 852C397 851 402 848 405 847C408 846 408 846 411 844C413 843 416 842 418 841C418 841 419 841 419 840C441 830 427 837 442 835C449 834 449 830 452 827C452 827 452 827 453 827C457 824 452 827 458 825C463 823 458 823 463 824C473 827 470 825 477 823C489 832 480 828 491 839C497 843 499 840 509 841C516 841 511 842 516 843C520 844 532 844 537 844C537 848 535 854 537 858C538 862 534 853 538 860C540 864 542 868 545 871L557 884C558 895 551 898 558 907C565 915 571 909 580 908C580 915 578 912 578 918C578 926 580 915 581 937C581 945 582 942 583 947C588 961 582 968 571 978C555 992 552 989 543 1014C542 1016 542 1016 541 1018C539 1023 539 1025 539 1031H538L539 1041C539 1042 539 1042 540 1043C540 1045 540 1044 540 1046L542 1053L543 1055H544L545 1058H546V1059L549 1063L550 1064H551L554 1070H555V1071L557 1074H558V1076H559H560V1077C562 1079 563 1080 564 1083C564 1084 564 1085 565 1086H562C561 1086 561 1087 560 1087H558H557V1088H555C554 1088 552 1087 551 1087H546V1086H545V1085H543L542 1084H541V1083L538 1081V1080L513 1066H493L482 1078H475H474C474 1075 474 1072 474 1068Z"
            fill="#91D8F7" />
        <path fill-rule="evenodd" clip-rule="evenodd" class="state-map-path" id="kebbi_state_KFGTV9Kl0"
            d="M366 333C370 335 371 333 374 335C375 336 378 339 380 340C391 349 387 345 394 358C395 361 396 363 397 366C399 370 398 369 398 375C399 380 400 378 402 382C408 382 407 382 412 383C418 385 418 385 423 383C432 380 423 385 443 385C466 385 462 387 485 382C500 379 496 380 511 373C523 368 523 369 537 362C539 361 543 360 545 359C551 357 548 359 553 355C566 345 605 325 617 323L636 318C641 316 640 317 645 316L663 311C670 310 668 309 673 308C684 306 688 313 687 297C681 297 675 297 668 297C659 297 658 299 651 299C625 303 626 295 617 291C616 291 615 291 613 290C611 289 609 288 607 286C602 281 604 280 596 277C577 270 581 275 560 273C553 263 560 253 540 247C538 246 537 247 535 246C517 239 526 247 498 247C487 247 480 240 474 231C472 229 471 230 465 221C462 222 461 223 457 227C452 231 366 332 366 333Z"
            fill="#91D8F7" />
        <path fill-rule="evenodd" clip-rule="evenodd" class="state-map-path" id="kebbi_state_GidOKfEpS"
            d="M476 1097H475C468 1105 472 1121 459 1129L449 1134C442 1138 437 1142 433 1149C432 1151 432 1151 430 1154C428 1160 427 1159 427 1167C431 1168 436 1168 440 1168L458 1165C461 1164 462 1163 465 1162C474 1161 497 1158 504 1160C518 1164 540 1169 552 1175C558 1179 560 1182 570 1188L601 1208C603 1210 606 1211 608 1212C609 1213 612 1215 614 1216C623 1222 618 1221 630 1221C635 1221 635 1221 639 1223C643 1225 643 1223 647 1224C651 1225 658 1230 660 1232C665 1236 667 1238 667 1247C666 1254 664 1279 662 1285L656 1310C655 1321 646 1346 669 1339C684 1335 674 1295 682 1270C688 1253 702 1260 705 1241C706 1235 706 1238 707 1233C709 1225 708 1225 714 1219C721 1213 729 1207 739 1205C734 1203 725 1202 718 1200C709 1197 704 1199 694 1198C692 1194 682 1183 677 1185C673 1186 674 1187 669 1187C665 1187 665 1186 663 1185C652 1181 650 1181 641 1172C639 1170 636 1166 633 1164C623 1158 619 1161 616 1148C613 1140 606 1137 600 1131L596 1126C594 1123 593 1117 581 1116C573 1115 575 1114 568 1113C564 1112 562 1110 558 1106C554 1101 550 1098 547 1096H546C542 1094 541 1095 541 1091C540 1092 538 1092 535 1092L533 1091V1090L525 1084L501 1074L497 1079H496L491 1085C489 1090 487 1093 483 1092C482 1093 481 1094 479 1095C479 1096 478 1096 478 1096L476 1097ZM534 1092H531H534Z"
            fill="#FDD1A1" />
        <path fill-rule="evenodd" clip-rule="evenodd" class="state-map-path" id="kebbi_state_YarqnRS30"
            d="M537 371C539 373 551 378 556 382C564 390 560 397 565 404C569 409 577 412 583 416C590 421 590 426 592 437C576 451 585 447 559 450C554 451 550 457 546 460C540 466 539 468 542 477C547 498 537 511 572 529C577 532 577 532 581 532C582 528 583 504 583 498C583 489 579 501 583 484C585 478 589 461 593 456C596 453 598 449 601 447C609 440 622 439 628 436C633 434 639 435 644 434C656 431 664 437 671 441L683 448C695 456 699 449 699 435C699 420 701 429 702 419L701 375L693 344C689 334 685 326 684 312C676 313 650 319 642 322C639 323 636 323 632 324C621 328 615 328 603 333L586 341C583 343 581 344 578 345C575 347 571 348 569 350L558 358C542 369 538 364 537 371Z"
            fill="#F6AFCE" />
        <path fill-rule="evenodd" clip-rule="evenodd" class="state-map-path" id="kebbi_state_UaWbicZHl"
            d="M266 680C294 666 287 657 331 631C333 630 334 629 335 629C336 614 333 618 332 610C332 600 333 600 329 591C324 581 328 581 323 576C313 564 302 569 292 562C288 559 283 556 280 552C272 539 280 546 267 531C260 523 266 526 252 524C245 524 251 522 244 522C237 521 217 522 212 521C210 520 212 520 208 520C202 520 195 526 190 530C181 539 178 543 172 555C163 574 167 580 164 591C161 602 164 601 168 607C170 612 172 622 181 626C220 638 236 639 266 680Z"
            fill="#D2D3D5" />
        <path fill-rule="evenodd" clip-rule="evenodd" class="state-map-path" id="kebbi_state_jGsun6SG8"
            d="M214 515C230 515 230 517 236 517C245 517 254 517 261 519C266 521 266 523 269 525C271 527 273 531 275 533C280 539 280 538 282 545C284 549 283 548 285 550C295 563 310 559 321 568C333 577 330 577 332 584L339 603C343 603 340 603 341 602L343 599C345 595 344 594 344 590C345 583 345 588 347 584C349 574 343 574 360 566C367 563 366 561 371 558C380 552 374 555 378 546C380 541 382 537 385 533C390 528 392 530 395 522L397 517C400 508 403 511 397 504C394 502 395 502 394 499C393 497 394 499 393 497L378 484C369 480 360 487 345 481C339 479 341 482 334 478L333 477C332 477 331 476 330 476C304 465 313 470 296 445C295 443 292 440 290 438L278 425C275 427 272 433 270 437L267 443C264 451 269 457 237 470C223 476 217 464 210 471C208 474 205 481 208 487C209 490 211 492 212 495C215 501 212 509 214 515Z"
            fill="#91D8F7" />
        <path fill-rule="evenodd" clip-rule="evenodd" class="state-map-path" id="kebbi_state_SWWKYEH4f"
            d="M469 672H470L469 668H468C467 668 467 668 467 668C462 661 466 658 481 651C485 638 468 623 467 619C466 616 467 611 466 607C465 603 465 605 464 603C463 599 464 596 459 589C446 572 456 585 450 573L439 552C434 545 439 547 435 537C434 534 432 531 431 528C434 523 448 518 456 518C457 519 457 519 458 520L459 522C465 535 474 551 489 554C502 557 495 557 502 559C512 563 518 555 537 559C542 561 541 561 544 563C561 578 563 567 580 572C581 577 581 579 582 584C584 590 584 590 582 596C580 603 582 629 584 637C584 640 584 659 583 672C587 674 589 676 589 678C587 681 587 694 585 698L581 716C580 717 580 717 580 718L579 722C577 723 577 725 576 727C575 730 575 733 573 736C564 735 574 735 566 734C554 732 558 731 546 726C541 723 542 726 534 721C499 700 502 717 481 717L480 718L444 717C443 716 441 716 440 715C440 715 440 715 439 715C439 714 437 714 437 713C436 713 436 712 435 712L434 711V710H432V709C431 708 431 708 431 707H430V705C429 704 429 703 429 702V699H428V697C428 697 427 695 427 694H426V692V690H427C427 689 427 689 427 689L428 688V687V686H429C429 686 429 686 429 685C429 685 429 685 429 684L430 683H431C431 683 432 683 432 682H433L434 681C435 681 435 681 436 680C436 680 436 681 437 680C438 680 438 680 439 680L440 679H441C442 679 442 679 443 678H444H445C445 678 445 678 446 678V677H452H453H455L457 676C458 676 458 676 459 676H469V672Z"
            fill="#F6AFCE" />
        <path fill-rule="evenodd" clip-rule="evenodd" class="state-map-path" id="kebbi_state_JlNzwSfcd"
            d="M461 514C465 520 462 519 468 529L477 541C488 551 493 548 499 552C501 553 505 555 507 555C512 556 509 553 525 553C535 553 537 553 544 557C558 568 559 565 580 565L581 539L568 533C566 532 567 532 566 531C563 530 562 530 560 529C552 523 541 511 539 501C538 495 537 493 537 488C536 480 538 467 530 462C520 455 506 458 494 466C492 467 493 466 492 467C483 472 475 481 470 491C468 496 468 507 461 514Z"
            fill="#FDD1A1" />
    </svg>