<svg viewBox="0 0 1772 1536" fill="none" xmlns="http://www.w3.org/2000/svg">
        <path fill-rule="evenodd" clip-rule="evenodd" class="state-map-path"
            d="M619 469C605 467 596 477 596 484C596 497 609 510 613 514C616 531 613 549 631 555C639 558 643 557 649 563C676 587 675 606 668 641C666 650 663 649 662 653C669 654 665 650 673 654C686 659 691 670 707 663C715 659 719 655 726 652C734 648 740 645 747 642C759 635 771 625 786 620C794 618 802 616 810 614L822 611C827 609 830 606 835 608C842 611 847 623 849 625C852 627 872 629 877 630C881 630 886 633 889 633C895 635 900 633 906 633C914 634 936 653 940 665C944 674 947 678 952 686C957 695 976 718 985 720C985 701 983 687 989 671C995 655 999 643 1000 626C1000 617 1001 609 1001 600C1000 591 999 586 999 576C998 557 996 542 996 524C997 502 992 476 981 457C976 448 948 408 938 393C933 386 933 379 932 371C919 366 915 366 906 354C896 342 885 332 876 318C864 299 865 300 848 280C842 272 837 263 829 256C819 247 816 244 807 234C796 221 761 213 757 196C745 143 728 104 698 60.0001C683 38.0001 630 6.11544e-05 604 1.00006C592 27.0001 580 27.0001 577 44.0001C577 45.0001 537 208 538 213L539 217C542 225 554 215 557 213C569 205 584 213 606 213C615 213 620 217 627 220C639 226 661 249 672 259L714 300C722 310 728 325 736 334C746 345 749 355 758 368C766 380 774 386 782 400C800 430 746 470 753 500C756 517 777 546 773 561C771 568 765 574 759 576C753 578 744 571 739 568C725 559 722 552 712 540C704 530 630 471 619 469Z"
            fill="#91D8F7" />
        <path fill-rule="evenodd" clip-rule="evenodd" class="state-map-path"
            d="M462 440C467 444 474 452 486 487C488 493 490 497 492 504C495 512 494 516 494 525C495 544 492 547 488 564L474 619C468 638 457 637 465 650C470 659 466 661 470 668C472 671 478 678 480 682C490 694 505 686 514 707C515 710 516 712 517 715C521 723 518 729 521 734C522 736 533 744 535 745C545 745 549 741 557 738C576 730 583 728 606 733C621 737 617 743 627 735C627 732 628 728 627 724C627 720 625 719 625 715C624 703 627 701 627 693C629 656 664 662 663 633C662 608 673 598 656 575C653 571 645 566 640 564C633 562 627 560 621 556C612 550 612 552 611 539C610 533 609 535 608 528C608 524 609 521 607 517C601 509 588 499 588 481C588 473 594 467 600 465C623 455 645 473 653 484C659 484 663 492 668 495L707 527C714 534 730 556 734 558C738 562 752 572 757 571C769 564 769 556 764 544C759 529 750 514 746 499C738 467 798 437 772 394C767 386 760 378 754 370C746 362 744 351 738 343C732 335 726 328 721 319C710 301 697 289 681 273L659 253C655 250 651 247 648 244C639 236 634 230 624 225C601 214 610 221 588 218C580 217 580 215 569 215C559 215 560 217 553 221C546 226 542 224 533 224C523 243 531 244 493 247C481 279 495 288 498 298C502 313 491 324 488 333C486 339 486 342 485 347C482 357 485 370 483 377C482 381 478 382 478 387C475 406 487 421 479 429C476 433 472 432 467 433C459 434 461 434 462 440Z"
            fill="#F6AFCE" />
        <path fill-rule="evenodd" clip-rule="evenodd" class="state-map-path"
            d="M1025 909C1044 918 1055 936 1061 939C1066 941 1074 938 1079 936C1087 933 1130 930 1141 930C1148 930 1158 933 1164 931C1177 927 1171 910 1178 900C1184 892 1197 877 1208 874C1211 873 1214 874 1217 875C1221 878 1225 886 1225 891C1224 897 1219 901 1224 908C1231 919 1233 926 1240 937L1253 957C1257 962 1263 971 1272 973C1282 975 1306 972 1312 968C1316 966 1320 960 1321 955C1326 944 1326 930 1343 931C1351 932 1355 936 1362 937L1479 934C1483 934 1484 932 1488 931C1488 927 1488 923 1489 919C1489 916 1490 915 1491 909C1492 898 1496 873 1492 862C1489 853 1488 860 1485 843C1482 831 1474 821 1471 807C1469 799 1466 796 1462 790C1459 786 1460 776 1458 769C1457 761 1457 753 1457 745C1457 728 1453 721 1443 708C1440 703 1437 697 1433 692C1417 673 1419 669 1413 662C1403 649 1404 641 1393 631C1387 634 1385 644 1371 648C1361 652 1351 654 1340 658C1335 660 1332 662 1327 664C1313 670 1293 670 1282 681C1266 698 1268 694 1253 713C1246 721 1228 734 1214 735C1202 736 1191 741 1180 743C1169 744 1156 739 1144 744C1136 747 1119 771 1116 775C1102 791 1092 790 1071 793C1059 794 1052 800 1045 807C1033 818 1038 813 1029 832C1024 842 1024 854 1024 868C1024 878 1023 900 1025 909Z"
            fill="#F6AFCE" />
        <path fill-rule="evenodd" clip-rule="evenodd" class="state-map-path"
            d="M948 1134C954 1137 962 1136 969 1139C997 1152 977 1167 976 1168C974 1171 972 1189 973 1191C981 1198 991 1197 1002 1200C1014 1203 1021 1207 1034 1209C1040 1210 1044 1211 1048 1214C1054 1218 1054 1220 1062 1215C1068 1212 1068 1209 1076 1209C1081 1210 1089 1211 1093 1213C1094 1222 1090 1222 1086 1225C1090 1245 1108 1235 1119 1252C1122 1256 1125 1260 1128 1264C1137 1280 1136 1315 1137 1334C1141 1336 1142 1333 1154 1348C1158 1355 1159 1363 1172 1361C1180 1359 1186 1353 1190 1348C1200 1335 1199 1339 1211 1323L1243 1292C1245 1290 1248 1288 1252 1286C1258 1281 1265 1276 1271 1273C1286 1263 1293 1266 1306 1248C1309 1244 1311 1244 1314 1241L1350 1199C1352 1195 1354 1193 1357 1190C1382 1154 1385 1171 1402 1158C1402 1154 1404 1154 1393 1152C1389 1152 1385 1151 1379 1150C1365 1147 1354 1143 1351 1129C1349 1122 1351 1120 1354 1115C1359 1108 1362 1103 1365 1093C1341 1093 1338 1089 1323 1078C1309 1069 1311 1057 1289 1056C1264 1056 1277 1056 1262 1054C1256 1053 1234 1062 1212 1050C1209 1048 1205 1047 1202 1046C1198 1044 1195 1043 1190 1043C1189 1049 1190 1056 1190 1062C1190 1071 1189 1072 1184 1077C1179 1083 1176 1080 1162 1085C1154 1088 1142 1089 1136 1090C1128 1091 1128 1093 1118 1091C1100 1089 1102 1086 1088 1079C1057 1061 1053 1067 1030 1056C1018 1051 1011 1049 1003 1043C999 1040 995 1038 992 1033C988 1028 988 1025 979 1026C977 1031 978 1040 972 1054L961 1079C951 1092 944 1087 949 1117C951 1125 948 1128 948 1134Z"
            fill="#9DD3AF" />
        <path fill-rule="evenodd" clip-rule="evenodd" class="state-map-path"
            d="M1002 917C1023 920 1018 901 1018 895C1023 868 1016 879 1020 855C1024 833 1014 854 1028 822C1035 806 1037 809 1047 800C1055 791 1063 788 1075 786C1079 786 1093 785 1099 783C1099 783 1106 778 1107 777C1111 775 1122 758 1133 747C1154 725 1164 743 1201 732C1209 730 1216 731 1224 727C1237 721 1231 723 1241 717C1249 712 1250 707 1254 703L1282 675C1290 668 1299 667 1311 663C1314 662 1320 661 1322 660C1331 658 1325 660 1333 656L1336 654C1347 650 1353 648 1363 645C1371 643 1377 641 1382 636C1397 620 1384 620 1390 590C1398 558 1402 577 1417 547C1421 537 1416 534 1431 520C1444 509 1445 500 1452 485C1442 485 1434 487 1424 488C1414 488 1407 491 1399 494C1370 503 1326 510 1299 518C1266 529 1261 535 1234 546C1212 555 1207 559 1192 565C1166 575 1157 576 1134 601C1127 610 1129 611 1116 615L1091 622C1087 623 1074 623 1065 626C1056 629 1051 632 1043 635C1033 639 1022 646 1013 652C998 660 1000 657 993 678C986 696 999 736 981 760C969 776 973 782 956 797C947 805 948 803 948 819C948 830 947 839 949 849L953 876C954 910 970 872 990 897C998 906 999 912 1002 917Z"
            fill="#D2E28B" />
        <path fill-rule="evenodd" clip-rule="evenodd" class="state-map-path"
            d="M1497 858C1500 856 1501 852 1504 849C1507 845 1510 844 1515 841C1519 837 1533 830 1535 825C1538 820 1537 817 1540 812C1545 803 1556 787 1566 783C1575 779 1594 775 1605 768C1610 766 1613 765 1619 764C1647 758 1656 760 1667 757L1679 756H1680C1687 754 1686 737 1686 725C1686 713 1687 696 1684 685C1683 678 1684 676 1681 670C1671 647 1674 659 1656 639C1608 587 1629 581 1619 530C1617 518 1621 502 1619 495C1582 493 1554 492 1519 484C1506 482 1514 482 1498 482C1456 480 1458 481 1450 501C1448 507 1445 511 1442 516C1430 531 1432 516 1423 542C1418 558 1417 558 1405 570C1394 580 1397 587 1394 603C1390 618 1397 627 1404 636C1410 645 1409 648 1420 664C1423 669 1425 673 1428 678C1434 688 1436 685 1447 704C1450 710 1453 714 1456 719C1467 736 1459 772 1471 794L1490 842C1491 847 1492 856 1497 858Z"
            fill="#9DD3AF" />
        <path fill-rule="evenodd" clip-rule="evenodd" class="state-map-path"
            d="M955 895C955 908 955 927 956 941C957 980 957 979 939 1017C934 1027 929 1040 929 1054C935 1058 938 1059 940 1067C941 1070 942 1075 943 1077L947 1082C948 1083 948 1083 948 1083L950 1085C954 1079 956 1080 959 1072C962 1065 963 1062 966 1055C968 1049 970 1048 971 1039C972 1035 973 1024 975 1020C993 1017 990 1027 1002 1037C1007 1041 1041 1057 1047 1058C1063 1060 1081 1069 1094 1077C1109 1086 1106 1087 1129 1086C1141 1085 1156 1082 1166 1078C1185 1072 1185 1077 1185 1054C1184 1031 1191 1035 1207 1043C1226 1052 1219 1050 1244 1050C1251 1050 1258 1049 1266 1050C1273 1050 1279 1051 1286 1051C1293 1051 1300 1053 1305 1055C1312 1058 1311 1059 1316 1065C1328 1081 1359 1098 1376 1081C1385 1072 1390 1070 1393 1055C1396 1043 1391 1049 1399 1032C1407 1017 1410 1021 1419 1015C1437 1006 1437 1016 1438 1004C1438 1001 1438 1000 1438 997C1439 992 1441 990 1445 987C1455 981 1463 981 1467 980C1477 976 1478 974 1483 964C1485 959 1488 947 1487 939C1481 938 1483 940 1478 941C1474 941 1469 941 1465 941C1449 941 1434 946 1414 943C1405 941 1376 946 1363 943C1357 941 1348 937 1343 936C1334 935 1331 942 1329 948C1327 952 1327 955 1326 959C1318 974 1302 980 1281 980C1260 979 1249 959 1238 943C1232 935 1228 926 1224 917C1222 914 1219 910 1219 908C1216 902 1219 891 1218 883C1206 875 1194 887 1187 896C1180 906 1182 900 1179 913C1178 921 1178 926 1172 932C1164 939 1139 935 1127 935C1120 936 1121 937 1117 938C1113 939 1100 937 1081 941C1071 943 1064 954 1049 934C1045 929 1042 927 1037 922C1034 920 1030 916 1025 915C1020 915 1024 914 1020 916C1015 919 1010 924 1004 923C1000 922 998 920 996 918C992 913 994 913 992 909C983 890 976 894 955 895Z"
            fill="#91D8F7" />
        <path fill-rule="evenodd" clip-rule="evenodd" class="state-map-path"
            d="M1045 224C1045 224 1045 224 1045 225L1041 233C1030 263 962 314 957 341C955 351 956 354 952 362C950 369 946 374 937 370C938 403 970 422 985 453C994 466 1003 502 1003 517C1003 558 1007 595 1005 635C1004 642 1002 641 1003 651C1008 650 1024 640 1029 637C1036 632 1049 627 1057 624C1073 617 1111 614 1122 606C1111 598 1111 598 1111 582C1111 562 1114 553 1122 534C1127 523 1140 517 1141 510C1132 466 1147 433 1155 406C1155 399 1153 398 1153 392C1154 353 1152 335 1125 307C1121 303 1116 290 1115 287C1112 274 1126 267 1132 247C1133 245 1135 237 1135 235L1138 221C1122 221 1147 220 1096 215C1084 213 1081 215 1073 216C1067 217 1053 224 1045 224Z"
            fill="#9DD3AF" />
        <path fill-rule="evenodd" clip-rule="evenodd" class="state-map-path"
            d="M187 491C201 490 201 488 216 492C226 495 238 511 224 521C221 524 216 525 212 527C201 533 202 542 198 546C191 554 185 555 184 567C183 575 184 578 186 583C217 651 236 634 293 662C298 664 308 673 317 662C319 659 324 642 326 637C328 624 320 592 312 584C296 569 271 571 263 533C261 525 261 510 260 501C259 488 259 467 266 457C269 453 271 452 274 448L296 419C297 417 302 410 302 408C309 390 291 400 329 368C337 362 341 360 348 352C356 344 357 343 367 338C371 336 375 335 379 332C382 330 385 327 389 325C400 318 445 301 461 296C470 293 477 291 484 285C484 279 481 274 482 266C483 258 486 256 484 246C460 238 460 242 450 239L433 236C431 236 427 235 425 234C425 233 420 231 418 230C389 221 288 218 227 202C219 200 218 198 211 196C210 209 212 244 215 254C220 267 222 277 222 292C222 299 222 309 223 315C228 342 222 345 210 367L185 410C176 424 182 454 184 471C185 479 186 471 187 491Z"
            fill="#9DD3AF" />
        <path fill-rule="evenodd" clip-rule="evenodd" class="state-map-path"
            d="M924 1534C936 1533 937 1526 947 1529C956 1532 960 1532 971 1534C976 1534 977 1536 982 1535C994 1532 1014 1509 1016 1499C1017 1490 1018 1482 1018 1472C1016 1410 1073 1397 1090 1362C1093 1355 1094 1360 1101 1345C1102 1341 1104 1339 1106 1335C1113 1322 1110 1302 1131 1308C1131 1288 1127 1265 1112 1251C1109 1248 1103 1247 1099 1246C1094 1244 1092 1242 1088 1238C1085 1235 1081 1231 1081 1227C1081 1220 1086 1220 1089 1216C1073 1215 1085 1217 1072 1213C1067 1219 1056 1224 1053 1223C1048 1220 1047 1218 1039 1216C1035 1215 1035 1215 1032 1214C1029 1213 1028 1214 1024 1213L1002 1205C999 1205 996 1205 993 1204C976 1199 942 1188 928 1188C926 1275 926 1235 897 1307C890 1327 882 1327 885 1337C888 1346 895 1347 897 1355C897 1357 895 1377 894 1379C872 1439 907 1443 917 1484L920 1509C922 1517 925 1524 924 1534Z"
            fill="#F6AFCE" />
        <path fill-rule="evenodd" clip-rule="evenodd" class="state-map-path"
            d="M679 897C668 890 640 864 636 860C623 848 605 837 587 836C573 836 565 829 555 836C555 836 550 834 549 835C554 838 550 852 565 854C571 854 581 856 598 859C596 864 594 870 591 876C631 879 662 911 674 934C683 952 682 971 702 970C746 968 747 929 769 971C771 978 781 977 789 978C796 967 791 936 787 925C787 922 785 919 784 916C765 880 744 856 707 903C705 906 687 898 679 897Z"
            fill="#FDD1A1" />
        <path fill-rule="evenodd" clip-rule="evenodd" class="state-map-path"
            d="M795 933C799 945 799 964 796 977C793 986 794 980 796 988C796 991 812 1029 812 1029C817 1029 831 1026 836 1024C840 1023 894 1009 896 1009L914 1024C920 1029 918 1040 922 1047C924 1044 924 1041 926 1036C927 1032 927 1030 928 1027C931 1021 933 1017 936 1010L944 993C958 958 949 959 949 929C951 873 945 880 943 835C942 826 943 818 943 809C944 803 943 804 947 801C963 785 961 786 972 764C976 758 980 754 982 749C988 727 986 729 978 723C966 713 949 694 943 681C936 680 932 686 927 689C922 692 915 694 910 696C886 705 894 705 880 714C872 719 854 728 850 733C841 742 834 747 823 754C804 766 811 761 795 774C786 782 773 785 765 793C751 806 757 812 748 825C745 828 745 828 744 832C739 846 735 848 736 859C737 861 733 868 735 868C750 871 771 858 795 933Z"
            fill="#9DD3AF" />
        <path fill-rule="evenodd" clip-rule="evenodd" class="state-map-path"
            d="M1497 871V906C1494 923 1496 907 1495 927C1494 933 1493 931 1493 936C1492 952 1494 951 1488 965C1485 970 1487 968 1484 972C1466 996 1434 984 1443 1007C1451 1009 1448 1008 1452 1006C1456 1005 1459 1006 1463 1005C1468 1005 1466 1004 1471 1003C1475 1003 1480 1003 1483 1003C1498 1003 1514 1003 1527 1005C1544 1007 1551 1004 1561 994C1569 987 1564 989 1576 986C1589 983 1584 985 1595 986C1608 988 1603 984 1612 992C1618 998 1619 998 1629 998C1654 998 1655 1014 1685 1002C1698 997 1715 1000 1727 1003C1732 1005 1737 1009 1742 1011C1747 1003 1745 993 1747 983C1750 967 1748 963 1751 954C1763 924 1772 940 1772 911C1770 909 1764 907 1761 906C1757 905 1754 907 1747 908C1736 909 1728 914 1719 907C1690 888 1686 801 1686 772C1685 762 1685 762 1677 762C1661 762 1616 767 1604 775C1591 783 1568 783 1557 796C1537 818 1547 827 1531 836L1510 850C1497 862 1497 862 1497 871Z"
            fill="#D2E28B" />
        <path fill-rule="evenodd" clip-rule="evenodd" class="state-map-path"
            d="M1556 1190C1567 1191 1564 1188 1572 1195C1580 1201 1585 1204 1595 1202C1601 1200 1600 1193 1601 1187C1602 1181 1604 1184 1603 1168C1602 1157 1600 1154 1612 1139C1617 1134 1658 1115 1668 1111C1688 1102 1702 1091 1716 1075C1724 1067 1723 1067 1728 1057C1728 1055 1731 1050 1731 1049L1740 1016C1722 1005 1702 1001 1683 1009C1677 1011 1670 1014 1662 1012C1657 1011 1649 1008 1644 1006C1637 1003 1630 1004 1622 1004C1609 1003 1617 991 1585 990C1565 990 1567 998 1553 1007C1548 1010 1544 1013 1535 1011C1527 1009 1521 1010 1512 1010C1487 1009 1468 1007 1443 1014C1434 1017 1431 1014 1423 1019C1419 1022 1420 1022 1415 1023C1411 1024 1410 1024 1407 1028C1406 1030 1400 1042 1399 1044C1396 1055 1405 1062 1385 1078C1378 1084 1372 1091 1369 1099C1364 1110 1357 1118 1357 1123C1355 1144 1375 1143 1396 1147C1407 1148 1405 1158 1419 1143C1423 1137 1425 1135 1433 1133C1439 1131 1447 1130 1453 1128C1483 1119 1536 1170 1556 1190Z"
            fill="#F6AFCE" />
        <path fill-rule="evenodd" clip-rule="evenodd" class="state-map-path"
            d="M122 463L120 511C132 514 122 510 147 499C157 495 167 493 180 491C180 468 169 430 178 410C183 401 191 391 195 383L211 353C216 346 218 348 218 338C219 309 218 282 210 256C209 236 204 217 206 196C198 191 189 187 182 183C168 174 157 164 145 152C140 146 143 146 139 141C137 137 134 134 132 130C122 131 115 139 108 146C61 190 55 210 19 252C7 266 -6 272 4 287C6 292 8 295 11 301C14 305 15 308 18 313C33 347 87 391 120 407C134 414 134 412 138 428C140 436 146 447 136 456C130 462 130 462 122 463Z"
            fill="#F6AFCE" />
        <path fill-rule="evenodd" clip-rule="evenodd" class="state-map-path"
            d="M453 436C435 444 441 440 426 456L401 480C387 499 394 500 376 527C367 542 365 552 360 558C358 560 355 562 354 564C349 569 347 576 337 584C334 587 327 593 326 598C324 613 342 617 325 657C324 660 323 662 321 665C319 667 316 669 315 672C323 680 344 671 360 669C371 667 393 659 406 672C406 681 404 671 403 690C402 713 390 711 413 737C421 747 423 751 434 759C439 762 443 765 446 768C460 781 450 782 493 761C504 756 517 751 528 746C513 735 515 737 514 724C514 719 513 720 511 716C508 711 509 705 504 700C495 693 486 701 469 675C458 660 465 674 462 658C462 655 460 652 458 650C451 635 464 641 474 597L484 558C486 551 486 546 488 539C492 528 489 528 488 519C486 504 490 513 484 497C479 483 461 447 453 436Z"
            fill="#91D8F7" />
        <path fill-rule="evenodd" clip-rule="evenodd" class="state-map-path"
            d="M324 590C340 575 340 572 352 560C362 549 358 546 373 522C379 512 383 505 387 495C391 485 395 480 403 472C437 437 433 434 476 425C477 415 471 403 471 390C472 380 476 381 478 376C482 366 471 347 488 323C490 319 489 322 490 316C491 311 492 311 492 307C493 301 491 294 488 291C485 291 487 291 483 293C480 294 480 294 477 296C468 300 452 304 437 310L398 326C386 332 385 335 375 340C351 351 356 354 344 363C328 375 327 375 314 388C308 394 311 393 309 402C305 428 270 453 267 467C264 481 267 522 269 537C270 543 278 555 283 559C298 572 298 561 324 590Z"
            fill="#F6AFCE" />
        <path fill-rule="evenodd" clip-rule="evenodd" class="state-map-path"
            d="M621 745C609 737 593 736 576 737C561 738 550 750 536 751C526 752 524 754 516 757C503 763 471 776 462 783C466 788 471 791 474 797C490 828 500 792 516 815C519 818 519 823 520 825C528 824 529 824 534 823C540 821 544 823 550 821C557 819 567 816 573 811C582 804 581 801 594 799C599 799 603 796 609 797C613 798 615 801 621 802C638 806 659 789 672 786C679 785 681 788 698 779C716 769 705 755 725 739C731 734 735 729 741 723C757 707 755 710 770 701C774 699 775 696 778 693C785 687 792 686 799 681C807 676 819 658 822 654C827 648 825 648 827 643C831 634 837 629 841 622C838 614 835 612 827 615C816 620 792 622 772 633C767 636 761 639 756 642L708 668C681 682 673 636 641 671C633 680 631 696 631 710C632 730 639 737 621 745Z"
            fill="#9DD3AF" />
        <path fill-rule="evenodd" clip-rule="evenodd" class="state-map-path"
            d="M653 869C679 894 712 907 727 870C727 870 727 870 728 869C726 849 748 816 748 816C750 807 748 804 755 797C782 769 780 783 799 765C810 754 838 740 844 733C857 718 876 714 889 702C897 694 910 690 921 686C921 686 921 686 922 686L923 685C928 683 932 679 938 676C938 673 935 664 934 662C929 652 920 649 915 644C909 639 911 639 902 639C896 639 890 639 885 638C876 634 858 633 854 632C848 630 848 629 844 626C839 633 834 638 832 646L804 684C802 685 795 689 794 690C779 698 789 689 774 703L747 724C740 729 738 735 731 740C711 755 723 762 705 779C700 784 693 788 685 790C677 792 680 788 671 792C654 799 632 815 614 805C609 802 608 801 603 802C598 804 593 803 589 804C585 806 572 818 571 819C563 824 552 824 546 826C551 835 563 825 574 829C581 831 587 829 593 831C596 831 602 834 607 836C619 840 621 840 633 849C638 854 652 863 653 869Z"
            fill="#D2E28B" />
        <path fill-rule="evenodd" clip-rule="evenodd" class="state-map-path"
            d="M929 1181L964 1190C970 1191 965 1191 967 1190C970 1185 967 1176 969 1170C971 1164 978 1163 978 1157C977 1143 960 1140 947 1140C946 1142 941 1147 940 1149C938 1153 936 1156 935 1159C933 1163 929 1177 929 1181Z"
            fill="#91D8F7" />
        <path fill-rule="evenodd" clip-rule="evenodd" class="state-map-path"
            d="M541 828L501 840L492 859L509 891C531 909 534 876 563 884C585 890 582 883 592 863C540 856 559 864 541 828Z"
            fill="#F6AFCE" />
    </svg>