<svg class="svg_map" viewBox="0 0 201 125" fill="none" xmlns="http://www.w3.org/2000/svg">
        <path fill-rule="evenodd" clip-rule="evenodd" class="state-map-path" id="kwara_state_dNFRiw6Yh"
            d="M10.4263 62.6485C9.77634 62.6585 9.64634 62.6485 9.22635 62.9584C8.71636 63.3284 7.98638 63.4184 7.67639 63.8784C7.0864 63.8884 6.49642 63.8884 5.89643 63.9084C4.38647 63.9484 5.08645 63.9584 4.63646 64.1684C3.83648 64.5284 5.15645 64.0184 4.44647 64.2384C3.54649 64.5084 3.32649 64.9984 2.66651 65.5784C2.29652 65.9084 2.63651 65.3884 2.49652 65.7384C2.06653 69.8183 1.25655 75.0381 1.22655 78.968C1.14655 79.228 0.496565 79.698 0.29657 79.918C-0.343415 80.598 0.236571 82.228 0.336569 82.9279C0.636561 84.9879 0.00657683 89.7978 0.416567 92.2477C0.636561 92.2477 0.996552 92.0577 1.13655 91.9377C1.15655 91.9277 1.17655 91.8977 1.19655 91.8877C1.20655 91.8677 1.23655 91.8477 1.24655 91.8277C10.2463 87.2878 4.67646 92.1677 15.0662 85.0579L15.8762 84.3079C16.1562 84.0679 15.9762 84.2179 16.2162 84.0979C17.7161 83.2679 20.7961 80.978 21.856 79.648C21.876 79.618 21.936 79.548 21.956 79.528C22.146 79.338 22.346 79.158 22.516 78.9481C22.586 78.8781 22.646 78.7881 22.716 78.7181C23.216 78.2781 37.7056 77.2781 42.7855 72.7782C42.9655 72.6182 42.8655 72.6882 43.1055 72.5582C44.4455 71.7482 44.7555 71.8882 45.6354 71.4282C53.6953 67.2783 53.7352 70.9782 58.2251 61.0685C59.5851 58.0786 60.8551 58.8385 60.9651 56.3686C61.0251 54.8986 60.8251 53.0787 61.0151 51.6687C61.4151 48.6588 61.3851 37.0691 61.4351 33.2092C61.4751 29.5293 62.245 20.8395 61.5051 17.3096C61.0251 15.0196 61.2051 9.64976 61.2951 6.95983C61.3351 5.53986 60.8751 5.42987 60.4051 6.19985C60.1351 6.63984 60.3951 7.49981 59.1451 7.66981C58.9751 7.50981 58.7451 6.99983 58.5951 6.71983C58.4051 6.35984 58.2051 6.09985 57.9851 5.86985C57.8051 5.66986 57.8351 5.72986 57.6352 5.58986L57.4952 5.48986C57.4752 5.46986 57.4552 5.44987 57.4352 5.43987C57.3252 5.35987 57.2952 5.32987 57.1752 5.23987C57.1552 5.21987 57.1252 5.19987 57.1052 5.18987L56.1752 4.2199C56.1552 4.1999 56.1252 4.1799 56.1052 4.1599C54.7552 2.84993 55.3552 0.639984 54.7352 0C54.4052 0.109997 54.6252 -0.0899978 54.4152 0.329992C54.1452 0.879978 54.1352 1.31997 53.9452 1.87995C53.7153 2.53994 53.7253 2.01995 53.6553 2.90993C53.5853 3.69991 53.0653 4.38989 52.2553 4.40989C50.7553 4.44989 50.8253 5.27987 50.7553 7.08982C50.6353 10.7497 48.9754 14.1596 46.9154 17.1296C46.0754 18.3495 40.9156 17.9096 39.6556 18.2495C38.8956 18.4495 38.0756 18.3695 37.4157 18.7295L35.5857 19.4895C35.5657 19.4995 35.5357 19.5195 35.5157 19.5295L35.2957 19.6695C34.7557 19.9495 34.2957 20.3595 33.9257 20.8595L33.4658 21.7195C33.3958 21.9595 33.4358 22.8494 33.4557 23.1394L34.0157 23.9794C34.3357 24.5394 34.8957 25.4394 35.0157 26.0694C35.1657 26.8193 35.1257 27.5893 34.6557 28.0393L34.2157 28.3893C34.0457 28.5693 33.9557 29.0593 33.4557 29.1993C31.2158 29.8193 27.0759 34.3992 25.9859 37.5691C25.5159 38.939 24.686 38.849 23.816 39.679C23.296 40.179 23.626 40.199 23.386 40.769C22.986 41.759 22.836 42.129 23.096 43.3589C23.316 44.3989 23.536 44.0789 23.536 45.7389C23.466 61.7085 21.836 62.6185 10.4263 62.6485Z"
            fill="#F6AFCE" />
        <path fill-rule="evenodd" clip-rule="evenodd" class="state-map-path" id="kwara_state_dNFRiw6Yh"
            d="M99.8441 39.409C99.8541 39.149 99.7741 39.129 99.5441 38.929C94.0543 33.7792 94.2543 36.0991 89.3744 28.4293C89.0144 27.7993 88.4844 27.2493 88.1044 26.6393C87.4044 25.5094 86.5045 24.5294 85.5345 23.6694C85.3545 23.5094 79.8346 17.4796 79.6846 17.1896C79.4646 16.7396 79.3746 16.4896 78.9246 16.3996C78.5347 16.9896 78.4947 17.3696 78.0547 17.8796C77.9147 18.0396 78.0047 17.9296 77.9047 18.0796C71.6348 18.6995 66.055 10.3098 65.905 7.79981C65.755 7.12983 63.145 6.62984 62.5351 6.55984L62.3551 6.83984C62.2551 7.03983 62.3051 6.95984 62.2251 7.16983C62.0651 7.57982 62.1451 7.16983 61.9951 7.69982C61.4651 9.56977 62.705 21.7995 62.675 25.0594C62.665 26.4294 62.5151 26.8693 62.3451 27.9593C62.0251 30.0493 62.3451 41.259 62.0351 44.2689L61.7151 53.7687C61.7151 54.3287 61.7151 54.8987 61.7151 55.4586C61.7151 57.9386 61.4551 56.9386 67.0549 57.2786C69.8249 57.4486 70.9748 63.6484 72.9048 64.9784L74.2648 65.6584C74.4448 65.7384 74.5148 65.8084 74.8147 65.8784C77.8447 66.5484 80.4946 67.6583 83.3345 68.2983C84.2245 68.4983 85.8945 69.1083 86.7445 68.6983C89.4444 67.4183 88.1144 66.8584 91.7043 67.5083L91.8543 67.3983C92.3743 67.0383 92.9743 67.1083 93.8543 66.5284C94.2943 66.2384 94.4443 66.1184 94.9843 65.9684C96.8642 65.4184 100.974 63.9084 104.154 63.3484C107.244 62.9685 111.854 61.8285 112.854 61.2885C114.354 60.4685 116.494 59.9585 116.454 57.7186C116.444 57.0986 116.364 53.9687 116.224 53.6387C116.124 53.3987 115.474 52.6687 115.264 52.4687C115.144 52.3387 114.864 52.0787 114.754 51.9787L113.984 51.4087C113.954 51.3987 113.924 51.3887 113.904 51.3687C108.364 48.4088 104.564 44.5989 100.074 39.959L99.8441 39.409Z"
            fill="#9DD3AF" />
        <path fill-rule="evenodd" clip-rule="evenodd" class="state-map-path" id="kwara_state_dNFRiw6Yh"
            d="M123.464 81.788C123.894 82.098 123.704 82.098 124.133 82.338C124.533 82.568 124.663 82.668 125.033 82.938C125.343 83.168 125.593 83.378 125.853 83.5779L126.433 84.0279C127.753 84.9579 130.503 85.0579 129.343 86.8579C129.123 87.1979 129.003 87.4279 128.753 87.6478L127.083 88.9078L122.984 90.6578C122.234 91.0178 121.864 90.8778 120.964 91.4978C120.774 91.6277 120.254 91.8977 120.024 92.0177C119.494 92.2777 119.704 92.2677 119.044 92.4777C118.524 92.6377 118.424 92.7677 117.924 92.8277C116.674 92.9877 114.544 93.5277 113.684 94.4877C112.554 95.7476 113.524 96.2576 114.414 97.0676L115.644 98.5676C115.654 98.5876 115.674 98.6176 115.684 98.6276C116.434 99.7975 116.454 99.5076 116.454 100.998C116.454 102.247 116.484 103.047 114.884 103.127C113.164 103.207 112.644 103.037 111.174 102.427C110.664 102.207 109.824 102.007 109.404 102.177C109.374 103.057 109.744 102.727 110.234 103.267L110.384 103.457C110.554 103.697 110.634 104.327 110.804 104.497C110.824 104.507 110.864 104.497 110.884 104.527L111.414 104.687C111.994 104.907 112.414 105.277 112.794 105.807C113.454 106.747 114.034 108.137 114.434 109.267C114.874 110.477 115.564 111.537 116.044 112.727C116.744 112.567 116.594 112.457 117.104 112.147C120.384 110.177 116.794 106.277 120.384 104.117C120.694 103.927 120.444 103.957 120.974 103.887C121.344 103.837 122.054 103.877 122.454 103.897C123.324 103.937 123.054 103.997 123.654 103.657C124.493 103.187 125.583 103.647 126.373 103.807C130.703 104.697 138.583 102.487 139.583 105.157L139.893 105.737C139.903 105.757 139.913 105.787 139.933 105.807C140.183 106.227 139.843 105.697 140.093 106.077C140.473 106.627 140.343 106.507 140.423 107.287C140.903 111.667 145.823 109.757 146.413 109.147C147.123 108.407 147.673 107.427 148.353 106.557C151.463 102.617 149.793 102.277 155.113 98.1776C156.263 97.1476 155.313 96.9776 155.093 96.0876C154.353 92.9877 155.073 88.9178 154.503 87.6078C154.063 86.6079 154.663 85.0079 153.053 84.5079C152.333 84.2879 151.233 84.0279 150.423 84.2579L149.033 85.2979C146.903 87.8878 145.903 88.0678 143.013 86.9779C140.973 86.2079 139.403 84.9379 138.423 84.4879C136.103 83.438 135.723 82.728 134.763 80.868L134.343 80.188C133.463 79.0381 134.003 78.4381 132.603 77.7381C131.963 77.4181 131.203 77.2281 130.493 77.1081L127.373 75.9481C126.983 75.7481 126.903 75.6981 126.553 75.4381C126.293 75.2482 126.033 74.9682 125.743 74.7782C125.273 74.4782 124.833 74.3382 124.563 73.8982C124.503 73.7982 124.303 73.4382 124.283 73.3782C124.113 72.9782 124.084 69.9283 124.193 69.2383C124.273 68.7283 124.933 67.6683 124.993 67.2084C125.033 66.8184 124.983 66.1484 124.953 65.7384C124.793 65.2784 125.113 65.9084 124.843 65.6184L124.233 64.8684C123.754 65.0684 123.894 65.2984 122.744 66.1484C121.644 66.9684 119.834 68.4583 119.714 69.8083C119.624 70.9083 119.574 73.2982 119.694 74.4582C119.764 75.1882 119.924 74.9882 120.224 75.5481C120.644 76.3281 120.814 76.8581 121.484 77.4381C122.154 78.0181 122.524 78.4581 122.694 79.3481C122.794 79.868 122.934 79.948 123.174 80.408C123.514 81.058 123.464 80.898 123.464 81.788Z"
            fill="#FDD1A1" />
        <path fill-rule="evenodd" clip-rule="evenodd" class="state-map-path" id="kwara_state_dNFRiw6Yh"
            d="M119.054 59.8385C117.364 59.8285 117.124 58.4885 116.284 59.7085L115.134 61.0385C114.704 61.3985 114.654 61.3185 114.104 61.5685C110.084 63.3684 101.724 63.5984 93.3443 67.4983C92.0143 68.0883 92.3143 67.4683 92.0143 69.4683C91.9243 70.0483 91.5243 70.6182 91.0243 70.9182C90.2944 71.3482 90.4244 71.4682 89.5244 72.0482C88.6044 72.6482 88.2844 73.6282 86.1045 75.2981C85.5145 75.7581 85.0645 76.4281 84.6845 76.9381C83.9745 77.9081 84.1645 78.678 84.1645 80.318C84.1645 81.218 84.3645 83.6979 84.6845 84.1579C85.3345 85.0579 89.3444 84.2279 90.5544 84.6679L91.8243 85.0679C95.0842 86.1079 96.3542 88.1678 97.7742 89.1478C99.6341 90.4178 99.8141 92.4277 101.094 92.3377C101.594 92.2977 101.944 92.0177 102.464 92.0777C103.194 92.1477 102.574 92.1177 103.074 92.2777C103.334 92.3677 103.534 92.3777 103.834 92.4177C106.634 92.7877 109.804 93.3877 112.204 91.2177C115.024 88.6578 113.134 90.8377 115.524 87.8778C116.394 86.8078 120.554 84.5479 122.174 82.7579C122.294 82.6179 122.454 82.428 122.544 82.328C122.574 82.298 122.744 82.098 122.754 82.088C123.204 81.528 122.884 81.098 122.434 80.548C121.334 79.188 123.564 80.308 120.424 77.2581C116.604 73.5682 118.874 68.1683 122.824 65.3384C124.014 64.4784 123.844 62.4884 123.794 61.1085C123.784 60.9185 123.784 60.7185 123.724 60.5385L123.514 60.1785C123.234 59.6085 123.804 58.6285 122.594 58.9485C121.264 59.2985 122.484 59.8385 119.054 59.8385Z"
            fill="#F6AFCE" />
        <path fill-rule="evenodd" clip-rule="evenodd" class="state-map-path" id="kwara_state_dNFRiw6Yh"
            d="M159.493 90.0578C159.723 90.4478 159.563 90.0078 159.753 90.5678L160.423 92.5077C160.583 92.9777 160.423 93.4977 160.583 94.1077C160.943 94.4377 161.743 94.6877 162.243 94.9077C172.292 99.3376 176.672 101.438 188.472 101.927C189.132 101.957 189.132 102.147 189.602 102.257C194.852 103.537 195.552 96.9176 195.752 93.4277C196.662 89.8278 196.542 90.3278 198.542 87.1279C198.942 86.1379 199.922 84.8379 199.972 84.6879C200.592 82.698 197.972 83.418 196.802 82.828C196.552 82.698 196.072 82.278 195.862 82.078C195.292 81.538 195.532 81.768 194.722 81.538C193.062 81.048 193.342 81.208 191.402 81.208C187.682 81.208 183.382 82.358 178.972 82.418C177.842 82.428 176.262 82.468 175.262 81.748L174.862 81.288C174.852 81.258 174.832 81.228 174.822 81.208C174.782 81.148 174.672 80.988 174.632 80.928C172.732 78.0081 167.602 76.9981 163.443 73.8082C162.743 73.3782 161.713 71.6982 160.763 72.2782C160.673 72.3382 160.553 72.4782 160.323 72.6382C160.293 72.6482 160.273 72.6682 160.253 72.6782L159.773 72.9582C159.313 73.1682 158.983 73.4982 158.653 73.9282L157.603 75.3481C157.173 75.9181 157.293 76.5481 157.313 77.2681C157.523 84.1079 156.673 84.1979 159.493 90.0578Z"
            fill="#F6AFCE" />
        <path fill-rule="evenodd" clip-rule="evenodd" class="state-map-path" id="kwara_state_dNFRiw6Yh"
            d="M123.834 58.3985C123.814 59.2085 124.603 64.2184 124.733 64.4684C125.053 65.0284 125.423 65.3684 125.473 66.0684C125.633 68.3283 123.854 70.8782 124.963 73.2882C125.363 74.1582 125.493 73.9182 126.243 74.3782C130.273 76.9381 132.703 75.7581 134.813 79.688C136.323 82.498 136.043 82.558 139.023 84.1879L142.413 86.1179L145.793 86.9778C146.113 87.0178 146.343 86.8978 146.543 86.7378C147.023 86.3779 147.433 86.0279 147.823 85.6679C149.383 84.2379 149.403 83.5579 151.723 83.6379C152.953 83.6779 153.613 83.6879 154.223 84.6179C155.973 87.3178 154.743 90.2778 155.313 92.8077C155.823 95.0376 155.143 95.7376 156.143 96.6876C157.243 97.7276 157.653 95.8576 159.173 94.5477C159.803 93.9977 159.873 94.1477 159.813 92.9777C159.753 91.9877 159.643 91.7677 159.383 91.1077C159.323 90.9277 159.353 90.9477 159.263 90.7677C158.633 89.7078 157.643 87.7278 157.333 86.5679C157.103 85.7279 156.863 85.8279 156.843 84.8479C156.823 83.3779 156.903 81.888 156.853 80.428C156.803 78.958 156.383 77.7881 156.503 76.3581C156.543 75.8381 157.153 74.5681 157.583 74.1982C158.073 73.7782 158.323 73.2082 158.823 72.8582L159.683 72.3382C160.053 72.0682 160.493 72.0782 160.613 71.5082C160.303 71.0682 160.673 71.3882 160.063 71.1682C159.803 71.0782 159.673 71.0282 159.383 70.9582C156.953 70.3783 156.713 69.3083 156.053 69.1083C154.583 68.6683 143.693 66.7983 142.743 65.4384L142.503 65.1084C142.493 65.0884 142.473 65.0684 142.463 65.0484L141.463 63.6884C139.913 62.0885 134.593 57.7986 132.873 56.6686C132.493 56.4186 132.023 55.8686 131.603 55.7786C129.773 55.4086 129.003 55.9086 127.523 56.6886C126.133 57.4186 125.353 57.5386 124.173 58.1686C123.784 58.3785 124.043 58.1986 123.834 58.3985Z"
            fill="#9DD3AF" />
        <path fill-rule="evenodd" clip-rule="evenodd" class="state-map-path" id="kwara_state_dNFRiw6Yh"
            d="M109.724 103.647C108.914 103.497 108.524 103.017 108.434 102.097C104.954 101.337 104.544 97.9876 102.254 94.8676C102.184 94.7776 102.114 94.6876 102.054 94.6077C101.964 94.4677 101.934 94.3777 101.854 94.2377C101.704 93.9877 101.584 93.8677 101.404 93.6677C101.084 93.2977 101.184 93.1677 100.974 92.9577C100.684 92.6477 100.274 92.6477 99.8341 92.0777C98.2741 90.1078 97.0742 89.2278 95.1542 87.5878L92.5043 85.8379C92.2343 85.6979 91.9743 85.6879 91.6743 85.5379C89.3444 84.3979 87.1144 85.2979 86.3844 85.3179C85.9144 85.3279 85.8444 85.3579 85.4944 85.1679C85.1245 84.9679 85.2645 84.8279 84.7045 85.0779L86.0744 88.2178C86.3844 88.9778 86.9744 90.6077 87.3144 91.1577C87.3244 91.1777 87.3444 91.2077 87.3544 91.2277C87.4244 91.3477 87.4944 91.4577 87.5744 91.5777C89.8043 96.1476 94.0342 108.587 98.1241 110.177C100.884 112.147 100.964 114.707 101.554 117.707C102.994 117.877 104.264 115.977 106.244 115.867C106.464 115.347 106.514 115.087 106.584 114.537C106.564 114.137 106.444 114.277 106.454 112.757C106.474 108.307 109.384 108.987 109.734 105.637C109.804 104.857 110.654 104.107 109.724 103.647Z"
            fill="#91D8F7" />
        <path fill-rule="evenodd" clip-rule="evenodd" class="state-map-path" id="kwara_state_dNFRiw6Yh"
            d="M135.643 115.537C135.773 115.457 135.883 115.417 136.013 115.337C136.723 114.847 137.333 114.247 138.063 113.797C139.033 113.177 138.883 113.277 140.273 113.387C140.393 113.657 140.483 113.767 140.733 113.867C140.983 113.977 140.753 114.007 141.073 113.907L141.203 113.847C141.573 113.657 141.773 112.857 141.943 112.457C142.643 110.907 142.013 111.527 141.173 110.877C140.993 110.737 140.543 109.807 140.513 109.757C140.023 109.287 139.783 107.297 139.383 106.227L138.803 105.107C138.373 104.467 137.373 104.317 136.353 104.327C130.753 104.327 133.463 105.827 125.973 104.387C124.243 104.047 123.734 103.537 123.784 105.747C123.894 110.337 130.803 118.557 135.643 115.537Z"
            fill="#9DD3AF" />
        <path fill-rule="evenodd" clip-rule="evenodd" class="state-map-path" id="kwara_state_dNFRiw6Yh"
            d="M123.014 106.527C122.784 105.557 123.284 105.337 122.674 104.487C122.324 104.477 121.314 104.427 121.024 104.497C120.294 104.667 121.224 104.357 120.814 104.587C120.734 104.647 120.654 104.707 120.564 104.757C120.274 104.947 120.294 104.887 120.004 105.107C118.584 106.217 120.374 111.207 117.574 112.667C117.544 112.677 117.314 112.797 117.294 112.817C117.204 112.867 117.114 112.947 117.034 113.007C116.504 113.357 116.444 113.507 116.724 114.097L116.764 114.167C117.454 115.657 118.424 120.947 119.154 121.237C120.004 121.567 120.884 121.927 121.514 120.867C122.264 119.617 120.644 119.457 124.483 119.537C125.443 119.557 125.683 119.887 126.453 120.387C126.733 120.567 126.973 120.767 127.143 121.077C127.773 122.267 127.673 121.217 128.383 122.677C128.553 123.037 128.763 123.157 129.003 123.447C132.503 123.897 133.443 122.867 135.973 120.147L139.903 116.457L140.463 115.657L140.553 114.627L139.803 114.257L138.773 114.157C138.823 114.077 136.313 116.007 135.123 116.497C129.983 118.647 124.054 110.897 123.014 106.527Z"
            fill="#F6AFCE" />
        <path fill-rule="evenodd" clip-rule="evenodd" class="state-map-path" id="kwara_state_dNFRiw6Yh"
            d="M107.054 115.937L105.874 116.457C105.164 116.477 104.104 117.387 103.094 117.847C102.304 118.217 101.954 118.207 101.984 119.077C102.584 119.387 102.254 119.237 102.644 119.677L102.744 119.787C103.404 120.457 103.464 120.297 103.784 120.557C106.064 122.427 108.104 119.777 109.304 120.687C111.224 122.147 110.974 122.607 113.374 121.097C114.104 120.637 117.024 120.827 117.894 120.837C117.884 120.017 117.724 120.417 117.624 119.647C117.464 118.327 117.684 119.187 117.194 118.197C117.174 118.137 117.114 117.977 117.104 117.937C116.614 116.657 116.934 117.007 116.774 115.987C116.694 115.507 112.244 106.287 112.214 106.237C112.024 105.867 111.754 105.747 111.474 105.527C111.064 105.217 111.204 105.237 110.464 105.297C110.194 105.607 110.184 106.097 110.034 106.537C109.854 107.077 109.614 107.257 109.464 107.697C106.904 113.077 107.234 107.557 107.054 115.937ZM109.754 115.747C111.854 111.377 111.464 110.567 113.864 114.567L115.734 118.297L111.614 119.077L107.204 117.897L109.754 115.747Z"
            fill="#D2E28B" />
        <path fill-rule="evenodd" clip-rule="evenodd" class="state-map-path" id="kwara_state_dNFRiw6Yh"
            d="M112.504 94.6777V94.5577C112.594 94.4777 112.764 94.4777 112.854 94.4477C113.134 94.3377 113.314 94.0577 113.554 93.8077C114.124 93.2577 114.864 92.9077 115.684 92.7777C117.614 92.4577 118.294 92.1977 119.914 91.5578C120.254 91.4178 119.934 91.5678 120.144 91.4478L121.334 90.6178L124.094 89.5578C125.293 89.1878 124.463 89.2878 125.173 89.0678C125.603 88.9478 125.413 89.0378 125.773 88.8578C126.993 88.2678 126.293 88.8578 127.723 87.7378C130.563 85.5079 128.343 85.6079 126.773 84.9179C126.333 84.7279 125.233 83.8279 124.803 83.498C124.214 83.048 123.504 82.458 123.084 82.648C123.024 82.668 122.794 82.798 122.784 82.808C122.554 82.978 122.514 83.068 122.344 83.258C122.054 83.5979 121.884 83.8479 121.474 84.0979C119.614 85.2479 119.544 85.9979 116.544 87.6378C116.124 87.8678 116.124 87.7678 115.734 88.1878C115.214 88.7378 114.774 89.5878 114.044 90.3478L112.164 91.8377C111.414 92.3277 110.534 92.4177 109.834 92.9077C109.304 93.2677 109.214 93.1577 108.434 93.1877C107.514 93.2077 106.624 93.0177 106.694 93.5077C106.784 94.1677 107.204 93.9077 107.314 95.4777C107.924 95.8776 109.244 98.5176 109.444 98.6276C108.794 94.2477 106.774 94.5977 110.234 94.3177C110.794 94.1977 111.984 94.2577 112.504 94.6777Z"
            fill="#D2E28B" />
        <path fill-rule="evenodd" clip-rule="evenodd" class="state-map-path" id="kwara_state_dNFRiw6Yh"
            d="M156.523 113.817C156.073 115.027 155.093 114.667 153.983 114.757C153.423 114.807 153.643 114.887 153.223 115.047C152.613 115.277 151.733 115.147 151.053 115.197C149.923 115.267 146.603 116.017 145.543 116.497C144.813 116.827 143.983 117.187 143.353 117.727C142.863 118.137 142.473 117.987 142.193 118.997L141.843 119.487L140.463 121.597C140.143 122.157 140.403 122.227 141.143 122.767C141.473 123.027 141.643 123.217 141.993 123.487C142.653 124.007 144.033 123.577 144.953 123.657C145.683 123.717 145.623 123.877 146.163 124.057C146.863 124.287 149.193 124.607 150.043 123.837C151.963 122.077 150.393 120.877 152.373 119.157L153.373 118.437C153.653 118.297 153.723 118.297 154.093 118.287C155.023 118.247 158.503 118.407 158.983 118.167L160.203 117.177C160.593 116.687 160.943 116.407 161.223 115.817C161.813 114.527 161.273 112.837 159.643 113.097C158.683 113.257 158.683 113.837 156.523 113.817Z"
            fill="#F6AFCE" />
        <path fill-rule="evenodd" clip-rule="evenodd" class="state-map-path" id="kwara_state_dNFRiw6Yh"
            d="M134.563 122.357C135.183 123.907 136.183 122.247 137.153 121.577C138.143 120.907 138.733 121.147 139.743 121.417L142.103 117.817C142.593 117.247 143.173 116.917 143.873 116.547C146.353 115.437 155.953 113.687 155.973 113.427C156.003 113.037 155.343 112.757 154.943 112.487L154.323 112.187C154.313 111.657 154.283 111.137 154.283 110.607C154.293 109.807 154.473 108.577 153.413 109.107C152.483 109.567 152.273 109.887 151.043 109.727C150.843 109.337 150.773 109.407 150.673 109.187C150.543 108.877 150.613 108.477 150.553 108.137C150.493 107.837 150.383 107.617 150.313 107.297C150.233 106.937 150.163 106.667 149.923 106.537C149.103 106.087 148.953 107.097 147.683 108.587C147.353 108.977 147.133 109.467 146.753 109.817C146.213 110.327 145.623 109.977 144.853 110.157C144.433 110.257 144.453 110.397 144.123 110.587C141.833 111.907 143.743 110.767 142.353 113.197L141.983 113.947C141.653 114.627 141.133 114.397 141.023 115.237C140.983 115.617 140.913 115.697 140.743 116.027C140.413 116.677 137.693 119.257 136.833 120.007C136.153 120.577 135.623 121.327 135.183 121.747C134.823 122.067 134.773 122.017 134.563 122.357Z"
            fill="#91D8F7" />
        <path fill-rule="evenodd" clip-rule="evenodd" class="state-map-path" id="kwara_state_dNFRiw6Yh"
            d="M110.094 98.9576L109.034 99.2676C109.034 99.3576 109.034 99.3476 109.074 99.4375L109.124 99.6075V99.8675L109.164 99.9175L109.204 100.088V100.268H109.254L109.004 101.358C110.234 101.418 111.544 101.687 112.644 102.067C113.344 102.307 113.404 102.347 114.314 102.357C114.784 102.367 115.224 102.407 115.594 102.117C116.274 101.597 115.834 100.148 115.694 99.8775C115.544 99.6075 115.354 99.3276 115.254 99.1476C114.844 98.3876 115.574 98.7576 113.834 97.3476C113.374 96.9776 112.994 96.6776 112.604 96.2676C113.414 95.1377 111.264 94.7177 110.604 94.7877C107.394 95.0477 109.494 94.8877 110.094 98.9576Z"
            fill="#D2D3D5" />
        <path fill-rule="evenodd" clip-rule="evenodd" class="state-map-path" id="kwara_state_dNFRiw6Yh"
            d="M103.994 96.3676C104.024 96.3776 104.064 96.3676 104.084 96.3876C104.764 97.9176 105.914 100.188 106.094 100.418C106.394 100.818 107.204 101.057 107.744 101.227C107.854 101.257 107.974 101.287 108.094 101.287C108.114 101.287 108.154 101.277 108.174 101.277C108.894 101.167 108.374 99.8075 108.454 99.3075C108.564 98.5876 108.204 97.7176 107.534 96.6776C107.454 96.3276 107.334 96.2576 107.224 96.2076C107.104 96.0376 106.984 95.8676 106.864 95.6976C106.844 94.4977 106.904 94.9276 106.414 94.0977C105.774 93.0377 105.694 93.3877 105.024 93.1877C104.564 93.0577 104.754 92.9977 104.334 92.8677C102.934 92.4077 102.594 92.2477 101.634 92.8677C101.704 93.5877 103.914 96.0776 103.994 96.3676Z"
            fill="#FDD1A1" />
    </svg>