<svg viewBox="0 0 267 112" fill="none" xmlns="http://www.w3.org/2000/svg">
        <path fill-rule="evenodd" clip-rule="evenodd" class="state-map-path" id="lagos_state_GPyjf3ZKh"
            d="M124.227 88.3978L123.837 87.2079L123.127 86.0279L123.227 86.2279L123.837 87.2079L124.227 88.3978Z"
            fill="#D2D3D5" />
        <path fill-rule="evenodd" clip-rule="evenodd" class="state-map-path" id="lagos_state_GsJefGAig"
            d="M128.687 77.0181L129.587 76.6281C132.497 76.6281 134.777 77.8581 135.667 77.0581C136.297 76.4781 136.347 75.3381 136.687 74.4782L137.337 73.4882L138.107 73.3982L138.707 74.0882C137.967 77.0781 137.287 77.2181 137.207 80.498L137.977 82.478C141.566 84.8279 145.576 85.2779 149.776 84.1179L151.836 82.438L153.606 80.758L155.456 79.258L157.176 78.9981L159.546 80.158L161.776 81.578L162.816 80.798L163.026 81.448L162.646 83.4679L162.206 85.1079L161.136 86.0079L160.666 87.3878L161.176 88.3378L161.826 89.2478L160.446 91.0878L159.026 92.4677L157.266 94.0177C156.876 94.3477 156.496 94.6777 156.116 95.0077C155.076 94.9677 154.036 95.2577 152.986 94.8877C149.756 94.2677 149.616 96.3576 149.466 96.4276L149.086 96.5976L148.436 96.5576L148.136 96.7276L147.446 97.2476L146.886 97.7176L146.416 97.9376L145.506 97.4576L144.646 96.8176L143.966 96.0776L143.016 95.6476C143.016 95.6476 142.626 95.5676 142.326 95.6476C142.026 95.7376 142.106 95.5676 141.726 95.8276C141.336 96.0776 141.116 95.9576 140.946 96.4276C140.776 96.8976 140.646 97.1576 140.646 97.3776C140.646 97.5876 140.866 97.9376 140.686 98.1476C140.516 98.3676 140.126 98.5776 140.126 98.5776C140.126 98.5776 139.697 98.5776 139.577 98.5776C139.447 98.5776 139.097 98.6476 139.097 98.6476L138.707 99.6575L138.627 100.518C138.627 100.518 138.457 100.948 138.277 100.988C138.107 101.028 137.037 101.378 137.037 101.378C137.037 101.378 136.727 101.507 136.427 101.248C136.127 100.988 135.267 100.598 135.267 100.598L134.707 100.428C134.707 100.428 134.537 100.388 134.067 100.598C133.587 100.818 132.647 100.988 132.647 100.988L131.267 101.028C131.267 101.028 129.617 100.838 129.627 101.028C129.637 101.218 128.297 101.078 128.297 101.078L126.397 100.688L124.597 100.298L124.207 99.8675V99.3076C124.207 99.3076 123.917 98.6176 123.777 98.7476C123.637 98.8776 123.307 97.8876 123.307 97.8876L123.087 96.9876L123.257 95.6476L124.337 95.2177C124.867 94.7577 126.227 94.4277 127.477 93.8077L128.837 92.1177V90.7578V89.4878L129.257 88.4778C129.257 88.4778 130.277 88.0478 130.777 87.7078C131.287 87.3678 130.947 86.0179 130.947 86.0179L130.617 85.0879L129.907 83.4879L129.717 83.198C130.847 82.458 131.417 81.118 131.097 79.638C130.797 78.2981 130.467 77.4881 129.027 77.4881C128.727 77.4881 128.687 77.0181 128.687 77.0181Z"
            fill="#D2D3D5" />
        <path fill-rule="evenodd" clip-rule="evenodd" class="state-map-path" id="lagos_state_dxp2B8ArU"
            d="M116.997 60.1885C116.557 58.9786 116.947 59.3385 116.327 58.9586C117.847 58.9186 116.957 58.7686 117.997 58.2586L118.197 58.1686C118.217 58.1586 118.447 57.9986 118.447 57.9986C118.387 57.2586 117.667 56.6786 117.007 56.3586C115.887 55.8186 115.747 55.7486 114.387 56.0186C111.667 56.5586 112.217 56.0686 109.707 54.9287L107.587 54.0387C107.287 53.8887 106.907 53.6887 106.507 53.5787L105.358 53.0487C104.698 52.5487 104.368 52.6087 103.408 51.6487L101.668 50.3288C101.498 50.4988 101.178 51.0587 101.058 51.2887C101.078 51.3187 101.118 51.3287 101.128 51.3787L101.568 51.8087L101.548 51.9887C101.958 52.2287 103.168 53.0387 103.338 53.5287C103.468 53.8787 103.248 54.3187 103.338 54.6887L103.828 55.4186C103.848 55.4486 103.918 55.5486 103.938 55.5786L104.328 55.9086C104.688 56.1386 105.248 56.4686 105.648 56.5486C106.477 56.7186 106.387 56.5586 107.197 57.0886C107.647 57.3786 107.717 57.6086 108.157 57.9586C108.827 58.4986 109.517 59.5285 110.347 59.6885C110.567 59.7385 111.847 59.8785 112.087 59.8885L113.877 64.3184C114.577 64.1484 114.647 64.0684 115.707 64.0684L117.137 62.1985H117.107C117.277 61.3485 117.377 61.4585 116.997 60.1885Z"
            fill="#91D8F7" />
        <path fill-rule="evenodd" clip-rule="evenodd" class="state-map-path" id="lagos_state_IMcKJqcbg"
            d="M113.377 68.7283L114.047 68.2683C115.277 67.4983 113.987 66.8883 114.907 66.3383C114.927 66.3184 114.967 66.2984 114.997 66.2784L115.817 65.9784L116.087 65.2684L115.507 64.3284C114.827 64.3784 114.297 64.5584 113.717 64.5984L112.937 62.3884C112.767 61.8885 112.657 61.8785 112.427 61.3585C112.367 61.2385 112.247 60.8985 112.187 60.7385C112.127 60.5585 112.057 60.3585 112.017 60.1685C110.727 60.0385 110.027 59.8285 109.337 59.9585C108.617 60.0885 108.267 60.4085 107.447 60.3485L107.437 64.7084C107.027 64.9084 106.827 64.8684 106.647 65.2684C107.167 65.6584 108.217 65.3684 108.807 65.5484C108.987 66.0884 108.347 66.4383 109.047 67.1183C109.727 67.7883 109.717 67.3183 109.677 68.2783C110.157 68.2883 110.667 68.1583 111.147 68.2783C113.847 69.5383 111.347 69.5783 113.377 68.7283Z"
            fill="#FDD1A1" />
        <path fill-rule="evenodd" clip-rule="evenodd" class="state-map-path" id="lagos_state_K3NHstpNU"
            d="M122.047 62.0485C122.227 61.3385 122.027 61.1785 121.367 60.3985C120.377 59.2185 119.267 59.0385 118.727 58.1186C117.987 58.4286 117.637 58.9985 116.827 59.1085C116.987 59.3585 117.027 59.6085 117.157 59.8685C117.637 61.0985 117.677 61.8985 116.957 62.7984C116.627 63.1284 115.907 63.9484 115.877 64.2884C115.807 64.9484 115.997 64.7884 116.037 64.8584L116.327 65.2884C116.347 65.3184 116.387 65.3684 116.397 65.4084C116.127 65.7184 116.027 66.1084 115.957 66.1284L115.287 66.4684C115.167 66.5084 115.037 66.5384 114.917 66.5884L114.897 67.9083L113.317 69.0183C112.667 69.4783 112.767 69.1883 112.577 70.1283L111.927 75.8981C111.907 76.3981 111.847 76.6681 111.797 77.1481C111.617 78.818 112.297 77.7781 112.887 77.4681C112.987 77.4181 113.197 77.3481 113.397 77.2881C113.177 76.8881 113.007 76.7481 113.117 76.1981C113.117 76.1581 113.127 76.1181 113.137 76.0781L114.007 75.3581C114.037 75.3581 114.377 75.2681 114.467 75.2481C114.627 75.1981 114.787 75.1481 114.957 75.0981C115.237 74.0182 115.567 74.4382 115.697 73.6682C115.827 72.8582 115.437 72.3682 115.707 71.4582C116.597 71.4982 117.007 71.6282 117.287 72.1882L118.797 75.8381L119.267 77.2481C119.517 77.2081 119.367 77.2481 119.607 77.1881C120.467 76.9681 121.167 76.6481 121.967 76.1781C121.427 74.0382 122.597 73.5582 123.307 72.3782C123.947 71.2982 125.457 70.1083 124.097 68.9983C123.577 68.5583 123.287 68.0583 122.867 67.5683C122.107 66.6983 120.727 65.2684 121.117 64.0384C121.497 62.8584 121.177 62.5885 122.047 62.0485Z"
            fill="#D2E28B" />
        <path fill-rule="evenodd" clip-rule="evenodd" class="state-map-path" id="lagos_state_F4ulgkUgP"
            d="M99.5676 92.3977C99.6876 92.1577 99.6476 92.2077 99.7076 92.4177L99.5676 92.3977Z" fill="#BDBFC1" />
        <path fill-rule="evenodd" clip-rule="evenodd" class="state-map-path" id="lagos_state_TojwyDKwK"
            d="M116.437 78.9681L116.587 80.338L116.477 80.788L116.517 81.858L116.427 82.188C116.447 82.458 116.517 82.948 116.517 83.198C116.517 83.398 116.527 83.368 116.477 83.568C116.347 83.9979 116.567 83.6579 116.317 83.8279L116.377 84.1479L116.317 84.1979C116.017 84.5679 116.297 84.1379 116.127 84.6079C115.777 85.5579 115.827 85.4079 115.027 85.7679L114.607 86.0479C114.277 86.3379 114.307 86.3879 113.917 86.6079C113.977 87.4579 114.257 87.7978 114.617 88.2278C115.227 88.0778 115.057 88.1678 115.417 87.6878C117.667 84.7479 117.187 86.5579 119.637 85.5979C120.537 85.2479 120.657 85.0979 121.717 85.1279C122.247 83.9179 121.997 82.228 121.987 80.928C121.977 79.5081 122.097 78.0181 122.057 76.6481C121.377 76.5181 120.647 77.0681 119.967 77.2781C119.117 77.5281 118.227 78.0381 117.387 78.3481V78.5581H117.357V78.5681C117.347 78.5681 117.287 78.5981 117.267 78.5981L117.237 78.6181C117.207 78.6181 117.197 78.6481 117.157 78.6481C117.147 78.6581 117.047 78.6881 117.027 78.6881V78.6981C116.997 78.6981 117.007 78.7181 116.977 78.7181C116.957 78.7181 116.857 78.7481 116.847 78.7581C116.797 78.7581 116.757 78.7881 116.717 78.7881L116.707 78.7981C116.677 78.7981 116.647 78.8281 116.607 78.8281L116.557 78.8581H116.537V78.8681H116.527C116.527 78.8781 116.507 78.8881 116.507 78.8981C116.497 78.9181 116.507 78.9181 116.487 78.9481V78.9681H116.437Z"
            fill="#FDD1A1" />
        <path fill-rule="evenodd" clip-rule="evenodd" class="state-map-path" id="lagos_state_kOzuxUjou"
            d="M94.3977 90.2078C94.2377 90.1978 94.0777 90.1478 93.9277 90.0678L93.1777 88.9978C91.9677 87.2579 93.5077 87.9778 91.8777 85.9679C91.4377 85.4179 91.2177 85.1479 91.0777 84.5179C90.8777 83.6179 91.1177 83.8079 90.7877 83.178C90.6877 82.978 90.5478 82.788 90.4578 82.668C89.3078 83.058 89.7178 83.218 89.1578 83.4979C87.1378 84.5079 88.1578 83.178 86.8278 85.7079C86.4379 86.4579 86.0279 85.9379 85.5879 86.7979C84.8479 86.5479 83.2979 87.0679 82.338 87.3179C81.628 87.5078 81.768 87.3379 81.578 87.9478L78.4481 87.5878C77.5981 87.7578 77.6881 87.6578 77.0281 88.0278C75.6381 88.7978 73.5482 88.1878 71.9182 88.5178C71.9482 88.5678 71.9682 88.6078 71.9882 88.6478L73.6182 88.4878C76.1881 91.7777 76.7681 92.6377 76.7681 92.6377L75.9081 93.7777L73.4782 95.6376L73.7582 100.508L74.6181 103.937L72.9982 104.567C73.0782 104.767 73.2282 104.917 73.5582 104.977C74.4082 105.127 75.2481 104.957 76.3681 105.317C77.1181 105.547 78.638 105.457 79.388 105.237C79.858 105.107 80.418 105.027 80.918 105.177C81.348 105.297 81.098 105.357 81.918 105.587C82.8079 105.827 82.6279 105.917 83.6179 106.107C84.1279 106.197 83.9379 106.217 84.3379 106.257C84.6179 106.287 85.0879 106.237 85.2679 106.217C85.2979 106.187 85.3279 106.117 85.3379 106.137C85.3479 106.157 85.3879 106.077 85.3979 106.057C85.7779 105.607 85.4979 105.797 85.9079 105.587C86.2879 105.407 87.0578 105.237 87.5778 105.367C87.6278 105.377 87.9778 105.487 88.1078 105.547C88.6478 105.757 88.5978 105.787 89.2378 105.837C89.3178 104.617 89.3278 104.747 89.8378 104.487L90.4278 104.147C90.2078 104.017 90.0678 103.867 89.9078 103.727C90.0178 103.357 90.2478 102.827 90.2378 102.447C90.2378 101.807 90.0278 102.127 90.0478 101.028C90.1678 100.968 90.2378 100.948 90.4078 100.868L90.9277 100.668C91.2377 100.598 91.8677 100.638 92.2377 100.628C91.9877 100.348 91.7177 100.078 91.4477 99.8075L90.6178 99.1076C90.7077 98.2976 91.4677 98.5576 92.9077 98.1176C93.9877 97.7876 94.8476 98.2876 95.5376 97.3876C95.6976 97.1676 96.1376 96.2076 96.7176 96.6476L96.9176 96.4676C96.9176 96.0976 96.8176 96.1376 97.1476 96.2676C97.1976 96.1976 97.2776 96.1076 97.3076 96.0376C97.6576 95.0877 96.7776 93.2577 98.2776 92.4877L99.4675 92.1277V91.8377H99.4975C99.4475 91.5178 99.2575 91.5377 98.8275 91.3078L96.2476 90.5678C96.1876 90.5578 96.1376 90.5478 96.0876 90.5378V90.5478L95.5976 90.5178H95.4376L95.3176 90.4878L95.2276 90.4578H95.1376L95.0476 90.4278C94.9976 90.3878 95.0076 90.3978 94.9476 90.3978H94.8876V90.3678H94.7976L94.7376 90.3078H94.6777L94.6477 90.2778H94.5477V90.2378H94.4877V90.2078H94.3977Z"
            fill="#91D8F7" />
        <path fill-rule="evenodd" clip-rule="evenodd" class="state-map-path" id="lagos_state_N8cDkr3jp"
            d="M106.757 82.408L106.647 81.208C106.587 80.198 106.487 80.488 106.227 79.858C106.207 79.798 106.197 79.728 106.197 79.638H106.167C106.167 79.588 106.177 79.588 106.137 79.548V79.368C106.097 79.328 106.107 79.328 106.107 79.278H106.077V78.1081H106.107V77.9481L106.137 77.9181V77.8881H106.167V77.7981H106.197L106.317 77.5481H106.347L106.407 77.4281H106.447V77.3681H106.477V77.3081H106.507L106.567 77.1581H106.607C107.017 76.5781 107.737 76.8181 108.467 76.3981C108.807 76.1981 109.757 75.6981 110.487 76.7481C110.507 76.7681 110.527 76.7981 110.537 76.8281C110.957 77.4481 110.817 77.6681 111.317 77.9181L111.547 77.3581C111.587 77.1681 111.607 76.9281 111.627 76.7381C111.677 76.2081 111.747 75.7781 111.777 75.3381C111.887 73.7982 111.927 72.1882 112.197 70.6682L112.327 69.8583C112.327 69.2183 111.587 68.8883 111.137 68.5283C111.007 68.4283 111.157 68.6483 110.907 68.4883C110.347 68.4883 109.917 68.4483 109.447 68.5083C109.387 67.8983 109.897 67.5683 108.487 67.0583L108.627 65.7784C107.297 65.6184 106.407 66.3383 106.377 64.9884C106.397 64.9684 106.447 64.9084 106.467 64.9384C106.467 64.9484 107.117 64.6284 107.167 64.4284V60.2385L109.527 59.5485C109.367 59.3285 109.537 59.5185 109.307 59.2785L108.877 58.9185C108.067 58.2285 107.147 57.0486 106.107 56.9086C105.147 56.7686 104.917 56.6486 104.217 56.1286L103.677 55.5886C103.548 55.4286 103.408 55.2786 103.278 55.1286C103.238 55.0686 103.188 55.0186 103.158 54.9586C102.698 54.1486 103.368 54.0087 102.618 53.1387L102.488 52.9887C102.338 52.8187 102.438 52.9187 102.288 52.7587L100.978 51.7087C100.428 52.2887 99.2376 55.3386 98.9676 55.7186L98.0676 56.9186C97.4277 57.8986 97.9476 58.0686 97.8676 58.8585C97.8176 59.4185 97.5776 59.2485 97.1977 59.8185C97.5176 60.9685 97.2477 61.5685 97.3277 62.6284C97.3877 63.5284 97.5476 62.8484 97.5776 63.7384C97.6776 66.8483 97.3077 65.4984 96.6677 66.7283C95.8677 68.2783 97.0577 66.6383 95.5377 68.5283C94.9677 69.2483 94.7777 68.8583 93.5777 69.7783L93.4277 69.8983C92.8478 70.2883 92.6078 70.0583 91.9478 70.6582C91.4178 71.1382 91.8178 71.0482 90.9578 71.7582C90.7778 71.8982 90.7278 71.9482 90.5778 72.0782C89.8378 72.6582 89.5878 72.6782 89.2879 73.7382C88.9979 74.7881 89.8178 76.4981 90.2978 78.0281L91.0178 80.098C91.1778 81.128 90.6678 82.188 90.9078 82.8879C90.9178 82.9179 90.9378 82.9579 90.9478 82.9879L91.1078 83.3879C91.3178 84.0879 91.1478 84.2979 91.4078 84.8779C91.6778 85.4779 92.3278 85.8279 92.6478 86.5978C92.6978 86.7778 92.7578 86.9678 92.8078 87.1578C93.2978 89.1978 92.5878 87.3778 93.6477 89.3678C93.8877 89.8178 94.0677 89.8678 94.3977 89.9078V89.8478H94.8577V89.8778H94.9177V89.9078L95.1377 89.9678C95.1777 90.0078 95.1977 89.9978 95.2577 89.9978V90.0278L95.4777 90.0578C95.5177 90.0978 95.5077 90.0878 95.5677 90.0878L95.9677 90.1478L96.0877 90.1778V90.2378L97.5676 90.6477C99.6776 91.0877 98.5976 91.4377 99.8476 91.4677C99.8476 91.6277 99.8376 91.7477 99.8276 91.8377H99.8376V92.0877L106.137 90.4678C106.797 89.1178 106.877 88.9778 106.937 88.9978V88.7678C106.977 88.7278 106.967 88.7278 106.967 88.6778H106.997V88.5878L107.027 88.5478C107.027 88.4978 107.017 88.4978 107.057 88.4578L107.117 88.3378C107.117 88.2778 107.107 88.2878 107.147 88.2478V88.1878C107.187 88.1378 107.187 88.1378 107.147 88.0878L107.117 87.5078C106.857 86.7478 106.517 87.0678 106.217 85.7579C105.757 83.7479 106.347 83.9279 106.607 83.2379H106.567V82.8379H106.597V82.8079H106.627V82.7779H106.657V82.7179H106.687L106.717 82.408H106.757Z"
            fill="#F6AFCE" />
        <path fill-rule="evenodd" clip-rule="evenodd" class="state-map-path" id="lagos_state_TgLy1UBmm"
            d="M116.067 83.9879C116.367 83.5579 116.107 83.0479 116.317 82.338C116.277 81.368 116.117 81.298 116.297 80.318C116.377 79.848 116.227 79.458 116.147 78.968H116.117V78.748C116.107 78.658 116.097 78.578 116.097 78.488L116.157 78.508L116.167 78.498V78.488H116.197C116.237 78.468 116.307 78.428 116.337 78.428H116.347C116.387 78.428 116.407 78.398 116.437 78.398L116.477 78.388C116.487 78.378 116.587 78.348 116.607 78.348C116.637 78.348 116.627 78.328 116.657 78.328C116.677 78.328 116.777 78.2881 116.797 78.2781C116.827 78.2781 116.837 78.2581 116.867 78.2581L116.897 78.2481C116.897 78.2281 116.897 78.2281 116.917 78.2281C116.937 78.2081 116.947 78.2281 116.957 78.2081C116.977 78.2081 116.967 78.1981 116.987 78.1981V78.1881H117.197C117.847 77.8781 118.757 77.5081 118.987 77.4181C118.837 76.2881 118.287 75.2881 117.837 74.2581C117.627 73.7882 117.507 73.3682 117.197 72.6882C117.067 72.3882 117.117 72.2982 116.857 72.0182C116.837 71.9982 116.807 71.9782 116.787 71.9582C116.557 71.7682 116.157 71.7082 115.817 71.6082L115.937 74.0782C115.357 74.7081 115.297 74.2981 115.297 75.2981L114.127 75.6481V75.7981L114.027 75.8281V75.8681H113.967C113.927 75.9081 113.937 75.8981 113.877 75.8981V75.9281H113.787V75.9581H113.757V75.9881H113.667V76.0181H113.627V76.0481H113.597V76.1081H113.567V76.2581L113.537 76.3281V76.5081L113.507 76.5381V76.5981H113.477L113.447 76.6581V76.6881L113.387 76.7581V76.7881L113.447 76.8181H113.507V77.0181C113.657 77.1181 113.787 77.2281 113.927 77.3481L112.847 77.8281C112.807 77.8481 112.717 77.9281 112.677 77.9581C111.427 78.918 110.957 77.9081 110.447 77.0481C109.777 75.8981 109.227 76.3481 108.377 76.7481C107.987 76.9281 107.397 77.0881 106.937 77.3881L106.877 77.6781H106.837V77.7381H106.807V77.7981H106.777L106.717 77.9181H106.687L106.627 78.0481H106.597V78.1081L106.567 78.1381V78.1681H106.537V78.2581H106.507V78.2881L106.477 78.318V78.478H106.447V78.908H106.477C106.477 78.958 106.467 78.958 106.507 78.998L106.537 79.638H106.517C106.537 79.688 106.557 79.738 106.587 79.788L106.887 80.538C107.017 81.128 106.997 81.778 106.987 82.4079H107.087L107.057 83.0879H107.027V83.1479H106.997V83.1779H106.967V83.2079H106.937V83.2379H106.877V83.2479C106.877 83.2479 105.557 84.2879 106.617 86.3379C106.617 86.3379 106.757 86.5578 106.787 86.5978C107.057 87.0178 107.227 87.2078 107.317 87.4178H107.487L107.547 88.5178C107.507 88.5678 107.517 88.5578 107.517 88.6178C107.477 88.6578 107.487 88.6478 107.487 88.7078C107.467 88.7578 107.447 88.8078 107.407 88.8478C107.397 89.5178 107.427 90.7877 107.547 91.1777C107.777 91.5077 108.537 91.1477 109.067 90.9877C110.497 90.5577 111.657 90.6277 112.307 90.0378C112.607 89.7678 112.547 89.9778 112.697 89.4278C113.107 87.9578 112.157 88.9078 113.297 87.9578C114.177 87.2078 113.217 86.5078 114.827 85.5479C115.687 85.0379 115.337 85.8179 115.967 84.2179C115.977 84.1679 116.047 84.0279 116.067 83.9879Z"
            fill="#91D8F7" />
        <path fill-rule="evenodd" clip-rule="evenodd" class="state-map-path" id="lagos_state_lr9jghPkL"
            d="M171.246 86.3179C171.216 86.3079 171.176 86.2979 171.146 86.2779C171.026 86.2279 170.906 86.1879 170.836 86.1579C169.756 85.7179 167.216 85.9079 165.996 85.8979C163.136 85.8879 162.206 85.4779 161.256 86.9478C161.516 87.3878 161.776 87.8978 162.096 88.4578C163.056 90.1378 159.966 92.1877 159.676 92.5177C159.156 93.0977 157.296 94.7077 156.716 95.0776C152.746 96.3976 152.176 93.9477 150.056 95.9376C149.576 97.3976 149.436 96.3376 148.106 97.1676C147.696 97.4176 147.426 97.6676 146.956 97.9876C145.136 99.2575 144.376 95.2076 141.937 96.0276C140.657 96.4576 141.247 97.5476 140.697 98.4976C140.487 98.7576 140.097 98.7876 139.167 98.8476C139.037 99.3175 138.917 99.7775 138.827 100.338C138.717 101.068 138.737 101.028 138.097 101.277C137.617 101.457 137.077 101.617 136.487 101.507C135.897 101.397 135.917 101.177 135.387 100.908C134.307 100.358 134.047 101.078 132.737 101.237C131.487 101.397 130.737 101.127 129.487 101.237L130.047 104.137C130.907 103.687 130.697 103.467 132.147 103.407C133.017 103.377 133.927 103.327 134.787 103.267C140.487 102.857 145.096 102.947 150.746 102.807C157.916 102.637 165.156 102.607 172.336 102.507L174.306 100.148C174.716 99.6775 174.966 99.3675 175.346 98.9576C177.026 97.1776 176.776 97.2476 176.766 96.0376L176.756 89.6178C175.086 89.7078 175.146 88.8078 174.006 89.2778C171.896 89.9978 172.006 90.0778 171.956 88.2978C171.876 87.9778 171.576 86.4579 171.356 86.3679C171.326 86.3579 171.276 86.3379 171.246 86.3179Z"
            fill="#F6AFCE" />
        <path fill-rule="evenodd" clip-rule="evenodd" class="state-map-path" id="lagos_state_OT1hX1QA5"
            d="M129.857 82.448C129.887 82.468 129.927 82.488 129.967 82.528C130.927 82.068 130.927 80.518 130.727 79.588C130.287 77.5281 129.827 77.9781 128.487 77.6181L128.347 76.8181C128.757 76.6081 129.357 76.2581 129.967 76.2981C130.577 76.3381 131.817 76.4181 132.277 76.5481C133.167 76.4781 135.397 78.2781 136.047 75.3381C136.077 75.1281 136.087 74.8981 136.127 74.7182C136.277 73.9082 137.137 73.1882 137.607 72.5482C137.817 72.2582 137.787 72.1682 138.247 71.9182C138.587 71.7282 138.907 71.6682 139.197 71.5982C139.527 71.5282 138.907 71.6682 139.427 71.5582L140.177 71.3382C140.077 70.5483 139.967 71.1982 139.487 69.8083C139.117 68.7283 139.047 69.2483 138.267 68.8083C137.787 68.5383 137.777 67.8083 137.197 67.5083C136.507 67.1383 136.477 67.6683 135.767 66.9983L135.567 66.8084C135.727 65.5284 135.077 65.4484 134.517 64.8484L134.357 61.2785C132.427 61.3385 130.667 61.1485 128.707 61.4185L123.897 61.5185C123.167 61.5685 123.077 61.4585 122.477 61.4785L122.457 61.5285H122.467L122.457 61.9885C122.427 62.0185 122.457 62.0285 122.427 62.0485C122.427 62.0785 122.407 62.0585 122.407 62.0885C122.397 62.0985 122.367 62.1585 122.367 62.1685C122.357 62.1785 122.357 62.1885 122.357 62.1985H122.347V62.2085H122.337V62.2285H122.327V62.2485C122.317 62.2485 122.317 62.2585 122.317 62.2685C122.297 62.2685 122.297 62.2985 122.287 62.3085C122.277 62.3285 122.267 62.3285 122.267 62.3485L122.257 62.3585C122.257 62.3785 122.247 62.3785 122.227 62.3885C122.227 62.4085 122.197 62.4285 122.197 62.4485L122.187 62.4585C122.187 62.4885 122.157 62.5085 122.157 62.5185C122.157 62.5385 122.147 62.5285 122.147 62.5485H121.897C121.747 62.8284 121.587 63.1284 121.247 64.2984C121.017 65.0584 122.397 66.6284 123.127 67.6083C124.457 69.4183 125.397 69.5983 124.747 70.7283L122.367 73.7982C122.157 74.1982 121.687 76.5781 122.727 77.1981C123.907 77.9081 123.137 77.7981 123.917 78.2481C124.337 78.4981 124.997 78.7081 125.727 78.6481C127.117 78.5281 127.737 77.3881 127.987 79.228C128.267 81.278 129.537 81.048 129.667 82.218L129.817 82.238C129.827 82.238 129.827 82.248 129.847 82.248V82.258L129.857 82.268V82.448Z"
            fill="#F6AFCE" />
        <path fill-rule="evenodd" clip-rule="evenodd" class="state-map-path" id="lagos_state_MfBah8N37"
            d="M128.257 80.758C127.607 79.608 128.027 79.0681 127.527 78.3981C126.417 78.4281 125.977 79.378 124.497 78.7881C122.857 78.1381 123.447 77.5381 122.247 77.2081C122.257 80.918 122.277 81.198 122.257 82.658L122.237 84.1679C122.857 84.2479 123.227 84.1479 123.687 83.9579C124.437 83.6379 124.187 83.3479 125.297 83.2979C126.597 83.248 128.017 83.3279 129.297 83.3179C129.557 83.038 129.597 83.078 129.627 82.638H129.487C129.487 82.628 129.487 82.628 129.477 82.628V82.618L129.417 82.588V82.448C129.357 82.038 128.537 81.288 128.257 80.758Z"
            fill="#91D8F7" />
        <path fill-rule="evenodd" clip-rule="evenodd" class="state-map-path" id="lagos_state_np6aONKRi"
            d="M99.5674 92.3977L99.7074 92.4177C98.6375 92.6677 97.8275 92.6077 97.7275 93.7877C97.6875 94.2477 97.7075 94.8776 97.7075 95.3476C97.6975 96.0176 97.8075 96.2376 97.1475 96.2676C97.2475 96.5476 97.2675 96.4276 96.9175 96.4676L96.7175 96.6476C95.3675 97.2076 95.9675 97.5176 95.3375 97.9476C94.0476 98.8375 91.9476 97.2476 93.4276 99.3875C93.7076 99.7875 93.9376 100.048 93.9876 100.628L94.2076 101.067C95.7775 101.077 98.6175 100.458 98.4375 103.417C96.8175 103.437 93.1876 102.407 92.4376 100.907C91.8676 100.837 90.3977 100.757 90.3677 101.257C90.2877 102.857 90.6977 101.627 90.2877 103.267C89.9277 104.697 91.4676 104.327 93.1076 105.287C93.8476 105.727 94.1976 105.887 95.2375 105.797C95.5975 105.387 95.4975 105.197 96.1075 105.007C96.6475 104.847 97.2075 104.947 97.7575 104.957C99.9574 105.017 98.6475 105.787 100.677 105.527C101.157 105.467 101.567 105.297 101.937 105.107C102.497 104.827 102.577 104.897 103.337 104.887C105.027 104.857 104.997 105.147 106.377 105.327C107.467 105.477 106.907 105.297 107.607 105.057C108.067 104.897 108.717 104.977 109.227 104.987C110.537 104.997 111.017 105.567 112.087 105.477C114.187 105.297 114.117 105.057 115.817 104.167C116.207 103.967 116.737 103.787 117.087 103.577C115.677 103.467 115.637 103.187 114.667 102.617C113.687 102.047 113.057 102.737 112.037 101.907C112.477 101.207 113.267 101.367 113.817 100.677C113.637 100.178 113.527 99.5675 113.317 99.0675C112.957 98.2676 113.087 99.0075 112.577 97.7076C111.967 96.1776 112.287 95.8676 113.037 94.5377C113.747 93.2777 114.727 93.4877 114.387 91.9977C114.247 91.3477 114.107 90.9477 113.887 90.3778C113.607 89.6178 113.747 89.5678 112.997 89.3278C112.197 90.9677 112.387 90.3778 110.447 90.8377C109.447 91.0777 108.507 91.6877 107.287 91.6177L107.257 89.2878C106.537 89.4578 106.627 90.4478 106.117 90.8377C105.807 91.0677 100.027 92.3377 99.5674 92.3977Z"
            fill="#9DD3AF" />
        <path fill-rule="evenodd" clip-rule="evenodd" class="state-map-path" id="lagos_state_HJ7dHZ8Du"
            d="M117.037 105.127C118.667 105.397 118.107 105.027 119.277 104.977C120.057 104.947 121.247 104.807 121.807 105.107C121.347 106.607 117.277 106.377 115.367 106.437C112.097 106.547 107.297 106.437 104.188 106.807C101.538 107.127 102.658 106.507 100.828 106.567C99.6676 106.617 98.1677 106.587 97.0677 106.687C96.4377 106.747 96.1277 106.917 95.3778 106.937C91.9878 107.007 92.9178 107.067 91.8778 106.127L91.0579 106.237C91.0879 106.777 91.4379 107.677 91.7378 108.037C99.7076 107.897 106.387 107.997 114.397 108.037C116.937 108.047 119.557 108.007 122.087 108.087C124.507 108.167 126.867 108.607 129.417 108.617L128.697 107.177C128.347 106.467 128.827 107.177 128.127 106.627C127.997 106.517 127.667 106.147 127.607 106.017C126.997 104.697 128.577 103.067 127.247 102.637C126.547 103.157 126.917 104.257 126.017 105.807C125.487 105.837 124.907 105.977 124.647 105.607C124.427 105.287 124.567 104.527 124.747 104.157C125.097 103.467 125.947 102.747 125.827 101.937C124.607 101.917 124.277 101.757 123.837 102.127C123.727 102.217 123.837 102.157 123.707 102.267L123.057 102.597C122.327 103.037 123.227 102.847 121.697 103.207C121.247 103.307 121.047 103.317 120.467 103.357C119.267 103.417 117.327 104.597 117.037 105.127Z"
            fill="#9DD3AF" />
        <path fill-rule="evenodd" clip-rule="evenodd" class="state-map-path" id="lagos_state_UyceBlZ5G"
            d="M123.737 87.5078L122.927 86.2179L122.177 84.7179C121.367 85.6979 121.727 85.0479 120.137 85.7079C118.977 86.1779 118.647 85.9279 117.487 86.1279C115.857 86.3979 115.227 89.8678 114.037 87.7078C113.577 87.9178 113.857 87.8178 113.707 87.9178C113.697 87.9278 113.387 88.1478 113.367 88.1678C112.937 88.5178 113.087 88.1078 112.977 88.7678C113.257 89.5278 113.617 88.8478 114.077 90.1978C114.307 90.8677 114.497 91.4577 114.657 92.1477C115.027 93.7077 113.787 93.2677 112.977 95.1876C115.027 94.9276 114.127 95.2576 115.187 94.0377C115.727 93.4177 115.587 93.8077 116.297 93.4577C116.877 93.1777 117.637 92.1877 118.347 92.0277C119.427 91.7877 120.657 92.3277 121.687 91.8677C122.097 91.6877 122.377 91.3977 122.817 91.3277C124.597 91.0277 125.267 92.2977 123.737 87.5078Z"
            fill="#F6AFCE" />
        <path fill-rule="evenodd" clip-rule="evenodd" class="state-map-path" id="lagos_state_Vn3WXcwoS"
            d="M121.377 101.078C123.107 101.508 122.787 100.508 123.977 100.128C123.957 98.7976 124.237 99.6675 123.157 98.3176C122.607 97.6276 122.787 95.9876 122.957 95.6476C123.317 94.9377 123.837 95.2377 124.437 94.8877C124.217 94.3577 123.917 94.2677 123.187 94.1577L122.377 94.3877C122.107 94.4177 121.857 94.4477 121.567 94.4577C121.127 93.6677 121.167 93.4077 121.187 92.3377C120.427 92.3377 119.747 92.2377 118.997 92.2377C117.907 92.2477 118.187 92.4377 117.447 92.7977C117.717 93.3577 117.917 93.3077 118.227 94.0077C118.467 94.5477 118.507 94.7977 118.867 95.2277C119.557 95.1577 120.597 94.4877 119.847 96.7276C119.687 97.1876 119.547 97.5176 119.347 97.9076C119.047 98.4976 119.157 99.9275 119.417 100.368C119.487 100.488 121.087 100.998 121.377 101.078Z"
            fill="#D2E28B" />
        <path fill-rule="evenodd" clip-rule="evenodd" class="state-map-path" id="lagos_state_cmoTmI9Hc"
            d="M65.3784 107.767C65.8284 108.667 66.2384 108.507 67.5484 108.527C68.5183 108.537 69.5183 108.497 70.4883 108.487L76.6381 108.337C78.5881 108.337 77.6781 108.497 80.278 108.337C81.468 108.257 82.718 108.197 83.908 108.197C85.8279 108.197 85.2679 108.297 87.6879 108.177C88.9178 108.117 90.4278 107.897 91.5978 108.197C91.1678 107.417 91.1378 106.877 90.7178 106.547C90.0078 107.517 87.2779 106.547 87.1579 106.897L85.9979 107.507C85.6879 107.567 84.6679 107.597 84.3379 107.587C83.038 107.557 82.158 107.787 82.108 107.797C81.658 107.947 81.838 107.937 81.268 107.947C81.198 107.147 81.518 105.977 80.1581 106.357L79.3881 106.877C79.0081 107.217 79.0181 107.237 78.6281 107.517C78.2081 107.817 78.3981 107.827 77.6281 107.847C76.9881 107.857 76.7081 107.707 76.2182 107.707C74.9482 107.707 74.2082 108.487 74.4182 107.077L76.8781 106.697C76.7281 105.987 76.3681 106.277 75.5182 106.207C71.9583 105.917 73.0582 108.407 69.6483 107.977C68.8983 107.887 69.1383 107.677 68.7783 107.607L68.7483 107.657L65.3784 107.767Z"
            fill="#91D8F7" />
        <path fill-rule="evenodd" clip-rule="evenodd" class="state-map-path" id="lagos_state_GxZSAe8vY"
            d="M114.117 100.598L114.547 100.518L119.027 100.398C118.917 100.048 118.887 100.098 118.867 99.6676C118.887 99.3076 118.907 98.9476 118.807 98.5976L119.007 98.1776C119.487 96.7776 120.287 96.0476 119.647 95.2677C119.237 95.4677 119.237 95.4677 118.707 95.4677C118.137 94.6177 118.027 93.6177 117.187 93.0977C116.797 93.3477 116.677 93.5877 116.187 93.7677C114.557 94.3777 115.327 94.9277 114.297 95.2477C113.327 95.6977 112.617 95.5377 112.537 96.1276C112.407 97.0176 113.457 98.5976 114.117 100.598Z"
            fill="#FDD1A1" />
        
        <path fill-rule="evenodd" clip-rule="evenodd" class="state-map-path" id="lagos_state_l2EQujYp3"
            d="M170.226 70.2283C170.246 70.8982 170.596 71.4782 170.816 71.9482C171.046 72.4482 171.146 73.4782 170.796 73.9982C170.756 74.0582 170.716 74.1182 170.676 74.1682C170.676 74.1682 168.346 76.0381 168.316 76.0381C168.146 76.1581 168.066 76.3281 167.966 76.3381C167.396 76.8981 163.236 80.538 163.806 80.538C163.806 85.9679 160.106 85.0979 168.026 85.0979V85.1679L169.016 85.1879V85.1479C170.236 85.1479 172.116 85.5179 172.116 86.9078L172.666 88.9078C177.196 87.9478 186.365 81.398 188.185 81.668C195.945 82.8079 194.915 79.628 203.745 88.1178C205.485 89.2478 213.425 90.1178 213.675 90.6078C214.755 90.6078 216.095 92.1877 216.095 93.5477L216.485 93.9677C220.144 95.0476 225.914 101.887 231.504 103.227C231.744 103.077 234.334 101.857 234.704 101.767C239.484 100.628 239.004 104.967 241.794 103.077C245.634 100.498 249.904 108.477 254.904 108.867L255.804 109.057C256.794 109.357 264.233 110.147 265.903 110.117C266.283 108.597 267.213 104.167 266.653 102.877C266.573 102.707 266.413 102.677 266.053 102.287C265.843 102.037 265.713 101.937 265.363 101.867C264.123 101.607 254.004 100.568 253.274 101.187C252.914 101.487 253.174 101.717 252.174 101.927C251.534 102.067 251.344 102.117 250.784 101.877C250.274 101.657 250.664 101.937 250.484 101.567C250.524 101.557 250.564 101.537 250.604 101.527V101.517H250.594V101.497V101.487H250.584L250.574 101.477C250.554 101.457 250.544 101.447 250.524 101.427C250.494 101.407 250.464 101.397 250.444 101.367L250.334 101.287C250.334 98.4476 242.964 95.7776 241.074 95.5476C240.714 95.5076 240.734 95.5876 240.494 95.3876C240.264 95.1976 240.454 95.2076 239.974 94.7876L239.604 94.3877C239.004 93.8577 238.954 94.0577 238.774 93.1377C238.584 92.1177 238.424 91.7777 238.804 90.7677C239.044 90.1078 239.274 89.7678 239.814 89.4678L240.404 89.0278C240.994 88.5578 241.174 88.6078 241.784 88.3878L244.264 87.0178C244.554 86.8378 244.814 86.6978 245.154 86.5779C245.584 86.4279 245.534 86.3179 246.034 86.1779C246.414 86.0579 247.274 85.2979 247.544 85.0079C248.444 84.0279 247.924 84.3079 248.214 83.9079C248.344 83.7279 248.584 83.6279 248.674 83.4679C248.684 83.4379 248.684 83.3779 248.694 83.3879C248.834 80.438 248.764 80.578 247.244 78.1781C247.104 77.9881 247.154 78.1181 247.034 77.9081L246.694 77.4681C245.774 76.4381 239.854 76.8181 238.904 77.5281C238.494 77.8381 237.954 77.8781 237.454 78.0581C235.384 78.798 220.524 90.3378 224.084 71.3382C224.194 70.7782 225.274 69.5683 225.364 69.4183C225.844 68.6183 231.644 65.2684 230.254 62.9784C229.984 62.5384 230.044 62.1085 229.234 61.3785C228.304 60.5385 228.464 61.3385 227.384 60.6885C226.984 60.4585 224.494 60.5685 224.004 60.5685L212.265 60.4985C210.915 60.4985 209.725 60.4285 208.375 60.4285L202.745 60.1585C201.865 60.0885 197.935 60.1485 196.855 60.1485L171.566 60.6585C171.566 62.2185 169.876 63.0184 169.876 63.7584L169.806 63.8684C169.806 64.7284 168.366 65.8184 168.366 67.7883L168.396 67.8983C168.606 68.3583 169.006 68.7983 169.546 68.7983L169.676 68.8283V68.8683L169.806 68.8983C169.806 69.0583 170.006 69.1983 170.226 70.2283Z"
            fill="#D2E28B" />
        <path fill-rule="evenodd" clip-rule="evenodd" class="state-map-path" id="lagos_state_b1eLckxCi"
            d="M192.765 82.558C182.316 82.738 183.636 85.3479 176.326 88.1578C176.116 88.2478 175.696 88.3678 175.666 88.4078C174.746 89.6478 177.556 88.0378 177.086 90.6478V91.5C177.586 101 175.666 98.2328 173.096 102.237L173.056 102.327H173.016L172.976 102.407C185.166 102.167 206.155 102.707 230.304 106.027C231.234 106.607 246.444 108.367 250.684 108.417C250.654 108.027 250.424 107.747 250.204 107.477C246.674 104.077 245.394 102.957 240.864 104.167C240.344 104.307 239.894 104.517 239.464 104.097C239.124 103.767 239.034 103.167 238.614 102.977C238.354 102.867 238.274 102.787 237.974 102.647C234.874 101.098 233.244 104.047 231.024 103.757C229.124 103.517 215.245 93.6377 215.215 93.5577C215.115 93.3477 215.185 93.4777 215.165 93.2577C215.105 92.7777 214.815 92.2577 214.495 91.9077C214.325 91.7177 204.215 89.1478 203.275 88.4178C198.625 83.8579 196.855 82.348 192.765 82.558Z"
            fill="#91D8F7" />
        <path fill-rule="evenodd" clip-rule="evenodd" class="state-map-path" id="lagos_state_GGZ8ZF0Bx"
            d="M137.686 72.9182C137.836 72.9282 137.986 72.9482 138.106 73.0082C138.296 73.0982 138.266 73.1582 138.456 73.2682C138.566 73.3382 138.766 73.3882 138.906 73.4382C138.966 74.1182 138.896 74.6182 138.876 75.2682C138.856 75.8381 138.536 76.1281 138.356 76.6181C138.246 76.9481 138.316 77.0781 138.166 77.3781C135.287 82.858 143.056 84.8779 146.756 84.2479C147.086 84.1979 147.076 84.1079 147.506 84.0979C148.116 84.0779 148.076 83.9579 148.526 83.8179C151.566 82.838 155.346 76.8781 157.676 78.5981C158.056 78.8881 158.446 78.9281 158.826 79.1781C159.056 79.3281 159.276 79.2881 159.466 79.4381C159.736 79.668 159.626 79.678 159.986 79.828C160.276 79.948 160.526 80.198 160.746 80.388C160.836 80.468 160.896 80.498 160.986 80.568C162.326 81.548 161.876 80.918 163.436 79.588C163.996 79.1081 163.926 79.4681 164.376 78.6981C164.536 78.4181 164.786 78.2581 164.996 78.0581C165.256 77.8081 165.396 77.5881 165.696 77.3581C165.986 77.1481 166.006 76.9981 166.206 76.7281L166.296 76.6081C166.746 75.9781 167.376 75.9981 167.886 75.4881C167.926 75.4381 167.976 75.3782 168.016 75.3382C168.556 74.7882 168.596 74.8782 169.346 74.4382L170.346 73.6182C170.376 72.3682 170.176 72.7782 169.986 72.0982L169.506 70.4783C169.496 70.2283 169.476 70.0683 169.446 69.8783C169.346 69.3083 169.256 69.2883 168.696 69.2183C168.416 69.1883 168.256 69.1983 168.116 68.9783C167.966 68.7483 167.996 68.6183 167.926 68.3083C167.616 68.0383 167.716 67.8883 167.896 67.0484C167.986 66.7784 168.006 66.6284 168.076 66.3684C168.186 66.0184 168.286 66.0784 168.366 65.7984C168.626 64.9484 169.526 63.8884 169.826 62.7685L170.506 62.0885L171.116 60.6985C171.176 60.5785 170.776 60.6385 170.366 60.6485L151.056 60.7385C150.566 60.7385 150.136 60.8185 149.716 60.8085C149.406 60.7985 149.426 60.7385 149.126 60.7485L147.306 60.6585L134.707 61.3085L134.887 64.8584C135.447 65.4584 136.077 65.2684 135.927 66.5484L136.117 66.7384C136.826 67.4083 136.866 66.8784 137.546 67.2484C138.126 67.5483 138.186 68.3983 138.666 68.6683C139.456 69.0983 139.516 68.5883 139.886 69.6583C140.376 71.0583 140.476 70.7183 140.576 71.5082L140.126 71.6682V71.7182C138.306 72.4482 138.626 71.5582 137.686 72.9182Z"
            fill="#FDD1A1" />
        <path fill-rule="evenodd" clip-rule="evenodd" class="state-map-path" id="lagos_state_kpGTskzt4"
            d="M72.9182 88.7278C75.4981 92.0177 76.0681 92.8777 76.0681 92.8777L75.2082 94.0177L72.7782 95.8776L73.0582 100.748L73.8082 103.397L72.6482 103.697L71.5982 106.897L66.3484 106.867L63.4784 108.437L41.749 107.657L33.1692 108.347L22.7195 109.207L15.7096 111.637H12.7097L12.8497 105.777L12.5697 101.058L14.7096 95.7576L17.1396 96.3276L23.1494 95.4777L27.1593 95.6176L31.1692 98.3376L37.0291 94.0477L39.609 92.0377L40.319 88.6078L41.329 86.5979L47.3388 87.8878H49.1988L52.1987 87.7478H56.7786L62.6485 88.6078L72.9182 88.7278Z"
            fill="#A8CF45" />
        
        <path fill-rule="evenodd" clip-rule="evenodd" class="state-map-path" id="lagos_state_fq7X8Wqpa"
            d="M122.487 84.6479L124.087 84.3179L124.837 83.7479L126.587 83.7279L129.627 83.6879L130.207 85.0579C130.727 85.6779 130.957 87.3278 130.387 87.6278C129.847 87.9078 128.997 88.3178 128.997 88.3178L128.577 89.3378V90.6078V91.9577L127.217 93.6477L124.827 94.4177L124.237 94.0777L123.787 93.9077L123.067 93.7777L121.907 94.1977L121.567 93.5277L121.527 92.6477L122.227 91.9477L123.197 91.6577L124.557 91.6277L124.867 91.0477L124.747 90.0678L124.327 88.4778L123.937 87.2878L123.227 86.1079L122.487 84.6479Z"
            fill="#F7ADAF" />
        
    </svg>