<svg viewBox="0 0 2013 1222" fill="none" xmlns="http://www.w3.org/2000/svg">
        <path fill-rule="evenodd" clip-rule="evenodd" class="state-map-path" id="nasarawa_state_GC6sc6KdF"
            d="M422 559C429 560 427 561 432 563C438 566 436 565 439 571C462 619 415 692 385 729C382 736 377 738 377 747C376 753 377 761 377 767V774C379 779 380 778 381 784C381 791 386 795 383 800L379 808C379 808 378 809 377 812C375 821 380 845 375 852C368 864 338 938 336 940C335 965 337 960 338 973C339 982 340 976 341 982C342 987 341 988 343 992L348 1005C350 1007 349 1006 350 1009C354 1021 359 1013 370 1013C378 1013 379 1017 384 1015C388 1014 384 1014 390 1013C427 1009 694 1056 721 1068L725 1071C727 1072 727 1071 730 1072C739 1076 740 1078 750 1081L774 1093C782 1096 796 1106 804 1112C820 1119 829 1124 844 1133C856 1133 806 1052 841 981C843 978 846 976 848 975H850C853 974 851 974 852 974L870 964C871 964 871 963 871 963L874 961C877 958 880 958 885 954C889 950 894 950 899 946C901 945 904 941 906 940C910 937 917 936 918 929L920 919C923 912 921 881 921 872C921 864 917 868 917 855C917 848 915 845 914 837C902 818 878 830 857 824L841 815C835 774 897 775 920 773C927 772 923 773 926 771C928 770 925 771 928 770C929 769 929 770 930 769L940 764C973 742 946 691 931 668C927 662 930 663 929 657L924 647C921 644 918 646 913 643C910 640 909 639 908 634C900 633 899 634 892 631C883 627 884 630 876 628C866 626 861 617 854 613L827 600C827 600 827 600 826 600C822 597 820 598 815 596C795 586 786 585 767 580C762 579 755 573 751 570C743 564 696 560 666 540C644 528 618 522 594 520C534 515 567 521 526 500C516 495 515 490 507 484C503 481 497 480 493 478C493 477 493 477 493 477C492 477 492 477 492 477L491 476H490C484 473 479 470 473 467C466 471 461 488 457 496L447 513C442 520 438 528 435 536L424 556C422 560 424 555 422 559Z"
            fill="#FDD1A1" />
        <path fill-rule="evenodd" clip-rule="evenodd" class="state-map-path" id="nasarawa_state_hpLKGOn1F"
            d="M39 708C37 712 38 714 37 716C32 726 35 723 34 731C33 736 35 732 30 735C30 758 19 768 14 792C13 798 10 802 8 807L0 821L9 832C11 835 10 836 13 838C18 840 16 837 19 842C23 849 51 923 51 923C51 930 51 928 48 932L43 946C43 948 43 948 42 950L38 962C29 994 27 1059 18 1103C18 1104 17 1105 17 1106C16 1110 17 1106 16 1108C12 1115 15 1119 19 1126C20 1130 22 1133 24 1135C31 1134 27 1133 33 1129C35 1128 40 1126 42 1125L69 1112C74 1109 73 1108 77 1106C180 1043 245 1051 343 1015C342 1005 334 983 331 971C325 937 342 888 361 859C367 850 369 856 369 842C369 833 368 825 369 817C369 805 379 800 374 791C373 789 373 791 372 788C372 786 372 785 372 783C371 772 369 789 369 750C369 741 369 744 371 740C374 735 371 736 375 732C380 727 378 730 381 725C401 686 467 623 426 565C422 565 417 564 414 569C412 574 411 576 408 580C397 590 396 594 392 598C381 609 370 623 357 631C353 633 351 637 348 639C272 705 135 703 39 708Z"
            fill="#9DD3AF" />
        <path fill-rule="evenodd" clip-rule="evenodd" class="state-map-path" id="nasarawa_state_P3BOdhg3I"
            d="M679 466C686 463 686 462 689 456C696 438 712 425 727 418C726 391 656 380 654 381C654 381 652 388 649 393C642 402 630 414 629 416C627 419 626 442 628 446C629 448 669 470 679 466Z"
            fill="#D2D3D5" />
        <path fill-rule="evenodd" clip-rule="evenodd" class="state-map-path" id="nasarawa_state_f1jLyO5Tt"
            d="M704 40C702 69 671 104 635 89C635 88 634 88 633 88C630 87 633 88 631 87C627 84 628 85 624 84C615 80 616 79 613 74C612 72 613 73 612 71C610 69 611 69 610 67C609 64 608 64 606 61C598 50 587 60 577 64C574 65 573 64 569 66C568 66 565 69 563 70C551 76 551 74 543 92L540 98C520 145 491 193 491 244V274C491 282 492 278 494 282C496 287 494 352 494 364C494 425 504 395 482 448C481 451 480 451 479 455L475 462C480 462 480 462 483 464C487 467 486 466 490 467C513 480 548 516 576 515C590 515 586 509 603 515C612 519 605 519 620 519C637 519 664 530 678 543C680 545 719 556 725 556C735 556 735 555 743 558C742 536 739 548 739 525C739 520 738 512 740 508C742 503 743 502 744 494C745 486 745 448 742 441C740 438 739 441 739 435C740 430 741 433 743 429C741 428 735 425 732 425C713 423 694 464 687 470C684 472 686 471 682 472C679 474 680 475 677 475C669 475 674 474 669 472C667 471 635 467 637 458C633 458 630 457 625 453C617 448 619 444 619 433C619 429 619 422 619 419C620 415 621 414 624 411C631 406 629 406 638 397C640 395 641 393 643 391C648 386 646 380 651 375C655 371 655 366 658 361C663 351 668 352 676 345C678 343 677 344 680 342L702 330C720 321 713 323 721 313L733 298C735 296 735 291 737 289L740 285C741 281 741 282 742 279C758 252 772 236 803 231C804 224 808 215 813 210C818 204 814 205 819 200C827 193 828 193 837 191C844 189 835 190 849 187C850 187 852 187 856 183C860 179 862 180 867 177C869 176 870 176 872 174C874 166 872 164 871 157C863 93 791 83 792 57C793 48 799 47 794 38L793 37L789 31C778 20 771 17 766 12C762 6.99997 758 7.99997 754 3.99997C749 -1.00003 747 -3.17097e-05 738 0.999968C732 9.99997 728 4.99997 720 19C717 23 715 25 713 30C711 35 710 39 704 40Z"
            fill="#F6AFCE" />
        <path fill-rule="evenodd" clip-rule="evenodd" class="state-map-path" id="nasarawa_state_GnW358FyI"
            d="M1485 290C1476 298 1483 303 1477 313C1472 321 1469 329 1460 335C1460 343 1458 343 1457 349C1457 352 1456 352 1454 354C1453 355 1454 354 1453 355C1450 358 1451 357 1450 359C1445 365 1442 368 1439 375C1438 379 1440 376 1437 379C1433 383 1429 387 1427 392L1420 404C1415 414 1414 408 1402 417L1394 419C1386 421 1382 424 1372 423C1360 423 1362 427 1350 427L1290 428C1289 430 1290 429 1288 431L1285 434C1288 439 1289 441 1294 443C1301 445 1298 446 1307 448L1314 450C1319 451 1318 450 1321 452C1323 454 1326 457 1329 458C1343 464 1337 481 1334 493C1330 517 1306 540 1286 550C1284 551 1282 554 1281 556C1277 557 1274 556 1270 557C1270 557 1164 565 1162 565C1117 613 1092 586 1049 591C1047 591 1045 592 1043 592C1036 598 1005 631 1002 636C987 636 996 630 980 630C979 627 977 624 979 620C982 616 980 622 982 616C983 608 982 592 982 584C982 576 981 580 984 574C986 571 988 568 987 564C985 563 983 562 980 561C977 555 978 549 981 543C983 538 984 538 986 532C972 533 967 529 962 542C958 550 960 552 955 560L951 568C950 570 950 569 949 571C944 586 940 591 939 594C937 598 939 605 938 610C937 613 936 613 936 618C936 625 935 628 935 633C941 633 949 632 956 634C961 636 951 630 958 635C967 642 979 657 987 661L1005 670C1077 707 1078 644 1174 741C1175 743 1177 747 1178 749C1184 754 1196 749 1205 749C1280 748 1224 677 1300 693C1366 677 1384 745 1430 746C1436 746 1438 746 1443 747C1475 747 1499 743 1534 745C1537 746 1540 745 1543 745C1548 746 1546 747 1551 747C1551 740 1551 741 1545 740C1544 732 1545 732 1545 724C1542 721 1541 722 1538 719C1537 718 1536 717 1535 716C1529 709 1527 705 1527 695C1527 682 1530 688 1531 674C1531 669 1535 662 1538 659C1520 648 1538 632 1534 602L1523 597C1518 596 1476 519 1470 507C1465 497 1466 499 1467 488L1474 485C1475 469 1470 478 1470 468L1477 465C1482 462 1479 462 1487 463C1510 463 1507 428 1513 418C1515 415 1515 413 1517 411L1532 408C1576 403 1612 329 1591 285C1587 285 1582 285 1578 285C1570 285 1571 285 1566 287C1557 289 1547 285 1540 289L1513 291C1505 291 1492 292 1485 290Z"
            fill="#91D8F7" />
        <path fill-rule="evenodd" clip-rule="evenodd" class="state-map-path" id="nasarawa_state_d7Yitrnib"
            d="M931.001 646C931.001 653 931.001 649 933.001 653L934.001 654C949.001 692 985.001 741 937.001 772C935.001 773 933.001 775 931.001 776C924.001 780 846.001 777 846.001 809V813C854.001 815 851.001 816 859.001 818C900.001 826 922.001 804 926.001 863L927.001 864C930.001 867 930.001 916 927.001 922C923.001 930 927.001 931 919.001 938C909.001 946 881.001 963 875.001 970C872.001 972 873.001 971 870.001 972C825.001 991 831.001 1072 851.001 1110C855.001 1118 854.001 1115 854.001 1130V1140L869.001 1148C873.001 1149 877.001 1148 879.001 1150C886.001 1153 878.001 1152 898.001 1152C946.001 1152 1055 1222 1103 1222C1103 1215 1096 1204 1093 1198C1091 1195 1091 1199 1091 1192C1090 1184 1092 1180 1098 1175C1098 1172 1098 1168 1099 1165C1101 1157 1104 1163 1100 1154L1091 1139C1089 1134 1088 1132 1086 1128C1039 1001 1080 1004 1166 934C1170 931 1172 931 1177 929C1186 925 1190 917 1184 911C1180 905 1183 906 1182 898C1181 893 1181 896 1180 892C1174 870 1179 875 1179 860C1180 852 1171 847 1177 838C1178 836 1180 834 1179 829C1177 822 1176 827 1176 813C1176 804 1178 764 1174 758L1172 756C1170 752 1169 750 1168 746C1167 742 1169 744 1166 740C1164 737 1166 741 1163 736L1157 728C1152 720 1154 720 1144 712C1141 709 1138 710 1134 707C1128 704 1132 703 1125 702C1116 700 1122 702 1116 697C1111 692 1084 692 1076 692C1059 692 1063 691 1049 689C1043 689 1045 686 1041 683C1039 681 1039 683 1036 681C1028 678 1039 678 1015 678C1004 678 1003 675 994.001 672C989.001 670 982.001 665 978.001 661C975.001 658 973.001 655 970.001 652C965.001 647 963.001 647 959.001 644C955.001 642 961.001 642 953.001 641C946.001 640 937.001 642 931.001 646Z"
            fill="#F6AFCE" />
        <path fill-rule="evenodd" clip-rule="evenodd" class="state-map-path" id="nasarawa_state_O5ywTTkMV"
            d="M1534 694C1534 701 1535 708 1540 714C1544 718 1543 715 1547 718L1553 723L1552 737C1558 741 1558 741 1558 749C1558 754 1561 753 1561 766V807C1561 820 1561 819 1548 832C1538 841 1537 842 1522 844C1524 848 1524 845 1524 852C1525 869 1521 861 1514 864C1511 865 1511 863 1511 873C1511 880 1511 880 1515 884C1531 905 1570 935 1576 957C1577 962 1575 960 1577 964C1580 967 1582 966 1584 972C1597 1001 1644 1043 1661 1070L1665 1076C1666 1079 1667 1078 1669 1082C1670 1084 1669 1085 1671 1087C1675 1096 1682 1105 1683 1116C1688 1116 1690 1115 1695 1113C1697 1112 1698 1112 1699 1112C1713 1105 1883 1023 1850 994C1844 985 1833 940 1842 932C1847 928 1850 928 1857 921C1856 918 1857 920 1856 918C1851 909 1846 905 1837 901C1830 897 1837 897 1825 892C1820 890 1823 890 1819 888C1811 885 1817 890 1812 884C1793 883 1797 871 1789 866C1789 851 1813 824 1816 806C1817 801 1816 795 1828 788C1837 783 1850 787 1858 794C1887 823 1971 818 1976 823C1983 824 1986 823 1992 825C1996 826 2002 827 2007 827C2008 815 2005 805 2005 793C2005 780 2013 777 2012 766C2011 762 2009 763 2006 762C2001 760 2005 761 2001 759C1958 747 1870 727 1839 697C1823 683 1741 720 1699 710C1695 710 1683 701 1674 709C1627 746 1625 712 1599 685C1595 682 1592 680 1592 674C1591 666 1592 665 1583 665L1580 670C1559 671 1562 668 1555 667L1541 665C1539 670 1537 671 1537 678C1536 686 1534 684 1534 694Z"
            fill="#F6AFCE" />
        <path fill-rule="evenodd" clip-rule="evenodd" class="state-map-path" id="nasarawa_state_JMyXJdCCj"
            d="M661 378C696 378 713 388 735 413C736 415 735 414 736 416C737 418 737 419 738 421C743 421 747 420 749 425C750 430 747 433 745 436C747 441 748 436 749 443C758 495 745 491 745 532C745 540 745 536 747 541C750 546 749 556 749 562C756 566 758 569 763 571C774 576 778 568 789 578L793 581C799 586 797 581 806 586C808 587 805 586 810 587L824 591C829 593 834 597 839 599L847 603C850 604 850 603 852 604L858 609C860 610 859 609 860 610L868 615C877 620 873 620 883 620C889 620 891 623 896 625C903 629 906 626 910 629C911 630 914 633 914 634C918 639 919 641 927 639C930 634 929 629 929 622C929 611 932 613 932 607C933 599 931 597 934 589C936 584 937 579 940 575C942 570 940 574 942 568C943 560 950 556 952 548C954 538 967 527 968 527L985 526C986 524 986 523 987 521C989 517 987 522 989 517L976 509V487C976 476 978 477 978 466C978 454 978 452 984 443C985 441 985 443 986 439C986 435 987 421 984 417C982 412 982 417 982 408C982 404 982 399 982 396C981 391 981 393 978 388L968 374C963 371 960 369 955 364C952 360 954 360 951 356C948 351 949 353 949 346C948 340 948 344 946 342C944 337 946 337 942 333C938 330 938 328 937 323C935 317 936 324 934 318C933 312 934 295 934 287C934 274 933 278 927 271C920 262 927 268 918 260C917 260 917 260 917 259L916 258C910 263 899 268 891 267C883 266 872 262 871 253C868 236 872 207 871 189C870 185 872 188 870 186C867 184 866 185 864 186C863 187 860 189 859 190C852 196 855 192 846 194L832 200C828 202 826 202 824 206C820 211 809 234 804 237C802 238 803 237 802 238L799 239C799 239 799 239 798 239C788 245 785 244 781 247C777 249 781 248 775 249C768 250 763 254 759 259C756 265 755 270 751 276C749 280 750 277 748 282L740 298C737 302 732 310 729 313C721 320 729 315 720 325L716 330C709 336 703 333 686 346L671 355C663 360 666 356 663 364C661 370 659 370 661 378Z"
            fill="#9DD3AF" />
        <path fill-rule="evenodd" clip-rule="evenodd" class="state-map-path" id="nasarawa_state_bKaXmMmqn"
            d="M991 412C990 420 992 410 993 419C994 423 993 428 993 433C993 436 994 443 992 446C992 446 992 446 992 447H991C985 455 987 456 987 468C987 477 985 474 984 479C982 483 983 502 984 507C989 508 992 509 995 512C996 521 995 518 993 523C991 526 992 531 991 535C990 546 985 546 987 558C991 561 993 562 995 566C994 569 992 573 990 577C986 585 991 610 986 622C1008 640 1018 601 1041 587C1045 585 1045 584 1053 584C1058 583 1061 583 1065 585C1084 590 1110 592 1127 583C1138 577 1145 569 1157 563C1158 562 1158 562 1159 562C1165 556 1156 562 1161 560C1169 557 1191 560 1202 559C1227 557 1216 552 1261 552C1270 552 1267 551 1272 549C1289 542 1301 537 1312 520L1318 512C1322 504 1328 498 1328 486C1329 478 1332 472 1328 466C1325 463 1322 460 1318 458C1315 456 1320 458 1315 456C1302 452 1304 455 1290 447C1279 441 1289 438 1265 440C1248 442 1251 448 1242 452C1229 457 1163 438 1174 417C1178 410 1186 396 1192 394C1190 392 1189 391 1186 391C1185 391 1180 391 1178 391C1157 391 1170 387 1153 387C1139 387 1070 388 1064 387C1057 384 1061 382 1046 383C1044 383 1044 383 1042 384L1001 406C995 412 1001 409 991 412Z"
            fill="#D2D3D5" />
        <path fill-rule="evenodd" clip-rule="evenodd" class="state-map-path" id="nasarawa_state_b65X1CzWe"
            d="M1182 303C1181 304 1196 364 1197 372C1198 379 1202 385 1202 393C1197 397 1195 398 1192 405C1186 415 1181 417 1181 417C1180 424 1181 425 1185 430C1188 430 1190 430 1193 430C1200 432 1213 443 1221 443C1236 444 1233 450 1243 443C1245 441 1245 442 1245 441C1252 436 1258 435 1267 434C1271 429 1268 432 1274 430C1279 428 1280 426 1285 424C1289 423 1285 424 1289 423C1299 418 1342 424 1355 421C1425 406 1414 400 1453 343C1455 339 1453 338 1455 334L1460 329C1463 326 1462 325 1464 322C1469 314 1474 313 1474 300C1475 272 1402 294 1390 270C1386 261 1396 256 1393 247C1392 242 1370 231 1367 223C1367 218 1369 214 1369 206C1369 194 1373 200 1373 191C1373 151 1315 172 1295 159L1294 158C1294 160 1294 165 1294 167C1286 196 1235 242 1229 256C1227 259 1228 256 1227 259C1227 259 1227 259 1226 259C1212 288 1224 298 1182 303Z"
            fill="#F6AFCE" />
        <path fill-rule="evenodd" clip-rule="evenodd" class="state-map-path" id="nasarawa_state_GA5I9Ss0p"
            d="M1359 860C1352 860 1311 861 1307 860C1302 858 1306 857 1300 857C1277 855 1273 860 1265 860C1253 860 1258 864 1248 864H1197C1189 864 1192 861 1186 860L1183 868C1178 876 1184 882 1185 886C1189 900 1188 887 1189 904C1189 911 1191 908 1192 912C1197 923 1182 929 1194 933C1340 987 1400 1003 1562 1003C1573 1003 1569 1000 1584 995C1585 979 1583 986 1579 975C1576 968 1570 969 1568 961C1566 952 1566 952 1561 945C1555 936 1565 945 1550 931C1540 923 1542 916 1533 912C1478 887 1518 849 1518 848C1512 845 1455 841 1435 840C1375 835 1400 860 1359 860Z"
            fill="#9DD3AF" />
        <path fill-rule="evenodd" clip-rule="evenodd" class="state-map-path" id="nasarawa_state_b7JtxG7E6"
            d="M989 161C990 166 989 161 990 165C991 167 991 166 992 169C993 186 954 226 943 236C940 238 926 248 926 252C924 258 928 261 931 266C934 273 942 277 942 279L943 316C946 344 966 362 981 381C986 388 989 384 988 405C992 405 995 405 998 402C1006 395 1003 399 1007 396C1013 391 1007 392 1015 390L1036 380C1042 377 1039 377 1048 378C1053 378 1059 377 1062 379C1067 381 1061 381 1074 381C1113 381 1152 382 1191 382L1189 378C1188 374 1188 375 1188 372C1187 360 1183 329 1180 319C1179 317 1179 316 1178 313C1176 308 1176 314 1175 304C1167 230 1094 177 1034 162C1019 158 1031 156 998 157C988 157 994 158 989 161Z"
            fill="#91D8F7" />
        <path fill-rule="evenodd" clip-rule="evenodd" class="state-map-path" id="nasarawa_state_OkXfJwqIS"
            d="M1246 735L1245 746L1239 747C1219 756 1235 751 1215 753C1188 756 1200 757 1192 758C1189 759 1185 759 1182 759V821C1183 826 1185 824 1185 832C1186 841 1177 844 1184 852L1192 856C1213 866 1276 850 1303 850C1310 852 1302 850 1310 852H1358C1368 852 1363 853 1369 851C1386 846 1391 834 1409 834C1413 827 1503 840 1526 838L1531 836C1533 834 1529 836 1535 834C1541 832 1555 816 1555 816V756C1546 751 1544 752 1533 752C1522 751 1490 752 1484 751C1425 742 1437 766 1380 728C1368 715 1379 729 1366 716C1352 703 1355 713 1347 708C1335 699 1341 693 1319 694C1309 695 1319 697 1309 698C1294 699 1296 697 1292 696C1289 695 1289 695 1285 695C1282 695 1277 694 1274 696L1270 698C1265 700 1269 697 1265 700C1257 707 1264 715 1260 723C1259 724 1247 735 1246 735Z"
            fill="#FDD1A1" />

    </svg>