<svg viewBox="0 0 122 102" fill="none" xmlns="http://www.w3.org/2000/svg">
        <path fill-rule="evenodd" clip-rule="evenodd" class="state-map-path" id="ogun_state_sBTLd1jx2"
            d="M69.4698 78.2573C69.4798 78.2573 69.4798 78.2573 69.4898 78.2673C69.6398 78.3273 69.4698 78.2773 69.6298 78.3073L70.8298 78.6673C70.9198 78.6773 71.0097 78.6773 71.1097 78.6773C70.8098 78.5773 70.6798 78.4173 69.9498 78.3073C69.7498 78.2773 69.5898 78.2573 69.4698 78.2573Z"
            fill="#A8CF45" />
        <path fill-rule="evenodd" clip-rule="evenodd" class="state-map-path" id="ogun_state_ZR4bXdWr9"
            d="M67.5898 78.1373C67.7798 78.1873 67.9698 78.2373 68.2098 78.2273H68.1998C68.0198 78.1773 67.8098 78.1473 67.5898 78.1373Z"
            fill="#A8CF45" />
        <path fill-rule="evenodd" clip-rule="evenodd" class="state-map-path" id="ogun_state_hmsi1JNXZ"
            d="M79.6495 67.2076C80.2995 67.3576 80.3695 67.4876 80.8295 68.0076C81.1095 68.3176 81.4495 68.8576 81.8495 69.0176C81.9495 68.9676 81.9095 68.1176 82.6595 67.5776C83.3795 67.5276 85.2094 68.5876 85.2094 68.4476L86.5194 67.6176L87.3094 64.9477L88.2193 62.5877C87.2194 62.3677 85.0394 63.1677 84.7994 63.1077C84.7294 63.0977 83.1095 64.1077 82.4595 64.5177C81.4595 65.1476 80.3495 65.0277 79.7095 64.8977C79.3996 64.8377 77.6796 65.1776 77.6596 65.1177C77.5796 65.2576 77.6996 65.5076 78.6396 65.6376C79.1996 65.7176 79.4996 66.5376 79.6495 67.2076Z"
            fill="#D2E28B" />
        <path fill-rule="evenodd" clip-rule="evenodd" class="state-map-path" id="ogun_state_EetMICn1F"
            d="M64.5699 72.9775L64.5599 72.9275H64.5299V72.9775H64.5699Z" fill="#A8CF45" />
        <path fill-rule="evenodd" clip-rule="evenodd" class="state-map-path" id="ogun_state_J3xu7S2PN"
            d="M64.4599 77.9173H64.5399C64.4999 77.8573 64.4899 77.8273 64.4599 77.7673C64.4499 77.7773 64.4599 77.8873 64.4599 77.9173Z"
            fill="#A8CF45" />
        <path fill-rule="evenodd" clip-rule="evenodd" class="state-map-path" id="ogun_state_OYFMzbGSb"
            d="M64.0299 72.6075L63.9799 72.6975C63.7199 72.6575 63.7599 72.5975 63.5999 72.4875C63.5799 72.1875 63.5299 72.1475 63.7799 71.9275C63.8399 71.8675 63.8699 71.8575 63.9399 71.8175C64.0699 71.7375 64.0299 71.7775 64.0999 71.6975C63.9199 71.2975 64.0799 71.5175 63.7999 71.2275C63.7499 71.1775 63.4799 70.8475 63.4099 70.7575C63.0999 70.6775 63.1499 70.4475 62.8499 70.2775C62.58 70.1575 61.9 69.6275 61.73 69.3975L61.51 69.2675C61.28 69.1275 61.08 68.8976 60.84 68.7176C60.61 68.5576 60.35 68.3576 60.15 68.1776C59.96 68.1176 58.5201 66.9176 58.4301 66.7776L58.1701 66.3276C58.0301 66.1776 58.0701 66.1676 58.0601 65.9276L58.0801 65.9076C57.7901 65.7076 57.8501 65.6576 57.7601 65.3176C57.6901 65.0077 57.2601 64.0677 57.1401 63.8177C56.3001 64.9377 56.0801 65.4176 55.5301 65.5276C55.3201 65.5776 55.2101 65.8076 55.0101 65.9376L55.0301 65.9176C54.8801 66.5476 54.9601 66.1476 54.7901 66.4676C54.6401 66.7376 54.6101 66.9276 54.1402 67.0876L54.1602 67.0576L53.7702 67.4976C53.6202 67.6176 53.4502 67.7076 53.2902 67.8476C53.0702 68.0376 53.2002 68.0476 52.8502 68.2476C52.6502 68.3476 52.5002 68.3976 52.3002 68.5276C51.3802 69.1775 50.5602 68.3676 50.5502 70.0275C50.0703 70.3975 49.7503 70.9875 49.5603 71.5675C49.4803 71.8275 49.2803 72.1375 49.1803 72.4475C49.0803 72.7475 48.9903 73.1375 48.7603 73.3474H48.8003C48.8103 73.5374 48.7903 73.7074 48.7403 73.8874L48.5403 74.3774L48.5703 74.4374C48.6003 74.7974 48.4603 74.5274 48.3903 74.9674C48.3403 75.2974 48.2803 75.2874 48.2003 75.5374L48.1603 78.3473C48.3203 79.4173 48.0903 79.1373 48.5603 79.3073C48.5803 78.8273 49.3603 78.6873 49.4303 78.6473C49.8603 78.4473 49.8403 78.0273 50.4803 78.0573C51.0802 78.0973 51.3402 78.1973 52.0202 78.1573C52.7102 78.1173 52.9202 78.0473 53.5402 78.3073C53.6602 78.3573 54.0302 78.5573 54.0902 78.5773C54.3502 78.6473 57.5501 78.4873 58.0801 78.4673C58.6101 78.4473 59.11 78.2773 59.65 78.3473L59.74 78.4573L59.9 78.4373C60.78 78.4073 61.13 78.6073 61.95 78.3173C62.07 78.2773 62.13 78.2473 62.27 78.2673C62.48 78.2773 62.43 78.2973 62.52 78.4173L62.8799 78.3873L63.5299 77.5873H63.9099C63.9499 77.6073 63.9899 77.6273 64.0199 77.6473L64.0599 77.3973L64.0799 76.8974L64.1099 76.6974H64.1499L64.1399 76.4374H64.1699L64.1999 76.2674V76.1674H64.2299L64.2199 75.8974H64.2599L64.1699 73.8274L64.1399 72.6075H64.0299Z"
            fill="#91D8F7" />
        <path fill-rule="evenodd" clip-rule="evenodd" class="state-map-path" id="ogun_state_JB0rb5vs7"
            d="M66.4599 54.0479C66.0099 53.9579 65.7199 53.6079 65.3199 53.7479C64.2899 54.8079 64.3699 55.7079 62.76 56.9778C62.11 57.2278 62.2 57.0778 62.13 57.6978L62.29 57.7478L62.25 57.8978C62.37 57.9478 62.27 57.8778 62.38 57.9578L62.74 58.7778C64.7499 61.1477 66.5099 62.6077 67.1898 64.2577L67.1798 64.0777H67.2098L67.2698 63.8477L67.2898 63.2877L67.3198 63.1177H67.3598L67.3798 62.9477V62.8177H67.4098L67.4398 62.6177V62.5477H67.4698V62.5177L67.5398 62.4777V62.4477L67.6398 62.4077L67.6698 62.3477H67.6998V62.3077L67.7698 62.2777L67.7598 62.2477L67.9298 62.1377L68.0198 62.0077H68.0598L68.1498 61.7977H68.1798L68.2098 61.6677L68.2798 61.6377L68.3098 61.4977V61.4677H68.3398L68.4398 61.2677L68.4298 61.1977H68.4698L68.4998 61.0677V61.0278H68.5298L68.5598 60.7678L68.5498 60.5278H68.5798L68.6098 60.3278L68.6398 60.0678L68.6698 59.9278L68.7298 59.7678L68.7598 59.6278V59.5978L68.7898 59.5778L68.8198 59.4678V59.2978L68.8498 59.1978L68.8798 59.0978L68.8698 58.9278L68.9098 58.8678L68.8998 58.7678L68.9298 58.6678L68.9698 58.5978L68.9998 58.5278V58.4678L69.0298 58.3978V58.3678H69.0598V58.2678L69.0898 58.1978V58.1278H69.1198L69.1498 58.0678V57.9278H69.1798V57.7978H69.2098V57.6978H69.2398L69.2698 57.6278V57.5578H69.2998V57.4578H69.3298V57.3978H69.3698L69.3598 57.3278H69.3998V57.2278L69.4298 57.1578L69.4598 57.0978L69.4898 57.0278V56.9978L69.5198 56.9878V56.9279L69.5498 56.8579L69.5798 56.7879V56.7279H69.6098V56.6879H69.6498L69.6398 56.5579H69.6798L69.6698 56.4579L69.7098 56.3879L69.6998 56.3279H69.7398L69.7698 56.2579L69.7998 56.1879V56.1579H69.8298L69.8598 56.0579V55.9579H69.9298L69.9498 55.7179V55.6879H69.9898L70.0198 55.5179L70.0398 55.3579L70.1398 55.2179L70.2398 55.0479L70.3298 54.9179H70.3598L70.4598 54.7779V54.7479H70.4898V54.6779L70.5598 54.6479V54.6079H70.5898V54.5479H70.6198L70.6498 54.4779H70.6798V54.4079H70.7198V54.3779H70.7498V54.3379H70.7798L70.8098 54.2779L70.8498 54.2679L70.8798 54.1679H70.9098V54.1379H70.9398V54.1079H70.9698V54.0679H71.0098V54.0579C70.9398 54.0579 70.8698 54.0679 70.7998 54.0779C70.5798 54.1079 70.4098 54.1679 70.2598 54.0979C69.5698 53.7979 70.1198 53.9179 69.3798 53.9779L66.4599 54.0479Z"
            fill="#91D8F7" />
        <path fill-rule="evenodd" clip-rule="evenodd" class="state-map-path" id="ogun_state_jqfEALtIb"
            d="M67.6598 57.4978C68.1398 58.1978 60.45 59.9878 67.6598 57.4978V57.4978Z" fill="#A8CF45" />
        <path fill-rule="evenodd" clip-rule="evenodd" class="state-map-path" id="ogun_state_G5OI1IWJR"
            d="M85.5794 77.9773C85.7294 77.8873 85.8094 77.8673 85.9894 77.9873C85.9694 78.0073 85.8994 78.0773 85.8094 78.0873C85.4994 78.1373 85.6194 78.0673 85.5794 77.9773Z"
            fill="#A8CF45" />
        <path fill-rule="evenodd" clip-rule="evenodd" class="state-map-path" id="ogun_state_jQ6i8Xmwn"
            d="M2.68144 41.8282C2.75143 41.9382 2.83143 42.0282 2.75143 42.2082C3.00143 42.3182 2.96143 42.6082 3.06143 42.8382C3.17142 43.1182 3.26142 43.0982 3.30142 43.4582H3.27142C3.46142 43.6582 3.47142 43.7382 3.56141 43.9382C3.61141 44.0582 3.57141 43.9882 3.62141 44.0682L4.40139 45.9081C4.47139 46.6481 4.40139 47.5581 4.1414 48.1981C4.0014 48.5681 3.88141 48.4081 3.67141 48.5681C3.59141 48.7181 3.65141 48.6881 3.58141 48.838C2.41144 51.748 1.80146 49.388 3.51142 52.818C3.59141 52.9679 3.78141 53.3579 3.78141 53.4979C3.79141 53.7279 3.51142 54.3979 3.40142 54.5779C3.30142 54.7379 3.31142 54.5679 3.30142 54.9179C3.9614 54.9779 4.2514 55.4179 4.3314 56.0979H4.2914C4.47139 56.3679 4.42139 56.5179 4.41139 56.8579C4.1314 57.0178 4.1914 57.1378 3.34142 57.4478C2.46144 57.7678 0.391492 60.4578 0.221497 60.4878L0.241496 60.6878C0.341494 61.3777 0.291495 62.3677 0.341494 63.0477C0.421492 63.0677 0.761483 63.2577 0.841481 63.3077C1.01148 63.4277 1.20147 63.5477 1.26147 63.7277C1.38147 63.6777 1.36147 63.6577 1.33147 63.7777C1.45147 63.7377 1.43147 63.7177 1.39147 63.8477C1.61146 63.9077 1.54146 63.8977 1.67146 64.0977C1.77146 64.2477 1.82146 64.2677 1.92145 64.4177C2.09145 64.6677 2.21145 64.9477 2.18145 65.2176C2.35144 65.4676 2.30145 66.1776 2.29145 66.4476C2.03145 66.6476 2.04145 66.4976 2.03145 66.8476C2.01145 67.2576 2.00145 67.5576 2.12145 67.8676C2.48144 68.8276 2.35144 68.2776 2.51144 68.6176C2.65144 68.5576 2.64144 68.5276 2.58144 68.6776C2.72143 68.6076 2.70144 68.5876 2.65144 68.7376C2.93143 68.6976 3.10143 68.8976 3.37142 69.0676C4.49139 69.7475 5.07138 69.5675 5.90136 69.6875C6.03135 69.7275 5.90136 69.7075 5.97135 69.6575C6.53134 69.2975 6.18135 69.5875 6.47134 69.2375C6.89133 68.7476 7.64131 68.5676 8.1313 68.3076C8.42129 68.1576 8.75129 67.9276 9.06128 67.9076L9.10128 67.9476C9.24127 67.7576 9.21127 67.8076 9.80126 67.8076L10.5812 67.7676C10.5912 67.7676 10.7212 67.7376 10.7412 67.7376C10.9412 67.6776 11.2312 67.4876 11.7312 67.5176L11.8912 67.5576L13.2512 67.2276L13.2312 67.2776C13.3012 67.1476 13.1412 67.1076 13.4012 67.1976C13.5612 66.9676 13.6212 67.0076 13.8512 66.9076C14.2911 66.7076 14.0612 66.5976 15.0011 66.3176L15.2111 66.2376L15.3511 66.1076C15.9011 65.7276 16.1811 65.8376 16.5011 65.6476C17.2311 65.2276 17.1711 64.9676 17.5311 64.8477C17.4711 64.7077 17.4611 64.7377 17.6011 64.7877C17.6311 64.6977 17.4711 64.6677 17.7311 64.7277C17.7811 64.5277 17.9011 64.3677 18.1311 64.4177C18.1711 64.1577 18.281 64.2177 18.601 64.0477C18.841 63.9277 18.891 63.7877 19.051 63.6877C19.171 63.6177 19.181 63.6777 19.341 63.5277C19.481 63.3977 19.571 63.2277 19.751 63.1177L20.011 62.9677C19.951 62.7077 19.911 62.8077 19.921 62.7077C20.041 62.6877 20.121 62.8677 20.631 62.7677C20.761 62.7477 20.631 62.7777 20.741 62.7477C21.501 62.5177 21.341 62.8277 22.221 62.7177C22.6609 62.4277 22.7909 62.6277 22.9109 62.0177C23.1509 60.8578 23.0609 60.9677 23.5109 59.8578C23.5909 59.6578 23.6309 59.5678 23.7409 59.3878C23.9409 59.0878 23.8809 59.0578 24.0309 58.9678C24.3109 58.8178 24.3509 58.9778 24.5709 58.7978C24.6409 58.7478 24.7809 58.5878 24.9009 58.4978C25.2409 58.2678 25.4909 58.3078 25.6409 57.9578C25.8109 57.5678 25.6509 57.8678 25.9909 57.6078C26.3808 57.2978 26.6908 56.9878 26.8108 56.5279C27.4408 54.3079 26.7608 54.3479 26.7008 53.8179C26.6608 53.4679 26.7908 53.1079 26.7308 52.598C26.6908 52.228 26.1109 51.688 25.8709 51.488C25.3809 51.078 25.5709 51.408 25.3409 50.748C24.9709 49.718 24.4409 49.808 24.4109 49.038C24.3909 48.4981 24.4909 47.6581 24.2209 47.2081C24.0309 46.8781 24.1909 47.0081 23.8909 46.8981C23.3709 46.7081 23.4609 46.6581 23.4509 46.0581C23.4509 45.2481 23.1809 45.5081 22.8709 45.3681C22.8509 44.9681 22.8209 44.8581 22.7509 44.5182C22.6609 44.1082 22.7109 43.5082 22.341 43.0382C21.771 42.3182 21.991 42.3882 21.711 41.8182C21.521 41.4382 21.271 41.0082 20.941 40.7282C19.631 39.6183 20.471 40.4783 19.761 39.1583C19.661 38.9683 19.521 38.7383 19.431 38.5383C19.321 38.3183 19.201 38.1683 19.151 37.9183C19.091 37.6083 19.121 37.3683 19.021 37.0683C18.421 35.1484 19.101 34.7184 18.561 34.4084C18.2111 34.1984 18.2311 34.4784 17.9911 34.0284C17.7011 33.9484 17.8611 34.0084 17.6211 33.8584C17.0311 33.4784 16.7411 33.7084 16.4111 33.6184C15.9311 33.4784 14.8411 33.5984 14.2711 33.6084C13.8212 33.6084 13.6912 33.7184 13.3212 33.7584C11.4512 33.9884 12.2212 33.9784 10.6412 34.3884C9.87126 34.5884 7.04133 34.2584 6.56134 34.3684C6.24135 34.4384 6.05135 34.5584 5.69136 34.5984C4.87138 34.6784 3.29142 34.5984 2.78143 34.9284C2.78143 35.5484 2.87143 36.2384 2.88143 36.9083C2.89143 37.5483 2.64144 38.8183 2.43144 39.3683C2.15145 40.0783 2.71144 41.5282 2.68144 41.8282Z"
            fill="#F6AFCE" />
        <path fill-rule="evenodd" clip-rule="evenodd" class="state-map-path" id="ogun_state_D6ogu70DV"
            d="M5.37138 0.699241C5.33138 0.909236 5.34138 0.859238 5.20138 1.02923C5.04139 1.21923 5.14139 1.15923 4.93139 1.22923C4.84139 1.38922 4.89139 1.48922 4.78139 1.68922C4.6714 1.86921 4.6714 1.75922 4.6014 2.03921C4.5814 2.3692 4.4914 2.3392 4.29141 2.5792C4.23141 2.84919 4.08141 2.87919 3.87142 3.05918C3.64142 3.26918 3.66142 3.36918 3.34143 3.35918C3.29143 3.44917 3.35143 3.38918 3.25143 3.46917C3.17143 3.53917 3.24143 3.47917 3.15144 3.49917C3.18143 3.58917 3.19143 3.55917 3.09144 3.55917L3.02144 3.61917C2.94144 3.71917 3.14144 3.65917 2.84144 3.69917C2.66145 3.86916 2.69145 3.89916 2.46145 3.94916C2.27146 4.19916 2.10146 4.46915 1.76147 4.46915C1.61147 4.64914 1.57147 4.70914 1.30148 4.73914L0.661497 4.76914C0.621498 4.78914 0.5215 4.83914 0.5215 4.83914L0.171509 5.11913L0.201508 5.58912C0.371504 5.66912 0.631497 5.64912 0.721495 6.10911L0.761494 6.71909C0.861492 7.59907 1.96146 7.85907 2.22146 8.61905C2.67145 9.95901 2.35145 10.429 2.32146 10.759C2.29146 11.019 2.35145 11.319 2.32146 11.579C2.26146 12.029 2.10146 12.329 2.31146 13.1089C2.42145 13.5089 2.43145 15.9489 2.26146 16.2389C2.27146 16.3389 2.30146 16.3189 2.21146 16.3189C2.22146 16.4089 2.24146 16.3889 2.15146 16.3889L2.10146 16.4589C2.09146 16.6888 2.12146 16.7788 2.02146 16.9488C2.03146 17.1888 1.97146 17.2888 1.98146 17.5788C1.98146 17.8988 2.06146 17.9988 1.87147 18.2388L1.89147 18.2788C1.89147 18.5088 1.91147 18.5588 1.83147 18.7488L1.85147 20.7687C1.84147 21.0687 1.74147 21.0687 1.73147 21.3387C1.71147 21.6487 1.77147 21.6287 1.69147 21.9687C1.58147 22.4187 1.67147 22.5487 1.83147 22.7587C2.03146 23.0387 1.75147 22.7887 2.26146 23.4087C2.48145 23.3687 2.32146 23.3487 2.52145 23.3987C2.66145 23.7687 2.54145 24.0287 2.88144 24.3887C3.13144 24.6387 3.41143 24.8386 3.49143 25.1086C3.66142 25.7986 4.6114 25.9086 5.13139 26.1286C5.33138 26.2086 5.75137 26.5186 5.89137 26.7086L6.27136 27.6886C6.40135 28.0986 6.31136 28.5586 6.33136 28.9885C6.35136 29.4285 6.41135 29.8685 6.10136 30.1485C6.22136 30.5285 6.21136 31.9085 5.91137 32.1885C5.69137 32.3885 5.37138 32.4485 5.06139 32.5085C4.4014 32.6485 4.6814 32.4585 4.14141 32.8184C3.93142 32.8785 3.66142 32.6585 3.20143 32.9784L2.97144 33.1884C2.89144 33.3084 2.82144 33.4084 2.78144 33.5484L2.82144 33.9684C3.07144 33.9484 3.01144 33.7884 3.02144 33.5484L3.45143 33.4684C3.81142 33.7884 3.77142 33.9484 4.6114 33.9384C5.33138 33.9284 5.65137 33.9684 6.00136 33.5984C6.26136 33.6984 6.58135 33.6284 6.86134 33.6684C8.23131 33.8984 7.34133 33.7784 8.6213 33.7684C9.02129 33.7684 9.98127 33.9184 10.4613 33.7884C10.6313 33.7484 10.5613 33.7284 10.7812 33.6684C10.9212 33.6284 11.0512 33.6084 11.2112 33.5784C11.5512 33.4984 11.6712 33.3884 11.9312 33.3284L12.5312 33.2084C13.3412 32.9284 15.5211 32.8984 16.4311 32.9384C17.3111 32.9684 17.0911 33.1084 18.0511 33.3784C18.2311 33.4284 18.1011 33.3684 18.2411 33.4384L19.261 33.9584C19.711 33.9684 19.641 33.7284 20.091 33.9784C20.691 34.3184 19.971 34.3384 21.561 34.2684C21.961 34.2484 21.861 34.1884 22.081 34.1484C22.491 34.0884 22.571 34.3884 22.9809 34.0184C23.2509 34.2684 23.5309 34.2184 23.9109 34.2184C24.7709 34.2284 25.0409 34.4684 24.9609 33.8484C24.8709 33.2084 25.0509 33.0384 24.5909 32.7285L23.4509 31.9485L23.4409 31.8885C23.2509 31.7385 23.3009 31.7885 23.2509 31.5585V31.5085C22.9809 31.3085 23.1509 29.9585 23.1409 29.5785C23.1309 29.2285 23.1509 28.8585 23.1009 28.5186C23.0409 28.0386 22.9009 28.0286 22.8309 27.6786L22.8409 27.5786C22.771 27.4886 22.701 27.3786 22.631 27.2586C22.321 26.7386 22.381 27.1686 22.081 26.7186C21.911 26.4486 22.141 26.6586 21.791 26.4486C21.361 26.2186 21.001 25.7486 20.551 25.4686L19.111 24.7486C18.841 24.6187 18.3111 23.8887 17.9611 23.6787C17.4311 23.3587 17.2011 23.1187 16.9811 22.4787C16.8211 21.9887 16.7611 20.9087 16.8311 20.3888C16.8411 20.3388 17.1111 19.7288 17.1511 19.6488C17.3111 19.3188 17.6411 19.2688 17.7811 18.8888C17.8411 18.7388 17.7611 18.8588 17.8511 18.6988C17.9111 18.5988 17.9011 18.6388 17.9711 18.5688C18.0711 18.4488 18.0411 18.5188 18.0911 18.3788C18.1911 18.0888 18.1411 17.5988 18.1311 17.2788C18.1011 16.5289 17.7911 15.4789 18.4911 15.0489C18.6011 14.8689 18.6511 14.8089 18.831 14.7289C18.7411 14.2289 18.791 14.0389 19.111 13.6889C19.401 13.3789 19.131 13.0389 19.521 12.7089L19.511 12.5989C19.551 11.889 19.881 11.389 19.921 11.169C19.951 10.989 19.571 9.89901 19.571 9.63902L19.481 9.39903C19.331 9.22903 19.311 9.15903 19.191 8.99904C19.061 8.82904 18.941 8.80904 18.781 8.63905C18.5611 8.40905 18.6511 8.33905 18.5511 8.08906C18.4911 7.92906 18.3611 7.77907 18.3111 7.56907L18.1411 7.55907C18.1311 7.56907 18.1311 7.56907 18.1311 7.57907L18.0811 7.64907C18.0511 7.69907 18.1011 7.60907 18.0411 7.70907C17.8111 8.08906 17.9511 8.35905 17.7911 8.64905C17.7611 9.04904 17.5911 9.19903 17.3911 9.49902C17.2411 9.71902 17.2811 9.70902 17.2211 9.95901C17.1611 10.239 17.1311 10.219 17.0111 10.459C16.7611 10.849 16.5111 11.009 16.4311 11.209C16.3311 11.429 16.4011 11.409 16.3411 11.619C16.1611 11.769 16.1911 11.679 16.0911 11.749C15.6711 12.029 16.2211 12.089 15.3711 12.359C14.5412 12.6289 13.1412 13.0289 12.8512 11.799C12.7312 11.329 12.6112 10.749 12.5812 10.249L12.5912 10.199C12.4312 9.99901 12.4412 9.96901 12.3112 9.73902V9.69902L11.8012 9.24903L11.7312 9.19903C11.4812 9.16903 11.3112 9.05904 11.2212 8.81904C10.9712 8.63905 10.7312 8.06906 10.7712 7.76907C10.8312 7.24908 10.6113 6.76909 10.8312 6.4491C10.7712 5.90911 10.7912 5.17913 10.8012 4.62914C10.8212 3.66917 10.7612 3.27918 11.2912 3.21918C11.2912 2.83919 11.3912 2.4992 11.2812 2.12921C10.5413 1.83921 9.78127 2.2792 9.63128 1.92921C9.24128 1.93921 8.4913 1.65922 8.18131 1.37922L8.15131 1.39922C7.79132 1.41922 8.01132 1.42922 7.97132 1.32923L7.82132 1.37922L7.78132 1.25923C7.26133 1.36923 6.91134 0.989234 6.73135 0.529246C6.12136 0.159255 6.38136 0.029258 5.89137 0.319251C5.33138 0.659242 5.75137 0.619243 5.37138 0.699241Z"
            fill="#9DD3AF" />
        <path fill-rule="evenodd" clip-rule="evenodd" class="state-map-path" id="ogun_state_hj2fZYTiv"
            d="M64.6499 41.1282C64.4999 41.1682 64.3399 41.1882 64.2199 41.1582C64.1799 41.1382 64.2199 41.1482 64.1599 41.1282L63.7799 40.9982C63.7699 40.8983 63.7099 40.3483 63.6599 40.2683C63.5199 40.0483 63.5699 40.3183 63.4899 39.9183C63.3799 39.3683 63.3699 36.9983 63.1699 36.1484C62.09 31.5685 60.12 32.0985 54.8102 32.7785C54.5402 32.8085 54.6202 32.8784 54.4102 32.8784C54.0702 32.8684 53.7602 32.7685 53.5102 32.8584C53.1902 32.9884 53.2202 33.3284 53.0502 33.5284C52.9602 33.6384 52.9002 33.6284 52.7602 33.8084L52.0202 34.7784C51.8602 34.9184 51.8302 34.8884 51.6802 35.0284C51.5902 35.1084 51.5002 35.2684 51.4002 35.3084C51.2102 35.4084 51.1902 35.2984 50.9502 35.4484C50.5803 35.6884 49.9403 35.6784 49.5003 35.5584C49.0303 35.4384 48.5103 34.7984 48.4903 34.2884C48.4803 33.9684 48.6503 33.5084 48.5203 33.2084L48.0603 32.7085C48.0403 32.6985 47.8703 32.6285 47.8603 32.6285C47.6503 32.5785 47.3003 32.7085 47.2003 32.2485L47.6503 32.1285C47.8203 31.4185 46.9903 31.7685 47.4303 31.1085C47.5603 30.9185 47.6603 30.2985 47.5203 30.0685C47.2103 29.8385 46.8904 29.9785 46.6404 30.2385C46.4104 30.4785 46.3104 30.4985 46.0504 30.6685L45.5204 31.1785C45.3004 31.2985 45.5304 31.0685 45.3604 31.2485C45.1804 31.4485 45.4204 31.2485 45.2804 31.4485C45.1904 31.5885 45.0604 31.5485 44.9504 31.7785L44.6904 32.1085L44.7604 32.3185H44.5904C44.5904 32.3685 44.6004 32.5285 44.5904 32.5785C44.5804 32.5885 44.5704 32.6085 44.5704 32.6185L44.4204 32.7285C44.4304 33.2484 44.2804 34.0384 44.2804 34.7784C44.2704 35.4084 43.6504 36.0384 43.8504 36.3384L43.2604 36.5084C42.4705 36.6384 42.1005 36.7584 42.0705 37.6283C40.7505 38.3983 42.0405 39.2183 40.9205 39.7483L40.3805 40.0383C40.0705 40.1483 40.0105 40.0483 39.6505 40.2383C39.2805 40.4383 38.4006 40.3383 37.9506 40.3483C37.4206 39.5083 37.3606 40.3983 36.4506 38.9783C36.2206 38.6283 35.7906 38.1283 35.4606 37.8683C35.2806 37.7383 35.2006 37.6783 35.0406 37.5183C34.1807 36.6784 35.3206 36.9783 32.9707 36.7684C32.5307 36.7284 30.4908 36.7484 30.1308 36.8484C30.0508 37.1883 30.5108 37.2283 30.7108 37.4383L30.9507 37.6483C31.1807 37.8583 31.1107 37.9683 31.3707 38.1183C31.6107 38.2683 31.6007 38.2183 31.8707 38.4683C31.9107 39.0883 32.2807 39.2283 32.4907 39.7483C32.5507 39.8983 32.5007 39.8883 32.6207 40.0683C32.8707 40.4083 33.0907 40.8483 33.3807 41.1682C33.6307 41.4382 33.3907 41.0982 33.5807 41.2882C33.6907 41.3982 33.5907 41.3882 33.7807 41.5282C34.7607 42.2782 33.9907 42.4582 36.0906 42.5182C36.3706 42.5282 36.6306 42.6182 36.9206 42.6182C38.3206 42.6282 38.3506 42.6582 39.4905 43.1682C39.6605 43.2382 39.7305 43.2182 39.8705 43.2882C40.0205 43.3682 40.3005 43.6482 40.7105 43.8382C40.8905 43.9282 40.9305 43.8982 41.1305 43.9282C41.3405 44.1782 41.5705 44.3082 41.7205 44.5382L42.0405 44.8582C42.2205 45.0281 42.2605 45.0281 42.5005 45.0381C42.6405 45.4981 43.3804 45.8381 43.4604 46.4981C43.7404 46.4581 43.6304 46.5581 43.8904 46.6381L44.4404 47.2981L44.2504 47.3681C44.3904 47.4981 44.5104 47.5181 44.6004 47.6481C44.7204 47.8281 44.6404 47.8281 44.8604 48.0381C45.2404 48.4181 45.2204 48.3781 45.2604 48.9581L45.5504 49.128C45.6904 49.238 45.7704 49.308 45.8904 49.428C46.1604 49.688 46.4704 49.718 46.6004 49.918L47.3003 49.908C47.4703 49.708 47.6803 49.818 47.9003 49.688C48.2103 49.488 47.9803 49.448 48.3603 49.488C48.3803 49.468 48.4003 49.428 48.4103 49.438C48.4603 49.528 48.4703 49.358 48.4803 49.348C48.4903 49.318 48.5203 49.278 48.5503 49.238C48.7903 49.228 50.6203 48.9781 50.7503 49.178C50.7603 49.178 50.7603 49.198 50.7703 49.218C51.2602 49.108 53.1202 49.108 53.8302 49.078C54.3902 49.0681 54.2402 49.138 54.5302 49.178C54.7002 49.188 54.6802 49.148 54.8102 49.128C55.3001 49.048 55.8801 49.118 56.3801 49.078C56.9901 49.0281 56.4201 48.7981 57.7301 49.078C58.0101 49.138 58.0201 49.0581 58.2301 49.0281C58.5101 48.9981 58.4901 49.088 58.7301 49.0681C58.9601 49.0581 58.8701 48.9681 59.13 49.038C59.8 49.208 59.97 48.9981 60.59 49.0681C61.17 49.138 62.51 48.9081 63.2499 48.9581C63.5699 48.9881 63.3199 49.048 63.6899 49.078C64.0099 49.098 64.5099 49.048 64.8399 49.048C66.1199 49.0181 65.0299 48.6981 66.6799 48.5981L67.0099 47.6681C67.2498 47.3481 67.0199 46.8181 66.8999 46.5281C66.8699 46.4481 66.7699 46.1281 66.7499 46.0381C66.5199 45.0581 64.5599 41.3582 64.6499 41.1282Z"
            fill="#F6AFCE" />
        <path fill-rule="evenodd" clip-rule="evenodd" class="state-map-path" id="ogun_state_LzEFvEqiT"
            d="M58.1501 61.5977C58.0701 61.4277 58.0601 61.4777 58.2401 61.5077L58.4701 61.3477C58.1101 61.0577 59.0201 60.3778 59.43 60.3878L59.48 60.2978C59.75 58.5078 60.13 57.1778 61.71 56.5079C61.79 56.4779 61.91 56.3979 61.99 56.3579C62.54 56.0679 62.63 55.7779 62.94 55.5879C63.16 55.4579 63.3699 55.5179 63.5299 55.3479C63.5699 55.3079 63.8599 54.9079 63.8999 54.8479C64.0199 54.6579 64.0799 54.4779 64.1599 54.2979C64.4899 53.4979 64.4299 53.9079 64.3399 53.1679C64.2999 52.838 64.3199 53.0979 64.3699 52.9479C64.4299 52.738 64.4599 52.428 64.5599 52.298C64.8099 51.948 65.3599 51.798 65.7399 51.718C66.0399 51.658 66.0399 51.608 66.3099 51.458C66.5899 51.308 66.4899 51.218 66.7399 51.018C67.1898 50.648 67.2698 51.108 67.7998 50.478C67.7498 50.218 67.8098 50.258 67.7998 50.078C67.7898 49.888 67.7498 50.018 67.6698 49.768C67.4698 49.778 67.3098 49.728 67.0299 49.728C66.7699 49.728 65.9099 49.838 65.7499 49.948C65.1399 50.368 64.4999 50.118 63.8499 50.058C63.3799 50.018 62.83 50.038 62.35 49.978C61.54 49.878 60.15 50.018 59.26 50.008C58.7601 50.008 58.4001 49.908 57.8601 49.928C57.3301 49.948 56.8001 49.958 56.2701 49.968C55.8501 49.978 55.1401 49.958 54.7502 50.008C54.0002 50.108 54.1602 50.138 53.2802 50.148C52.8002 50.168 52.2602 50.218 51.7902 50.158C51.5902 50.138 50.5903 49.988 50.4803 50.038C49.9903 50.258 48.6403 50.708 48.0803 50.788C46.6904 50.988 46.0404 50.528 45.2704 50.598C44.6104 51.428 44.1104 51.238 43.8704 51.448C43.7404 51.558 43.9504 51.458 43.7404 51.578C43.5204 51.688 43.2504 51.648 43.0204 51.768C42.5605 52.008 41.8805 52.488 41.3705 52.448C40.9805 52.408 40.7405 52.368 40.3705 52.488C40.2005 52.538 39.7905 52.758 39.6405 52.8879C39.3105 53.1679 39.0105 52.9879 38.7706 53.1779C38.6506 53.2779 38.6106 53.4379 38.5506 53.5279C38.1106 54.1579 38.1706 53.7879 38.1606 54.7979C38.1506 55.1379 38.0906 55.4179 37.9606 55.7479C37.5306 56.8079 37.7406 56.6079 37.7806 57.6678C37.8106 58.5878 37.7306 59.5578 37.9106 60.4578C37.9706 60.7578 37.9706 60.6678 38.2006 60.7878C38.2606 61.5977 38.3606 61.7377 38.3706 61.9177C38.4106 62.5077 38.5206 63.0777 38.7206 63.5777L39.7305 65.8376C39.7905 65.9076 39.8205 65.9176 39.8805 66.0076C40.0305 66.2176 40.2605 66.3376 40.4005 66.5076L40.6205 66.9376C40.8605 67.3476 41.2705 67.6476 41.6005 67.9876L41.7905 68.2476C42.1105 68.4276 42.2305 68.7076 42.5705 68.9276C42.7405 69.0275 42.8705 69.1875 43.0104 69.2475C43.3404 69.3875 43.2104 69.3175 43.4904 69.5275C44.0604 69.9675 44.4104 70.7275 44.7104 71.3975C44.9604 71.9375 44.9604 73.5274 44.8704 74.2274C44.8104 74.7174 44.8104 74.5174 44.6804 74.8074C44.5404 75.0874 44.5404 76.7874 44.6304 76.9774C44.7604 77.1074 44.8304 77.1973 44.9904 77.2873C45.4104 77.5273 45.1604 77.3773 45.3404 77.7073C45.4604 77.8173 46.1604 78.0073 46.3604 77.9973C46.5604 77.9873 46.6604 77.9473 46.7704 77.7973C46.7704 77.7773 46.7804 77.7673 46.7904 77.7573C46.9604 77.4873 47.0803 77.5273 47.1603 77.4173C47.2703 77.2673 47.6003 75.8374 47.5903 75.5174C47.6103 75.5074 47.7103 75.4574 47.7103 75.4574C48.0103 75.2774 47.8503 74.3274 47.9403 73.9874L48.1103 73.4074C48.1803 73.1974 48.3703 73.1474 48.4603 72.9975C48.5403 72.8875 48.6103 72.5875 48.6303 72.4075C48.6903 72.0575 48.8103 71.9275 48.9303 71.6575C49.0703 71.3575 49.2903 70.9275 49.4403 70.6475L49.1403 70.3675C49.1503 69.6375 49.7303 69.7275 50.0503 69.2375C50.3003 68.8476 49.8803 68.8776 50.0703 68.6176C50.0703 68.6076 50.3503 68.1876 50.6203 68.1476C50.6703 68.1376 51.4302 68.3576 51.6102 68.0976C51.7102 67.7576 51.5402 67.5476 51.6702 67.2276C51.7802 67.1876 51.5902 67.1176 51.8602 67.2076C52.0602 67.2776 52.0902 67.5176 52.2902 67.5876C52.5302 67.6776 53.0002 67.4376 53.1402 67.2376L53.2402 67.0276C53.2402 67.0176 53.2502 66.9976 53.2602 66.9876L53.4102 66.5776C53.6802 66.6076 53.5602 66.6276 53.7902 66.7276C53.8702 66.6576 54.3602 66.1976 54.4002 66.1476C54.6702 65.7776 54.4002 65.4376 55.1101 65.0776C55.4301 64.9177 55.1801 64.9377 55.5701 64.9177C55.6601 64.9177 56.1201 64.4877 56.2201 64.4177C56.5401 64.1777 56.3001 63.8077 56.4701 63.4777C56.5301 63.3577 56.6001 63.2877 56.6601 63.1277C57.0001 62.2677 57.1701 62.4177 57.5801 61.8677C57.6401 61.7777 57.5201 61.8977 57.6301 61.7877C57.7801 61.6377 58.0201 61.5977 58.1501 61.5977Z"
            fill="#FDD1A1" />
        <path fill-rule="evenodd" clip-rule="evenodd" class="state-map-path" id="ogun_state_ZA2Gq57yH"
            d="M112.679 87.1071L112.709 87.0971C112.579 86.9871 112.629 87.0771 112.529 86.8471L112.369 86.2971C112.359 86.2571 112.289 86.1171 112.269 86.0771C112.169 85.8571 112.159 85.7671 112.089 85.5571C111.909 85.0072 111.139 83.7172 110.999 83.1672C110.729 83.0772 110.299 82.9172 109.989 82.7972C109.589 82.6372 109.159 82.9772 108.899 82.6572L108.839 82.6772C108.419 82.6872 107.999 82.5172 107.669 82.2472C106.979 81.6772 106.959 81.9072 106.699 81.6172C106.199 81.5572 106.569 81.4073 105.929 81.3973L105.939 81.4672C105.619 81.3673 105.789 81.4572 105.579 81.5372C105.409 81.6072 105.409 81.5472 105.229 81.6472C104.839 81.8472 104.959 81.8372 104.449 81.8272V81.7872C104.459 81.6072 104.609 81.9272 104.459 81.7172C104.339 81.5472 103.739 81.7572 103.729 81.7572C103.259 81.8572 103.319 81.5072 102.709 81.8372C102.479 81.9672 102.479 81.9472 102.239 82.0072C102.129 82.0272 102.099 82.0372 101.999 82.0872L100.669 82.8972C100.459 83.0972 100.529 82.9572 100.299 83.1072C100.049 83.2672 100.299 83.2372 99.879 83.3272C99.3991 83.4272 99.749 83.3372 99.4891 83.5072L98.1991 84.0772C98.1391 84.1272 98.0691 84.1672 97.9991 84.1972C97.5691 84.3872 97.8991 84.3472 97.6691 84.6272C97.5991 84.7072 97.5591 84.6372 97.4391 84.8572C97.3091 85.1372 97.4991 85.1172 97.2091 85.3672C97.2091 85.6971 97.2391 85.6571 97.2791 85.9071C97.3191 86.1571 97.2291 86.1171 97.2691 86.3771C97.3391 86.7771 97.4691 86.8371 97.3491 87.3271C97.2391 87.7571 96.8191 88.2871 96.4691 88.5571L95.9191 88.5871L95.8791 88.5571C95.7291 88.7071 95.3992 88.7671 95.1892 88.9171C95.0292 89.0471 94.8192 89.2771 94.6892 89.3671C94.5592 89.4571 94.4492 89.4671 94.3292 89.537C93.9992 89.737 93.3192 90.317 93.9192 90.627L95.5691 91.447C96.8091 91.707 96.5291 91.677 96.8891 92.077C97.0891 92.297 97.6291 92.627 97.7191 92.717C97.8791 92.867 98.0491 93.087 98.2591 93.137C98.3991 93.167 98.6491 93.167 98.7391 93.047L98.7891 92.967C98.8191 92.937 98.8491 92.897 98.8791 92.867C99.3991 92.417 99.849 92.357 100.489 92.617C100.499 92.627 100.519 92.627 100.539 92.637C100.919 92.807 100.459 92.547 100.659 92.707C101.239 93.157 101.219 93.417 102.049 93.167C102.319 93.087 103.769 92.987 104.289 93.177L104.869 93.357C104.889 93.357 104.899 93.367 104.919 93.367C105.899 93.7069 106.029 94.4869 106.119 95.3669C106.319 97.5469 105.969 97.0269 107.059 97.7068C107.469 97.9568 107.839 97.9268 108.359 98.0068C109.239 98.1468 109.259 98.3068 109.509 98.3968C109.719 98.4668 109.929 98.4368 110.169 98.5568C111.339 99.0968 110.999 98.8368 111.969 99.1468C112.229 99.2268 112.689 99.2568 112.939 99.0168L113.109 98.8168C113.749 98.1468 114.969 98.4668 115.829 98.4568C116.259 98.8968 116.739 98.9968 116.869 99.5868L116.839 99.5768C116.959 99.6568 116.879 99.4968 117.029 99.7568L117.209 100.407C117.539 101.097 118.229 101.787 119.029 101.807C119.669 101.827 120.189 101.737 120.659 101.267C120.959 100.977 121.149 100.587 121.219 100.197C121.249 100.037 121.269 99.9068 121.269 99.7368C121.259 99.1768 120.809 98.8168 120.719 98.5668C120.639 98.3568 120.729 98.3768 120.539 98.2468C120.369 98.1368 120.249 98.1768 120.119 98.0668C119.959 97.9468 120.079 97.9468 119.919 97.7768C119.509 97.3569 117.989 97.0869 117.419 97.0369C115.889 96.9069 116.879 96.6169 115.839 96.5069C115.299 97.1369 115.069 97.3069 114.149 97.1069C113.959 97.0669 113.439 96.7869 113.459 96.4269C113.559 96.1169 113.819 95.5669 114.119 95.3669C115.009 94.7669 115.819 95.7769 116.869 95.0569C117.119 94.8869 117.369 94.3669 117.509 94.0469C117.749 93.527 118.299 92.717 118.599 92.167C118.689 91.997 118.629 92.167 118.669 91.857C118.709 91.577 118.789 91.487 118.789 91.147C118.789 90.867 118.759 90.587 118.749 90.317C118.719 89.547 118.989 89.717 119.219 89.2171C119.729 89.1171 119.539 89.0771 119.849 88.9571C120.109 89.1371 119.919 89.1171 120.279 89.1571C120.349 89.4871 120.399 89.3871 120.609 89.637L121.049 89.627L120.959 88.9371L120.799 88.9871C120.749 88.7071 120.709 88.7371 120.529 88.4971C120.299 88.2371 120.019 87.0471 120.029 86.6471C120.049 85.9971 120.309 85.4672 120.229 84.8372C120.179 84.4772 120.369 84.3672 120.489 84.0972C120.659 83.7272 120.459 81.5272 120.189 81.3473C119.919 81.2773 119.369 81.2673 119.159 81.4672C119.079 81.5472 119.049 81.6872 118.939 81.8172C118.859 81.9172 118.749 82.0072 118.669 82.1172C118.319 82.5372 118.159 83.0272 117.799 83.4572C117.279 84.0872 117.389 84.5172 117.059 84.9972C116.699 85.5171 116.369 85.7171 116.219 86.3671C116.089 86.9171 115.619 87.5771 115.579 87.9771C115.509 88.5471 115.529 89.2971 114.829 89.4271C113.639 89.647 112.749 88.0871 112.679 87.1071Z"
            fill="#D2E28B" />
        <path fill-rule="evenodd" clip-rule="evenodd" class="state-map-path" id="ogun_state_KZCW2mwOT"
            d="M35.0406 78.8173C35.0206 78.5773 35.0306 78.5373 35.2906 78.5673C35.3306 78.3673 35.1406 78.5673 35.4206 78.3673C35.5006 78.3173 35.5506 78.3073 35.6006 78.2873C35.9206 78.0773 35.9706 78.0273 36.4306 78.0173L36.8506 77.6873C36.8906 76.8774 36.6206 76.5674 36.1106 75.9874C35.7706 75.5974 35.9006 75.8674 35.4106 75.6774C35.2906 75.6274 35.1806 75.5574 35.0806 75.4974C34.6806 75.2674 34.7006 75.4474 34.3806 75.4974C34.0606 75.5374 33.7507 75.5574 33.4207 75.6074C32.8407 75.6874 32.3207 75.8374 31.7107 75.8974C31.0507 75.9574 25.7209 76.1474 25.0209 75.8274C24.8009 75.7274 24.9909 75.7074 24.7409 75.6074C24.5309 75.5174 24.5109 75.6274 24.3509 75.5174C23.9309 75.5174 23.8609 75.5574 23.4809 75.4174C23.1509 75.2874 22.9809 75.3374 22.6309 75.3574C22.4309 75.6274 22.0509 75.7274 21.821 75.8874C21.821 76.5374 21.861 76.1474 21.591 76.5274C21.451 76.7274 21.531 76.7174 21.451 76.8974C21.391 77.0673 21.181 77.3973 21.141 77.5273C21.061 77.7773 21.201 77.6873 21.011 77.9073C20.651 78.3273 20.581 78.5773 20.451 78.7373C20.271 78.9873 20.381 78.7173 20.291 79.0973C20.201 79.4273 20.251 79.1973 20.141 79.3773L20.091 79.4573C20.021 79.6373 20.121 79.3973 20.071 79.5673C19.941 80.0273 19.461 80.2073 19.101 80.1873C18.391 80.1673 18.031 79.6973 17.6811 79.6673C17.4611 79.6573 16.9511 79.6873 16.7211 79.7173L15.3511 80.2873C15.2811 80.3273 14.9011 80.6473 14.8311 80.7173C13.6712 81.9072 14.2011 81.3572 13.9311 82.2372C13.8711 82.4272 13.8511 82.3372 13.8012 82.5372C13.9511 82.7372 14.0211 82.9072 14.1711 83.0672C14.3711 83.2872 14.2911 83.4672 14.3311 83.8172L14.6411 84.0472L14.6511 84.9972C14.3911 85.2671 14.4111 85.3871 14.2311 85.6171L13.6912 86.0971C13.5212 86.2171 12.1412 87.6171 11.9012 87.9971L11.5612 88.4771C11.0412 89.277 11.3912 88.7171 11.1912 89.367C11.1512 89.487 11.1012 89.617 11.0612 89.737C11.1112 89.827 11.1812 89.887 11.2212 89.957C11.2812 90.087 11.2812 90.427 11.7112 90.627C12.6912 91.077 12.2912 90.627 12.8012 90.537C13.1712 90.477 13.2112 90.597 13.4412 90.647C13.7812 90.707 13.6712 90.617 14.0711 90.757C14.6211 90.947 14.8911 90.617 15.4011 90.647C15.8111 90.657 16.4311 90.767 16.8111 90.757C17.3111 90.747 17.8311 90.707 18.341 90.707L22.8509 90.597C23.3109 90.647 23.7509 90.547 24.2609 90.557C24.5209 90.567 24.7609 90.527 25.0209 90.527C25.2909 90.527 25.4509 90.577 25.7209 90.577L27.9208 90.497C28.2808 90.417 28.2208 90.347 28.4208 90.227C29.0308 89.867 29.2608 89.967 29.9708 89.467C30.1307 89.357 30.3607 89.297 30.4907 89.207C31.1307 88.7571 31.0207 88.8071 31.1007 88.4871C31.2307 88.0271 31.6207 89.0971 31.3807 87.2371L31.2507 86.5371C31.0907 85.6271 31.3307 85.6971 31.4607 85.4071C31.5707 85.1671 31.5007 85.2571 31.6707 85.0572C32.5107 84.0472 32.3107 84.7372 32.7907 84.3772C32.9107 84.2872 32.7907 84.1972 33.2807 84.1672C33.4007 83.3572 33.5807 83.6672 33.8407 83.3872C34.2406 82.9572 33.7807 82.2372 33.9807 81.5972C34.0606 81.3572 34.0506 81.0772 34.0707 80.8073L34.5306 79.5773C34.6506 79.2873 34.6306 79.1473 34.7106 78.9373C35.0606 78.7973 34.7206 79.0573 34.8406 78.9473C34.9906 78.8173 34.6506 78.9173 35.0406 78.8173Z"
            fill="#9DD3AF" />
        <path fill-rule="evenodd" clip-rule="evenodd" class="state-map-path" id="ogun_state_OSZF55SpJ"
            d="M23.9609 74.8374L24.5509 74.8074L24.5909 74.4974C24.5309 74.4574 24.4209 74.4674 24.3709 74.2374C24.0209 72.6175 24.6409 73.3574 23.7409 71.7475C23.5809 71.4475 23.5409 71.2675 23.2909 70.9975C22.8509 70.5275 22.6409 69.8075 22.6309 69.1976C22.6309 68.7576 22.7709 68.0676 22.9509 67.7076C23.0709 67.4676 23.2509 67.5176 23.2609 67.4876C23.2609 67.4676 23.2909 67.4776 23.3009 67.4776C23.3809 67.2576 23.2109 67.2376 23.8509 66.8776C23.8509 66.6576 23.9409 66.4076 23.9309 66.2376C23.9309 66.0676 23.8509 65.9376 23.9809 65.6976C24.0909 65.4876 24.1409 65.3876 23.9909 65.1477C23.8009 64.8377 23.8809 65.0577 23.7709 64.6677C23.2409 64.4677 23.1109 63.8677 22.8109 63.3877L20.431 63.4177C20.181 63.8577 19.671 63.9277 19.491 64.1077C19.401 64.1977 19.491 64.1777 19.331 64.3177C19.151 64.4777 19.081 64.3777 18.571 64.8377L17.6811 65.6076C17.4411 65.8476 17.4911 65.7976 17.2111 65.9576C16.6711 66.2576 16.6611 66.0876 16.5111 66.4476C16.2511 66.4576 16.0111 66.4376 15.8211 66.5776C15.4411 66.8576 15.6211 66.6676 15.2811 66.7976C15.1511 66.8476 15.1711 66.8976 15.0411 66.9476C14.9311 66.9876 14.8311 66.9676 14.7211 67.0276C14.3411 67.2076 14.7411 67.3776 13.2012 67.7976C12.8812 67.8876 12.8912 67.9076 12.5412 67.9176C12.0112 67.9276 12.2712 67.9676 11.9312 68.0876C11.6712 68.1876 10.8812 68.1076 10.5612 68.2776C10.2712 68.4276 10.4812 68.5076 10.0412 68.4476C9.71125 68.4076 9.15126 68.3776 8.88127 68.6076C8.63128 68.8276 7.99129 68.9976 7.7513 69.2076C7.6013 69.3275 7.43131 69.4475 7.28131 69.5675C7.31131 69.8975 7.36131 70.1675 7.38131 70.5575C7.6913 70.7475 7.7913 71.0075 7.8313 71.3875L8.29129 73.5674C7.97129 73.9374 8.26129 74.1674 8.51128 74.5274C8.66128 74.7274 8.77127 74.7274 8.85127 74.9574L9.18126 76.2474C9.26126 76.4074 9.36126 76.4974 9.46126 76.7274L10.0912 78.4673C10.1512 78.7073 10.1412 78.8873 10.2112 79.1373C10.4012 79.7573 10.8212 79.9673 10.8012 80.7573C10.8012 81.2773 11.0512 81.5372 11.3012 81.8972C11.4012 82.0572 11.3512 82.2772 11.4912 82.5372C11.5112 82.5472 11.5312 82.5372 11.5412 82.5672C11.5912 82.6772 11.9712 82.6572 12.0412 82.6972C12.1912 82.7672 12.1912 82.8472 12.5212 82.9772C12.8812 83.1172 13.1112 83.4972 13.4512 83.5672C13.4412 83.1072 13.4912 82.8772 13.1912 82.5572C13.3112 81.9172 13.0312 81.6772 13.5912 81.2873C13.9011 81.0673 14.1311 80.5873 14.4411 80.3573C14.6211 80.2273 14.7811 80.1973 15.0011 80.0173C15.2611 79.8073 15.1911 79.7873 15.4811 79.6073C15.7111 79.4573 15.7511 79.3373 16.0411 79.2773C16.5911 79.1573 17.881 79.0473 18.341 79.3373C18.761 79.5973 19.081 79.9273 19.531 79.5373C19.731 79.3573 19.601 79.5973 19.701 79.2573L20.071 78.3173C20.351 77.9873 20.561 77.4973 20.821 77.2874C20.821 76.1874 20.941 76.6474 21.191 76.2074C21.351 75.9274 21.291 75.2674 22.0209 74.9574L22.2209 74.8374C22.4109 74.6874 22.4409 74.6974 22.7109 74.6974C22.9509 74.7074 23.0209 74.7774 23.2809 74.7574C23.5509 74.7374 23.5109 74.6774 23.8509 74.6774L23.9609 74.8374Z"
            fill="#91D8F7" />
        <path fill-rule="evenodd" clip-rule="evenodd" class="state-map-path" id="ogun_state_Or7k7tZA7"
            d="M0.291497 93.047C0.211499 93.357 0.641488 93.5369 0.921481 93.5769L1.13148 93.317C1.35147 93.6269 1.48147 93.6369 1.85146 93.7469L1.79146 93.9869C2.39144 94.0569 2.05145 94.3269 3.00143 94.1369C3.24142 94.0969 3.57142 94.1069 3.71141 94.0669C4.00141 93.9769 3.83141 93.8769 4.0514 93.6369L4.62139 93.6569C5.57137 92.677 6.45134 93.7069 6.91133 93.9069C7.20133 94.0269 7.17133 94.0869 7.48132 94.1069C7.86131 93.8669 7.71131 93.9869 8.0813 93.9269C8.52129 93.5169 8.88128 92.817 9.74126 92.657C10.5312 92.517 11.2112 92.937 11.1912 91.707C11.1712 90.877 11.0112 90.847 10.6612 90.677C10.6412 90.297 10.5112 89.967 10.5812 89.587C10.7012 89.0071 10.7312 89.1171 10.8812 88.6971C11.1212 88.0471 11.3012 87.8171 11.7812 87.2571C12.2012 86.7771 12.8112 86.1571 13.3212 85.7471C13.5112 85.6071 13.9412 84.8372 13.9612 84.6272L13.7012 84.5072C13.4912 84.4272 13.6512 84.4972 13.5212 84.4072C13.3112 84.2672 13.2912 84.3172 13.0912 84.1972C12.8612 84.0672 12.6112 83.8472 12.3912 83.6972C12.1112 83.5072 12.1512 83.6572 11.9112 83.5372C11.7012 83.4272 11.8512 83.3972 11.5212 83.2972C10.6312 83.0272 10.7312 82.9772 10.6712 82.2272C10.4512 82.0672 10.4812 82.0372 10.3612 81.8472C10.1713 81.5572 9.88126 80.6973 9.87126 80.3473C9.85126 79.7673 9.80126 79.7973 9.51127 79.3473C9.20128 78.8673 9.22128 78.9873 9.19128 78.3073L8.97128 77.4173C8.67129 77.1974 8.59129 76.3274 8.3913 75.8874C8.2713 75.6374 8.2113 75.7374 8.03131 75.5474L8.1513 75.1574C8.05131 75.0074 7.90131 74.7574 7.83131 74.6474C6.84134 73.2274 7.28132 73.2074 7.31132 72.8975L6.87133 71.9375C6.72134 71.6675 6.80134 70.8175 6.63134 70.6075C6.63134 70.5975 6.61134 70.5875 6.60134 70.5775L6.49134 70.4375C6.41135 70.3075 6.45134 70.3275 6.28135 70.2275C6.27135 70.2275 5.50137 70.2375 5.49137 70.2375C4.3814 70.4775 4.98138 70.4075 4.58139 70.2275C4.00141 70.1675 4.1514 70.1375 3.69141 69.9875C3.23142 69.8375 3.49142 69.6775 2.81143 69.6775C2.61144 69.9675 2.55144 69.8175 2.49144 70.1675C2.60144 70.3075 2.50144 70.3075 2.76144 70.3075C1.49147 70.6875 1.66146 71.9075 1.57147 72.9775C1.56147 73.2074 1.42147 73.3174 1.41147 73.6374C1.79146 73.7874 1.66146 73.8074 1.93146 74.0774C2.21145 74.0674 2.40144 73.9474 2.65144 74.0774C3.11143 74.3074 2.85143 74.5574 3.31142 74.6374C3.71141 74.6974 3.76141 74.8074 4.2514 74.8074C5.01138 74.7974 4.74139 75.2274 5.00138 75.5274C4.80139 75.8174 4.93138 76.2474 4.93138 76.7174C4.93138 77.1674 4.85138 77.5073 4.89138 77.9873C5.02138 79.3973 4.64139 80.0673 4.64139 80.3573C3.84141 80.7773 4.3514 81.3272 3.64141 80.9273C3.40142 81.0573 3.18143 81.1473 2.99143 81.3272C2.73144 81.5872 2.61144 81.5472 2.30145 81.6972L2.37145 82.0372C2.02145 82.4372 2.05145 82.2272 1.87146 82.3772C1.54147 82.6472 1.53147 82.9372 1.66146 83.2872C1.73146 83.4472 1.73146 83.5172 1.69146 83.6972C1.68146 83.7172 2.11145 86.9471 2.12145 86.9771C2.53144 87.7371 1.96146 87.5871 1.96146 88.2671C2.22145 88.2071 2.33145 88.2071 2.54144 88.0671C3.02143 88.8371 -1.43846 89.377 0.731486 93.287L0.511491 93.3869C0.421494 93.127 0.501492 93.187 0.291497 93.047Z"
            fill="#D2E28B" />
        <path fill-rule="evenodd" clip-rule="evenodd" class="state-map-path" id="ogun_state_YoJpG2vQ7"
            d="M27.9308 55.0179L27.8108 56.0079C27.9108 56.0779 27.8708 56.0379 27.9008 56.1879V56.9678C27.8408 57.2578 27.6708 57.4878 27.4308 57.5978C27.2608 57.8078 27.3508 57.8778 27.1208 58.0678C26.9308 58.2278 26.8108 58.1878 26.6709 58.3778C26.4409 58.6778 26.6209 58.6078 26.2409 58.7878C26.0509 58.8778 25.9009 58.9378 25.7109 59.0278C24.8809 59.3978 24.5309 59.7978 24.1209 60.6078C23.9809 60.8977 23.7609 61.5077 23.7509 61.7877C23.6209 63.9377 24.0309 63.6077 24.4109 64.3177C24.6409 64.7377 25.1409 65.1376 25.1709 65.4976C25.1909 65.8476 25.0909 65.7576 25.0409 65.8276L25.0009 67.0376C25.2109 67.0476 25.4209 67.0476 25.6309 67.0376C25.8709 67.0376 26.0609 66.9776 26.1809 67.1476L26.2009 67.1176C27.1908 67.0176 27.7608 67.4376 28.2408 67.6076L28.8008 67.9076L28.8808 67.8876C29.3108 67.9376 29.1508 68.0876 29.9608 68.0776C30.1208 68.4076 30.1908 68.2376 30.5408 68.3876C31.5207 68.8076 30.7807 68.3476 31.5407 68.7676L31.7607 68.8575C32.0007 68.9475 32.0807 69.0375 32.3307 69.1075C32.8007 69.2275 33.1107 69.4075 33.5907 69.5475C33.8707 69.6175 33.9507 69.6075 34.2307 69.7175C34.6607 69.8975 37.6206 69.8275 38.2506 69.8075C38.7606 69.7875 39.4105 69.7975 39.8805 69.6775C40.1005 69.6175 40.2605 69.4975 40.4805 69.4475C40.8805 69.3475 40.7805 69.4775 41.0305 69.1675C41.0305 69.1275 40.8505 68.9175 41.1105 68.8575C41.0705 68.6376 41.0905 68.7176 40.9705 68.5176C40.8805 68.3676 40.9005 68.3676 40.8205 68.2076L39.6305 66.7976C39.4405 66.6176 38.9705 65.7676 38.9405 65.6776C38.8306 65.3276 38.4206 65.0676 38.4106 64.4677L38.4206 64.4277C38.1406 64.1277 38.2206 64.0877 38.0906 63.6977C37.9906 63.3677 37.8506 63.2777 37.8506 62.8977L37.8806 62.8677C37.7806 62.7477 37.8306 62.8777 37.7506 62.6677C37.7506 62.6677 37.7206 62.5277 37.7206 62.5077C37.7006 62.3777 37.7006 62.2877 37.7106 62.1577C37.4706 62.0877 37.5206 61.9477 37.5706 61.7077C37.4406 61.5377 37.2206 60.5178 37.1806 60.2978C37.1106 59.8778 37.0906 60.2978 37.0506 59.8578C37.0406 59.7178 37.1506 58.8778 37.1206 58.1878C37.1106 57.8278 37.1906 58.0278 36.9406 57.8178C36.9106 57.2978 36.9806 56.9278 36.9706 56.4179C36.9406 55.2579 36.9106 56.0879 36.8706 55.5379C36.8606 55.3879 36.8706 55.3379 36.8906 55.2079C36.6106 55.2579 36.7706 55.2179 36.5406 55.3879C36.4006 55.3179 36.3306 55.2979 36.1106 55.3579C35.9206 55.3979 35.8606 55.4879 35.7606 55.5179C35.5306 55.5979 35.2306 55.5479 34.9306 55.6679C34.5107 55.8179 34.5807 55.7779 34.2107 55.6479C33.9407 55.5479 33.5907 55.5979 33.3007 55.6179C33.0507 55.9779 33.0407 55.8479 32.7107 56.0479C32.1107 56.4179 31.9807 56.2979 31.2807 56.1779C31.0907 56.1379 30.7208 56.0279 30.6008 55.9179C30.3908 55.7379 30.3208 55.5379 30.1808 55.3179C30.0308 55.0679 29.8208 55.1279 29.5508 54.9879C29.3008 54.8579 29.4308 54.9079 29.1908 54.9279C29.0508 54.9379 29.0308 54.9179 28.8308 54.9079C28.3708 54.8979 28.3208 54.9579 27.9308 55.0179Z"
            fill="#9DD3AF" />
        <path fill-rule="evenodd" clip-rule="evenodd" class="state-map-path" id="ogun_state_SieQjRBnJ"
            d="M37.7406 77.2874L37.7906 77.3374C37.7806 77.3274 37.7206 77.2974 37.7406 77.2874ZM24.4909 67.5876C24.2909 67.6576 24.2209 67.7276 24.0809 67.7876C23.2909 67.9076 23.1409 68.7876 23.2409 69.1176C23.5309 69.7975 23.5009 70.0075 23.8009 70.6975C24.0409 71.2575 24.8309 73.1575 24.7409 73.8674L25.1509 75.2874L25.9909 75.4674C26.7209 75.9974 28.5308 75.4474 29.6208 75.3674L32.3407 75.2974L33.7507 74.9974L34.4707 74.6674L35.3806 74.9274C35.6506 75.1674 35.5706 75.1774 35.9106 75.2274C36.3606 75.2974 36.2206 75.2974 36.4306 75.7574C36.8306 76.6374 37.8706 77.1174 37.9206 78.1373C38.2806 78.3673 38.3006 78.3673 38.7206 78.3373L38.9106 78.9673L39.0706 78.9873C40.1205 79.1573 39.3005 78.9673 40.1405 79.2373C41.0305 79.5173 41.3605 79.1473 42.4505 79.9673C42.7005 80.1573 43.1904 80.0373 43.2104 80.7373C43.3304 80.7073 43.3004 80.6873 43.2604 80.8073C43.8404 80.7373 43.8604 81.5372 45.2404 81.3273L46.6104 80.9973C46.7904 80.8873 47.1204 80.7973 47.2104 80.6473C47.3703 80.3773 47.1804 79.3473 47.1504 78.9973C46.9604 78.9973 46.6204 78.9473 46.4304 78.8773C45.8404 78.6473 45.8204 78.9073 45.3604 78.6073L44.4204 78.2173C44.3204 77.9873 44.3004 77.7373 44.1404 77.5373C43.9704 77.3174 44.0504 77.5073 43.9704 77.2574C43.4904 75.8874 44.0904 74.8574 44.1204 74.3774C44.1504 74.0474 44.1804 73.8174 44.2104 73.5274C44.2704 72.8675 44.0904 72.2575 44.1404 71.6775H44.1804C44.1804 71.3575 43.9404 71.0075 43.8204 70.7675C43.7104 70.5375 43.5004 70.2675 43.2704 70.0875C43.2304 70.0475 42.5305 69.6775 42.4805 69.6675C41.7805 69.4475 40.2305 70.2075 39.4005 70.2375C37.6406 70.3175 34.1407 70.7275 32.7907 69.7475C32.5807 69.5975 32.6007 69.6675 32.3907 69.5875L31.5407 69.2376C31.3607 69.1576 31.2407 69.2176 31.0307 69.1076L29.1708 68.5176C28.9008 68.2876 28.2708 68.1776 28.1308 68.1376C27.6408 67.9776 27.7508 67.7476 27.0508 67.6976C26.6009 67.6576 26.2009 67.5276 25.8209 67.4876C25.4909 67.4576 25.4609 67.5576 25.1909 67.6076C24.9509 67.6576 24.7609 67.5776 24.4909 67.5876ZM38.0206 77.0574L38.0606 77.0874C38.0506 77.0874 38.0106 77.0674 38.0206 77.0574Z"
            fill="#F6AFCE" />
        <path fill-rule="evenodd" clip-rule="evenodd" class="state-map-path" id="ogun_state_hHd65zTYT"
            d="M22.641 35.4584C22.751 35.2684 22.561 35.2584 23.1109 35.2384C23.5509 35.2384 23.3809 35.1684 23.6209 35.4284L22.641 35.4584ZM23.5209 35.2684L23.4009 35.2884L19.941 35.4484L19.701 35.7084C19.581 35.7884 19.291 35.8284 19.361 35.9484C19.741 36.5684 19.841 37.4583 20.301 38.0183C21.151 39.0383 21.691 40.4883 22.251 41.8182C22.731 42.9682 23.8409 43.0782 23.6409 44.3182C22.881 44.6182 24.5909 45.4881 25.1409 47.7181L25.3809 47.7981L25.9809 47.7581C27.1108 47.3081 26.8209 47.4081 28.1308 47.3781C29.1408 47.3681 29.4008 47.5481 30.3508 47.0981C31.3907 46.6081 31.9907 46.6881 33.0507 46.9081C33.3807 46.9781 33.5907 46.8381 34.2007 47.0181C34.5907 47.1381 34.3707 47.0681 34.7607 47.0281L34.9307 47.2081C35.3506 47.1981 36.6706 47.2381 36.9206 47.1181C37.0306 47.0781 37.0506 46.9781 37.2306 46.9281C37.4606 46.8581 37.4706 46.9481 37.7006 46.8181C38.1406 46.5681 38.0706 46.6281 38.6106 46.6181C38.9206 46.6081 39.3205 46.5281 39.5605 46.6081C39.9005 46.7081 40.9905 46.6281 41.5205 46.7581C41.8405 46.8381 42.2805 46.7581 42.6205 46.7581C42.6605 46.6881 42.6605 46.6481 42.6905 46.6081C42.7605 46.4881 42.7305 46.5581 42.7905 46.5181C42.7405 46.3581 42.7405 46.4081 42.6205 46.2681C42.3805 45.9881 42.4805 45.7681 42.0205 45.4681L41.2205 44.9382C40.7305 44.5982 39.8305 44.1082 39.4605 43.7882C38.9706 43.3582 39.5005 43.6782 38.7106 43.3382C38.5006 43.2482 37.8906 43.1882 37.6306 43.1682C37.2106 43.1382 37.3106 42.9182 36.6506 43.0482C36.2206 43.1382 35.3706 43.1182 34.9807 42.9582C34.4007 42.7182 34.9607 43.1182 34.1207 42.5482C33.9507 42.4382 34.0407 42.5782 33.9507 42.3882C33.8907 42.2582 33.9107 42.2482 33.9107 42.1082C33.7207 42.0182 33.1907 41.5682 33.0307 41.3982C32.7807 41.1282 32.9307 41.0282 32.7607 40.8383C31.9707 39.9583 32.1707 40.0283 31.7107 39.4583C31.6307 39.3483 31.4307 39.0883 31.3407 38.9983C30.9708 38.6283 31.2307 38.8783 31.0307 38.4783C30.8008 38.2883 30.7108 38.3183 30.4408 38.0483C29.8008 37.4183 30.1608 38.0183 29.4008 37.0583C29.2008 36.8084 29.0108 36.7484 28.9708 36.4584C28.8608 36.4984 28.8808 36.5184 28.9008 36.3984L28.8108 36.4484C28.6508 36.2984 28.6508 36.3484 28.4708 36.2084C28.3008 36.0684 28.2708 36.1084 28.1508 35.9484C27.8008 35.9584 27.4808 35.4684 27.0908 35.1784C26.9608 35.0784 26.8609 34.9684 26.7909 34.8684C26.2409 34.9084 26.4609 35.2984 25.3409 35.3584C25.1309 35.3684 23.6709 35.3284 23.5209 35.2684Z"
            fill="#91D8F7" />
        <path fill-rule="evenodd" clip-rule="evenodd" class="state-map-path" id="ogun_state_e8BU3Q999"
            d="M26.0209 48.4881L25.8109 48.7381C25.8509 49.008 25.8209 48.7481 25.8909 48.9881C25.9809 49.298 25.8909 48.9581 25.9209 49.128C25.9209 49.138 25.9409 49.228 25.9409 49.248C25.8609 49.328 25.9009 49.258 25.7709 49.298C25.7809 49.588 25.7809 49.428 25.8509 49.618L25.9809 49.938C26.2909 50.478 26.8508 50.858 27.2508 51.338C27.5608 51.698 27.5708 52.268 27.7008 52.698C27.7508 52.878 27.8608 53.2579 27.8908 53.4179C27.9408 53.6979 27.8608 53.9179 27.8508 54.1879C27.9608 54.2579 27.9808 54.0579 27.9308 54.3579C28.3708 54.2879 29.3008 54.3079 29.6508 54.4979C29.8108 54.5779 29.6508 54.5679 29.9308 54.6679C30.1408 54.7379 30.0708 54.6979 30.2908 54.8079C30.6808 55.0179 30.5408 55.0079 30.8007 55.3179C31.1607 55.7479 31.7007 55.8779 32.2307 55.6479C32.7307 55.4379 32.8707 55.0479 33.5407 54.9879C34.2507 54.9379 34.6607 55.2979 35.2006 55.0679C35.4706 54.9579 35.7506 54.9879 35.9906 54.8879C36.1906 54.8179 36.4306 54.6079 36.6506 54.5179L37.8206 53.7079C38.2606 53.2879 37.9606 53.3679 38.2006 53.1379C38.4006 52.948 38.3606 53.1279 38.5306 52.768L38.6306 52.548C39.3805 52.528 39.1905 52.448 39.4605 52.288C39.6405 52.178 40.0905 52.138 40.3905 52.058C41.2405 51.808 41.4505 52.188 42.2105 51.728C42.8205 51.358 43.2404 51.358 43.7604 51.028C43.9004 50.938 43.9304 50.848 44.0404 50.798C44.3004 50.678 44.1804 50.888 44.4404 50.618C44.7304 50.308 44.6404 50.208 44.8004 49.858C45.3804 49.788 45.0804 49.578 44.6304 49.208C44.6604 48.8681 44.4904 48.8581 44.3904 48.6581C44.3004 48.4781 44.3704 48.5081 44.2504 48.3481L43.5704 47.6981C43.4704 47.6581 43.3504 47.6681 43.2004 47.6281C42.9904 47.5681 43.0804 47.5381 42.8905 47.5181C41.9805 47.3981 40.7805 47.7081 40.3005 47.6081C40.0705 47.5681 40.2705 47.5181 40.0005 47.5281C39.8705 47.5381 39.7605 47.5581 39.5905 47.5581L39.4805 47.3781C39.0405 47.7281 39.2605 47.6781 38.7706 47.4581C38.6406 47.3981 38.3906 47.4181 38.2106 47.3981C37.7706 47.3481 38.2506 47.4081 37.3606 47.7481C37.0106 47.8781 36.7406 47.9881 36.2906 47.9881C36.0406 47.9881 35.9306 47.9481 35.7206 47.9381C35.5106 47.9281 35.2806 47.9581 35.0806 47.9481C34.6507 47.9381 34.8906 47.7481 34.0607 47.7481C33.4807 47.7581 33.4607 47.7081 32.9607 47.5681C32.7607 47.5181 32.7407 47.5781 32.5107 47.6281C32.0207 47.7081 32.4107 47.4281 31.4407 47.4881C31.1707 47.5081 31.1407 47.5081 31.0207 47.7381C30.8207 47.7481 30.5708 47.7781 30.3808 47.8281C29.7808 47.9981 30.4908 48.1181 28.5308 48.1081C26.1909 48.0981 26.8208 48.3981 26.0209 48.4881Z"
            fill="#D2E28B" />
        <path fill-rule="evenodd" clip-rule="evenodd" class="state-map-path" id="ogun_state_J9d10yp2f"
            d="M58.1801 64.9177C58.2701 64.9877 58.2701 64.8477 58.2501 65.1077C58.3801 65.1677 58.3301 65.1377 58.3201 65.3476C58.3101 65.6076 58.4701 66.2676 58.6201 66.4776C58.7101 66.5976 59.21 66.9976 59.36 67.1376C60.06 67.7876 59.68 67.4176 60.18 67.7776L60.95 68.4176C61.75 68.9376 61.54 69.0176 62.04 69.3475C62.05 69.3575 62.07 69.3675 62.08 69.3675L62.76 69.8375C63.0399 70.0775 62.9799 69.9575 63.1899 70.1675L63.7399 70.6375C63.9199 70.7575 63.9799 70.7175 64.1699 70.8875C64.9299 70.5875 64.7899 70.3575 65.0499 70.0775C65.1299 69.9975 65.2299 69.9275 65.2799 69.8075C65.4199 69.5175 66.0499 69.0876 66.0599 68.8076C66.0599 68.6776 66.1799 68.4576 66.1999 68.3276C66.2199 68.1976 66.5699 67.5576 66.6399 67.2876C67.0798 66.6976 66.8099 66.0576 66.8399 65.7476V65.1777C67.1698 63.8877 65.9399 62.8177 65.2999 62.1377L64.7799 61.5177C64.7799 61.5077 64.7599 61.4977 64.7499 61.4877L64.3799 61.1678C63.6699 60.5178 63.6099 60.3778 62.9599 59.6378C62.81 59.4578 62.54 59.2078 62.34 59.1078C61.61 58.7678 62.14 58.4378 61.67 58.0578C61.48 57.9078 61.57 57.9178 61.31 57.9178C60.67 58.2578 60.81 58.2278 60.71 58.6878C60.61 59.1278 60.07 59.1378 60.06 59.7378C60.04 60.8178 60.03 60.3178 59.4 60.8078C59.23 60.9478 59.17 61.0978 58.97 61.2677C58.7301 61.4777 58.7501 61.5677 58.7401 61.8977C58.8201 61.9477 58.7801 61.9177 58.85 61.9777C59.38 62.4377 58.4201 62.8877 57.7701 62.5577C57.2801 63.1577 58.2201 64.3477 58.1801 64.9177Z"
            fill="#F6AFCE" />
        <path fill-rule="evenodd" clip-rule="evenodd" class="state-map-path" id="ogun_state_BdTgkHN6f"
            d="M23.2509 31.5085C23.2409 30.9285 23.1409 29.8585 23.2109 29.3385C23.2909 28.8085 23.2009 28.0086 22.8309 27.6786C22.9009 28.0286 23.0409 28.0386 23.1009 28.5186C23.1509 28.8585 23.1309 29.2285 23.1409 29.5785C23.1509 29.9585 22.9809 31.3085 23.2509 31.5085Z"
            fill="#A8CF45" />
        <path fill-rule="evenodd" clip-rule="evenodd" class="state-map-path" id="ogun_state_XZeKBccNh"
            d="M23.4409 31.8885L23.4509 31.7585C23.3709 31.6885 23.4509 31.7585 23.3509 31.6585C23.3009 31.6085 23.3109 31.6185 23.2509 31.5585C23.3009 31.7885 23.2509 31.7385 23.4409 31.8885Z"
            fill="#A8CF45" />
        <path fill-rule="evenodd" clip-rule="evenodd" class="state-map-path" id="ogun_state_hBx0CTfvB"
            d="M85.0894 68.5876C84.7694 68.5976 84.2694 68.4476 83.9794 68.3676C83.6094 68.2776 83.5594 68.1276 83.1394 68.0476C82.3195 67.8976 82.4295 68.5976 82.0295 69.1376C81.8195 69.4275 81.7295 69.5675 81.6495 69.9075C81.5695 70.1875 81.5495 70.6375 81.4495 70.8575C81.2995 71.1875 81.1395 71.0675 81.0095 71.5775C80.9595 71.7875 80.8295 72.3575 80.8295 72.5475C81.5195 73.2175 81.9095 72.6475 82.5495 72.9775C82.8594 73.1375 82.7095 73.3575 83.0494 73.5774C83.3894 73.7874 83.5694 73.6274 83.5894 74.1874C83.5994 74.4974 83.2294 74.5474 83.1594 74.9874C83.9494 75.8774 85.6694 74.4374 86.4894 75.8474C86.6394 76.1074 86.7294 76.2574 86.8293 76.5174C87.0393 77.0774 87.0893 76.7574 87.3393 77.1074C87.4193 77.2274 87.5893 77.5873 87.6993 77.7773C88.3293 78.8373 88.7593 77.2174 88.8293 80.1173C88.8593 81.2573 86.9593 80.9373 86.9093 82.1872C86.8793 82.9472 86.7294 83.1572 86.9693 83.7972C87.1493 84.2972 86.8993 85.0772 87.4893 85.3372C87.8593 85.4972 88.0493 85.4172 88.4693 85.6471C88.8093 85.8271 88.9293 86.1371 89.2693 86.2271C89.5993 85.7571 88.9693 86.1871 89.8593 85.3772C90.1793 85.0772 90.4793 84.9872 90.8593 84.7972C92.4192 84.0172 92.0192 83.5872 92.5392 83.3672C93.3692 83.0272 94.0792 83.4872 94.6392 83.9472C94.9691 84.2272 95.4191 84.1272 95.8891 84.2372C96.3991 84.3572 96.5291 84.6972 96.9291 84.7672C97.0991 84.6272 97.3691 84.1272 97.4291 83.8872C97.5191 83.4872 98.0291 83.7172 98.4791 83.3972C98.8291 83.1572 99.179 83.1672 99.589 82.9472C99.889 82.7772 99.929 82.7072 100.189 82.5272C100.809 82.0972 101.479 81.8272 102.159 81.4473C102.649 81.1873 103.019 81.3073 103.519 81.2973C103.699 81.2973 104.039 81.1773 104.219 81.1673C104.589 81.1573 104.509 81.2873 104.929 81.1273C105.989 80.7173 106.239 80.9273 106.119 79.9373L105.339 79.9573C105.509 79.4673 105.539 79.9273 105.509 79.5673C105.499 79.4173 105.289 79.2673 105.509 79.1573C105.699 79.0573 105.599 79.2773 105.929 79.1873C106.199 79.1173 106.069 79.0273 106.229 78.7873C106.419 78.5273 106.759 78.4773 106.839 78.0873C107.019 77.2674 106.269 76.5074 106.659 75.8074C106.849 75.4574 106.979 75.3874 107.139 74.9574C107.389 74.2974 108.409 74.1274 108.329 73.3275L108.229 72.6775C108.529 72.4875 108.599 72.4475 108.839 72.1775C109.039 71.9575 109.169 71.8475 109.479 71.7275C110.209 71.4375 110.849 70.8875 111.499 70.4675C112.309 69.9275 113.159 69.5575 113.919 68.9576C114.929 68.1676 116.399 68.3076 116.319 66.4776C116.309 66.1676 116.459 66.0076 116.479 65.6576C116.509 64.8477 116.779 64.0877 116.739 63.2477C116.699 62.4177 116.589 60.0978 116.439 59.1778C116.339 58.5378 116.779 58.6678 117.029 58.2078C117.399 57.5278 117.179 57.7978 117.709 57.3378C117.799 57.2578 118.079 57.0579 117.869 56.9679C117.629 56.8679 117.479 57.1279 117.209 57.1379C116.659 57.1479 115.449 56.7379 115.039 56.8379C114.459 56.9779 114.079 57.3878 113.799 57.8678C113.789 57.8878 113.779 57.9078 113.779 57.9178C113.769 57.9378 113.759 57.9578 113.749 57.9678C113.549 58.3678 113.479 58.6578 112.899 58.7078C112.169 58.7778 111.129 58.9878 110.429 58.7178C109.889 58.5178 109.779 57.9378 109.219 58.4478L107.779 59.5778C107.109 59.9378 106.879 59.8678 106.199 59.6678C103.629 58.9178 105.669 55.9579 104.589 55.0679C103.839 54.4479 103.279 54.7679 102.539 54.4979C102.129 54.3579 101.719 54.0179 101.479 53.7879C100.669 53.008 99.949 53.118 98.979 53.3879C98.3591 53.5579 98.2291 54.0579 97.3291 54.5679C96.3791 55.0979 96.4791 55.8379 94.9491 55.9179C94.2692 55.9579 94.1192 56.3979 94.0492 56.9179C93.8492 58.3478 93.4092 58.9578 92.4892 59.9778L89.5793 61.8377C89.1493 62.0477 88.7693 62.2677 88.6293 62.7577C88.4193 63.5277 88.8893 62.7277 88.2593 64.2277C88.1793 64.4277 88.0493 64.5977 87.9493 64.8377C87.8493 65.0977 87.8493 65.2677 87.7393 65.5376C87.5793 65.9076 87.2493 66.5276 87.1793 66.8276C87.0493 67.3576 87.1693 67.9276 86.7394 68.2376C86.5494 68.3776 85.4594 68.5776 85.0894 68.5876Z"
            fill="#F6AFCE" />
        <path fill-rule="evenodd" clip-rule="evenodd" class="state-map-path" id="ogun_state_KCT5SjjrJ"
            d="M88.1493 50.808L85.4294 50.878C84.4194 50.908 86.0494 51.348 83.1794 51.248C82.1095 51.208 82.5495 51.388 81.3495 51.998C79.9995 52.688 80.7395 52.518 79.8895 53.2579C77.8496 55.0579 77.1396 53.8879 75.9396 53.9179L71.3297 54.1179C70.3598 55.9479 70.9497 53.8679 70.0898 56.7379C69.9298 57.2678 69.7198 56.7879 69.2998 59.1178L68.7698 60.9578C68.5598 61.5377 68.7998 61.7177 68.4498 62.1677C68.2498 62.4177 67.8598 62.8377 67.8898 63.1777C68.0098 64.7377 70.8997 65.2376 72.1097 65.2876C72.8397 65.3176 72.7297 65.3976 73.3097 65.0477C73.6797 64.8277 74.0997 64.0277 75.7496 64.6277C77.7096 65.3376 77.7896 64.5177 78.4296 64.5877C78.7396 64.6177 80.4295 64.6277 80.7695 64.5377C81.0895 64.4577 81.2695 64.4077 81.5695 64.3377C82.0295 64.2377 82.5095 63.8577 82.8894 63.6177L83.2194 63.4577C84.1894 63.0277 82.8794 62.9477 85.7194 62.3677C86.2394 62.2577 86.9393 62.0577 87.4293 62.1477C87.6693 62.1977 87.7493 62.1577 88.0293 62.1777C88.6793 62.2077 88.4993 61.9177 88.8293 61.7177L91.9492 59.9878C92.2392 59.8178 92.3092 59.7078 92.4392 59.4578C92.6192 59.1278 92.6792 59.1878 92.8592 58.8778C93.2992 58.1178 92.9792 59.1278 93.5092 57.5178C93.7492 56.8179 93.4092 57.0078 93.8092 56.3679C93.8892 56.2479 93.9292 56.1079 93.9692 55.9879C94.3192 54.9979 93.9992 55.7679 93.5392 53.9779C93.4492 53.6379 93.4092 53.4179 93.3992 53.0779L93.1192 51.318C92.9392 50.938 92.9692 50.988 92.8792 50.518C92.8092 50.108 92.6992 50.128 92.6692 49.678C92.6492 49.338 92.6792 49.028 92.6092 48.7381C92.0592 48.4381 91.4692 49.158 91.0892 49.508C90.7493 49.818 89.9093 50.258 89.5093 50.498C88.8293 50.908 88.8993 50.788 88.1493 50.808Z"
            fill="#9DD3AF" />
        <path fill-rule="evenodd" clip-rule="evenodd" class="state-map-path" id="ogun_state_cCRwO1Xsr"
            d="M67.7198 64.2877C67.6698 65.8576 67.8798 65.3276 67.3698 66.7476C67.2498 67.0976 67.2898 67.2376 67.2098 67.5676C67.1698 67.7276 67.1498 67.7276 67.0698 67.9076C66.9199 68.2476 67.0098 68.2976 66.7299 69.0276C66.0399 70.8475 66.0899 70.1775 65.6499 70.8775L64.8799 72.2575C64.6399 72.6675 64.6599 72.2775 64.5699 72.7275C64.5099 73.0175 64.6699 73.1675 64.6199 73.5274C64.5799 73.8574 64.4399 73.8774 64.4599 74.3974C64.4699 74.9774 64.5699 76.7874 64.4699 77.2674C64.3999 77.5773 64.3999 77.7973 64.6199 78.0073C64.9599 78.3173 65.8099 78.1773 66.3799 78.1673C66.9899 78.1473 67.7198 78.0773 68.1998 78.2273C69.3498 78.5773 68.5898 78.0973 69.9498 78.3073C71.3997 78.5173 70.5098 78.9773 73.1597 78.6273C73.7997 78.5473 74.2497 78.4173 75.0097 78.4773C76.5196 78.5773 77.0096 78.4273 78.1496 77.5973C78.5396 77.3074 78.3996 76.5874 78.5796 76.1274C78.9196 75.2874 78.7796 75.4774 79.0196 74.6274C79.1295 74.2274 79.2595 74.4374 79.2295 73.8774C79.1595 72.1575 79.0996 73.0675 78.6196 72.0575C78.4996 71.7975 78.5596 71.9475 78.3996 71.7275C78.1096 71.3275 78.0196 70.8575 77.7496 70.4375C77.4596 69.9875 76.5796 69.1476 76.9096 68.5476C77.0296 68.3276 77.1496 68.0576 77.2496 67.8776C77.6196 67.2576 77.4596 67.5976 77.0096 66.5676C76.6796 65.8176 77.3396 65.4576 76.4296 65.3376C75.7796 65.2477 75.4896 65.1777 74.8997 64.9677C73.8397 64.5777 74.3097 66.0676 72.0797 65.7776C71.2297 65.6676 69.0298 65.6576 68.2498 64.7877C68.1698 64.6977 68.0998 64.5877 68.0398 64.5277C67.9598 64.4477 67.8098 64.3577 67.7198 64.2877Z"
            fill="#FDD1A1" />
        <path fill-rule="evenodd" clip-rule="evenodd" class="state-map-path" id="ogun_state_H8haJhD6H"
            d="M79.2095 72.5075C79.3495 72.7575 79.2595 72.6875 79.3495 72.9175C79.4795 73.2674 79.5795 74.1874 79.1295 75.4974L78.8495 76.2374L78.4296 78.0073C78.6895 78.4073 79.1995 78.4173 79.7895 78.3973C81.0495 78.3573 80.8495 78.7873 82.8894 78.3573C83.2394 78.2873 83.5094 78.5473 84.0694 78.4773C84.3894 78.4473 84.3294 78.3773 84.7694 78.3973C85.8194 78.4473 86.6094 78.6773 87.3293 78.1773C87.6793 77.3973 86.7993 78.0773 86.1594 75.9774C85.7694 75.2574 84.5294 75.7374 83.9294 75.6374C83.3294 75.4574 82.8794 75.2974 82.9194 75.1874C83.0294 74.8774 82.9294 74.6574 83.0494 74.5074C83.2394 74.2574 83.5494 73.8974 82.9094 73.8474C82.5395 73.8274 82.6894 73.3274 82.2795 73.2574C81.5195 73.1075 80.6695 73.5074 80.6495 72.7475C80.5395 72.2875 80.6295 71.5675 80.8495 71.2775C81.1695 70.1675 81.5295 69.5075 80.9095 68.5576C80.7195 68.2776 80.5195 68.3876 80.2895 68.1476C79.8895 67.7176 80.5095 68.1276 79.5495 67.3376C79.1895 67.0376 79.2995 66.6176 79.1195 66.2776C78.8895 65.8676 78.1396 65.7376 77.5496 65.9176C77.1796 66.7876 78.0996 67.0376 77.8896 67.6476C77.8096 67.8976 77.7996 68.0976 77.6796 68.2876C77.3196 68.4576 76.7796 68.4976 77.5496 69.4375C77.6396 69.6075 78.0596 69.9775 78.1596 70.1075C78.4996 71.1575 78.7295 71.6275 79.2095 72.5075Z"
            fill="#91D8F7" />
    </svg>