<svg viewBox="0 0 134 132" fill="none" xmlns="http://www.w3.org/2000/svg">
        <path fill-rule="evenodd" clip-rule="evenodd" class="state-map-path" id="ondo_state_TA3dCXGfP"
            d="M56.977 73.751C57.447 73.671 58.017 73.1411 59.0869 73.321C59.8769 73.461 60.2069 74.031 60.6669 74.391L62.1769 72.7911C62.6268 72.2911 63.2368 71.7311 63.7768 71.1711C64.1568 70.7711 65.0568 70.2311 65.6168 69.8511C66.0568 69.5611 66.1468 69.4611 66.5067 69.1311C66.8967 68.7812 67.2067 68.9612 67.8167 68.9712C68.0767 68.2212 67.8667 67.9412 68.3367 67.2112L70.0467 64.3713C70.4367 63.6913 70.5566 63.6013 71.0766 63.1213L72.8466 61.4713C73.1466 61.2113 73.1066 61.1113 73.5966 61.0813C75.6965 60.9514 78.0565 60.9014 80.1564 60.7414C81.2764 60.6614 81.4964 60.5514 82.0264 61.0313C82.3664 61.3513 82.2964 61.2813 82.9063 61.2813H95.596C95.606 60.8614 95.536 59.6814 95.406 59.3514C95.116 58.5914 94.5161 57.1414 94.0361 56.5815C93.1961 55.6115 91.8261 54.0815 91.2961 53.0215C90.9661 52.3616 90.8561 52.3316 90.7761 51.4416C90.7062 50.7316 90.7861 49.9016 90.4262 49.6716C90.0262 49.4116 88.6962 48.8617 88.1362 48.8817C87.5062 48.8917 84.7563 47.9117 84.0463 47.6817C80.3964 46.5017 80.8564 46.7817 76.9965 46.3717C76.3465 46.3017 75.8265 46.1917 75.2065 46.0617C73.2866 45.6517 71.9666 45.9417 70.2367 44.7318C69.3767 44.1318 68.6067 43.5718 67.8067 43.0118C67.2767 42.6318 67.1767 42.5618 66.4367 42.2918C64.8768 41.7418 60.6369 38.0319 59.3669 36.7719C59.1969 36.602 58.4669 35.792 58.3469 35.722C58.137 35.582 54.797 35.402 54.367 35.482C54.287 35.652 54.0271 36.542 53.9971 36.702C53.8971 37.3119 54.2371 36.8519 54.1971 38.0919C54.1271 40.4119 54.357 40.3619 53.9271 42.7418C53.7371 43.7318 53.4971 43.8818 52.8271 44.8617C52.5671 45.2317 51.6171 45.9217 51.1071 46.4317C50.7171 46.8317 50.7871 47.0017 50.7371 47.6717C50.7071 48.1617 50.6271 48.7317 50.6371 49.2216L51.1671 52.0216C51.5171 53.7215 52.3971 53.2715 51.7471 55.8615C51.6271 56.3615 51.2671 58.0514 51.0771 58.4014C50.4371 59.5414 50.1572 58.8714 50.4471 60.8514C50.5571 61.5913 50.3471 63.4713 50.5271 63.9713C50.6771 64.3713 51.0271 64.6513 51.0371 65.1012C51.0471 65.6112 50.9771 66.1912 50.9571 66.7112C50.9171 67.6812 50.7471 67.4112 52.2471 68.6212L54.967 70.7911C55.217 71.1711 54.907 71.8611 55.247 72.2011L56.977 73.751Z"
            fill="#D2E28B" />
        <path fill-rule="evenodd" clip-rule="evenodd" class="state-map-path" id="ondo_state_emNJnY0bF"
            d="M9.26818 87.7507C9.45817 87.6407 9.76817 86.9107 9.88816 86.6907C10.0882 86.3107 10.2882 85.9207 10.4681 85.5407C10.8781 84.7107 11.2281 84.0608 11.6181 83.2708C12.0581 82.4008 12.2881 81.6508 12.9081 81.1408C13.8481 80.3609 15.838 78.6109 16.678 78.0009C17.358 77.5009 17.948 76.9009 18.428 76.281C19.4079 75.011 20.2579 73.381 20.6579 71.6511C21.0779 71.4311 22.7978 71.9211 23.4078 71.9911C24.4978 72.1111 26.3578 72.501 27.5877 72.701C28.1677 72.791 27.9977 72.721 28.5077 73.471L31.1876 77.3509C32.0976 78.6809 33.7776 80.5609 34.8475 81.9408C34.9675 82.1008 35.0675 82.2108 35.2175 82.3808C35.3375 82.5308 35.4575 82.7608 35.6175 82.8608C35.9275 82.9908 39.1674 82.8308 39.7674 82.8108C40.0974 81.3608 40.2474 80.5408 41.0974 79.3109C41.1374 79.2509 42.6174 77.7709 43.0973 77.6909C43.4273 77.6409 43.7973 77.5909 44.1473 77.5409C45.8473 77.2909 46.8672 77.1009 48.3772 77.5209C48.9572 77.6809 51.9971 78.4609 52.3971 78.4709L55.077 75.671C55.457 75.281 56.517 74.211 56.697 73.881C56.517 73.641 56.227 73.411 55.947 73.161C54.5071 71.8811 54.937 72.2811 54.8471 71.2611C54.7971 70.7911 54.3771 70.6211 54.1271 70.4311C53.3471 69.8411 51.2671 68.0912 50.7472 67.7812C50.6772 67.3412 50.7372 66.5212 50.7572 66.0412C50.7872 65.2612 50.8972 65.0312 50.4972 64.4712C50.3272 64.2313 50.2472 64.1913 50.2272 63.8313L50.2572 61.1513L48.3672 60.1114C47.7472 59.7814 47.4572 59.2314 46.7773 58.7514L44.2173 56.8814C43.7173 56.5214 43.6273 56.7114 42.9773 56.7414C39.8974 56.8714 39.4874 57.1014 36.6175 57.7214C36.2875 57.8014 30.6077 60.9413 29.8577 61.3713C29.2577 61.7113 29.5377 61.6313 28.7077 61.7013C27.1877 61.8213 27.3677 61.6413 26.4278 62.3613C26.2378 62.5013 25.7078 62.9313 25.5478 63.0113C25.2178 63.1813 20.8579 63.2513 19.9879 63.4213C19.2179 63.5713 18.358 63.7613 17.588 63.9613C16.288 64.3013 16.408 64.7712 15.438 64.8412C13.1281 64.9912 12.8181 65.4312 10.8981 66.2012C10.1982 66.4812 9.55817 66.9012 8.94819 67.1912C7.94821 67.6612 4.13831 70.0011 3.57832 70.8011L1.73836 73.391C1.40837 73.871 1.37837 73.821 1.36837 74.551C1.33837 76.351 1.55837 76.151 0.748389 77.0809C0.738389 77.0909 0.71839 77.1009 0.70839 77.1209L0.168404 77.7809C-0.0415912 78.0409 -0.141589 78.0709 0.398398 78.7309C1.19838 79.7209 3.06833 80.2309 4.4683 80.6208C4.89829 80.7408 5.19828 80.8108 5.62827 80.9408C6.23825 81.1308 6.24825 80.9408 6.47825 81.5508C7.09823 83.1708 8.03821 85.1407 8.67819 86.8007C8.81819 87.1807 8.92819 87.6107 9.26818 87.7507Z"
            fill="#F6AFCE" />
        <path fill-rule="evenodd" clip-rule="evenodd" class="state-map-path" id="ondo_state_H25mNsHg8"
            d="M106.316 31.5521C106.306 31.8421 106.456 32.0021 106.556 32.2821C106.636 32.532 106.696 32.892 106.756 33.132C107.066 34.232 107.526 34.892 108.386 35.672C110.276 37.3719 109.656 37.0919 110.356 37.8519C111.516 39.1219 111.366 38.6319 112.646 39.7219C113.396 40.3619 113.726 39.7819 113.916 40.5718C113.716 40.8318 113.296 41.1018 113.056 41.3018L111.266 42.7318C110.746 43.1618 110.896 43.1718 110.116 43.2018C109.266 43.2318 108.516 43.2618 108.106 44.3918C107.946 44.8517 108.076 45.3917 108.266 45.7117C108.606 46.2717 108.606 46.2417 108.566 47.0717C107.776 47.2217 107.286 47.3117 106.426 47.4017C104.956 47.5617 104.626 47.9617 104.196 48.9316C104.086 49.1716 103.866 49.5916 103.826 49.8316L103.726 52.3016C103.596 52.4016 101.496 53.5615 101.296 53.6115C99.3859 54.1215 100.166 54.0815 98.666 54.7215C98.606 55.3115 98.516 55.8415 98.446 56.4415C98.366 57.1114 98.456 57.7114 98.386 58.3314C98.286 59.1614 97.746 60.9913 97.816 61.6813C98.076 61.9113 98.146 62.0213 98.376 62.2913C98.616 62.5713 98.766 62.6413 98.806 63.0813C98.876 63.8413 98.986 64.0613 98.276 64.8612C98.126 65.0312 97.786 65.2312 97.586 65.3812C97.126 65.7212 97.016 65.3612 96.566 65.5612C95.466 66.0512 96.996 68.2312 97.386 68.8412C98.066 69.9011 97.846 69.7111 97.526 71.7511C97.446 72.2711 97.386 72.2711 97.676 72.6511C99.006 74.411 98.606 74.111 100.416 72.6911C101.086 72.1611 101.346 72.1011 101.606 71.1511C101.966 71.1511 103.896 71.2811 104.116 71.3511C104.336 71.4211 104.816 71.8111 104.926 71.9011C105.346 72.2511 105.396 72.1911 106.096 72.1711C108.576 72.0811 107.986 72.1811 109.156 71.0511L110.606 69.7511C110.886 69.5211 111.146 69.2911 111.406 69.1411C111.876 68.8611 113.606 68.6912 114.126 67.7012C114.876 66.2612 115.606 65.9912 114.186 65.1812C114.176 64.3513 114.146 64.3213 114.446 63.6713C114.656 63.2213 114.986 63.0213 115.206 62.6813C115.356 62.4513 115.396 61.5113 115.436 61.1813C115.526 60.3814 115.366 60.3114 115.896 59.8314C116.446 59.3314 116.296 59.4814 116.486 58.6814C116.556 58.3914 116.546 58.2014 116.526 57.8814C116.416 56.6415 115.416 56.3415 115.386 55.4515C115.386 55.1515 115.366 54.8115 115.376 54.5115C115.386 53.9415 115.676 53.6715 115.796 53.1715C116.576 50.1216 115.686 51.9616 117.226 49.3016C117.505 48.8016 117.575 48.6217 117.735 48.0617C117.835 47.6917 117.815 47.7417 118.055 47.5117C118.175 47.4117 118.395 47.1517 118.545 47.0717C118.825 46.9217 119.465 46.7917 119.845 46.6217C120.205 46.4617 120.805 46.2017 121.045 46.0317C121.065 45.5517 121.075 45.5517 120.795 45.3017C120.175 44.7817 120.305 44.8217 120.345 44.0818C120.655 43.9218 121.635 43.8218 121.805 43.5518C121.905 43.3818 121.935 43.0918 122.065 42.8718C122.175 42.6818 122.325 42.4718 122.455 42.2718C122.675 41.9418 122.555 41.9318 122.635 41.5218C122.685 41.2818 123.245 40.5618 123.465 40.3919C124.405 39.6919 123.905 39.9819 124.115 38.0919C124.165 37.6519 124.635 37.4219 125.055 37.0819C125.285 36.9019 125.335 36.8319 125.295 36.452C125.235 35.892 125.275 35.362 125.065 34.722C124.985 34.462 124.825 34.332 124.745 34.072C124.795 33.982 125.555 33.332 125.975 32.852C126.035 32.782 126.785 31.1921 126.795 31.1121C126.945 30.3221 126.155 30.1721 126.405 29.0721C126.565 28.4121 127.565 28.2922 128.145 28.2422C128.235 28.0422 128.315 28.0322 128.345 27.7722C127.695 27.8222 127.045 27.9922 126.455 28.0322C125.995 28.0622 125.725 27.5922 125.185 27.1122C123.985 26.0322 124.195 26.0722 122.725 25.2022C122.025 24.7922 122.325 25.3522 121.295 24.4922C121.085 24.3123 120.375 23.5323 119.955 23.7423C119.675 23.8723 118.315 25.7522 117.965 26.1122L116.836 27.1322C116.546 27.3622 116.736 27.1222 116.026 27.4022C115.786 27.4922 115.496 27.6122 115.216 27.7322C114.296 28.1222 113.096 28.5421 112.186 29.0521L107.996 31.4221C107.066 31.9721 107.326 31.5721 106.316 31.5521Z"
            fill="#F6AFCE" />
        <path fill-rule="evenodd" clip-rule="evenodd" class="state-map-path" id="ondo_state_EpzARvMVC"
            d="M8.25817 96.5905L8.17817 97.3404C9.44814 97.8604 9.94813 96.5705 11.0381 96.7005C12.9381 96.9304 12.5081 96.8804 14.318 97.2504C16.258 97.6404 15.518 97.3704 17.108 98.2704C17.8279 98.6804 17.7079 98.5604 17.9679 99.3604C18.1279 99.8704 18.3779 100.33 18.2979 100.92C18.1079 102.28 18.4879 101.92 17.118 103.57C16.848 103.88 16.198 103.98 15.718 104.06C15.218 104.15 14.828 103.82 14.368 103.57C12.2981 102.42 12.7381 102.86 11.1481 101.02C10.8681 100.69 10.4781 100.22 10.2081 100.01C9.84813 99.9904 8.98815 100.12 8.63816 100.19C7.90818 100.33 7.83818 100.26 7.51819 100.82C7.87818 101.13 9.76813 102.24 10.3281 102.58L14.618 105.19C16.108 106.08 17.3579 106.99 18.8779 107.91L23.7278 111.02C25.2677 112.05 25.5977 112.2 27.1777 113.41C28.0277 114.06 28.8677 114.7 29.7776 115.43C30.5876 116.09 31.5376 116.75 32.3376 117.42C33.1876 118.13 34.0275 118.7 34.9575 119.43C36.7875 120.85 38.3674 122.28 40.0574 123.57C40.8974 124.21 41.7273 124.95 42.5673 125.62L48.9272 130.79C49.1872 131 49.9471 131.72 50.2771 131.78C51.2671 130.11 52.8571 127.83 53.937 126.13C54.067 125.92 54.377 125.52 54.437 125.28C54.427 125.17 50.4171 121.16 49.9871 120.75C47.6972 118.58 44.0873 116.39 41.7973 113.86L39.9674 111.93C39.8474 111.8 39.7274 111.64 39.6374 111.53C39.3974 111.22 39.1274 110.93 38.9674 110.66C38.5674 109.99 38.2274 109.44 37.8374 108.78C37.1775 107.66 37.2575 108.1 37.5774 106.49C37.6974 105.86 38.8074 104.38 39.2574 103.68C39.5474 103.24 40.2674 102.36 40.2074 101.63C40.1774 101.13 39.0074 99.4304 39.0174 98.2604C39.1774 98.1604 40.2974 97.1304 40.3874 96.9604C40.5174 96.6905 40.4674 94.6605 40.4174 94.2505L37.4275 95.7405C34.6975 97.2304 31.3676 97.8804 28.1677 97.6604C27.0377 97.5804 27.1677 97.6604 26.4277 97.1304C24.4578 95.7205 24.2178 95.6505 22.6978 94.0905C21.7678 93.1505 20.2079 91.5106 19.1979 90.7606C18.4279 90.1906 18.6879 90.1906 17.5079 90.1606C16.748 90.1406 15.988 90.1206 15.228 90.1506C15.168 90.6706 15.208 91.3706 15.208 91.9106C15.208 92.7105 15.288 92.7605 14.958 93.3805C14.498 94.2305 14.128 94.5805 13.398 95.3005C12.3181 96.3705 12.8681 96.3205 11.0281 95.9705C10.0581 95.7805 9.13815 96.3905 8.25817 96.5905Z"
            fill="#9DD3AF" />
        <path fill-rule="evenodd" clip-rule="evenodd" class="state-map-path" id="ondo_state_Jgx6XoSYw"
            d="M84.3863 32.812C84.3063 33.472 84.9663 33.852 85.4962 34.902C86.1362 36.182 86.1362 35.832 85.9962 37.5619C85.9362 38.2619 85.9262 41.6618 86.0762 42.3018C86.5362 44.3618 86.6862 44.6817 88.5362 44.7117C90.1061 44.7417 92.2661 44.5717 91.7361 46.2517C91.5361 46.8617 91.4961 46.8517 91.0661 47.2617C90.3261 47.9517 90.5661 47.8317 89.7061 48.3117C89.5261 48.4117 89.2861 48.4817 89.2162 48.6816C89.5761 49.0216 90.4361 49.3016 90.7361 49.5716C91.0061 49.8216 90.9861 51.2016 91.0161 51.7016C91.0461 52.1016 91.5061 52.9915 91.7361 53.3815C91.9761 53.8015 92.4961 54.3415 92.8061 54.7315C95.006 57.4814 94.116 55.8815 95.606 59.1714C95.796 59.6114 95.696 60.9713 95.926 61.2513C96.076 61.4213 95.996 61.3413 96.276 61.3913L97.5559 61.5213C97.6859 60.6014 97.8659 59.7614 98.0359 58.8714C98.2459 57.8114 98.0659 56.9314 98.2459 55.8615C98.5359 54.2115 98.1859 54.7215 99.5459 53.9915C100.276 53.6015 100.936 53.2515 101.736 52.9715C102.156 52.8215 102.506 52.6715 102.806 52.4916C103.216 52.2516 103.506 52.2716 103.516 51.6316C103.546 49.7616 103.186 50.6916 103.926 48.9216C104.066 48.5716 104.196 48.1417 104.506 47.9017C105.766 46.9117 106.416 47.2517 108.306 46.8617C108.366 46.0217 108.246 46.2517 107.966 45.6717C107.476 44.6917 108.076 43.0418 109.706 42.8918C110.876 42.7818 110.026 43.4018 111.876 41.9318C112.176 41.7018 113.506 40.7618 113.616 40.4219C111.966 39.8519 113.016 40.3119 111.636 39.3919L110.416 38.5219C110.236 38.3519 110.146 38.1019 110.006 37.8619C108.766 35.672 106.916 35.672 106.126 32.432C106.066 32.1921 106.016 31.7221 105.956 31.5621C105.526 31.4621 104.776 31.6221 104.286 31.6121L99.2859 31.3721C96.946 31.2421 94.846 31.1421 92.4861 31.1321C91.9061 31.1421 91.0661 31.3821 90.4761 31.5121L84.3863 32.812Z"
            fill="#9DD3AF" />
        <path fill-rule="evenodd" clip-rule="evenodd" class="state-map-path" id="ondo_state_Sl31L5JXr"
            d="M19.718 47.5817C18.898 48.9816 19.118 50.0116 18.798 50.9116C18.658 51.2916 18.538 51.6016 18.398 51.9916C18.238 52.4416 18.038 52.4116 17.588 52.5816C16.5981 52.9816 16.3081 52.9916 15.6881 53.6215C15.4681 53.8415 15.1081 54.1015 14.9281 54.3415C14.4281 54.9615 14.6381 59.7214 14.6481 61.0814C14.6481 62.1513 14.0081 62.2813 13.9281 63.3513C13.8981 63.7413 13.7981 64.2913 13.8481 64.6613C16.6381 64.7913 15.8781 64.1113 17.608 63.7213C20.8379 62.9913 20.648 63.0713 24.0079 62.9113C25.5678 62.8413 25.2778 62.9513 26.6378 61.8913C27.0278 61.5913 26.9778 61.5913 27.4878 61.5613C28.1878 61.5313 29.0577 61.5513 29.5977 61.2413C30.4177 60.7614 36.0976 57.6014 36.6176 57.4814C38.5775 57.0615 39.6475 56.7615 41.6974 56.5515C42.1974 56.5015 43.6174 56.5615 43.9674 56.3915C43.9874 56.3815 43.9974 56.3415 43.9974 56.3515C44.0074 56.3615 44.0274 56.3115 44.0274 56.3015C44.0374 56.2815 44.0474 56.2615 44.0474 56.2415L44.6874 52.0816C44.9474 50.7516 45.5373 48.9616 44.8674 47.7217C44.6674 47.3417 43.8974 46.8317 43.4074 46.7017C42.7674 46.5217 41.9474 46.4117 41.3574 46.2017L38.5475 45.2717C38.3775 45.1417 38.4575 45.1017 38.3275 44.8917C38.2475 44.7418 38.1275 44.6518 38.0375 44.5318C38.1575 43.8818 38.6275 43.2118 38.8775 42.6418C39.1475 42.0218 39.1875 40.8618 38.9575 40.1919C37.8975 39.9519 38.2875 40.2519 37.5975 39.5119C36.9775 38.8519 36.4576 38.1719 35.1776 37.9219C34.5576 37.8019 33.7776 37.8519 33.2676 38.0419C32.1077 38.4919 31.7377 38.9319 31.2977 40.0819C30.7577 41.5218 31.9477 41.4918 31.7977 43.3218C31.7677 43.6118 31.3677 44.4318 31.1377 44.6918C30.3877 45.5517 27.4078 45.3117 25.9978 45.6317C25.2378 45.8017 25.1078 45.8317 24.5079 46.1617C23.0579 46.9417 23.1579 46.9017 21.6279 47.3717C21.2879 47.4717 21.1679 47.5617 20.7979 47.5717C20.438 47.5917 20.088 47.5617 19.718 47.5817Z"
            fill="#9DD3AF" />
        <path fill-rule="evenodd" clip-rule="evenodd" class="state-map-path" id="ondo_state_gRXGgjEOo"
            d="M52.4171 78.7609C51.7371 78.7409 51.2671 78.5209 50.6371 78.3409C49.9971 78.1609 47.5572 77.5109 46.9972 77.5009C46.2972 77.4909 43.5273 77.7809 43.0173 78.0009C42.6273 78.1709 41.5073 79.1709 41.2173 79.6309C41.0573 79.8709 40.9473 80.1209 40.8073 80.3609C40.4874 80.9208 40.3274 81.3008 40.1874 82.0208C40.0774 82.5608 40.1674 82.5708 40.2574 82.9508C40.3174 83.2108 40.3074 83.7208 40.3274 84.0108C40.4474 85.8807 40.5274 85.3007 39.4274 87.4807C39.1274 88.0607 38.8774 88.3407 38.5174 88.8606C38.2974 89.1606 37.2374 90.5606 37.1974 90.9006C37.0274 92.2006 37.3774 92.1206 38.2774 93.2505C38.5574 93.6005 38.9874 94.1705 39.3074 94.5005C39.6674 94.4205 41.2673 93.4705 41.6873 93.2305C42.3573 92.8605 43.4773 92.2106 44.4473 92.2906C44.8672 92.6506 45.1872 93.0005 45.4072 93.6405C45.7172 94.5605 46.3772 95.8305 46.7372 96.8505C47.1772 98.0804 48.2472 100.42 48.9371 101.49C49.3371 102.1 50.6271 103.77 51.2171 103.86C51.4171 103.71 53.557 101.38 53.597 101.16C53.357 100.95 53.077 100.74 52.847 100.49C52.887 100.19 53.027 100.03 53.147 99.7504C53.307 99.3804 53.237 99.2704 53.577 99.1004C54.037 98.8504 54.677 98.7304 55.077 98.4604L55.087 97.2704C55.547 97.3004 56.9769 98.0604 57.2569 97.9504L59.6169 95.8905C59.9969 95.5705 59.8469 95.2605 59.7669 94.7405C59.5369 93.2305 59.3469 93.5205 60.2969 92.6806C61.1868 91.8906 62.6468 90.6506 63.3368 89.8206C63.9068 89.1306 63.8168 88.8007 63.9968 87.5407C64.0968 86.8707 64.3668 85.4507 64.3468 84.8607C63.9568 84.6908 63.5668 84.4908 63.1268 84.2808C62.6168 84.0408 62.3468 84.0008 62.0668 83.5308C61.5968 82.7608 61.1368 82.1308 60.6269 81.3508C60.1669 80.6409 60.2569 80.9408 60.2769 79.9109C60.2769 79.3509 60.2569 78.6809 60.3069 78.1309C60.3469 77.6909 60.5469 74.951 60.5169 74.761C60.4669 74.481 59.5769 73.261 58.1469 73.581C56.787 73.891 56.197 74.931 55.127 75.981C54.777 76.321 54.547 76.611 54.237 76.9009L52.4171 78.7609Z"
            fill="#91D8F7" />
        <path fill-rule="evenodd" clip-rule="evenodd" class="state-map-path" id="ondo_state_W6pgDT5da"
            d="M16.918 78.2409C16.968 78.5409 17.428 79.1709 17.608 79.4809C17.7379 79.7009 18.2879 80.5809 18.3179 80.7309C18.4079 81.1408 17.378 84.8307 17.288 85.6107C17.188 86.4307 17.318 86.7507 17.658 87.2107C19.1379 89.2106 18.7379 88.3307 18.6479 90.0306C18.8979 90.2706 20.1979 91.1606 20.7479 91.6906L22.6178 93.6405C24.0378 95.1305 24.0278 95.0805 25.6778 96.2705C25.9877 96.5005 26.4677 96.9005 26.7977 97.0904C27.3977 97.4404 29.4477 97.4604 30.3076 97.4204C33.6176 97.2804 36.2375 96.3005 38.9274 94.5905C38.9174 94.3305 38.7174 94.1805 38.5474 93.9905L37.1275 92.2606C36.8675 91.9406 36.9475 91.9906 36.9575 91.4406C36.9575 91.0006 36.8575 90.8206 37.0675 90.4806L38.8174 88.0207C39.1274 87.6107 40.1674 85.6207 40.1574 85.1407C40.1574 84.4508 40.0674 83.8108 40.0474 83.1008C39.6274 82.9708 37.0375 83.1208 36.4075 83.1408C35.4075 83.1608 35.5275 83.1808 35.0075 82.6608C33.6776 81.3408 32.0276 79.0009 30.8476 77.2909C30.5776 76.9009 30.3076 76.521 30.0876 76.181L28.5377 73.981C28.3877 73.751 28.2977 73.611 28.1577 73.421C27.9877 73.191 27.9977 73.031 27.6377 72.951C26.6377 72.711 25.3778 72.5611 24.3478 72.4011C23.1878 72.2211 22.2578 71.9511 20.9279 72.0011C20.3279 72.711 20.3379 75.641 17.6779 77.6609C17.438 77.8509 17.078 78.0709 16.918 78.2409Z"
            fill="#D2E28B" />
        <path fill-rule="evenodd" clip-rule="evenodd" class="state-map-path" id="ondo_state_i76dFBdSK"
            d="M40.7074 94.0505C40.6474 94.7405 40.8674 96.8205 40.5374 97.1804C39.2874 98.5304 39.1574 98.0104 39.4374 99.1404C39.5474 99.5904 39.7474 99.9004 39.9274 100.31C40.0574 100.62 40.3874 101.21 40.4274 101.49C40.5674 102.48 39.9574 103.05 39.4374 103.86C39.0274 104.5 38.5975 105.16 38.1475 105.84C37.8475 106.29 37.8175 106.46 37.7075 107.06C37.5275 107.99 37.4775 107.68 37.8875 108.39C38.2875 109.06 38.7375 109.72 39.1474 110.48C39.3774 110.89 41.8874 113.48 42.3074 113.95C44.7073 116.63 48.4072 118.74 50.4172 120.85C51.0571 121.52 54.3971 124.89 54.6271 124.98C54.8871 124.71 58.747 118.11 59.3069 117.16C59.7569 116.41 62.1469 112.54 62.0869 112.28C61.9869 112.1 61.4869 111.42 61.3369 111.28C60.7669 111.19 59.7869 111.62 59.1369 111.59C58.947 111.23 56.937 108.11 56.707 108C56.427 107.86 55.967 107.9 55.677 107.83C55.387 107.75 55.337 107.46 55.167 107.11C54.2771 105.28 53.6071 105.1 51.7471 104.45C50.8472 104.13 50.9171 104.04 50.2872 103.49C49.3172 102.66 49.8472 103.07 49.1372 102.16C48.4372 101.27 47.9172 100.17 47.3872 99.0904C46.6673 97.6204 45.9073 95.4205 45.2473 93.9205C45.0773 93.5205 44.7273 92.4906 44.1373 92.5806C42.4774 92.8105 42.1674 93.3305 40.7074 94.0505Z"
            fill="#FDD1A1" />
        <path fill-rule="evenodd" clip-rule="evenodd" class="state-map-path" id="ondo_state_dBSTbHONE"
            d="M50.3271 26.4722C50.0371 26.4122 49.4271 26.4322 49.0671 26.4222C48.9471 26.4122 48.5672 26.4022 48.4772 26.3622C48.4672 26.3622 48.4472 26.3522 48.4272 26.3422L48.2872 26.2122C48.1372 26.0922 48.2672 26.1222 47.9972 26.0922C47.4072 26.0322 45.9872 26.1922 45.3172 26.2322C44.3373 26.2922 41.4273 25.8222 40.4574 25.5322C39.6674 25.2922 38.7574 25.4922 37.8774 25.5222C36.7974 25.5622 36.3875 25.5622 35.5475 25.9722C34.9075 26.2922 34.3375 26.5722 33.6875 26.8622C33.2075 27.0822 32.3776 27.6522 32.0176 27.9722C31.9676 28.5122 32.1076 29.0921 31.8676 29.5321C31.2276 30.7121 31.3276 30.4121 31.3176 31.4621C31.3176 31.8921 31.2676 31.9121 31.5076 32.1421C31.7576 32.3721 31.7476 32.3121 31.8076 32.712C31.8476 32.942 31.9076 33.212 31.9076 33.462C31.3076 33.722 31.4276 33.632 31.1076 34.192C30.7776 34.762 30.8076 34.682 30.7676 35.482C30.6876 37.3619 30.5076 37.5919 29.3176 38.7719C28.9276 39.1519 28.5377 39.3319 28.3377 40.2219C28.2877 40.4619 28.3277 40.7219 28.2677 40.9518C28.2177 41.1518 27.7977 41.7218 27.6277 41.8918C26.9877 41.8818 26.4477 41.8818 25.8177 41.8418C25.4877 41.8218 25.3077 41.8218 25.0877 41.6418C24.7677 41.3618 24.8477 41.3918 24.3078 41.4718C24.0278 42.6918 25.0077 42.4518 24.5478 43.5218C24.3978 43.8718 23.2278 44.3118 22.8578 44.5118C22.3378 44.8018 21.6078 45.1317 21.1678 45.4417C20.8878 45.6417 19.9379 46.4317 19.9879 46.9417C20.7378 47.4917 21.0078 47.2317 21.8378 47.0417C22.8278 46.8217 22.6978 46.7817 23.6378 46.3017C24.1878 46.0117 24.8177 45.7817 25.3277 45.4417C25.8377 45.1017 25.6577 45.2317 26.3277 45.1817C27.2377 45.1017 29.2776 45.1317 29.9476 44.9717C30.7976 44.7718 30.9576 44.5418 31.3476 43.8318C32.2976 42.0918 30.2776 41.8018 31.1976 39.7219C31.4376 39.1819 31.7176 38.5619 32.2776 38.2519C33.7975 37.4419 34.4775 37.2619 36.0975 37.9919C37.9074 38.8119 37.4774 39.9319 39.2874 39.9019C40.8373 39.8719 39.6974 39.3719 41.4973 39.5519C42.2573 39.6319 42.9673 39.8219 43.7773 39.8219C45.8572 39.8219 47.0872 39.9419 49.1271 39.6819C50.1371 39.5519 51.2571 38.8619 52.0671 38.3419C52.977 37.7519 52.3671 38.1419 53.137 37.2719C53.637 36.702 53.787 36.8419 53.967 35.962C54.087 35.372 54.097 34.632 54.117 33.932C54.177 32.3121 54.287 32.962 54.467 32.1721C54.587 31.6321 54.537 29.8121 54.537 28.9821C54.537 28.2322 54.517 26.0922 54.007 25.5822C53.857 25.4422 53.457 25.0922 53.287 24.9622C53.057 24.7922 52.6671 24.6922 52.3771 24.6023C51.8471 24.4423 51.7071 24.6722 51.4271 24.9022C51.2771 25.0222 50.7871 25.4022 50.7071 25.5222C50.5871 25.6722 50.4571 26.2422 50.3271 26.4722Z"
            fill="#F6AFCE" />
        <path fill-rule="evenodd" clip-rule="evenodd" class="state-map-path" id="ondo_state_hUmplVsYU"
            d="M73.7565 22.0423C73.3965 22.0223 72.4266 21.8723 72.1566 22.0423C71.5066 22.4523 71.9066 22.5523 70.7366 22.3623C69.9966 22.2423 68.3267 21.9523 67.5867 21.9623C67.5067 22.9323 67.6467 23.7223 67.1167 24.9822C66.9667 25.3422 66.3067 27.4122 66.4167 27.7122C66.6767 28.3921 66.9467 28.5521 67.4867 30.1121C67.6467 30.5521 67.8267 30.9921 67.9467 31.3921C68.3867 32.812 67.5367 32.1221 69.3766 35.282C69.6166 35.692 69.7866 35.962 70.0266 36.362C70.6266 37.3419 72.8966 38.7219 73.9665 39.5319C75.0765 40.3519 75.1765 39.3019 78.1164 42.4218C79.8764 44.2918 79.8064 44.6317 81.2064 46.3617C81.5263 46.7417 81.7163 46.6917 82.4463 46.9317C83.3363 47.2117 84.2163 47.4917 85.0863 47.7717L87.7962 48.6216C88.8262 48.7816 90.1161 47.8517 90.7761 47.1717C91.2361 46.7117 91.6961 46.4917 91.4661 45.3517C90.2761 44.8917 90.6961 45.0517 89.2662 44.9817C88.6062 44.9417 87.4462 44.9617 86.8562 44.8517C86.5262 44.3318 86.2562 43.9818 86.0762 43.2318C85.6462 41.4818 85.7262 40.5119 85.7262 38.6919C85.7162 37.9019 85.8562 37.0119 85.8162 36.282C85.7862 35.762 84.6463 33.722 83.9463 33.232C82.3463 32.1221 82.3263 32.452 80.4564 31.7621C80.3364 30.7621 80.1664 29.8821 80.1064 28.8521C80.0764 28.3322 80.0464 27.8222 79.9964 27.3622C79.9064 26.5322 80.0064 26.6422 79.6064 26.0522C79.0364 25.1922 78.7864 25.0222 78.3364 24.0323C78.1164 23.5723 77.7264 23.3023 77.6664 23.1123C77.5964 22.8823 77.6464 21.8623 77.5964 21.4823C77.1065 21.4623 76.6965 21.4023 76.3665 21.6323C75.9865 21.9023 75.0265 22.6923 74.6165 22.6623C74.0065 22.6323 74.0465 22.5223 73.7565 22.0423Z"
            fill="#F6AFCE" />
        <path fill-rule="evenodd" clip-rule="evenodd" class="state-map-path" id="ondo_state_m5hkIV4Sh"
            d="M114.336 0.322849C114.136 0.522844 114.226 0.552844 113.786 0.762839C113.526 0.882836 113.306 0.992833 113.086 1.12283C112.636 1.38282 112.146 1.62282 111.726 1.84281C110.836 2.3228 110.146 3.00278 109.326 3.60277C108.536 4.18275 107.706 5.11273 107.916 6.1927C108.266 8.05266 108.056 7.30268 106.826 9.02263L104.036 9.08263L101.866 12.2226C101.656 12.5225 101.406 12.6925 101.686 13.0825C101.886 13.3625 102.326 13.2625 102.796 13.3025C105.276 13.5125 107.796 13.6025 110.306 13.7825C112.256 13.9125 113.396 14.0925 115.306 13.8125C116.026 13.7025 116.946 13.6525 117.606 13.4825C117.876 13.4125 118.216 13.1825 118.496 13.0425C118.806 12.8825 119.106 12.8025 119.515 12.7125C120.465 12.4825 122.955 11.9426 123.645 11.4926C123.895 11.3226 124.205 11.1526 124.425 10.9926C124.725 10.7926 125.335 9.80262 125.525 9.42262C125.845 8.77264 126.605 8.41265 127.335 7.87266C127.865 7.47267 127.965 7.41267 128.975 7.55267C129.485 7.62267 129.455 7.91266 129.975 7.83266C130.065 7.54267 130.005 7.10268 129.875 6.86269C129.595 6.73269 129.025 6.82269 128.665 6.80269C128.305 6.77269 127.895 6.65269 127.665 6.4627C127.575 5.82271 127.645 5.14273 127.565 4.53275C127.525 4.20275 127.095 3.43277 126.965 3.14278C126.695 2.55279 126.425 2.3428 126.615 1.66282C126.695 1.38282 126.985 0.192853 126.975 0.0428563C125.985 -0.0771408 124.495 0.0628558 123.645 0.362848C123.185 0.522844 122.765 0.71284 122.325 0.852836C121.825 1.00283 117.716 1.31282 117.216 1.15283C116.836 1.03283 116.176 0.782838 115.806 0.732839C114.406 0.552844 115.016 0.472846 114.336 0.322849Z"
            fill="#F6AFCE" />
        <path fill-rule="evenodd" clip-rule="evenodd" class="state-map-path" id="ondo_state_SMj6Ds3VV"
            d="M110.576 18.9524L101.226 18.8624C101.136 19.9924 101.256 20.2324 100.726 20.8723C100.356 21.3223 100.066 21.7923 99.6759 22.2923C98.336 23.9723 96.746 26.1722 95.416 27.9522C95.196 28.2322 93.3761 30.5021 93.3561 30.8521C97.136 31.0021 102.176 31.4721 105.756 31.3021C107.286 31.2221 106.926 31.6421 107.986 31.0721C109.166 30.4421 112.006 28.8021 113.036 28.3622C113.616 28.1222 116.416 27.0422 116.696 26.7822L119.195 24.1223C119.495 23.7723 119.565 23.8623 119.565 23.2123C119.565 22.5223 119.585 22.6423 119.335 22.1023C118.245 19.6824 118.345 20.4624 118.255 17.9524C117.025 17.6424 115.926 18.7424 114.806 18.7924C113.446 18.8624 111.936 18.9524 110.576 18.9524Z"
            fill="#91D8F7" />
        <path fill-rule="evenodd" clip-rule="evenodd" class="state-map-path" id="ondo_state_YAx2WE12b"
            d="M47.6672 40.0819H44.1073C42.8773 40.0819 40.7673 39.5919 40.3574 39.8919C39.8574 40.2519 40.0574 40.2619 39.2774 40.3119C39.1974 41.4818 39.8074 41.4318 39.1974 42.5618C38.9574 42.9918 38.3874 43.9518 38.3374 44.5418C38.6774 44.7918 38.5674 44.8318 39.0674 45.0217C39.8574 45.3117 41.2373 45.9317 41.8073 46.0817C45.3472 46.9817 45.6172 47.1217 45.3572 50.0116C45.3072 50.6016 45.0472 51.4916 44.9272 52.1116C44.6672 53.5515 44.4073 55.0915 44.2673 56.5915L45.7172 57.6714C46.2172 58.0214 46.6772 58.3314 47.1372 58.7214C47.5672 59.0714 47.9572 59.6114 48.4572 59.8814C48.5471 59.9314 49.8971 60.6914 50.0171 60.6914C50.0971 60.0914 49.9471 59.4714 50.2671 59.0614C50.4871 58.7914 50.8771 58.3814 50.9871 57.9014C51.2371 56.7915 51.4971 55.9215 51.6871 54.7915C51.9071 53.4315 51.2671 53.9615 50.8671 51.9216C50.7571 51.3616 50.7471 50.8316 50.6071 50.3016C50.4071 49.5316 50.3771 49.3916 50.4071 48.5517C50.4671 46.9717 50.1771 46.8217 51.4071 45.7817C53.897 43.6718 53.847 41.9318 53.947 38.8319C53.957 38.5219 53.967 38.2019 53.977 37.8919C53.987 37.4219 53.887 37.4319 53.777 37.0719C53.277 37.2819 52.987 37.8719 52.657 38.2719C52.3171 38.6919 50.5171 39.7319 49.6971 39.8419C49.0171 39.9419 48.3372 40.0819 47.6672 40.0819Z"
            fill="#91D8F7" />
        <path fill-rule="evenodd" clip-rule="evenodd" class="state-map-path" id="ondo_state_hQIwDhFmc"
            d="M101.646 13.6125C101.526 14.7725 100.926 17.4724 101.106 18.4924C102.656 18.5624 104.066 18.5224 105.626 18.5324L113.056 18.5824C114.086 18.5924 114.366 18.5624 115.226 18.2824C117.346 17.5724 117.166 17.6624 119.425 17.5924C120.405 17.5624 128.545 17.2224 128.735 17.1124C128.885 16.8724 128.795 16.4525 128.895 16.1425C129.325 16.1225 129.985 16.2225 130.305 16.0725C130.495 15.8525 130.535 15.4525 130.695 15.2025L133.305 15.1925C133.185 13.9225 132.015 12.7025 131.215 11.4926L128.835 8.10266C128.655 7.82267 128.425 7.55268 127.865 7.79267L126.175 8.99264C125.885 9.19264 125.255 10.3326 125.035 10.7326C124.705 11.3526 124.055 11.7126 123.435 12.0826C122.815 12.4526 120.765 12.5526 119.875 12.8725C119.545 12.9925 119.265 13.2325 118.945 13.3425C118.566 13.4625 118.176 13.5525 117.786 13.6725C117.266 13.8425 115.976 14.0325 115.346 14.1125C113.496 14.3625 114.696 14.3625 112.596 14.2625C110.826 14.1825 109.016 14.0325 107.226 13.9225C106.076 13.8425 102.546 13.5925 101.646 13.6125Z"
            fill="#9DD3AF" />
        <path fill-rule="evenodd" clip-rule="evenodd" class="state-map-path" id="ondo_state_QfM4pm5KZ"
            d="M80.8965 46.5217C80.7665 46.2017 79.4965 44.4618 79.2265 44.0618C78.8965 43.5718 78.7165 43.4518 78.2565 42.9418C77.9865 42.6518 77.5565 42.1618 77.2265 41.8318C76.8766 41.4818 76.4566 41.1618 76.1066 40.8718C75.5666 40.4419 75.5266 40.4419 74.7366 40.1619C74.0566 39.9119 73.9366 39.8219 73.4066 39.4219C72.9867 39.1119 72.5667 38.8219 72.1367 38.5419C69.9867 37.1519 69.5567 36.242 68.3768 33.922C67.5968 32.3821 68.0868 32.4921 67.4468 30.7121C67.1668 29.9321 66.6168 28.3322 66.1568 27.7722C65.7568 27.9422 65.6468 28.2522 65.3768 28.4622C65.1768 28.6321 64.6869 28.8721 64.4069 29.0321C63.7569 29.3921 63.0969 29.7721 62.3469 30.0621C61.9069 30.2221 61.5869 30.2321 61.2069 30.4621C60.197 31.0521 59.457 31.6321 58.727 32.6021C58.347 33.102 58.337 32.922 58.307 33.732C58.237 35.662 58.227 35.132 59.867 36.8119C61.6969 38.7019 63.6369 40.0919 65.7168 41.6818C66.0768 41.9518 66.3268 42.0018 66.7768 42.1618C67.5468 42.4318 68.0568 42.8918 68.6768 43.3418C69.2867 43.7718 69.8767 44.2018 70.4967 44.6118C71.1667 45.0617 71.8567 45.3517 72.7167 45.4817C73.5766 45.6017 74.5566 45.6817 75.4066 45.8617C76.2866 46.0517 80.0765 46.5417 80.8965 46.5217Z"
            fill="#91D8F7" />
        <path fill-rule="evenodd" clip-rule="evenodd" class="state-map-path" id="ondo_state_kUi5Y06EI"
            d="M52.1671 24.2123C52.5571 24.4122 53.0171 24.4922 53.4271 24.7022C53.597 24.7922 54.117 25.3422 54.317 25.5422C54.937 26.1722 54.947 31.0821 54.757 31.9121C54.607 32.592 54.357 34.452 54.457 35.142L58.0069 35.332C58.0569 34.892 58.0569 34.352 58.0769 33.932C58.0969 33.442 58.0269 32.962 58.2869 32.642C58.7469 32.0721 59.2869 31.4821 59.7669 31.1021C61.7968 29.4621 61.1369 30.5321 63.7968 29.0921C64.0868 28.9421 64.4168 28.7321 64.7268 28.5621C66.4167 27.5922 66.3567 26.0922 66.9567 24.7522C67.3467 23.8823 67.5167 21.3323 67.2267 20.7223C65.7268 20.6223 63.7468 20.8323 62.2068 20.8623C61.1369 20.8823 60.7669 21.0223 59.8469 20.6723C59.5069 20.5523 59.2669 20.4623 58.9469 20.3123C58.6969 20.1824 58.2569 19.9524 58.0269 19.9124C57.507 19.8124 56.037 19.7124 55.687 19.9124C55.107 20.2423 54.577 20.5923 54.067 20.9123C53.3171 21.3723 53.2171 21.5323 52.7071 22.1623C51.9171 23.1323 52.2171 22.8523 52.1671 24.2123Z"
            fill="#9DD3AF" />
        <path fill-rule="evenodd" clip-rule="evenodd" class="state-map-path" id="ondo_state_kGMmuGF2b"
            d="M118.545 17.9224C118.395 19.5724 118.875 20.5623 119.565 22.0123C119.645 22.1823 119.775 22.4123 119.805 22.6323C119.835 22.8123 119.815 22.8423 119.815 23.0123L119.855 23.3223C119.855 23.3423 119.865 23.3623 119.875 23.3723C119.985 23.6523 120.265 23.2723 120.785 23.7323C122.655 25.3822 121.885 24.4022 123.035 25.1022C124.515 26.0022 124.155 25.8822 125.075 26.6822C125.505 27.0622 126.055 27.7322 126.455 27.7522C126.975 27.7722 128.325 27.4622 128.655 27.5222C128.895 27.5622 129.135 27.8622 129.395 27.9922C129.825 28.2022 130.955 28.3621 131.475 28.1722C132.045 27.9622 133.075 27.6422 132.905 27.1022C132.255 26.2422 132.215 26.9722 132.305 25.4222C132.345 24.7922 131.865 24.2023 131.605 23.7623C131.335 23.2923 131.415 23.3523 131.935 22.1823C132.125 21.7423 132.545 20.9823 132.585 20.4523L130.615 20.3523C130.335 19.9224 130.555 19.0924 130.195 18.8124C129.575 18.3224 129.475 18.6224 129.475 17.5124C128.875 17.3824 122.545 17.7624 121.305 17.7924C120.465 17.8024 119.385 17.8324 118.545 17.9224Z"
            fill="#D2E28B" />
    </svg>