<svg viewBox="0 0 118 127" fill="none" xmlns="http://www.w3.org/2000/svg">
        <path fill-rule="evenodd" clip-rule="evenodd" class="state-map-path" id="osun_state_dOHOgjksk"
            d="M61.2108 77.3973C61.5508 75.2873 60.8708 74.8474 60.8508 73.6374C60.8408 72.1174 60.9208 72.5574 61.5108 71.4474C61.7808 70.9275 62.1708 70.7475 62.4508 70.2475C62.6108 69.9575 62.5808 70.0575 62.7508 69.8075C63.0008 69.4475 63.1408 68.0375 63.2408 67.4775C63.3008 67.1276 63.0508 65.0676 62.7808 64.5376L61.9308 61.7477C61.8108 61.4477 61.6308 61.0977 61.5408 60.7377C61.3908 60.1677 61.4008 60.1377 61.3308 59.4977C61.2508 58.7978 60.3008 57.3978 59.8008 56.8478C59.2709 56.2678 58.3309 56.2978 57.5809 56.4678C56.9609 56.6078 56.8309 57.7678 55.5609 58.7278C54.891 59.2377 54.891 58.9678 54.431 59.6777C53.981 60.3777 53.181 60.8077 52.471 61.2677C50.7111 62.4177 48.2811 62.7677 46.6012 63.9176C46.2612 64.1476 46.0412 64.2476 45.7812 64.4976C44.9312 65.2976 45.3912 65.7176 44.4612 67.4775C44.2712 67.8375 44.1812 67.9075 43.8412 68.0775L42.6813 68.5075C42.4113 68.6075 41.8713 68.7775 41.7013 68.9275C41.5713 69.0375 41.0913 69.5175 41.0413 69.6475C40.7313 70.4775 40.9313 71.1375 41.0013 72.0474C41.1213 73.7274 41.4613 74.0874 41.4713 74.4674C41.5113 75.1574 40.8913 75.9573 40.6813 76.4773C40.4013 77.1273 40.2713 77.9273 39.8813 78.5173C39.6613 78.8473 39.4613 79.0473 39.4213 79.4972C39.3113 80.6272 39.4613 80.7772 39.9713 81.6572C40.1413 81.9572 41.8413 83.4371 42.2513 83.6571C43.1713 84.1471 43.2213 83.9871 43.5412 85.1971C43.7012 85.7771 43.7212 85.6271 43.4412 86.2171C43.1713 86.7871 42.8913 87.557 42.5113 88.107C42.3613 88.337 41.9413 88.547 41.7213 88.767L42.1913 90.837C42.2413 91.047 42.2813 91.117 42.3313 91.297C42.3813 91.4669 42.3913 91.6569 42.4513 91.8369C42.7913 92.9569 42.8713 94.0869 42.8513 95.2969C42.8413 96.1768 43.0213 96.9068 42.5213 97.5268L41.4413 97.5168C41.2313 98.1468 41.2013 99.0668 41.2513 99.7667C41.2913 100.197 41.3513 100.097 41.4113 100.437C41.6713 101.867 41.3813 103.717 41.2813 105.137C41.2513 105.667 41.2713 106.257 41.2613 106.797C41.2513 107.517 41.0613 107.557 41.2113 108.167C41.5313 109.477 41.8313 109.427 40.5913 110.266L40.6013 112.216C40.0313 112.476 39.8113 113.086 39.5213 113.626C38.6514 115.236 38.9914 114.246 38.3114 116.206C38.2114 116.496 38.0214 116.746 37.8514 117.006C36.8514 118.456 38.1514 119.846 38.2714 120.696C38.3214 121.036 38.0914 121.266 38.0514 121.686C38.0114 122.076 38.0214 122.586 38.0214 122.996C38.0314 123.746 37.9114 123.616 37.8514 124.066C37.7814 124.506 37.9614 124.716 38.0614 125.146C38.1614 125.536 38.5414 125.946 38.7914 126.316C38.9114 126.506 38.9714 126.556 39.1314 126.626C39.5413 126.446 39.8813 126.046 40.1313 125.816L41.2513 125.026C42.5813 124.336 42.2513 123.966 43.4812 123.526C43.8412 123.396 44.4512 123.116 44.8312 123.076C47.1512 122.796 46.5912 123.236 47.5911 124.046C47.8211 124.226 48.0311 124.186 48.3111 124.246C48.8711 124.386 48.9711 124.276 49.4411 124.126C49.6811 124.056 49.5711 124.056 49.7611 123.986C50.2011 123.826 50.0411 124.006 50.4011 123.686C50.8511 123.286 51.0511 123.256 51.641 123.026C52.061 122.856 52.551 122.606 53.011 122.576C54.651 122.466 54.681 122.206 56.2409 122.756C56.4909 122.846 56.7409 122.846 57.0009 122.756C57.8509 122.466 58.2909 122.116 59.3009 122.136C59.9308 122.146 60.4108 122.156 60.9108 122.416C61.1408 123.216 60.7708 123.176 60.7508 123.936L61.0908 123.706C61.2208 123.616 61.3008 123.556 61.4308 123.466C61.9308 123.106 62.5908 123.196 63.1008 122.896C63.3408 122.746 63.5807 122.646 63.8007 122.496C63.1208 121.866 62.4308 121.086 61.5608 120.636C61.4108 120.556 61.4008 120.556 61.2708 120.446C61.0708 120.276 61.0008 120.206 60.7708 120.036C60.0208 119.476 59.1109 118.766 58.8009 117.876C58.6909 117.536 58.7709 117.816 58.6509 117.536C58.0609 116.246 58.1509 113.856 57.8009 113.646C57.1009 113.216 56.2709 113.716 55.6109 113.456C55.091 113.256 54.791 113.026 54.241 113.316C52.551 114.216 53.271 113.646 52.421 113.956C52.041 114.096 51.911 114.106 51.451 114.016C51.1311 113.526 50.7711 113.116 50.5411 112.576C50.2311 111.856 50.4711 112.216 49.9111 111.636C49.6011 111.316 49.5111 111.386 49.1511 111.166C48.2011 110.586 48.3311 111.196 47.7411 110.576C47.4111 110.246 47.3411 109.906 47.4511 109.497C47.8811 107.827 48.9711 108.127 49.4811 105.827C49.6311 105.147 49.5011 105.257 49.8611 104.537L50.1211 103.977C50.2811 103.637 50.3711 102.227 50.4311 101.757C50.4711 101.447 50.5311 101.517 50.6211 101.277C51.0011 100.257 51.2111 100.067 52.111 99.4368C53.011 98.7968 52.831 98.9268 53.371 98.1868C53.291 97.7668 53.331 98.0968 53.201 97.7768C53.351 97.5468 53.591 97.3568 53.691 97.0568C53.921 96.3968 53.721 95.4469 53.861 94.7469L54.291 92.6469C54.351 92.0769 54.601 92.2269 54.501 91.6769C54.401 91.167 53.951 90.657 54.541 90.047C54.611 89.977 54.661 89.927 54.711 89.877L57.0609 87.2671C58.0809 86.2171 57.9309 86.1771 58.4409 85.0971C58.9809 83.9171 59.0609 83.6071 59.5508 82.7372C61.0308 80.0672 60.6908 80.5972 61.2108 77.3973Z"
            fill="#F6AFCE" />
        <path fill-rule="evenodd" clip-rule="evenodd" class="state-map-path" id="osun_state_OglXyulfe"
            d="M73.0605 78.1273C71.5006 78.7873 72.3506 81.5972 68.1607 81.8372C67.3707 81.8872 66.9307 82.2872 66.8307 82.3872V82.4072H66.7907L66.8307 82.4872C66.8307 82.5572 66.8207 82.5572 66.8707 82.6072C67.1307 83.5172 67.8107 85.4871 67.8107 86.1671H67.7907C67.6607 90.367 66.5807 88.257 66.4007 93.1469H66.3607L66.2807 93.6569H66.2407C66.2407 93.7269 66.2607 93.7169 66.2107 93.7669C66.2107 95.3969 64.9307 96.6668 63.2708 96.6668V96.6268L63.0308 96.5168C63.0308 96.4968 62.6008 94.9569 62.6008 94.0069C62.6408 93.9169 62.6408 93.9369 62.6408 93.8469C62.6408 93.7769 62.6308 93.7869 62.6808 93.7269L62.7608 92.9869C63.3908 92.9869 62.0708 91.157 62.0108 91.067H61.9808V90.947H61.9408V90.047H61.9808V89.967H62.0108L62.0508 89.737C62.1108 89.687 62.0908 89.687 62.0908 89.617H62.1308V89.577L62.1708 89.497C62.2208 89.447 62.2108 89.457 62.2108 89.387C62.7008 88.897 62.8308 87.7171 63.1108 87.1471C63.8608 86.4071 62.6408 85.0071 62.2908 84.1771L61.3508 84.0971C60.7108 84.4371 59.9009 84.3471 59.2309 84.3871V84.4571L59.0409 84.7471C59.0109 84.8371 58.9809 84.9271 58.9409 85.0271C58.3309 86.6271 57.8009 87.1271 56.631 88.327L54.651 90.587C54.731 91.227 55.071 91.987 54.741 92.8069C54.511 93.3869 54.201 96.0669 54.181 96.6168C54.141 97.8868 53.921 97.2868 53.771 97.8768C53.641 98.3568 53.941 98.5968 52.771 99.4368C52.5711 99.5768 52.4511 99.6768 52.2611 99.8268C50.9911 100.767 51.3611 100.667 50.9411 101.917C50.6911 102.647 50.8811 102.837 50.7511 103.467C50.5711 104.417 49.9511 105.047 49.8711 106.047C49.8411 106.397 49.6111 107.087 49.4711 107.287C48.9911 107.997 48.3012 108.427 47.9812 109.267C47.7412 109.917 47.7612 109.947 48.1412 110.466C48.5212 110.486 48.6811 110.416 48.9811 110.566C49.0511 110.596 49.5311 110.846 49.5911 110.886L50.6211 111.746C50.9111 112.066 50.9711 112.586 51.2211 112.976C51.6411 113.616 51.4911 113.616 52.2711 113.506C53.941 113.286 54.341 112.486 55.051 112.756C55.851 113.066 55.511 113.046 56.571 113.036C57.3409 113.036 57.7009 112.926 58.1209 113.426C58.7709 114.206 58.2809 114.866 58.8009 116.476C59.4209 118.426 59.4809 118.476 61.0408 119.766C61.4008 120.066 61.8508 120.236 62.2008 120.516L64.1808 122.266C65.4707 121.656 65.9507 120.446 66.5507 119.236C66.9807 118.386 67.1607 116.286 67.7407 114.966L69.0606 112.656C69.6606 111.956 72.0906 109.577 72.7806 109.117C73.1005 108.897 73.4805 108.627 73.8505 108.357C74.5305 107.847 74.8605 107.807 75.3905 107.177C75.6105 106.927 75.6005 106.957 75.9305 106.787C76.3405 106.577 76.7705 106.307 77.1404 106.197C76.9205 105.207 76.7405 104.957 76.7305 103.727C76.7105 101.687 76.6605 102.397 77.9704 100.657C78.7504 99.6168 79.0004 99.9168 79.5904 99.3768C79.6504 99.3268 79.8904 99.0668 79.9504 98.9968C80.0904 98.8368 80.1404 98.7668 80.0804 98.4868C79.1604 98.4768 78.6204 98.1968 77.9504 97.8968C77.3704 97.6468 76.8605 96.9368 76.4505 96.5868C75.7205 95.9669 74.7205 95.9769 74.7305 94.0669L74.7105 91.327C74.6705 90.697 74.5505 90.787 74.4605 90.237C74.3805 89.737 74.2605 89.547 74.2205 89.017C74.1205 87.9071 74.8105 87.4271 75.2305 86.5171C75.3205 86.3271 75.3805 86.1871 75.4705 85.9971C75.6305 85.6571 75.8405 85.3671 75.9705 85.1071C76.9804 81.8772 73.5405 77.9273 73.0605 78.1273Z"
            fill="#9DD3AF" />
        <path fill-rule="evenodd" clip-rule="evenodd" class="state-map-path" id="osun_state_mSWPKV0cU"
            d="M29.8516 63.9977C30.0116 64.2777 30.0716 64.6676 30.1916 64.9876C30.3616 65.4776 30.2916 65.2576 30.1716 65.6576C29.9516 66.3676 29.7116 66.9776 29.3216 67.5476C29.1816 67.7576 29.0316 67.8576 28.8816 68.0976C28.7616 68.3076 28.6816 68.5075 28.5716 68.6975C28.3616 69.0775 28.4316 68.8875 28.2916 69.3275C28.0316 70.1775 27.3917 70.9075 26.9417 71.6275C26.7017 72.0175 26.2917 72.3175 26.0617 72.6474C26.2817 72.7574 26.5117 72.8474 26.8117 72.8974C27.3517 72.9774 27.1717 73.0074 27.5317 73.1274C28.4416 73.4374 30.0116 73.0274 30.8216 74.0074C31.2116 74.4774 31.1816 74.5174 31.3016 75.0274C31.4016 75.4274 31.5516 75.2574 31.2916 75.6274L31.1916 75.7874C31.1416 75.8574 30.9516 76.1274 30.8916 76.2274C30.6516 76.6573 31.0416 76.9073 31.2616 77.1273C31.9915 77.8573 32.0215 77.9773 31.5816 78.9073C31.1616 79.8273 31.1416 79.8273 31.6216 80.7272C31.7015 80.8672 31.7915 81.0072 31.8715 81.1472C32.1615 81.5872 32.6715 82.8472 32.9715 83.0972C33.8615 83.8572 33.3015 83.1072 33.9315 85.1471C34.0115 85.4371 33.9515 85.4371 34.0815 85.7171C34.3315 86.2771 34.3115 86.8971 33.6915 87.2171C33.2015 87.4671 32.9115 87.2171 31.9815 88.0671C31.7715 88.2671 31.9915 88.1471 31.7415 88.2071C31.1316 88.3571 31.1316 88.0471 30.4116 88.3971C28.8116 89.197 29.8216 89.047 29.4316 90.047C29.3716 90.207 29.1016 90.457 28.9616 90.737L28.2016 92.227C27.8316 92.9769 27.3417 93.6969 27.1917 94.5569C27.0417 95.4369 26.2117 95.9369 25.4117 96.1469C24.9117 96.2769 24.3317 96.5669 23.8117 96.7769L21.3118 97.6468C20.8418 97.7468 20.4218 97.4568 19.9518 97.6268L17.3819 98.4068C16.6819 98.5168 16.1819 99.1168 15.5419 99.4068C15.102 99.6068 14.962 99.4868 14.502 99.5468C14.162 99.5968 13.472 100.217 13.092 100.347C12.762 100.457 12.522 100.277 12.192 100.217C11.4121 100.067 10.9621 99.2068 10.3621 98.7568C9.80209 98.3468 8.89211 97.4268 8.26213 97.3368C7.99214 97.8868 7.80214 98.7968 7.56215 99.4368C7.45215 99.7468 7.48215 99.9768 7.39215 100.277C6.76217 102.217 6.95216 103.177 6.60217 104.267L5.92219 107.387C5.85219 107.697 5.89219 108.007 5.83219 108.317C5.70219 108.977 5.5822 109.287 5.61219 110.117C6.61217 110.177 6.41217 109.907 6.99216 109.537C7.41215 109.277 7.91214 109.277 8.39213 109.027C11.0021 107.707 9.6421 108.547 11.672 106.617C12.002 106.287 12.542 106.097 13.152 106.227C13.262 106.257 14.342 106.707 14.492 106.797C14.952 107.067 15.372 107.897 15.6519 108.447C15.8919 108.907 16.2819 110.137 16.2919 110.667C16.3119 111.956 16.2619 113.196 16.2919 114.476C16.3019 114.826 16.2819 114.986 16.4019 115.286C16.9719 116.736 16.7019 116.066 18.0219 116.566C18.5419 116.776 19.6818 116.486 20.2118 116.206C20.9018 115.856 21.5218 115.116 22.2718 114.746L24.4017 113.716C24.8617 113.506 24.9717 113.246 25.5317 112.956L27.0617 112.606C27.6817 112.556 30.2516 112.506 30.7316 112.716L31.7615 113.076C32.2115 113.216 33.3515 113.526 33.5515 113.686C33.9315 113.986 34.0815 114.466 34.2315 114.886C34.3715 115.306 34.5915 115.786 34.8215 116.246C35.0315 116.686 35.2015 117.126 35.4115 117.536C35.5115 117.736 35.5915 117.966 35.6915 118.166C36.7714 120.256 36.8314 119.966 37.3414 122.286C37.4014 122.546 37.3614 122.996 37.4814 123.166C37.5914 122.726 37.4614 122.206 37.5314 121.746C37.5914 121.356 37.6014 121.586 37.6914 121.316C37.9714 120.436 36.9714 119.116 37.0614 117.696C37.1014 117.056 37.5214 116.876 37.8214 116.316C38.0214 115.926 38.0914 115.156 38.3514 114.706C38.6314 114.226 38.9114 113.936 39.1814 113.376C39.3014 113.146 39.4014 112.896 39.5814 112.696C39.8214 112.426 40.1213 112.256 40.2013 111.986C40.2313 111.876 40.2213 111.876 40.2313 111.756C40.3813 109.237 39.7314 110.787 41.1013 109.357C40.8913 108.717 40.5713 107.997 40.7113 107.287C40.7813 106.907 40.8613 107.107 40.8913 106.707C41.0113 105.427 40.7613 103.887 40.9413 102.577C40.9813 102.327 41.0613 102.207 41.0913 101.907C41.1513 101.397 40.9213 101.357 40.9113 100.507C40.9013 99.7968 40.7313 99.6968 40.8413 99.0068C40.9213 98.4168 40.8913 97.9068 40.9213 97.3268C41.2613 97.1268 41.1213 97.1168 41.5213 97.0968C41.8213 97.0768 42.0013 97.1368 42.3213 97.0868C42.3413 96.4369 42.4213 95.8869 42.4713 95.2669C42.5513 94.3569 42.3313 94.2569 42.2913 93.4769C42.2113 92.167 42.2913 93.0269 42.0913 92.227C42.0413 92.057 42.0613 91.937 42.0213 91.777L41.3613 89.437C41.3213 88.5071 41.3413 88.6171 41.9913 88.0771C42.3613 87.7571 43.2813 85.8171 43.1513 85.3271L42.8813 84.4672C42.6513 84.3372 42.4113 84.2072 42.1813 84.0772L41.0113 83.1672C40.4313 82.6172 39.8214 82.2372 39.4214 81.5472C38.3014 79.6073 38.9414 79.5473 39.6814 77.9873C40.0413 77.2173 40.1913 76.3474 40.6113 75.5974C40.8413 75.1874 41.0013 74.8974 40.9613 74.3974C40.9213 73.8174 40.7213 73.6874 40.6713 73.0674C40.5513 71.6175 39.9513 70.1275 41.0613 69.0475C41.9313 68.2076 42.0013 68.3176 43.1913 67.8576C43.6613 67.6776 43.8913 67.7376 44.1212 67.2176L44.5712 65.9876C44.6212 65.7476 44.8312 65.0376 44.9912 64.8676C45.2612 64.5976 45.4512 64.2177 45.7612 63.9777C45.9512 63.8377 45.9912 63.8577 46.2112 63.6877C46.8912 63.1377 47.9211 62.7777 48.7611 62.4277L51.0611 61.5177C51.911 61.1077 52.631 60.7177 53.361 60.1678C54.011 59.6778 53.681 59.9678 54.171 59.3278C54.441 58.9878 54.601 58.7778 54.991 58.5678C55.671 58.2078 56.3409 57.6378 56.5709 56.8478C56.7009 56.3878 56.9809 56.0279 57.0309 55.5679C56.6209 55.5879 57.0709 55.5379 56.8509 55.5979L56.3309 55.7979C55.721 56.0579 55.141 56.2879 54.491 56.4278C53.901 56.5478 53.661 56.3978 53.031 56.6078C52.351 56.8378 52.301 56.4378 50.8211 56.9678C49.9611 57.2778 49.7311 57.3978 48.7211 57.3278C48.2911 57.2878 47.7712 57.1678 47.4112 57.0078C46.7512 56.7178 46.1212 56.9178 45.5512 57.1278L44.5412 57.4078C44.2712 57.4778 44.2612 57.5578 43.9212 57.5978L41.6313 57.8278C40.9713 57.8778 41.0713 58.1178 40.2113 57.8978C39.8513 57.8178 39.5214 57.4578 39.2614 57.2178C38.7514 56.7278 38.5314 56.2579 38.4114 55.5479C38.3514 55.2179 38.2814 55.2879 38.2214 54.9479C38.1014 54.2479 38.3014 54.0779 37.8114 53.6579C37.4314 53.6479 36.4114 53.7579 36.1314 53.9379C35.9214 54.0779 35.7914 54.2579 35.5715 54.3579C35.1515 54.5379 35.1615 54.4179 34.9015 54.7879C34.8215 55.8079 35.1115 55.8379 34.3315 56.3678L31.4616 58.9278L29.8116 62.6877V63.1477H29.7916V63.2977H29.7716V63.3177L29.7516 63.3377C29.7516 63.3977 29.7516 63.3877 29.7316 63.4377L29.7516 63.5577V63.7177L29.8516 63.7877V63.9977Z"
            fill="#D2E28B" />
        <path fill-rule="evenodd" clip-rule="evenodd" class="state-map-path" id="osun_state_SGFstuzNy"
            d="M14.692 59.1578C16.1819 57.6678 16.4419 57.8978 18.7319 56.7078L22.6718 54.8479C22.8818 54.7279 23.2017 54.4679 23.3417 54.3879C23.5717 54.2579 23.8817 54.1779 24.1217 53.9979C24.3917 53.7879 24.4117 53.6279 24.7717 53.4679C25.3317 53.2179 25.8117 52.9579 26.1617 52.4679C26.1417 52.4579 26.1117 52.4279 26.1017 52.4479C26.0517 52.5379 24.5717 52.0179 24.5017 51.9879C22.2118 50.908 23.3517 51.358 21.7618 50.248C21.4918 50.058 21.3818 49.958 21.1918 49.738C20.6018 49.078 20.2518 48.358 19.6318 47.908C19.3018 47.678 18.7019 47.1281 18.5119 46.7981C18.2419 46.3281 17.8719 45.9881 17.4719 45.6081C16.9519 45.1181 16.9319 44.8081 16.5819 44.2681C16.2919 43.8181 15.8219 43.6581 15.4119 43.2882C15.1619 43.0682 15.0819 42.9882 14.822 42.7882C14.082 42.2182 14.012 42.4982 13.152 42.2382C12.382 42.0082 10.7921 42.3482 9.94207 42.4082C8.8921 42.4882 9.67208 42.8182 8.21212 42.3982C7.67213 42.2382 7.55213 41.5382 6.41216 40.8782L5.07219 39.9782C4.8822 39.8082 4.6622 39.5382 4.41221 39.4382C3.94222 39.6982 4.08222 40.2682 3.93222 40.7382C3.66223 41.6182 3.67223 43.2682 3.50223 43.7981C3.29224 44.4781 2.95225 45.0381 2.71225 45.6281C2.46226 46.2581 2.27226 46.8881 1.77228 47.3581C1.61228 47.518 1.52228 47.568 1.34229 47.748C-0.497668 49.558 0.0423191 48.698 0.182316 50.488L0.662304 52.3479C0.892298 52.8979 3.84223 55.1579 4.48221 55.4579L5.44219 56.0678C6.33216 56.5878 6.83215 57.1078 7.39214 57.9178C7.89213 58.6478 9.27209 60.4477 9.48209 61.1777C9.60208 61.5877 9.86208 62.5777 10.0821 62.9277L10.5221 63.3277C11.042 62.9677 14.012 59.8477 14.692 59.1578Z"
            fill="#F6AFCE" />
        <path fill-rule="evenodd" clip-rule="evenodd" class="state-map-path" id="osun_state_o4NZqdKBG"
            d="M10.902 64.0576C11.692 65.0476 11.442 65.2676 12.732 65.9676C13.112 66.1776 13.262 66.3176 13.552 66.5376C13.572 67.3676 13.072 68.7375 13.402 69.5075C13.532 69.6375 14.122 69.5475 14.332 69.5275C14.7619 69.4875 14.542 69.5075 14.7919 69.2975C15.0219 69.1175 15.2719 68.9575 15.5219 68.7875C15.8819 68.5575 15.8819 68.6575 16.3119 68.5975C16.9719 68.4975 16.8219 68.2375 18.1319 68.3875C18.5819 68.4475 18.5319 68.5575 18.9118 68.5975C19.2618 68.6375 19.5818 68.5675 19.9318 68.6775C20.7118 68.9175 20.6918 68.7975 21.2418 69.3675C21.8518 69.9775 21.8118 70.1075 22.1618 70.5175C22.2918 70.6575 22.5018 70.8375 22.6418 71.0175C23.7817 72.4574 23.1717 72.3174 22.9617 73.1374C23.2117 73.1974 23.7017 73.4474 23.8317 73.5574C24.2517 73.2574 24.7417 73.1174 25.1217 72.7774L25.7617 72.3374C26.4017 71.8375 26.7017 71.1675 27.1816 70.5275C27.8816 69.5975 27.9416 68.7975 28.6516 67.7776C29.1416 67.0776 29.4316 66.4276 29.7316 65.6376C29.9116 65.1376 29.6716 64.8176 29.5016 64.4176C29.4816 64.3576 29.4516 64.3076 29.4316 64.2576L29.2816 64.1876C29.2516 64.1276 29.2416 64.1176 29.1816 64.0876C29.1816 64.0476 29.1616 64.0676 29.1616 64.0276C29.1316 63.9976 29.1016 63.9776 29.1016 63.9276L29.0616 63.0677C29.0816 63.0177 29.0816 62.9677 29.1216 62.9277L29.1416 62.8677C29.0616 62.3677 30.9115 58.2278 32.2515 57.3378L34.4715 55.7579C34.5315 54.8879 34.2615 54.2579 35.4814 53.8679C36.0714 53.6779 35.6214 53.4879 36.4714 53.3979C36.8514 53.3679 37.3414 53.2679 37.6914 53.1779C37.6714 53.0379 37.6614 53.0779 37.6414 53.0379C37.1514 51.9279 37.5414 52.7179 37.5014 51.7179C35.8314 51.7279 36.1814 51.608 35.0014 50.998C34.6215 50.798 34.4115 50.528 34.1115 50.218C33.2715 49.368 33.5415 49.308 32.7215 49.708C32.2415 49.938 32.0615 50.258 31.5315 50.348L29.3816 50.918L27.4216 52.0079C26.1317 52.8179 26.1317 53.4079 25.0817 53.8079C24.5217 54.0179 24.4517 54.2079 23.9817 54.5279L22.9017 55.1779C22.5118 55.4679 22.0218 55.4679 21.6518 55.7479C21.3518 55.9778 21.0618 56.0278 20.7218 56.1578C20.0118 56.4178 19.3818 56.8678 18.6619 57.1978C17.0019 57.9378 16.6219 57.9378 15.2719 59.2778C14.672 59.8777 10.4521 63.5077 10.902 64.0576Z"
            fill="#91D8F7" />
        <path fill-rule="evenodd" clip-rule="evenodd" class="state-map-path" id="osun_state_IgmGKope8"
            d="M83.4203 48.678C85.6702 48.738 86.2102 47.7281 87.1902 50.138C87.7102 51.418 88.2802 52.0679 88.6002 53.3479C88.9202 54.6479 89.3402 54.4579 89.3102 55.5279C89.2902 56.3178 89.8301 57.4078 90.1701 58.3878C90.5101 59.3578 90.8001 60.8277 90.9901 61.3077C91.5601 62.7677 90.2401 62.7577 91.2201 64.2876C91.5201 64.7576 91.6901 64.9476 91.8301 65.5976C91.9501 66.1376 92.4001 67.0276 92.6501 67.5776C92.7501 67.7876 92.8501 67.9876 92.9501 68.2475C93.5901 69.9475 94.04 70.8275 93.3201 72.6574C93.0301 73.4074 92.7601 73.6574 92.3701 74.5474L92.0801 75.1374C91.7901 75.7374 91.4001 77.7873 91.2801 78.1373C90.8501 79.3673 91.1801 80.1373 91.6201 81.2672L93.1001 84.4871C93.6501 85.4571 93.5801 85.2571 94.24 86.1471L95.31 87.8971C96.05 88.927 95.79 89.427 96.59 89.507C96.85 89.127 97.06 87.8571 97.18 87.2871C97.25 86.9371 97.27 87.1071 97.34 86.7771C97.4 86.5371 97.37 86.3771 97.44 86.1471C98.0999 83.8872 97.39 84.7171 98.9799 83.4672C99.6199 82.9672 100.29 82.9572 101.08 82.6672C101.69 82.4372 102.45 82.1472 103.17 81.9572C103.45 81.8772 103.94 81.7272 104.25 81.6172L107.68 80.8472C108.35 80.8272 109.47 80.5772 110.05 80.3372C110.18 79.7473 109.99 78.0073 109.84 77.4773C109.79 77.3173 109.42 76.6273 109.32 76.4373L108.78 75.4274C108.46 74.8074 107.42 72.7274 107.34 72.1474C107.3 71.8575 107.1 71.1575 107.01 70.9075C106.69 70.0275 106.91 67.6476 105.91 65.7176L102.93 59.2778C102.49 58.2478 102.48 58.0678 101.98 57.0778C101.61 56.3678 100.85 55.0879 100.75 54.3779C100.69 53.9679 100.65 54.0879 100.58 53.7779C100.53 53.5479 100.56 53.3079 100.51 53.0779C100.44 52.7079 100.39 52.8879 100.34 52.4679L100.06 50.408C100.02 50.118 99.9499 50.008 99.9099 49.728C99.8399 49.218 99.8999 48.778 99.7699 48.308C99.6199 47.8081 99.6699 47.3981 99.6299 46.8481C99.5799 46.1681 99.2599 46.0381 99.9599 44.3581L100.75 41.9682C99.7199 41.9082 98.9299 41.7282 98.0399 41.4182C97.32 41.1782 97.02 41.8082 95.07 41.4382C93.95 41.2282 89.8401 40.8982 88.9002 41.0382C88.2202 41.1482 87.8602 41.9082 87.6702 42.2282C87.4302 42.6282 86.1802 43.8481 85.7202 44.4081L84.3903 46.3081C84.2703 46.6081 84.1303 47.3181 83.9703 47.5481C83.6903 47.968 83.4103 47.938 83.4203 48.678Z"
            fill="#9DD3AF" />
        <path fill-rule="evenodd" clip-rule="evenodd" class="state-map-path" id="osun_state_oQcnZ2ikE"
            d="M85.7002 61.7277C85.7002 61.9377 85.7102 62.2777 85.6802 62.4777L85.3102 63.5977C84.9002 64.4676 84.5803 64.7876 84.1003 65.4476C83.2203 66.6476 82.4403 66.8076 81.9103 67.8675L81.0403 70.7175C81.1703 72.9074 81.3903 73.0974 81.3903 75.7074C81.3903 76.1773 81.4103 76.1273 81.5003 76.3173L82.0303 78.1373C82.1203 78.5673 82.0803 78.9473 82.2103 79.4073C82.3003 79.7073 82.2503 79.8573 82.2903 80.1672L82.7803 81.9272C82.8403 82.1572 82.8903 82.2472 82.9803 82.5372C83.1703 83.1372 83.7703 83.9072 84.1403 84.4471C84.5303 85.0271 84.8502 85.7771 85.1102 86.5271C85.2402 86.8971 85.3002 87.5371 85.2102 87.9371L84.9502 88.547C84.9402 88.557 84.9302 88.577 84.9202 88.597C84.9102 88.607 84.9002 88.627 84.8902 88.647C84.4603 89.427 84.0703 90.367 83.5203 90.917L81.8403 93.0369C81.3803 93.5969 81.7003 93.4069 81.5903 94.2969L81.2503 95.4969C81.0003 96.0469 80.6703 96.7768 80.6703 97.3668C80.6703 97.8968 80.8003 98.5968 80.4904 98.9468C79.2004 100.397 79.0504 99.8068 78.0704 101.167L77.4204 102.017C77.0404 102.397 77.1904 102.697 77.2504 103.197C77.3804 104.377 77.1704 104.817 77.5704 105.987C78.3704 106.117 78.7104 105.727 79.2904 105.907C79.8504 106.077 80.4904 105.967 81.0503 106.127C81.6003 106.297 82.0403 106.447 82.5103 106.647C83.2903 106.967 83.2503 106.867 83.4903 107.787C84.0403 107.987 83.8603 107.977 84.5103 108.077C84.8502 108.137 84.6503 108.157 84.9702 108.247C85.8902 108.497 85.7302 108.167 87.1002 109.417C87.7802 110.047 89.2901 111.496 90.0101 111.876C90.6701 112.216 91.1001 112.566 91.8801 112.606C92.3901 112.636 92.6601 112.756 93.06 112.796C93.49 112.836 93.76 112.676 94.19 112.626C94.69 112.576 94.67 112.466 95 112.146C95.48 111.666 95.24 111.906 95.39 111.196C95.47 110.776 95.66 110.686 95.5 110.037L95.14 107.617C95.11 106.667 95.64 105.177 95.77 104.227C95.88 103.307 95.58 101.517 95.38 100.637C95.15 99.5668 95.12 98.0068 95.09 96.8668C95.06 95.8569 95.33 95.4269 95.58 94.6369C96.01 93.2169 96 94.4969 96.04 92.4069C96.05 91.997 96.02 91.537 96.11 91.157C96.4 89.907 96.32 90.057 95.64 89.297C95.38 89.017 95.13 88.227 94.73 87.7171C94.51 87.4271 94.45 87.2571 94.25 86.9671C93.77 86.2771 93.81 86.2071 93.23 85.5071C92.4301 84.5371 92.1201 83.2972 91.5701 82.2072C91.5301 82.1272 91.4201 81.9172 91.3801 81.8172C89.9301 78.6973 90.8501 78.8273 91.0101 77.5073C91.2301 75.7074 91.8901 74.6174 92.7101 72.9874C92.7701 72.8674 92.82 72.7374 92.89 72.5974C93.07 72.2574 93.26 71.3175 93.29 71.0675C93.37 70.2475 92.7501 68.9575 92.4401 68.2075L91.6601 66.4976C91.5101 66.1476 91.4701 65.8776 91.3501 65.5776C91.1801 65.1676 91.2301 65.0876 90.9701 64.6876C90.6601 64.2076 90.2101 63.4877 90.4501 62.8777C90.6401 62.4077 90.5101 62.4177 90.7701 61.9777C90.4501 61.4677 90.2001 60.1477 90.0801 59.5078C90.0101 59.1178 90.1001 59.5478 89.9501 59.1878C89.8701 58.9978 89.8901 58.9378 89.8101 58.7478L88.4402 59.1178C88.0902 59.2378 87.5802 59.1478 87.2702 59.2878C87.0802 59.3678 87.3602 59.2778 87.1102 59.3678L85.7602 59.9677C85.6002 60.2177 85.7002 61.3577 85.7002 61.7277Z"
            fill="#F6AFCE" />
        <path fill-rule="evenodd" clip-rule="evenodd" class="state-map-path" id="osun_state_SRb6gwaeY"
            d="M61.5608 52.6779L61.3108 52.8979C60.8408 53.2479 60.9808 53.1979 60.5708 53.5679C59.9908 54.0879 57.8309 55.0379 57.6509 55.3579C57.6209 55.3979 57.4209 56.0078 57.4009 56.0878C57.8609 55.7379 59.5808 55.7179 60.2708 56.7878C60.9808 57.8878 60.6608 57.0778 61.5008 58.7878C61.5608 58.9078 61.5308 58.8378 61.5808 58.9478C61.8908 59.5778 61.8508 59.5478 61.8708 60.1677C61.8908 60.6677 62.3308 61.4877 62.5108 62.0077L62.8507 63.1477C62.9607 63.4277 62.8707 63.0577 62.9907 63.4777C63.0607 63.7677 62.9307 63.6077 63.1207 63.8577L63.5707 64.1276C64.3407 64.4876 63.9807 64.0077 65.5607 64.8076C65.8207 64.9376 65.6307 64.8676 65.8707 64.9676C66.1807 65.0976 66.2807 65.1476 66.5507 65.3076L68.2106 66.6276C68.8406 67.2176 68.5506 67.1676 68.9806 67.8476L69.7606 69.0375C70.3706 70.4075 71.4505 71.7175 70.7405 72.5974C70.4606 72.9474 70.3906 72.7174 70.5206 73.3074C70.9505 73.4874 71.0005 73.4174 71.2705 73.8274L71.8205 74.8474C71.8305 74.8574 71.8405 74.8774 71.8505 74.8974L72.0005 75.1574C72.4205 76.0374 72.7905 77.0073 73.4305 77.7773C73.5605 77.9273 73.4505 77.8073 73.5905 77.9473C76.0104 80.4072 76.4404 81.3872 76.4304 84.8071C76.2704 85.6071 76.3804 85.2071 76.0504 85.8371L74.6405 88.477C74.4605 88.977 74.7804 88.977 74.8104 89.587C74.8104 89.697 74.8104 89.827 74.8304 89.927C74.9404 90.507 74.9004 89.717 75.0504 90.747C75.0704 90.867 75.1204 91.007 75.1304 91.027C75.5304 92.147 74.7505 94.9869 75.6804 95.6069L75.8504 95.6969C77.1904 96.4068 77.3204 97.1568 77.9704 97.4368C78.5204 97.6668 79.4303 98.1168 80.1003 98.0568C80.2303 97.4768 80.0203 97.2368 80.2703 96.6668C80.6803 95.7469 81.0003 95.2569 81.0503 94.3069C81.1003 93.2169 81.4703 92.8369 82.0203 92.057C82.2203 91.777 82.4703 91.397 82.7403 91.117C83.6002 90.207 83.4302 90.427 84.0802 89.237C85.0102 87.4971 84.9102 87.2671 84.2402 85.5471C84.0302 85.0171 83.9302 84.9271 83.6602 84.4971C82.1003 81.9772 82.8103 83.5272 82.1303 81.2072C81.5503 79.2273 81.8203 79.3373 81.6103 78.5273C81.4303 77.7873 81.0503 76.5973 81.0203 75.9474C80.9803 74.9374 80.8303 74.1174 80.8103 72.9774C80.7503 70.6375 80.1103 71.6875 81.3203 68.2075C81.3703 68.0676 81.5003 67.8076 81.5703 67.6476C82.1003 66.4676 83.8702 66.0376 85.0402 63.0177C85.3002 62.3477 85.4602 60.9577 85.2902 60.1277C84.7202 60.0777 84.4802 60.3177 83.5202 60.4977C82.9402 60.5977 83.1002 60.6977 82.2903 61.5677C81.1503 62.7977 81.0303 62.5977 79.9703 62.6077C79.4003 62.6077 79.5103 62.6277 79.1703 62.4377C79.1503 62.4377 79.1303 62.4177 79.1103 62.4077L78.6504 62.0677C78.5004 61.8077 78.5704 61.6177 78.4804 61.3077C78.1804 60.3377 78.3304 60.0677 78.2904 59.1678L77.4804 57.0978C76.9404 56.3478 76.8704 57.0378 76.0004 56.2678C74.8204 55.2179 75.1304 55.8479 74.4705 54.4279L74.0605 53.6679C73.4605 52.3279 74.0105 53.1979 73.1505 52.2679C72.2705 51.328 72.1105 51.428 71.2005 50.818C71.0305 50.698 70.6906 50.478 70.5006 50.378C69.9806 50.138 69.2006 50.008 69.0506 49.478C68.8506 48.828 69.6206 48.318 70.2106 48.288C71.0205 48.248 71.5705 48.378 72.3005 48.168C72.0605 47.7981 71.7605 47.0581 71.2505 46.5481C70.5306 45.8281 70.8005 45.7681 70.4706 45.3481C70.2606 45.0781 70.2606 45.2181 70.1306 44.8681C69.8806 44.8481 69.8906 44.6881 69.7406 44.4181C69.5506 44.0981 68.7006 43.7781 68.5606 43.7681C67.8106 43.7382 68.3206 44.3181 67.4706 43.6482C67.1806 43.4182 66.6806 43.2682 66.3607 43.0082C66.2407 42.9082 66.1307 42.7682 66.0407 42.6782C65.5707 42.1982 65.4907 42.5582 64.7107 42.2582C64.0707 42.0082 63.8607 42.3382 63.7007 42.4182C63.3007 42.5982 63.0307 42.4282 62.6407 42.5182C62.5008 42.5582 62.1108 42.8082 61.8308 42.9182C61.2108 43.1682 61.4508 43.0682 60.9708 42.9082C60.9708 43.4282 61.4508 43.8181 61.6008 44.3781C61.8208 45.1581 61.8108 44.7381 62.0208 45.1981C62.1308 45.4581 62.0808 45.5181 62.2308 45.8181C62.5708 46.4781 62.7807 46.6081 62.8907 46.7981C63.0007 47.0081 62.9907 47.2481 63.0007 47.5081C63.0107 48.068 63.0107 48.678 63.0107 49.248C63.0007 49.978 62.9107 49.618 62.8007 50.088C62.7507 50.288 62.8107 50.008 62.7807 50.238C62.6907 50.788 62.2408 52.2079 61.7908 52.5579C61.6308 52.6879 61.6508 52.6579 61.5608 52.6779Z"
            fill="#91D8F7" />
        <path fill-rule="evenodd" clip-rule="evenodd" class="state-map-path" id="osun_state_rz68U2wSY"
            d="M70.0806 44.3781C70.4506 44.5281 71.0606 45.5981 71.3006 46.0181C71.6606 46.6481 72.2106 46.9881 72.5205 47.688C72.7705 48.238 72.7805 48.098 73.3205 48.258C73.6205 48.348 74.1705 48.608 74.3605 48.638C74.5705 48.668 74.7705 48.628 75.0005 48.678C75.3005 48.728 75.2105 48.788 75.5405 48.868C76.0905 48.998 76.5404 48.848 76.9904 48.918C77.2404 48.958 78.2304 49.588 79.2904 49.208C80.0704 48.918 81.2103 49.198 82.0403 49.048C82.4603 48.978 82.7403 48.858 82.8903 48.528C83.1803 47.878 82.9603 48.098 83.4103 47.5681C83.7303 47.1781 83.6503 47.0581 83.8203 46.5681C84.0003 46.0581 85.2202 44.3781 85.5702 44.0181L87.2402 42.1382C87.4902 41.8182 87.4402 41.5182 88.2302 40.8982C89.1401 40.1982 89.5301 40.7082 90.6301 40.6882C91.5001 40.6782 92.5901 40.6682 93.45 40.7182C93.98 40.7482 93.95 40.9182 94.6 40.9382C95.13 40.9482 95.56 40.9282 96.01 41.0582C96.9099 41.3282 97.4899 40.5882 99.0699 41.2382C99.8199 41.5382 99.7899 41.3082 100.36 41.4382C100.68 41.5082 100.53 41.5982 100.97 41.5482C101.05 41.2282 101.12 41.1682 101.19 40.9482L101.47 39.4083C101.53 38.9583 101.65 39.0683 101.67 38.6583C101.68 38.3883 101.35 37.4983 101.27 37.2083C100.98 36.1583 100.85 35.4783 100.48 34.4384C100.3 33.9084 100.16 33.5384 100.25 32.9184C100.34 32.3184 100.28 31.7284 100.34 31.1385C100.38 30.7085 100.72 30.1185 100.75 29.7185C100.32 29.7185 100.01 29.8385 99.8799 29.4585C99.3199 29.5285 99.3699 29.1485 98.8299 28.8985C98.4999 28.7485 98.0099 28.6085 97.7599 28.3985L97.4099 27.9085C97.0199 27.2386 97.0399 27.7385 96.38 26.5586C95.41 26.4586 94.37 26.7686 93.66 26.2886C93.44 26.1386 92.5401 25.0786 91.6401 25.5486C91.4801 25.6286 91.3701 25.7486 91.2201 25.8586C91.0401 25.9886 90.9401 26.0386 90.7601 26.1486C89.7601 26.7486 89.4101 27.2486 87.8102 25.9486C87.4602 25.6686 87.3702 25.5586 86.6802 25.6286C86.0902 25.6886 86.1002 25.9886 85.4102 25.7186C84.7502 25.4686 84.0403 24.8186 83.1203 25.2786C82.1403 25.7886 81.2603 24.6286 80.1404 25.0386C79.1204 25.4086 77.5204 25.9786 76.6304 26.6386C75.8305 27.2186 75.8805 27.5985 75.6605 28.5585C75.5005 29.2785 75.1805 30.0285 75.0005 30.8785C74.9405 31.1585 74.8805 31.1985 74.8205 31.4184C74.6805 31.9884 74.6305 32.9984 74.4805 33.2584C74.3605 33.4784 74.0205 33.8384 73.8305 34.0984C73.0205 35.2184 73.0405 35.9383 72.9205 36.1783C72.9205 36.1783 72.3406 36.8583 72.2506 36.9083C71.8806 37.0983 71.5206 36.8683 70.9606 37.0983C70.3206 37.3583 70.1906 36.9683 69.7606 37.0483C69.0206 37.1783 68.2607 37.3483 67.8207 37.9983C68.0807 39.2483 67.7507 39.0183 67.1807 40.2582C67.0807 40.4882 67.0707 40.5782 66.9607 40.7782L66.4007 41.7082C66.2707 41.9782 66.2307 41.9282 66.1607 42.2182C66.4407 42.6582 66.5607 42.6382 67.0307 42.9182C67.3407 43.0982 67.7207 43.4682 68.1407 43.4082C68.5806 43.3582 68.3307 43.2082 68.8106 43.3682C69.2606 43.5282 69.9406 43.8981 70.0806 44.3781Z"
            fill="#F6AFCE" />
        <path fill-rule="evenodd" clip-rule="evenodd" class="state-map-path" id="osun_state_Khih16RbW"
            d="M19.9719 21.6287C19.7119 23.1887 19.9419 22.8887 19.9719 24.2786C20.0019 25.5886 19.5519 26.6986 18.5819 27.3786C18.1519 27.6785 18.0919 27.6885 17.5519 27.8285C16.2719 28.1485 17.3219 27.5585 15.452 28.7085C14.462 29.3185 13.302 28.9285 12.192 28.7885C11.9021 28.7585 11.8421 28.6885 11.6421 28.6285C11.4121 28.5685 11.2121 28.5785 10.9821 28.5185L9.22212 28.0785C8.77213 27.9585 6.82218 27.3086 6.49219 27.0686C5.9922 26.7186 5.9522 26.6086 5.37221 26.8986C4.98222 27.0986 5.08222 26.9486 4.93222 27.3586C4.84223 27.5885 4.52223 28.4185 4.50224 28.6585C4.46224 28.9985 4.48224 31.8284 4.53223 32.0784C5.66221 32.2384 7.60216 33.5484 8.20214 33.4584C8.44214 33.4284 8.48214 33.3584 8.66213 33.2984C8.84213 33.2384 8.96213 33.2584 9.17212 33.1584C9.41211 33.0584 9.11212 33.0184 9.59211 33.0584C9.8821 33.0784 9.74211 33.1484 10.1521 33.0884C10.9621 32.9584 11.3721 32.7584 12.122 32.4884C12.802 32.2384 13.402 32.2284 14.072 31.9684C14.282 31.8884 14.322 31.9084 14.542 31.8484C14.772 31.7884 14.762 31.7484 15.002 31.6684C15.742 31.4085 16.8419 31.0185 17.5019 30.6785C18.0319 30.4085 19.4619 30.5085 20.2018 30.4885C21.9718 30.4585 21.7718 30.8285 22.4218 30.7285C23.2218 30.5985 23.5518 30.2385 24.4017 30.8085L27.0417 33.2184C27.2617 33.4584 27.3217 33.6784 27.5517 33.9584C28.1117 34.6184 28.6616 35.4084 29.3216 35.9783C29.9516 36.5183 30.3316 36.5183 31.1116 36.6583C31.5616 36.7383 31.2316 36.7083 31.5216 36.8183C31.9316 36.9683 32.9615 36.9883 33.1815 37.1583C33.8115 37.6383 31.7716 39.4683 31.4616 39.8382L30.8016 40.7482C30.5416 41.1682 30.4916 41.5282 30.7516 42.0082C30.7616 42.0182 30.7716 42.0482 30.7816 42.0582L31.1816 42.8882C31.6016 43.6882 31.9516 44.4481 32.1916 45.2681C32.2915 45.6181 32.2416 45.3881 32.3115 45.5581C32.4315 45.8081 32.3815 45.8681 32.4715 46.1381C32.5415 46.3481 32.5115 46.1781 32.5715 46.3881C32.9715 47.6581 32.9715 48.268 33.8515 49.388C34.3615 50.038 34.7515 50.438 35.4815 50.828C36.4214 51.318 36.6414 51.488 37.7014 51.148C37.7814 50.868 37.8014 50.708 37.8514 50.418C37.9214 50.028 37.9814 50.038 37.7214 49.748C37.1214 49.058 36.9514 48.168 36.4114 47.4081L35.7415 46.2781C35.2815 45.3381 35.3015 44.5281 34.6315 43.7381C33.5615 42.4782 33.7115 42.9782 34.1615 41.2082C34.2615 40.7882 34.4115 40.1482 34.5615 39.7682C34.6415 39.5583 35.1415 38.9283 35.3015 38.7183C35.4315 38.5283 35.5515 38.3683 35.6615 38.1583C36.0515 37.4083 37.1114 36.2383 37.7114 35.6683C38.1314 35.2484 38.3414 35.1084 38.2414 34.5084C38.0814 33.5584 37.8214 32.9784 37.4914 32.1284C37.4914 32.1084 37.4814 32.0884 37.4714 32.0684L37.4214 31.9484C37.3714 31.8284 37.4214 31.9984 37.3414 31.7984L38.0614 30.7485C38.2814 30.3585 38.6014 30.0285 38.9314 29.6985C39.4714 29.1485 40.5013 28.3285 40.4513 27.4286C39.9514 27.4486 39.5814 27.9385 39.0514 28.0885C37.5914 27.2286 37.5714 26.0986 36.8214 24.8486C36.7014 24.6486 36.6914 24.6886 36.5414 24.4686C36.3414 24.1686 36.2415 23.9386 36.0715 23.6986C35.7115 23.1587 35.4815 22.6987 35.1815 22.0987C34.8415 21.3887 33.3115 19.2488 32.6915 18.3888C32.0216 17.4688 31.9716 17.5788 30.5716 16.7988C29.7516 16.3388 29.0616 15.9288 28.3416 15.3089C27.9617 14.9789 27.1817 14.4689 26.6817 14.6989C25.8417 15.0789 25.4017 15.9788 25.0017 16.7588C24.4517 17.8488 22.8918 19.0088 22.1618 20.1187C22.0318 20.3187 22.0618 20.2587 21.8918 20.4287C21.6418 20.6687 21.7818 20.5787 21.5918 20.7887C21.1818 21.2687 20.5718 21.3287 19.9719 21.6287Z"
            fill="#F6AFCE" />
        <path fill-rule="evenodd" clip-rule="evenodd" class="state-map-path" id="osun_state_kAXcwgzmE"
            d="M4.48223 32.6084C4.45223 33.4084 4.45223 34.4684 4.52223 35.2584C4.56223 35.7483 4.70223 35.8383 4.62223 36.3983C4.56223 36.8683 4.53223 37.1783 4.51223 37.6683C4.48223 39.1583 4.14224 38.6883 5.13222 39.5082C6.37219 40.5282 7.34216 40.8182 7.84215 41.5082C8.60213 42.5882 8.96212 42.0282 10.3621 41.8782C10.7421 41.8282 11.2621 41.8882 11.5921 41.7982C11.992 41.6982 12.172 41.5482 12.752 41.7382C13.622 42.0182 14.182 41.6782 14.862 42.3382C15.262 42.7382 15.852 43.1482 16.3619 43.4881C17.3219 44.1481 16.8919 44.6481 18.1119 45.7881C18.7019 46.3381 19.2119 47.0681 19.4019 47.2281C19.6819 47.4681 19.8819 47.598 20.1718 47.868L20.3718 48.078C20.3818 48.088 20.4018 48.108 20.4118 48.118L20.7818 48.578C21.6518 49.818 23.1018 51.038 24.5517 51.5779C25.2417 51.8279 25.9517 52.0079 26.8117 52.0279C27.2517 51.498 28.8416 50.658 29.6716 50.358C30.2416 50.148 30.9016 50.108 31.4816 49.938C31.8616 49.828 32.8215 49.218 32.9615 49.078C32.9815 48.718 32.8415 48.568 32.6915 48.328L31.1716 43.7281L30.3316 42.0882C29.9016 41.2882 29.9016 41.2182 30.8816 39.9982C31.4016 39.3483 32.7015 38.0883 32.7415 37.5883C32.4615 37.3883 30.1616 37.0283 29.8716 36.8383C29.7216 36.7483 29.3216 36.4583 29.1516 36.3283C28.4416 35.7683 27.4517 34.3584 26.8117 33.6184C26.8017 33.6084 26.7817 33.5884 26.7717 33.5784C26.1617 32.8284 26.8817 33.4384 25.6817 32.3484C23.5018 30.3785 23.9118 31.1785 22.1018 31.1385C21.4818 31.1185 21.1718 30.7585 19.8719 30.8885C19.5119 30.9185 19.2319 30.9985 18.8719 31.0185C17.4719 31.0985 18.4219 30.8485 17.2719 31.2585C16.5219 31.5284 14.522 32.3484 14.072 32.4384L12.652 32.8484C11.3321 33.1084 12.022 33.1884 11.2521 33.3384C10.8321 33.4184 10.5821 33.5384 10.2021 33.5584C9.7821 33.5884 9.39211 33.4884 9.03212 33.6184C8.77213 33.7184 8.35214 33.8884 8.10214 33.9184C7.72215 33.9684 6.78218 33.4184 6.37219 33.2184C5.7422 32.9084 5.30221 32.5884 4.48223 32.6084Z"
            fill="#9DD3AF" />
        <path fill-rule="evenodd" clip-rule="evenodd" class="state-map-path" id="osun_state_e5LSFi36c"
            d="M87.2902 2.32917C87.2202 2.89915 87.5402 4.24912 87.6702 4.85911C87.8102 5.52909 87.4402 5.45909 87.7502 6.07908L87.9901 6.56906C88.0701 6.75906 88.1401 6.86906 88.2001 7.11905C89.3901 7.42904 89.5801 8.18902 90.1301 8.64901C90.4401 8.90901 90.6001 8.939 90.8801 9.139C91.2501 9.38899 91.4801 9.62899 91.6701 10.019C91.8201 10.339 91.8001 10.219 91.7101 10.469C91.6401 10.709 91.4601 10.809 91.6901 11.4789C91.91 12.0989 92.16 12.4489 92.55 13.0089C92.76 13.2989 92.84 13.4289 93.03 13.6989C93.23 13.9889 93.26 14.0789 93.46 14.4289C93.59 14.6689 93.86 14.8889 94.02 15.0989C94.31 15.4688 94.2 15.5288 94.4 15.8888C94.7 16.4288 94.87 16.2788 95.19 17.4788C95.28 17.7988 95.39 18.1288 95.49 18.4188C95.51 18.4288 95.54 18.4188 95.55 18.4388C95.57 18.4688 95.6 18.4588 95.62 18.4688C96.2499 18.6688 96.0399 18.7188 96.4599 19.6887C96.5899 19.9987 96.5199 19.9587 96.5999 20.2987C96.6799 20.6587 96.7199 20.4687 96.7799 20.8087C97.1599 23.1787 96.2299 22.8287 95.63 23.3186C95.48 23.4386 95.43 23.5386 95.17 23.5886L93.99 23.9186C93.75 24.0086 93.64 23.9986 93.39 24.0786C92.97 24.2186 92.79 25.0386 93.04 25.2686L93.34 25.5386C93.49 25.6686 93.67 25.8186 93.8 25.8986C95.23 26.6986 95.21 25.6386 96.4099 26.1786C96.9399 26.4186 96.8199 26.7186 97.1399 27.1186C97.3199 27.3486 97.6599 27.6485 97.8999 27.9285C98.1999 28.2685 98.4699 28.2485 98.9599 28.5085C99.0799 28.5685 99.9899 29.3285 100.53 29.2785C101.59 29.1785 101.42 28.4985 101.72 27.4685C101.77 27.2886 101.79 27.3586 101.86 27.1386C101.98 26.7786 101.98 26.4086 102.32 25.7886C103.59 23.3986 103.4 24.1586 102.5 23.0787C102.2 22.7187 102.13 22.4087 102.04 21.8487C101.93 21.1687 102.54 20.6087 102.78 20.2287C103 19.8987 103.19 19.3087 103.68 18.7088C105.01 17.0688 105.67 16.9788 106.18 16.3888C106.19 16.3788 106.21 16.3588 106.23 16.3388C106.17 15.8588 105.96 15.6588 105.83 15.2189C105.78 15.0489 105.8 14.9789 105.73 14.8089C105.52 14.2389 105.13 14.0289 105.57 13.3389C106.82 11.4289 107.45 10.339 109.17 8.82901C109.61 8.44902 109.89 8.39902 110.07 7.74903C110.14 7.49904 110.22 7.32904 110.34 7.03905C110.42 6.84906 110.63 6.51906 110.68 6.37907L108.9 6.65906C107.15 7.11905 107.13 6.76906 105.94 4.59911C105.41 3.61914 105.66 3.94913 105.47 3.48914L104.93 2.28917C104.3 0.539213 104.77 1.1892 103.55 0.459215C103.29 0.299219 103.14 0.22922 102.71 0.22922C100.62 0.209221 101.4 0.0592246 100.88 0.00922583C100.21 -0.0507727 99.7199 0.199221 98.9999 0.25922C98.0799 0.339218 96.6499 0.939203 95.82 1.35919C93.88 2.30917 95.08 1.84918 93.18 2.54916C92.17 2.91915 92.55 3.03915 90.8801 3.04915C90.2201 3.04915 89.4401 3.12915 88.8701 2.88915C88.2701 2.63916 87.7002 2.22917 87.2902 2.32917Z"
            fill="#F6AFCE" />
        <path fill-rule="evenodd" clip-rule="evenodd" class="state-map-path" id="osun_state_NgIJ8GxhT"
            d="M13.202 70.1075C13.142 70.2675 12.912 71.9374 12.892 72.2274C12.852 72.6974 12.722 72.6774 12.682 73.1374C12.492 75.4074 12.232 75.9173 11.492 78.0673C11.082 79.2573 11.232 78.6273 11.062 80.0672L10.652 82.0572C10.402 83.5272 10.412 85.1071 10.412 86.7371C11.012 86.7671 11.522 86.6871 11.812 86.1671C12.352 85.2071 11.902 85.6671 12.842 85.2971C13.162 85.1671 13.082 85.1471 13.662 85.1571C17.0719 85.2071 16.6719 86.4171 18.7018 87.0471C19.3518 87.2471 19.6518 87.2071 20.4418 87.1971C22.2018 87.1871 21.2118 86.9971 22.1818 86.9771C22.8217 86.9571 24.3617 86.5071 24.7417 86.5571C26.3616 86.7871 26.6016 87.4871 27.8316 87.9271C29.2916 88.437 29.1616 88.607 30.3915 87.9671C31.7315 87.2671 30.7915 88.287 32.5015 87.1771C32.7815 86.9871 32.8415 87.0271 33.2215 86.9071C33.5415 86.7971 33.6315 86.6871 33.8415 86.5371C33.8215 86.3371 33.3215 84.7971 33.1715 83.7272C32.4615 83.2672 32.4015 83.0472 32.0315 82.3072C30.8415 79.8973 30.3815 80.3272 31.1415 78.7973C32.0015 77.0773 30.0316 77.4973 30.4915 76.1573C30.6115 75.7874 31.4315 75.2774 30.6315 74.3674C29.7816 73.3874 28.0916 73.8774 27.5116 73.5974L27.1116 73.4074C26.8816 73.3074 26.9116 73.2874 26.6416 73.2574C26.4316 73.2274 26.2217 73.2474 26.0117 73.1974C25.7717 73.1474 25.7917 73.0874 25.4917 73.0374C25.1017 73.1974 24.3417 73.9174 23.8317 73.9174C23.5717 73.9174 23.1917 73.6874 22.9317 73.5474C21.8018 72.9474 23.2917 72.8874 22.6417 71.7675C22.3817 71.3175 21.3218 69.9175 20.9818 69.6275C20.1718 68.9275 19.0718 69.1575 18.0719 68.8375C17.0619 68.5175 17.0019 68.8675 16.0819 69.0975C15.6119 69.2175 15.4919 69.2875 15.1719 69.5175C14.8719 69.7275 14.8019 69.8375 14.4019 69.9675C14.062 70.0675 13.562 70.0275 13.202 70.1075Z"
            fill="#F6AFCE" />
        <path fill-rule="evenodd" clip-rule="evenodd" class="state-map-path" id="osun_state_okVBiK1Sl"
            d="M46.1812 41.6882C45.9812 40.9282 46.3112 40.4582 46.6912 40.1082C46.9011 39.9082 47.6411 39.2683 47.8511 39.2083C48.2711 39.0783 50.821 39.6083 51.531 39.5683C52.151 39.5383 53.961 38.8783 54.651 38.5483C54.9309 38.4183 55.0709 38.3483 55.3609 38.1883C55.9409 37.8783 56.9209 37.7583 57.6209 37.3983C57.6809 37.0483 57.5209 37.0383 57.4909 36.5183C57.4909 36.3783 57.4909 36.1583 57.4509 36.0383C57.3509 35.6384 57.4209 35.9883 57.3009 35.7084C56.7509 34.3684 57.1609 35.0284 57.2409 34.1984C57.2809 33.7884 57.3309 33.7184 57.5709 33.4484C57.9909 32.9684 59.2408 31.9184 59.8008 31.6485C60.3908 31.3785 60.2208 30.9385 60.2108 30.0585C60.2108 29.5985 60.3408 29.4185 60.3308 29.2585C60.3208 29.0785 60.2008 28.7485 60.2008 28.3285L60.1808 25.3586C59.6908 25.4986 56.0709 29.3485 55.6209 29.6185L54.301 30.5185C54.141 30.6285 54.111 30.5985 53.941 30.7285C53.511 31.0485 52.981 31.7984 52.751 32.2684L52.381 32.9684C51.401 34.6284 52.261 34.2684 51.591 34.8384C51.321 34.7884 51.021 34.6084 50.821 34.5084L50.4311 34.3184C50.0711 34.1484 49.9911 34.3184 49.5311 33.6284C48.8811 32.6784 49.2311 32.2084 49.2711 32.0284C49.5711 30.6785 49.4911 31.4185 49.9111 30.4985C50.0911 30.0985 49.8311 30.4685 50.2011 29.7285L49.0711 29.3685C49.0511 29.3685 49.0311 29.3485 49.0111 29.3385L48.8111 29.2185C48.4411 28.9985 47.2211 27.7286 46.8711 27.3686C46.4812 26.9686 45.8012 26.3386 45.4912 25.9386L44.3612 24.3086L44.0312 24.2886C43.9812 24.5086 43.9612 24.6086 43.8712 24.7986C43.8012 24.9586 43.8412 24.8486 43.7712 25.0186C43.7212 25.1286 43.7112 25.1986 43.6612 25.3186C43.0412 26.6986 42.5513 26.4486 41.3913 26.9486C41.3013 26.9986 41.2013 27.0186 41.0813 27.0486C40.7913 28.3085 40.4813 28.7185 39.3613 29.7985C38.1714 30.9485 38.7813 30.5885 38.0214 31.4385C37.6914 31.8084 37.9314 32.0484 38.0814 32.4384L38.3814 33.2184C38.5014 33.4984 38.4114 33.1384 38.5014 33.5384C38.5714 33.8584 38.7813 34.6384 38.7513 34.8584C38.6913 35.2784 37.1514 36.8483 36.7014 37.3083C36.3514 37.6683 35.9514 38.4783 35.5214 39.1083C35.3214 39.4083 35.0314 39.5783 34.9314 39.9982L34.4715 41.8082C34.3115 42.3882 33.9515 42.2482 34.7314 43.3082C34.9614 43.6282 35.1814 43.8282 35.3614 44.0781C35.7214 44.5681 35.7614 45.2081 36.0114 45.8381C36.0214 45.8581 36.0214 45.8781 36.0314 45.8981C36.0414 45.9181 36.0514 45.9381 36.0514 45.9581L36.1114 46.0681C36.9414 47.8681 36.9414 47.1581 37.6314 48.838C37.7914 49.238 37.9614 49.408 38.1414 49.758C38.2614 49.598 38.3314 49.378 38.4714 49.168C38.6214 48.938 38.7313 48.878 38.9113 48.618C39.1013 48.358 39.1013 48.208 39.2713 47.9881C39.4513 47.7581 39.5713 47.7081 39.8213 47.5381C40.5313 47.0581 40.3513 47.1081 41.3713 47.0681C41.8913 47.0481 41.7913 46.9881 42.1413 46.9081C42.5013 46.8181 42.7512 46.8981 43.1112 46.7681C43.9712 46.4781 45.2312 46.1381 45.7812 45.3981C46.0612 45.0281 45.9312 44.0981 45.9112 43.5382C45.8912 43.0082 45.7612 42.0782 46.1812 41.6882Z"
            fill="#9DD3AF" />
        <path fill-rule="evenodd" clip-rule="evenodd" class="state-map-path" id="osun_state_gHAttOTLP"
            d="M46.0212 45.5681C45.7512 46.2381 44.4412 46.7681 43.6713 47.0881C43.3813 47.2081 43.3413 47.1481 43.0313 47.1981C42.7313 47.2581 42.7713 47.3381 42.5013 47.3881C42.2513 47.4281 41.9613 47.3881 41.6913 47.4281C41.3913 47.4681 41.3813 47.5381 41.1013 47.5781C40.7013 47.6481 40.0914 47.4981 39.5314 48.318L38.9014 49.168C38.6314 49.488 38.8214 49.298 38.7014 49.718C38.6314 49.968 38.5014 50.048 38.4114 50.238C38.2514 50.548 38.2914 51.068 38.1514 51.478C37.9714 51.9479 37.7014 52.1879 37.9614 52.7179C38.4114 53.6579 38.6414 53.8679 38.7314 55.0279C38.7914 55.7479 39.1214 56.6878 39.7114 57.1078C40.2414 57.4878 40.0214 57.5078 40.8613 57.4978C41.6213 57.4878 44.4612 57.0778 44.9012 56.9078C47.5812 55.8179 46.8612 56.8178 48.6411 56.8178C49.1111 56.8178 49.7411 56.8978 50.1811 56.7478C52.411 55.9778 52.0911 56.3578 54.041 55.9678C55.261 55.7279 54.351 56.2278 56.431 55.3079C56.6409 55.2179 56.7709 55.1679 56.9409 55.0779L59.0909 53.9879C59.5509 53.7079 60.0309 53.4779 60.4409 53.1179C60.7008 52.8879 61.0808 52.5479 61.4008 52.4479C61.4508 52.2979 61.9108 51.9479 62.1408 51.188C62.3108 50.598 62.3108 50.098 62.5408 49.578C62.8308 48.918 62.4408 48.788 62.5408 47.948C62.5808 47.5881 62.5208 47.4981 62.4708 47.1581C62.3408 46.0281 61.5608 46.6881 61.0408 46.6881C60.6108 46.6981 60.4609 46.5581 60.0509 46.4881C59.5509 46.4081 59.5609 46.2781 59.1409 46.2681C57.1009 46.2581 57.9109 46.1281 57.0709 46.0281C56.7009 45.9881 56.281 46.0481 55.911 46.0181C55.491 45.9881 55.431 45.8681 54.921 45.8681C53.821 45.8681 52.911 46.3381 51.9111 45.7181C50.6011 44.9181 50.3311 45.0681 49.4111 44.7481C47.9312 44.2481 46.9312 44.8181 46.4912 44.8581C46.4412 45.1981 46.5212 45.1481 46.3312 45.3781L46.0212 45.5681Z"
            fill="#FDD1A1" />
        <path fill-rule="evenodd" clip-rule="evenodd" class="state-map-path" id="osun_state_LFnNPBFPH"
            d="M10.2721 87.2771C9.45212 88.307 9.78212 91.157 9.72212 92.4069L9.23213 94.7369C9.05213 95.4469 8.61214 96.1568 8.45215 96.8668C9.04213 97.2568 10.4521 98.2468 10.9521 98.7568C11.5421 99.3368 11.5421 99.5167 12.1321 99.7267C13.512 100.217 13.462 99.4268 14.472 99.1668C14.822 99.0768 14.992 99.0668 15.382 98.9868C15.942 98.8668 16.242 98.4568 16.7719 98.1468C17.0419 97.9968 17.3019 97.9268 17.6219 97.8868C18.6319 97.7368 19.4019 97.1868 20.1919 97.1668C21.8518 97.1068 20.4919 97.3768 22.0918 96.9368C22.6418 96.7768 23.2318 96.5368 23.7318 96.3368C24.2718 96.1268 24.6717 95.9768 25.2717 95.7468C25.8317 95.5168 26.4517 95.4868 26.6417 94.8869C26.7317 94.6169 26.7817 94.3569 26.8817 94.0469C27.0717 93.4069 28.3317 91.007 28.7016 90.407C28.8316 90.187 29.0716 89.977 29.1116 89.747C29.1416 89.537 29.1116 88.857 29.0616 88.677C27.6617 88.607 27.0617 87.937 25.8517 87.3271C25.4017 87.0871 25.0917 87.0571 24.4918 87.0571C23.7318 87.0671 23.9218 87.2871 23.2618 87.3071L20.4919 87.647C19.7919 87.747 19.6419 87.607 19.0419 87.557C18.1919 87.497 18.6019 87.527 17.9719 87.1971C16.6619 86.4971 16.9919 86.3571 16.072 86.0371C15.572 85.8571 15.262 85.7171 14.832 85.7071C13.882 85.6671 12.592 85.4271 12.2521 86.2071C12.0221 86.7571 11.9621 86.6671 11.5121 86.9371C10.8921 87.3271 11.2121 87.2471 10.2721 87.2771Z"
            fill="#9DD3AF" />
        <path fill-rule="evenodd" clip-rule="evenodd" class="state-map-path" id="osun_state_DVtykK6MF"
            d="M60.7108 12.2189C60.6908 12.2189 60.6708 12.2289 60.6408 12.2289L60.4608 12.2889C60.8608 12.3989 60.6008 13.2889 60.4108 13.5689L59.6309 14.3589C59.7609 14.9689 60.3208 14.9489 60.4708 15.8488C60.5508 16.3388 60.4908 16.4288 60.6408 16.8188C60.7908 17.2188 60.7308 17.2988 61.0408 17.5688C61.1908 17.5388 61.0508 17.5988 61.2308 17.5088L61.8408 17.1288C62.4808 16.8288 62.8408 15.9188 64.3007 15.7988C64.9907 15.7388 64.8207 15.7488 65.3207 15.5788C65.6107 15.4688 66.1107 15.4888 66.4207 15.5988C68.3506 16.2188 67.5007 15.8888 68.4806 15.7988C69.2706 15.7288 70.1606 15.8588 70.9606 15.8088C71.5506 15.7688 71.6306 15.6488 71.9906 15.5788C72.8005 15.4289 73.4405 15.4888 73.7405 14.7389C73.9505 14.2389 74.1805 13.5689 75.0005 13.5289C75.3805 13.4989 75.9605 13.4889 76.3404 13.5189C76.9804 13.5689 77.4704 13.9089 77.7304 13.9489C78.1504 14.0189 78.4904 13.7389 79.2304 14.3489C79.5204 14.5889 79.5704 14.7989 79.7504 15.1289C80.0704 15.7388 80.3103 15.3089 81.2703 16.0988C83.0703 17.5788 82.5703 17.9488 83.9603 16.5288L85.1502 15.1589C85.1602 15.1489 85.7002 14.0589 86.0402 13.5689C86.2002 13.3489 86.3402 13.0689 86.5602 12.8389C86.7302 12.6589 87.1102 12.4089 87.2202 12.1989L88.1802 10.429C88.2602 10.349 88.4601 9.259 88.5101 8.97901C88.6401 8.21903 87.7502 7.05906 87.3502 6.22908C86.9302 5.3591 87.4602 4.75911 86.8302 3.51914C86.6402 3.13915 86.7702 3.18915 86.6902 2.86916C86.6002 2.52917 86.5002 2.60917 86.4902 2.60917C86.4802 2.63917 86.3702 2.59917 86.3502 2.59917L85.4102 2.90916C82.1203 3.77914 83.7003 4.11913 81.0303 5.00911C80.5103 5.1891 80.2104 5.3891 79.5804 5.52909L76.0005 5.92908C75.1805 5.99908 75.7305 6.12908 74.1805 6.11908C70.5706 6.09908 72.5605 5.97908 70.6706 5.61909C69.8906 5.4691 67.7007 5.4091 66.8207 5.4691C66.4307 5.4891 66.3007 5.58909 65.9807 5.62909C63.6208 5.94908 62.0908 5.2391 61.6708 5.3191C61.2308 5.3991 60.3208 5.56909 60.0408 5.75909C60.1708 7.91904 60.3508 10.039 60.7108 12.2189Z"
            fill="#9DD3AF" />
        <path fill-rule="evenodd" clip-rule="evenodd" class="state-map-path" id="osun_state_dQ7R8UehP"
            d="M88.3301 10.749L88.4301 11.049C88.2301 11.119 87.6701 12.1689 87.5201 12.2089L87.6501 12.3489C87.5401 12.4289 87.1001 12.7789 86.9601 12.9189C86.7501 13.1389 86.8801 13.0489 86.7101 13.3189L85.8702 14.4789C85.4602 15.3089 85.5102 15.5088 84.5802 16.3988C84.5302 16.4488 84.4502 16.5188 84.4102 16.5588C83.9602 17.0388 83.4402 17.7288 82.7802 17.9088L80.7803 16.1988C80.5703 16.0788 80.5803 16.1388 80.3403 16.0588C79.9703 15.9388 80.3503 15.9088 79.7803 15.8988C79.7103 16.7588 79.9403 16.5488 80.0103 16.9288C80.0403 17.1188 80.0103 17.2788 80.0603 17.4888C80.1203 17.7888 80.1403 17.5888 80.2103 17.9988C80.4003 19.1088 81.2503 19.3988 81.7503 20.2587C81.9503 20.5987 82.0603 20.6587 82.3102 20.9387C82.4802 21.1287 82.4202 21.0387 82.5702 21.2587L83.5202 22.2987C84.2202 22.8787 85.6102 23.5287 86.6101 24.2486C88.0601 25.2986 87.4601 25.4186 88.6301 26.0286C88.9501 26.1986 89.2301 26.2286 89.5601 26.4086L91.54 25.1786C91.87 24.9786 92.14 25.1086 92.55 25.0386C92.58 24.8986 92.49 23.6386 93.54 23.4987C93.68 23.4787 93.8 23.4887 93.94 23.4687C94.41 23.3887 94.04 23.4287 94.32 23.3287C95.4799 22.9087 94.7099 23.4987 95.8299 22.6987C96.0099 22.5687 96.3899 22.4787 96.4499 21.8787C96.4499 21.8587 96.1099 19.3888 95.6399 19.0888C95.3199 18.8888 95.2099 19.0488 94.8999 18.0688C94.36 16.3288 94.13 16.4188 93.82 15.6588C93.4 14.6589 93.52 15.2589 93.09 14.6089C92.82 14.1889 92.73 13.8989 92.44 13.5489L91.37 11.9689C91.19 11.6189 91.29 11.5289 91.19 11.199C91.07 10.789 90.99 11.109 91.18 10.589C91.35 10.089 91.16 9.80899 90.65 9.469C90.3701 9.279 90.3101 9.339 90.0701 9.13901C89.7401 8.86901 89.4401 8.49902 89.1501 8.20903L88.9001 8.81902C88.8401 9.12901 88.9001 9.429 88.8501 9.71899C88.7901 10.139 88.7301 9.75899 88.6201 10.389C88.5701 10.719 88.6001 10.839 88.3301 10.749Z"
            fill="#91D8F7" />
        <path fill-rule="evenodd" clip-rule="evenodd" class="state-map-path" id="osun_state_hbWVsKZ17"
            d="M73.4505 23.8586C73.3605 24.7786 72.9306 25.0986 72.3506 25.6686L70.8706 27.0786C70.2206 27.5885 69.8206 27.5885 69.0407 28.1385C68.4307 28.5785 68.1707 29.1385 67.4807 29.5585L66.5607 30.2185C65.8007 30.8585 65.9707 31.5784 65.9307 32.2984C65.9007 32.7184 65.7507 33.3884 65.7607 33.6284L66.4307 35.5784C66.8007 36.4383 66.5307 36.1683 67.0407 36.7083C67.4207 37.1083 67.2107 37.1683 67.6507 37.5383C68.1907 37.2383 68.2207 36.8583 69.4706 36.6483L72.1206 36.6083C72.3806 36.1083 72.5406 35.9883 72.6506 35.5084C72.8906 34.4384 73.7805 33.6484 73.9705 33.3284C74.2805 32.8084 74.1405 32.4284 74.2705 31.8184C74.5205 30.6685 75.1605 29.0485 75.3805 27.6985C75.4505 27.2986 75.8905 26.8286 76.1205 26.6186C76.7205 26.0786 77.4104 25.5986 78.2704 25.3086C78.5604 25.2086 78.6204 25.1586 78.8604 25.0586C79.8304 24.6686 80.0004 24.5586 81.1304 24.6086C81.8203 24.6386 81.8703 24.8586 82.6203 24.8786C83.4403 24.8986 83.4803 24.2686 84.4103 24.7886L84.9303 25.0486C85.2003 25.1686 85.0603 25.1086 85.2402 25.2086C85.2603 25.2186 85.2802 25.2286 85.3002 25.2386C85.8702 25.4886 86.4402 25.2486 86.8102 25.0786C86.6402 24.5586 86.2502 24.4486 85.6702 24.1086C85.2103 23.8286 84.8303 23.6586 84.4103 23.3987C82.4803 22.2087 82.0703 21.1587 80.9304 19.8387C80.5004 19.3388 79.8404 18.7488 79.7004 17.9888C79.5604 17.2588 79.8804 17.3188 79.2604 16.3888C79.0404 16.4888 79.1704 16.3988 78.9704 16.5688C78.5604 16.9188 77.9804 17.7988 77.7204 18.2188C77.2404 18.9788 76.2405 20.6787 75.7405 21.1987C75.4305 21.5187 74.9605 21.8087 74.8405 22.1487C74.7505 22.4187 74.8705 22.3387 74.6905 22.6387C74.4305 23.0787 74.0205 23.7486 73.4505 23.8586Z"
            fill="#D2E28B" />
        <path fill-rule="evenodd" clip-rule="evenodd" class="state-map-path" id="osun_state_TXlRQ6CF3"
            d="M66.2207 29.9285C66.7907 29.6685 68.2307 28.4385 68.6607 28.0085C68.8207 27.8485 69.0907 27.6185 69.2307 27.5086C69.9606 26.9586 69.7706 27.6485 71.7806 25.6786C71.9606 25.4986 72.1106 25.3186 72.3106 25.1386L72.5706 24.8886C72.6806 24.7886 72.7506 24.7386 72.8106 24.5886C72.9806 24.1886 72.8206 24.0386 73.1306 23.7086C73.5305 23.2887 74.0405 23.1387 74.2005 22.6087C74.4805 21.6787 74.3505 21.8687 75.0805 21.2887C75.5305 20.9287 75.7205 20.5587 76.0305 20.0887C76.3605 19.6087 76.6505 19.2188 76.9405 18.7688C77.2605 18.2588 77.1105 18.3188 77.7504 17.4488C78.1804 16.8688 78.4004 16.6588 78.7704 16.2188C79.8904 14.8989 78.5904 14.3389 78.3204 14.3589C78.2804 14.3589 77.8604 14.5989 77.0805 14.2489C76.9105 14.1689 77.1205 14.1489 76.7305 14.0789C76.4305 14.0189 74.9105 13.9989 74.6505 14.0989C74.4605 14.1689 74.3605 14.3789 74.2605 14.5789C74.0405 15.0189 74.1005 15.0989 73.7805 15.4389C73.0406 16.2288 71.9806 15.9888 71.3706 16.2488C70.6806 16.5288 69.0907 16.2388 68.2307 16.3388C67.6107 16.4188 68.0807 16.6288 67.3607 16.3888L66.5707 16.1188C65.2308 15.8688 66.1007 15.8088 64.8508 16.1888C63.4408 16.6188 64.1508 15.7988 62.5008 17.1388C61.6808 17.7988 61.2408 17.7388 61.2708 18.1488C61.2808 18.3688 61.2908 18.2588 61.4108 18.5188C61.5408 18.7988 61.4608 18.6788 61.6208 18.9088C62.3508 19.9487 62.5708 19.7687 63.3108 20.5087L63.4808 20.6787C63.7908 21.0087 63.6208 20.8887 63.9308 20.9887C64.3008 21.0887 64.3908 21.1787 64.7608 21.2087C65.5007 21.2787 65.9407 21.5487 65.9507 22.2887C65.9807 23.6186 66.6307 23.3487 66.4307 26.0086C66.3807 26.6286 66.3507 27.5386 66.5007 28.0885C66.6807 28.7185 66.5507 28.4785 66.4507 28.9285C66.4107 29.1185 66.4307 29.2685 66.3807 29.4585C66.2907 29.8185 66.3007 29.4385 66.2207 29.9285Z"
            fill="#F6AFCE" />
        <path fill-rule="evenodd" clip-rule="evenodd" class="state-map-path" id="osun_state_gdtLTRfsZ"
            d="M111.14 6.40907L110.65 7.42904C110.43 8.13902 110.37 8.48901 109.65 8.989C109.1 9.36899 108.5 9.82898 108.11 10.419C107.61 11.1789 107.47 11.049 106.8 12.1589L105.99 13.4289C105.52 14.2189 106.16 14.4689 106.28 14.8189C106.38 15.0989 106.27 15.1788 106.62 15.9988C106.84 16.5288 106.77 16.6088 105.94 17.1088C105.62 17.2988 105.74 17.3488 105.05 17.7588C104.76 17.9388 104.75 18.1388 104.31 18.5988C103.62 19.3287 103.53 19.8587 103.08 20.5087L102.62 21.2087C102.52 21.3987 102.32 21.6087 102.56 22.1187C102.71 22.4487 102.65 22.4987 102.75 22.7387C102.8 22.8387 103.01 23.0487 103.1 23.1387C103.34 23.3886 103.32 23.4286 103.62 23.4886C103.63 23.4686 103.64 23.4086 103.65 23.4186C103.7 23.5286 103.55 23.3786 104.07 22.9187L105.63 21.4887C105.81 21.3187 105.96 21.1787 106.13 20.9987L106.63 20.5087C107.29 19.8987 108.28 19.3687 109.11 19.0188C110.7 18.3388 110.86 18.7788 112.45 17.3988C112.64 17.2288 112.87 17.1188 113.09 16.9688L114.75 15.0589C114.76 15.0389 114.77 15.0189 114.78 14.9889L114.86 14.7489C115.459 13.3089 115.11 14.5689 115.329 13.2089C115.379 12.8689 115.469 12.9789 115.509 12.4589C115.549 12.0489 115.569 12.0089 115.679 11.6289L116.919 7.37904C117.229 6.49906 117.369 6.48906 117.299 5.28909C116.569 5.0791 115.649 5.67908 114.86 6.06907L113.9 6.52906C113.26 6.73906 111.83 6.33907 111.14 6.40907Z"
            fill="#9DD3AF" />
        <path fill-rule="evenodd" clip-rule="evenodd" class="state-map-path" id="osun_state_ecwtl93wB"
            d="M58.5309 16.1688C58.8509 16.5888 58.9909 17.1488 59.4709 17.9988L59.5409 18.1088C60.4109 19.6087 60.0109 19.0388 60.0309 20.9687C60.0309 21.3387 59.9309 22.2287 59.9709 22.4387C60.0009 22.6887 60.3109 23.2086 60.4309 23.5786C60.6009 24.0886 60.9009 30.5285 60.6709 31.1785C60.4909 31.7284 60.3709 31.8284 59.9409 32.0384C59.4909 32.2584 58.5109 33.0284 58.1309 33.3584C57.8109 33.6384 57.6709 33.9184 57.6109 34.3584C57.5109 35.0584 57.5309 35.2284 57.8109 35.7183C58.4709 35.7783 58.5309 35.5683 59.1409 35.4883C59.6309 35.4283 59.3809 35.4183 59.6709 35.3183C60.3809 35.0784 60.4809 34.9784 60.7609 35.2184C60.9109 35.3383 61.0208 35.4783 61.1908 35.6083C61.4108 35.7883 61.4508 35.7883 61.6608 35.9783C62.0808 36.3783 63.0208 36.2983 63.1408 35.6583C63.5208 33.6384 63.7908 34.6484 64.0708 33.4584C64.1208 33.2284 64.1908 33.1584 64.3408 32.8884C65.0507 31.6184 65.0507 32.0484 65.4207 31.5484C65.7107 31.1685 65.5507 30.6885 65.6407 30.1585C65.7107 29.7185 66.3007 28.9985 65.9907 27.5085C65.7407 26.3286 66.2507 25.7786 65.9207 24.5386C65.7607 23.8886 65.9207 23.8386 65.6507 23.2386C65.5507 23.0187 65.4607 22.8087 65.4307 22.6187C65.2807 21.3487 65.6707 21.9987 64.0508 21.5087C63.5108 21.3387 63.4108 21.2287 63.0608 20.8487C62.6608 20.4187 61.9808 19.8987 61.3408 19.1787C61.0508 18.8688 60.2609 17.2688 60.1909 16.9188C60.1109 16.5388 60.1009 16.5888 60.0209 16.2988C59.7909 15.4788 60.3609 15.9788 59.2009 14.6589C59.0709 15.5288 58.9909 15.2888 58.5309 16.1688Z"
            fill="#91D8F7" />
        <path fill-rule="evenodd" clip-rule="evenodd" class="state-map-path" id="osun_state_C9BXAHto5"
            d="M44.4112 23.7786C44.4312 24.1886 47.4711 27.5985 48.1411 28.1585C48.3311 28.3085 48.5011 28.4185 48.6911 28.5885C49.1611 29.0085 50.271 29.5885 50.821 28.9485C51.041 28.6985 51.171 28.3085 51.641 27.7785C51.771 27.6285 52.681 26.8686 52.761 26.8386C53.131 26.6886 52.961 27.0286 53.371 26.6186C53.531 26.4486 53.731 26.2086 53.821 26.0686C54.6709 24.6186 54.121 25.7486 54.8509 24.0486C55.0109 23.6686 54.9409 23.6586 54.9809 23.1987C55.0309 22.6687 55.3509 22.0287 55.4009 21.5487C55.5709 19.8887 56.2709 19.1788 56.9409 18.0288C57.1009 17.7788 57.2309 17.7188 57.3809 17.4788C57.6309 17.0788 57.9709 16.4088 57.9209 15.8888C57.4809 15.8588 56.5809 16.2188 56.1609 16.4088C56.0309 16.4588 44.3812 23.0887 44.4112 23.7786Z"
            fill="#91D8F7" />
        <path fill-rule="evenodd" clip-rule="evenodd" class="state-map-path" id="osun_state_lR3BTsCeJ"
            d="M51.3611 39.9082C49.5411 39.9082 50.0011 39.6783 48.9711 39.6783C48.7012 39.6783 47.9612 39.6283 47.7512 39.6883C47.5312 39.7582 47.6412 39.7382 47.4712 39.8882C46.6812 40.5682 46.7812 40.4382 46.6212 41.1182L46.4512 42.2082C46.3912 42.6882 46.1112 42.5182 46.2812 43.1582L46.4812 44.2881C46.9112 44.5181 46.9912 44.2581 47.2712 44.1681C47.5312 44.0881 48.1012 44.1181 48.3912 44.1281C48.9311 44.1481 48.8911 44.2381 49.2511 44.3281C49.4511 44.3781 49.5811 44.3481 49.7811 44.3881C50.0811 44.4381 49.9311 44.4581 50.1811 44.5381C51.0811 44.8481 50.6411 44.5981 51.7611 45.1981C52.4511 45.5681 52.5911 45.6281 53.531 45.5281C56.111 45.2381 58.3009 45.9381 58.6409 45.9381C60.9009 45.9681 59.5309 46.1281 60.6209 46.1881C61.0309 46.2081 61.3708 46.1781 61.7708 46.1581C61.8708 45.5281 61.2908 44.8381 61.2008 44.6181C61.0808 44.3581 61.1708 44.3181 61.0309 44.0381C60.7109 43.4182 60.5009 43.3582 60.4909 42.7782L60.4209 41.8282C60.2509 41.6882 60.1309 41.6682 59.9409 41.4882C59.5709 41.1282 59.9309 41.1582 59.3709 40.7282L59.2809 40.6582C58.6809 40.1782 58.4109 39.4683 58.1909 38.8683C57.9909 38.3083 57.7609 38.2783 57.4009 37.9383L56.241 38.2883C56.081 38.3083 55.941 38.2883 55.801 38.3283C55.481 38.4383 56.031 38.1983 55.661 38.4183C54.501 39.0983 52.7011 39.9082 51.3611 39.9082Z"
            fill="#D2D3D5" />
        <path fill-rule="evenodd" clip-rule="evenodd" class="state-map-path" id="osun_state_OHC2w6fJr"
            d="M85.5902 50.998C84.7502 51.078 84.5303 51.378 83.8903 51.848C83.6703 51.9979 83.6003 52.0479 83.3703 52.1579C82.6603 52.4979 82.3203 53.4679 81.7603 53.8479C81.6803 53.8979 81.2803 54.1179 81.2303 54.1379C80.5104 54.4179 80.9303 54.0279 80.1304 54.6879C79.6004 55.1279 79.8804 54.4979 79.0504 55.2679L77.5504 56.2678C77.5204 56.5278 77.8504 56.8678 78.1404 57.4378C78.3704 57.8678 78.6304 58.3878 78.6704 58.8278C78.7204 59.4678 78.6104 59.8578 78.7904 60.5277C79.0304 61.4177 78.6304 60.8177 79.1404 61.9977C81.5803 62.5677 81.9203 61.3277 82.7703 60.3977C83.4103 59.6978 83.3703 60.1977 84.1503 59.9478C84.4403 59.8478 84.1403 59.9078 84.4003 59.8078C84.9702 59.5978 85.3102 59.7278 86.1302 59.2778C86.4302 59.1178 86.4102 59.1378 86.7702 59.0078C88.0102 58.5478 89.1001 58.6578 89.6101 58.2478L88.8801 56.1978C88.6202 55.5479 89.0001 55.2779 88.6802 54.6779L88.2902 53.8879C88.0202 53.1579 88.0702 53.0079 87.9902 52.7879L86.6202 49.948C86.6102 49.938 86.6002 49.908 86.5802 49.888C86.1702 50.038 86.4802 49.998 86.0602 50.458C85.8402 50.708 85.7602 50.658 85.5902 50.998Z"
            fill="#FDD1A1" />
        <path fill-rule="evenodd" clip-rule="evenodd" class="state-map-path" id="osun_state_oFGZm07Tf"
            d="M61.6708 77.2373C61.6808 77.5073 61.6608 77.7573 61.6308 77.9773C61.3708 78.9273 60.7008 82.3872 59.5908 83.6772C58.8709 84.5071 61.0508 83.8872 62.0408 83.7072C62.0708 83.6772 62.1708 83.6372 62.2208 83.6372C62.2508 83.6372 62.3008 83.6172 62.3308 83.6172C62.3608 83.6072 62.3808 83.5972 62.4108 83.5972C62.4308 83.5972 62.4508 83.5872 62.4808 83.5872C62.5108 83.5872 62.5308 83.5772 62.5608 83.5772C62.6008 83.5672 62.7308 83.5372 62.7708 83.5372C62.7908 83.5272 62.8108 83.5272 62.8308 83.5272C62.8508 83.5172 62.9808 83.4772 63.0008 83.4672C63.0508 83.4472 63.1807 83.3672 63.2207 83.3572C63.2607 83.3372 63.2607 83.3172 63.3107 83.3072C63.3407 83.2972 63.3507 83.2772 63.3907 83.2672C63.4407 83.2372 63.5007 83.2272 63.5607 83.1872C63.5807 83.1672 63.7307 83.1072 63.7607 83.0972C63.7907 83.0872 63.8007 83.0772 63.8407 83.0672C63.8807 83.0372 63.9207 83.0172 63.9607 83.0172C63.9907 83.0072 64.0207 83.0072 64.0307 82.9972C64.0707 82.9872 64.0807 82.9772 64.1307 82.9672C64.1807 82.9572 64.2307 82.9372 64.2807 82.9272C64.3007 82.9172 64.3507 82.9072 64.3807 82.9072C64.4107 82.8872 64.4407 82.8772 64.4807 82.8772H64.4707C64.5107 82.8672 64.5307 82.8472 64.5707 82.8472C64.6007 82.8272 64.6507 82.8172 64.6807 82.8172C64.7107 82.7972 64.7507 82.7872 64.7807 82.7872C64.8107 82.7672 64.8607 82.7472 64.9007 82.7472C64.9207 82.7272 64.9907 82.7072 65.0207 82.6972C65.0507 82.6872 65.0907 82.6672 65.1307 82.6472C65.1407 82.6372 65.1607 82.6372 65.1707 82.6272C65.2807 82.5972 65.3307 82.5272 65.4607 82.5172C65.5307 82.4872 65.6407 82.4772 65.7107 82.4372C65.7407 82.4272 65.7807 82.4072 65.8207 82.3972C65.8507 82.3772 65.8707 82.3772 65.8907 82.3672C65.9207 82.3372 65.9707 82.3072 66.0007 82.2872C66.0407 82.2572 66.0507 82.2572 66.0907 82.2272C66.1207 82.2072 66.1407 82.1872 66.1807 82.1772C66.2207 82.1472 66.2407 82.1372 66.2807 82.1272C66.3107 82.0972 66.4707 82.0172 66.5107 82.0172C66.5207 82.0072 66.5507 81.9872 66.5707 81.9772C67.3406 81.1872 70.1506 82.2172 72.2705 78.5073C72.6305 77.8373 72.6305 78.0173 72.8405 77.6873C72.7405 77.4473 72.5605 77.2473 72.4105 76.9673C72.0605 76.3173 71.0406 74.1774 70.8106 73.9474C70.4706 73.6074 70.5206 73.9074 70.1206 73.4774C70.0706 73.4274 70.0106 73.3774 69.9606 73.3274C70.1606 72.9274 70.3606 72.2774 70.4706 72.1575C70.9406 71.8075 69.7006 69.9775 69.5306 69.6175C68.9706 68.4475 68.7706 68.3875 68.3306 67.4876C67.9106 66.6076 67.9106 66.8376 67.1507 66.2676C65.9907 65.3876 66.4307 65.6376 65.4007 65.2276C65.1707 65.1376 64.9707 65.0176 64.7407 64.9076C64.4307 64.7676 64.3707 64.7176 64.0107 64.6776C63.5907 64.6376 63.5907 64.6476 63.3107 64.4276C63.2307 64.7976 63.4007 64.7376 63.4607 65.1976C63.5607 65.9476 63.7607 67.4076 63.6307 68.0076C63.3107 69.4375 63.5407 69.5775 62.4408 70.9075C62.0708 71.3575 61.9208 71.5575 61.6208 72.0675C61.0108 73.0974 61.1008 73.1674 61.4508 74.3874C61.8508 75.7974 61.6308 75.7074 61.6708 77.2373Z"
            fill="#D2E28B" />
        <path fill-rule="evenodd" clip-rule="evenodd" class="state-map-path" id="osun_state_VBzRYKbfH"
            d="M69.4306 49.248C69.8006 49.738 69.7006 49.588 70.3506 49.838C70.8406 50.028 71.4106 50.478 71.7905 50.708C72.0005 50.828 72.1405 50.878 72.3605 50.998C72.6905 51.178 73.7205 52.1979 73.9805 52.4979C74.2405 52.7979 74.3505 53.3679 74.8105 54.1479C75.3305 55.0279 74.8405 54.8779 75.7204 55.5579C75.9204 55.7178 76.4104 56.0978 76.6804 56.1578C77.4104 56.3078 77.0704 56.0878 78.1004 55.4879C78.3504 55.3379 78.3804 55.2879 78.5604 55.1179C79.3804 54.3479 79.8703 54.4079 80.1103 54.2479C80.2703 54.1479 80.3503 53.9779 80.5503 53.8779C80.9103 53.6979 81.3503 53.6779 81.6503 53.4079C82.1203 52.9779 82.2203 52.3279 83.2303 51.7579C84.0402 51.298 83.3103 51.8479 84.1602 51.108C85.0402 50.328 85.2402 50.938 86.0202 49.838C86.6602 48.938 85.7102 48.928 85.0102 48.998C84.5902 49.048 84.7802 49.118 84.3502 49.188C83.8802 49.258 83.1903 49.118 82.8303 49.228C82.3803 49.368 82.8203 49.468 81.4603 49.488C80.9903 49.488 80.2503 49.408 79.8203 49.468C79.2904 49.548 79.9803 49.698 78.4804 49.688C76.9404 49.678 77.8004 49.548 77.1504 49.448C76.6204 49.358 76.1804 49.558 75.6504 49.368L74.3505 48.998C73.6705 48.948 72.7205 48.498 72.6005 48.488C72.3305 48.478 72.3105 48.638 72.0805 48.718C71.0406 49.058 69.8006 48.238 69.4306 49.248Z"
            fill="#D2E28B" />
        <path fill-rule="evenodd" clip-rule="evenodd" class="state-map-path" id="osun_state_KQgNLY2hf"
            d="M51.381 34.2184C51.541 33.5484 52.141 32.5584 52.511 31.8884C52.961 31.0985 53.551 30.5685 54.241 30.0385C55.0009 29.4585 55.1209 29.6685 56.2409 28.5685C56.5209 28.2985 56.7509 27.9285 57.0509 27.6485C57.3909 27.3185 57.7609 27.1186 58.0409 26.8086C58.6608 26.1086 59.6508 25.3186 59.8008 25.1186C60.2508 24.5186 59.9808 23.5686 59.6608 22.9087C59.3808 22.3387 59.4608 21.0187 59.5108 20.3787C59.5508 19.8187 59.8208 19.8187 59.6508 19.2987C59.6108 19.1687 59.5808 19.1387 59.5108 18.8988L59.2708 18.3488C58.8108 17.5488 58.7008 17.8988 58.5908 17.2488C58.5308 16.8988 58.4708 16.8588 58.3109 16.6088C57.9609 17.0888 58.2409 17.0488 57.6809 17.6888L56.6409 19.2187C56.3709 19.6587 55.8309 21.2287 55.7709 21.8787C55.7509 22.0587 55.7709 22.0687 55.7209 22.2487C55.6209 22.5787 55.7109 22.1887 55.6009 22.4687C55.5109 22.7087 55.5409 22.9287 55.5009 23.1886C55.2409 24.6686 54.9709 25.0186 54.131 26.3086C53.341 27.5285 53.221 27.0186 52.661 27.3885C51.851 27.9285 51.871 28.0185 51.421 28.7885C51.211 29.1385 50.741 29.5385 50.611 29.8185C50.391 30.2685 50.671 30.0885 50.0711 30.9985C49.6111 31.6984 49.3911 33.0284 50.0411 33.7084C50.2111 33.8784 51.081 34.1784 51.381 34.2184Z"
            fill="#D2E28B" />
        <path fill-rule="evenodd" clip-rule="evenodd" class="state-map-path" id="osun_state_HacvafD3f"
            d="M57.8809 37.9183C58.3208 38.1883 58.6208 38.4083 58.6908 38.9083C58.8308 39.9282 59.3208 40.0482 59.8808 40.6582C60.0208 40.8082 60.1408 41.0882 60.2708 41.2382C60.4608 41.4682 60.6108 41.5082 60.7808 41.7282C61.0208 42.0282 60.9408 42.4082 61.0308 42.4882C61.4708 42.6582 61.8608 42.4882 62.1708 42.2682C62.7307 41.8682 62.8607 42.1982 63.4307 42.0582C63.8607 41.9482 63.8407 41.5082 64.4607 41.6882C65.7907 42.0782 65.7907 41.9282 66.1207 41.3482C66.2207 41.1782 66.3307 41.0682 66.4506 40.8382L66.9606 39.7082C67.5506 38.8283 67.6106 38.6283 67.1706 37.7483L66.0007 35.5983C65.9907 35.5783 65.9807 35.5583 65.9707 35.5383L65.9107 35.4283C65.2007 34.0184 65.4507 33.8284 65.4007 32.2284C64.8607 32.4084 64.4707 33.7084 64.3307 33.9984C64.1807 34.2984 64.0507 34.2884 63.9107 34.5584C63.6307 35.1384 63.7607 35.9283 63.0507 36.3983C62.9407 36.4783 63.0507 36.4083 62.8907 36.4883C61.8508 37.0183 61.8808 36.5583 60.9808 35.9183C60.0708 35.2683 60.4708 35.7083 59.5508 35.8283C59.1008 35.8983 59.0408 35.9983 58.7408 36.0583C58.4208 36.1283 58.1409 36.0183 58.0309 36.3083C57.9409 36.5483 58.0609 36.9983 58.0709 37.1983C58.0909 37.7183 57.9009 37.5383 57.8809 37.9183Z"
            fill="#FDD1A1" />
        <path fill-rule="evenodd" clip-rule="evenodd" class="state-map-path" id="osun_state_LwOC7Wkex"
            d="M62.6408 83.9472L63.5807 85.5171C63.6007 85.5571 63.6207 85.5871 63.6407 85.6171C63.7907 85.8171 63.5507 85.7171 63.9307 85.8671C63.9307 86.1171 63.9407 86.3671 63.9407 86.6171C63.9407 86.7471 63.9407 86.9171 63.9007 87.0371L62.4708 89.767C62.3308 89.977 62.4708 89.707 62.3108 90.017C61.8808 90.747 63.2908 91.457 63.2308 92.8869C63.2208 92.9069 63.1408 93.1269 63.1408 93.1469C63.1208 93.1869 63.0708 93.3169 63.0708 93.3169C62.9408 93.7069 63.1808 95.1169 63.2308 95.5569C63.2808 96.0869 63.2308 95.6969 63.3508 95.9769C63.3508 95.9769 63.4607 96.2469 63.4807 96.2869C64.6707 96.2869 66.0907 94.9569 65.9907 92.8269C66.0107 92.687 66.0007 92.397 66.0007 92.237C65.9907 91.497 66.0007 90.747 66.0007 90.007C66.1107 89.717 65.8107 90.177 66.1107 89.867C66.2107 89.777 66.3207 89.697 66.4207 89.597C68.0206 88.0671 67.4606 84.9971 66.4807 83.2872C66.3907 82.9672 66.3607 82.7072 66.3707 82.5072C66.2907 82.5472 66.2207 82.6072 66.1507 82.6472C66.1107 82.6872 66.0707 82.7072 66.0107 82.7272C65.9707 82.7572 65.7707 82.8272 65.7307 82.8372C65.6907 82.8472 65.6407 82.8572 65.6007 82.8772C65.5607 82.8872 65.5107 82.8972 65.4707 82.9072C65.4307 82.9372 65.3707 82.9572 65.3307 82.9772C65.2907 82.9972 65.2307 83.0172 65.1907 83.0372L65.0607 83.0872C65.0107 83.1072 64.9607 83.1172 64.9107 83.1372C64.8707 83.1572 64.8407 83.1572 64.8107 83.1672C64.7707 83.1872 64.7407 83.1872 64.7007 83.1972C64.6807 83.2072 64.5507 83.2372 64.5307 83.2472C64.4807 83.2672 64.3307 83.3172 64.3007 83.3172C64.2607 83.3272 64.2407 83.3472 64.1907 83.3472C64.1807 83.3572 64.0607 83.3872 64.0407 83.3872C64.0007 83.4172 63.8907 83.4672 63.8407 83.4672C63.8207 83.4772 63.7607 83.5072 63.7607 83.5072C63.7107 83.5572 63.6207 83.5772 63.5507 83.6072C63.5307 83.6172 63.5107 83.6272 63.4907 83.6372H63.5007C63.4907 83.6372 63.3908 83.6972 63.3808 83.7072C63.3408 83.7172 63.3008 83.7472 63.2708 83.7672C63.2208 83.8072 63.0608 83.8672 63.0108 83.8672C62.9708 83.8872 62.8608 83.9172 62.8108 83.9172H62.7908C62.8308 83.8972 62.7908 83.9172 62.7708 83.9172C62.7508 83.9272 62.6708 83.9472 62.6408 83.9472Z"
            fill="#D2D3D5" />
    </svg>