<svg viewBox="0 0 138 126" fill="none" xmlns="http://www.w3.org/2000/svg">
  
        <path fill-rule="evenodd" clip-rule="evenodd" class="state-map-path" id="oyo-state-OEOYLSPCb"
            d="M37.9791 46.8199L36.4991 47.6299L34.8991 47.7199L32.4692 46.7999C32.1092 46.7099 31.9792 46.4899 31.7392 46.4299C31.1592 46.27 30.8392 46.9599 30.0292 46.15C29.8793 45.99 29.5893 45.63 29.5393 45.47C28.7393 45.48 26.0693 45.79 26.0293 45.79C25.6294 45.72 25.4794 45.72 25.0894 45.69C24.5194 45.65 24.6294 45.54 24.1894 45.49C23.4394 45.4 23.2694 45.95 22.3094 45.58C21.6895 45.35 21.0495 45.28 20.6995 45.13C20.0695 44.87 19.9795 44.59 19.1095 44.58C18.2295 44.58 17.8895 44.51 17.1696 44.4C16.8196 44.34 16.4596 44.38 16.1096 44.32C14.1896 43.98 5.88984 42.53 4.57988 43.87C4.09989 44.35 3.5799 43.21 3.02991 43.54C2.94992 44.02 1.46995 46 1.55995 46.4799C1.62995 46.9399 1.29996 47.6599 0.979965 48.0499C0.229983 48.9699 0.439978 50.9898 0.869967 51.9498C1.38995 53.0898 1.45995 54.1298 2.33993 55.0897C2.72992 55.5197 2.85992 55.9597 3.29991 56.4197C4.20989 57.3597 3.7899 56.9097 3.80989 58.2697C5.62985 58.2397 5.13986 57.9597 6.62983 57.9797C7.18981 57.9897 7.6698 57.8797 8.21979 57.9797C8.78977 58.0897 8.80977 58.3397 9.52975 58.0897L10.7797 57.8297C10.9697 57.7697 11.9097 57.5797 12.1197 57.5497C12.6297 57.4697 13.0497 57.5397 13.5797 57.4297C14.0996 57.3197 14.4496 57.3097 15.0096 57.2997C16.0496 57.2997 16.9596 56.9597 17.9595 57.1897C19.3695 57.5197 22.6294 57.3397 23.9794 56.9397L25.9293 56.5297C25.9493 56.5197 25.9793 56.5197 25.9993 56.5197L26.2293 56.5297C26.3193 56.5297 26.2193 56.5897 26.5493 56.5697C26.8693 56.1097 26.9493 55.5697 27.3193 55.1097C27.9293 54.3298 28.0693 54.7497 29.0693 54.5697C29.7793 54.4497 32.5392 54.0098 33.2692 54.1598C35.1191 54.5397 34.9191 55.4397 37.7691 55.2697C38.329 55.2397 38.609 55.0597 39.859 55.0097C40.589 54.9897 42.0189 54.6997 42.5589 54.3897C43.7889 53.6898 44.2589 53.8498 45.4689 52.7098C46.1588 52.0698 46.0489 52.2698 46.4788 51.4198C46.5388 51.2798 46.5788 51.2198 46.6688 51.1198L47.5488 50.2099C47.7188 49.9899 47.9088 49.7799 48.0688 49.6299L49.9088 47.9699C50.1287 47.6099 50.0588 47.6299 50.3587 47.3299L50.8187 46.8799C51.2387 46.5299 51.9387 46.8699 52.1887 47.1299L53.9487 48.4799C54.5786 49.2399 54.5086 48.7399 55.0086 49.3099C55.0286 49.3199 55.0386 49.3399 55.0586 49.3599L55.1486 49.4699C55.5486 49.9499 55.7986 50.4598 56.3186 50.7898C58.8085 52.3698 58.9185 51.2598 59.7185 51.6698C60.0885 51.8498 60.3585 51.9998 60.6785 52.3098L61.5885 53.0098C62.0385 53.3898 61.9185 53.5898 62.1385 54.0498C62.2984 54.3797 62.5284 54.6997 62.6384 55.0197L63.2084 56.8797C63.4384 57.4597 63.5984 58.0397 63.9984 58.4697C64.2284 58.1097 64.3584 57.0197 64.5584 56.5397C65.2584 54.8297 65.2184 54.4797 65.7484 52.7598C66.4083 50.5998 66.0384 50.5798 65.7184 48.3999C65.6184 47.6799 65.2984 45.79 65.0784 45.22C64.8984 44.79 64.7184 44.85 64.5984 44.4C64.5084 44.08 64.3784 43.58 64.3684 43.32C64.3484 42.79 64.4384 42.58 64.3184 42.0101C63.5484 41.5001 60.9785 41.2701 59.9285 41.1701L57.6786 40.8001C57.3186 40.7501 56.7986 40.7801 56.4086 40.7701C55.5286 40.7401 53.0487 40.0501 52.1287 39.7301C51.7887 39.6101 51.4387 39.5101 51.0687 39.3701C49.9488 38.9701 47.2888 37.3802 45.9789 36.6802C44.8589 36.0902 45.0289 36.2102 44.1289 36.8002C42.6689 37.7802 42.9689 37.4502 42.1089 38.7701C41.309 39.9901 40.119 40.7901 39.709 43.11C39.639 43.5 39.499 43.78 39.379 44.12L37.9791 46.8199Z"
            fill="#91D8F7" />
        <path fill-rule="evenodd" clip-rule="evenodd" class="state-map-path" id="oyo-state-IopKMoisl"
            d="M76.4381 79.8891C76.0481 80.0891 75.6281 80.3391 74.9182 80.7591L74.0382 81.3791C73.8582 81.5091 73.8082 81.4991 73.6082 81.6491L73.3782 81.8291C73.2682 81.8891 73.3282 81.8791 73.1682 81.9191C72.1182 82.1491 72.0482 81.3791 71.4082 80.8991C71.0683 80.6491 70.8983 80.4291 70.5683 80.2391C69.6983 79.7191 68.4883 79.2092 67.3883 79.2192C66.1584 79.2192 64.8184 79.1692 63.6984 78.6092C63.3384 78.4292 63.1485 78.2192 62.7985 78.0992C62.2085 78.4292 62.4785 78.5292 61.5385 78.8592C61.5185 79.2992 61.4885 79.2892 61.6585 79.6591L62.2585 80.8691C62.8085 81.7791 62.5585 81.6091 63.0085 82.8091C63.1485 83.1791 63.0785 83.2191 63.1285 83.609C63.1485 83.809 63.1985 83.889 63.1885 84.029L63.0985 84.319C62.4985 84.579 61.7385 83.899 60.9085 83.989C60.2885 84.049 60.8485 84.049 60.3785 84.149C60.1585 84.199 59.9985 84.159 59.8085 84.179C59.3885 84.239 59.3585 84.299 59.0786 84.809C59.6985 85.619 60.5485 85.419 60.8985 85.459C61.3185 85.509 62.1485 85.879 62.4285 86.189C63.1985 87.009 61.7785 87.6689 61.9885 88.5889C62.0785 88.9689 61.9885 88.6489 62.0885 88.8189C63.1885 90.6789 63.8084 90.7589 65.6384 89.8689C66.2484 89.5689 66.8484 89.5889 67.5383 89.4389C69.8783 88.9189 69.0383 88.8589 71.3582 89.6289C72.1082 89.8789 74.3382 90.4189 75.1782 90.3889C76.1781 90.3589 75.9781 89.8489 76.7681 89.7189C78.5281 89.4089 77.3781 89.6089 78.8681 89.4989C81.598 89.2889 81.838 80.7391 81.718 78.6092C81.648 78.6292 81.578 78.6392 81.508 78.6492L81.288 78.6792C81.118 78.7192 80.938 78.7592 80.778 78.7792C80.738 78.7992 80.688 78.8092 80.648 78.8192C80.558 78.8492 80.478 78.8692 80.388 78.9092C79.1581 78.9092 76.7481 79.8891 76.4381 79.8891Z"
            fill="#D2E28B" />
        <path fill-rule="evenodd" clip-rule="evenodd" class="state-map-path" id="oyo-state-SVSSzZ3ZE"
            d="M81.338 78.1492C81.968 78.0292 82.118 78.0092 82.7879 77.5592C82.5279 77.1292 82.508 73.0493 81.858 72.2693C81.618 72.6093 81.578 72.7593 81.108 72.9793L79.158 74.0293C78.828 74.2393 78.558 74.3493 78.3881 74.6093C78.2481 74.6093 78.2281 75.7492 77.9981 76.2592C75.7181 81.2491 76.1681 78.8292 81.338 78.1492Z"
            fill="#F6AFCE" />
        <path fill-rule="evenodd" clip-rule="evenodd" class="state-map-path" id="oyo-state-QeNegPz6O"
            d="M73.1382 75.0793C73.3782 75.4993 73.5982 75.7692 73.6782 76.3892C73.9082 76.4392 74.3482 77.0292 74.3882 77.2392C74.6581 78.5892 73.4182 80.7691 73.4982 81.3091C73.9882 80.8791 75.1881 80.1591 75.8281 79.7791C75.8981 79.7391 75.9781 79.6991 76.0581 79.6591V79.7091C76.0281 79.7191 75.9881 79.7191 75.9581 79.7091C76.5481 77.9992 77.4981 76.8992 77.9281 74.7393C77.9281 74.4293 78.0181 74.4193 78.2581 74.2393C78.828 73.8193 80.218 72.8793 80.838 72.6493C81.238 72.4993 81.398 72.4593 81.698 71.7393L79.678 68.3394C79.558 67.8594 79.468 67.3395 79.428 66.8595C79.378 66.2395 79.228 66.0695 79.208 65.2495C79.198 64.8395 79.058 64.2295 78.958 63.7795C78.728 62.6996 78.5081 62.5196 77.4981 61.7396C75.6281 60.2696 76.3081 60.6596 75.9881 59.6496C75.5981 58.4497 75.6681 55.8197 76.3381 55.1398C76.6581 54.8098 76.9981 54.5498 77.2981 54.3098C78.0481 53.6898 78.3881 52.8698 78.758 52.2898C79.448 51.1999 81.308 50.3099 81.128 49.3299L79.878 47.08C79.408 46.66 79.728 47.07 79.308 46.95C79.118 46.89 78.998 46.67 78.838 46.53C78.4881 46.22 78.1481 46.29 78.0681 45.5C77.9981 44.76 77.3681 43.69 77.0881 43.0001C76.9381 42.6501 77.0181 42.5801 76.9281 42.2501C76.5881 40.8801 76.2181 41.2401 75.5681 40.9001C75.2181 40.7101 75.1081 40.2501 74.9381 39.8701C74.6381 39.2301 74.7281 38.9802 74.7281 38.2202L74.7681 37.5402C74.7781 37.5102 74.7881 37.4902 74.7981 37.4602L75.0481 36.7102C75.2381 36.2002 74.8381 34.8103 76.2081 34.5003C72.9282 33.6803 74.1982 34.5103 71.9782 35.4302C71.6982 35.5502 69.7683 35.7702 69.3983 35.7302C68.7283 35.6502 68.9083 35.5802 68.2083 35.7302C67.7383 35.8302 67.3983 35.7002 66.9383 35.8602C66.9283 36.3502 66.8883 36.7502 66.8383 37.1602C66.7783 37.6302 66.8983 37.8702 66.9283 38.3202C66.9883 39.1701 66.9383 40.1601 66.9183 41.0201C66.8983 41.7501 67.2083 43.0701 67.0883 43.49C66.9283 44.07 66.0284 44.38 65.5984 44.61C65.3784 45.8 65.9584 46.12 66.0284 47.8099C66.0584 48.4399 66.1684 48.3199 66.2384 48.7899C66.6583 51.3898 66.6283 51.4598 65.8884 53.7698L65.3884 55.6897C64.7584 57.1997 65.0184 56.3297 64.5084 58.3097C64.1384 59.7596 63.6384 58.6797 63.3984 58.4997C62.7184 58.6197 61.4285 60.8596 61.5485 61.9396C62.3785 61.8196 61.9885 61.6896 62.6984 62.1596C63.4384 62.6496 63.0484 62.3596 63.4084 63.0696C63.6884 63.6395 64.3484 64.2995 64.7884 64.7595C65.0684 65.0495 65.3084 65.4395 65.5184 65.6295C67.3883 67.2895 67.9983 67.1195 68.3783 67.4594C68.7983 67.8294 68.7983 67.8594 69.3183 68.1094C71.8582 69.3594 70.5682 69.2194 71.6282 70.4994C72.5582 71.6193 72.4682 71.2794 72.8682 72.4593C73.0082 72.8893 73.2182 73.2393 73.2282 73.7293C73.2382 74.1193 73.2482 74.8993 73.1382 75.0793Z"
            fill="#9DD3AF" />
        <path fill-rule="evenodd" clip-rule="evenodd" class="state-map-path" id="oyo-state-l0ZmiyvL1"
            d="M3.78991 58.6197C2.50994 62.7696 1.95995 66.2595 1.05997 70.6594C0.999975 71.0894 1.03997 71.3794 0.909977 71.7993C0.649984 72.6293 0.549986 73.4193 0.319992 73.8093C0.0899978 74.1893 0.119997 74.4793 0 74.8593C0.529987 74.7593 1.37997 73.7793 2.38994 73.0893C7.50981 69.8694 11.9997 70.2494 11.9397 77.8292C11.9297 78.4992 11.7697 79.1492 11.8197 79.8291C11.8397 80.2291 11.9297 80.2591 11.9797 80.6291C12.0197 80.9391 11.9897 81.2891 12.0397 81.5991C12.1997 82.5691 12.5897 83.889 13.0797 84.759C13.3497 85.249 13.5597 85.739 14.2996 85.579C14.5296 85.019 14.8296 83.1991 14.8796 82.4491C15.0096 80.7091 14.9796 80.8791 15.6096 79.5192C16.3296 77.9692 18.5695 78.8592 18.9895 80.1291C19.1595 80.6391 19.1895 81.1891 19.1795 81.8291C19.4895 81.6591 19.6695 81.2591 19.9695 80.9891C20.8495 80.2291 23.0494 80.3291 24.2894 80.2691C25.8994 80.2091 28.7393 79.8191 30.5792 79.9991C31.3692 80.0791 32.8292 80.5191 33.3892 80.3591C34.2392 80.1191 34.7391 79.7791 36.2991 80.0991C37.5291 80.3491 37.9291 80.1091 38.969 79.7391C40.939 79.0392 40.009 79.4692 40.699 78.1692C39.879 77.9292 39.879 77.7792 39.239 77.4492C38.0991 76.8692 36.9391 76.2492 35.9691 75.2293C35.7091 74.9493 35.5891 74.6293 35.2991 74.3093C33.9592 72.7893 33.8192 72.1693 33.1892 70.1494C32.9992 69.5394 32.9192 67.6594 33.4192 66.7995L34.4591 65.4595C34.9991 64.6595 35.0791 63.8695 34.6691 62.8896L34.4791 62.9696C33.6992 63.2096 31.3892 63.0296 30.4792 62.4696C28.9993 61.5596 29.2693 61.1296 28.7193 60.5296C28.3593 60.1396 28.4493 60.1096 28.2193 59.7396C28.0293 59.4397 26.4393 58.3097 26.3293 57.9397C26.2094 57.5397 26.4593 57.0497 25.9794 56.9797C25.9494 56.9697 24.2494 57.3597 23.9094 57.4097C23.2494 57.4997 22.3994 57.6697 21.6695 57.7597C19.6595 58.0097 17.4896 57.1797 12.2397 58.0297C11.4397 58.1597 10.9397 58.2197 10.1497 58.3897C9.18977 58.5897 9.20977 58.7797 8.1798 58.4397C7.76981 58.2997 7.65981 58.2697 7.19982 58.3697C6.43984 58.5497 6.73983 58.4197 6.11985 58.3697C5.76986 58.3397 5.48986 58.5297 5.03988 58.5497C4.62989 58.5797 4.1999 58.5997 3.78991 58.6197Z"
            fill="#F6AFCE" />
        <path fill-rule="evenodd" clip-rule="evenodd" class="state-map-path" id="oyo-state-XOujnOzdA"
            d="M39.069 43.72C39.559 42.3801 39.609 41.2601 40.769 39.8401L41.729 38.6002C42.389 37.5602 42.099 37.7702 43.4189 36.8002L44.7789 35.8302C44.7989 34.9803 44.7289 34.4703 44.6289 33.7903C44.5089 32.9303 44.9189 32.8503 43.4489 31.6403C42.039 30.4804 41.619 31.2803 40.969 30.8204C40.339 30.3704 40.349 30.1704 40.279 29.3404C40.189 28.3504 39.799 29.2104 40.239 27.5204C40.629 25.9705 39.589 27.1304 41.579 25.0905C42.249 24.3905 41.659 24.3805 41.629 23.0605C41.609 22.4306 41.689 21.8006 41.669 21.1706C41.309 21.2906 41.029 21.5406 40.559 21.7606C40.039 22.0106 39.799 22.3006 39.429 22.4506C37.4991 23.2405 33.1492 26.2705 31.3592 25.1605C30.8692 24.8605 30.9292 25.2505 30.2992 24.4405C27.6293 21.0406 16.0796 34.2503 10.5297 35.2402C8.0998 36.1402 8.84978 35.4702 7.01982 35.5702C6.01985 35.6302 5.86985 35.9902 5.32987 36.6202L3.8899 38.1202C4.90988 40.0301 3.28992 41.3001 3.28992 42.8101C3.9099 43.0601 4.69988 42.9401 5.27987 42.7401C6.01985 42.5001 6.60983 42.9001 7.32982 42.9101C9.12977 42.9301 7.9898 43.1001 9.32977 43.0601C10.1097 43.0301 10.6397 43.4 11.4197 43.36C13.1097 43.28 13.9497 43.54 15.4196 43.75C16.8396 43.95 18.1096 44.02 19.4995 44.2C19.9295 44.26 22.0295 45.26 22.9794 45.2C23.7994 45.15 24.1294 45.05 24.9994 45.19C27.8693 45.63 26.9993 45.01 27.9793 44.94C28.5493 44.89 28.2993 45.08 28.9193 45.02C29.8793 44.93 29.7493 45.31 30.3292 45.85C31.0092 46.48 31.3292 45.7 32.1192 46.16C36.3491 48.6499 37.9591 46.79 39.069 43.72Z"
            fill="#9DD3AF" />
        <path fill-rule="evenodd" clip-rule="evenodd" class="state-map-path" id="oyo-state-g7KybFzCV"
            d="M82.508 72.7993C82.648 72.7793 83.5679 72.1493 83.8479 71.9393C84.5279 71.4493 84.5579 71.4693 84.9279 70.7294C85.8379 68.9394 85.9079 69.8894 86.7479 67.8494C87.3778 66.3195 86.9179 66.8494 87.1378 65.9495C87.2778 65.3495 87.5178 64.7295 87.6678 64.1095C87.9578 62.9295 87.8078 61.8896 88.8078 60.5396C89.6778 59.3596 89.1178 60.0396 89.5478 58.9696C89.7778 58.4197 89.9278 57.8597 90.2778 57.4197C91.1077 56.3897 93.2677 55.4897 94.6677 54.8397C96.0676 54.1898 96.2176 53.4398 97.0976 52.5698C97.6176 52.0498 98.1176 52.0498 98.5676 51.5898C98.4676 51.2898 98.3876 51.2398 98.2476 50.9598L97.5076 49.0099C94.7177 40.3701 93.6377 39.2701 89.7378 31.5803C87.6078 32.8903 88.2278 32.8803 87.4478 33.8403C86.4579 35.0502 85.7979 35.0102 84.0479 35.0802C83.2079 35.1102 82.608 35.3002 81.958 35.3302C80.968 35.3802 80.608 35.1102 79.768 35.1102C77.1581 35.1102 77.5581 34.5003 76.6981 34.7302C74.9981 35.1802 75.7281 36.0102 75.3781 36.9302C75.1481 37.5402 74.8481 40.3301 76.1081 40.6501C77.4081 40.9801 77.0381 41.8601 77.8481 43.64C79.018 46.21 77.9181 45.31 79.058 46.2C79.078 46.22 79.218 46.34 79.218 46.35C79.588 46.61 79.188 46.39 79.658 46.51C80.308 46.6899 80.498 47.2799 80.778 47.7899C81.808 49.7099 82.148 49.5799 79.518 51.9498C78.888 52.5198 79.068 53.0798 77.4981 54.6098C77.0581 55.0297 76.5681 55.2597 76.4181 55.9197C76.0481 57.6697 76.0181 58.3197 76.4981 60.0396C76.7081 60.7696 76.9781 60.7696 77.8381 61.5896L78.7881 62.4396C79.428 63.1495 79.658 65.0495 79.748 66.1895C79.758 66.3195 80.028 68.1394 80.048 68.1994L81.448 70.2594C81.648 70.5794 81.668 70.7194 81.838 71.0893C82.298 72.0693 82.218 71.0993 82.508 72.7993Z"
            fill="#F6AFCE" />
        <path fill-rule="evenodd" clip-rule="evenodd" class="state-map-path" id="oyo-state-iJcKAuKea"
            d="M42.169 20.8406C42.119 21.6606 42.089 22.9505 42.179 23.6605C42.249 24.1605 42.479 24.5305 42.239 24.9405C41.949 25.4505 40.809 26.1605 40.719 26.6804C40.589 27.4204 40.839 27.0904 40.479 28.1604C40.309 28.6404 40.649 28.6204 40.699 29.3404C40.759 30.1304 40.639 29.9904 41.149 30.5103C42.8789 30.5303 42.9789 30.6703 44.3589 32.0303C44.9489 32.6103 45.1189 32.5703 45.1089 33.6303C45.1089 34.6102 45.2489 34.9802 45.3189 35.8302L49.8888 38.3502C51.2787 39.1401 53.5787 39.6801 55.1886 40.1101C56.4086 40.4401 57.1786 40.3201 58.4086 40.4601C58.9585 40.5201 59.2185 40.6401 59.9285 40.6601C60.7385 40.6901 63.6684 41.1701 64.4184 41.5801C65.3184 42.0701 64.5884 43.37 65.1184 44.49C65.8784 43.79 65.4484 44.29 66.5884 43.62C66.7784 42.1001 66.3884 42.2201 66.4084 41.1101C66.4184 40.4901 66.5484 40.3301 66.5884 39.9201C66.7284 38.5501 66.1184 37.6202 66.4984 36.0302C66.5984 35.6202 66.5784 35.1702 66.6784 34.8202C67.0183 33.6403 67.4783 33.1803 67.0483 31.5603C66.7584 30.4303 65.8084 30.3603 64.9484 29.4904C64.7384 29.2804 64.4184 28.8304 64.2984 28.7304C63.7884 28.3004 62.9584 28.5104 62.3085 27.9404C62.0185 27.6804 61.9685 27.5304 61.5885 27.3704C61.0085 27.1404 59.7885 27.2304 59.2685 25.4805C59.0585 24.7605 59.0385 23.8605 58.9285 23.0605L58.0186 18.4206C57.8786 17.8607 57.2386 17.1007 56.8186 16.8707C56.5686 16.7207 56.0886 16.6507 55.8586 16.4407L54.7186 14.7707C54.5987 14.6407 54.5287 14.6007 54.3987 14.4207C54.2787 14.2507 54.3587 14.3607 54.2787 14.2307L54.1187 13.9608C53.0187 14.5307 54.0087 14.1507 52.8887 14.4707C52.7687 14.5007 52.6787 14.5507 52.4987 14.6307C46.3189 17.7107 47.5088 19.4006 43.4689 20.1806C43.2189 20.2606 42.369 20.6906 42.169 20.8406Z"
            fill="#F6AFCE" />
        <path fill-rule="evenodd" clip-rule="evenodd" class="state-map-path" id="oyo-state-PQbFxGoaD"
            d="M26.6593 57.7797C26.8193 58.1297 26.8293 57.9697 27.2093 58.3497C27.6893 58.8396 27.8693 58.7796 28.3993 59.3596C28.6893 59.6696 28.5993 59.7796 28.8493 60.0996C29.0293 60.3196 29.2293 60.4396 29.3793 60.6596C29.5693 60.9396 29.5793 61.7896 31.2292 62.2996C32.2192 62.6095 34.2591 63.1295 34.8591 62.1496C35.0791 61.7796 35.3391 60.8596 35.3591 60.3796C35.4291 58.6996 34.6691 58.2897 37.2791 57.7897C37.4891 57.7497 38.139 57.7297 38.369 57.7397C38.839 57.7497 38.929 57.8397 39.239 58.1097C40.169 58.9096 39.819 59.5996 41.829 60.0596C42.6189 60.2296 43.9389 61.3396 44.3289 62.0796C44.6289 62.6595 44.9689 63.0895 44.3189 63.7495C43.8789 64.1795 43.3589 64.3695 42.6589 64.3895C42.9089 64.7495 43.5589 65.3795 44.0289 65.7795C44.7989 66.4294 44.7089 66.6094 46.1389 66.5394C46.9688 66.4894 48.0288 66.2395 48.6488 66.6394C49.1188 66.9594 48.9188 67.4194 50.8587 67.2094C51.6387 67.1294 52.4287 66.8994 53.1687 66.6894C54.0187 66.4494 57.6686 66.4994 58.5885 66.6894C59.2585 66.8194 60.5085 66.9994 61.2085 66.9794C61.1685 66.1495 61.0185 66.7994 61.0085 64.4595C61.0085 62.1096 60.6785 61.0796 62.3685 58.9296C63.1684 57.8997 63.2884 58.4196 62.6684 56.7097C62.4684 56.1497 62.4384 55.7897 62.2785 55.2097C62.1785 54.8397 61.7885 54.2798 61.6385 53.9298C61.3685 53.2898 61.0185 53.1098 60.2885 52.4998C60.0985 52.3298 59.9385 52.2298 59.6885 52.1098C58.8685 51.7098 59.1185 52.4498 58.1386 52.1798C56.8286 51.8198 55.7086 50.8798 54.9086 49.7999C54.4586 49.1899 54.1687 49.4999 53.7887 49.0299C52.8687 47.9099 52.9487 48.3999 52.2887 47.7399C50.9287 46.3599 50.5387 47.9299 50.0588 48.4299C48.9488 49.5999 49.6588 49.0099 49.2488 49.4999C48.9788 49.8299 48.9288 49.6399 48.5288 49.8099C48.1988 49.9399 47.9088 50.4598 47.6188 50.7798C47.1588 51.2698 47.1088 51.0198 46.7988 51.7298C46.3888 52.6698 44.7389 53.9698 43.6989 54.3297C42.3689 54.7797 42.7189 55.1197 40.949 55.3397C40.259 55.4297 39.859 55.3197 39.179 55.4897C36.4691 56.1997 36.0591 55.6497 34.5691 55.0997C31.8392 54.1098 31.5792 54.8997 29.4793 54.9397C27.0993 54.9897 27.7293 55.4897 27.1693 56.3697C26.6693 57.1397 26.6693 56.3897 26.6593 57.7797Z"
            fill="#9DD3AF" />
        <path fill-rule="evenodd" clip-rule="evenodd" class="state-map-path" id="oyo-state-LSiICJ9wI"
            d="M45.6289 67.0795C45.6689 67.2794 45.7389 67.4394 45.8389 67.6794C46.4289 69.0394 45.9689 68.7494 45.6689 69.5594C45.2889 70.5794 44.9989 70.8594 45.0989 71.7493C45.1689 72.4493 45.7289 72.7493 44.9489 73.7493C44.1989 74.7093 44.2189 73.6693 42.149 76.3192C41.169 77.5592 41.519 77.0992 40.969 78.6492C40.779 79.1692 40.769 79.5491 40.309 79.7791L37.6191 80.6291C36.8191 80.8791 37.4291 80.6191 36.1691 80.5791C35.7791 80.5591 34.6892 80.4391 34.4792 80.4591C34.4292 80.4591 33.3392 80.8591 33.2392 80.9191C33.4292 81.7491 35.1691 82.5291 34.9392 84.209C34.7992 85.229 34.4792 84.599 35.0092 86.289C35.1192 86.649 35.2191 86.849 35.4991 87.069L37.6491 88.7089C38.4691 89.3189 38.2791 89.4089 39.429 89.0889C44.3889 87.6789 42.539 87.439 42.949 86.109C43.4889 84.349 43.9989 84.919 44.7389 84.899C45.1389 84.889 45.4889 84.569 46.0389 84.559C46.8389 84.559 47.0289 85.019 48.8388 85.019C51.6487 85.029 49.6888 82.9691 50.5088 81.9991C50.8288 81.6391 51.2188 81.5291 51.6687 81.7791C52.7087 82.3691 55.0887 83.3891 56.2286 83.809L58.6086 84.759C59.9985 83.2791 58.4186 84.229 60.3885 83.709C60.7585 83.609 61.2785 83.589 61.6885 83.649C62.1385 83.719 62.1085 83.909 62.7285 83.869C62.7685 82.8591 62.5085 82.8491 62.2685 81.9491C62.0085 81.0091 61.1485 79.9091 60.7785 78.2192C60.6885 77.7992 60.7785 77.3592 60.7385 76.9292C60.6985 76.3892 60.5485 76.6492 60.5185 75.9392C60.4385 73.2393 60.4385 73.6293 61.4785 71.8193C62.0585 70.8194 62.0085 70.3194 61.6685 69.2394C61.6085 69.0294 61.5585 68.8994 61.5085 68.7494C61.3985 68.3694 61.4585 67.9794 61.3885 67.5494C60.5585 67.2994 58.2586 67.0595 57.3186 67.0695C55.0887 67.0995 54.3587 66.6595 52.3387 67.3894C51.8587 67.5594 51.8987 67.4594 51.3288 67.5494C50.7288 67.6394 50.0988 67.9494 49.3388 67.6494C48.6988 67.3994 48.5788 66.8895 47.8388 66.8495C46.8989 66.7895 46.4889 67.0395 45.6289 67.0795Z"
            fill="#91D8F7" />
        <path fill-rule="evenodd" clip-rule="evenodd" class="state-map-path" id="oyo-state-faroYlClU"
            d="M38.929 93.6088L38.979 90.6889C38.609 90.3489 38.839 90.4489 38.619 90.0489C38.379 89.6189 37.9191 89.3889 37.5391 89.1289C37.3091 88.9589 37.1791 88.7789 36.9591 88.5989C36.3491 88.1289 35.0491 87.3689 34.7291 86.749C33.9792 85.259 34.3891 84.869 34.4291 84.409C34.5491 83.1691 34.3791 82.9191 33.5992 82.0791C33.2092 81.6591 32.9992 81.1791 32.6792 80.9091C32.2492 80.5391 29.9593 80.2991 29.1893 80.3691C27.9293 80.4891 26.5993 80.4591 25.2994 80.5891C24.6494 80.6591 24.4494 80.7891 23.5994 80.7891C23.0694 80.7891 21.9595 80.7291 21.5095 80.8291C21.0595 80.9191 20.3295 81.1291 20.0295 81.4491C19.8395 81.6391 19.7895 81.8291 19.6195 82.0491C19.3995 82.3391 19.2895 82.3191 19.0395 82.5191C19.0095 82.9391 18.9995 83.299 18.9995 83.719C18.4095 86.889 15.6096 90.9189 17.0096 93.6688C17.5296 94.6688 18.0295 94.8988 18.4695 95.3188C19.1795 95.9987 18.4695 95.7087 20.2095 96.7787C21.0495 97.2987 21.7795 98.1487 22.1094 99.0687C22.3194 99.6486 22.5994 99.9786 22.7894 100.469C23.4494 100.449 23.7194 100.269 24.5894 100.289C24.8594 100.289 25.3394 100.309 25.5894 100.269C26.3893 100.139 25.8894 99.4287 27.9393 99.7186C28.0693 99.7386 29.4893 99.6586 29.8793 99.6586C30.4092 99.0587 30.6592 98.8287 31.4892 98.7287C32.3492 98.6187 32.9892 98.5087 33.8692 98.4887C34.7391 98.4687 35.5991 98.4887 36.4591 98.4387C36.8691 98.4087 37.0091 98.2787 37.5591 98.2287C37.9691 98.1987 38.269 98.1887 38.619 98.0787C38.759 97.7887 39.119 96.3487 39.159 95.9787L38.929 93.6088Z"
            fill="#9DD3AF" />
        <path fill-rule="evenodd" clip-rule="evenodd" class="state-map-path" id="oyo-state-NJTQ83oDq"
            d="M59.0885 11.5808C59.2585 11.8508 60.0885 12.5308 60.4785 12.7208C60.6985 12.8308 61.0685 13.0708 61.2485 13.1408C62.0485 13.4108 63.0784 13.5008 63.8584 13.6608C64.1084 13.7108 64.1184 13.7808 64.3284 13.8308C65.1384 14.0308 65.6184 13.4308 66.4883 13.4008C67.6883 13.3608 74.6981 17.3707 76.1281 18.5107C76.6481 18.8906 76.4881 19.0706 77.2681 19.0506C78.0781 19.0406 78.0481 18.8606 78.658 18.8206C79.568 18.7506 79.288 18.9106 80.058 18.5606C80.378 18.4107 80.868 18.1607 81.218 18.0107C81.458 17.9207 83.0279 17.8407 84.0479 17.5507C84.6679 17.3707 84.2379 17.6107 85.3479 17.1907C86.6079 16.7207 86.8878 17.3307 87.9878 15.7207C88.4478 15.0507 88.5578 14.8707 89.2378 14.4708L90.9077 13.2608C91.0977 13.1108 91.0577 13.2108 91.1677 12.9808L89.8378 12.5708C85.9679 11.4408 74.4482 8.86089 73.6482 4.02101C73.2082 1.36107 72.7882 1.97106 71.3982 0.991084L70.6682 0.511095C69.6583 0.0711063 69.8683 0.0111078 68.7883 0.00110805C67.5683 -0.0188915 66.8683 0.231102 66.0884 0.811088C64.7484 1.80106 63.5284 1.70107 63.3384 3.31103C63.2284 4.221 62.4884 4.61099 62.4984 6.09096C62.5084 6.63094 62.5384 7.37093 62.4584 7.89091C62.1785 9.77087 59.5985 10.9308 59.0885 11.5808Z"
            fill="#F6AFCE" />
        <path fill-rule="evenodd" clip-rule="evenodd" class="state-map-path" id="oyo-state-ae7mLlYgx"
            d="M73.7782 33.7403C76.3481 33.8503 76.3981 34.1903 78.1081 34.5403C79.0481 34.7403 79.508 34.5403 80.318 34.7303C81.748 35.0802 83.458 34.6003 83.8579 34.5703C84.5879 34.5303 86.3679 34.7503 87.0279 33.8003C87.3579 33.3203 87.6578 32.6503 88.0778 32.2703C88.2978 32.0803 88.5678 31.9203 88.8378 31.7403C89.1678 31.5303 89.2678 31.3903 89.5478 31.1403L88.8778 27.9904C88.7878 27.1604 88.6178 26.9304 88.2078 26.1705C86.2379 22.4906 91.9177 18.1307 94.4277 16.1707C95.1377 15.6207 94.9577 15.3607 95.5677 14.7207C96.2776 13.9808 97.8276 12.6608 96.6676 11.4408C96.0576 10.7908 95.6776 11.3008 95.1177 11.6908C94.5277 12.1008 94.0377 12.2708 93.4977 12.6508C92.9877 13.0108 92.0777 12.8708 91.5478 13.2908L88.6378 15.4707C85.7979 18.9506 84.4979 17.2707 81.388 18.4107C80.878 18.5907 80.198 19.0606 79.608 19.2206C79.1181 19.3606 77.9481 19.3906 77.3681 19.4906C76.5381 19.6406 77.3081 19.5506 76.1181 20.8106C75.7081 21.2506 75.6181 21.2806 75.3482 21.8406L75.1382 22.3306C74.5982 23.7205 74.0682 24.0705 72.9082 25.1705C72.2582 25.7905 72.2082 25.7705 71.8282 26.6905C71.5182 27.4204 71.1783 29.3004 71.3183 29.7304L71.5682 30.3704C72.6982 33.0803 73.7182 32.2503 73.7782 33.7403Z"
            fill="#D2E28B" />
        <path fill-rule="evenodd" clip-rule="evenodd" class="state-map-path" id="oyo-state-epLZYL0dd"
            d="M53.2287 90.7089C52.7087 92.1689 53.2587 94.6188 52.0587 94.7688C52.7087 95.7588 52.3687 95.8188 52.4687 96.3387C52.5687 96.7587 52.4787 96.9487 52.2987 97.2487C52.0987 97.5687 51.9587 97.6887 51.8587 98.0787C52.1587 98.6187 52.6187 99.0887 52.1587 99.9187C51.9487 100.299 50.7687 101.459 50.4988 101.849C50.2788 102.159 50.2588 102.309 50.0288 102.569C49.5688 103.099 49.1188 103.199 48.9188 103.899C49.5988 103.409 49.6188 103.179 51.1287 103.009C52.1087 102.899 53.1887 103.099 54.1087 102.869C54.6187 102.739 54.9086 102.759 55.4086 102.879C56.8086 103.199 57.5186 102.359 58.6086 104.379C59.2685 105.599 59.4185 108.128 59.2985 109.858C59.1985 111.248 59.8085 111.018 60.6785 111.588C62.0085 112.458 61.8485 111.628 62.6985 112.628C62.8684 112.478 63.0284 112.298 63.2384 112.078L65.0184 110.278C66.2884 109.058 66.8183 109.658 67.5983 109.718C68.2983 109.788 68.1083 109.838 68.6083 109.958C67.5683 107.908 66.6084 107.508 67.6783 106.159C68.4083 105.229 67.9783 105.689 68.1983 104.679C68.3083 104.209 68.3183 104.619 68.5083 104.099C68.6283 103.789 68.9983 102.109 68.8783 101.489C68.6283 100.229 66.8883 97.2687 66.1784 96.2987C65.8284 95.8188 65.8084 95.6588 65.2984 95.1788C64.3384 94.2588 63.9884 93.9188 64.9584 92.7588C65.3084 92.3288 65.5384 92.1189 66.0484 91.8389C66.4484 91.6189 66.8983 91.3889 67.2983 91.0989C67.8983 90.6789 67.7483 90.6389 67.7283 89.8589C66.3184 89.5889 64.2884 91.5589 62.9684 90.5289C62.5985 90.2289 61.7985 89.1489 61.6685 88.8289C61.1885 87.649 62.4385 87.689 62.0685 86.339C61.4485 85.979 61.1585 86.019 60.3385 85.899C58.8085 85.679 58.9085 84.579 57.9886 85.989L57.3986 86.799C56.9286 87.549 56.3986 87.239 55.9786 88.069C55.8386 88.3489 55.7386 88.7589 55.5886 88.9789C55.2786 89.4289 54.7086 89.0289 53.2287 90.7089Z"
            fill="#9DD3AF" />
        <path fill-rule="evenodd" clip-rule="evenodd" class="state-map-path" id="oyo-state-Qk9qoBlca"
            d="M54.5687 13.8807C54.7187 14.3507 55.1686 14.7407 55.4686 15.1307C55.7286 15.4707 55.9186 16.0607 56.4986 16.2907C58.5386 17.1107 58.4586 18.7606 58.8986 20.3906C59.7385 23.5305 58.8986 26.1104 61.1185 26.8104C62.5785 27.2804 61.3485 26.5804 62.5285 27.6204C62.9785 28.0104 63.6884 27.9004 64.1884 28.1704C64.5484 28.3604 64.8984 28.8804 65.2984 29.2504C66.1784 30.0704 66.1284 29.8504 66.4584 30.1603C66.8884 30.5703 67.2084 30.8303 67.4483 31.3703C68.1183 32.8403 67.1584 34.3902 67.1284 35.2802C68.6283 35.2602 71.0283 35.5402 72.3482 34.7802C75.4381 33.0003 70.8483 33.1303 70.8883 28.8404C70.8983 27.7204 71.2383 26.7804 71.7182 25.8905C72.1382 25.1105 73.0482 24.5805 73.6282 24.0005C74.3282 23.2905 74.5382 22.6805 74.9982 21.6106C75.4681 20.5206 76.5981 20.3706 76.4181 19.2706C75.9681 18.4506 68.5483 14.6107 67.3183 13.9507C66.0184 13.7208 65.6784 14.0707 65.1984 14.2107C64.9984 14.2607 64.7284 14.3007 64.5084 14.2907C63.9284 14.2407 63.7384 14.0207 63.0985 13.9607C60.3485 13.7308 59.7685 12.5008 58.6886 11.8208C58.2286 12.1808 57.1986 12.5908 56.6986 12.8508C55.8686 13.2908 54.8287 13.4108 54.5687 13.8807Z"
            fill="#91D8F7" />
        <path fill-rule="evenodd" clip-rule="evenodd" class="state-map-path" id="oyo-state-mUU7AZNLJ"
            d="M94.5877 66.8594C94.6577 67.1194 95.1177 67.6294 95.4577 68.1194C96.3676 69.4494 95.8776 68.7094 96.2676 69.9794C96.5376 70.8394 96.0976 71.5893 97.7876 72.2693C99.8775 73.1193 100.258 75.5892 102.107 76.6592C104.837 75.1892 104.537 74.3293 108.217 72.9493C108.937 72.6893 108.567 72.6093 109.487 72.6493C109.657 72.3993 109.627 72.3093 109.877 72.0193C110.837 70.9493 110.647 67.1894 108.827 67.0194C107.077 66.8694 105.387 60.9996 105.297 59.2596C105.277 58.7496 105.287 58.8296 104.937 58.5397C103.467 57.3197 99.9675 53.6698 98.9176 52.0298C98.6276 52.0598 97.4276 52.6998 97.1576 53.0298C96.6776 53.6298 96.2176 54.1398 95.7976 54.5498C95.5077 54.8397 95.2277 54.9197 95.2077 55.3797C95.1877 55.9197 95.4677 56.0097 95.6777 56.4197C96.6276 58.2497 96.4976 59.0096 96.7076 59.7096C97.5076 62.3496 97.4476 64.0995 95.3277 66.0595C94.9777 66.3795 94.7177 66.4095 94.5877 66.8594Z"
            fill="#9DD3AF" />
        <path fill-rule="evenodd" clip-rule="evenodd" class="state-map-path" id="oyo-state-co5wbMjpK"
            d="M62.8984 113.048C63.2384 113.588 63.0684 114.348 63.0584 115.148C63.0484 116.108 64.0384 116.618 64.2384 119.638C64.2684 120.198 64.9184 120.948 63.5284 121.958C63.2484 122.158 63.1284 122.228 62.9084 122.438C62.6684 122.668 62.5184 122.818 62.3085 123.028C61.5585 123.808 60.4485 124.338 60.3985 125.738C62.1785 125.758 63.5984 125.508 65.2984 125.508C65.7384 125.508 66.1584 125.528 66.5983 125.508C67.2683 125.478 67.2483 125.398 67.6983 125.308C68.6983 125.108 68.7783 124.998 69.9883 125.048C72.7382 125.158 72.1582 124.938 73.2782 124.438C73.5182 124.338 74.0082 124.258 74.2982 124.158C74.9581 123.908 75.1581 123.438 75.7381 122.998C76.0681 122.748 76.1181 122.648 76.5781 122.568C77.0381 122.478 77.2081 122.438 77.6281 122.298C77.5981 121.538 77.3281 121.168 77.4481 120.238C77.5581 119.458 77.5981 118.888 77.6481 118.028C77.6881 117.508 77.7981 117.538 77.8581 117.138C77.9081 116.768 77.8481 116.308 77.8681 115.938C77.9081 115.308 78.0381 115.558 78.1081 114.948C78.1381 114.628 78.1381 114.058 78.0781 113.748C77.9781 113.248 77.5581 112.638 77.2681 112.258C76.3981 111.168 76.2181 112.008 74.2982 109.928C74.1682 109.798 74.1582 109.798 73.9982 109.618C73.8682 109.468 73.8582 109.438 73.7482 109.278L73.4682 108.948C73.1282 109.648 71.7882 110.228 71.0082 110.368C70.1483 110.508 70.1083 110.148 69.3883 110.368C67.9483 110.788 66.6483 108.938 64.7984 110.958C64.0684 111.758 63.4884 112.298 62.8984 113.048Z"
            fill="#F6AFCE" />
        <path fill-rule="evenodd" clip-rule="evenodd" class="state-map-path" id="oyo-state-owaRJzjuC"
            d="M39.489 90.6289L39.229 94.2088C39.649 96.0687 39.789 95.1688 39.229 97.5687C39.079 98.2387 38.879 98.5387 39.349 99.1787C39.569 99.4887 40.169 100.069 40.449 100.269C41.039 99.7287 41.399 99.2187 42.449 99.1887C45.9189 99.0587 44.7989 103.579 46.6689 104.539C47.1388 104.779 47.3988 104.799 47.9088 104.619C48.8588 104.289 47.9788 103.829 49.2488 102.789C49.7888 102.339 49.5888 102.599 49.9888 101.919C50.5888 100.909 51.3687 100.719 51.7887 99.7087C52.1187 98.9287 51.7987 98.8887 51.3787 97.9787C51.3887 97.9587 51.4087 97.8987 51.4187 97.9087C51.4287 97.9287 51.4587 97.8587 51.4687 97.8387L51.6487 97.5887C51.9787 97.0987 52.0487 96.9487 52.0087 96.3787L51.5687 94.6188L52.4287 93.4688C52.8487 92.0188 51.6587 89.4289 55.2886 88.7589C55.4386 88.1489 55.6986 87.6389 56.1486 87.249C56.4686 86.959 56.4486 87.089 56.7186 86.909C56.9586 86.759 57.3286 86.359 57.5086 86.109C57.6786 85.859 57.5786 85.889 57.8086 85.599L58.0386 85.349C58.0486 85.339 58.0686 85.309 58.0786 85.299C58.2386 85.099 58.1286 85.249 58.2086 85.109C57.5086 84.629 53.5487 83.2391 52.4487 82.6991L52.3087 82.6291C51.5687 82.2591 51.7687 82.0091 50.7688 82.1691C50.5188 83.5591 51.6487 85.589 48.6288 85.529C47.9888 85.509 47.9588 85.409 47.5188 85.329C46.2189 85.079 46.3689 84.879 45.0889 85.249C44.6789 85.369 44.2289 85.249 43.7589 85.329L43.4089 86.079C42.9789 87.329 44.2289 87.139 42.469 88.4289C41.839 88.8789 40.379 89.2289 39.509 89.5189C39.409 89.5489 39.349 89.5689 39.259 89.5989C39.229 89.6089 39.199 89.6189 39.169 89.6289L38.989 89.6989C39.049 90.2589 39.499 90.6289 39.489 90.6289Z"
            fill="#FDD1A1" />
        <path fill-rule="evenodd" clip-rule="evenodd" class="state-map-path" id="oyo-state-KrTykXGln"
            d="M35.0591 62.5696C35.9391 65.5295 34.6091 65.4695 33.8192 66.9095C32.9792 68.4094 34.0692 72.0493 34.7291 72.9693L36.8791 75.5192L38.719 76.7592C39.329 77.0592 40.379 77.6892 40.849 77.6792C41.169 77.1192 40.889 77.1692 41.449 76.5392L43.1289 74.6293C43.5989 74.0893 43.5089 74.1793 44.1789 73.8693C45.5289 73.2293 44.5189 72.2793 44.5789 71.3394L45.4789 68.9894C45.6289 68.7594 45.5489 68.9394 45.6789 68.6494C45.6489 68.3694 45.3189 67.4194 45.1989 67.1895C45.0589 66.9495 44.7789 66.8795 44.1589 66.3495C43.7989 66.0395 43.4689 65.7395 43.1389 65.4695C42.9189 65.2995 42.349 64.7595 42.249 64.4595C42.8589 63.3795 44.7289 64.2295 44.1089 62.5796C44.0389 62.3796 43.7689 61.8996 43.6089 61.7096C42.209 60.1096 41.339 60.7496 40.159 59.7596C38.689 58.5297 39.499 57.7097 36.4691 58.4797C35.8991 58.6197 35.8591 58.4397 35.8291 59.1597C35.7491 61.0396 36.1391 60.3596 35.0591 62.5696Z"
            fill="#D2E28B" />
        <path fill-rule="evenodd" clip-rule="evenodd" class="state-map-path" id="oyo-state-QQwQsOXlQ"
            d="M64.7084 93.8888C65.6884 95.2988 65.9584 95.2688 66.3084 95.7688C66.5084 96.0488 66.3084 95.7488 66.4584 96.0188C66.7384 96.5087 66.8684 96.4987 67.0183 96.7387C67.2583 97.1187 67.3483 97.5387 67.6283 97.9487C67.8083 98.2287 68.0883 98.6587 68.2883 98.9687C68.7183 99.6587 69.0583 100.679 69.3183 101.449C69.5783 102.259 69.2883 102.419 69.1783 102.989C69.4283 102.799 69.5283 102.579 69.7883 102.569C70.3583 102.539 69.8783 102.939 70.5383 102.729C70.7383 102.669 70.8383 102.419 71.1182 102.339C71.3782 102.279 71.8182 102.309 72.0782 102.329L72.6782 103.009C74.0782 103.069 74.2182 102.439 74.8982 101.609C75.9481 100.329 75.3781 100.719 75.8281 99.8187C76.0181 99.4587 76.2681 99.3487 76.2981 99.2787C76.2981 99.2787 76.3081 96.8787 77.6781 95.6088L79.108 94.4488C79.438 94.1788 80.238 93.4788 80.378 93.0888C80.218 92.8588 80.078 92.7488 79.838 92.5288C79.128 91.8989 78.6981 90.8989 78.9681 89.9789C77.9581 90.0189 76.8981 89.8589 76.2681 90.3889C75.3881 91.1089 73.6082 90.6289 72.3482 90.3089C71.8582 90.1889 71.5582 90.1289 71.0882 89.9889C70.2083 89.7089 69.4983 89.3089 68.3483 89.6589C67.8083 90.9989 68.9083 90.5989 66.3784 92.0989C65.8184 92.4288 65.3984 92.6288 65.0584 93.2488C64.8984 93.5288 64.9184 93.6688 64.7084 93.8888Z"
            fill="#F6AFCE" />
        <path fill-rule="evenodd" clip-rule="evenodd" class="state-map-path" id="oyo-state-LscWFE5R8"
            d="M22.8394 100.979C22.9994 101.699 23.5194 101.429 23.6794 102.279C23.7894 102.909 23.8194 102.829 24.4594 103.609C25.9994 105.489 25.6894 105.638 27.4993 106.848C29.4893 108.178 28.1593 107.358 30.1593 108.378C31.4392 109.048 33.3892 108.718 33.7492 108.738C34.7092 108.788 34.1692 109.118 35.4591 108.678C36.9091 108.178 35.7291 109.298 37.2791 107.288C37.7391 106.708 37.5991 105.998 38.4191 105.219C38.9291 104.739 38.8591 104.399 38.949 103.669C39.039 103.019 39.909 101.309 40.039 100.479L38.5991 98.6387C38.5891 98.6287 38.5791 98.5987 38.5591 98.5787C37.1491 98.5887 36.6091 98.8987 35.3591 98.9087C34.9591 98.9087 34.8692 98.7887 34.3092 98.8487C33.5292 98.9287 32.9592 99.0187 32.0692 99.0387C30.3093 99.0787 30.3893 100.159 29.5793 100.139C28.9493 100.109 29.3593 99.9886 28.6493 100.119C27.7293 100.269 27.3093 99.8586 26.6294 100.139C25.5194 100.579 25.9694 100.759 24.3794 100.669L22.8394 100.979Z"
            fill="#F6AFCE" />
        <path fill-rule="evenodd" clip-rule="evenodd" class="state-map-path" id="oyo-state-YCXXtZtbo"
            d="M83.188 77.4592C83.8379 78.5892 90.0278 78.9491 91.9477 73.1493C93.1477 71.1893 93.2477 72.0893 95.2477 73.2293C96.2476 73.7993 96.2376 73.9493 96.8776 74.8792C97.5376 75.8392 98.2776 76.9692 98.7676 77.9892C98.9876 78.4392 99.0576 78.6692 99.4176 78.9291L100.958 78.2792C101.498 78.0792 101.747 77.5792 101.747 76.9292C101.558 76.6192 100.878 76.0092 100.598 75.7392C99.8175 74.9792 99.5275 73.9693 98.6976 73.2593C97.8876 72.5693 97.8076 72.7793 97.2976 72.4693C95.8276 71.5893 96.1176 71.0993 95.7276 69.5394C95.4577 68.4494 95.1677 68.4394 94.7577 67.7294L94.0277 66.8694C93.7077 66.9394 93.2277 67.1394 92.8877 67.1994C92.6477 67.2394 91.8477 67.1194 91.5877 67.0594C91.5677 67.0494 90.7378 66.6694 90.5878 66.5894C90.1878 66.3595 90.1678 66.1395 89.8378 65.9095C89.3578 65.9295 89.0678 66.0695 88.6378 65.8495C88.2078 65.6295 88.3278 65.4695 87.7278 65.5595C87.3679 66.3595 87.4878 67.9594 86.5379 69.1494C86.2779 69.4794 86.0079 69.6194 85.7879 69.9894C85.3179 70.7593 85.1879 71.3293 84.5179 71.9093C84.0079 72.3493 83.338 72.5593 82.788 73.1193C82.828 73.4293 83.188 76.5592 83.188 77.4592Z"
            fill="#91D8F7" />
        <path fill-rule="evenodd" clip-rule="evenodd" class="state-map-path" id="oyo-state-iJWVrn4IE"
            d="M78.0181 122.268C79.778 122.348 78.6181 122.358 79.768 122.168C80.088 122.118 80.418 122.148 80.728 122.088C81.008 122.038 81.258 121.938 81.628 121.878C81.758 121.488 81.878 120.838 81.918 120.428C81.938 120.088 82.118 119.388 82.238 119.008C82.308 118.768 82.468 117.358 82.8579 116.058C83.0979 115.238 83.5079 114.408 83.7379 113.448C83.9679 112.508 83.9379 111.208 84.0079 110.028C82.268 109.618 82.9179 109.118 80.868 108.908C78.838 108.698 77.8881 106.208 74.5582 107.138C74.2282 107.238 74.2082 107.328 74.0882 107.658C73.9982 107.938 73.8682 108.208 73.8782 108.558C73.8782 109.258 75.2881 110.488 75.8481 110.868C76.6981 111.448 76.3981 110.688 77.8381 112.468C79.168 114.118 78.3881 114.648 78.3581 116.238C78.3381 116.898 77.9781 118.758 77.9581 119.028C77.9081 119.738 77.8781 121.678 78.0181 122.268Z"
            fill="#9DD3AF" />
        <path fill-rule="evenodd" clip-rule="evenodd" class="state-map-path" id="oyo-state-ebAyAIa2D"
            d="M76.7881 99.7086C76.6181 99.7686 76.2981 99.9086 76.1781 99.9786C76.0181 100.949 75.0382 102.109 74.3682 102.859C73.9682 103.299 73.9782 103.239 73.2482 103.339C73.2182 103.679 73.7782 104.339 74.0782 104.569C74.8182 105.128 75.0682 104.669 75.6081 104.299C75.8981 104.119 76.0681 104.089 76.3081 103.909C77.2581 103.159 76.3881 103.479 78.5681 102.859L81.368 102.359C81.758 102.319 83.068 102.709 84.0679 101.989C84.4079 101.739 84.2379 101.739 84.7379 101.569C85.1079 101.439 85.2279 101.419 85.6879 101.399C85.7079 101.059 85.8679 99.1086 85.7479 99.3186C85.7279 99.3586 85.6579 99.2386 85.6279 99.2086C85.5279 99.1186 85.5579 99.1586 85.4479 99.0686C85.0279 98.7487 84.0779 97.3787 84.0079 97.2287C83.5879 96.1987 83.6379 95.8787 82.548 94.6088C82.228 94.2288 82.228 94.2588 81.818 94.0188C81.678 93.9388 81.808 94.0188 81.638 93.9088C80.248 93.0488 80.898 93.4188 79.538 94.5688C79.268 94.7988 79.0481 94.8888 78.7881 95.1087C77.4781 96.2187 77.6681 95.8687 77.0481 97.4687C76.9181 97.8087 76.8081 98.0287 76.7181 98.4287C76.5781 99.0686 76.7681 99.1986 76.7881 99.7086Z"
            fill="#91D8F7" />
        <path fill-rule="evenodd" clip-rule="evenodd" class="state-map-path" id="oyo-state-cTHKXO4JD"
            d="M88.5378 62.1696C89.4678 62.7196 89.5778 62.2296 90.7378 62.3496C91.2177 62.4096 91.2677 62.5796 91.5177 62.8696C91.8577 63.2595 91.7877 63.2395 92.0477 63.6295C92.7777 64.7195 92.9277 64.0295 93.9177 64.3895C94.5577 64.6095 94.8877 65.2095 95.7276 65.1795C95.7376 65.1595 95.7676 65.0995 95.7776 65.1195C95.7876 65.1295 95.8176 65.0695 95.8276 65.0595C96.9376 63.6295 96.9576 61.7396 96.4076 60.0896C96.1276 59.2796 96.0676 58.4297 95.7376 57.5697C95.2276 56.2097 95.1076 56.3797 94.7677 55.6597L94.6277 55.3597L92.4077 56.3597C92.2377 56.4397 92.0277 56.5697 91.8977 56.6497C91.3177 57.0097 91.1377 57.0097 90.5578 57.6997C90.1978 58.1397 89.8878 59.3596 89.6678 59.9796C89.4878 60.4596 88.6078 61.1596 88.5378 62.1696Z"
            fill="#91D8F7" />
        <path fill-rule="evenodd" clip-rule="evenodd" class="state-map-path" id="oyo-state-PogtMuHPc"
            d="M74.1182 106.818C74.5282 106.778 76.1881 106.388 77.2381 106.628C77.5281 106.688 78.4881 107.368 78.848 107.588L80.378 108.358C81.378 108.648 81.568 108.408 82.338 108.868C82.588 109.018 83.8879 109.768 84.1679 109.458C84.2779 109.338 84.3779 106.748 84.6979 105.618C85.1079 104.159 85.4779 103.619 85.5179 101.899C83.5579 102.009 84.7079 102.849 82.358 102.839C79.838 102.839 80.998 102.999 78.758 103.279C78.1881 103.349 77.7181 103.549 77.2281 103.709C76.2281 104.019 76.9981 103.989 76.0281 104.519C74.7281 105.239 75.0781 105.069 74.7181 105.698C74.6682 105.788 74.5782 105.878 74.4882 105.978C74.2982 106.208 74.1782 106.438 74.1182 106.818Z"
            fill="#F6AFCE" />
        <path fill-rule="evenodd" clip-rule="evenodd" class="state-map-path" id="oyo-state-dk51w3BJ8"
            d="M87.8878 65.0595C88.5278 65.2795 88.1878 65.0695 88.7178 65.4695C89.1278 65.7795 89.3678 65.4795 89.7378 65.3895C90.3978 65.4295 90.9077 67.4894 94.0177 66.4395C94.3777 66.3095 95.0576 65.8995 95.2176 65.6595L94.2077 64.9795C93.6177 64.6395 93.0977 64.9695 92.6177 64.7495C92.0577 64.4995 91.4977 63.3495 91.0377 62.8295C90.5678 62.7995 90.0978 62.7995 89.6378 62.8095C88.4778 62.8395 88.8378 62.7295 88.3578 62.5995L87.8878 65.0595Z"
            fill="#D2E28B" />
        <path fill-rule="evenodd" clip-rule="evenodd" class="state-map-path" id="oyo-state-h7thEwDYH"
            d="M70.3283 79.6691C70.9883 79.9891 71.0383 80.1991 71.5582 80.5291C72.0982 80.8791 72.0882 81.2991 72.6782 81.5091C73.1782 81.2691 74.0382 78.5392 73.9982 77.9292C73.9282 76.9292 72.8682 75.5293 72.8682 75.4893C72.8982 75.2893 72.8582 75.0693 72.7482 74.8193C72.6982 74.3093 72.7982 73.7993 72.7282 73.3293C72.4782 71.6693 71.3182 70.8194 71.0883 70.4494C70.7583 69.9494 71.0283 69.3194 69.7783 68.7594C68.1283 68.0394 68.5483 67.9594 67.9783 67.6594C67.5783 67.4495 67.3683 67.5294 66.9384 67.2095C66.7984 67.1095 66.6284 66.9395 66.5084 66.8395C65.2884 65.8495 64.1784 64.8595 63.2484 63.5095C62.9585 63.0796 62.9285 62.1496 61.5085 62.3696C61.4685 63.7595 61.3685 65.7695 61.6885 66.9695C61.8585 67.5994 61.8485 68.4394 62.0385 69.0294C62.2285 69.6594 62.5185 70.0194 62.3185 70.8894C62.1185 71.7493 61.5685 72.3293 61.3185 72.8493C60.7985 73.8593 60.6885 75.4093 61.0385 76.3892C61.3485 77.2592 61.1985 77.4692 61.2785 78.4492C62.0185 78.4592 61.9185 78.2692 62.3785 77.8992C62.9285 77.4692 63.0685 77.8892 64.0284 78.3092L65.9584 78.7192C66.5884 78.8692 67.5683 78.8892 68.6383 78.8092C69.0683 79.0392 69.6283 79.3292 70.3283 79.6691Z"
            fill="#F6AFCE" />
        <path fill-rule="evenodd" clip-rule="evenodd" class="state-map-path" id="oyo-state-VxjK9aqC1"
            d="M69.0883 109.968C69.9883 109.948 69.3783 109.548 71.1682 107.538L71.3182 107.358C70.9582 105.838 69.8483 106.768 69.1483 106.298L68.7083 105.938C68.5383 105.828 68.7183 105.928 68.4883 105.828L67.7083 106.678C67.2683 107.378 68.3483 108.758 68.9983 109.828L69.0883 109.968Z"
            fill="#FDD1A1" />
        <path fill-rule="evenodd" clip-rule="evenodd" class="state-map-path" id="oyo-state-GLZ5s1PBx"
            d="M71.8482 106.428C72.0282 106.228 71.8282 105.988 71.7382 105.488C70.9583 105.349 70.9783 105.289 70.4383 104.769C70.3483 104.129 70.6583 102.589 69.5583 103.119C69.1183 103.329 69.2583 103.579 69.1283 104.029C69.0283 104.399 68.7183 104.419 68.5883 104.799C68.4183 105.339 69.0483 106.008 69.9883 105.958C71.4382 105.888 71.2383 107.128 71.8482 106.428Z"
            fill="#FDD1A1" />
        <path fill-rule="evenodd" clip-rule="evenodd" class="state-map-path" id="oyo-state-VGEUDlbuG"
            d="M71.0182 102.879C70.9082 103.379 70.7382 104.159 70.7982 104.669C71.3782 105.009 71.6082 104.969 71.8182 105.109C72.2482 105.389 71.9882 105.619 72.3782 106.108C73.3982 105.309 72.7982 105.998 73.2682 104.849C73.4082 104.539 73.4382 104.599 73.2982 104.259C73.1782 103.969 72.1482 102.939 71.8782 102.699L71.0182 102.879Z"
            fill="#FDD1A1" />
        <path fill-rule="evenodd" clip-rule="evenodd" class="state-map-path" id="oyo-state-Gt7Q1C4iY"
            d="M70.0983 109.938C71.6882 110.098 71.8182 109.668 72.6682 109.228C73.0082 109.058 73.0982 108.968 73.2882 108.658C73.1882 108.348 72.8182 107.898 72.6082 107.728C71.4882 106.788 70.2583 109.148 70.0983 109.938Z"
            fill="#FDD1A1" />
        <path fill-rule="evenodd" clip-rule="evenodd" class="state-map-path" id="oyo-state-avWtaetji"
            d="M72.4982 106.369C73.1182 105.779 73.6182 105.379 73.6182 105.379L73.6682 105.129L74.1682 105.379V105.729L73.8382 106.219L73.7782 106.519V106.868L73.8982 107.018V107.368L73.5582 108.218L73.0082 107.818L72.4982 107.318L71.7782 107.018C71.7782 107.018 72.5382 106.399 72.4982 106.369Z"
            fill="#FDD1A1" />
    </svg>