<svg viewBox="0 0 1514 1478" fill="none" xmlns="http://www.w3.org/2000/svg">
        <path fill-rule="evenodd" clip-rule="evenodd" class="state-map-path" id="plateau_state_KBjA5SC93"
            d="M1046 808C1056 820 1088 821 1054 839C1048 842 1042 847 1035 848C1010 853 1034 863 995 865C1007 909 997 906 997 925C996 947 1014 965 961 1002C960 1017 964 1013 967 1022C969 1029 966 1039 966 1047C965 1061 966 1059 969 1070C971 1077 974 1087 969 1093C962 1100 962 1094 966 1111C969 1123 962 1122 964 1134C965 1146 961 1146 963 1157C966 1178 958 1179 968 1184C986 1193 983 1203 987 1224C989 1237 996 1268 1003 1274C1014 1283 1037 1285 1049 1295C1063 1306 1065 1324 1060 1347C1063 1344 1070 1336 1074 1332C1078 1329 1085 1323 1090 1319L1155 1267C1167 1258 1177 1250 1188 1241L1203 1227C1224 1206 1262 1183 1287 1165C1299 1157 1312 1149 1322 1140C1342 1120 1361 1101 1381 1082C1388 1075 1390 1075 1402 1074C1411 1073 1419 1072 1428 1071C1450 1068 1479 1069 1485 1068C1509 1064 1508 1056 1506 1031C1505 1016 1496 996 1499 980C1501 968 1507 943 1511 933C1515 922 1516 919 1505 915C1495 912 1499 901 1499 891L1478 884C1482 866 1492 861 1481 847C1472 836 1468 827 1470 808C1470 803 1474 792 1474 789C1474 787 1469 773 1468 771C1464 758 1460 742 1464 728C1454 726 1457 726 1447 728C1441 729 1434 730 1428 729C1411 729 1407 731 1393 734C1380 736 1369 734 1357 737C1342 740 1336 737 1328 729C1321 722 1306 715 1294 705C1282 696 1271 681 1255 686C1241 690 1247 697 1225 696C1190 695 1179 680 1159 685C1139 689 1125 724 1118 743C1116 750 1119 752 1117 759C1114 776 1092 768 1077 779C1068 785 1049 800 1046 808Z"
            fill="#FDD1A1" />
        <path fill-rule="evenodd" clip-rule="evenodd" class="state-map-path" id="plateau_state_OnI6HAgAb"
            d="M941 435C931 436 923 432 916 435C918 442 922 444 926 448C936 459 938 466 959 486C963 490 980 504 981 511C982 519 972 536 971 548C956 551 957 547 955 545C950 541 946 540 939 542C922 549 917 534 907 545C905 553 913 561 914 570C915 581 905 583 900 589C889 604 898 593 882 605C879 608 868 620 866 623C877 644 906 667 903 700C901 718 896 729 894 748C892 770 886 787 885 796C899 786 901 794 916 795C933 796 937 794 946 806C962 827 957 814 968 824C979 834 970 842 972 855C978 858 991 860 998 860C1028 858 1010 847 1030 844C1036 843 1039 842 1043 839C1050 836 1060 832 1063 826C1061 823 1048 816 1041 811C1042 799 1051 794 1058 788C1065 783 1073 774 1081 771C1090 767 1107 768 1112 761C1115 755 1111 750 1113 743C1114 739 1117 733 1119 729C1132 697 1146 668 1186 682C1198 687 1224 694 1237 690C1243 689 1259 669 1281 688C1285 691 1287 693 1291 697C1300 706 1319 715 1328 722C1339 730 1335 736 1357 732C1369 729 1382 731 1394 728C1423 722 1430 727 1449 722C1459 720 1458 722 1466 723L1475 716C1476 707 1474 696 1471 689C1466 680 1464 678 1456 673C1442 663 1435 654 1423 644C1410 634 1412 625 1393 612C1379 602 1367 600 1350 593C1329 585 1314 571 1292 560C1284 555 1280 551 1274 546C1237 517 1217 539 1175 543C1173 536 1163 522 1159 515C1154 507 1147 493 1142 487C1135 477 1097 461 1080 459C1055 456 1035 461 1004 446C984 435 977 434 965 418C961 413 960 409 952 409C946 417 949 426 941 435Z"
            fill="#91D8F7" />
        <path fill-rule="evenodd" clip-rule="evenodd" class="state-map-path" id="plateau_state_fYuE5FJmn"
            d="M417.001 1040C412.001 1021 423.001 1003 413.001 985L411.001 982C408.001 975 406.001 974 403.001 968C400.001 970 397.001 972 394.001 975C387.001 981 377.001 996 370.001 1000C375.001 1014 373.001 1013 375.001 1031C379.001 1077 384.001 1058 365.001 1074C360.001 1078 356.001 1082 353.001 1087C348.001 1097 347.001 1113 341.001 1123C329.001 1144 298.001 1113 289.001 1130C284.001 1138 289.001 1143 291.001 1150C288.001 1154 287.001 1155 284.001 1159C281.001 1163 282.001 1166 279.001 1170C273.001 1177 265.001 1174 255.001 1174C250.001 1187 257.001 1193 254.001 1199C253.001 1200 241.001 1213 244.001 1218C247.001 1222 251.001 1223 255.001 1226L263.001 1233C266.001 1236 264.001 1232 266.001 1236C262.001 1239 258.001 1245 260.001 1251C267.001 1259 273.001 1245 283.001 1268C292.001 1293 284.001 1291 288.001 1303C294.001 1306 302.001 1304 310.001 1307C313.001 1308 311.001 1308 312.001 1309C312.001 1322 304.001 1319 312.001 1332C319.001 1343 310.001 1348 308.001 1356C311.001 1363 323.001 1368 332.001 1371C343.001 1375 357.001 1370 368.001 1373C370.001 1378 369.001 1383 371.001 1390C378.001 1394 390.001 1394 395.001 1398C403.001 1404 398.001 1417 398.001 1427C417.001 1422 411.001 1435 421.001 1429C429.001 1425 431.001 1417 437.001 1412C445.001 1412 449.001 1414 457.001 1414C463.001 1415 472.001 1415 479.001 1415C536.001 1416 517.001 1415 521.001 1393C524.001 1376 534.001 1361 541.001 1349C545.001 1338 549.001 1329 554.001 1319C570.001 1291 563.001 1295 569.001 1271C573.001 1255 561.001 1261 570.001 1237C574.001 1228 570.001 1229 573.001 1221C578.001 1209 583.001 1202 581.001 1186C578.001 1167 589.001 1177 590.001 1154L612.001 1149C610.001 1145 612.001 1151 608.001 1143C606.001 1141 608.001 1142 606.001 1140C592.001 1128 566.001 1142 566.001 1104C566.001 1077 585.001 1056 576.001 1041C573.001 1036 569.001 1031 565.001 1026C539.001 992 569.001 979 554.001 942C540.001 941 542.001 944 532.001 949C526.001 952 518.001 956 513.001 959L477.001 983C474.001 986 473.001 991 464.001 999C449.001 1014 454.001 1004 435.001 1028C426.001 1038 427.001 1040 417.001 1040Z"
            fill="#F6AFCE" />
        <path fill-rule="evenodd" clip-rule="evenodd" class="state-map-path" id="plateau_state_Kl8FYxeOi"
            d="M619.001 1142C619.001 1149 618.001 1152 612.001 1154L598.001 1158C590.001 1161 599.001 1161 589.001 1172C585.001 1178 585.001 1180 586.001 1189C588.001 1204 581.001 1212 578.001 1223C576.001 1230 579.001 1231 575.001 1239C572.001 1245 571.001 1248 573.001 1255C577.001 1270 573.001 1274 571.001 1290C569.001 1308 558.001 1320 553.001 1333C550.001 1337 549.001 1342 547.001 1347C536.001 1372 525.001 1378 527.001 1409C566.001 1403 569.001 1385 614.001 1402C631.001 1408 649.001 1420 670.001 1428C677.001 1431 684.001 1432 691.001 1434L772.001 1463C787.001 1467 805.001 1467 820.001 1470C845.001 1474 830.001 1470 843.001 1472C851.001 1473 857.001 1476 867.001 1476C865.001 1471 863.001 1469 861.001 1465C857.001 1456 852.001 1431 848.001 1423L818.001 1379C807.001 1364 816.001 1365 810.001 1352C806.001 1342 801.001 1340 799.001 1327C798.001 1315 796.001 1269 798.001 1258C801.001 1244 809.001 1213 816.001 1204C821.001 1200 833.001 1194 843.001 1194C855.001 1194 865.001 1196 874.001 1189C884.001 1180 878.001 1172 881.001 1159C882.001 1153 884.001 1153 884.001 1144C885.001 1124 883.001 1120 892.001 1097C894.001 1090 895.001 1072 888.001 1069C880.001 1064 847.001 1072 836.001 1073C800.001 1078 763.001 1080 727.001 1071C719.001 1069 709.001 1069 702.001 1067C694.001 1065 690.001 1058 686.001 1053C670.001 1033 667.001 1035 647.001 1032C616.001 1028 581.001 1041 572.001 1020C559.001 987 581.001 973 581.001 946C573.001 943 569.001 941 560.001 941C560.001 954 566.001 958 563.001 973C561.001 984 558.001 993 560.001 1004C563.001 1017 568.001 1020 574.001 1027C579.001 1034 585.001 1045 583.001 1054C580.001 1074 567.001 1092 572.001 1114C576.001 1131 584.001 1121 613.001 1138C615.001 1140 617.001 1140 619.001 1142Z"
            fill="#91D8F7" />
        <path fill-rule="evenodd" clip-rule="evenodd" class="state-map-path" id="plateau_state_GKPeqU3ZI"
            d="M50 471C57 484 76 486 94 481C111 476 101 479 115 472C146 458 159 465 162 430C163 421 165 413 168 406C170 403 171 400 173 397C176 393 178 392 180 388C192 370 172 357 181 341C195 312 215 299 243 284C274 266 264 276 287 269C297 266 292 255 294 246C297 236 312 241 310 174C310 163 312 157 304 151C299 147 290 146 283 142C267 133 286 117 286 97C286 70 289 84 289 72C289 66 285 52 284 46C277 15 258 32 249 32C236 31 236 24 231 20C221 13 215 20 207 14C197 7 195 15 183 10C176 7 170 3 164 0C162 17 167 21 160 38C156 50 168 60 157 72L135 93C116 105 117 99 95 120C75 139 76 131 70 162C69 169 69 175 67 181C66 186 53 200 62 213C67 220 70 216 72 226C79 252 83 244 89 253C91 258 88 264 90 271C92 276 112 302 63 300C54 300 50 299 52 310C56 342 71 336 55 361C45 377 55 383 58 396C61 406 57 425 56 437C53 463 62 447 50 471Z"
            fill="#F6AFCE" />
        <path fill-rule="evenodd" clip-rule="evenodd" class="state-map-path" id="plateau_state_gMqsD7dXL"
            d="M106 783C94 789 108 818 78 825C69 827 64 825 61 833C63 837 65 838 69 841C79 848 63 847 86 870C93 878 95 880 108 879C119 879 127 882 136 884C146 886 152 888 154 897C157 907 155 915 153 924C149 939 148 936 156 947C165 961 165 953 174 957C185 963 171 984 178 991C183 996 287 1006 309 1005C323 1005 336 998 350 997C377 995 367 998 382 980C398 962 399 971 402 952C418 870 419 881 410 807C408 797 409 787 404 780C399 773 395 773 389 763C372 733 375 749 361 728C355 720 352 717 345 711L326 697C316 705 316 706 300 709C275 713 282 719 252 736C244 740 234 747 227 750C218 753 205 754 196 757C185 760 179 765 166 765C140 766 156 764 138 775C127 782 122 783 106 783Z"
            fill="#9DD3AF" />
        <path fill-rule="evenodd" clip-rule="evenodd" class="state-map-path" id="plateau_state_j6VQPnT0M"
            d="M392 512C396 521 402 525 409 530C414 534 425 541 428 545C429 559 423 561 419 572C414 583 413 589 403 594C394 599 382 599 375 602C370 605 371 609 367 612C362 615 354 613 349 614C353 640 324 682 333 695L353 711C359 716 363 722 368 730C375 738 380 739 386 747C390 755 394 763 400 769C407 775 412 777 413 791C419 834 424 875 415 918C413 927 411 936 409 945C406 961 405 962 412 973C425 991 421 1011 421 1035C426 1033 442 1011 447 1007C453 1001 464 995 468 987C475 977 477 978 490 969C513 953 522 950 539 939C534 924 529 911 524 894C518 872 524 860 524 839C524 816 511 819 516 789C523 744 543 748 549 701C553 677 552 668 542 650C537 641 528 613 535 602C548 583 568 596 581 596C570 587 564 587 557 574C554 569 554 562 549 559C546 557 534 554 531 553C531 547 533 543 534 537C536 527 534 497 521 497C513 500 509 508 502 513C493 521 487 510 481 505C470 497 464 497 449 483C446 480 443 479 440 475C433 480 427 489 417 495C408 501 399 505 392 512Z"
            fill="#91D8F7" />
        <path fill-rule="evenodd" clip-rule="evenodd" class="state-map-path" id="plateau_state_T2qOKR8aW"
            d="M545.001 937C566.001 937 563.001 934 583.001 941C608.001 950 618.001 955 638.001 976C643.001 981 653.001 998 664.001 994C677.001 985 663.001 958 679.001 953C687.001 951 695.001 956 698.001 960C707.001 972 696.001 968 714.001 972L716.001 981C724.001 973 717.001 944 740.001 943L746.001 963C758.001 959 760.001 940 769.001 935C777.001 930 805.001 925 808.001 922C815.001 916 825.001 871 828.001 866C832.001 860 835.001 858 839.001 851C833.001 838 830.001 845 824.001 815C816.001 817 813.001 819 804.001 815C791.001 810 792.001 798 769.001 838C765.001 845 765.001 846 759.001 851C749.001 859 743.001 866 731.001 872C714.001 881 705.001 911 707.001 865C710.001 846 701.001 827 695.001 812C692.001 805 688.001 796 685.001 790C676.001 775 679.001 779 667.001 773C670.001 759 680.001 761 687.001 754C688.001 744 684.001 736 687.001 726C690.001 718 695.001 712 693.001 702C681.001 699 665.001 706 664.001 689C663.001 682 665.001 675 665.001 668C665.001 661 665.001 654 665.001 646C636.001 655 634.001 649 623.001 640C610.001 630 617.001 619 597.001 608C576.001 596 585.001 604 568.001 599C556.001 596 548.001 595 540.001 603C535.001 610 539.001 627 542.001 636C545.001 645 550.001 652 553.001 662C557.001 673 556.001 686 555.001 698C551.001 725 546.001 734 535.001 753C529.001 762 526.001 767 523.001 779C513.001 827 530.001 808 529.001 844C528.001 855 526.001 867 527.001 879C528.001 895 538.001 925 545.001 937Z"
            fill="#9DD3AF" />
        <path fill-rule="evenodd" clip-rule="evenodd" class="state-map-path" id="plateau_state_oZ5uNBrGb"
            d="M885 1169C885 1180 885 1185 879 1191C873 1196 866 1199 857 1199C839 1200 824 1197 816 1216C796 1264 804 1275 804 1317C804 1341 815 1343 817 1361C819 1374 828 1383 838 1398C850 1416 852 1417 858 1436C859 1444 862 1452 864 1459C867 1466 871 1470 874 1478C886 1477 890 1471 898 1467C906 1463 915 1459 924 1455C962 1438 958 1438 991 1413C998 1408 1000 1404 1009 1395L1037 1368C1041 1363 1042 1362 1046 1359C1059 1349 1060 1317 1051 1304C1041 1290 1018 1291 1002 1279C991 1271 986 1244 982 1226C980 1217 980 1203 976 1196C967 1184 960 1193 958 1177C949 1178 947 1179 944 1171C936 1171 934 1173 929 1174C921 1175 922 1170 917 1168C914 1167 907 1170 903 1171C896 1172 892 1170 885 1169Z"
            fill="#F6AFCE" />
        <path fill-rule="evenodd" clip-rule="evenodd" class="state-map-path" id="plateau_state_Z7xx2gZ2R"
            d="M321 382C320 402 311 412 312 417C313 420 315 425 316 429C319 438 317 447 319 456C325 480 315 486 360 506C367 510 376 513 385 510C391 509 391 505 403 497C410 493 416 490 421 486C427 481 431 476 436 470C441 465 470 457 480 452C486 450 510 430 514 425C517 421 530 387 532 382C543 328 528 337 524 309C522 294 521 268 508 263C504 262 501 262 497 260C492 258 492 255 488 253C475 249 403 269 386 272C372 276 360 275 334 281C330 282 327 283 323 284C315 287 321 284 315 293C306 308 324 353 321 382Z"
            fill="#D2E28B" />
        <path fill-rule="evenodd" clip-rule="evenodd" class="state-map-path" id="plateau_state_QFx5vbDJA"
            d="M286.001 469C279.001 480 273.001 467 245.001 524C228.001 560 245.001 550 245.001 572C245.001 582 240.001 589 236.001 594C231.001 600 227.001 610 223.001 615C213.001 627 190.001 626 189.001 644C188.001 655 187.001 649 174.001 661C164.001 670 136.001 703 131.001 713C126.001 721 123.001 727 119.001 733C108.001 748 105.001 743 101.001 749C97.0005 756 108.001 764 107.001 778C137.001 778 140.001 763 150.001 761C159.001 759 166.001 762 182.001 756C196.001 751 206.001 750 221.001 746C227.001 745 263.001 725 267.001 720C288.001 698 301.001 709 318.001 697C327.001 691 325.001 694 327.001 682C330.001 662 341.001 649 343.001 626C334.001 599 360.001 609 364.001 609C370.001 600 367.001 599 381.001 596C406.001 590 406.001 589 414.001 569C418.001 560 424.001 558 423.001 548C418.001 542 410.001 538 404.001 533C388.001 520 398.001 528 387.001 515C379.001 516 376.001 518 367.001 515C361.001 513 356.001 510 351.001 508C336.001 501 331.001 498 323.001 489C309.001 471 318.001 432 306.001 415C286.001 416 301.001 443 286.001 469Z"
            fill="#F6AFCE" />
        <path fill-rule="evenodd" clip-rule="evenodd" class="state-map-path" id="plateau_state_LCUrZHeds"
            d="M692 759C685 762 676 765 674 771C683 775 684 778 691 791C700 808 716 841 715 861C714 882 711 875 720 871C730 867 735 865 743 857C761 842 756 849 767 831C789 792 792 805 806 810C814 814 820 810 827 808C832 821 833 838 843 846C851 843 859 836 863 829C884 788 883 800 890 739C892 721 905 696 894 676C883 655 885 658 871 641C869 638 866 632 863 630C838 641 804 637 775 643C760 645 743 649 728 647C719 646 716 645 712 638C708 629 705 628 701 622C693 622 686 623 683 629L671 644C670 647 669 691 670 693C675 702 707 685 697 714C695 721 692 726 691 734C691 743 693 748 692 759Z"
            fill="#F6AFCE" />
        <path fill-rule="evenodd" clip-rule="evenodd" class="state-map-path" id="plateau_state_KyuqTajYc"
            d="M813 924C814 925 812 924 816 925C817 926 817 926 818 927C820 928 820 928 822 929C826 932 826 933 829 938C835 946 842 938 850 939C858 949 861 980 867 990C870 995 874 994 878 1002C882 1008 884 1008 891 1010C914 1018 937 1015 938 1033C939 1041 930 1058 927 1066C910 1107 899 1073 891 1120C889 1128 890 1135 889 1143C889 1150 888 1157 887 1164C897 1166 897 1167 909 1164C923 1160 918 1163 927 1169C934 1168 937 1165 946 1166C949 1169 948 1169 951 1172L958 1171C960 1162 956 1157 957 1149C957 1145 959 1144 959 1139C959 1135 958 1133 958 1128C959 1119 964 1121 960 1109C958 1100 957 1097 963 1091C973 1082 960 1067 960 1054C961 1046 961 1039 963 1032C965 1021 960 1021 957 1014C951 997 962 996 980 979C984 975 993 963 994 957C996 944 989 931 993 914C997 896 997 892 992 873C987 856 982 868 970 860C961 854 974 840 966 830C962 824 956 824 951 820C940 812 945 801 923 801C894 800 902 790 886 802C877 809 873 821 867 832C860 846 848 845 842 855C838 862 835 863 832 870C829 875 829 882 827 889C824 897 817 917 813 924Z"
            fill="#D2E28B" />
        <path fill-rule="evenodd" clip-rule="evenodd" class="state-map-path" id="plateau_state_bliHQKJld"
            d="M5.00028 529C-2.99972 549 7.00028 556 10.0003 561C19.0003 577 18.0003 578 9.00028 591C3.00028 600 -2.99972 605 2.00028 619C4.00028 625 11.0003 649 13.0003 651C16.0003 654 21.0003 656 26.0003 658C44.0003 669 42.0003 677 44.0003 682C45.0003 685 49.0003 690 52.0003 696C58.0003 709 60.0003 712 70.0003 720C81.0003 728 86.0003 730 103 730L105 740C118 731 124 712 139 693C143 688 145 685 148 681C155 672 170 656 179 650C189 644 177 638 196 625C221 609 212 623 229 596C231 591 234 588 237 583C243 574 239 560 233 553C210 572 186 551 183 550C167 596 151 556 149 554C137 540 103 552 103 523C103 505 117 505 105 483C94.0003 485 68.0003 496 51.0003 480C50.0003 479 44.0003 469 37.0003 476C31.0003 481 32.0003 506 31.0003 515C29.0003 541 16.0003 526 5.00028 529Z"
            fill="#9DD3AF" />
        <path fill-rule="evenodd" clip-rule="evenodd" class="state-map-path" id="plateau_state_WZKXPo5yp"
            d="M736 949C722 954 728 983 716 987C710 985 711 983 710 976C697 974 701 974 695 965C692 959 687 957 678 959C673 969 678 986 670 996C650 1018 627 953 586 948C586 971 574 977 574 998C573 1006 576 1019 580 1023C586 1029 599 1027 607 1027C629 1025 641 1026 663 1029C679 1031 688 1049 697 1058C703 1064 712 1063 721 1065C761 1072 761 1073 806 1071C879 1067 898 1045 898 1089C918 1081 919 1070 928 1051C947 1011 909 1028 880 1011C874 1008 876 1008 873 1002C869 998 867 998 863 994C855 984 855 956 848 944C841 945 838 949 829 945C823 942 825 936 817 932C806 925 791 932 780 936C772 938 770 939 767 945C763 953 762 954 757 960C741 982 738 953 736 949Z"
            fill="#F6AFCE" />
        <path fill-rule="evenodd" clip-rule="evenodd" class="state-map-path" id="plateau_state_fxMHjUCUs"
            d="M110 480C115 493 118 495 112 511C107 523 107 531 116 537C124 542 137 540 146 545C158 551 157 561 165 566C174 565 176 553 180 544C191 546 206 564 225 552C233 547 232 543 235 533C240 521 262 483 269 476C274 472 280 470 283 462C286 453 288 422 291 417C301 404 310 421 313 393C267 375 275 385 245 377C239 375 236 373 230 371C224 369 219 369 213 367C199 362 195 359 184 353C187 371 196 375 182 394C178 400 175 402 172 410C163 432 172 453 148 465C142 468 134 470 128 472C121 475 115 478 110 480Z"
            fill="#91D8F7" />
        <path fill-rule="evenodd" clip-rule="evenodd" class="state-map-path" id="plateau_state_VquzZGD2w"
            d="M185 345C191 356 214 362 228 366C235 367 239 370 245 371C256 375 270 375 282 377C289 378 312 387 315 387C318 378 316 367 315 358C314 345 311 344 308 334C307 331 304 308 304 305C305 295 311 292 314 282C310 279 309 281 305 276C301 273 300 271 297 268C281 283 282 264 231 297C221 303 212 309 204 317C195 327 192 328 185 345Z"
            fill="#9DD3AF" />
        
    </svg>