<svg viewBox="0 0 107 129" fill="none" xmlns="http://www.w3.org/2000/svg">
        <path fill-rule="evenodd" clip-rule="evenodd" class="state-map-path" id="rivers_state_mgigZIwSr"
            d="M18.5472 89.788C19.3071 89.918 19.5071 89.558 19.9671 89.268C20.9971 88.618 20.7271 89.078 21.3671 89.378C21.8471 89.588 22.6471 89.258 23.407 89.388C23.997 89.488 24.617 89.628 25.237 89.738C25.857 89.858 26.507 90.078 27.1069 89.828C27.6269 89.608 27.9169 89.148 28.4469 88.998C29.1269 88.798 30.0869 89.048 31.5568 88.818C32.1768 88.718 31.9968 88.668 32.3868 88.538C32.6668 88.498 32.5768 88.698 32.5768 89.008C32.5768 89.248 32.5268 89.518 32.5968 89.748C32.7368 90.218 33.1068 90.208 33.5468 90.108L33.8968 89.858L33.9868 89.778C34.1268 89.678 33.7768 89.678 34.2368 89.718C34.4768 89.728 34.6968 89.968 34.8368 90.148C35.5767 91.0979 35.3167 91.0479 35.4767 91.6479C35.5467 91.9479 35.5967 91.9379 35.6867 92.1979C35.8067 92.5379 35.7567 93.0879 35.7667 93.5579V93.6379C35.8467 93.7279 35.8467 93.5079 35.8467 93.8879V94.0579C35.9367 94.1579 35.9367 93.9079 35.9367 94.3079L35.9467 94.5678L36.0267 94.7278V94.9878C36.1167 95.0778 36.1167 94.8478 36.1167 95.2378V95.4078C36.1267 95.4178 36.1467 95.4278 36.1567 95.4578C36.1567 95.4878 36.1767 95.4978 36.1767 95.5078C36.2067 95.6178 36.2067 95.6278 36.2067 95.7378V95.8278C36.2567 95.9078 36.2567 95.8378 36.2867 95.9978C36.2967 96.0778 36.2967 96.1678 36.2967 96.2478C36.3567 96.3378 36.3467 96.2478 36.3767 96.4178C36.3867 96.4978 36.3867 96.5878 36.3867 96.6678C36.4467 96.7578 36.4367 96.6678 36.4667 96.8378C36.4767 96.9178 36.4667 97.0078 36.4667 97.0878C36.4867 97.0978 36.5067 97.1078 36.5067 97.1378C36.5067 97.1678 36.5367 97.1778 36.5367 97.1878C36.5567 97.2978 36.5567 97.3078 36.5667 97.4178V97.5078L36.6467 97.6778V97.7578L36.7367 97.9278V98.0078L36.8267 98.1778L36.9167 98.3478C37.0067 99.2177 37.0767 98.8277 37.4067 99.2677C37.5667 99.2677 37.5367 99.2277 37.5367 99.3577C38.0267 99.4777 38.6567 100.288 38.7767 100.778L38.8667 100.948L38.9567 101.118C39.0267 101.218 38.9567 101.058 39.0467 101.288C39.0567 101.318 39.1067 101.458 39.1067 101.488L39.0467 101.878V101.958C39.0467 102.128 39.0667 102.388 38.9567 102.548V102.628C38.9167 103.048 38.4367 103.788 38.1567 103.978C38.0667 104.288 37.9867 104.188 37.8867 104.558H37.5367L37.4467 104.648L37.0367 104.978L36.9167 105.068V105.148L36.8267 105.238L36.7367 105.398L36.6467 105.568V105.658L36.5567 105.738L36.4767 107.248C36.4867 107.268 36.5067 107.268 36.5067 107.298C36.5067 107.328 36.5367 107.348 36.5367 107.358C36.5567 107.468 36.5567 107.468 36.5567 107.588V108.008C36.5767 108.028 36.5967 108.028 36.5967 108.058C36.5967 108.088 36.6267 108.098 36.6267 108.118C36.6467 108.228 36.6467 108.218 36.6467 108.338V108.508L36.7367 108.677L36.9167 109.347L37.0067 109.437V109.517L37.0967 109.687L37.1767 109.857C37.2467 109.927 37.3067 109.987 37.3667 110.097C37.4367 110.257 37.4367 110.277 37.4467 110.527C37.5367 110.617 37.5367 110.377 37.5367 110.777L37.6267 111.117L37.7167 111.197V111.287C37.9867 111.577 38.5167 113.547 38.5167 113.887C38.6067 113.977 38.5967 113.737 38.5967 114.137V114.307L38.6867 114.477V114.647C38.7767 114.737 38.7767 114.497 38.7767 114.897C38.8667 115.017 38.7667 114.807 38.8767 115.057L39.0367 115.667C39.0867 116.037 39.1367 116.187 39.1367 116.577V116.747C39.2266 116.837 39.2266 116.597 39.2166 116.997V117.167L39.3066 117.247L39.3166 117.497L39.3966 117.587V117.667L39.4866 117.837V117.917L39.5766 118.087L39.6666 118.257V118.337L39.7566 118.507L39.8466 118.677V118.757L39.9366 118.927L40.0266 119.097V119.267L40.1066 119.347L40.3766 120.187L40.4666 120.267C40.8166 120.517 40.8066 121.017 41.1166 121.327C41.4866 121.707 41.9366 121.557 42.5566 121.647C43.1965 121.747 43.3465 121.877 44.1065 121.867C45.1165 121.857 45.9765 122.267 46.9365 122.547L48.9164 123.187C49.2164 123.267 49.3564 123.257 49.6464 123.337C50.1364 123.477 50.8064 123.467 51.3763 123.467C51.3163 123.217 51.2663 122.947 51.2064 122.707C51.7463 122.977 52.2463 123.597 52.9863 123.637C53.7463 123.677 54.4763 123.107 54.9063 122.767C55.3662 122.397 55.8862 121.807 56.1462 121.257C56.5662 120.407 55.6862 119.997 55.1963 119.687V119.007C56.1762 118.387 57.2262 118.287 58.3662 118.067C59.2462 117.897 60.9661 117.587 60.9661 116.487C61.8761 116.487 62.3861 116.927 63.2761 116.997C63.736 116.347 63.586 116.277 63.896 115.737C64.366 115.737 64.726 115.727 65.076 115.877C65.776 116.177 65.676 116.957 66.886 116.467C67.196 116.327 67.4559 116.057 67.6259 115.817L68.2659 116.387C68.2059 116.807 67.7959 117.337 67.576 117.617L65.666 119.677C65.056 120.477 64.806 121.907 65.316 122.707C65.686 123.317 66.246 122.957 66.896 122.987C68.1059 123.037 68.9959 123.287 70.6359 123.297C73.1058 123.307 74.6558 122.137 76.8757 121.547C77.4257 121.407 77.8957 121.267 78.4357 121.097L82.1456 119.827C82.5056 119.667 82.5356 119.597 82.7956 119.427C82.7956 118.617 82.0856 118.257 82.2556 117.667C82.5256 116.657 83.1756 117.577 84.4055 117.657C85.0755 117.707 86.0055 117.687 86.6755 117.777C87.2455 117.847 88.2454 117.917 88.7454 118.087C89.3454 118.277 89.7654 118.677 90.5154 118.677C91.0654 117.907 91.0754 118.107 92.2453 117.957C94.1353 117.707 95.6953 117.107 98.4752 116.717C99.8452 116.527 101.785 116.527 103.285 116.677C105.815 116.917 104.445 116.957 106.765 115.487C106.765 114.247 106.425 112.807 105.675 111.977C105.215 111.477 104.495 111.147 103.825 110.957C102.495 110.567 103.415 111.167 101.995 109.997C101.745 109.797 101.725 109.727 101.705 109.347C101.675 108.867 101.715 108.967 101.415 108.698C100.845 108.178 100.535 107.668 100.455 106.828C101.535 106.288 101.655 106.348 102.115 105.288C102.525 104.338 101.765 103.828 101.275 103.118C101.105 102.868 100.015 100.038 100.015 99.6077C100.015 99.1277 100.255 98.7877 100.285 98.2578C100.345 97.1378 99.6552 96.5578 100.025 95.5778C100.245 94.9778 102.415 93.0279 102.425 91.4579C102.425 90.378 101.565 90.168 100.965 89.628C100.155 88.908 100.505 88.218 100.555 87.088C100.575 86.458 100.475 86.1981 100.215 85.8081C100.095 85.6281 100.005 85.5381 99.8652 85.3881C99.6852 85.1981 99.6352 85.1181 99.4552 84.9281C99.1652 84.6181 99.0752 84.3881 98.7152 84.1181C98.3352 83.8381 98.1552 83.6881 97.8152 83.3681C96.9952 82.6081 97.4752 82.2582 96.3752 81.5482C95.8852 81.2282 96.0552 81.0082 95.7253 80.6482C95.4553 80.3782 94.9553 80.2782 94.4253 80.2782C93.7253 80.2782 93.4253 80.3682 93.0253 80.0182C92.6853 79.7182 92.5353 79.4682 92.2253 79.1682C90.2354 77.1883 88.5354 79.6582 85.6955 78.2982C85.3255 78.1183 84.9555 77.8983 84.5255 77.8083C83.9355 77.6883 83.5555 77.8583 83.0056 77.6483C82.6356 77.5083 82.2256 77.1583 81.8456 77.1983C81.5156 77.2183 81.0756 77.4783 80.5756 77.5083C78.5957 77.6383 77.5257 77.5883 75.9257 78.6482C75.1358 79.1882 74.9658 79.0282 73.9258 79.1082C70.2059 79.3982 71.4659 78.3982 69.2759 77.2883C68.3759 76.8283 67.8159 77.0583 66.976 76.2783C66.526 75.8583 66.596 75.8483 66.636 75.2383C66.716 74.0684 66.976 73.9384 67.6859 73.0384C69.6159 70.5784 70.7059 71.9084 73.1258 70.2885C74.8258 69.1485 74.8358 67.4385 75.8157 66.5285C76.1957 66.1786 75.9057 65.8986 75.9757 65.2586C76.0257 64.8486 76.1557 64.2586 76.2057 63.8786C76.5257 61.6387 75.9657 60.6987 77.1457 58.4687C77.7457 57.3388 78.6457 56.5988 78.7157 55.2488C78.7457 54.6788 78.8657 54.3888 79.0657 53.9889C79.9556 52.2889 80.1556 50.6889 79.3057 48.979C78.8457 48.029 77.9657 46.539 76.6257 46.789C75.5358 46.999 76.0857 48.099 74.9458 48.409C73.8158 48.709 71.7458 48.319 70.7859 47.889C69.8159 47.449 69.4859 47.159 68.3359 47.009C65.586 46.649 62.8561 46.459 60.4461 45.0691C60.0761 44.8491 59.7561 44.6591 59.3562 44.5091C58.8262 44.3091 58.8062 44.0991 58.3262 43.8791C57.2862 43.4091 56.4862 43.6791 55.5862 44.0291C54.7063 44.3691 53.8263 44.3791 52.9363 44.7091C52.2863 44.9591 52.4063 44.8891 51.6863 44.7891C51.1764 44.7191 50.7964 44.9491 50.3964 45.0691C49.2164 45.4491 47.6564 45.6791 46.3965 45.989C45.0365 46.319 45.2265 46.469 43.9565 45.8091C42.8666 45.2591 43.0566 44.5891 41.0466 43.8591C40.5766 43.6891 40.2866 43.5691 39.6666 43.5691C38.9867 43.5791 38.7467 43.4691 38.3267 43.2391C38.0467 43.0891 38.0967 43.1191 37.8667 42.9191C37.1167 42.2791 36.2467 41.7592 35.6367 40.9992C35.0967 40.3292 33.9168 39.7692 33.2768 38.5292C33.0968 38.1892 32.9468 37.7893 32.6768 37.5093C32.4468 37.2693 32.4268 37.3893 32.3868 37.0193C32.2968 36.2993 32.5368 35.5193 32.6268 34.8093C32.7768 33.7494 32.4668 32.6094 32.5868 31.7494C32.8068 30.1894 33.7068 29.0295 32.7668 28.4195C32.5168 28.2595 32.6968 28.4595 32.5368 28.2195C32.3068 27.8695 32.2468 27.4295 32.0668 27.0795C31.8668 26.6895 31.6768 26.4495 31.4668 26.0395C30.7369 24.6096 32.0168 25.0696 31.8468 23.6696C31.7668 22.9796 31.1868 21.9396 30.8769 21.3897C29.8069 21.3897 29.6869 21.4897 28.8469 21.6497C27.6569 21.8896 22.8271 21.7297 22.0971 21.3897C22.2871 20.6197 22.4171 19.4097 22.5171 18.6097L24.607 4.36008C24.697 3.7501 25.227 1.50015 24.897 0.930165C24.657 0.540175 23.327 0.440177 22.8571 0.34018C21.4371 0.0301872 21.2571 -0.299805 20.4271 0.490176C19.6971 1.20016 19.3571 1.33016 19.1271 2.54013C19.0171 3.11011 19.1871 3.4901 18.9172 3.94009C18.6072 4.45008 18.4872 4.25008 18.3872 5.03006C18.2472 6.03004 18.9072 6.61002 19.2971 7.41001C19.4971 7.81999 19.6571 8.14999 19.5071 8.60997C19.3771 8.99997 19.1671 9.30996 18.8772 9.60995C18.0572 10.4899 18.1372 11.7899 17.5272 13.2099C16.9872 14.4898 16.8972 15.5498 15.2072 15.9698C14.1873 16.2198 13.3873 15.9798 12.6673 16.7498C11.6773 17.8097 11.7073 19.1997 12.0173 20.5997C12.4773 22.7796 12.5373 23.9796 11.5073 25.9895C11.2573 26.4695 11.1173 26.4995 10.7074 26.8295C10.2874 27.1795 10.3974 27.4995 9.75738 27.5295C9.00739 27.5695 8.8774 27.5795 8.28741 27.8095C7.79742 28.0095 7.54743 28.0995 7.36743 28.5395C6.94745 29.5895 6.92745 30.0694 7.30744 31.1094C8.00742 33.0394 7.92742 32.3794 10.9073 32.3994C12.2573 32.4094 12.6973 32.2494 14.1973 32.3994C15.5372 32.5194 15.1972 33.1794 15.0872 34.5893C14.9372 36.4393 14.9372 36.9993 13.8773 38.3192C13.0573 39.3392 11.6773 40.1292 11.8073 41.2092C11.9573 42.4891 12.9273 43.0291 13.9473 44.0591L14.7273 44.9991C14.3873 45.4391 14.0773 45.2491 13.6873 46.029C12.7473 47.959 14.7573 48.259 13.8573 48.969C13.7073 49.089 13.3373 49.249 13.1173 49.279C12.5473 49.339 12.5373 49.139 12.1673 49.459C11.7873 49.789 11.7073 50.4089 11.1573 50.5289C10.2074 50.7189 10.3674 50.6089 9.48738 51.0389C8.34741 51.6089 8.43741 51.2589 7.41743 53.2089C6.45746 55.0488 5.84747 57.0988 4.7175 58.8787C4.44751 59.2987 4.28751 59.8387 4.07752 60.2887C3.82752 60.8287 3.80752 61.3087 3.47753 61.8187C2.90755 62.6986 2.49756 63.7086 1.90757 64.5386C-0.52237 67.9985 2.55755 68.2885 3.38753 69.7685C4.49751 71.7384 2.57755 73.2184 2.22756 74.2484C1.50758 76.3183 0.367608 76.7083 0.097615 78.4482C-0.312375 81.0982 0.647601 82.8481 1.51758 85.1481C1.70758 85.6581 1.86757 86.1781 2.09757 86.688C2.31756 87.178 2.71755 87.638 2.83755 88.098C3.43753 88.088 3.71753 87.818 4.07752 87.588C4.07752 88.538 3.72753 89.448 3.98752 90.368C4.08752 90.7479 4.13752 91.1879 4.47751 91.4179C4.7975 91.6279 5.29749 91.6779 5.43748 92.0179C5.63748 92.4979 5.26749 92.7579 6.07747 92.9279C7.60743 93.2479 8.24741 92.1479 9.20739 91.3479C9.79737 90.8579 11.2373 89.628 11.8873 89.358C13.1073 88.848 14.7873 88.678 16.1872 88.898C17.2572 89.058 17.8572 89.288 18.5472 89.788Z"
            fill="#FDFDFD" />
        <path fill-rule="evenodd" clip-rule="evenodd" class="state-map-path" id="rivers_state_oFGZm1YEn"
            d="M18.5472 89.788C18.5072 90.208 17.6772 91.6879 16.8572 92.0479C15.2772 92.7279 16.1772 93.2179 15.3672 93.5779C15.1273 93.6779 14.8873 93.7679 14.6373 93.8879V94.4778C12.9173 95.3478 12.0473 97.0678 10.8874 98.2378C10.2674 98.8677 10.1474 98.7377 10.4574 99.6177C10.8774 100.818 10.2374 100.718 11.6373 101.698C12.4173 102.248 12.1673 102.048 12.4773 102.998C12.7173 103.788 13.4473 103.818 13.3973 104.308C13.2973 104.668 12.9673 104.788 12.7773 105.068C13.0173 106.058 13.7873 107.008 14.9073 107.248C14.7773 107.788 14.7673 107.918 14.3473 108.238C13.8173 108.637 12.8473 108.707 13.0473 110.017C13.1273 110.567 13.4673 110.477 13.4873 111.117C13.3673 111.487 12.8873 111.257 12.3173 112.867C11.5973 114.917 11.7773 113.977 11.3673 114.907C11.0474 115.607 10.9774 116.407 10.7274 117.157C10.4474 117.957 10.0774 118.627 10.2274 119.577C10.4274 120.967 9.80738 123.587 10.8974 124.567C12.0373 125.587 13.5773 123.757 13.5773 127.837C14.7773 127.837 15.9472 127.857 17.0272 127.747C18.0572 127.637 17.9572 126.907 19.6971 126.907C20.0071 127.347 20.2571 127.517 20.6071 127.897C20.8971 128.207 21.0471 128.607 21.5871 128.677H21.9071C22.4471 128.617 22.6271 128.277 22.7671 127.797C22.9571 127.137 23.0871 127.107 23.827 126.957C25.417 126.637 26.507 126.797 27.3869 126.627C28.1369 126.477 27.6769 126.047 28.2669 125.607C29.5569 124.627 29.4469 126.007 33.0068 125.987C34.0768 125.987 38.6267 125.217 39.9066 125.037C40.6466 124.927 40.9966 125.017 41.7066 125.067C42.5366 125.117 42.8466 124.947 42.8566 124.217C42.7366 123.807 41.3966 123.087 41.1966 122.687C40.9166 122.137 41.2966 122.087 40.9166 121.437C40.7666 121.187 40.4966 120.617 40.4666 120.267L40.3766 120.187L40.1066 119.347L40.0266 119.267V119.097L39.9366 118.927L39.8466 118.757V118.677C39.7266 118.607 39.7566 118.797 39.7566 118.507L39.6666 118.337V118.257L39.5766 118.087L39.4866 117.917V117.837L39.3967 117.667V117.587L39.3167 117.497L39.3067 117.247L39.2167 117.167V116.997C39.1367 116.907 39.1367 117.127 39.1367 116.747V116.577C39.1267 116.557 39.1067 116.507 39.1067 116.517L38.7767 114.897C38.6867 114.807 38.6867 115.037 38.6867 114.647V114.477L38.5967 114.307V114.137C38.5067 114.047 38.5167 114.287 38.5167 113.887L37.7167 111.287V111.197L37.6267 111.117L37.5367 110.777C37.4467 110.687 37.4467 110.917 37.4467 110.527C37.3467 110.417 37.3467 110.427 37.2767 110.267C37.2067 110.097 37.1967 110.057 37.1767 109.857L37.0967 109.687L37.0067 109.517V109.437L36.9167 109.347L36.7367 108.677L36.6467 108.508V108.338C36.6367 108.328 36.6167 108.278 36.6067 108.298C36.6067 108.308 36.5867 108.248 36.5867 108.238C36.5567 108.118 36.5567 108.128 36.5567 108.008V107.588C36.5467 107.568 36.5267 107.528 36.5267 107.538C36.5167 107.548 36.4967 107.498 36.4967 107.478C36.4667 107.358 36.4767 107.378 36.4767 107.248L36.5567 105.738L36.6467 105.658V105.568L36.7367 105.398L36.8267 105.238L36.9167 105.148V105.068C36.9167 104.938 36.8867 104.978 37.0367 104.978L37.4467 104.648L37.5367 104.558L38.1567 103.978L38.9567 102.628V102.548C38.9567 102.448 38.9467 102.308 38.9567 102.218L39.0467 101.958V101.878C38.9067 101.608 38.9567 101.488 38.9567 101.118L38.8667 100.948L38.7767 100.778C38.5867 100.648 38.3767 100.298 38.1967 100.068C37.9567 99.7677 37.7267 99.6277 37.5367 99.3577L37.4067 99.2677C37.0767 98.8277 37.0067 99.2177 36.9167 98.3478L36.8267 98.1778L36.7367 98.0078V97.9278L36.6467 97.7578V97.6778L36.5667 97.5078V97.4178C36.5467 97.4078 36.5267 97.3578 36.5267 97.3678C36.5267 97.3778 36.4967 97.3278 36.4967 97.3178C36.4667 97.1978 36.4667 97.2078 36.4667 97.0878C36.4067 96.9978 36.4167 97.0878 36.3867 96.9078C36.3767 96.8378 36.3867 96.7478 36.3867 96.6678C36.3167 96.5778 36.3267 96.6678 36.2967 96.4878C36.2867 96.4178 36.2967 96.3178 36.2967 96.2478C36.2367 96.1578 36.2367 96.2478 36.2167 96.0678C36.1967 95.9778 36.2067 95.9178 36.2067 95.8278V95.7378C36.1967 95.7278 36.1767 95.6778 36.1667 95.6878C36.1667 95.6978 36.1467 95.6478 36.1367 95.6378C36.1167 95.5178 36.1167 95.5278 36.1167 95.4078V95.2378C36.0267 95.1378 36.0267 95.3878 36.0267 94.9878V94.7278L35.9467 94.5678L35.9367 94.3079C35.8467 94.2179 35.8467 94.4578 35.8467 94.0579V93.8879C35.7567 93.7979 35.7567 94.0379 35.7667 93.6379V93.5579C35.7467 93.5379 35.7367 93.4879 35.7367 93.4979L35.6867 93.3779C35.6767 93.3579 35.6667 93.3379 35.6667 93.3079C35.6467 93.2679 35.6067 93.0579 35.6067 93.0279C35.4268 92.0279 35.3368 90.078 33.9868 89.778L33.8968 89.858L33.5468 90.108L33.3568 90.3579L32.8368 90.3679C32.6768 90.098 32.5268 89.978 32.4768 89.608C32.4268 89.208 32.3868 88.978 32.3868 88.538C31.9968 88.668 32.1768 88.718 31.5568 88.818C30.0869 89.048 29.1269 88.798 28.4469 88.998C27.9169 89.148 27.6269 89.608 27.107 89.828C26.507 90.078 25.857 89.858 25.237 89.738C24.617 89.628 23.997 89.488 23.407 89.388C22.6471 89.258 21.8471 89.588 21.3671 89.378C20.7271 89.078 20.9971 88.618 19.9671 89.268C19.5071 89.558 19.3071 89.918 18.5472 89.788Z"
            fill="#9DD3AF" />
        <path fill-rule="evenodd" clip-rule="evenodd" class="state-map-path" id="rivers_state_sMpZ46Zks"
            d="M33.0968 89.698C33.5968 89.708 33.5268 89.528 33.8068 89.218C35.1167 89.188 35.7267 90.388 35.9067 91.4079C35.9967 91.8979 36.1767 92.0079 36.2267 92.5479C36.3767 94.2079 36.6667 95.7278 37.0667 97.3678C37.1567 97.7478 37.2867 97.9578 37.3967 98.4078C37.5967 99.2877 38.0767 98.4278 39.3666 100.818C39.8866 101.788 39.4466 103.138 38.7466 104.028C38.4966 104.348 38.4066 104.548 38.1866 104.908C37.8267 105.238 36.6967 104.718 37.0367 107.648C37.1067 108.248 37.1767 108.788 37.4267 109.287C38.0567 110.487 39.1866 114.067 39.4666 115.417C39.9466 117.757 39.3166 116.127 40.3766 118.677C40.6866 119.427 40.4466 119.407 40.9866 120.107C41.4166 120.667 41.0966 121.077 41.9766 121.157C42.6365 121.217 43.2865 121.397 43.8365 121.417C46.3664 121.487 48.7264 123.047 50.7663 123.027C50.7163 122.197 50.6663 122.257 51.5563 122.207C51.7963 122.437 52.2263 123.117 52.9763 123.167C53.9463 123.237 55.3362 121.917 55.7062 121.087C55.9762 120.497 55.1462 120.207 54.7062 119.897C54.6762 119.157 54.6862 118.737 55.2362 118.467C55.7062 118.227 56.2062 117.997 56.8462 117.877C57.3462 117.787 61.3261 117.207 60.3561 116.327C60.3561 116.317 57.8062 115.497 58.7361 112.877C58.9861 112.177 59.4061 112.097 59.5661 111.537C59.4361 111.167 59.0561 110.817 58.8261 110.457C56.7362 107.098 58.5461 105.428 58.6161 104.818C58.7761 103.388 57.7062 103.488 58.2762 102.608C58.7261 101.898 58.4361 101.608 58.5661 100.108C58.6561 99.0077 58.3262 99.2177 57.4262 97.5778C56.6562 96.1578 56.6862 96.0378 55.6662 94.7879C55.4962 94.5779 55.3662 94.5079 55.1862 94.3279L53.2163 92.4879C52.8963 92.2279 52.5463 91.8679 52.3963 91.3379C53.2963 91.0479 52.8563 90.338 53.1063 89.388L53.5463 89.568V88.938C53.2663 88.828 53.1563 88.878 52.9063 88.748C52.6963 88.648 52.6163 88.488 52.4463 88.338C52.0763 88.508 52.0663 88.738 51.6363 88.928C51.1663 89.138 50.7463 89.038 50.2264 89.018L50.1064 87.428C50.0064 87.398 50.0264 87.388 49.8864 87.378L48.9164 87.408C48.7664 87.098 48.6164 86.928 48.5164 86.5281C48.3964 86.0381 48.3164 85.8781 48.1864 85.4881C46.6764 85.6281 47.5064 86.0281 46.8564 86.3481C46.1565 86.6181 45.9665 85.8481 45.5165 85.7381C45.1865 85.6581 44.7865 85.7381 44.4565 85.7481C43.8565 85.7581 43.9765 85.6481 43.5665 85.5081C43.2165 85.7281 42.9865 85.8481 42.6965 86.1781C42.4765 86.4081 41.3966 87.038 42.4965 88.188C42.7365 88.438 42.9965 88.878 43.2165 89.078C43.3565 89.138 45.9365 88.888 46.1965 90.238C46.3165 90.9179 45.9965 90.538 46.4564 91.1579C46.6564 91.4279 46.7764 91.6379 46.9964 91.9079C47.8364 92.9179 47.7764 94.0179 46.8764 94.7579C45.0365 96.2778 44.5165 94.4579 43.4865 93.7979C43.0165 93.4979 42.1166 93.1079 41.5366 92.9579C40.8966 92.7879 40.9566 92.9779 40.4266 93.0979C39.9966 93.1879 39.4866 93.1479 39.0466 93.1179C38.8266 92.9379 38.7466 92.7279 38.5566 92.5879C38.3466 92.4379 37.9867 92.3979 37.7267 92.2779C37.5567 92.1979 36.4267 91.4079 36.3967 91.3679C36.0667 90.8979 36.6167 91.0579 35.7167 89.818C33.7568 87.098 35.9567 87.538 34.7967 85.7281C34.5867 85.4081 34.6667 85.2081 34.4367 84.9781C34.0068 84.5581 33.0168 84.7781 32.3868 84.7381C31.2968 84.6581 31.4968 84.2281 30.9868 83.8881C30.9568 84.2781 30.9968 84.3681 31.0768 84.7181C31.3468 85.8581 31.0368 84.7681 32.6068 86.2881C33.6568 87.298 32.6268 88.748 33.0968 89.698Z"
            fill="#E79998" />
        <path fill-rule="evenodd" clip-rule="evenodd" class="state-map-path" id="rivers_state_PsazcabfZ"
            d="M8.1574 31.9594C9.91736 32.0694 13.5473 31.6394 14.9072 32.0594C15.8972 32.3694 15.6372 33.6294 15.5872 34.6593C15.4772 36.7093 15.0872 37.9592 13.5773 39.3692C13.3773 39.5592 13.2973 39.5692 13.1073 39.7692C12.9273 39.9592 12.8873 40.0292 12.6873 40.2092C11.3373 41.4192 13.5373 42.9691 13.8273 43.2491C14.1173 43.5391 14.3672 43.8491 14.6472 44.1591C14.9672 44.5191 15.2472 44.6391 15.1672 45.3391C14.4472 45.8791 14.1273 45.7191 13.9073 46.829C13.7073 47.829 14.7672 47.739 14.5072 48.899C15.7872 48.959 17.0772 50.5289 18.5371 50.5489C20.0371 50.5789 20.1571 49.499 21.4671 47.839C22.347 47.859 22.607 48.239 23.377 48.319C24.127 48.389 24.757 48.109 25.557 48.109C26.5169 48.109 27.1669 48.199 27.9469 47.869C27.6869 46.529 27.2969 47.509 28.2769 45.1391C28.6069 44.3691 28.9969 43.2591 29.3669 42.5591C29.7669 41.8192 30.7768 41.2992 31.7768 41.2292C33.0968 41.1392 33.6368 41.5192 34.3768 41.3392L35.0667 41.0392C34.6367 40.8492 33.2468 39.4192 32.9768 38.9892C32.6968 38.5592 32.5468 38.0192 32.2168 37.6793C31.9768 37.4293 31.8868 37.4893 31.8868 37.0193C31.8768 36.2793 32.1268 35.1293 32.1968 34.3293C32.2668 33.5894 32.1368 33.0994 32.1168 32.3994C32.0668 31.3294 32.8068 29.3195 32.6968 28.9195C32.5368 28.6495 32.3768 28.9595 32.1368 28.5195C32.1268 28.5095 32.0468 28.2995 32.0368 28.2695C31.9168 27.9595 31.8168 27.6495 31.6768 27.3595C31.4168 26.7795 30.9268 26.3095 30.8068 25.5696C30.6068 24.3096 31.5168 24.7996 31.3668 23.6996C31.2968 23.1596 30.8368 22.2896 30.5968 21.8296C29.8169 21.8196 29.2969 22.0496 28.5669 22.1396C27.1169 22.3096 22.887 22.2396 21.6571 21.7096C21.5771 21.1297 23.527 8.11998 23.787 6.36003C24.007 4.80006 24.577 2.72012 24.497 1.15015C23.707 0.990158 21.7971 0.460172 21.1171 0.470171C19.5471 2.06013 19.7371 1.49015 19.5371 3.4501C19.4771 4.05008 19.3571 4.11008 19.0671 4.50007C17.9972 5.92004 20.7171 7.29 19.8271 9.08996C19.3071 10.1299 18.8071 9.96994 18.6571 10.9999C18.4871 12.0699 17.5472 14.8398 16.9872 15.4698C16.6172 15.8798 15.6972 16.3598 14.8472 16.4698C13.5873 16.6398 13.2773 16.5398 12.7073 17.4698C11.3973 19.6197 13.6573 22.0996 12.3973 25.2296C12.2473 25.5896 12.0473 25.9395 11.8773 26.2495C11.5473 26.8595 11.6473 26.7295 11.1373 27.0695C10.8273 27.2695 10.6273 27.6995 10.3773 27.8595C10.0474 28.0795 9.43737 27.9595 8.97738 28.0495C7.95741 28.2595 7.64741 28.7095 7.50742 29.6595C7.40742 30.2994 7.93741 31.4594 8.1574 31.9594Z"
            fill="#F6AFCE" />
        <path fill-rule="evenodd" clip-rule="evenodd" class="state-map-path" id="rivers_state_LCxJxQmLl"
            d="M27.5969 55.4988L27.4669 55.5588C27.4469 55.5688 27.4169 55.5788 27.3969 55.5888L27.077 55.6688C26.857 57.6288 27.5669 57.7188 26.727 60.4787C26.307 61.8687 26.747 64.5686 25.097 66.8285C23.967 68.3885 25.987 67.3885 25.557 70.7884C25.507 71.1784 25.407 71.5284 25.257 71.8484C25.087 72.2184 24.867 72.3784 24.747 72.7184C25.037 73.2584 25.707 73.4084 25.817 73.9184C25.967 74.6383 25.107 74.7783 24.827 75.2683C25.827 75.7783 25.037 74.8883 27.047 75.3383C27.087 76.4283 26.367 76.9783 25.367 77.3083C25.747 78.3682 26.497 77.8383 27.2669 78.3182C27.5369 78.4882 27.6669 78.9082 27.8569 79.1082C28.0969 79.3782 28.5169 79.3782 28.9869 79.4682C29.0669 79.9582 29.2469 80.1582 29.3269 80.5682C29.4369 81.1282 29.2269 81.4082 29.2969 81.9482C29.7669 82.2682 30.2769 82.3482 30.7169 82.6181C31.0969 82.8681 31.4968 83.3881 31.7768 83.7181C32.1468 84.1381 33.0668 84.0181 33.6368 84.0481C35.1268 84.1181 34.8868 84.3981 35.1368 84.6981C35.7867 84.6981 35.3567 84.3981 36.3167 84.3981C36.3667 84.5281 36.4067 84.6681 36.4567 84.8281C36.5367 85.0781 36.5067 85.0681 36.6467 85.2481C38.5267 85.2181 36.9967 83.0581 38.0467 82.4481C39.0067 81.8882 40.1666 83.4881 40.6966 83.7581C41.6666 84.2781 43.3665 83.8581 43.8365 84.8781C44.1565 85.5881 44.3965 85.2381 45.2565 85.2681C46.3465 85.3081 46.0265 85.7481 46.6465 85.9681L46.8965 85.4081C46.6965 85.1481 46.2365 84.7681 46.4965 84.1981L46.5965 84.0881C46.7465 83.9581 46.5565 84.0881 46.7465 83.9681C46.9165 83.8581 47.3864 83.7181 47.2165 83.2981C47.0965 82.9881 46.6265 82.7481 46.5265 82.2682C46.3965 81.6182 47.0165 81.5082 46.6865 80.9582C46.3065 80.3282 45.9565 80.6282 45.4765 80.3282C44.7065 79.8582 45.1965 78.7082 44.5365 77.8483C44.2265 77.4483 43.9865 77.1483 44.3665 76.6683C44.6765 76.2783 44.6865 76.3383 44.4465 75.5883L44.3665 75.3683C43.7665 75.4283 43.1066 75.5283 42.5366 75.3783C42.0666 75.2583 41.6266 74.8883 41.3566 74.5683C39.9266 72.8684 40.1066 69.9985 40.1366 68.0185C40.1566 66.3485 39.7666 66.0586 39.4166 64.7186C39.2367 63.9986 39.3166 63.7886 38.9067 63.2786C38.3767 62.6286 38.7167 62.7286 37.7567 62.4286C36.8667 62.1586 37.7767 62.2486 36.3867 61.7987C35.5267 61.5187 34.8668 60.5687 34.3068 59.9087C33.9468 59.4787 33.7168 59.3087 33.7168 58.5287C33.7168 56.5588 34.0068 56.7488 34.9368 55.7288L34.6568 55.3688C35.1268 55.2388 35.5367 55.0888 36.0167 55.0888C36.0667 52.7889 36.3267 53.8789 37.1667 53.3889L38.3067 51.6889C38.5067 51.2089 38.4967 50.6089 38.5367 50.0589C38.8367 46.689 38.0367 46.509 39.9866 44.0291C37.8067 43.9091 37.8767 43.4991 36.1167 42.1491C35.8867 41.9691 35.8367 41.9291 35.5867 41.7192C35.2967 41.4892 35.2168 41.5092 34.8068 41.6492C33.6568 42.0691 32.6868 41.4692 31.3368 41.7392C30.1069 41.9791 29.8369 42.5891 29.3869 43.6691C29.0169 44.5691 28.6469 45.4291 28.2869 46.329C28.0869 46.809 28.1169 47.329 28.4569 47.709C28.8169 48.119 28.7269 47.639 28.8269 49.289C29.0869 53.4989 27.5769 51.9789 27.5969 55.4988Z"
            fill="#9CCCAC" />
        <path fill-rule="evenodd" clip-rule="evenodd" class="state-map-path" id="rivers_state_VeNz1t2ar"
            d="M51.3763 45.3791C51.3963 46.549 51.6063 46.629 51.1064 47.669C50.1164 49.709 50.7264 52.6689 51.2063 54.6588C51.7163 56.7888 52.3363 62.6786 52.9263 63.8586C53.2363 64.4786 53.6763 64.9386 54.0063 65.5386C55.2362 67.8485 54.4163 66.9885 56.2962 68.7485C57.6662 70.0385 56.6062 71.6784 57.7262 72.7684C58.8262 73.8284 58.9362 73.4284 59.5261 73.7484C59.8361 73.9084 60.0461 74.0984 60.4161 74.2484C60.8161 74.4084 61.0461 74.4584 61.4261 74.6384C62.2461 75.0383 62.5161 75.2383 62.8861 75.9983L64.656 75.7983C65.026 75.3383 64.876 75.0083 65.476 74.7283C66.406 74.2884 66.016 74.7083 66.516 73.8584C66.906 73.1884 67.7859 72.1284 68.2659 71.7384C69.2459 70.9284 69.8359 71.0884 71.1559 70.6884C72.0458 70.4185 73.3858 69.8385 73.5858 69.1985C73.0658 68.3785 71.4958 68.4285 70.2459 68.2985C68.7359 68.1485 67.9259 68.1285 67.9259 66.5086C67.9259 65.8786 68.1659 65.3586 68.5259 65.0886C69.2459 64.5486 69.0259 64.8386 69.4159 63.9186C70.1459 62.2087 69.8659 62.4587 70.9359 61.3287C71.6558 60.5587 71.6758 59.3787 71.8458 58.1488C71.9358 57.4788 72.0258 57.0988 72.2558 56.5288C72.4858 55.9588 72.4658 55.4488 72.6358 54.8688C72.7758 54.4189 73.0458 53.8889 73.2158 53.3989C73.4958 52.5889 73.4758 52.6289 73.9958 52.1289C74.6658 51.5089 74.9558 50.209 74.9658 49.049C73.6458 48.889 72.9558 49.149 71.5458 48.759C70.6459 48.499 70.0659 47.829 68.9859 47.569C67.9859 47.339 66.686 47.319 65.616 47.149C63.516 46.829 61.7461 46.2691 59.9461 45.2991C59.6861 45.1491 58.9162 44.8591 58.7062 44.6991C57.0262 43.3991 56.5462 44.4191 54.3663 44.8091C53.7963 44.9091 53.4063 44.9591 52.9263 45.1991C52.0763 45.6291 52.4163 45.4291 51.3763 45.3791Z"
            fill="#9DD3AF" />
        <path fill-rule="evenodd" clip-rule="evenodd" class="state-map-path" id="rivers_state_fJXjUVzwz"
            d="M13.7473 72.3884C13.8573 72.5884 14.0673 72.6684 14.3972 72.7884C15.1972 73.0584 15.4372 72.7984 15.2972 73.8684C15.2472 74.2884 15.2072 74.2884 14.8972 74.4884C14.8872 75.2983 14.8772 75.8683 14.2772 76.1583C13.4673 76.5483 13.1173 76.4983 12.5073 76.0883C11.6773 75.5083 11.8773 75.8283 11.3173 74.9384C10.8973 74.2584 9.90735 73.6084 9.54736 73.1684C9.34737 72.9284 9.23737 72.7984 8.96738 72.5484C7.20742 70.9485 8.33739 71.7384 6.13745 70.6985C5.29747 70.2985 5.06747 70.4185 4.22749 70.7585C3.8775 73.7184 3.41751 72.3784 2.49754 74.8384C1.80755 76.7183 0.747581 76.9083 0.527586 78.6883C0.187594 81.5682 1.37756 83.3481 2.20754 85.6681C2.44754 86.3481 2.60753 86.7581 2.99752 87.348L3.18752 87.598C3.74751 87.328 3.77751 87.0281 4.51749 87.0181C4.69748 88.258 4.1375 89.148 4.44749 90.268C4.67748 91.098 4.53749 90.928 5.24747 91.2779C5.79746 91.5479 5.87745 91.7279 5.97745 92.4379C7.62741 92.7979 8.0874 91.7079 8.86738 91.038C9.07737 90.848 9.19737 90.798 9.45737 90.578L10.7073 89.588C10.9273 89.418 11.1073 89.238 11.3573 89.108C12.2973 88.598 13.8273 88.368 15.0872 88.378C16.5772 88.388 17.5872 88.658 18.6271 89.288C19.1471 89.598 19.0871 89.258 19.9671 88.768C20.9971 88.198 21.1971 88.768 21.4771 88.928C21.8071 89.118 22.797 88.848 23.487 88.968C24.117 89.068 24.747 89.218 25.397 89.338C27.9369 89.828 26.9769 88.748 28.6669 88.518C29.3669 88.418 30.1269 88.558 30.8668 88.488C31.9968 88.378 31.7668 88.298 32.6168 87.988C32.6468 87.258 32.5068 86.7781 32.1168 86.4181C31.3268 85.6881 31.2168 85.8781 30.7468 85.5381C30.7068 85.0281 30.5368 84.6581 30.5068 84.2381C30.4668 83.6581 30.7868 83.2581 30.4868 83.0082C29.7969 82.4482 28.6369 82.7982 28.8369 81.3882C28.9069 80.9082 28.8669 80.4882 28.6769 80.0882C28.3469 79.3882 28.0369 80.2282 27.2669 79.0782C26.9469 78.6083 26.8069 78.4183 25.417 78.3783C25.237 77.6483 24.917 78.0483 24.867 77.0283C25.757 76.6883 26.4869 76.4183 26.5869 75.6983C25.857 75.4783 25.897 75.8583 25.287 75.8583C24.617 75.8683 24.717 75.5283 24.197 75.3583C22.567 74.8184 22.457 74.5584 21.5171 73.5184L19.9871 72.0284C19.2871 71.2884 18.5871 67.3785 16.2272 68.8485C15.4272 69.3385 15.6072 70.1085 15.1872 70.8085C14.1473 72.5284 13.9773 71.7484 13.7473 72.3884Z"
            fill="#F6AFCE" />
        <path fill-rule="evenodd" clip-rule="evenodd" class="state-map-path" id="rivers_state_dtV0b35cz"
            d="M36.5167 54.0289L36.4467 55.5688L35.4568 55.5488C35.2268 56.3488 34.7668 56.3488 34.4168 56.9188C34.1768 57.3188 34.0568 58.5887 34.2268 59.0587C34.2868 59.2387 35.1668 60.2187 35.3568 60.4187C35.8567 60.9787 35.8867 61.1887 36.8267 61.4687C37.3367 61.6187 37.2867 61.7387 37.6067 61.9087C37.9167 62.0687 38.2667 62.1087 38.5767 62.2387C39.0167 62.4286 38.9267 62.5286 39.1567 62.8686C39.3967 63.2086 39.5067 63.1586 39.6567 63.6686C39.8566 64.3486 39.9266 64.9386 40.1866 65.5986C40.4866 66.3785 40.6066 66.8285 40.6066 67.7685C40.5966 69.7385 40.1566 75.3083 43.6666 74.9983C44.0765 74.9583 44.4665 74.8583 44.8365 74.9683C45.5165 75.1783 45.2265 75.0483 46.0565 75.0283C47.1065 75.0083 47.5765 75.2883 48.4664 75.3983C49.2264 75.4983 50.1864 75.3783 50.7964 75.7083C51.2864 75.9683 52.0963 76.6683 52.7963 76.2583C53.1163 75.8983 50.8264 75.1183 51.6764 73.8484C52.1563 73.1184 53.6363 72.8784 54.7063 72.5184C55.9163 72.1084 55.2363 71.7384 56.8162 72.2184C56.7462 71.5984 56.6562 70.9584 56.5762 70.3185C56.3862 68.6385 55.1763 69.1885 53.9663 66.4985C52.5563 63.3286 52.5763 65.9886 51.6764 60.1787C51.4864 58.9587 51.2864 57.7388 51.0864 56.5288C50.6864 54.0189 49.8164 51.7589 50.2264 49.029C50.3264 48.369 50.4564 47.979 50.7264 47.409C51.1164 46.619 50.9564 46.279 50.9264 45.3991C50.0064 45.5791 49.0864 45.9091 48.0264 46.0991C45.0065 46.649 45.7065 47.159 43.8465 46.259C42.6966 45.6991 42.4166 44.5791 40.5566 44.1691C40.1466 44.4791 39.3767 45.5691 39.1767 46.209C38.7267 47.599 39.5467 50.3989 38.4367 52.3989C38.1667 52.8989 38.0267 52.8989 37.7767 53.4589C37.5267 54.0189 37.2067 53.9389 36.5167 54.0289Z"
            fill="#F6AFCE" />
        <path fill-rule="evenodd" clip-rule="evenodd" class="state-map-path" id="rivers_state_nVpgcu9AT"
            d="M59.0462 99.7177C59.0062 100.348 58.9462 100.908 58.9662 101.538C59.0062 102.658 58.8462 102.318 58.5762 103.048C58.5762 103.178 59.3362 103.818 59.0462 105.108C58.9762 105.408 58.7062 105.718 58.5662 105.988C58.3962 106.318 58.3062 106.668 58.2762 107.078C58.2162 108.208 58.6962 109.248 59.2062 110.177C59.4062 110.537 59.5762 110.677 59.7862 110.967C60.3962 111.797 59.7362 112.097 59.3662 112.627C58.9862 113.167 58.8662 114.207 59.2062 114.797C59.6462 115.557 59.8662 115.767 60.9561 115.847C61.6561 115.907 62.1261 116.417 63.1261 116.507C63.3061 115.817 63.3861 115.207 64.3261 115.267C65.656 115.347 65.846 116.017 66.026 116.087C66.926 116.187 67.106 115.677 67.536 115.317C67.866 115.397 69.0459 116.007 68.586 116.897C67.706 118.607 66.466 119.187 65.866 120.207C65.506 120.817 65.286 121.877 65.756 122.537C66.296 122.647 67.356 122.587 68.106 122.687C71.2059 123.097 72.1259 122.817 74.6558 121.807C75.8958 121.317 77.2057 120.997 78.5357 120.607L82.2656 119.267C82.2856 118.127 81.3556 118.857 82.0356 116.947C82.2856 116.267 81.9556 115.297 82.3256 114.197C82.7456 112.967 83.2356 109.857 82.5456 108.678C81.5656 108.568 81.5356 109.417 80.8057 108.548C80.4857 108.168 80.3457 107.338 80.1857 106.788C79.9857 106.048 80.0557 105.338 80.4557 104.868C80.6157 104.678 80.8956 104.428 81.0856 104.288C81.2356 104.178 81.2756 104.158 81.4356 104.028C81.6656 103.848 81.6056 103.958 81.7556 103.718C81.4856 103.158 80.9356 103.268 79.6657 102.988C78.9157 102.828 78.1457 102.588 77.5357 102.308C74.8058 101.048 75.7158 100.548 74.8058 99.4677C74.1258 99.5977 73.3358 99.9977 72.7859 100.298C71.3159 101.088 71.0759 102.878 66.986 103.368C65.646 103.528 65.596 103.538 64.4961 103.068C63.7861 102.778 63.1161 102.358 62.6461 101.958C62.0861 101.488 61.7361 101.068 61.0161 100.648C60.6262 100.418 59.4162 99.7977 59.0462 99.7177Z"
            fill="#F6AFCE" />
        <path fill-rule="evenodd" clip-rule="evenodd" class="state-map-path" id="rivers_state_J6nzDHAkH"
            d="M96.2852 84.8181C94.8652 84.8181 93.3853 85.1281 92.7653 85.0381C92.1453 84.9581 91.8953 84.6981 91.3553 84.5381C90.4054 84.2481 88.8254 84.3781 87.7554 84.4081C86.5255 87.678 85.6955 87.048 82.5356 86.748C82.6655 87.248 82.7655 88.568 82.9255 88.898C83.2255 89.488 83.7455 89.558 84.1455 90.3579C84.6055 91.2679 84.4855 91.4079 84.5755 92.4579C84.6855 93.5579 84.8355 93.8579 84.8355 95.1578C84.8355 96.9378 83.9355 97.6678 83.4655 99.2277C83.2455 99.9277 83.0555 100.628 82.8455 101.328C82.6055 102.098 82.3056 102.688 82.0756 103.338C82.3656 103.498 82.5156 103.768 82.8555 103.998C87.2654 106.998 86.3755 104.438 88.6554 105.238C89.8154 105.648 89.9054 105.698 91.2953 105.378C92.0853 105.188 92.9853 104.848 93.7853 105.158C94.3953 105.398 95.2552 106.048 95.9652 106.128C96.5252 106.178 97.9052 105.808 98.0452 107.008C98.1652 108.048 98.3852 108.587 99.3951 108.747C99.5751 108.527 99.5451 108.378 99.6551 108.168C99.7551 107.978 99.7251 108.038 99.8751 107.968L100.135 107.868C100.155 107.858 100.185 107.848 100.205 107.838C100.035 107.218 99.7951 106.618 100.455 106.328C101.245 105.978 101.275 106.058 101.615 105.238C101.925 104.508 101.605 104.298 101.225 103.838C100.905 103.448 100.625 102.988 100.415 102.418C100.225 101.858 100.105 101.328 99.9051 100.808C99.6351 100.128 99.4151 99.8177 99.6351 98.9877C100.235 96.7278 98.3352 96.3678 100.495 94.1879C101.055 93.6279 102.015 92.0079 101.945 91.3079C101.875 90.7079 101.235 90.4179 100.865 90.148C99.5451 89.168 100.175 88.388 100.065 86.758C100.025 86.0781 99.3851 85.5281 98.9951 85.1081C98.5952 84.6781 99.0751 85.0281 98.1652 84.2381C97.4952 84.6881 97.4852 84.8181 96.2852 84.8181Z"
            fill="#9DD3AF" />
        <path fill-rule="evenodd" clip-rule="evenodd" class="state-map-path" id="rivers_state_DHhhVY119"
            d="M4.07752 70.2984C4.8875 70.1485 5.0175 69.7885 5.98747 70.1585C7.16744 70.6184 8.11742 71.0284 8.9274 71.9084C9.77738 72.8284 11.3973 74.0984 11.7573 74.7783C11.9473 75.1483 11.9473 75.2083 12.3073 75.4383C12.9073 75.8183 13.0873 76.1683 13.9273 75.8283C14.6373 75.5483 14.3973 74.8283 14.3773 74.1484C14.8273 73.8684 14.9273 74.1384 14.8173 73.3984C14.5473 73.2684 14.2973 73.2184 14.0373 73.1184C13.7173 72.9984 13.5473 72.8584 13.2873 72.7484V72.1584C12.5373 72.0684 11.9573 71.8984 11.4573 71.5484C11.2973 69.6085 11.8373 68.8685 13.6873 67.8785C14.2373 67.5785 14.5273 67.4685 14.9973 67.1085C15.6872 66.5785 16.2572 65.7686 16.6172 64.6786C16.9372 63.6886 16.4472 64.2286 17.1672 63.2786C18.0472 62.1187 17.0672 58.8887 17.1372 57.0888C17.2472 54.2988 17.7272 53.5889 17.3172 51.1189C17.2272 50.5689 17.2572 50.6489 16.7472 50.3989C16.1572 50.1089 15.5672 49.699 14.9973 49.449C14.5873 49.269 14.2273 49.289 13.8673 49.479C13.2473 49.789 13.3773 49.619 12.7073 49.749C12.0573 49.869 12.2273 50.7189 11.2573 50.9589C10.8474 51.0489 10.5274 50.9989 10.1574 51.1789C9.79738 51.3489 9.70738 51.4389 9.27739 51.5989C8.66741 51.8389 8.49741 52.2389 8.04742 53.0489C7.00745 54.9388 6.31747 57.0988 5.52749 58.3887C4.68751 59.7787 4.19752 61.5387 3.88753 62.0387C3.51753 62.6486 3.25754 63.0886 2.92755 63.7286C2.56756 64.4186 1.0276 66.4385 1.60758 67.4185C1.81758 67.7685 2.83755 68.4985 3.01755 68.6885C3.53753 69.1985 3.88753 69.4785 4.07752 70.2984Z"
            fill="#9DD3AF" />
        <path fill-rule="evenodd" clip-rule="evenodd" class="state-map-path" id="rivers_state_TA2zq3QT1"
            d="M21.7171 48.299C19.7672 50.7489 20.5371 51.0389 17.7572 50.9389C18.0272 53.1889 17.7872 54.0289 17.6472 56.3388C17.5172 58.6087 18.4472 61.8687 17.7072 63.2686C17.2072 64.2186 17.4872 63.1186 17.1172 64.6486C16.2873 68.0585 13.2673 68.0085 12.1674 69.6285C11.8674 70.0785 11.8774 70.6985 11.8974 71.3184C12.7373 71.6784 13.4873 71.9784 14.1673 71.2684C15.1373 70.2585 15.1273 68.0885 17.2072 68.1085C18.1472 68.1185 18.8072 68.7985 19.1472 69.3785C19.5072 70.0085 19.8172 70.7784 20.1572 71.4484C20.3671 71.8684 21.3571 72.6984 21.7071 73.0884C22.2571 73.7084 22.5971 74.1284 23.3271 74.5784C23.6171 74.7583 24.1271 75.0083 24.507 74.8483C24.727 74.7583 25.267 74.2684 25.387 74.0684C25.037 73.4484 23.8771 73.1284 24.447 72.2684C24.977 71.4784 25.167 71.1184 25.147 69.9485C25.117 68.4285 24.537 68.3585 24.2971 67.7785C23.9771 66.9985 25.367 66.4586 25.917 63.4886C26.087 62.5587 25.957 61.6587 26.187 60.7187C26.457 59.6387 26.657 59.5187 26.667 58.1888C26.677 57.1888 26.637 56.2188 26.497 55.2388L27.117 55.1888C27.317 52.6789 27.277 53.9889 28.097 51.9389C28.6669 50.5289 28.357 49.719 28.287 48.199C26.747 48.809 26.387 48.349 24.907 48.589C22.3571 48.999 23.2371 48.559 21.7171 48.299Z"
            fill="#91D8F7" />
        <path fill-rule="evenodd" clip-rule="evenodd" class="state-map-path" id="rivers_state_ZJYRqP3wT"
            d="M53.3663 76.4183C52.2363 77.5683 51.0763 75.9683 49.6064 75.9183C48.6264 75.8783 48.2764 75.8283 47.3564 75.5983C46.7265 75.4483 45.5665 75.3183 44.9965 75.5783C44.8465 75.8683 45.1765 75.8783 45.0665 76.3983C44.9965 76.7083 44.7765 76.8383 44.6465 77.0883C44.5965 77.5383 45.2865 77.4083 45.4165 79.1882C45.5165 80.4882 46.2465 79.6782 46.9764 80.5882C47.8464 81.6782 46.4065 81.6782 47.2964 82.6382C48.1864 83.6081 47.5564 83.9181 46.9365 84.3981C46.8965 85.1181 47.2364 85.0481 47.9164 85.0181C48.5664 84.2981 48.6864 84.5181 49.5264 84.8881C50.3364 85.2481 50.6564 85.1181 51.6463 85.0881C51.7763 83.6981 51.7863 83.4481 52.3163 82.4382C53.1663 82.4382 53.6263 82.7182 54.4463 82.5982C55.1262 82.5082 55.7762 82.3682 56.4562 82.3182C58.4762 82.1582 58.7662 82.7082 60.2561 83.0582C60.4661 81.4482 61.9061 80.6182 63.806 80.6182C64.896 80.6182 66.076 80.9782 66.516 80.1082C66.486 79.6882 66.166 79.5382 65.916 79.2882C63.906 77.2683 65.026 77.6783 64.426 76.2983L62.6561 76.4583C62.1861 75.8183 62.1761 75.4583 61.4261 75.1483C60.6561 74.8284 60.3061 74.9284 59.5761 74.4584C58.8862 74.0084 58.4362 74.1984 57.8462 73.6584C57.4562 73.3084 57.0162 72.8184 56.4262 72.5684C55.6162 72.2184 55.9062 72.5984 54.6863 72.9884C53.9563 73.2284 50.9664 73.7884 52.2563 74.9184C52.6163 75.2383 53.3163 75.7783 53.3663 76.4183Z"
            fill="#91D8F7" />
        <path fill-rule="evenodd" clip-rule="evenodd" class="state-map-path" id="rivers_state_Y2V69se2b"
            d="M87.4655 83.9881C88.4254 83.9481 89.3654 83.8781 90.3354 83.9381C91.6154 84.0181 91.6754 84.3181 92.5753 84.5481C93.3453 84.7481 94.3353 84.4481 95.1353 84.3881C96.1252 84.3081 97.1052 84.5981 97.7052 83.9781C97.5652 83.6881 97.2852 83.5681 97.0652 83.2381C96.8352 82.8981 96.8052 82.5981 96.6252 82.3181C96.4452 82.0481 96.1052 81.9282 95.8452 81.7082C95.4153 81.3482 95.5953 81.0582 95.2253 80.8682C94.5653 80.5182 93.5053 80.9582 92.8253 80.4482C92.2753 80.0282 91.9253 79.3582 91.3754 79.0482C90.1254 78.3482 88.4354 79.5382 86.4855 79.0582C85.6555 78.8582 85.1055 78.3882 84.4955 78.2582C84.0655 78.1582 83.6156 78.2682 83.1656 78.1782C82.7656 78.0882 82.4656 77.8583 82.1256 77.7183C81.7956 77.5783 81.2156 77.9382 79.8656 77.9982C76.5357 78.1582 76.8357 78.8682 75.5758 79.4082C74.9658 79.6682 71.7758 79.8782 70.6359 79.0182C70.3659 78.8182 70.1759 78.5582 69.9659 78.3182C68.7159 76.8783 66.006 77.8383 66.156 74.9683C64.856 75.2583 64.636 76.9983 65.376 78.0382C65.746 78.5582 66.116 78.7982 66.526 79.2182C66.716 79.4182 66.926 79.8082 67.056 79.8982C67.6059 80.2582 68.9659 80.6782 69.6059 80.9282C70.2459 81.1782 70.7159 81.1182 71.4459 81.4482C72.0758 81.7282 72.5158 81.8582 73.2858 81.9781C74.4858 82.1581 74.2458 82.2181 74.9758 82.7281C75.5058 83.0981 76.0357 83.1681 76.5757 83.4781C78.6257 84.6381 78.2257 84.2381 79.7556 85.0081C80.8756 85.5681 81.7656 85.7781 82.0856 85.9181C82.5956 86.158 82.0756 86.188 82.6256 86.328C83.0356 86.428 84.7955 86.598 85.3155 86.538C86.8855 86.348 86.6255 85.4481 87.4655 83.9881Z"
            fill="#F6AFCE" />
        <path fill-rule="evenodd" clip-rule="evenodd" class="state-map-path" id="rivers_state_GGHJbjX75"
            d="M82.6156 116.727C83.2555 116.767 83.5255 117.107 84.3655 117.207C85.0755 117.287 85.8055 117.277 86.5255 117.327C89.4854 117.507 89.2654 118.017 90.2554 118.187C91.2253 117.207 91.7453 117.827 94.1153 117.117C94.7353 116.937 97.9352 116.427 98.1852 116.177C98.3052 115.757 97.6352 114.267 97.3952 113.927C97.0152 113.367 96.8452 113.727 96.2652 113.487C96.0652 113.397 95.9952 113.237 95.8652 113.117C95.6752 112.957 95.5352 112.937 95.3252 112.807C95.3152 112.437 95.2752 112.277 95.3952 111.947C95.5252 111.567 95.5552 111.547 95.4752 111.057C93.5153 111.137 91.3853 111.507 91.2853 109.347C91.2053 107.528 90.7553 108.398 90.6754 105.928C89.1054 106.118 89.5954 105.948 88.3554 105.608C87.4154 105.348 86.7954 105.968 85.9155 105.958C84.8055 105.948 82.4356 104.168 82.0656 104.058C81.1156 104.998 80.1256 104.968 80.7356 107.018C80.8856 107.528 80.9856 108.568 81.5056 108.458C81.8256 108.398 81.8656 108.138 82.4056 108.218C83.8055 108.428 83.3255 111.887 83.1755 112.807C83.0555 113.537 82.8455 113.987 82.6755 114.607C82.4356 115.487 82.5856 115.887 82.6156 116.727Z"
            fill="#E79998" />
        <path fill-rule="evenodd" clip-rule="evenodd" class="state-map-path" id="rivers_state_FZgTtN2sP"
            d="M59.6562 85.8881C60.0562 85.8181 60.1062 85.8181 60.4962 85.9281L60.2362 88.848C60.3862 89.178 61.4261 91.2079 60.4662 91.4879L59.3762 91.6279C56.3163 91.9779 57.7562 92.9479 55.7363 92.8779C55.4663 92.3579 55.1563 91.7079 54.7463 91.3779C53.9563 90.7379 53.7563 90.1879 53.4663 90.1379C53.4463 90.4079 53.4363 90.7779 53.3963 91.0379C53.3263 91.4579 53.2463 91.3479 52.9963 91.6179C53.2363 91.9279 55.4463 93.8379 56.4663 95.0478C57.3562 96.1078 58.1962 98.6077 59.2162 99.2477C59.9162 99.6777 60.7861 99.9677 61.5161 100.428C62.2761 100.898 62.7261 101.498 63.4761 102.018C65.546 103.468 66.446 103.028 68.9859 102.498L68.156 101.198C67.836 100.748 67.756 100.328 67.476 99.8277C67.216 99.3777 66.766 99.0077 66.646 98.5877C66.416 97.7578 67.266 96.2178 67.466 95.5178C67.626 94.9478 67.416 94.2478 67.916 93.9279C68.156 93.7679 69.1159 93.9079 69.7359 93.6179C70.0259 93.4879 70.1959 93.4079 70.3459 93.1979C70.7159 92.6579 70.3759 93.0179 70.8859 92.6479L70.4359 92.3779L70.5159 91.7279C69.4759 91.5079 69.7459 91.5079 69.1259 91.0279C68.8259 91.1679 68.8459 91.2579 68.596 91.4579C68.406 91.6179 68.176 91.7079 67.876 91.7879C65.836 92.2779 65.246 91.8879 63.6661 90.2379C63.2361 89.788 63.2261 89.468 62.8961 89.038C62.7061 88.788 62.5361 88.808 62.3861 88.518C62.1161 88.018 62.1661 86.878 61.5861 86.338C60.7361 85.5381 61.1661 85.9081 60.5961 85.2681C60.2062 85.3981 59.6462 85.4381 59.6562 85.8881Z"
            fill="#D2D3D5" />
        <path fill-rule="evenodd" clip-rule="evenodd" class="state-map-path" id="rivers_state_eq9A0wzmX"
            d="M73.8958 68.8185C74.2858 68.4585 74.7058 67.4085 74.9258 66.8685C75.0958 66.4285 75.1558 66.5585 75.3758 66.2885C75.5358 66.0886 75.7758 63.1286 75.7858 62.6386C75.9158 57.0388 77.8857 58.1487 78.2557 55.0688C78.4357 53.5089 79.8657 52.3289 79.2857 50.2589C78.4557 47.309 76.6957 46.749 76.3257 47.529C76.1957 47.799 76.2457 47.969 76.0258 48.259C75.8758 48.459 75.5358 48.619 75.4758 48.739C75.2758 49.089 75.6058 50.4689 74.7058 51.9589C74.3858 52.4789 74.0258 52.5789 73.7958 53.1089C73.5858 53.6089 73.4658 54.0988 73.2458 54.5988C72.9858 55.1888 73.0158 55.5588 72.8558 56.1788C72.7158 56.7288 72.4958 57.0988 72.3758 57.7188C72.1758 58.8487 72.1958 60.1387 71.6659 61.0887C70.9159 62.4486 71.2459 60.8787 70.0759 63.5286C69.8959 63.9186 69.6559 64.6286 69.4459 64.9586C69.1859 65.3986 68.6159 65.2886 68.4459 66.0186C68.3159 66.5585 68.4159 67.4385 68.8259 67.6385C69.2859 67.8685 71.6759 67.9285 72.5658 68.1185C73.3158 68.2685 73.4258 68.4785 73.8958 68.8185Z"
            fill="#F6AFCE" />
        <path fill-rule="evenodd" clip-rule="evenodd" class="state-map-path" id="rivers_state_jky7utKBZ"
            d="M69.9759 82.4681C71.0259 83.2781 70.3259 83.1281 70.9659 83.5781C71.5159 83.9581 71.6558 84.1081 71.8158 84.8981C71.9658 85.6381 71.9158 86.958 71.6558 87.718C71.4659 88.288 70.9059 88.168 71.1559 89.518C71.2159 89.788 71.4159 90.118 71.5059 90.4679C71.9458 92.1479 71.5259 94.7678 75.3258 93.0379C76.2457 92.6179 76.2557 92.6379 77.4757 92.6479C78.0557 92.6479 78.1257 92.5279 78.6257 92.4679C79.0157 92.4079 79.4557 92.4079 79.8356 92.3479C80.6356 92.2379 81.1156 91.9479 81.8656 91.8379C83.0056 91.6679 82.9856 91.5579 83.8555 91.1979C83.8155 90.3679 83.1056 89.968 82.7156 89.508C82.0556 88.728 82.4256 87.788 82.0056 86.658C81.8256 86.1681 81.8956 86.358 80.5756 85.8381L78.5257 84.9181C77.5657 84.5981 77.2657 84.3981 76.5257 83.9581C75.8557 83.5581 75.0558 83.4381 74.5358 82.9781C73.7558 82.2681 73.4358 82.5181 72.3058 82.2282C71.4159 82.0082 70.9459 81.5682 70.0059 81.4982L69.9759 82.4681Z"
            fill="#D2E28B" />
        <path fill-rule="evenodd" clip-rule="evenodd" class="state-map-path" id="rivers_state_PKWKFVnrp"
            d="M70.6759 89.308C70.7259 88.328 70.7859 88.218 71.0059 87.438C71.2559 86.5381 71.3159 86.5981 71.2559 85.4881C71.1959 84.5181 71.1359 84.4181 70.5659 83.9681C70.0759 83.5881 70.3459 83.8081 70.1359 83.2681C69.8359 82.4682 69.4459 83.5381 69.5359 81.7182C69.5759 80.8982 68.926 81.4782 67.486 80.5682C66.896 80.1982 66.736 80.7382 66.166 81.0082C65.516 81.3082 64.9361 81.1282 64.2461 81.0682C61.9261 80.8782 60.5262 81.9782 60.6062 83.9781C60.6262 84.4981 60.7062 84.4481 60.9162 84.7781C61.6761 85.9781 61.2061 85.1881 61.8761 85.9781C62.1161 86.2581 62.2261 86.2581 62.3961 86.5781C62.6661 87.0881 62.7261 88.198 62.8261 88.348C62.9061 88.468 63.1561 88.608 63.3261 88.888C63.9161 89.828 63.7261 89.848 64.8661 90.708C65.296 91.038 65.466 91.4779 66.206 91.5379C67.616 91.6679 68.426 91.1879 69.2959 90.188C69.8459 89.568 70.0359 89.758 70.6759 89.308Z"
            fill="#9DD3AF" />
        <path fill-rule="evenodd" clip-rule="evenodd" class="state-map-path" id="rivers_state_dLRLEzHpF"
            d="M91.1653 105.908C91.0753 106.628 91.2453 107.328 91.5053 107.908C91.8753 108.707 91.6053 109.297 91.8453 109.947C92.2753 111.087 94.5952 110.597 95.9252 110.627C95.9652 110.927 95.9952 111.327 95.9752 111.627C95.8952 112.597 95.4152 112.107 96.1552 112.747C96.3152 112.887 96.3352 112.957 96.4552 113.107C97.4752 113.157 97.7452 113.457 98.0752 114.207C98.3051 114.707 98.6751 115.637 98.6851 116.227C100.195 116.127 101.605 116.067 103.125 116.217C105.755 116.467 104.285 116.477 106.305 115.257C105.895 110.687 103.355 111.817 102.415 110.947C102.255 110.797 102.175 110.707 102.005 110.567C101.805 110.407 101.705 110.397 101.525 110.187C100.975 109.537 101.695 109.757 100.705 108.617C100.505 108.387 100.515 108.357 100.105 108.367C99.8651 108.727 99.9751 108.897 99.5751 109.277C98.9451 109.177 98.3851 108.847 98.0652 108.507C97.5452 107.978 97.6752 107.488 97.5252 106.748C96.2652 106.208 96.4852 107.118 94.3152 105.918C93.8353 105.658 93.4553 105.388 92.7453 105.488C92.4353 105.538 91.3853 105.768 91.1653 105.908Z"
            fill="#91D8F7" />
        <path fill-rule="evenodd" clip-rule="evenodd" class="state-map-path" id="rivers_state_MI6ehaNxF"
            d="M75.0958 93.7079C75.6058 94.3479 76.7057 94.6979 75.9958 96.0178C75.7058 96.5378 75.4058 96.4878 75.2258 97.0578C75.0758 97.5478 75.0358 98.0878 74.9358 98.5978C75.1358 98.7078 75.0858 98.4778 75.2658 98.7578C75.5958 99.2678 74.9258 98.6478 75.7058 100.178C76.1358 101.018 76.2258 101.178 77.1357 101.608C78.8057 102.408 79.5857 102.488 81.5256 102.928C82.0956 101.778 82.3256 99.8077 83.5656 97.7278C84.9955 95.3379 84.1656 94.3179 84.0756 91.6579C83.5756 91.6179 83.6556 92.0479 82.0356 92.2579C81.2356 92.3579 80.6656 92.6879 79.7757 92.7979C79.3557 92.8479 78.8957 92.8379 78.4857 92.9279C76.7957 93.2979 76.1758 92.9679 75.0958 93.7079Z"
            fill="#C7A7A6" />
        <path fill-rule="evenodd" clip-rule="evenodd" class="state-map-path" id="rivers_state_oQcnZ29VN"
            d="M52.5564 82.8981C52.1764 83.5981 52.1764 84.6581 52.0064 85.5081C48.5665 85.6981 50.1364 85.2281 48.6165 85.1581C48.6365 85.4781 49.0364 86.608 49.1364 86.968C50.4864 86.918 50.5864 86.618 50.6464 88.618C52.0264 88.638 51.5964 87.928 52.6564 87.808C53.0063 88.358 53.0763 88.408 53.9963 88.478C54.1863 89.958 53.7063 89.778 54.7163 90.7379C54.9563 90.9579 55.2163 91.1779 55.4563 91.4579C55.6063 91.6279 55.8763 92.2179 55.9863 92.4579C56.8863 92.4179 56.8863 91.7979 57.7962 91.4879C58.6162 91.2079 59.5462 91.2779 60.2562 91.0579L60.3062 90.9279C60.4362 90.4079 60.2662 91.3779 60.3462 90.7779C60.3862 90.4579 60.2962 90.048 60.1862 89.758C60.0262 89.358 59.8062 89.088 59.6762 88.688C60.0262 88.148 60.0562 88.698 60.0362 87.678C60.0362 87.228 60.0662 86.758 60.0162 86.3081C59.7262 86.2981 59.5262 86.3281 59.2862 86.2481C58.8662 85.1381 59.5162 85.3281 60.1762 84.9081C60.1862 84.6481 60.1962 83.9581 60.1562 83.7281C60.0962 83.3881 60.2662 83.5481 59.3662 83.2181C57.4762 82.5481 57.0462 82.6281 54.9263 82.9681C53.6963 83.1581 53.4063 82.8381 52.5564 82.8981Z"
            fill="#D2E28B" />
        <path fill-rule="evenodd" clip-rule="evenodd" class="state-map-path" id="rivers_state_EQg5hTXSH"
            d="M36.2667 85.6781L35.9767 84.8481L35.2267 85.2381C35.2167 85.9381 35.8867 86.0681 35.5067 87.268C35.2167 88.138 35.3467 88.328 35.7867 89.078C36.0967 89.618 36.5367 90.028 36.6867 90.658C36.9767 91.8279 38.4267 91.8779 38.8966 92.2679C39.2466 92.5579 39.0566 92.7179 39.7466 92.7179C40.7866 92.7179 40.7166 92.2279 41.9066 92.6079C42.4966 92.7979 43.2065 93.1279 43.6665 93.3779C44.2965 93.7279 44.4565 94.2179 44.9965 94.6479C45.9265 95.3878 47.7464 94.0279 46.8764 92.5279L45.8165 91.0779C45.4165 90.548 46.2265 90.168 44.9565 89.728C43.4965 89.218 43.3365 90.068 42.1866 88.648C41.0866 87.298 41.0866 86.7281 42.5866 85.4881C42.8665 85.2581 43.0965 85.1381 43.2765 84.9081C42.7665 84.3381 40.8466 84.6781 39.9666 83.7781C37.7567 81.5582 38.1767 83.4381 38.0967 84.4081C38.0067 85.4881 37.4367 85.7381 36.2667 85.6781Z"
            fill="#91D8F7" />
        <path fill-rule="evenodd" clip-rule="evenodd" class="state-map-path" id="rivers_state_eUQjQtnFN"
            d="M71.1959 92.9879C71.0959 93.0579 70.9959 93.0779 70.8559 93.2579C70.5259 93.6779 70.7559 93.6079 70.1859 93.8879C69.9459 94.0079 69.6159 94.1779 69.3159 94.2379C69.0359 94.2879 68.3459 94.2279 68.1459 94.4079C67.8759 94.6879 68.0759 95.0279 67.9359 95.5378C67.7559 96.2178 66.776 97.9478 67.186 98.6678C67.5059 99.2078 67.7559 99.1378 68.2259 100.378L69.3059 102.098C70.4359 102.258 71.2059 100.948 71.7358 100.468C72.3958 99.8677 73.4558 99.4977 74.4258 99.0778C74.4558 98.5778 74.6658 97.1278 74.8858 96.6578C75.0558 96.2978 75.1658 96.3278 75.3858 96.1178C76.3157 95.1679 75.2658 94.4779 74.5658 93.8479C73.9458 94.0879 73.2558 94.1479 72.5958 93.8879C71.9358 93.6179 71.8258 93.3279 71.5258 92.7879C71.5658 91.9279 71.0959 90.558 70.8059 89.868C70.0559 89.938 69.8859 90.258 69.4759 90.598C70.0659 91.9379 71.1859 90.338 70.9359 92.1279L71.1959 92.9879Z"
            fill="#91D8F7" />
    </svg>