<svg viewBox="0 0 1988 1617" fill="none" xmlns="http://www.w3.org/2000/svg">
        <path fill-rule="evenodd" clip-rule="evenodd" class="state-map-path" id="sokoto_state_EqtrVwwl2"
            d="M2.0007 326V429C2.0007 436 1.0007 437 6.0007 439C16.0007 444 24.0007 445 34.0007 445C43.0007 445 50.0007 441 57.0007 436C62.0007 432 61.0007 433 70.0007 433C75.0007 433 163.001 470 167.001 481C171.001 493 169.001 495 180.001 500L206.001 506C266.001 508 303.001 539 335.001 547L353.001 554C358.001 556 365.001 555 369.001 554C377.001 550 389.001 509 406.001 503C410.001 502 416.001 502 421.001 502C431.001 502 425.001 504 433.001 507C436.001 497 432.001 497 432.001 489C431.001 482 435.001 473 435.001 465C435.001 450 436.001 389 442.001 378L449.001 362C454.001 348 457.001 331 463.001 317C466.001 310 471.001 308 472.001 296C473.001 278 472.001 245 472.001 225C472.001 216 475.001 215 477.001 207L487.001 171C489.001 164 492.001 159 493.001 154C498.001 136 499.001 117 508.001 99C510.001 95 515.001 90 515.001 83C507.001 84 503.001 84 495.001 87C492.001 88 489.001 88 486.001 89C481.001 90 484.001 91 477.001 92C383.001 108 260.001 114 189.001 181C184.001 186 181.001 189 177.001 192C133.001 229 78.0007 294 19.0007 295C5.0007 295 2.0007 292 1.0007 301C0.000703096 311 2.0007 317 2.0007 326Z"
            fill="#F6AFCE" />
        <path fill-rule="evenodd" clip-rule="evenodd" class="state-map-path" id="sokoto_state_hdu2H6Xf1"
            d="M527 1169C517 1168 517 1166 509 1166C497 1165 494 1165 486 1170C484 1171 482 1173 481 1174C470 1181 463 1194 454 1204L435 1219C425 1224 417 1228 406 1231C399 1232 402 1234 392 1234C383 1234 376 1236 369 1239C365 1241 369 1241 362 1243L348 1247C348 1247 345 1248 344 1248L343 1249C343 1249 343 1249 342 1249L338 1251C330 1253 335 1253 324 1255C313 1257 319 1271 319 1280C320 1288 321 1297 321 1306C323 1351 336 1373 310 1414C303 1425 308 1440 308 1453C308 1487 242 1518 216 1536C195 1551 203 1559 226 1580L259 1611C260 1612 260 1611 262 1612C276 1622 279 1614 290 1605C321 1580 302 1591 315 1577L333 1562C344 1553 451 1569 472 1543C475 1540 476 1540 481 1539C482 1538 544 1504 565 1516C571 1519 569 1522 572 1526C575 1525 576 1525 579 1523C584 1521 582 1520 585 1519C591 1518 597 1521 604 1518C603 1511 595 1518 595 1501C595 1482 597 1475 600 1457C613 1396 621 1252 615 1204C614 1197 615 1194 614 1188L611 1166V1162V1161L610 1159C610 1159 610 1158 609 1158L595 1169C592 1170 575 1170 571 1169C561 1166 574 1166 550 1166C548 1166 546 1166 544 1166C543 1166 542 1166 541 1166C538 1166 539 1166 538 1167C534 1168 533 1169 527 1169Z"
            fill="#F6AFCE" />
        <path fill-rule="evenodd" clip-rule="evenodd" class="state-map-path" id="sokoto_state_lPAZ31yvp"
            d="M521.001 82.9999C517.001 99.9999 514.001 95.9999 507.001 116C503.001 129 502.001 141 499.001 155C497.001 161 494.001 166 492.001 172C490.001 178 489.001 185 487.001 191C485.001 198 478.001 224 478.001 230C478.001 253 482.001 299 472.001 314C468.001 320 466.001 324 464.001 331C459.001 348 455.001 365 447.001 381C442.001 389 442.001 395 444.001 408C449.001 409 451.001 408 456.001 410C470.001 414 477.001 412 494.001 413C505.001 414 506.001 418 518.001 414C525.001 412 534.001 412 543.001 412C550.001 412 562.001 412 568.001 413C574.001 414 581.001 421 586.001 424C594.001 430 596.001 438 603.001 448C607.001 454 609.001 458 614.001 465L636.001 484C655.001 495 653.001 495 674.001 501C682.001 503 682.001 508 694.001 504C696.001 503 702.001 502 704.001 501C715.001 494 729.001 495 735.001 476C736.001 474 737.001 472 737.001 471L758.001 430C763.001 421 765.001 421 762.001 409C752.001 375 762.001 368 769.001 341C775.001 317 792.001 270 782.001 249C775.001 234 774.001 221 773.001 203C773.001 194 770.001 187 770.001 179C770.001 174 770.001 169 770.001 165C770.001 157 769.001 159 769.001 153C768.001 145 779.001 127 775.001 105C771.001 104 765.001 104 760.001 104C755.001 103 758.001 102 754.001 101C751.001 99.9999 747.001 99.9999 745.001 99.9999C719.001 101 724.001 94.9999 710.001 97.9999C599.001 120 560.001 77.9999 537.001 79.9999C531.001 79.9999 529.001 82.9999 521.001 82.9999Z"
            fill="#9DD3AF" />
        <path fill-rule="evenodd" clip-rule="evenodd" class="state-map-path" id="sokoto_state_LPbY6FuiO"
            d="M1421 803C1422 803 1422 803 1423 803C1423 802 1423 802 1424 802C1424 802 1424 802 1425 802C1434 793 1423 789 1417 762C1414 747 1408 740 1403 711C1398 682 1405 689 1412 659C1419 628 1412 629 1407 603C1405 594 1398 592 1391 587C1389 585 1385 583 1382 580C1377 577 1372 572 1365 572C1359 571 1359 570 1354 568L1343 562C1319 542 1307 541 1299 533C1273 511 1269 515 1238 515C1205 514 1184 534 1187 493C1188 489 1189 485 1190 479C1190 467 1187 464 1186 452C1186 445 1174 441 1167 440C1163 440 1128 446 1125 447L1113 453C1112 454 1110 455 1109 456L1086 472C1085 472 1084 473 1083 474C1082 474 1081 475 1080 475L1056 492C1040 503 1030 507 1013 517L986 528C981 530 974 534 968 535L929 545C927 545 927 546 923 547C921 547 919 547 917 548C917 576 936 564 957 563C964 562 963 560 969 559C975 559 977 561 982 562C998 567 998 586 1007 605C1008 609 1010 611 1011 616C1017 643 1024 641 1028 665C1029 668 1030 677 1031 679C1034 685 1043 691 1047 695C1051 699 1051 701 1054 705C1064 720 1063 716 1073 735C1075 739 1077 741 1079 745C1083 753 1087 755 1093 760C1098 765 1100 765 1107 767C1109 768 1110 769 1112 770C1123 773 1131 778 1139 785C1146 790 1160 800 1163 808V809C1166 801 1191 772 1200 762L1213 750C1215 748 1217 747 1220 744C1223 742 1221 744 1224 742L1227 740C1233 737 1242 738 1248 736C1259 732 1275 734 1283 742C1284 743 1286 744 1286 745C1289 748 1290 748 1294 750L1301 755C1302 755 1308 758 1309 759L1317 767C1324 773 1337 781 1346 783C1355 785 1348 785 1366 788C1381 790 1388 793 1393 796C1394 796 1395 797 1395 798C1397 799 1399 800 1401 801C1403 801 1404 801 1405 802C1406 802 1407 802 1407 803C1408 803 1409 802 1410 803C1411 803 1411 803 1412 804H1414C1415 803 1415 803 1416 803H1421Z"
            fill="#F6AFCE" />
        <path fill-rule="evenodd" clip-rule="evenodd" class="state-map-path" id="sokoto_state_GEhR6PSQx"
            d="M1222 992C1222 990 1161 832 1160 831L1157 830C1110 816 1038 875 1001 880C962.001 863 879.001 827 838.001 849C838.001 852 838.001 850 840.001 853C842.001 856 844.001 856 846.001 862C855.001 887 849.001 897 843.001 914C831.001 947 836.001 950 851.001 975C862.001 993 855.001 991 853.001 1007C850.001 1023 857.001 1030 857.001 1043C857.001 1060 861.001 1066 858.001 1082C856.001 1091 855.001 1116 856.001 1124C860.001 1126 868.001 1128 874.001 1128C892.001 1130 882.001 1131 891.001 1132C895.001 1132 899.001 1132 902.001 1133C983.001 1148 1139 1108 1170 1132C1177 1134 1189 1137 1192 1130C1195 1124 1197 1118 1199 1113C1222 1053 1215 1116 1222 992Z"
            fill="#91D8F7" />
        <path fill-rule="evenodd" clip-rule="evenodd" class="state-map-path" id="sokoto_state_jGY40FCnC"
            d="M1625 400C1629 400 1635 400 1638 402C1638 402 1638 402 1639 402C1667 417 1662 419 1703 417L1764 416C1774 416 1776 413 1785 413C1793 412 1801 413 1809 413C1820 412 1822 409 1831 409C1843 408 1842 409 1848 402C1855 394 1858 398 1865 394C1866 394 1866 393 1866 393L1872 390C1881 384 1888 377 1895 375C1895 368 1886 362 1881 357L1865 342C1862 339 1859 336 1857 334C1855 333 1854 332 1852 330L1831 311C1825 305 1820 301 1815 296L1727 216C1710 200 1715 210 1706 204C1704 203 1705 204 1704 203C1697 199 1688 192 1681 190L1636 169C1620 163 1616 160 1596 160C1584 160 1570 159 1558 162L1545 166C1538 168 1527 173 1520 173C1510 174 1513 178 1500 172C1491 168 1482 162 1473 157L1465 153C1461 151 1464 152 1461 151L1448 145C1444 144 1446 145 1443 143C1439 141 1438 140 1433 140C1420 139 1395 160 1390 170C1384 181 1387 181 1376 191C1356 211 1325 205 1345 248C1349 257 1355 263 1360 270C1362 273 1363 274 1365 277C1368 280 1368 282 1370 285C1372 289 1374 289 1376 292L1387 306C1392 314 1396 322 1400 331C1401 334 1402 337 1404 339C1406 344 1406 343 1409 346L1423 357C1426 359 1428 360 1430 362C1431 362 1431 362 1431 363C1438 368 1442 377 1451 379C1456 381 1460 380 1465 383C1468 384 1467 383 1470 384C1521 403 1572 402 1625 400Z"
            fill="#F6AFCE" />
        <path fill-rule="evenodd" clip-rule="evenodd" class="state-map-path" id="sokoto_state_Fu9L877uh"
            d="M1414 610C1417 610 1419 606 1423 604L1433 600C1438 599 1452 593 1456 591L1478 578C1480 577 1478 578 1480 577C1487 573 1509 564 1516 569L1517 570C1526 576 1538 573 1546 578C1554 583 1561 590 1569 594C1572 596 1582 602 1585 599C1589 596 1588 587 1589 582C1606 473 1613 502 1706 533L1720 537C1722 539 1721 538 1723 539C1724 539 1725 539 1726 540L1744 550C1827 589 1874 570 1945 541C1948 540 1951 539 1954 538L1965 530C1970 527 1972 526 1975 522C1988 505 1995 517 1977 494L1966 477C1960 466 1953 454 1946 443C1941 437 1938 433 1935 427C1931 421 1929 415 1925 410L1920 402C1915 395 1910 383 1903 378C1892 380 1882 392 1869 399C1864 402 1860 401 1855 404C1850 407 1851 411 1846 413C1821 421 1677 432 1655 419C1645 414 1636 405 1625 407C1602 411 1468 403 1442 383L1433 374C1427 366 1425 367 1418 362C1417 360 1418 361 1416 360L1412 356H1411C1408 354 1405 350 1401 348C1398 364 1385 370 1381 385C1381 386 1381 387 1380 388C1379 392 1375 394 1374 398C1372 402 1373 404 1371 407C1368 412 1365 419 1361 424C1357 430 1350 441 1349 450C1347 461 1354 469 1360 476C1361 476 1361 477 1362 477L1378 498C1383 505 1382 507 1389 512L1399 519C1406 525 1413 527 1418 534C1426 546 1429 547 1422 560C1418 569 1415 581 1413 589C1411 598 1413 601 1414 610Z"
            fill="#9DD3AF" />
        <path fill-rule="evenodd" clip-rule="evenodd" class="state-map-path" id="sokoto_state_XhrNhwkFM"
            d="M306.001 1117C306.001 1117 306.001 1118 305.001 1118C305.001 1118 305.001 1118 305.001 1119C303.001 1122 305.001 1119 303.001 1121C301.001 1124 299.001 1124 297.001 1128C291.001 1142 292.001 1155 297.001 1170C303.001 1190 304.001 1211 312.001 1230C316.001 1237 316.001 1242 317.001 1251C323.001 1253 337.001 1247 343.001 1244C347.001 1243 350.001 1243 352.001 1242C356.001 1240 353.001 1240 360.001 1238C371.001 1235 375.001 1230 388.001 1230C393.001 1230 394.001 1230 398.001 1228L432.001 1215C435.001 1213 436.001 1213 439.001 1211C446.001 1206 467.001 1182 474.001 1174C478.001 1170 482.001 1167 487.001 1164C493.001 1161 502.001 1161 509.001 1162C517.001 1162 523.001 1164 531.001 1163C539.001 1161 556.001 1159 565.001 1161C569.001 1162 567.001 1163 573.001 1165C580.001 1167 586.001 1166 594.001 1165L600.001 1160C601.001 1159 604.001 1155 606.001 1154C616.001 1147 612.001 1147 615.001 1137C615.001 1137 615.001 1137 616.001 1136L633.001 1115C634.001 1114 634.001 1113 635.001 1112C660.001 1111 656.001 1118 669.001 1120C676.001 1122 684.001 1123 690.001 1126C700.001 1130 712.001 1129 722.001 1129C737.001 1129 749.001 1128 763.001 1126C774.001 1124 766.001 1123 771.001 1107C777.001 1086 779.001 1084 765.001 1069C757.001 1060 753.001 1057 742.001 1056C735.001 1055 736.001 1052 729.001 1052C728.001 1042 723.001 1033 717.001 1027L682.001 993C681.001 992 681.001 992 680.001 991C678.001 991 678.001 991 677.001 990C668.001 984 659.001 980 645.001 982C637.001 984 637.001 994 634.001 1002C630.001 1013 628.001 1013 631.001 1028C632.001 1040 631.001 1044 625.001 1051C619.001 1054 603.001 1050 595.001 1045C593.001 1044 593.001 1044 591.001 1043C552.001 1020 579.001 1015 579.001 991C578.001 943 577.001 966 562.001 933C553.001 913 555.001 915 557.001 893C559.001 878 569.001 866 558.001 852C553.001 845 550.001 837 543.001 831L526.001 818C524.001 817 523.001 816 522.001 815L511.001 808C507.001 805 510.001 806 506.001 805C499.001 810 498.001 810 493.001 819C485.001 834 481.001 841 486.001 863C490.001 881 486.001 883 501.001 901C504.001 905 504.001 905 508.001 908L516.001 913C519.001 914 517.001 914 519.001 915L542.001 934C548.001 940 555.001 944 555.001 954C555.001 967 547.001 981 540.001 991L516.001 1014C508.001 1019 514.001 1016 503.001 1021C483.001 1029 488.001 1072 490.001 1074L491.001 1080C486.001 1103 483.001 1096 474.001 1106C470.001 1109 466.001 1109 465.001 1111H464.001L461.001 1109C458.001 1108 458.001 1109 455.001 1109C449.001 1107 444.001 1103 442.001 1097C438.001 1082 438.001 1065 435.001 1051C434.001 1046 433.001 1043 432.001 1040C425.001 1039 427.001 1038 423.001 1035L409.001 1026C401.001 1019 404.001 1019 392.001 1016C388.001 1014 372.001 1013 369.001 1017C357.001 1031 363.001 1068 358.001 1077L357.001 1078C341.001 1106 317.001 1100 306.001 1117Z"
            fill="#9DD3AF" />
        <path fill-rule="evenodd" clip-rule="evenodd" class="state-map-path" id="sokoto_state_GzdeLXYDW"
            d="M1194 396C1206 396 1217 396 1228 401C1244 408 1264 413 1259 437C1255 453 1227 470 1210 464C1193 459 1201 459 1192 455C1191 460 1193 461 1194 466C1197 476 1190 505 1194 510C1201 515 1198 512 1206 511C1211 510 1219 510 1225 509C1233 509 1233 508 1241 509C1245 509 1245 508 1248 507C1256 505 1266 508 1274 510C1290 515 1298 528 1310 534C1319 537 1328 541 1335 547C1339 550 1341 552 1346 555C1357 564 1367 563 1373 566C1376 569 1375 569 1378 570L1402 587C1406 589 1404 586 1406 590C1411 583 1411 577 1413 569C1414 563 1419 554 1421 549C1417 543 1412 535 1407 532L1392 522C1390 521 1390 520 1388 519C1383 516 1383 516 1379 511C1366 489 1361 488 1351 475C1347 470 1347 470 1346 464C1339 442 1351 433 1360 416C1362 412 1363 409 1365 405C1368 400 1367 396 1370 393C1371 390 1374 387 1376 384C1380 375 1383 368 1389 361L1391 358C1394 354 1398 346 1398 341C1398 339 1396 336 1396 335C1388 319 1386 313 1374 300C1359 283 1368 288 1352 269C1351 269 1350 268 1350 267L1344 258C1334 243 1338 238 1333 226H1301C1283 227 1297 221 1272 218C1263 217 1267 214 1253 214C1251 219 1252 223 1249 228C1247 233 1245 232 1243 239C1241 244 1241 247 1239 252C1238 252 1238 253 1238 253C1235 260 1231 269 1229 278C1227 288 1220 304 1215 309C1211 312 1196 315 1189 309C1189 309 1189 308 1188 308C1179 299 1178 296 1174 280C1172 272 1167 259 1167 252C1165 242 1168 226 1165 218C1153 214 1139 210 1126 212C1125 212 1121 213 1120 214C1114 216 1118 215 1115 217C1109 220 1102 221 1096 223C1096 223 1096 223 1095 224C1081 230 1089 227 1085 251C1082 271 1081 287 1070 300L1042 337C1038 342 1038 339 1034 343L1028 354C1023 370 1032 370 1039 380C1048 393 1042 384 1053 390V391L1058 394C1060 395 1059 395 1062 397C1069 402 1095 403 1103 404C1114 404 1125 404 1134 402C1143 400 1155 400 1164 399C1175 398 1181 396 1194 396Z"
            fill="#D2E28B" />
        <path fill-rule="evenodd" clip-rule="evenodd" class="state-map-path" id="sokoto_state_PLXWDIgYv"
            d="M687 795C687 815 692 815 699 822C706 828 703 831 710 840C717 849 710 861 707 864C705 866 697 869 693 870C688 872 681 873 675 872C668 871 675 868 657 868C653 868 643 868 639 869C636 870 631 874 628 876C609 891 611 896 601 903L588 911C585 913 580 916 576 917L564 923C563 923 563 923 563 923C564 928 569 935 571 940C578 955 582 950 582 977C582 986 585 993 582 1001C581 1006 575 1014 575 1019C574 1028 581 1030 585 1033C589 1036 596 1042 600 1043C608 1046 614 1047 622 1046C634 1031 620 1023 628 1006C633 993 630 982 646 976C653 974 652 974 659 977C664 979 666 978 671 980C682 986 698 999 707 1008C715 1017 730 1034 732 1046C759 1055 754 1049 765 1062C767 1065 769 1067 772 1070C779 1078 782 1085 778 1097C775 1107 772 1111 775 1124L850 1125C852 1113 850 1101 851 1090C852 1076 855 1080 853 1056C850 1030 854 1050 848 1024C841 997 858 997 847 979L839 965C837 961 836 961 834 955C819 920 864 895 834 854C831 849 828 848 823 846C821 845 811 843 800 837L773 810C773 810 772 810 772 809C763 802 734 782 723 779C718 777 715 776 711 773H710C710 772 710 772 709 772C699 765 695 768 690 779C686 786 687 787 687 795Z"
            fill="#F6AFCE" />
        <path fill-rule="evenodd" clip-rule="evenodd" class="state-map-path" id="sokoto_state_jcmTbAZj9"
            d="M1213 302C1217 295 1221 289 1223 280C1226 270 1227 264 1231 255C1235 248 1237 236 1240 230C1242 226 1245 225 1246 219C1248 214 1247 210 1252 207C1255 206 1288 214 1291 216C1300 224 1310 220 1320 218C1325 218 1328 218 1333 218C1336 212 1339 208 1344 204C1346 203 1346 203 1347 202C1348 201 1348 201 1348 201L1350 200C1360 192 1372 189 1380 178C1384 173 1384 167 1387 163L1402 147L1403 146C1405 144 1408 143 1410 142C1415 139 1420 137 1421 134C1417 132 1413 134 1408 132C1401 131 1404 129 1396 128C1388 128 1378 122 1372 121C1360 118 1356 115 1349 113C1347 112 1345 112 1343 112C1341 111 1340 110 1337 109C1330 106 1320 106 1313 102C1307 100 1292 96 1288 95C1286 94 1286 93 1283 92C1281 92 1279 92 1276 91C1264 87 1252 82 1240 80C1237 79 1238 78 1235 77L1217 72C1205 70 1187 59 1175 53C1171 51 1172 52 1168 51C1164 50 1166 49 1163 48L1135 38C1132 36 1134 37 1129 35L1071 12C1070 12 1070 12 1070 12L1060 6C1056 4 1057 3 1051 2C1052 14 1055 19 1054 33C1052 64 1040 70 1037 84L1035 132C1036 137 1037 141 1038 146C1041 156 1047 160 1050 168C1053 178 1055 194 1062 205C1066 210 1067 207 1071 213C1082 227 1086 220 1105 213C1122 207 1123 202 1147 205C1153 206 1154 208 1160 209C1180 212 1168 240 1174 261L1181 288C1183 294 1182 294 1187 299C1198 309 1198 305 1213 302Z"
            fill="#9DD3AF" />
        <path fill-rule="evenodd" clip-rule="evenodd" class="state-map-path" id="sokoto_state_fbRTEMErJ"
            d="M782.002 104C782.002 114 780.002 132 776.002 142C771.002 158 778.002 190 779.002 201C780.002 215 778.002 224 784.002 240C786.002 247 789.002 248 795.002 250L810.002 258C819.002 263 815.002 262 828.002 262C834.002 262 846.002 262 850.002 261C865.002 257 877.002 242 884.002 229C891.002 217 903.002 200 914.002 194C917.002 193 919.002 193 922.002 191C931.002 186 941.002 189 948.002 196C951.002 199 955.002 204 958.002 208C966.002 219 956.002 234 953.002 242C948.002 255 947.002 265 958.002 273C971.002 284 980.002 278 991.002 274C994.002 272 994.002 272 998.002 270C1010 265 999.002 266 1018 256C1033 248 1037 244 1045 239L1066 228C1069 226 1070 225 1073 224C1067 220 1070 221 1065 216C1061 211 1062 215 1056 206C1049 192 1048 178 1043 168C1043 167 1043 167 1043 167C1040 162 1038 161 1035 155C1032 148 1028 131 1029 124C1033 83 1024 97 1041 63C1050 43 1050 26 1045 1.99999C1026 -1.00001 1021 -1.3113e-05 1004 2.99999C998.002 3.99999 1000 4.99999 995.002 5.99999C992.002 6.99999 988.002 6.99999 985.002 7.99999C979.002 9.99999 972.002 9.99999 966.002 13C963.002 14 961.002 14 957.002 15C952.002 17 955.002 17 949.002 19C943.002 20 937.002 22 932.002 25C909.002 38 927.002 21 902.002 42C895.002 47 889.002 58 882.002 67L877.002 74C869.002 84 873.002 82 863.002 89C863.002 89 863.002 89 863.002 90C862.002 90 862.002 90 862.002 90L860.002 91C854.002 95 832.002 103 826.002 104C814.002 105 793.002 106 782.002 104Z"
            fill="#F6AFCE" />
        <path fill-rule="evenodd" clip-rule="evenodd" class="state-map-path" id="sokoto_state_SAq2OzrWn"
            d="M830 632L821 633L818 641C816 644 814 646 812 648C808 652 803 654 797 659C800 663 802 663 809 664C824 667 824 674 828 678L841 694C841 694 843 696 843 697C849 704 848 707 856 716C859 719 857 716 860 721C864 729 866 747 866 758C865 775 865 798 875 814C886 831 880 821 887 836C890 836 894 836 897 837C900 837 901 839 906 839C918 841 933 846 942 848L946 849L948 850C958 855 966 857 973 861C981 865 1000 874 1007 871C1009 870 1012 869 1015 867L1029 860C1039 855 1036 860 1054 849L1093 832C1095 831 1098 831 1101 830C1117 822 1120 822 1139 822C1147 822 1155 824 1161 823C1162 816 1159 812 1156 808C1146 797 1125 780 1111 776L1103 772C1094 768 1102 777 1089 764L1082 760C1082 759 1081 759 1081 759C1080 758 1080 758 1079 757C1076 753 1064 729 1062 725L1052 712C1038 692 1041 702 1031 689C1019 675 1028 662 1013 641C1011 638 1010 637 1010 633C1008 626 1009 630 1007 625C1004 625 997 626 994 627C991 627 988 629 983 627C977 625 966 623 959 626C948 631 945 627 935 630C927 633 918 633 910 634C899 634 897 629 890 626L870 617C861 614 853 617 846 621C839 625 832 623 830 632Z"
            fill="#9DD3AF" />
        <path fill-rule="evenodd" clip-rule="evenodd" class="state-map-path" id="sokoto_state_S4O3vpX82"
            d="M790.001 255C794.001 278 782.001 319 776.001 339C774.001 345 773.001 351 770.001 358C759.001 385 761.001 385 769.001 416C775.001 416 780.001 414 784.001 411L788.001 408C791.001 406 791.001 406 792.001 405L813.001 391C823.001 384 835.001 387 849.001 387C872.001 387 870.001 408 886.001 421C889.001 424 891.001 424 894.001 426C915.001 439 910.001 440 921.001 429L928.001 420C928.001 420 928.001 420 928.001 419L957.001 394C982.001 377 981.001 387 1002 383C1007 381 1013 375 1018 370C1024 364 1020 351 1030 338C1034 333 1034 337 1038 332C1040 329 1041 326 1044 323C1053 311 1050 312 1059 303C1073 290 1076 277 1079 258C1087 217 1073 231 1063 238C1054 243 1052 241 1040 251C1022 263 1019 259 1009 270C1004 276 990.001 281 981.001 285C968.001 292 941.001 277 944.001 253C945.001 246 948.001 237 951.001 231C954.001 222 958.001 217 951.001 209C937.001 194 938.001 191 915.001 201C906.001 206 893.001 225 889.001 233C886.001 239 882.001 246 877.001 251L858.001 266C853.001 268 815.001 269 809.001 266C807.001 264 806.001 262 801.001 260L790.001 255Z"
            fill="#91D8F7" />
        <path fill-rule="evenodd" clip-rule="evenodd" class="state-map-path" id="sokoto_state_PxLUFc4fG"
            d="M422 560C414 582 421 593 398 613C375 632 383 635 392 647C412 675 445 710 479 721C555 692 585 742 622 662C623 659 622 658 620 656C619 653 618 651 617 647C613 631 623 630 623 608C624 596 625 593 616 584C614 582 613 580 611 578C608 575 601 572 597 569C591 565 590 562 590 553C588 554 585 555 582 556C570 561 560 560 544 560C539 560 522 555 522 555C519 554 511 540 498 540L470 539C463 540 435 553 429 557C427 559 427 560 422 560Z"
            fill="#9DD3AF" />
        <path fill-rule="evenodd" clip-rule="evenodd" class="state-map-path" id="sokoto_state_hK1PWNyVi"
            d="M489 728C491 731 496 731 500 743C503 752 501 753 507 761C523 786 512 788 512 801C525 813 543 819 558 842C560 845 561 848 564 851C569 858 569 857 569 867C569 876 558 898 561 916C567 916 598 899 603 893C607 888 610 883 615 878C619 875 622 873 626 870C639 860 654 857 670 863C675 865 681 864 687 864C692 863 697 862 701 859C705 857 708 851 707 848C707 845 703 841 701 836C692 814 682 831 682 788C682 782 687 769 690 767C698 759 699 767 703 752C705 742 707 735 711 726C715 720 716 705 709 699C701 691 697 689 694 686C685 678 696 684 678 674L668 669C657 665 649 660 635 664C631 665 628 663 625 667C622 672 623 680 619 689C610 705 604 704 595 708C582 714 576 715 560 715C552 715 541 713 534 716C529 718 528 718 522 719C514 719 516 720 511 721C501 723 493 718 489 728Z"
            fill="#91D8F7" />
        <path fill-rule="evenodd" clip-rule="evenodd" class="state-map-path" id="sokoto_state_dRJrTxFaE"
            d="M684.001 668C695.001 634 704.001 639 713.001 635C717.001 633 713.001 633 720.001 632C732.001 631 738.001 630 750.001 632C760.001 633 769.001 646 777.001 649C793.001 654 786.001 653 792.001 656C795.001 654 796.001 652 798.001 650C801.001 648 802.001 648 805.001 646C810.001 642 812.001 639 815.001 634C810.001 629 806.001 617 800.001 615C785.001 602 790.001 603 788.001 576C789.001 570 788.001 560 792.001 555C796.001 550 802.001 551 809.001 548C818.001 544 823.001 547 833.001 547C828.001 518 845.001 500 834.001 495C826.001 491 823.001 489 813.001 489C801.001 489 796.001 491 785.001 488C776.001 485 777.001 489 771.001 481C768.001 478 770.001 480 766.001 477C762.001 474 764.001 476 760.001 474L746.001 468L743.001 473C736.001 486 737.001 492 721.001 500L701.001 509C694.001 512 685.001 512 676.001 509C672.001 508 677.001 508 671.001 509C658.001 513 661.001 517 649.001 523L643.001 527C636.001 532 630.001 537 622.001 540L612.001 544C586.001 557 594.001 559 610.001 569C615.001 573 615.001 572 618.001 577C631.001 597 631.001 591 628.001 621C626.001 630 621.001 630 622.001 644C623.001 655 628.001 657 638.001 656C643.001 656 648.001 656 653.001 656C663.001 657 678.001 669 684.001 668Z"
            fill="#F6AFCE" />
        <path fill-rule="evenodd" clip-rule="evenodd" class="state-map-path" id="sokoto_state_f3LlEVv7j"
            d="M938 535L959 530C965 529 964 528 969 527C977 525 982 524 989 521C1008 512 1039 497 1057 484V483H1058L1073 473C1075 471 1073 473 1076 471C1089 462 1090 463 1104 452C1117 441 1128 441 1134 439C1144 436 1145 437 1152 435C1163 431 1176 432 1185 440C1198 451 1202 457 1216 458C1233 458 1232 456 1244 446C1246 444 1250 442 1252 440C1259 432 1252 421 1245 416L1234 410C1232 409 1231 409 1229 409C1215 403 1227 407 1214 404C1203 402 1204 402 1189 402L1144 409C1123 411 1091 411 1070 406C1052 402 1060 401 1052 398C1045 394 1041 396 1036 388C1033 383 1033 381 1028 377L1024 374C1018 376 1011 387 1006 389L975 393C968 394 967 395 963 398C959 400 955 403 952 405C938 415 935 422 926 432C924 434 920 438 918 441C915 449 917 453 900 457C895 459 892 460 888 463C883 468 884 471 887 477C901 514 880 552 938 535Z"
            fill="#FDD1A1" />
        <path fill-rule="evenodd" clip-rule="evenodd" class="state-map-path" id="sokoto_state_VRwOofjLS"
            d="M705.001 761L731.001 776C757.001 790 771.001 797 791.001 820C800.001 831 797.001 830 816.001 836C820.001 837 817.001 837 821.001 838C828.001 841 853.001 840 859.001 839C869.001 837 861.001 835 880.001 836C879.001 831 877.001 827 875.001 823C871.001 818 871.001 818 868.001 812C850.001 765 869.001 742 853.001 722L832.001 692C828.001 688 825.001 686 823.001 683C820.001 678 821.001 675 815.001 673C803.001 670 798.001 670 792.001 666C787.001 661 788.001 659 780.001 656C752.001 646 766.001 636 731.001 637C724.001 637 721.001 638 716.001 640C714.001 641 713.001 641 710.001 642C709.001 643 706.001 644 704.001 645C698.001 649 693.001 659 690.001 666C688.001 672 691.001 674 694.001 677L698.001 682C708.001 690 726.001 695 719.001 722C718.001 727 716.001 729 714.001 734L705.001 761Z"
            fill="#D2E28B" />
        <path fill-rule="evenodd" clip-rule="evenodd" class="state-map-path" id="sokoto_state_RkXo7yynO"
            d="M440 450V472C440 481 436 483 439 493C441 501 440 499 438 509L427 542C425 546 424 548 423 552L435 547C449 538 454 539 458 537C465 533 464 534 473 534C479 533 501 534 506 535L524 550C540 550 555 552 571 551C583 551 580 548 590 546C598 545 621 534 630 528C642 519 654 513 664 504C648 500 657 503 641 494L625 484C621 480 622 479 615 474C612 472 609 467 607 465C603 460 602 457 599 453C596 450 597 451 595 447C593 445 593 443 592 440C591 439 589 436 588 435C586 433 585 431 583 429C581 428 579 427 577 426C563 417 569 423 553 420C537 417 524 423 499 422C485 421 453 414 443 418C443 424 442 427 441 433C440 439 440 444 440 450Z"
            fill="#91D8F7" />
        <path fill-rule="evenodd" clip-rule="evenodd" class="state-map-path" id="sokoto_state_jQDTBvndf"
            d="M750.001 464C757.001 466 769.001 470 773.001 474C776.001 478 779.001 480 783.001 481C786.001 482 797.001 483 799.001 483C810.001 483 814.001 483 831.001 489C859.001 499 820.001 531 846.001 560C884.001 601 883.001 627 944.001 623C953.001 622 961.001 616 973.001 618C980.001 619 997.001 622 1004 619C1007 616 1001 608 996.001 594L989.001 575C986.001 569 977.001 567 969.001 568C963.001 568 942.001 575 919.001 572C916.001 567 913.001 564 912.001 557C911.001 546 913.001 547 904.001 542C880.001 524 893.001 506 884.001 484C876.001 468 878.001 461 891.001 453C896.001 450 902.001 449 909.001 448L911.001 442C903.001 442 895.001 434 888.001 430C879.001 425 878.001 423 870.001 412C865.001 404 867.001 405 864.001 401C856.001 388 824.001 391 818.001 396C815.001 398 817.001 396 815.001 398C805.001 404 821.001 393 812.001 399L783.001 419C779.001 422 782.001 421 776.001 422C767.001 423 766.001 426 759.001 440L757.001 445C757.001 445 757.001 445 756.001 445C752.001 455 748.001 458 750.001 464Z"
            fill="#D2E28B" />
        <path fill-rule="evenodd" clip-rule="evenodd" class="state-map-path" id="sokoto_state_TkMzwAo0I"
            d="M796 560C795 563 792 586 795 591C803 593 824 590 831 587C835 586 834 585 837 584C841 582 840 584 844 581L850 577C848 569 841 559 828 555C820 552 826 550 812 555C806 557 801 557 796 560Z"
            fill="#D2D3D5" />
        <path fill-rule="evenodd" clip-rule="evenodd" class="state-map-path" id="sokoto_state_YKqVJrBLS"
            d="M820 628C817 625 794 601 794 595C797 599 842 594 853 582C860 588 866 599 871 603C894 620 856 606 845 612C839 614 826 628 820 628Z"
            fill="#FDD1A1" />
    </svg>