<svg viewBox="0 0 1357 1461" fill="none" xmlns="http://www.w3.org/2000/svg">
    <path fill-rule="evenodd" clip-rule="evenodd" class="state-map-path" id="taraba_state_hDdkAT3J1"
        d="M340 944C341 946 351 952 355 955C356 957 357 958 359 960C360 962 362 963 363 964C367 968 376 974 376 979C376 983 374 980 379 986C380 988 383 990 384 992C385 996 382 999 383 1001C384 1007 387 999 387 1017C387 1023 384 1027 383 1036C382 1041 382 1042 380 1045C379 1048 378 1051 377 1054C376 1057 375 1059 374 1063C372 1066 371 1067 370 1070C368 1073 368 1076 367 1079C364 1089 364 1079 364 1099L366 1113C382 1111 377 1110 400 1110C403 1110 410 1110 412 1112C425 1118 430 1112 434 1112H442C445 1112 447 1114 451 1113C454 1113 457 1112 461 1112C469 1111 474 1112 480 1109C484 1107 486 1109 489 1107C493 1105 495 1105 499 1104C502 1104 504 1103 507 1102C517 1100 522 1101 525 1101C529 1101 526 1101 528 1100C532 1098 553 1100 555 1100C556 1098 557 1097 558 1095C559 1094 561 1092 562 1091C562 1089 561 1087 560 1085L557 1065C558 1059 561 1055 561 1052V1039C561 1037 559 1036 559 1034C559 1031 561 1032 559 1029C558 1025 557 1023 557 1016C557 1010 557 1011 552 1007C543 1001 538 1002 531 999C527 997 525 994 522 993C520 991 518 992 516 991C514 990 515 988 513 987C508 980 503 980 502 976C499 971 496 970 490 966L472 953C471 952 470 951 468 950C466 949 466 949 463 948C457 947 458 946 453 943C450 941 447 939 443 938C430 935 429 937 417 935L380 934C375 934 380 935 368 935C364 935 361 936 358 937C355 937 355 936 353 937C351 938 350 939 348 940L340 944Z"
        fill="#FDD1A1" />
    <path fill-rule="evenodd" clip-rule="evenodd" class="state-map-path" id="taraba_state_XbNFeo89q"
        d="M594 721C594 722 594 723 595 725C596 727 597 730 598 732L602 740C603 742 607 768 608 773C608 780 612 779 617 777L631 770C635 768 635 768 640 769C641 766 646 761 649 758C653 754 654 751 659 748C663 744 666 743 669 738C671 736 672 734 674 732C681 728 681 726 686 720C688 718 687 718 688 717C691 713 694 716 696 710C697 707 696 708 698 706C700 705 703 704 705 703C706 701 707 698 709 696C710 695 712 694 714 692C716 690 716 689 719 686L729 676C734 670 745 662 752 659C759 656 759 655 764 650C767 647 771 645 776 642C778 641 779 640 781 638C784 636 784 635 788 634C792 633 790 633 793 629C796 625 802 625 805 621C809 618 806 617 810 616C816 614 824 608 829 605C844 595 840 594 856 581C858 579 866 573 867 572C868 571 868 569 868 568L889 553C891 551 893 550 895 549C904 546 906 540 928 531C930 530 932 529 935 528C945 525 939 527 950 513C956 506 960 504 963 495C964 492 965 491 966 488C969 476 968 482 971 473L975 466C977 464 978 462 979 460L972 454C969 452 967 451 964 449C955 443 950 446 939 435C937 433 933 426 929 420C926 416 925 417 921 415C913 412 904 404 898 399C892 395 879 393 872 387C870 385 870 382 867 379C865 377 862 374 860 372C858 374 854 382 852 385C850 388 844 394 840 396C835 400 816 409 810 411C797 414 784 416 772 417C768 418 754 418 750 417C744 416 738 414 732 413C728 413 726 412 722 412C688 412 686 419 674 419C652 419 657 422 647 426C639 430 629 430 619 432L601 436C598 436 595 437 592 437C581 440 573 440 562 441C554 443 543 460 539 463C536 465 523 477 522 479C515 491 521 494 511 502C503 508 498 518 490 525C479 534 475 536 470 550C468 553 468 553 467 558C466 561 466 564 465 567C457 581 448 594 437 606C435 608 434 610 432 612C426 617 419 622 413 628C417 630 421 634 424 636C425 637 428 638 430 640L440 648C448 654 449 656 459 658C469 660 465 657 473 655C475 655 479 655 481 655C486 656 487 655 490 654C493 654 496 654 499 654C505 653 508 649 513 648C518 648 530 642 534 640C544 635 545 644 555 645C557 646 559 647 562 648C572 651 574 660 581 667C585 670 587 673 590 678C591 680 596 693 596 699C597 699 597 700 597 700C597 701 597 702 596 702V704C596 705 596 705 595 705C595 706 595 706 595 707V710V709C595 710 595 710 595 710L596 712C596 713 596 714 596 715V716C596 717 596 717 595 717C595 718 595 718 595 718V719C595 720 595 721 594 721Z"
        fill="#9DD3AF" />
    <path fill-rule="evenodd" clip-rule="evenodd" class="state-map-path" id="taraba_state_VjZe3I7Ag"
        d="M507 772C505 775 501 776 499 778C495 781 490 785 487 788C485 790 483 791 481 793C479 795 477 797 475 799C471 802 467 804 463 808C453 817 447 828 435 834C429 838 429 839 425 846C423 851 423 849 420 852C415 855 412 859 408 861L388 874C382 879 383 879 375 883C368 888 366 892 356 897C352 898 347 904 345 907C343 909 341 911 339 912C337 914 335 915 332 916C328 919 324 923 320 926C324 932 333 937 338 943L348 939C350 938 351 936 353 936C355 935 358 935 360 935C366 933 368 934 374 934C380 933 376 932 388 932C396 932 410 932 417 934C419 934 422 934 424 935C432 936 431 934 445 937C449 938 451 940 455 942C460 946 459 945 466 947C469 948 488 963 492 966C505 974 500 974 504 977C506 979 507 979 509 981L513 984C515 986 514 988 516 989C518 991 520 989 526 994C530 998 531 998 537 999C546 1002 548 1003 555 1008C560 1012 558 1015 559 1023C559 1027 559 1025 561 1028C563 1032 560 1031 560 1034C560 1036 562 1036 562 1040C563 1052 561 1053 559 1060C558 1065 561 1084 562 1086C564 1091 563 1087 566 1090C566 1090 568 1094 569 1094C572 1098 573 1099 578 1101C592 1106 586 1107 600 1103C612 1099 617 1102 628 1102C633 1101 634 1085 637 1080C639 1075 641 1068 645 1065C649 1061 658 1051 664 1052C665 1048 670 1046 677 1040C680 1038 680 1038 683 1036C686 1034 688 1030 690 1026C695 1021 708 1013 718 1001C723 995 730 991 736 985C739 982 738 983 741 981C742 980 745 978 746 977C746 976 747 975 747 975L755 968C758 965 760 963 764 960L784 944C793 937 809 921 812 919C809 917 808 916 804 916C788 914 791 919 785 924C782 926 783 924 781 926C777 929 782 927 774 930C768 931 763 934 757 936C750 939 753 935 732 945C728 946 726 945 722 947C715 950 720 950 716 952C715 953 711 955 709 956L694 965C691 967 689 967 686 969C670 977 671 973 660 977C655 979 648 976 643 973C637 970 634 969 629 964C628 963 628 962 627 961C623 957 621 956 619 952C616 947 612 943 609 938C604 931 603 923 598 914C594 908 596 903 590 900C592 892 590 893 597 890C603 887 602 888 608 883C609 881 617 874 618 872C622 860 616 864 621 857C623 854 623 854 624 851C626 844 628 846 627 838C624 823 615 831 618 814C621 803 614 798 611 789L607 777C606 774 607 773 606 769C605 762 603 755 602 748C601 739 599 741 597 735C596 730 594 727 592 722V721C592 720 592 720 592 719C592 718 592 717 592 717C592 716 593 715 593 716C593 715 593 715 593 715C593 713 593 714 593 713C592 712 592 712 592 711C592 711 592 711 592 710C592 709 592 707 592 706C592 705 593 704 593 703C593 703 593 701 594 701V700C579 700 580 700 567 704C562 706 562 705 559 708C540 720 549 721 540 728C540 729 540 729 540 730L508 772H507Z"
        fill="#91D8F7" />
    <path fill-rule="evenodd" clip-rule="evenodd" class="state-map-path" id="taraba_state_l7roWsxw5"
        d="M296 735C291 735 284 730 275 729C269 728 259 725 252 724C249 724 243 726 240 725C236 725 238 724 228 724C215 724 197 731 184 735C179 736 164 746 158 750C148 755 152 755 139 758C135 759 132 759 128 760C111 763 104 757 92 759C88 759 86 762 83 764C75 770 66 774 58 780C15 813 41 799 11 828C8 831 8 832 5 836C3 839 1 841 0 845C2 845 3 846 5 847C7 847 9 847 11 846C14 846 17 843 21 842C37 836 34 835 41 833L62 827C71 825 80 826 88 824C93 822 95 823 100 823C110 823 113 819 126 821C135 822 138 820 152 822C167 825 174 822 191 826C205 829 225 833 237 837C240 839 250 847 253 849C260 856 265 864 273 871C276 873 278 875 280 878C285 884 283 886 289 890C293 894 295 898 299 903C301 906 303 907 305 910C310 916 313 921 319 925L343 906C346 904 352 897 354 896C360 892 362 892 368 887C377 880 378 881 387 874L406 860C411 858 414 854 418 851C421 849 423 849 424 846C426 843 427 842 428 839C431 833 435 833 440 829C445 826 447 823 451 819L462 807C466 802 473 799 480 793C487 785 500 776 506 771V770L537 729C538 727 539 727 542 725C545 722 543 720 546 717C559 701 575 699 595 698C595 695 594 694 593 691C592 689 592 686 591 684C587 671 582 671 575 662C562 642 560 652 547 644C536 637 538 641 528 645C523 646 519 649 514 650C509 650 505 654 500 655C496 656 497 656 493 655C489 655 488 656 485 657C479 658 478 654 470 658C462 662 465 661 456 659C450 658 440 651 436 646C434 645 436 646 433 644C431 642 430 642 428 640C423 638 421 635 417 632C415 631 414 630 412 628C410 631 407 632 404 635C402 637 400 641 397 642C383 649 383 649 374 662C370 668 375 672 362 694C356 704 349 714 341 723C337 726 333 730 329 733C325 734 323 733 317 736C310 740 306 740 299 737L296 735Z"
        fill="#F6AFCE" />
    <path fill-rule="evenodd" clip-rule="evenodd" class="state-map-path" id="taraba_state_l04LsdgBM"
        d="M926 1131C926 1133 925 1136 924 1138C922 1143 923 1143 922 1148C921 1156 917 1166 914 1174C910 1183 910 1181 905 1187C902 1190 900 1198 889 1206C884 1210 885 1211 881 1215C880 1216 878 1216 877 1217C876 1218 876 1219 875 1220C873 1222 873 1221 871 1223C867 1226 863 1230 860 1234C859 1235 858 1237 857 1237C848 1244 849 1250 837 1257C835 1259 833 1261 831 1262C825 1266 828 1262 827 1269C827 1274 820 1287 818 1293L816 1303C816 1310 818 1314 822 1318C826 1322 827 1318 831 1320C833 1321 837 1324 838 1325C869 1347 949 1398 949 1414V1433C948 1438 948 1440 948 1447H957C962 1440 963 1436 972 1436C981 1436 984 1445 989 1447C1100 1487 1062 1427 1139 1415C1138 1409 1137 1410 1140 1406C1175 1350 1152 1262 1208 1231C1220 1225 1217 1216 1229 1214C1228 1213 1226 1211 1225 1210C1223 1207 1217 1201 1217 1199C1215 1188 1213 1191 1208 1187C1199 1182 1201 1186 1194 1182C1186 1177 1182 1180 1178 1180C1173 1181 1167 1180 1162 1183C1154 1187 1125 1195 1117 1197C1114 1197 1110 1197 1108 1198C1103 1199 1098 1200 1094 1203C1091 1205 1091 1205 1087 1204L1072 1199C1069 1198 1061 1193 1060 1191C1058 1189 1058 1187 1056 1185C1053 1181 1050 1179 1047 1175C1044 1171 1037 1160 1033 1159L1027 1158C1021 1157 1023 1149 1015 1146C1010 1143 1007 1139 1002 1137C999 1136 998 1137 996 1133C991 1121 990 1121 991 1109C992 1103 993 1095 994 1090C994 1088 996 1085 995 1082C994 1079 994 1076 993 1073C989 1066 991 1064 989 1056C988 1046 978 1047 970 1047C964 1047 961 1048 957 1051C955 1053 954 1054 952 1055C941 1065 938 1062 929 1068C925 1071 927 1071 922 1070C923 1074 923 1081 924 1083C924 1086 927 1091 928 1094C931 1100 928 1103 927 1111V1112C929 1113 928 1115 928 1116C928 1116 928 1116 928 1117L927 1118C927 1119 927 1120 927 1121C927 1122 927 1123 927 1124C927 1124 927 1127 927 1128C927 1129 927 1130 926 1131Z"
        fill="#F6AFCE" />
    <path fill-rule="evenodd" clip-rule="evenodd" class="state-map-path" id="taraba_state_VyAVDxSOl"
        d="M664 1055C662 1054 664 1054 662 1053C656 1057 660 1052 649 1063C643 1069 643 1068 640 1077C639 1079 638 1080 637 1082C634 1090 639 1084 631 1101C630 1104 629 1104 624 1103C609 1102 612 1100 595 1106C588 1108 590 1108 583 1105C576 1101 573 1102 568 1095C567 1093 566 1092 564 1090C560 1093 557 1098 555 1103C554 1106 552 1106 551 1110C549 1124 553 1127 547 1142C545 1148 546 1153 544 1157C540 1165 537 1172 529 1177L497 1198C492 1202 491 1204 494 1210C516 1213 512 1244 511 1260C511 1264 515 1268 518 1271C528 1283 522 1280 540 1279C550 1278 576 1276 584 1274C590 1273 593 1274 599 1273C605 1272 606 1271 613 1271C617 1271 624 1271 628 1270C650 1267 645 1270 652 1274C655 1270 659 1267 665 1266C670 1265 668 1265 671 1262C673 1258 673 1258 673 1254C675 1238 683 1210 685 1186C685 1180 686 1173 687 1167C688 1156 687 1159 692 1152C697 1152 700 1154 702 1156C707 1162 711 1157 713 1172C713 1177 715 1181 715 1186C715 1190 713 1193 713 1197C714 1198 720 1204 722 1204C722 1205 727 1206 728 1206C761 1215 754 1231 797 1246C800 1247 803 1245 806 1248C809 1251 807 1252 812 1254C818 1256 821 1258 826 1263C833 1260 837 1255 843 1250C848 1247 850 1242 854 1238C855 1237 857 1236 858 1234C861 1231 861 1229 865 1226L889 1204C892 1202 894 1199 897 1197C901 1192 900 1191 903 1187C905 1185 909 1182 910 1179C912 1176 913 1172 915 1168C918 1162 921 1152 921 1144C921 1139 924 1137 924 1132L925 1131C924 1131 924 1130 924 1130C924 1129 923 1127 924 1126C924 1125 924 1123 924 1122C924 1122 924 1120 924 1119C924 1118 925 1117 925 1116C925 1115 925 1115 925 1114C925 1113 925 1113 926 1113C927 1100 931 1104 925 1091C920 1080 924 1073 919 1065C916 1062 914 1060 911 1057C909 1054 906 1050 906 1046C905 1040 903 1040 901 1036L898 1024C898 1019 894 1015 894 1010C894 1006 894 1005 893 1002C893 998 894 999 894 995C894 993 893 992 892 990C892 988 892 985 892 983C891 977 892 977 889 972C886 966 885 970 884 963C883 958 883 961 881 959C880 958 880 956 877 951C874 946 868 944 864 940C860 937 859 936 856 933C853 930 851 930 849 926C846 922 839 914 834 912C833 911 830 910 829 910C825 909 827 910 824 912C820 914 820 914 815 918C813 920 810 922 808 925L801 932C800 933 798 934 797 935C795 937 795 937 793 938C786 945 777 952 769 958C764 963 758 967 754 971L743 982C741 984 741 982 739 985C734 990 728 994 723 998C717 1003 714 1008 709 1013C703 1017 698 1021 693 1026C690 1028 689 1031 687 1034C684 1037 682 1038 679 1041C676 1043 674 1045 671 1047C666 1050 666 1049 664 1055Z"
        fill="#9DD3AF" />
    <path fill-rule="evenodd" clip-rule="evenodd" class="state-map-path" id="taraba_state_k37RMAKiD"
        d="M1090 477C1079 478 1071 478 1062 483C1053 489 1040 491 1029 491C1024 491 1008 481 1003 478C999 475 996 471 992 469C989 467 983 464 980 461C977 466 974 468 972 473C971 476 971 478 969 481C968 484 968 485 967 489C967 492 965 492 964 496C959 510 949 513 943 525C941 529 942 528 937 529C932 531 920 536 916 538C908 542 904 547 897 550C889 555 881 560 873 566C870 570 871 567 868 572C866 575 851 587 847 591C844 594 841 599 837 602L831 606C827 609 815 616 811 617C807 618 810 619 807 622C802 627 796 626 792 633C790 636 793 634 789 635C785 637 787 635 783 639C778 642 766 649 765 651C757 661 747 661 730 678L715 693C714 695 712 695 710 698C708 700 707 702 706 704C704 705 701 706 699 708C697 710 698 712 696 714C694 717 692 716 689 718C687 721 683 727 680 729C679 731 677 732 675 734C671 737 669 742 665 745C654 754 658 750 649 760L640 770C636 770 636 769 632 771C625 774 619 780 610 780C610 791 620 799 620 810C620 815 617 821 620 824C623 828 625 828 627 834C628 838 630 844 627 848C626 850 626 851 625 854C623 857 622 857 621 859C620 862 622 867 618 874L610 882C607 886 605 888 601 890C599 890 596 892 595 892C592 894 592 896 592 899C594 901 595 901 595 904C597 909 599 912 601 916L606 929C610 939 614 942 619 951C620 951 621 953 621 953L622 955C624 957 627 958 628 960C631 963 628 962 632 965C635 966 635 967 637 969C640 971 652 976 657 976C659 976 663 974 666 973C677 973 685 968 694 963L710 954C719 949 714 953 717 949C719 945 728 945 735 941C738 940 740 939 744 938C752 935 755 936 763 932C773 928 773 929 777 927C781 926 779 926 781 924C783 922 782 925 785 922C789 918 791 914 799 914C803 914 809 915 812 917L820 911C823 909 826 908 829 906C831 904 833 901 836 899C838 897 843 896 845 894L857 885C858 884 859 883 861 881C864 880 869 878 870 877C872 874 873 867 873 863C873 857 870 861 874 849C875 845 893 837 898 835C904 833 906 832 910 828C913 826 913 826 915 823C917 820 917 821 919 819C922 815 922 808 924 804C925 802 930 795 931 793C933 790 934 789 935 787C936 785 938 782 939 781C942 778 947 777 950 774C960 763 958 766 971 757C975 753 978 753 983 750C997 742 988 745 1007 737C1031 727 1037 728 1060 728C1063 728 1067 727 1071 727C1075 726 1079 726 1083 726C1086 720 1091 713 1095 708C1102 699 1109 691 1116 684L1140 662C1144 660 1146 658 1148 655C1158 646 1167 634 1177 624C1191 610 1186 616 1199 599L1214 581C1215 579 1215 580 1216 578C1226 567 1230 558 1238 547C1242 541 1252 526 1258 522L1281 500C1284 496 1294 490 1299 487C1305 483 1305 471 1305 464C1299 463 1285 458 1280 456L1262 449C1254 444 1220 443 1210 446C1205 448 1211 449 1199 452C1195 453 1188 452 1183 453C1173 454 1164 454 1154 457C1148 458 1146 459 1139 459C1134 459 1129 461 1125 461C1122 462 1121 461 1118 462C1116 463 1114 464 1111 465C1106 468 1100 470 1094 471C1090 472 1090 473 1090 477Z"
        fill="#F6AFCE" />
    <path fill-rule="evenodd" clip-rule="evenodd" class="state-map-path" id="taraba_state_aLlXB1x3Q"
        d="M874 863L872 875C871 879 870 879 867 880C860 883 856 888 850 891C848 892 849 892 848 893C844 897 849 894 840 898C837 900 836 899 834 902C832 905 831 906 828 908C834 909 837 912 840 915C845 920 846 919 849 925C852 929 856 931 859 934C867 942 878 946 881 956C882 958 882 957 883 959C886 961 885 964 886 966C888 968 888 966 890 971C893 977 893 981 893 987C894 992 895 993 895 996C895 999 894 998 895 1002C895 1007 895 1012 897 1016C898 1018 899 1021 899 1023C899 1027 901 1034 903 1037C904 1039 905 1040 906 1042C909 1046 906 1050 916 1060C919 1063 920 1067 925 1069C930 1067 930 1065 936 1063C941 1062 944 1061 947 1058C951 1055 957 1047 962 1047C969 1045 986 1044 990 1051C992 1056 990 1065 994 1073C996 1076 995 1077 996 1081C997 1084 997 1084 996 1088L994 1099C994 1104 991 1115 992 1119C993 1122 997 1133 999 1135C1004 1137 1003 1135 1007 1139C1010 1142 1018 1145 1021 1148C1022 1150 1023 1154 1025 1156C1029 1159 1033 1153 1042 1166C1046 1172 1050 1178 1055 1182C1059 1185 1058 1185 1060 1189C1062 1192 1066 1194 1068 1195C1072 1198 1084 1202 1089 1203C1093 1203 1094 1200 1098 1199C1101 1198 1107 1196 1109 1196C1114 1195 1117 1195 1121 1194L1153 1184C1155 1184 1156 1184 1158 1183C1165 1181 1164 1179 1178 1179C1179 1179 1181 1177 1184 1178C1191 1178 1193 1181 1199 1182C1208 1185 1202 1182 1209 1186C1210 1187 1212 1187 1213 1188C1215 1189 1216 1191 1217 1194C1218 1196 1218 1199 1219 1201L1224 1207C1225 1209 1227 1211 1229 1212C1229 1199 1235 1202 1243 1200C1248 1199 1246 1200 1250 1200C1262 1191 1267 1201 1281 1200C1300 1198 1290 1189 1282 1175C1263 1139 1269 1084 1296 1052L1319 1027C1321 1025 1322 1025 1323 1022C1322 1020 1320 1020 1319 1018C1317 1016 1319 1015 1319 1012C1319 994 1315 995 1308 979C1302 965 1303 967 1301 950C1301 943 1300 941 1298 936C1295 929 1294 930 1296 922C1296 917 1297 911 1298 906C1298 901 1300 894 1300 889C1300 880 1279 857 1272 850L1253 832C1245 825 1237 818 1230 810C1226 805 1221 794 1206 790C1203 789 1196 790 1193 791C1191 792 1188 797 1186 799L1180 808C1179 812 1176 813 1174 816C1169 825 1168 823 1163 828C1133 861 1103 777 1095 758L1084 732C1083 731 1082 728 1082 728C1068 728 1067 730 1054 730C1047 730 1039 729 1033 730C1017 734 1001 739 988 748C984 751 980 753 975 756C972 757 971 759 969 760C962 765 956 768 951 774C948 778 942 780 939 783C938 785 937 788 935 790L927 802C924 806 924 813 921 818C920 821 918 821 916 824C914 827 915 827 912 829C901 836 907 832 898 837C891 839 882 843 877 847C875 849 874 852 874 855C872 859 874 860 874 863Z"
        fill="#FDD1A1" />
    <path fill-rule="evenodd" clip-rule="evenodd" class="state-map-path" id="taraba_state_FaWk0KmRw"
        d="M730 31C716 31 720 34 706 40C701 42 693 46 690 50C694 61 699 65 701 80C702 82 702 85 702 87C703 97 703 107 701 118L731 273C732 279 732 283 733 290C735 312 736 315 724 334C717 345 715 345 704 350C687 357 671 367 654 374C648 377 628 387 621 387C599 387 602 389 581 393C577 394 570 395 566 396C569 402 573 403 577 408C584 418 590 409 605 424C608 428 607 426 611 429C615 431 615 431 620 430C627 429 632 429 639 427C649 424 650 422 654 420C663 417 666 418 675 418C688 418 699 406 733 412C752 416 753 417 774 415C787 414 801 413 812 408C818 406 838 397 842 394C853 383 852 382 860 368C867 358 870 347 874 336C877 325 875 323 881 310C884 302 888 295 890 285C890 283 890 277 891 275C892 273 892 274 894 273C896 271 898 265 900 262L921 249C928 247 939 245 945 240C948 238 949 237 952 235C966 223 964 228 973 223C985 215 990 218 998 214C1006 210 1008 209 1018 209C1023 209 1026 206 1030 203C1034 200 1037 199 1042 197C1047 195 1051 194 1056 192C1059 191 1059 190 1061 188C1064 185 1065 184 1069 183L1079 178C1081 176 1084 171 1087 168L1119 146C1124 143 1127 142 1132 140C1135 138 1141 136 1144 133C1146 132 1147 130 1148 129C1154 125 1160 122 1165 117C1168 114 1170 111 1175 109C1184 105 1192 102 1201 99C1195 98 1194 95 1191 91C1182 79 1183 79 1177 68C1174 64 1172 59 1170 55C1162 39 1151 27 1143 7C1136 7 1129 8 1122 9C1019 22 939 0 851 0C848 0 839 5 836 6C809 16 803 21 779 31C775 34 770 37 765 37C759 37 751 36 747 35C744 34 733 31 730 31Z"
        fill="#F6AFCE" />
    <path fill-rule="evenodd" clip-rule="evenodd" class="state-map-path" id="taraba_state_eN91IH0so"
        d="M296 735C301 734 305 740 312 737C314 737 317 735 318 734C323 731 322 733 327 732C333 730 343 719 347 714C353 706 367 687 369 677C370 672 370 665 373 661C387 640 394 644 399 639C401 637 402 635 404 634L414 625C431 613 461 581 465 559C467 553 469 549 471 544C475 534 481 530 489 524C496 518 501 510 508 503C510 500 516 497 516 492C517 486 518 483 521 478C523 473 538 464 542 459C548 451 547 451 555 443C561 438 572 438 579 438C585 438 608 434 613 432C609 428 609 430 604 425C603 424 602 424 601 423C589 412 588 418 580 413L569 403C565 400 567 399 564 396C560 397 555 398 551 399C539 402 538 402 527 408C518 414 516 415 512 425C501 450 505 444 485 465C480 470 476 477 471 483C467 488 468 488 462 491C451 496 435 505 424 510L413 516C410 518 393 533 391 536C384 544 374 552 367 561C363 566 356 575 350 577C336 585 330 587 314 590C300 593 300 593 285 594C280 595 275 596 270 597C263 598 248 596 239 596C226 610 186 652 159 619L147 621C145 619 143 616 140 614C137 611 135 611 131 609C125 607 129 606 121 606C115 606 115 606 110 609C103 613 102 619 98 625C93 632 96 635 91 647C95 652 100 654 104 657C108 661 110 666 114 671C129 689 116 703 120 714C123 720 125 724 125 732C124 739 118 740 113 743C111 744 109 746 106 748C99 752 99 752 93 757C110 758 105 760 122 760C125 759 146 755 148 754L178 736C180 735 181 734 184 733C186 733 188 732 190 731C200 728 225 720 237 723C240 724 240 724 244 724C249 724 252 722 258 724C261 725 261 725 265 725C268 725 269 726 271 727C277 729 280 727 285 730C288 731 291 732 294 733C298 735 295 733 296 735Z"
        fill="#91D8F7" />
    <path fill-rule="evenodd" clip-rule="evenodd" class="state-map-path" id="taraba_state_eRECNVNzN"
        d="M892 276C892 289 890 291 886 301C883 307 878 318 877 324C875 336 870 355 864 365C862 367 862 368 861 371C879 387 865 381 878 389C891 396 891 391 902 401C907 405 919 413 924 415C927 416 927 416 929 419C931 421 932 422 933 424C938 431 938 435 951 442C957 445 963 445 975 455C978 458 980 460 985 463C993 467 999 472 1006 478C1009 480 1026 489 1030 489C1058 489 1061 479 1072 477C1075 477 1077 477 1079 476C1091 475 1087 477 1089 473C1091 470 1091 471 1095 470C1099 469 1102 468 1105 466C1108 465 1111 463 1115 462C1117 461 1118 461 1120 460L1138 458C1154 457 1159 452 1176 452L1189 451C1188 450 1187 449 1186 447C1185 444 1186 444 1184 441C1182 438 1181 436 1178 433C1171 425 1170 424 1167 415C1165 408 1164 411 1161 400C1159 390 1156 389 1151 388C1146 387 1145 386 1141 383C1128 375 1129 370 1117 365C1107 359 1110 362 1099 353L1077 338C1076 338 1076 338 1076 337L1073 336L1068 333L1062 330L1057 326C1052 320 1055 320 1047 312L1035 295C1033 291 1031 287 1029 282C1023 282 1013 282 1008 281C1005 280 1002 278 1000 276C997 275 996 275 995 274L983 265C978 259 969 249 965 242C963 238 964 234 964 229C959 230 950 238 946 241C943 244 942 244 936 246C924 250 924 248 915 254C912 256 909 258 906 260C900 264 900 263 896 272C894 277 895 273 892 276Z"
        fill="#91D8F7" />
    <path fill-rule="evenodd" clip-rule="evenodd" class="state-map-path" id="taraba_state_Mj9gFK0Xp"
        d="M527 1103C509 1100 507 1105 496 1106C486 1108 492 1109 487 1109C477 1110 483 1110 477 1111C462 1115 465 1112 457 1113C441 1117 444 1111 432 1114C429 1115 423 1119 413 1114C404 1109 399 1112 387 1112C378 1112 373 1115 366 1115C367 1127 369 1129 358 1142C351 1151 348 1151 336 1158C329 1162 311 1179 307 1185C306 1187 305 1189 303 1191C302 1193 300 1195 299 1197L286 1221C283 1227 281 1244 279 1252C274 1275 274 1280 272 1301C271 1305 271 1306 270 1309C269 1312 268 1314 267 1317L272 1321C272 1325 271 1325 270 1328C269 1332 270 1334 271 1337C271 1343 270 1348 270 1354C270 1367 271 1377 270 1390C269 1409 265 1405 265 1413C266 1418 266 1417 264 1421C263 1424 257 1439 257 1442C257 1445 257 1449 257 1451C261 1455 261 1455 265 1460C266 1460 268 1460 269 1459C277 1458 270 1458 277 1459C279 1460 279 1456 280 1451C282 1443 281 1448 281 1442C282 1439 284 1437 285 1435C286 1433 287 1428 287 1426C294 1398 297 1390 302 1361C303 1356 306 1354 308 1351C305 1348 306 1346 308 1343C309 1340 311 1329 316 1326C320 1323 321 1327 324 1328C328 1330 328 1326 333 1329C339 1331 332 1331 342 1332C345 1332 352 1332 354 1332C356 1333 358 1335 362 1337C369 1329 373 1322 381 1316C384 1314 387 1311 389 1308C395 1304 393 1308 401 1295C403 1291 403 1290 408 1287C411 1284 412 1281 422 1276C424 1275 424 1274 425 1271C427 1268 430 1266 433 1264L442 1256C445 1254 447 1251 450 1249L459 1241C463 1239 464 1237 468 1234L480 1222C482 1220 480 1221 484 1217C485 1216 486 1215 488 1213C490 1212 491 1211 492 1210C492 1207 491 1205 491 1203C494 1200 493 1198 501 1193C510 1188 511 1186 520 1181C525 1178 534 1172 537 1168L544 1154C545 1151 544 1149 545 1145C546 1141 549 1132 549 1129C550 1125 549 1115 550 1109L551 1107L552 1105C553 1104 554 1104 554 1102C549 1099 533 1101 533 1101C527 1101 529 1101 527 1103Z"
        fill="#F6AFCE" />
    <path fill-rule="evenodd" clip-rule="evenodd" class="state-map-path" id="taraba_state_kfhftLTmu"
        d="M965 227C965 237 964 238 969 245C972 251 976 254 979 258C983 264 989 269 995 273C996 273 996 273 996 273C1008 279 1009 281 1025 281H1047C1050 281 1053 281 1057 281C1064 281 1064 280 1073 287C1076 289 1076 290 1079 292C1087 288 1095 284 1104 281L1128 268C1124 267 1129 265 1131 264C1144 258 1137 258 1158 256C1181 253 1175 248 1186 251C1189 252 1192 253 1196 253C1202 252 1203 247 1208 241C1210 239 1208 240 1211 240C1230 236 1227 230 1251 226C1257 224 1256 223 1263 223C1266 223 1271 225 1274 225C1275 225 1283 222 1284 222C1285 210 1281 216 1286 193C1288 185 1281 175 1276 169C1274 165 1273 161 1271 157L1259 134C1256 129 1255 126 1252 123C1248 117 1250 117 1244 113C1230 104 1223 102 1206 99C1203 99 1200 101 1193 103C1189 105 1175 110 1172 113L1160 123C1153 129 1155 126 1145 134C1142 137 1122 146 1116 149L1095 163C1088 168 1089 167 1086 172C1075 187 1070 182 1065 186C1062 189 1060 192 1055 194C1050 195 1034 201 1030 204C1022 211 1022 211 1011 211C1006 211 1007 211 1004 213C1002 214 999 215 998 216C993 218 984 218 977 222C973 224 969 226 965 227Z"
        fill="#FDD1A1" />
    <path fill-rule="evenodd" clip-rule="evenodd" class="state-map-path" id="taraba_state_cfm4as319"
        d="M1083 300C1086 301 1088 306 1092 311L1101 321L1109 331C1111 333 1113 335 1115 337C1118 340 1118 342 1121 344C1125 349 1129 352 1133 357C1135 360 1137 360 1140 363C1144 369 1148 369 1152 376C1152 378 1153 379 1153 381C1157 389 1160 391 1163 403C1164 408 1168 411 1169 415C1172 425 1175 427 1181 435C1190 445 1185 442 1190 451C1195 451 1196 452 1200 450C1205 449 1205 450 1207 445C1209 445 1210 444 1213 444C1220 443 1227 443 1233 443C1243 444 1251 443 1260 446C1262 447 1263 448 1265 449C1267 450 1269 450 1271 451C1277 453 1298 462 1304 462C1304 459 1302 455 1302 451C1302 442 1305 442 1288 432C1282 429 1283 423 1278 421C1275 419 1276 422 1272 414C1270 411 1268 409 1266 406L1260 392C1257 385 1252 389 1249 382C1245 370 1244 376 1241 363C1240 359 1240 354 1238 352C1234 346 1223 334 1222 328C1221 327 1221 328 1221 326C1219 322 1221 317 1217 315L1206 307C1202 304 1203 303 1202 299C1200 294 1200 295 1203 291C1206 285 1227 280 1237 276C1240 275 1244 274 1246 273C1256 269 1256 271 1269 271C1276 271 1275 265 1284 262C1289 260 1289 260 1292 257C1295 255 1297 255 1299 251C1295 247 1287 237 1286 233C1285 230 1285 227 1284 224C1277 225 1278 227 1269 226C1262 225 1263 224 1255 226C1250 228 1246 228 1241 230C1237 231 1233 234 1229 235C1221 238 1222 239 1213 241C1208 242 1211 240 1205 247C1202 252 1201 254 1195 254C1189 255 1184 251 1180 251C1176 252 1171 256 1167 256C1155 258 1141 258 1132 265C1128 268 1132 269 1116 276C1112 278 1108 280 1104 282L1080 294C1081 297 1083 296 1083 300Z"
        fill="#9DD3AF" />
    <path fill-rule="evenodd" clip-rule="evenodd" class="state-map-path" id="taraba_state_NH12XYMO8"
        d="M1222 328C1223 328 1223 328 1223 329C1225 331 1224 332 1233 343C1246 358 1239 361 1245 371C1247 375 1248 375 1250 380C1252 384 1253 384 1257 387C1261 389 1260 390 1262 395C1267 404 1268 405 1272 412C1274 415 1274 417 1278 419C1281 421 1281 422 1284 426C1287 431 1287 430 1291 432C1300 438 1302 442 1302 435C1303 423 1300 432 1305 418C1312 399 1317 397 1320 392C1322 389 1323 386 1324 383C1328 377 1330 371 1333 365C1341 350 1358 325 1356 308C1353 292 1346 286 1339 271C1338 269 1331 268 1328 267C1323 266 1321 266 1317 264L1308 259C1305 257 1303 253 1300 253C1298 254 1297 256 1294 258C1283 266 1285 260 1279 267C1277 269 1275 272 1272 272C1257 274 1263 268 1239 277L1213 286C1206 289 1200 291 1203 298C1205 304 1204 305 1214 311C1216 312 1219 314 1220 317C1221 319 1222 326 1222 328Z"
        fill="#91D8F7" />
    <path fill-rule="evenodd" clip-rule="evenodd" class="state-map-path" id="taraba_state_QhwstM8Bm"
        d="M1083 300C1082 299 1083 300 1082 299C1081 298 1082 298 1081 298C1077 291 1072 286 1064 282C1060 281 1052 282 1048 283C1041 283 1037 282 1030 282C1032 290 1040 299 1043 304C1044 306 1045 308 1046 310C1048 312 1049 313 1051 314C1054 317 1055 323 1059 325L1062 328L1068 331L1072 333L1078 337C1081 340 1089 345 1093 348C1099 351 1108 359 1111 361C1114 362 1117 362 1119 364C1128 368 1129 374 1141 382C1143 383 1146 385 1147 386C1150 387 1153 387 1156 388C1155 387 1150 374 1147 371C1144 369 1142 368 1140 366C1138 364 1139 364 1137 362C1132 358 1125 351 1120 346C1118 343 1117 342 1114 339C1112 337 1109 336 1108 333L1099 322C1098 321 1097 319 1095 317C1093 315 1092 314 1090 312C1089 311 1083 302 1083 300Z"
        fill="#D2D3D5" />
</svg>