<svg viewBox="0 0 1390 1393" fill="none" xmlns="http://www.w3.org/2000/svg">
        <path fill-rule="evenodd" clip-rule="evenodd" class="state-map-path" id="yobe_state_STYAhSEq6"
            d="M453 344V343C462 338 469 325 477 316C482 312 483 312 490 311C499 309 491 307 503 307C515 307 511 305 517 303C546 296 584 282 616 273C625 270 649 273 662 273C665 271 670 272 673 272C675 266 675 267 678 263C683 256 678 254 677 249C676 248 677 245 678 243L670 248C656 258 494 241 469 264C466 267 436 277 435 277V279H433C429 286 449 331 446 339C446 341 445 342 445 344H453Z"
            fill="#FDD1A1" />
        <path fill-rule="evenodd" clip-rule="evenodd" class="state-map-path" id="yobe_state_JjkycZHPe"
            d="M688 627C684 634 669 645 667 654C664 664 659 688 659 699C659 699 660 699 660 700H661L664 704C666 714 664 712 670 720L693 745C696 748 694 745 697 747C701 750 702 758 709 759H710C724 779 789 761 789 761H800C799 763 799 764 799 767C800 784 797 821 793 837C792 843 788 844 790 855V856C791 859 796 862 799 868C801 871 801 870 802 873C805 880 810 881 808 888C808 889 808 889 808 889L807 891C800 916 798 939 813 965C813 967 814 967 814 968C818 978 821 984 828 993C834 1004 900 1001 909 1000C917 999 917 996 928 996C939 997 951 998 961 993C966 989 964 992 970 990C976 989 970 989 978 986C986 983 983 980 991 976C1000 971 997 961 1003 953C1007 948 1007 944 1011 940L1016 936C1020 932 1023 932 1024 926C1028 866 1030 761 989 739C986 735 988 736 984 732C977 726 978 719 965 714C957 711 952 699 942 691C929 680 933 683 917 681C910 680 892 678 888 675L877 662C872 639 871 627 870 605C838 589 820 592 807 560C806 556 803 555 802 551C801 547 801 543 800 539C797 530 798 525 793 518C792 515 792 515 790 513C789 512 790 512 789 511L781 500C779 501 778 501 776 503C771 506 775 503 773 506L765 519C759 531 754 527 748 536C745 541 745 538 741 543C726 563 702 603 688 627Z"
            fill="#9DD3AF" />
        <path fill-rule="evenodd" clip-rule="evenodd" class="state-map-path" id="yobe_state_Q4Uy71Z6X"
            d="M288 55C289 66 282 105 283 126C283 126 285 127 286 127C289 127 289 128 293 127C298 125 298 123 300 119C377 111 378 117 405 137C410 139 406 135 411 141C419 150 423 162 434 167C440 170 438 168 442 169C453 171 504 178 512 172C517 168 514 167 513 167L499 166C494 165 494 165 491 164C467 154 505 130 510 127C519 120 522 118 534 118C547 118 564 115 575 121C642 157 590 136 588 169C589 172 589 174 591 176C601 192 669 169 682 209C685 216 684 219 689 223C701 199 809 193 824 195C828 191 834 188 839 187C850 184 845 183 851 182C851 174 854 168 847 162C840 157 840 152 835 145C834 142 835 145 834 142C824 127 812 125 808 120C806 117 809 119 806 116C802 112 800 112 799 103C797 89 780 0.999978 777 0.999978C764 -1.00002 779 5.99998 756 0.999978C756 0.999978 753 0.999978 751 0.999978C604 0.999978 555 -8.00002 434 29C366 50 374 54 288 55ZM495 157L500 159C500 159 544 163 514 179C506 183 509 180 500 181C479 184 445 170 425 186C418 193 413 196 407 204C408 206 412 213 414 215C419 223 423 224 426 229C427 231 428 233 430 235C436 241 444 254 446 252C445 254 446 253 445 256C444 259 445 262 443 264C444 265 438 262 436 265V270H437L442 271C446 270 446 268 450 267C456 265 463 263 468 259C488 240 619 245 644 250C651 251 667 245 674 240C679 237 681 226 680 221C658 166 632 209 587 180C584 178 585 180 581 176C577 149 623 153 576 128C563 122 548 125 534 125C524 124 523 126 516 130C511 130 483 151 495 157Z"
            fill="#9DD3AF" />
        <path fill-rule="evenodd" clip-rule="evenodd" class="state-map-path" id="yobe_state_iu7vnUuVb"
            d="M780 482C788 489 789 504 797 512C801 516 805 530 806 536C806 544 810 551 814 558C838 598 874 585 878 605C879 612 876 650 888 664C890 668 894 672 899 673C904 674 900 672 907 673C911 673 908 674 915 675C918 675 922 674 925 674C933 675 929 675 933 678C938 681 940 682 945 686C947 688 948 689 949 691C953 693 953 695 955 696C958 699 958 697 961 701C963 703 963 704 965 707C970 708 975 709 979 707L990 703C995 702 1001 698 1006 697C1043 676 1209 683 1272 674C1272 660 1277 660 1278 650C1279 645 1279 640 1279 636L1281 631C1295 605 1298 563 1298 535C1298 533 1298 531 1298 529C1296 521 1295 525 1293 518L1286 502C1281 492 1280 481 1278 478C1273 480 1264 491 1258 495L1252 497C1250 498 1250 497 1248 498C1213 511 1032 517 1008 503C986 495 998 500 986 490C981 486 980 485 979 480C974 466 982 459 980 448C975 448 969 448 965 447C963 446 966 445 960 446C955 446 958 447 953 448C920 456 854 455 829 469C822 473 814 474 806 477C802 479 799 479 795 482C792 484 793 484 790 485C784 488 792 481 780 482Z"
            fill="#FDD1A1" />
        <path fill-rule="evenodd" clip-rule="evenodd" class="state-map-path" id="yobe_state_NFDYse47C"
            d="M1136 224C1131 223 1120 221 1110 225C1104 228 1107 227 1098 227C1098 236 1102 247 1089 252C1089 252 1049 263 1039 266C1030 273 1006 269 1007 271L1012 276L1017 291C1018 298 1017 294 1020 298C1025 305 1018 300 1028 318C1031 324 1029 336 1029 343C1034 346 1034 345 1035 351C1038 368 1031 364 1035 378C1043 416 990 433 988 453C986 463 985 458 984 465C983 472 988 485 992 488C998 493 1006 492 1012 498C1019 507 1223 505 1253 489C1259 486 1261 483 1265 480C1268 478 1269 478 1271 475C1276 469 1272 473 1279 470C1280 459 1281 464 1289 459C1292 457 1292 457 1296 455L1306 449C1313 444 1318 444 1329 437C1337 431 1335 437 1340 426C1343 418 1346 418 1350 412C1358 400 1366 393 1366 378C1372 373 1371 376 1376 369C1382 360 1389 366 1390 348C1390 324 1366 317 1360 305C1354 293 1355 298 1348 289C1346 288 1347 288 1346 286C1343 283 1342 283 1339 280C1336 274 1335 275 1330 266L1326 256C1324 253 1324 253 1325 248C1325 222 1338 222 1340 209C1341 199 1343 202 1344 192C1338 193 1338 191 1334 193C1273 227 1216 245 1136 224Z"
            fill="#9DD3AF" />
        <path fill-rule="evenodd" clip-rule="evenodd" class="state-map-path" id="yobe_state_gCH8GfVqD"
            d="M642 654L650 650C665 639 682 636 689 618C691 612 729 548 730 547L735 543C744 535 738 538 741 532C742 532 749 527 751 525L766 506C769 501 771 499 773 494C775 484 765 479 763 472C759 470 759 469 755 464C753 461 749 448 740 439C731 440 740 441 734 442C729 442 733 441 729 440C723 437 723 442 714 441C709 440 704 439 699 439C666 429 648 379 646 362L643 356C642 352 643 345 645 341C651 328 646 339 650 327C651 324 651 322 652 320C654 316 653 319 656 315C664 303 669 297 662 287L659 280C657 275 661 282 658 279C636 261 536 304 518 309C512 310 517 312 504 312C493 312 500 315 491 316C484 317 483 317 479 322C471 330 464 343 454 348C454 358 454 398 454 400C450 408 453 408 453 417C470 423 524 456 519 473C514 492 520 482 520 495C521 511 527 621 547 633C550 688 534 677 561 725C561 725 561 725 562 726L563 732C564 730 565 728 566 727C575 710 624 664 642 654Z"
            fill="#91D8F7" />
        <path fill-rule="evenodd" clip-rule="evenodd" class="state-map-path" id="yobe_state_OR0YopoTR"
            d="M729 382C729 390 738 409 740 413C742 417 742 416 744 420C748 427 746 428 747 436C749 440 752 442 755 446C763 460 761 455 767 470C771 479 776 477 787 477C796 476 789 476 795 475C800 473 803 471 808 469C854 450 904 449 951 441C959 440 957 437 964 439C968 441 963 440 970 441C975 442 980 442 985 444C985 443 985 443 985 443C986 445 983 438 999 429C1004 425 1012 417 1022 405C1027 398 1028 396 1030 388C1032 382 1027 379 1029 367C1030 360 1029 367 1031 361C1030 357 1030 358 1029 352C1027 344 1029 350 1026 344C1022 338 1025 329 1024 322C1023 316 1023 318 1020 315C1013 307 1021 312 1014 302L1013 299C1007 288 1010 291 1006 282C1005 278 996 264 1001 252C1034 180 889 202 862 199C853 201 852 195 844 193C838 193 834 198 829 200C812 208 816 205 790 205C771 204 710 208 701 228C699 228 695 228 694 228C689 230 680 245 682 250C683 254 689 256 683 263C680 267 680 266 678 272C675 272 669 272 667 274C662 279 671 283 672 290C673 294 669 309 681 317C696 327 738 356 729 382Z"
            fill="#F6AFCE" />
        <path fill-rule="evenodd" clip-rule="evenodd" class="state-map-path" id="yobe_state_eyfAt3CMa"
            d="M857 183L853 190C853 190 853 191 852 191C868 196 856 189 869 193C895 196 1038 171 1008 250C1006 256 1004 257 1005 262C1006 272 1099 251 1093 236L1092 222C1095 221 1098 221 1101 221C1111 218 1105 216 1127 217C1200 234 1250 232 1318 194C1321 193 1320 193 1325 191C1329 191 1328 192 1332 190L1339 187C1340 186 1341 185 1342 185C1344 184 1345 184 1346 184C1347 176 1344 155 1343 153C1339 145 1207 141 1185 133C1183 132 1180 131 1177 130C1172 128 1171 125 1167 123C1164 121 1163 117 1159 114C1153 108 1144 98 1137 94C1132 91 1127 90 1122 85C1119 83 1121 83 1117 80C1028 35 907 13 807 3.99998C780 -2.3365e-05 793 3.99998 791 14C790 21 800 51 801 54C802 58 801 59 802 62C803 68 803 61 805 67C809 139 801 72 841 141C847 154 849 153 854 159C860 167 857 168 858 176C859 178 860 176 860 182L857 183Z"
            fill="#91D8F7" />
        <path fill-rule="evenodd" clip-rule="evenodd" class="state-map-path" id="yobe_state_RGSPEZgJ8"
            d="M907 1008C906 1018 908 1015 911 1023C914 1029 914 1035 915 1038C917 1040 917 1040 919 1044C922 1049 923 1055 922 1061C920 1071 919 1061 920 1069C923 1072 933 1074 935 1074C937 1075 938 1076 939 1077C980 1094 1023 1061 1065 1114C1072 1123 1068 1120 1075 1125C1081 1129 1077 1130 1085 1129C1090 1123 1083 1127 1093 1115C1094 1113 1097 1106 1104 1115C1108 1120 1108 1118 1112 1121C1113 1122 1113 1123 1114 1124C1118 1129 1114 1125 1118 1128C1123 1131 1121 1131 1125 1134C1130 1137 1129 1135 1132 1140C1136 1145 1134 1143 1139 1147C1144 1151 1149 1156 1158 1155C1160 1152 1161 1150 1163 1147L1196 1153C1204 1154 1205 1151 1210 1150C1213 1149 1214 1149 1218 1148C1218 1135 1216 1141 1214 1135C1212 1128 1217 1122 1211 1118C1209 1117 1209 1117 1208 1116C1197 1108 1207 1099 1202 1085C1201 1081 1201 1083 1200 1080L1197 1068C1196 1065 1195 1070 1198 1057C1200 1047 1207 1048 1214 1044C1219 1041 1220 1042 1228 1037C1233 1033 1233 1035 1237 1032C1249 1025 1244 1014 1246 1001L1256 982C1260 978 1257 983 1263 975C1270 966 1278 962 1286 956C1293 950 1291 953 1298 947C1309 937 1311 936 1305 917C1301 907 1299 914 1299 902C1299 894 1298 892 1293 887C1290 883 1292 886 1289 884C1281 878 1291 880 1277 874C1272 872 1275 873 1272 872C1268 870 1264 870 1259 870C1248 870 1253 873 1248 873C1240 875 1248 869 1238 871C1219 873 1225 880 1206 881C1193 881 1095 902 1080 909C1075 911 1073 910 1068 912C1062 915 1067 914 1058 916C1053 917 1053 918 1048 920C1044 922 1026 934 1023 937C1022 938 1021 939 1020 941C993 969 1015 960 995 981C988 988 986 989 979 994C970 1001 976 993 958 1002C949 1007 923 1000 907 1008Z"
            fill="#91D8F7" />
        <path fill-rule="evenodd" clip-rule="evenodd" class="state-map-path" id="yobe_state_IDxjsE7EF"
            d="M751 853C762 840 761 845 775 845C790 845 784 827 788 817L789 807C790 800 793 803 792 789C792 782 793 773 791 768C788 766 734 773 730 775L718 782C683 816 689 788 665 837C667 862 677 852 666 879C665 883 665 882 667 885C670 888 674 884 677 884C685 884 676 887 687 886C700 884 710 886 723 883C726 883 746 859 751 853Z"
            fill="#D2E28B" />
        <path fill-rule="evenodd" clip-rule="evenodd" class="state-map-path" id="yobe_state_jERUS8v1I"
            d="M806 1060C812 1064 813 1065 815 1072C817 1081 825 1090 828 1101L834 1114C837 1118 835 1115 838 1117L842 1122C849 1133 851 1127 854 1135C857 1141 859 1140 864 1146C867 1151 870 1153 876 1155C878 1152 877 1153 879 1151C881 1149 880 1149 882 1148C886 1144 885 1145 887 1139C889 1131 894 1135 898 1125C900 1120 900 1120 902 1116C906 1110 911 1097 912 1089C914 1081 912 1072 914 1065L915 1053C914 1044 913 1043 909 1039C907 1038 908 1039 907 1036L905 1032C904 1029 904 1029 904 1029L902 1022C901 1013 900 1017 900 1006C890 1005 876 1005 868 1008H864C816 1000 824 1001 803 955C799 947 796 943 796 933C796 919 808 880 794 871C785 865 796 875 788 864C787 864 787 863 787 863C783 859 783 860 782 853C772 853 771 846 760 851C755 853 756 854 753 858C753 858 753 859 752 859C747 868 744 869 740 876C728 885 727 886 729 884L724 888L717 889C713 890 713 890 708 890C701 891 683 892 678 891C673 890 672 891 665 891C659 890 663 891 659 892C649 896 654 897 649 900L643 905C639 910 637 909 636 919C633 919 628 920 626 921C617 927 623 933 623 942C624 963 611 978 596 990C589 1000 589 994 581 1000C583 1007 586 1008 591 1011C597 1013 601 1017 607 1019C609 1020 610 1019 611 1020L618 1023C627 1025 623 1027 630 1029C640 1033 654 1032 664 1028C671 1026 674 1027 680 1025C696 1020 692 1030 706 1034C713 1037 712 1038 719 1040L732 1045C802 1060 806 1062 806 1060Z"
            fill="#FDD1A1" />
        <path fill-rule="evenodd" clip-rule="evenodd" class="state-map-path" id="yobe_state_iVetAeSEQ"
            d="M978 716C983 722 982 720 988 724C1045 769 1033 830 1032 891C1032 903 1031 900 1030 907C1029 910 1029 920 1029 924C1032 924 1031 924 1033 923C1038 920 1037 916 1045 914C1055 911 1049 912 1054 910C1058 908 1060 909 1066 907C1101 890 1194 882 1220 871C1225 869 1224 868 1227 865C1233 860 1231 865 1234 857C1237 851 1238 843 1240 836C1242 831 1243 835 1245 827C1248 812 1246 827 1253 808C1257 796 1259 802 1267 788C1270 782 1272 696 1272 685C1261 681 1044 693 1017 699C1012 700 1014 701 1010 701C994 705 996 710 989 711C983 713 983 712 978 716Z"
            fill="#F6AFCE" />
        <path fill-rule="evenodd" clip-rule="evenodd" class="state-map-path" id="yobe_state_Hp6aKBLdq"
            d="M881 1160C882 1165 886 1168 888 1172C916 1222 897 1187 920 1250C923 1257 915 1321 911 1331C906 1342 915 1339 915 1351C915 1354 916 1358 915 1360C913 1365 915 1360 913 1363C910 1369 910 1386 910 1392C923 1394 921 1385 927 1382C945 1380 999 1370 1009 1357C1012 1353 1013 1355 1016 1352C1022 1346 1021 1344 1031 1344C1032 1332 1028 1335 1024 1327C1018 1314 1017 1324 1012 1316C999 1298 1016 1301 1015 1283C1011 1280 1006 1280 1003 1275C994 1265 978 1272 976 1272C969 1268 974 1267 966 1263C962 1260 958 1258 960 1251C966 1232 1063 1218 1076 1209C1081 1206 1082 1203 1088 1202C1102 1199 1108 1202 1122 1191L1130 1184C1136 1176 1148 1176 1148 1162C1148 1161 1148 1161 1148 1161L1142 1156C1137 1151 1129 1148 1123 1141L1118 1135C1106 1124 1113 1137 1100 1118C1093 1122 1096 1127 1090 1136C1083 1136 1081 1136 1076 1134C1068 1131 1064 1124 1060 1118C1059 1117 1057 1115 1057 1114C1025 1073 946 1105 920 1075C919 1079 920 1088 919 1091C918 1096 918 1094 917 1096C914 1102 915 1104 908 1117L891 1146C888 1150 889 1145 888 1151C885 1160 886 1153 881 1160Z"
            fill="#F6AFCE" />
        <path fill-rule="evenodd" clip-rule="evenodd" class="state-map-path" id="yobe_state_jHsRppkll"
            d="M70 191C69 193 69 193 68 196C65 204 60 206 55 213C55 214 6 265 6 265C4 267 1 268 0 272V273C2 274 42 274 47 272C113 256 86 262 118 209C132 189 226 178 247 165C253 162 256 156 264 157C272 157 268 159 275 159C277 136 274 125 280 86C280 85 282 56 282 55C275 52 265 53 257 55C250 56 252 57 248 59C240 63 238 62 226 68C223 69 220 71 217 73C167 98 93 151 70 191Z"
            fill="#F6AFCE" />
        <path fill-rule="evenodd" clip-rule="evenodd" class="state-map-path" id="yobe_state_eVap6BxZY"
            d="M304 125C302 132 299 131 294 135C286 141 289 140 286 149C285 152 283 152 281 164C279 174 296 205 296 207C298 214 295 223 292 230C289 237 291 242 289 250C269 258 287 262 296 258C305 254 301 257 306 254C307 254 308 253 308 253C324 244 369 259 384 268C398 272 406 260 427 261L430 255L435 259C435 244 435 251 429 245C427 243 427 242 426 239C414 223 408 228 404 214L403 212L402 209C402 209 402 209 401 208C398 201 403 200 410 191C418 182 420 186 425 179C428 175 428 177 429 172C413 162 420 164 414 156V155C383 114 351 123 304 125Z"
            fill="#91D8F7" />
        <path fill-rule="evenodd" clip-rule="evenodd" class="state-map-path" id="yobe_state_gKLcfJVer"
            d="M565 736C560 789 573 773 604 820L605 821C619 857 612 877 619 909C620 913 619 911 619 917C625 918 625 918 628 915L634 907C637 904 638 906 641 901C644 896 646 895 650 891C656 886 658 883 661 876C664 870 666 867 665 860C664 859 665 859 662 858L660 857C657 831 661 836 662 825C663 806 687 799 704 786C709 783 718 779 720 772C716 769 712 766 706 763C703 760 703 760 699 758C696 755 689 749 685 747C680 745 681 744 678 740L677 739L669 728C667 726 665 724 664 722L663 720C663 720 663 720 662 719L653 697C651 674 660 672 659 654C654 654 645 656 641 659C637 662 638 662 636 665C634 669 628 672 625 675C621 680 618 678 607 691L597 702C592 708 590 706 583 716L579 721C574 724 571 734 565 736Z"
            fill="#F6AFCE" />
        <path fill-rule="evenodd" clip-rule="evenodd" class="state-map-path" id="yobe_state_VNzIq4btH"
            d="M680 324C678 321 675 321 672 319C668 315 671 314 668 310C656 315 655 332 653 342C652 347 649 346 650 355C653 435 734 442 737 428C738 423 738 426 734 418C732 415 730 408 730 405L726 393C725 393 725 392 725 392C726 346 701 345 680 324Z"
            fill="#D2E28B" />
    </svg>