<svg viewBox="0 0 1330 1460" fill="none" xmlns="http://www.w3.org/2000/svg">
    <path fill-rule="evenodd" clip-rule="evenodd" class="state-map-path" id="zamfara_state_LZNJ0StmF"
        d="M719 1016C671 1020 615 994 578 963C569 956 557 952 545 952C536 952 519 950 517 958C518 959 523 961 526 962C530 964 534 965 536 968L538 970C548 979 543 969 558 990C559 992 560 992 561 994C585 1030 582 1031 618 1059C624 1064 628 1067 632 1075L638 1089C642 1096 641 1101 644 1107C645 1109 646 1109 646 1110C647 1112 647 1119 647 1122C649 1148 613 1211 606 1221L598 1232C593 1238 593 1240 593 1249C593 1265 592 1272 597 1286C607 1282 610 1277 625 1279C627 1282 627 1283 630 1286C636 1293 642 1303 644 1313C646 1328 690 1396 706 1412C710 1416 714 1412 714 1431C714 1436 714 1441 714 1445C714 1453 715 1451 716 1457C731 1459 731 1465 735 1451C738 1442 743 1440 744 1429C747 1397 758 1406 769 1397C769 1397 770 1397 770 1396C771 1396 771 1396 771 1396C771 1396 771 1396 772 1395L786 1378C788 1375 789 1375 791 1372C800 1358 797 1352 819 1357C935 1383 938 1338 1023 1310C1022 1307 1021 1303 1022 1298C1023 1294 1025 1293 1028 1290C1039 1279 1040 1245 1042 1228C1043 1225 1044 1226 1044 1222C1040 1220 1038 1220 1035 1217C1004 1192 1000 1157 993 1129C987 1068 824 1037 823 1035C822 1027 823 1006 829 1001C832 998 832 996 835 993L849 979C855 974 867 961 868 954C761 904 821 852 837 791C848 745 797 676 805 639C806 633 811 623 816 618C818 616 822 612 824 609C831 600 828 608 839 600L852 590C854 559 868 547 861 519C859 514 857 510 854 504L852 500C852 500 852 499 851 499C847 499 846 499 843 500C835 503 834 503 823 497L814 489C789 461 783 483 766 467C761 462 761 459 757 458C754 459 756 458 754 460C752 462 753 462 751 463C760 507 761 478 737 516C729 528 717 610 706 641C704 645 703 650 702 654C697 666 699 670 699 688C699 803 803 831 734 952C724 970 730 992 719 1016Z"
        fill="#FDD1A1" />
    <path fill-rule="evenodd" clip-rule="evenodd" class="state-map-path" id="zamfara_state_iEMqEEV1X"
        d="M283 581C283 581 283 581 282 582C275 595 279 588 276 599C273 612 274 613 272 619C264 642 271 672 254 722C251 728 253 726 248 730C244 733 248 738 227 738C226 765 233 846 219 871C219 872 217 875 217 875C216 877 216 875 216 879C226 879 231 882 236 896C238 902 240 911 243 916L246 922C270 924 286 916 301 933C306 939 307 943 310 949C327 948 323 946 332 947C338 948 343 949 348 945C353 941 356 932 370 939C376 941 372 941 379 942C405 949 397 944 410 946C415 947 410 946 415 948C417 949 460 932 477 931C484 931 491 935 493 939C496 944 498 945 505 949L506 948C508 945 515 928 515 924C515 909 515 895 518 882C519 878 518 875 518 871C519 866 520 868 520 862C523 792 514 774 509 716C508 707 507 708 505 701C502 694 500 697 494 695C490 694 491 693 488 693C484 692 484 693 480 692C445 680 447 625 452 597L453 583C452 575 448 577 439 576L427 564C420 557 342 576 332 580C329 581 289 581 283 581Z"
        fill="#9DD3AF" />
    <path fill-rule="evenodd" clip-rule="evenodd" class="state-map-path" id="zamfara_state_JIyeURwoF"
        d="M1126 562H1118C1117 572 1114 588 1116 598L1118 652C1118 668 1114 723 1085 713C1077 711 1077 716 1069 713C1065 712 1060 708 1057 705C1052 699 1049 699 1044 690C1042 687 1041 687 1038 685C1037 683 1036 681 1035 679L1031 673C1027 665 1023 660 1022 651C1021 648 1010 620 1008 617C1004 613 1001 611 996.001 608C991.001 604 990.001 606 983.001 608C968.001 611 968.001 614 964.001 628C959.001 646 945.001 763 945.001 778C945.001 784 946.001 790 945.001 796C936.001 852 893.001 889 882.001 951C882.001 956 885.001 954 880.001 958C871.001 968 873.001 973 856.001 988C853.001 991 852.001 993 850.001 995C845.001 1000 842.001 998 840.001 1006L836.001 1013C835.001 1016 836.001 1020 836.001 1023C876.001 1038 993.001 1058 1009 1123C1013 1142 1002 1148 1015 1166C1020 1174 1022 1182 1027 1190L1046 1210C1054 1202 1055 1198 1067 1191C1069 1189 1070 1189 1073 1187C1105 1163 1099 1177 1116 1139C1119 1132 1121 1133 1122 1124C1124 1110 1143 1039 1139 1027C1136 1021 1123 1009 1116 1008C1113 1011 1113 1015 1111 1019C1111 1020 1109 1022 1108 1023C1107 1026 1109 1025 1106 1028L1092 1036C1084 1038 1080 1038 1072 1035C1064 1033 1060 1026 1054 1021L1042 1011C1029 1003 1040 1011 1025 995C1021 991 1023 992 1021 988C1020 986 1018 984 1017 981C1008 966 1009 961 1010 943C1011 934 1013 937 1014 924C1014 917 1013 910 1014 903C1016 880 1013 854 1022 834L1027 816C1027 813 1028 809 1028 806C1029 802 1029 800 1030 796C1030 793 1031 792 1032 788C1035 772 1041 773 1044 766C1048 760 1066 742 1072 740C1081 736 1079 735 1086 731C1145 694 1113 707 1180 694C1181 693 1215 697 1218 698L1234 705C1239 708 1243 711 1251 710C1243 664 1291 665 1278 614C1274 596 1271 594 1268 584C1267 579 1265 579 1263 575C1259 567 1255 568 1252 558C1245 557 1249 559 1245 559C1239 559 1224 554 1220 554C1206 554 1194 565 1174 557C1156 549 1148 562 1126 562Z"
        fill="#9DD3AF" />
    <path fill-rule="evenodd" clip-rule="evenodd" class="state-map-path" id="zamfara_state_Fbzcf843q"
        d="M1008 50C1011 64 1018 77 1025 89C1029 96 1032 106 1032 115C1032 158 963 187 942 160C918 128 906 160 876 131C874 128 873 127 869 126C863 135 866 136 867 140C872 163 854 174 854 181C871 182 873 178 884 190C914 222 870 235 850 239C847 239 845 238 841 238C842 244 843 246 844 252C844 273 853 262 870 266L879 268C880 269 882 270 883 270C901 278 892 278 899 289C902 293 905 293 909 294C913 296 934 301 939 301C963 299 976 304 1001 314C1004 315 1008 316 1011 318C1012 319 1012 319 1012 319C1016 322 1020 325 1021 329C1030 356 1025 341 1037 353C1039 355 1038 355 1040 357C1043 359 1045 358 1049 360C1053 362 1057 369 1064 367C1071 365 1073 359 1081 360C1112 364 1092 383 1089 393C1091 395 1091 394 1095 396C1098 398 1098 398 1102 399L1108 384C1109 381 1114 374 1117 372C1122 368 1124 364 1131 364C1137 364 1199 361 1202 360C1211 359 1214 356 1219 356C1220 349 1218 345 1218 341L1219 327C1222 311 1208 256 1208 236C1208 205 1217 165 1216 145C1215 139 1213 120 1211 115C1193 115 1200 115 1185 112C1173 109 1155 114 1146 104C1145 102 1142 95 1141 93C1118 65 1106 51 1085 21L1078 12C1075 7 1074 5 1070 4L1068 6V7C1063 16 1033 32 1024 39C1018 43 1012 45 1008 50Z"
        fill="#91D8F7" />
    <path fill-rule="evenodd" clip-rule="evenodd" class="state-map-path" id="zamfara_state_k0Dy4EyeJ"
        d="M477 523C474 535 474 527 472 548C471 552 470 555 468 559L465 564C464 566 464 567 462 568C465 587 465 594 462 609C461 613 461 619 461 624C458 642 463 636 463 649C463 653 467 672 469 674L490 681C501 685 505 679 512 690C514 693 521 719 522 724C523 728 522 733 523 738C526 756 534 782 533 800L532 838C533 843 531 841 530 848C530 852 530 858 530 863C529 868 528 868 528 876C528 899 523 907 523 930C523 938 522 938 521 943C531 943 561 942 569 945L586 955C589 956 592 957 595 958L610 969C613 971 614 972 617 974L627 982C628 983 628 983 628 983C633 989 649 994 657 999C660 1000 664 1001 669 1001C679 1001 682 1005 690 1005C704 1005 699 1013 714 1004C715 997 716 991 716 984C717 978 716 965 720 955C765 846 740 844 708 778C692 733 686 706 689 660C685 660 685 661 681 663C659 671 625 669 606 653C603 650 596 650 591 645C556 607 568 562 552 531C551 528 550 527 547 524C542 518 545 522 530 520C521 520 511 522 498 523C490 523 488 520 477 523Z"
        fill="#F6AFCE" />
    <path fill-rule="evenodd" clip-rule="evenodd" class="state-map-path" id="zamfara_state_bqAfQfBnQ"
        d="M722 444C725 453 728 453 732 458C736 462 733 462 741 462C742 460 742 456 743 454C744 453 747 448 749 448C759 442 766 452 772 457C776 461 775 460 780 460C788 461 781 461 788 463C798 465 806 465 813 472C815 474 817 476 818 478C837 507 856 485 868 470C875 457 878 448 871 434C867 425 869 402 866 390C863 379 864 368 866 357C866 352 866 354 867 350C868 339 866 333 872 324C875 320 877 311 880 307L885 296C887 291 889 291 885 286C881 281 875 279 869 277C860 274 835 279 833 265C833 260 833 255 832 249C831 244 829 242 830 235C830 231 833 226 835 223C845 222 846 228 856 225C878 219 877 225 876 205C876 202 876 199 874 196C874 196 874 196 874 195L848 193C844 185 841 185 842 177C843 174 842 176 843 173C844 168 850 164 853 155C857 146 853 137 856 129C856 128 858 125 859 122C861 113 854 114 858 106C858 106 859 104 860 104C862 100 864 99 867 97C879 90 878 80 867 79C862 79 865 81 858 82C853 82 851 80 848 79C843 79 773 67 770 68C768 71 767 76 763 81C756 90 747 79 744 77C720 60 732 63 701 59C695 58 692 59 686 62C682 64 678 67 674 69C669 72 667 74 661 76C654 78 654 80 649 83C634 93 631 87 634 104C635 108 635 107 636 112C636 116 636 115 637 120C640 129 633 151 630 160C628 164 628 165 628 170C628 188 631 187 634 203C643 247 658 282 684 319C685 322 686 322 687 325C731 401 696 385 722 444Z"
        fill="#F6AFCE" />
    <path fill-rule="evenodd" clip-rule="evenodd" class="state-map-path" id="zamfara_state_EsPtaOQ5M"
        d="M124 903C132 898 133 902 133 889L129 886C125 846 162 898 200 879C201 878 209 869 210 868L212 861C221 836 213 765 215 735C222 730 216 735 220 728C224 728 236 730 245 717C246 714 248 706 249 703L255 683C262 667 257 640 260 620C263 600 269 593 267 577C246 576 258 574 252 572C213 569 176 559 135 562C126 562 131 565 122 565C49.0005 568 78.0005 568 30.0005 550C25.0005 555 22.0005 560 19.0005 568C16.0005 575 16.0005 589 16.0005 597C16.0005 629 15.0005 821 10.0005 838C7.00045 847 11.0005 851 5.00045 864C2.00045 873 -0.999547 878 2.00045 892C6.00045 914 16.0005 902 23.0005 901C31.0005 899 99.0005 921 124 903Z"
        fill="#F6AFCE" />
    <path fill-rule="evenodd" clip-rule="evenodd" class="state-map-path" id="zamfara_state_dvtIXNxuS"
        d="M891.001 448C888.001 453 866.001 492 866.001 495C866.001 502 868.001 496 863.001 502C867.001 513 875.001 519 875.001 533C875.001 538 860.001 597 859.001 598C856.001 602 853.001 606 848.001 608C838.001 614 836.001 617 830.001 620C825.001 623 822.001 626 820.001 631C818.001 634 819.001 632 818.001 635C816.001 642 813.001 648 814.001 656C830.001 726 845.001 707 845.001 796C845.001 827 772.001 897 861.001 939L874.001 945C875.001 941 877.001 936 877.001 934C877.001 927 877.001 928 880.001 921C883.001 914 883.001 906 886.001 898C896.001 872 923.001 834 931.001 806C932.001 803 932.001 801 932.001 799C933.001 793 936.001 778 934.001 773C931.001 764 945.001 656 952.001 637C954.001 631 952.001 630 953.001 624C954.001 620 957.001 618 958.001 614C961.001 606 964.001 601 967.001 593C973.001 592 971.001 593 975.001 594L998.001 596C1012 598 1017 610 1021 616C1024 622 1027 628 1029 635C1030 640 1031 644 1031 650C1032 655 1035 657 1037 662C1039 669 1036 664 1040 668C1041 669 1042 670 1044 673L1061 695L1070 700C1075 703 1077 703 1085 703C1093 703 1093 701 1096 696C1107 681 1107 677 1107 659C1107 650 1107 641 1107 632C1107 625 1106 624 1106 619C1106 608 1105 586 1106 577C1107 570 1109 560 1100 557C1096 556 1093 557 1089 555C1083 554 1084 554 1077 554C1069 553 1072 553 1067 550C1064 548 1058 547 1055 547C1046 546 1051 548 1045 543C1042 541 1043 542 1040 541C1036 540 1032 534 1025 537L1015 541C1008 542 999.001 544 993.001 539C981.001 531 984.001 517 979.001 512C977.001 510 977.001 511 975.001 509C971.001 506 969.001 502 964.001 499C953.001 467 936.001 457 891.001 448Z"
        fill="#91D8F7" />
    <path fill-rule="evenodd" clip-rule="evenodd" class="state-map-path" id="zamfara_state_R6qrso4Px"
        d="M1024 906C1024 911 1024 916 1024 921C1024 943 1013 959 1025 974C1034 984 1027 987 1045 1000C1050 1005 1056 1008 1062 1014C1065 1017 1071 1026 1079 1027C1092 1029 1095 1020 1097 1017C1097 1017 1097 1017 1097 1016L1099 1013C1099 1012 1098 1013 1101 1009L1110 998C1108 943 1129 931 1129 912V879C1129 873 1135 861 1136 860C1137 860 1198 844 1208 852C1212 856 1218 858 1225 857L1238 844C1273 783 1277 806 1321 786C1331 782 1332 781 1322 767C1313 755 1316 744 1301 743C1299 743 1296 743 1293 741C1291 741 1293 741 1290 740C1284 736 1286 739 1278 733C1263 722 1268 722 1253 722C1237 723 1237 717 1223 712C1219 710 1211 709 1206 708C1202 708 1200 709 1197 708C1150 697 1130 718 1094 739L1082 748C1072 755 1075 751 1064 761C1030 792 1024 863 1024 906Z"
        fill="#F6AFCE" />
    <path fill-rule="evenodd" clip-rule="evenodd" class="state-map-path" id="zamfara_state_leiQaSkT9"
        d="M566 439C562 445 559 448 557 455C552 467 554 473 553 478C551 486 550 498 552 506L556 517C556 517 558 520 558 521C560 526 559 523 562 527C564 530 567 560 570 571C576 596 588 625 606 642C610 645 613 647 618 650C637 661 659 656 679 653C685 651 683 650 686 649C693 645 690 653 696 638C709 602 711 544 724 519C726 515 725 517 727 511C729 500 735 500 741 493C743 491 747 482 747 478C742 474 742 477 733 477C730 470 724 467 720 461C716 455 716 457 713 453L702 432C701 429 702 432 702 430C702 430 701 430 701 429L699 425C697 419 699 403 699 396C701 387 700 380 699 371C695 354 683 343 675 327C673 323 668 316 665 313C644 387 600 394 566 439Z"
        fill="#91D8F7" />
    <path fill-rule="evenodd" clip-rule="evenodd" class="state-map-path" id="zamfara_state_fzgnlmb1R"
        d="M472 381C473 396 484 421 484 438C484 448 489 468 487 478C486 482 485 481 484 484C483 490 485 484 484 490C482 498 483 502 482 512C487 512 490 512 496 513C504 513 507 511 512 511C516 511 515 512 519 511L541 508C542 503 540 501 541 497C541 484 541 471 543 459C552 428 622 387 635 352C644 342 643 345 645 341C648 336 650 318 652 312C654 306 658 299 656 289C655 285 652 284 650 281C641 267 594 259 575 257C565 244 536 228 524 217C495 191 448 243 439 268C433 287 464 367 472 381Z"
        fill="#9DD3AF" />
    <path fill-rule="evenodd" clip-rule="evenodd" class="state-map-path" id="zamfara_state_TGwj9QkrR"
        d="M1130 376C1117 383 1119 393 1113 404C1108 412 1090 410 1078 398C1078 398 1073 394 1075 389C1077 385 1075 388 1078 386C1083 381 1086 377 1086 372C1072 372 1074 377 1068 379C1056 382 1055 376 1049 374C1043 389 1023 378 1013 413C1011 421 1017 436 1019 443C1025 457 1023 461 1024 476C1027 479 1030 481 1035 484C1038 486 1062 511 1065 515L1087 533C1100 538 1092 537 1099 540C1107 544 1119 552 1127 553C1131 553 1158 544 1158 544C1162 543 1172 545 1176 545C1181 546 1183 544 1187 546C1187 546 1189 547 1190 547C1198 551 1204 545 1211 544C1225 542 1232 548 1247 548C1247 547 1251 544 1251 543C1252 541 1252 537 1251 534C1250 527 1250 523 1247 518C1240 507 1242 504 1239 500C1238 497 1237 496 1236 493C1232 478 1235 476 1230 463C1228 458 1228 453 1228 447L1223 416C1215 382 1230 367 1212 370C1199 373 1140 372 1130 376Z"
        fill="#F6AFCE" />
    <path fill-rule="evenodd" clip-rule="evenodd" class="state-map-path" id="zamfara_state_ggx1tdLCv"
        d="M885.001 436C999.001 470 924.001 440 982.001 500C987.001 505 988.001 504 991.001 512C993.001 520 994.001 536 1012 530C1020 527 1036 523 1046 530C1060 541 1085 543 1090 548C1089 543 1086 543 1083 541L1067 533L1057 523C1054 519 1057 520 1053 517C1012 478 1030 504 1011 454C1005 437 997.001 415 1005 399C1006 397 1007 395 1008 393C1013 384 1020 379 1028 375C1031 373 1032 373 1035 371C1038 370 1039 369 1039 366C1032 362 1036 366 1022 356C1009 347 1018 344 1009 330C1001 318 935.001 311 916.001 308C910.001 308 903.001 303 894.001 303C883.001 321 893.001 310 885.001 324C884.001 327 883.001 329 882.001 331C874.001 346 878.001 352 875.001 366C872.001 381 880.001 409 880.001 420C880.001 426 882.001 425 884.001 432C884.001 433 883.001 433 885.001 436Z"
        fill="#FDD1A1" />
    <path fill-rule="evenodd" clip-rule="evenodd" class="state-map-path" id="zamfara_state_WJzoWZyHc"
        d="M772 57C810 75 876 57 887 82C891 93 889 92 883 98L873 107C871 109 872 107 870 111C873 117 874 113 884 121C886 123 887 122 889 125L892 132C908 133 938 132 947 149C951 156 960 161 971 159C972 159 998 150 998 150C1003 147 1012 137 1015 131C1017 129 1020 121 1020 119C1024 105 1002 68 997 55C997 55 997 55 996 54C954 64 921 57 883 38C878 35 877 36 873 32C866 23 829 6 819 5C814 5 816 4 813 4C809 2 782 -4.88758e-06 775 0.999995C768 11 774 13 773 28C773 36 770 51 772 57Z"
        fill="#9DD3AF" />
    <path
        d="M621.624 788.182L619.275 781.778L616.872 788.182H621.624ZM615.534 791.869L613.991 796.034H609.962L617.677 776.152H621.037L628.643 796.034H624.478L622.907 791.869H615.534ZM632.835 781.013V782.72C633.345 782.037 633.927 781.532 634.583 781.204C635.247 780.877 636.003 780.713 636.85 780.713C637.933 780.713 638.875 780.917 639.676 781.327C640.486 781.737 641.16 782.351 641.697 783.171C642.043 783.717 642.289 784.34 642.435 785.041C642.589 785.733 642.667 786.748 642.667 788.087V796.034H639.171V789.384C639.171 787.372 638.939 785.993 638.475 785.246C638.01 784.5 637.209 784.126 636.071 784.126C634.906 784.126 634.068 784.541 633.559 785.369C633.049 786.188 632.794 787.599 632.794 789.602V796.034H629.421V781.013H632.835ZM649.071 796.034H645.698V776.152H649.071V787.977L653.946 781.013H657.892L652.69 788.141L658.917 796.034H654.533L649.071 788.401V796.034ZM661.73 788.401C661.73 789.666 662.148 790.727 662.986 791.582C663.832 792.429 664.861 792.852 666.072 792.852C667.173 792.852 668.143 792.424 668.98 791.569C669.818 790.713 670.237 789.712 670.237 788.564C670.237 787.345 669.813 786.298 668.967 785.424C668.129 784.541 667.146 784.099 666.017 784.099C664.834 784.099 663.823 784.518 662.986 785.355C662.148 786.184 661.73 787.199 661.73 788.401ZM670.633 796.034V794.19C670.214 794.937 669.622 795.488 668.858 795.843C668.102 796.198 667.132 796.375 665.949 796.375C663.728 796.375 661.871 795.62 660.378 794.109C658.894 792.588 658.152 790.704 658.152 788.455C658.152 787.399 658.338 786.398 658.712 785.451C659.085 784.504 659.618 783.671 660.309 782.952C661.056 782.16 661.884 781.578 662.795 781.204C663.705 780.822 664.729 780.631 665.867 780.631C666.96 780.631 667.897 780.813 668.68 781.177C669.472 781.541 670.109 782.092 670.592 782.829V781.013H674.006V796.034H670.633Z"
        fill="#373435" />
    <path
        d="M486.476 348.154H486.926C488.001 348.154 488.802 347.963 489.33 347.58C489.858 347.189 490.122 346.606 490.122 345.832C490.122 345.086 489.871 344.535 489.371 344.18C488.87 343.825 488.092 343.648 487.036 343.648H486.476V348.154ZM486.476 356.538H487.65C488.834 356.538 489.703 356.342 490.258 355.951C490.814 355.55 491.091 354.936 491.091 354.108C491.091 353.206 490.8 352.524 490.217 352.059C489.635 351.595 488.779 351.363 487.65 351.363H486.476V356.538ZM482.734 360.034V340.152H487.008C487.873 340.152 488.56 340.188 489.07 340.261C489.58 340.325 490.031 340.439 490.422 340.602C491.515 341.048 492.352 341.69 492.935 342.528C493.517 343.365 493.809 344.344 493.809 345.464C493.809 346.392 493.636 347.184 493.29 347.84C492.944 348.495 492.434 348.991 491.76 349.328C492.744 349.619 493.517 350.179 494.082 351.008C494.646 351.836 494.928 352.824 494.928 353.971C494.928 354.9 494.755 355.773 494.41 356.593C494.064 357.403 493.586 358.077 492.976 358.614C492.366 359.124 491.683 359.488 490.927 359.706C490.172 359.925 489.102 360.034 487.718 360.034H482.734ZM499.612 352.401C499.612 353.666 500.031 354.727 500.868 355.582C501.715 356.429 502.744 356.852 503.955 356.852C505.056 356.852 506.026 356.424 506.863 355.569C507.701 354.713 508.119 353.712 508.119 352.564C508.119 351.345 507.696 350.298 506.85 349.424C506.012 348.541 505.029 348.099 503.9 348.099C502.717 348.099 501.706 348.518 500.868 349.355C500.031 350.184 499.612 351.199 499.612 352.401ZM508.515 360.034V358.19C508.097 358.937 507.505 359.488 506.74 359.843C505.985 360.198 505.015 360.375 503.832 360.375C501.61 360.375 499.753 359.62 498.26 358.109C496.776 356.588 496.035 354.704 496.035 352.455C496.035 351.399 496.221 350.398 496.594 349.451C496.968 348.504 497.5 347.671 498.192 346.952C498.939 346.16 499.767 345.578 500.677 345.204C501.588 344.822 502.612 344.631 503.75 344.631C504.842 344.631 505.78 344.813 506.563 345.177C507.355 345.541 507.992 346.092 508.475 346.829V345.013H511.888V360.034H508.515ZM518.334 360.034H514.961V340.152H518.334V351.977L523.209 345.013H527.155L521.952 352.141L528.179 360.034H523.796L518.334 352.401V360.034ZM538.584 360.034V358.409C538.075 359.092 537.488 359.602 536.823 359.938C536.168 360.266 535.416 360.43 534.57 360.43C532.685 360.43 531.238 359.852 530.227 358.696C529.217 357.54 528.712 355.878 528.712 353.712V345.013H532.248V351.759C532.248 353.789 532.481 355.177 532.945 355.924C533.409 356.67 534.21 357.043 535.348 357.043C536.513 357.043 537.346 356.625 537.847 355.787C538.357 354.95 538.612 353.529 538.612 351.527V345.013H542.053V360.034H538.584ZM552.131 348.058C550.774 348.167 549.827 348.522 549.29 349.123C548.753 349.724 548.485 350.807 548.485 352.373V360.034H544.989V345.013H548.266V346.747C548.794 346.074 549.372 345.582 550 345.273C550.628 344.954 551.339 344.795 552.131 344.795V348.058ZM556.2 352.401C556.2 353.666 556.619 354.727 557.456 355.582C558.303 356.429 559.331 356.852 560.542 356.852C561.644 356.852 562.613 356.424 563.451 355.569C564.288 354.713 564.707 353.712 564.707 352.564C564.707 351.345 564.284 350.298 563.437 349.424C562.6 348.541 561.616 348.099 560.488 348.099C559.304 348.099 558.294 348.518 557.456 349.355C556.619 350.184 556.2 351.199 556.2 352.401ZM565.103 360.034V358.19C564.684 358.937 564.093 359.488 563.328 359.843C562.572 360.198 561.603 360.375 560.419 360.375C558.198 360.375 556.341 359.62 554.848 358.109C553.364 356.588 552.622 354.704 552.622 352.455C552.622 351.399 552.809 350.398 553.182 349.451C553.555 348.504 554.088 347.671 554.78 346.952C555.526 346.16 556.355 345.578 557.265 345.204C558.175 344.822 559.199 344.631 560.337 344.631C561.43 344.631 562.368 344.813 563.15 345.177C563.942 345.541 564.58 346.092 565.062 346.829V345.013H568.476V360.034H565.103Z"
        fill="#373435" />
    <path
        d="M1052.48 452.154H1052.93C1054 452.154 1054.8 451.963 1055.33 451.58C1055.86 451.189 1056.12 450.606 1056.12 449.832C1056.12 449.086 1055.87 448.535 1055.37 448.18C1054.87 447.825 1054.09 447.648 1053.04 447.648H1052.48V452.154ZM1052.48 460.538H1053.65C1054.83 460.538 1055.7 460.342 1056.26 459.951C1056.81 459.55 1057.09 458.936 1057.09 458.108C1057.09 457.206 1056.8 456.524 1056.22 456.059C1055.63 455.595 1054.78 455.363 1053.65 455.363H1052.48V460.538ZM1048.73 464.034V444.152H1053.01C1053.87 444.152 1054.56 444.188 1055.07 444.261C1055.58 444.325 1056.03 444.439 1056.42 444.602C1057.51 445.048 1058.35 445.69 1058.93 446.528C1059.52 447.365 1059.81 448.344 1059.81 449.464C1059.81 450.392 1059.64 451.184 1059.29 451.84C1058.94 452.495 1058.43 452.991 1057.76 453.328C1058.74 453.619 1059.52 454.179 1060.08 455.008C1060.65 455.836 1060.93 456.824 1060.93 457.971C1060.93 458.9 1060.76 459.773 1060.41 460.593C1060.06 461.403 1059.59 462.077 1058.98 462.614C1058.37 463.124 1057.68 463.488 1056.93 463.706C1056.17 463.925 1055.1 464.034 1053.72 464.034H1048.73ZM1066.38 447.484H1062.96V444.152H1066.38V447.484ZM1062.96 464.034V449.013H1066.38V464.034H1062.96ZM1076.51 452.058C1075.15 452.167 1074.21 452.522 1073.67 453.123C1073.13 453.724 1072.86 454.807 1072.86 456.373V464.034H1069.37V449.013H1072.64V450.747C1073.17 450.074 1073.75 449.582 1074.38 449.273C1075.01 448.954 1075.72 448.795 1076.51 448.795V452.058ZM1081.86 449.013V450.72C1082.37 450.037 1082.95 449.532 1083.61 449.204C1084.27 448.877 1085.03 448.713 1085.88 448.713C1086.96 448.713 1087.9 448.917 1088.7 449.327C1089.51 449.737 1090.19 450.351 1090.72 451.171C1091.07 451.717 1091.32 452.34 1091.46 453.041C1091.62 453.733 1091.69 454.748 1091.69 456.087V464.034H1088.2V457.384C1088.2 455.372 1087.97 453.993 1087.5 453.246C1087.04 452.5 1086.24 452.126 1085.1 452.126C1083.93 452.126 1083.1 452.541 1082.59 453.369C1082.08 454.188 1081.82 455.599 1081.82 457.602V464.034H1078.45V449.013H1081.86ZM1098.17 447.484H1094.75V444.152H1098.17V447.484ZM1094.75 464.034V449.013H1098.17V464.034H1094.75ZM1104.72 449.013V450.72C1105.23 450.037 1105.81 449.532 1106.47 449.204C1107.13 448.877 1107.89 448.713 1108.74 448.713C1109.82 448.713 1110.76 448.917 1111.56 449.327C1112.37 449.737 1113.05 450.351 1113.58 451.171C1113.93 451.717 1114.18 452.34 1114.32 453.041C1114.48 453.733 1114.55 454.748 1114.55 456.087V464.034H1111.06V457.384C1111.06 455.372 1110.82 453.993 1110.36 453.246C1109.9 452.5 1109.1 452.126 1107.96 452.126C1106.79 452.126 1105.95 452.541 1105.44 453.369C1104.93 454.188 1104.68 455.599 1104.68 457.602V464.034H1101.31V449.013H1104.72ZM1129.68 464.034H1125.83V444.152H1130.98L1136.03 458.613L1141.07 444.152H1146.22V464.034H1142.38L1142.52 449.6L1137.49 464.034H1134.56L1129.52 449.6L1129.68 464.034ZM1152.11 456.401C1152.11 457.666 1152.52 458.727 1153.36 459.582C1154.21 460.429 1155.24 460.852 1156.45 460.852C1157.55 460.852 1158.52 460.424 1159.36 459.569C1160.19 458.713 1160.61 457.712 1160.61 456.564C1160.61 455.345 1160.19 454.298 1159.34 453.424C1158.5 452.541 1157.52 452.099 1156.39 452.099C1155.21 452.099 1154.2 452.518 1153.36 453.355C1152.52 454.184 1152.11 455.199 1152.11 456.401ZM1161.01 464.034V462.19C1160.59 462.937 1160 463.488 1159.23 463.843C1158.48 464.198 1157.51 464.375 1156.32 464.375C1154.1 464.375 1152.25 463.62 1150.75 462.109C1149.27 460.588 1148.53 458.704 1148.53 456.455C1148.53 455.399 1148.71 454.398 1149.09 453.451C1149.46 452.504 1149.99 451.671 1150.68 450.952C1151.43 450.16 1152.26 449.578 1153.17 449.204C1154.08 448.822 1155.1 448.631 1156.24 448.631C1157.34 448.631 1158.27 448.813 1159.06 449.177C1159.85 449.541 1160.48 450.092 1160.97 450.829V449.013H1164.38V464.034H1161.01ZM1179.36 449.013H1182.49V461.549C1182.49 464.152 1181.79 466.196 1180.4 467.68C1179.02 469.164 1177.11 469.906 1174.69 469.906C1172.88 469.906 1171.36 469.478 1170.14 468.622C1168.92 467.775 1168.03 466.515 1167.45 464.84H1170.83C1171.19 465.513 1171.71 466.041 1172.38 466.424C1173.06 466.806 1173.81 466.997 1174.64 466.997C1176.03 466.997 1177.16 466.542 1178.02 465.632C1178.9 464.73 1179.33 463.538 1179.33 462.054V461.904C1178.66 462.605 1177.89 463.137 1177.03 463.501C1176.16 463.856 1175.21 464.034 1174.19 464.034C1173.18 464.034 1172.23 463.861 1171.33 463.515C1170.44 463.169 1169.65 462.673 1168.96 462.027C1168.21 461.317 1167.62 460.47 1167.19 459.487C1166.77 458.504 1166.55 457.502 1166.55 456.483C1166.55 454.207 1167.27 452.331 1168.71 450.857C1170.15 449.373 1171.97 448.631 1174.19 448.631C1175.2 448.631 1176.12 448.808 1176.97 449.163C1177.83 449.518 1178.62 450.065 1179.36 450.802V449.013ZM1170.02 456.264C1170.02 457.575 1170.46 458.672 1171.33 459.555C1172.21 460.438 1173.3 460.88 1174.58 460.88C1175.76 460.88 1176.79 460.433 1177.68 459.541C1178.58 458.649 1179.03 457.611 1179.03 456.428C1179.03 455.144 1178.59 454.052 1177.71 453.151C1176.83 452.24 1175.77 451.785 1174.55 451.785C1173.3 451.785 1172.23 452.218 1171.35 453.082C1170.46 453.947 1170.02 455.008 1170.02 456.264ZM1188.16 456.401C1188.16 457.666 1188.57 458.727 1189.41 459.582C1190.26 460.429 1191.29 460.852 1192.5 460.852C1193.6 460.852 1194.57 460.424 1195.41 459.569C1196.24 458.713 1196.66 457.712 1196.66 456.564C1196.66 455.345 1196.24 454.298 1195.39 453.424C1194.55 452.541 1193.57 452.099 1192.44 452.099C1191.26 452.099 1190.25 452.518 1189.41 453.355C1188.57 454.184 1188.16 455.199 1188.16 456.401ZM1197.06 464.034V462.19C1196.64 462.937 1196.05 463.488 1195.28 463.843C1194.53 464.198 1193.56 464.375 1192.37 464.375C1190.15 464.375 1188.3 463.62 1186.8 462.109C1185.32 460.588 1184.58 458.704 1184.58 456.455C1184.58 455.399 1184.76 454.398 1185.14 453.451C1185.51 452.504 1186.04 451.671 1186.73 450.952C1187.48 450.16 1188.31 449.578 1189.22 449.204C1190.13 448.822 1191.15 448.631 1192.29 448.631C1193.39 448.631 1194.32 448.813 1195.11 449.177C1195.9 449.541 1196.53 450.092 1197.02 450.829V449.013H1200.43V464.034H1197.06ZM1206.97 449.013V463.501C1206.97 465.677 1206.66 467.12 1206.04 467.83C1205.43 468.54 1204.3 468.895 1202.66 468.895C1202.41 468.895 1202.22 468.891 1202.1 468.882C1201.97 468.882 1201.85 468.877 1201.74 468.868V465.481H1201.85C1202.54 465.481 1203 465.336 1203.23 465.044C1203.47 464.762 1203.59 464.016 1203.59 462.805V449.013H1206.97ZM1206.97 447.484H1203.59V444.152H1206.97V447.484ZM1213.8 447.484H1210.39V444.152H1213.8V447.484ZM1210.39 464.034V449.013H1213.8V464.034H1210.39Z"
        fill="#373435" />
    <path
        d="M319.476 769.154H319.926C321.001 769.154 321.802 768.963 322.33 768.58C322.858 768.189 323.122 767.606 323.122 766.832C323.122 766.086 322.871 765.535 322.371 765.18C321.87 764.825 321.092 764.648 320.036 764.648H319.476V769.154ZM319.476 777.538H320.65C321.834 777.538 322.703 777.342 323.258 776.951C323.814 776.55 324.091 775.936 324.091 775.108C324.091 774.206 323.8 773.524 323.217 773.059C322.635 772.595 321.779 772.363 320.65 772.363H319.476V777.538ZM315.734 781.034V761.152H320.008C320.873 761.152 321.56 761.188 322.07 761.261C322.58 761.325 323.031 761.439 323.422 761.602C324.515 762.048 325.352 762.69 325.935 763.528C326.517 764.365 326.809 765.344 326.809 766.464C326.809 767.392 326.636 768.184 326.29 768.84C325.944 769.495 325.434 769.991 324.76 770.328C325.744 770.619 326.517 771.179 327.082 772.008C327.646 772.836 327.928 773.824 327.928 774.971C327.928 775.9 327.755 776.773 327.41 777.593C327.064 778.403 326.586 779.077 325.976 779.614C325.366 780.124 324.683 780.488 323.927 780.706C323.172 780.925 322.102 781.034 320.718 781.034H315.734ZM339.713 781.034V779.409C339.203 780.092 338.616 780.602 337.951 780.938C337.296 781.266 336.545 781.43 335.698 781.43C333.814 781.43 332.366 780.852 331.356 779.696C330.345 778.54 329.84 776.878 329.84 774.712V766.013H333.377V772.759C333.377 774.789 333.609 776.177 334.073 776.924C334.538 777.67 335.339 778.043 336.477 778.043C337.642 778.043 338.475 777.625 338.976 776.787C339.485 775.95 339.74 774.529 339.74 772.527V766.013H343.181V781.034H339.713ZM349.613 781.034H346.24V761.152H349.613V772.977L354.488 766.013H358.434L353.232 773.141L359.459 781.034H355.075L349.613 773.401V781.034ZM363.46 781.034H360.087V761.152H363.46V772.977L368.335 766.013H372.281L367.078 773.141L373.305 781.034H368.922L363.46 773.401V781.034ZM383.71 781.034V779.409C383.201 780.092 382.613 780.602 381.949 780.938C381.293 781.266 380.542 781.43 379.696 781.43C377.811 781.43 376.364 780.852 375.353 779.696C374.343 778.54 373.838 776.878 373.838 774.712V766.013H377.374V772.759C377.374 774.789 377.606 776.177 378.071 776.924C378.535 777.67 379.336 778.043 380.474 778.043C381.639 778.043 382.472 777.625 382.973 776.787C383.483 775.95 383.738 774.529 383.738 772.527V766.013H387.179V781.034H383.71ZM388.381 766.013H392.081L395.741 776.5L399.769 766.013H403.429L395.317 785.895H391.712L393.815 780.611L388.381 766.013ZM414.353 781.034V779.409C413.843 780.092 413.256 780.602 412.591 780.938C411.936 781.266 411.185 781.43 410.338 781.43C408.454 781.43 407.006 780.852 405.996 779.696C404.985 778.54 404.48 776.878 404.48 774.712V766.013H408.017V772.759C408.017 774.789 408.249 776.177 408.713 776.924C409.178 777.67 409.979 778.043 411.117 778.043C412.282 778.043 413.115 777.625 413.616 776.787C414.125 775.95 414.38 774.529 414.38 772.527V766.013H417.821V781.034H414.353ZM424.321 766.013V767.72C424.831 767.037 425.414 766.532 426.069 766.204C426.734 765.877 427.489 765.713 428.336 765.713C429.547 765.713 430.58 765.927 431.436 766.354C432.301 766.782 433.043 767.451 433.662 768.362C434.253 767.47 434.918 766.805 435.655 766.368C436.393 765.931 437.207 765.713 438.1 765.713C439.938 765.713 441.35 766.291 442.333 767.447C443.316 768.603 443.807 770.26 443.807 772.417V781.034H440.366V774.384C440.366 772.345 440.139 770.961 439.684 770.233C439.238 769.495 438.459 769.126 437.349 769.126C436.192 769.126 435.364 769.541 434.863 770.369C434.372 771.188 434.126 772.599 434.126 774.602V781.034H430.657V774.384C430.657 772.354 430.425 770.97 429.961 770.233C429.506 769.495 428.705 769.126 427.558 769.126C426.392 769.126 425.555 769.541 425.045 770.369C424.535 771.188 424.28 772.599 424.28 774.602V781.034H420.908V766.013H424.321Z"
        fill="#373435" />
    <path
        d="M903.476 561.154H903.926C905.001 561.154 905.802 560.963 906.33 560.58C906.858 560.189 907.122 559.606 907.122 558.832C907.122 558.086 906.871 557.535 906.371 557.18C905.87 556.825 905.092 556.648 904.036 556.648H903.476V561.154ZM903.476 569.538H904.65C905.834 569.538 906.703 569.342 907.258 568.951C907.814 568.55 908.091 567.936 908.091 567.108C908.091 566.206 907.8 565.524 907.217 565.059C906.635 564.595 905.779 564.363 904.65 564.363H903.476V569.538ZM899.734 573.034V553.152H904.008C904.873 553.152 905.56 553.188 906.07 553.261C906.58 553.325 907.031 553.439 907.422 553.602C908.515 554.048 909.352 554.69 909.935 555.528C910.517 556.365 910.809 557.344 910.809 558.464C910.809 559.392 910.636 560.184 910.29 560.84C909.944 561.495 909.434 561.991 908.76 562.328C909.744 562.619 910.517 563.179 911.082 564.008C911.646 564.836 911.928 565.824 911.928 566.971C911.928 567.9 911.755 568.773 911.41 569.593C911.064 570.403 910.586 571.077 909.976 571.614C909.366 572.124 908.683 572.488 907.927 572.706C907.172 572.925 906.102 573.034 904.718 573.034H899.734ZM923.713 573.034V571.409C923.203 572.092 922.616 572.602 921.951 572.938C921.296 573.266 920.545 573.43 919.698 573.43C917.814 573.43 916.366 572.852 915.356 571.696C914.345 570.54 913.84 568.878 913.84 566.712V558.013H917.377V564.759C917.377 566.789 917.609 568.177 918.073 568.924C918.538 569.67 919.339 570.043 920.477 570.043C921.642 570.043 922.475 569.625 922.976 568.787C923.485 567.95 923.74 566.529 923.74 564.527V558.013H927.181V573.034H923.713ZM933.681 558.013V559.72C934.191 559.037 934.774 558.532 935.429 558.204C936.094 557.877 936.849 557.713 937.696 557.713C938.779 557.713 939.722 557.917 940.523 558.327C941.333 558.737 942.007 559.351 942.544 560.171C942.89 560.717 943.135 561.34 943.281 562.041C943.436 562.733 943.513 563.748 943.513 565.087V573.034H940.017V566.384C940.017 564.372 939.785 562.993 939.321 562.246C938.857 561.5 938.056 561.126 936.918 561.126C935.752 561.126 934.915 561.541 934.405 562.369C933.895 563.188 933.64 564.599 933.64 566.602V573.034H930.268V558.013H933.681ZM958.452 558.013H961.579V570.549C961.579 573.152 960.883 575.196 959.49 576.68C958.106 578.164 956.204 578.906 953.782 578.906C951.97 578.906 950.455 578.478 949.235 577.622C948.015 576.775 947.118 575.515 946.545 573.84H949.918C950.282 574.513 950.801 575.041 951.474 575.424C952.148 575.806 952.899 575.997 953.727 575.997C955.12 575.997 956.249 575.542 957.114 574.632C957.988 573.73 958.425 572.538 958.425 571.054V570.904C957.751 571.605 956.982 572.137 956.117 572.501C955.252 572.856 954.305 573.034 953.277 573.034C952.275 573.034 951.324 572.861 950.423 572.515C949.531 572.169 948.739 571.673 948.047 571.027C947.3 570.317 946.713 569.47 946.285 568.487C945.857 567.504 945.643 566.502 945.643 565.483C945.643 563.207 946.363 561.331 947.801 559.857C949.239 558.373 951.065 557.631 953.277 557.631C954.287 557.631 955.216 557.808 956.062 558.163C956.918 558.518 957.715 559.065 958.452 559.802V558.013ZM949.112 565.264C949.112 566.575 949.549 567.672 950.423 568.555C951.306 569.438 952.389 569.88 953.673 569.88C954.847 569.88 955.88 569.433 956.773 568.541C957.674 567.649 958.124 566.611 958.124 565.428C958.124 564.144 957.683 563.052 956.8 562.151C955.917 561.24 954.865 560.785 953.645 560.785C952.389 560.785 951.319 561.218 950.436 562.082C949.553 562.947 949.112 564.008 949.112 565.264ZM974.347 573.034V571.409C973.837 572.092 973.25 572.602 972.585 572.938C971.93 573.266 971.179 573.43 970.332 573.43C968.448 573.43 967 572.852 965.99 571.696C964.979 570.54 964.474 568.878 964.474 566.712V558.013H968.011V564.759C968.011 566.789 968.243 568.177 968.707 568.924C969.172 569.67 969.973 570.043 971.111 570.043C972.276 570.043 973.109 569.625 973.61 568.787C974.119 567.95 974.374 566.529 974.374 564.527V558.013H977.815V573.034H974.347ZM992.413 565.592C992.413 564.308 992.003 563.239 991.184 562.383C990.374 561.527 989.359 561.099 988.139 561.099C986.937 561.099 985.908 561.536 985.053 562.41C984.206 563.284 983.783 564.326 983.783 565.537C983.783 566.803 984.211 567.859 985.066 568.705C985.922 569.543 987.001 569.961 988.303 569.961C989.45 569.961 990.419 569.538 991.211 568.692C992.012 567.845 992.413 566.812 992.413 565.592ZM992.563 559.215V553.152H996.004V573.034H992.563V571.805C991.871 572.351 991.143 572.761 990.378 573.034C989.614 573.298 988.785 573.43 987.893 573.43C986.946 573.43 986.054 573.28 985.217 572.979C984.379 572.679 983.628 572.242 982.963 571.668C982.053 570.885 981.352 569.961 980.86 568.896C980.378 567.822 980.137 566.684 980.137 565.483C980.137 564.372 980.36 563.307 980.806 562.287C981.261 561.268 981.898 560.385 982.718 559.638C983.4 558.992 984.183 558.5 985.066 558.163C985.949 557.826 986.892 557.658 987.893 557.658C988.858 557.658 989.714 557.785 990.46 558.04C991.207 558.286 991.908 558.678 992.563 559.215ZM1008.68 573.034V571.409C1008.17 572.092 1007.58 572.602 1006.91 572.938C1006.26 573.266 1005.51 573.43 1004.66 573.43C1002.78 573.43 1001.33 572.852 1000.32 571.696C999.309 570.54 998.804 568.878 998.804 566.712V558.013H1002.34V564.759C1002.34 566.789 1002.57 568.177 1003.04 568.924C1003.5 569.67 1004.3 570.043 1005.44 570.043C1006.61 570.043 1007.44 569.625 1007.94 568.787C1008.45 567.95 1008.7 566.529 1008.7 564.527V558.013H1012.14V573.034H1008.68Z"
        fill="#373435" />
    <path
        d="M1091.33 794.051H1086.58C1086.02 793.286 1085.34 792.713 1084.56 792.33C1083.79 791.948 1082.9 791.757 1081.91 791.757C1081.11 791.757 1080.35 791.907 1079.63 792.207C1078.91 792.508 1078.27 792.945 1077.72 793.518C1077.13 794.119 1076.67 794.816 1076.34 795.608C1076.02 796.39 1075.86 797.196 1075.86 798.025C1075.86 799.845 1076.44 801.375 1077.61 802.613C1078.78 803.842 1080.22 804.456 1081.91 804.456C1082.88 804.456 1083.76 804.274 1084.53 803.91C1085.32 803.546 1085.95 803.018 1086.43 802.326H1091.2C1090.27 804.356 1089.03 805.881 1087.48 806.901C1085.93 807.92 1084.09 808.43 1081.94 808.43C1080.44 808.43 1079.07 808.143 1077.8 807.57C1076.54 806.996 1075.42 806.145 1074.41 805.016C1073.57 804.078 1072.93 803.013 1072.49 801.821C1072.05 800.619 1071.83 799.335 1071.83 797.97C1071.83 796.586 1072.1 795.275 1072.62 794.037C1073.15 792.79 1073.93 791.657 1074.95 790.637C1075.91 789.69 1076.98 788.976 1078.16 788.493C1079.34 788.002 1080.61 787.756 1081.97 787.756C1084.14 787.756 1086 788.275 1087.54 789.312C1089.08 790.35 1090.35 791.93 1091.33 794.051ZM1097.01 788.152V794.72C1097.52 794.037 1098.11 793.532 1098.76 793.204C1099.43 792.877 1100.18 792.713 1101.03 792.713C1102.9 792.713 1104.34 793.291 1105.34 794.447C1106.34 795.594 1106.85 797.251 1106.85 799.417V808.034H1103.35V801.411C1103.35 799.354 1103.12 797.961 1102.65 797.233C1102.2 796.495 1101.4 796.126 1100.25 796.126C1099.08 796.126 1098.25 796.541 1097.74 797.369C1097.23 798.188 1096.97 799.599 1096.97 801.602V808.034H1093.6V788.152H1097.01ZM1112.55 800.401C1112.55 801.666 1112.97 802.727 1113.81 803.582C1114.66 804.429 1115.68 804.852 1116.9 804.852C1118 804.852 1118.97 804.424 1119.8 803.569C1120.64 802.713 1121.06 801.712 1121.06 800.564C1121.06 799.345 1120.64 798.298 1119.79 797.424C1118.95 796.541 1117.97 796.099 1116.84 796.099C1115.66 796.099 1114.65 796.518 1113.81 797.355C1112.97 798.184 1112.55 799.199 1112.55 800.401ZM1121.46 808.034V806.19C1121.04 806.937 1120.45 807.488 1119.68 807.843C1118.93 808.198 1117.96 808.375 1116.77 808.375C1114.55 808.375 1112.69 807.62 1111.2 806.109C1109.72 804.588 1108.98 802.704 1108.98 800.455C1108.98 799.399 1109.16 798.398 1109.54 797.451C1109.91 796.504 1110.44 795.671 1111.13 794.952C1111.88 794.16 1112.71 793.578 1113.62 793.204C1114.53 792.822 1115.55 792.631 1116.69 792.631C1117.78 792.631 1118.72 792.813 1119.5 793.177C1120.3 793.541 1120.93 794.092 1121.42 794.829V793.013H1124.83V808.034H1121.46ZM1134.5 793.013V796.126H1131.98V808.034H1128.6V796.126H1126.81V793.013H1128.49V792.603C1128.49 791.019 1128.93 789.84 1129.8 789.067C1130.67 788.284 1132 787.892 1133.77 787.892C1133.85 787.892 1133.96 787.897 1134.11 787.906C1134.28 787.915 1134.41 787.92 1134.5 787.92V791.06H1134.25C1133.46 791.06 1132.89 791.192 1132.54 791.456C1132.21 791.711 1132.04 792.139 1132.04 792.74V793.013H1134.5ZM1147.2 798.858C1146.9 797.856 1146.39 797.096 1145.68 796.577C1144.98 796.049 1144.09 795.785 1143.02 795.785C1142.09 795.785 1141.26 796.067 1140.52 796.632C1139.78 797.196 1139.29 797.938 1139.03 798.858H1147.2ZM1138.91 801.63C1139.03 802.713 1139.45 803.569 1140.19 804.197C1140.94 804.816 1141.9 805.125 1143.07 805.125C1143.86 805.125 1144.56 804.961 1145.18 804.634C1145.8 804.306 1146.3 803.846 1146.66 803.255H1150.43C1149.8 804.893 1148.84 806.168 1147.57 807.078C1146.3 807.979 1144.83 808.43 1143.17 808.43C1142.05 808.43 1141.02 808.234 1140.07 807.843C1139.13 807.442 1138.29 806.855 1137.54 806.081C1136.83 805.344 1136.28 804.493 1135.89 803.528C1135.5 802.554 1135.3 801.557 1135.3 800.537C1135.3 799.49 1135.48 798.507 1135.84 797.588C1136.2 796.659 1136.73 795.826 1137.43 795.089C1138.2 794.278 1139.06 793.655 1140.03 793.218C1140.99 792.781 1141.99 792.562 1143.02 792.562C1144.32 792.562 1145.54 792.858 1146.66 793.45C1147.79 794.042 1148.75 794.875 1149.55 795.949C1150.03 796.595 1150.38 797.319 1150.61 798.12C1150.85 798.921 1150.97 799.841 1150.97 800.879C1150.97 800.96 1150.96 801.088 1150.95 801.261C1150.94 801.425 1150.94 801.548 1150.94 801.63H1138.91ZM1166.91 787.756V791.538C1166.09 792.075 1165.5 792.735 1165.15 793.518C1164.82 794.292 1164.65 795.448 1164.65 796.987V804.852C1164.65 806.382 1164.82 807.538 1165.15 808.321C1165.5 809.104 1166.09 809.764 1166.91 810.301V814.07C1164.97 813.387 1163.5 812.344 1162.5 810.943C1161.51 809.55 1161.02 807.815 1161.02 805.74V796.099C1161.02 794.024 1161.51 792.285 1162.5 790.883C1163.5 789.481 1164.97 788.439 1166.91 787.756ZM1179.56 788.152V791.648H1175.8V808.034H1171.93V791.648H1168.17V788.152H1179.56ZM1182.41 803.05V803.255C1182.41 803.919 1182.58 804.461 1182.92 804.88C1183.26 805.289 1183.69 805.494 1184.23 805.494C1184.74 805.494 1185.15 805.339 1185.47 805.03C1185.8 804.72 1185.96 804.324 1185.96 803.842C1185.96 803.396 1185.85 803.032 1185.61 802.749C1185.37 802.458 1184.95 802.167 1184.34 801.875C1183.99 801.721 1183.48 801.507 1182.81 801.234C1182.14 800.96 1181.7 800.747 1181.51 800.592C1180.96 800.137 1180.55 799.631 1180.28 799.076C1180.02 798.512 1179.89 797.87 1179.89 797.151C1179.89 795.885 1180.33 794.816 1181.21 793.942C1182.1 793.068 1183.18 792.631 1184.45 792.631C1185.79 792.631 1186.84 793.018 1187.62 793.791C1188.4 794.565 1188.83 795.649 1188.9 797.041H1185.76V796.959C1185.76 796.477 1185.63 796.099 1185.38 795.826C1185.13 795.553 1184.79 795.416 1184.34 795.416C1183.95 795.416 1183.62 795.553 1183.36 795.826C1183.1 796.09 1182.97 796.422 1182.97 796.823C1182.97 797.478 1183.65 798.088 1184.99 798.653C1185.35 798.798 1185.62 798.912 1185.81 798.994C1187.11 799.577 1187.99 800.205 1188.46 800.879C1188.94 801.543 1189.17 802.444 1189.17 803.582C1189.17 804.984 1188.7 806.145 1187.75 807.064C1186.81 807.975 1185.61 808.43 1184.18 808.43C1182.73 808.43 1181.56 807.947 1180.67 806.982C1179.78 806.017 1179.3 804.711 1179.22 803.063L1182.41 803.05ZM1194.18 800.401C1194.18 801.666 1194.6 802.727 1195.44 803.582C1196.29 804.429 1197.32 804.852 1198.53 804.852C1199.63 804.852 1200.6 804.424 1201.44 803.569C1202.27 802.713 1202.69 801.712 1202.69 800.564C1202.69 799.345 1202.27 798.298 1201.42 797.424C1200.58 796.541 1199.6 796.099 1198.47 796.099C1197.29 796.099 1196.28 796.518 1195.44 797.355C1194.6 798.184 1194.18 799.199 1194.18 800.401ZM1203.09 808.034V806.19C1202.67 806.937 1202.08 807.488 1201.31 807.843C1200.56 808.198 1199.59 808.375 1198.4 808.375C1196.18 808.375 1194.33 807.62 1192.83 806.109C1191.35 804.588 1190.61 802.704 1190.61 800.455C1190.61 799.399 1190.79 798.398 1191.17 797.451C1191.54 796.504 1192.07 795.671 1192.76 794.952C1193.51 794.16 1194.34 793.578 1195.25 793.204C1196.16 792.822 1197.18 792.631 1198.32 792.631C1199.41 792.631 1200.35 792.813 1201.14 793.177C1201.93 793.541 1202.56 794.092 1203.05 794.829V793.013H1206.46V808.034H1203.09ZM1216.13 793.013V796.126H1213.62V808.034H1210.23V796.126H1208.44V793.013H1210.12V792.603C1210.12 791.019 1210.56 789.84 1211.43 789.067C1212.31 788.284 1213.63 787.892 1215.41 787.892C1215.48 787.892 1215.59 787.897 1215.75 787.906C1215.91 787.915 1216.04 787.92 1216.13 787.92V791.06H1215.88C1215.09 791.06 1214.52 791.192 1214.18 791.456C1213.84 791.711 1213.67 792.139 1213.67 792.74V793.013H1216.13ZM1228.83 798.858C1228.53 797.856 1228.02 797.096 1227.31 796.577C1226.61 796.049 1225.72 795.785 1224.65 795.785C1223.72 795.785 1222.89 796.067 1222.15 796.632C1221.41 797.196 1220.92 797.938 1220.66 798.858H1228.83ZM1220.54 801.63C1220.66 802.713 1221.09 803.569 1221.82 804.197C1222.57 804.816 1223.53 805.125 1224.7 805.125C1225.49 805.125 1226.19 804.961 1226.81 804.634C1227.44 804.306 1227.93 803.846 1228.3 803.255H1232.06C1231.43 804.893 1230.47 806.168 1229.2 807.078C1227.93 807.979 1226.47 808.43 1224.8 808.43C1223.68 808.43 1222.65 808.234 1221.7 807.843C1220.76 807.442 1219.92 806.855 1219.17 806.081C1218.46 805.344 1217.91 804.493 1217.52 803.528C1217.13 802.554 1216.93 801.557 1216.93 800.537C1216.93 799.49 1217.11 798.507 1217.47 797.588C1217.83 796.659 1218.36 795.826 1219.06 795.089C1219.83 794.278 1220.69 793.655 1221.66 793.218C1222.62 792.781 1223.62 792.562 1224.65 792.562C1225.95 792.562 1227.17 792.858 1228.3 793.45C1229.42 794.042 1230.38 794.875 1231.18 795.949C1231.66 796.595 1232.01 797.319 1232.24 798.12C1232.48 798.921 1232.6 799.841 1232.6 800.879C1232.6 800.96 1232.59 801.088 1232.58 801.261C1232.57 801.425 1232.57 801.548 1232.57 801.63H1220.54ZM1234.32 787.756C1236.27 788.439 1237.75 789.481 1238.73 790.883C1239.72 792.285 1240.22 794.024 1240.22 796.099V805.74C1240.22 807.815 1239.72 809.55 1238.73 810.943C1237.75 812.344 1236.27 813.387 1234.32 814.07V810.301C1235.15 809.764 1235.73 809.104 1236.07 808.321C1236.41 807.538 1236.58 806.382 1236.58 804.852V796.987C1236.58 795.448 1236.41 794.292 1236.07 793.518C1235.73 792.735 1235.15 792.075 1234.32 791.538V787.756Z"
        fill="#373435" />
    <path
        d="M122.22 700.465C122.22 700.538 122.225 700.651 122.234 700.806C122.243 700.952 122.248 701.061 122.248 701.134C122.248 701.99 122.17 702.786 122.016 703.524C121.861 704.252 121.624 704.939 121.305 705.585C120.368 707.452 119.089 708.895 117.468 709.914C115.857 710.925 114.032 711.43 111.993 711.43C110.49 711.43 109.102 711.143 107.828 710.57C106.553 709.996 105.406 709.145 104.387 708.016C103.54 707.069 102.894 705.995 102.447 704.793C102.001 703.592 101.778 702.317 101.778 700.97C101.778 699.586 102.047 698.275 102.584 697.037C103.121 695.79 103.909 694.657 104.946 693.637C105.93 692.663 107.022 691.939 108.224 691.466C109.434 690.992 110.773 690.756 112.238 690.756C114.378 690.756 116.226 691.279 117.782 692.326C119.339 693.373 120.541 694.902 121.387 696.914H116.663C116.089 696.195 115.411 695.658 114.628 695.303C113.854 694.939 112.985 694.757 112.02 694.757C110.317 694.757 108.875 695.371 107.691 696.6C106.508 697.829 105.916 699.322 105.916 701.079C105.916 702.864 106.512 704.37 107.705 705.599C108.906 706.819 110.381 707.429 112.129 707.429C113.34 707.429 114.437 707.101 115.42 706.446C116.412 705.79 117.145 704.907 117.619 703.797H109.808V700.465H122.22ZM134.333 711.034V709.409C133.823 710.092 133.236 710.602 132.571 710.938C131.916 711.266 131.165 711.43 130.318 711.43C128.434 711.43 126.986 710.852 125.976 709.696C124.965 708.54 124.46 706.878 124.46 704.712V696.013H127.997V702.759C127.997 704.789 128.229 706.177 128.693 706.924C129.157 707.67 129.958 708.043 131.096 708.043C132.262 708.043 133.095 707.625 133.595 706.787C134.105 705.95 134.36 704.529 134.36 702.527V696.013H137.801V711.034H134.333ZM144.301 696.013V697.72C144.811 697.037 145.393 696.532 146.049 696.204C146.713 695.877 147.469 695.713 148.316 695.713C149.526 695.713 150.56 695.927 151.415 696.354C152.28 696.782 153.022 697.451 153.641 698.362C154.233 697.47 154.898 696.805 155.635 696.368C156.372 695.931 157.187 695.713 158.079 695.713C159.918 695.713 161.329 696.291 162.312 697.447C163.296 698.603 163.787 700.26 163.787 702.417V711.034H160.346V704.384C160.346 702.345 160.118 700.961 159.663 700.233C159.217 699.495 158.439 699.126 157.328 699.126C156.172 699.126 155.344 699.541 154.843 700.369C154.351 701.188 154.106 702.599 154.106 704.602V711.034H150.637V704.384C150.637 702.354 150.405 700.97 149.941 700.233C149.485 699.495 148.684 699.126 147.537 699.126C146.372 699.126 145.535 699.541 145.025 700.369C144.515 701.188 144.26 702.599 144.26 704.602V711.034H140.887V696.013H144.301ZM170.273 696.013V697.72C170.783 697.037 171.366 696.532 172.021 696.204C172.686 695.877 173.441 695.713 174.288 695.713C175.499 695.713 176.532 695.927 177.388 696.354C178.253 696.782 178.995 697.451 179.614 698.362C180.205 697.47 180.87 696.805 181.607 696.368C182.345 695.931 183.16 695.713 184.052 695.713C185.891 695.713 187.302 696.291 188.285 697.447C189.268 698.603 189.76 700.26 189.76 702.417V711.034H186.318V704.384C186.318 702.345 186.091 700.961 185.636 700.233C185.19 699.495 184.411 699.126 183.301 699.126C182.144 699.126 181.316 699.541 180.815 700.369C180.324 701.188 180.078 702.599 180.078 704.602V711.034H176.61V704.384C176.61 702.354 176.377 700.97 175.913 700.233C175.458 699.495 174.657 699.126 173.51 699.126C172.345 699.126 171.507 699.541 170.997 700.369C170.487 701.188 170.232 702.599 170.232 704.602V711.034H166.86V696.013H170.273ZM196.246 694.484H192.832V691.152H196.246V694.484ZM192.832 711.034V696.013H196.246V711.034H192.832Z"
        fill="#373435" />
    <path
        d="M926.22 992.465C926.22 992.538 926.225 992.651 926.234 992.806C926.243 992.952 926.248 993.061 926.248 993.134C926.248 993.99 926.17 994.786 926.016 995.524C925.861 996.252 925.624 996.939 925.305 997.585C924.368 999.452 923.089 1000.89 921.468 1001.91C919.857 1002.92 918.032 1003.43 915.993 1003.43C914.49 1003.43 913.102 1003.14 911.828 1002.57C910.553 1002 909.406 1001.14 908.387 1000.02C907.54 999.069 906.894 997.995 906.447 996.793C906.001 995.592 905.778 994.317 905.778 992.97C905.778 991.586 906.047 990.275 906.584 989.037C907.121 987.79 907.909 986.657 908.946 985.637C909.93 984.663 911.022 983.939 912.224 983.466C913.434 982.992 914.773 982.756 916.238 982.756C918.378 982.756 920.226 983.279 921.782 984.326C923.339 985.373 924.541 986.902 925.387 988.914H920.663C920.089 988.195 919.411 987.658 918.628 987.303C917.854 986.939 916.985 986.757 916.02 986.757C914.317 986.757 912.875 987.371 911.691 988.6C910.508 989.829 909.916 991.322 909.916 993.079C909.916 994.864 910.512 996.37 911.705 997.599C912.906 998.819 914.381 999.429 916.129 999.429C917.34 999.429 918.437 999.101 919.42 998.446C920.412 997.79 921.145 996.907 921.619 995.797H913.808V992.465H926.22ZM938.333 1003.03V1001.41C937.823 1002.09 937.236 1002.6 936.571 1002.94C935.916 1003.27 935.165 1003.43 934.318 1003.43C932.434 1003.43 930.986 1002.85 929.976 1001.7C928.965 1000.54 928.46 998.878 928.46 996.712V988.013H931.997V994.759C931.997 996.789 932.229 998.177 932.693 998.924C933.157 999.67 933.958 1000.04 935.096 1000.04C936.262 1000.04 937.095 999.625 937.595 998.787C938.105 997.95 938.36 996.529 938.36 994.527V988.013H941.801V1003.03H938.333ZM947.154 998.05V998.255C947.154 998.919 947.322 999.461 947.659 999.88C947.996 1000.29 948.433 1000.49 948.97 1000.49C949.48 1000.49 949.894 1000.34 950.213 1000.03C950.54 999.72 950.704 999.324 950.704 998.842C950.704 998.396 950.586 998.032 950.349 997.749C950.113 997.458 949.689 997.167 949.079 996.875C948.733 996.721 948.224 996.507 947.55 996.234C946.876 995.96 946.444 995.747 946.253 995.592C945.697 995.137 945.288 994.631 945.024 994.076C944.76 993.512 944.628 992.87 944.628 992.151C944.628 990.885 945.069 989.816 945.952 988.942C946.844 988.068 947.923 987.631 949.189 987.631C950.527 987.631 951.583 988.018 952.357 988.791C953.14 989.565 953.567 990.649 953.64 992.041H950.5V991.959C950.5 991.477 950.372 991.099 950.117 990.826C949.871 990.553 949.525 990.416 949.079 990.416C948.688 990.416 948.36 990.553 948.096 990.826C947.841 991.09 947.714 991.422 947.714 991.823C947.714 992.478 948.388 993.088 949.735 993.653C950.09 993.798 950.363 993.912 950.554 993.994C951.847 994.577 952.73 995.205 953.203 995.879C953.677 996.543 953.913 997.444 953.913 998.582C953.913 999.984 953.44 1001.14 952.493 1002.06C951.546 1002.97 950.354 1003.43 948.916 1003.43C947.468 1003.43 946.298 1002.95 945.406 1001.98C944.523 1001.02 944.041 999.711 943.959 998.063L947.154 998.05ZM958.925 995.401C958.925 996.666 959.344 997.727 960.181 998.582C961.028 999.429 962.056 999.852 963.267 999.852C964.369 999.852 965.338 999.424 966.176 998.569C967.013 997.713 967.432 996.712 967.432 995.564C967.432 994.345 967.009 993.298 966.162 992.424C965.325 991.541 964.341 991.099 963.213 991.099C962.029 991.099 961.019 991.518 960.181 992.355C959.344 993.184 958.925 994.199 958.925 995.401ZM967.828 1003.03V1001.19C967.409 1001.94 966.818 1002.49 966.053 1002.84C965.297 1003.2 964.328 1003.38 963.144 1003.38C960.923 1003.38 959.066 1002.62 957.573 1001.11C956.089 999.588 955.347 997.704 955.347 995.455C955.347 994.399 955.534 993.398 955.907 992.451C956.28 991.504 956.813 990.671 957.505 989.952C958.251 989.16 959.08 988.578 959.99 988.204C960.9 987.822 961.924 987.631 963.062 987.631C964.155 987.631 965.093 987.813 965.875 988.177C966.667 988.541 967.305 989.092 967.787 989.829V988.013H971.201V1003.03H967.828ZM984.051 1003.03V1001.41C983.541 1002.09 982.954 1002.6 982.289 1002.94C981.634 1003.27 980.883 1003.43 980.036 1003.43C978.152 1003.43 976.704 1002.85 975.694 1001.7C974.683 1000.54 974.178 998.878 974.178 996.712V988.013H977.715V994.759C977.715 996.789 977.947 998.177 978.411 998.924C978.875 999.67 979.676 1000.04 980.814 1000.04C981.98 1000.04 982.813 999.625 983.313 998.787C983.823 997.95 984.078 996.529 984.078 994.527V988.013H987.519V1003.03H984.051Z"
        fill="#373435" />
    <path
        d="M929.928 342.838L941.252 339.998L944.315 343.056L932.827 345.539L930.27 357.129L927.206 354.071L929.928 342.838ZM922.915 349.788L920.16 347.038L934.206 332.966L936.96 335.715L922.915 349.788ZM938.04 354.099C937.146 354.995 936.693 356.041 936.682 357.238C936.683 358.436 937.112 359.462 937.969 360.317C938.748 361.095 939.737 361.478 940.934 361.464C942.132 361.449 943.135 361.037 943.946 360.225C944.807 359.361 945.247 358.321 945.265 357.105C945.296 355.888 944.913 354.881 944.114 354.083C943.276 353.247 942.265 352.83 941.08 352.831C939.902 352.826 938.889 353.248 938.04 354.099ZM938.949 365.791L940.252 364.486C939.428 364.719 938.62 364.691 937.828 364.402C937.042 364.119 936.231 363.56 935.393 362.724C933.821 361.155 933.04 359.308 933.051 357.184C933.075 355.06 933.881 353.202 935.469 351.61C936.215 350.863 937.055 350.286 937.988 349.879C938.921 349.473 939.886 349.26 940.884 349.239C941.972 349.206 942.97 349.379 943.878 349.758C944.792 350.13 945.652 350.719 946.457 351.522C947.231 352.294 947.766 353.085 948.063 353.896C948.366 354.713 948.428 355.553 948.248 356.416L949.531 355.131L951.948 357.542L941.337 368.174L938.949 365.791ZM950.431 377.251L951.579 376.101C950.736 376.224 949.96 376.17 949.252 375.939C948.557 375.708 947.909 375.294 947.31 374.695C945.976 373.364 945.36 371.933 945.462 370.4C945.563 368.868 946.379 367.335 947.91 365.802L954.055 359.645L956.558 362.144L951.793 366.918C950.358 368.355 949.542 369.502 949.343 370.358C949.145 371.214 949.448 372.044 950.253 372.848C951.078 373.672 951.963 373.964 952.91 373.724C953.862 373.492 955.046 372.667 956.46 371.249L961.062 366.639L963.497 369.07L952.886 379.701L950.431 377.251ZM968.479 378.344C967.442 377.463 966.521 377.046 965.716 377.092C964.912 377.138 963.956 377.715 962.85 378.823L957.439 384.245L954.964 381.775L965.575 371.144L967.895 373.459L966.67 374.686C967.52 374.583 968.276 374.643 968.939 374.868C969.609 375.086 970.224 375.475 970.785 376.034L968.479 378.344ZM968.292 384.292C967.398 385.188 966.945 386.235 966.933 387.432C966.934 388.629 967.363 389.655 968.22 390.511C969 391.289 969.989 391.671 971.186 391.657C972.383 391.643 973.387 391.23 974.197 390.418C975.059 389.555 975.499 388.515 975.517 387.298C975.548 386.081 975.164 385.074 974.365 384.277C973.528 383.441 972.516 383.023 971.332 383.025C970.154 383.019 969.141 383.442 968.292 384.292ZM969.201 395.985L970.503 394.68C969.679 394.912 968.872 394.884 968.08 394.595C967.294 394.313 966.482 393.754 965.645 392.918C964.072 391.348 963.292 389.502 963.303 387.377C963.326 385.253 964.132 383.395 965.721 381.804C966.467 381.056 967.306 380.479 968.239 380.073C969.172 379.666 970.138 379.453 971.135 379.433C972.223 379.4 973.221 379.572 974.129 379.951C975.044 380.324 975.904 380.912 976.709 381.716C977.482 382.488 978.017 383.279 978.314 384.09C978.618 384.907 978.679 385.747 978.5 386.61L979.783 385.324L982.199 387.736L971.588 398.367L969.201 395.985Z"
        fill="#373435" />
    <path
        d="M900.968 371.681L898.262 368.98L912.307 354.908L914.917 357.512L911.764 372.308L920.735 363.319L923.432 366.011L909.386 380.083L906.835 377.536L910.21 362.422L900.968 371.681ZM918.964 378.857C918.07 379.753 917.617 380.799 917.605 381.997C917.607 383.194 918.036 384.22 918.893 385.076C919.672 385.854 920.661 386.236 921.858 386.222C923.055 386.208 924.059 385.795 924.869 384.983C925.731 384.119 926.171 383.079 926.189 381.863C926.22 380.646 925.836 379.639 925.037 378.842C924.2 378.006 923.189 377.588 922.004 377.589C920.826 377.584 919.813 378.007 918.964 378.857ZM919.873 390.549L921.175 389.245C920.352 389.477 919.544 389.449 918.752 389.16C917.966 388.878 917.154 388.318 916.317 387.482C914.745 385.913 913.964 384.066 913.975 381.942C913.998 379.818 914.805 377.96 916.393 376.368C917.139 375.621 917.978 375.044 918.911 374.638C919.844 374.231 920.81 374.018 921.808 373.998C922.895 373.964 923.893 374.137 924.801 374.516C925.716 374.889 926.576 375.477 927.381 376.281C928.154 377.052 928.689 377.844 928.986 378.654C929.29 379.472 929.352 380.312 929.172 381.174L930.455 379.889L932.871 382.3L922.26 392.932L919.873 390.549ZM937.482 386.902L936.276 388.11C937.119 387.987 937.888 388.041 938.584 388.272C939.286 388.509 939.936 388.927 940.535 389.525C941.392 390.381 941.973 391.262 942.276 392.169C942.586 393.083 942.638 394.081 942.433 395.162C943.482 394.949 944.422 394.948 945.253 395.16C946.083 395.371 946.815 395.792 947.446 396.423C948.748 397.722 949.338 399.128 949.217 400.64C949.096 402.153 948.274 403.673 946.75 405.2L940.663 411.299L938.227 408.868L942.925 404.161C944.365 402.718 945.182 401.578 945.374 400.741C945.579 399.904 945.289 399.093 944.503 398.308C943.684 397.492 942.805 397.199 941.866 397.432C940.939 397.665 939.768 398.49 938.354 399.907L933.81 404.46L931.355 402.009L936.053 397.303C937.487 395.866 938.3 394.722 938.493 393.872C938.691 393.029 938.385 392.202 937.573 391.392C936.748 390.569 935.863 390.27 934.917 390.496C933.977 390.716 932.8 391.535 931.385 392.952L926.842 397.504L924.454 395.122L935.065 384.49L937.482 386.902ZM950.105 409.977C949.121 410.963 948.61 412.015 948.572 413.136C948.541 414.249 948.99 415.269 949.918 416.195C950.833 417.108 951.853 417.542 952.98 417.496C954.119 417.45 955.187 416.927 956.184 415.928C957.078 415.033 957.524 414.012 957.523 412.866C957.535 411.72 957.109 410.717 956.246 409.855C955.356 408.967 954.339 408.537 953.193 408.564C952.054 408.584 951.024 409.055 950.105 409.977ZM947.534 407.449C948.28 406.702 949.123 406.128 950.062 405.728C951.014 405.328 952.012 405.128 953.055 405.127C954.123 405.126 955.134 405.318 956.087 405.703C957.047 406.082 957.887 406.632 958.609 407.352C959.376 408.117 959.953 408.95 960.34 409.851C960.74 410.752 960.956 411.727 960.989 412.776C961.01 413.864 960.821 414.91 960.423 415.915C960.031 416.913 959.469 417.779 958.736 418.514C957.925 419.326 957.054 419.935 956.121 420.341C955.188 420.748 954.187 420.958 953.118 420.972C952.043 420.992 951.026 420.806 950.066 420.415C949.113 420.016 948.241 419.422 947.448 418.631C946.649 417.833 946.062 416.965 945.688 416.025C945.314 415.086 945.139 414.063 945.164 412.955C945.201 411.887 945.419 410.889 945.817 409.961C946.222 409.028 946.794 408.19 947.534 407.449ZM968.304 428.373C969.211 427.464 969.677 426.418 969.701 425.233C969.732 424.055 969.316 423.035 968.453 422.174C967.602 421.325 966.565 420.907 965.342 420.921C964.126 420.942 963.09 421.381 962.234 422.238C961.341 423.133 960.897 424.183 960.905 425.387C960.919 426.584 961.387 427.642 962.308 428.562C963.12 429.372 964.105 429.758 965.264 429.718C966.429 429.685 967.442 429.236 968.304 428.373ZM972.915 423.965L977.198 419.674L979.634 422.105L965.589 436.177L963.153 433.746L964.021 432.876C963.146 432.774 962.341 432.55 961.607 432.203C960.879 431.85 960.199 431.358 959.568 430.727C958.898 430.059 958.373 429.322 957.992 428.518C957.611 427.714 957.389 426.874 957.323 425.998C957.232 424.801 957.389 423.652 957.793 422.551C958.21 421.45 958.844 420.474 959.692 419.623C960.477 418.837 961.387 418.241 962.423 417.834C963.466 417.434 964.541 417.259 965.648 417.31C966.588 417.335 967.489 417.54 968.352 417.925C969.215 418.311 970.001 418.857 970.71 419.564C971.393 420.246 971.908 420.941 972.257 421.649C972.611 422.35 972.831 423.122 972.915 423.965ZM974.925 434.71C974.031 435.606 973.578 436.652 973.566 437.85C973.567 439.047 973.996 440.073 974.853 440.929C975.633 441.707 976.621 442.089 977.819 442.075C979.016 442.061 980.02 441.648 980.83 440.836C981.692 439.973 982.132 438.933 982.15 437.716C982.181 436.499 981.797 435.492 980.998 434.695C980.16 433.859 979.149 433.441 977.965 433.442C976.787 433.437 975.773 433.86 974.925 434.71ZM975.834 446.402L977.136 445.098C976.312 445.33 975.504 445.302 974.712 445.013C973.927 444.731 973.115 444.171 972.277 443.335C970.705 441.766 969.925 439.919 969.935 437.795C969.959 435.671 970.765 433.813 972.354 432.221C973.1 431.474 973.939 430.897 974.872 430.491C975.805 430.084 976.771 429.871 977.768 429.851C978.856 429.817 979.854 429.99 980.762 430.369C981.677 430.742 982.536 431.33 983.342 432.134C984.115 432.905 984.65 433.697 984.947 434.507C985.25 435.325 985.312 436.165 985.133 437.027L986.416 435.742L988.832 438.154L978.221 448.785L975.834 446.402Z"
        fill="#373435" />
    <path
        d="M688.503 183.034H684.652V163.152H689.8L694.853 177.613L699.892 163.152H705.04V183.034H701.203L701.339 168.6L696.314 183.034H693.378L688.339 168.6L688.503 183.034ZM710.925 175.401C710.925 176.666 711.344 177.727 712.181 178.582C713.028 179.429 714.057 179.852 715.268 179.852C716.369 179.852 717.339 179.424 718.176 178.569C719.014 177.713 719.432 176.712 719.432 175.564C719.432 174.345 719.009 173.298 718.162 172.424C717.325 171.541 716.342 171.099 715.213 171.099C714.029 171.099 713.019 171.518 712.181 172.355C711.344 173.184 710.925 174.199 710.925 175.401ZM719.828 183.034V181.19C719.41 181.937 718.818 182.488 718.053 182.843C717.298 183.198 716.328 183.375 715.145 183.375C712.923 183.375 711.066 182.62 709.573 181.109C708.089 179.588 707.347 177.704 707.347 175.455C707.347 174.399 707.534 173.398 707.907 172.451C708.281 171.504 708.813 170.671 709.505 169.952C710.251 169.16 711.08 168.578 711.99 168.204C712.901 167.822 713.925 167.631 715.063 167.631C716.155 167.631 717.093 167.813 717.876 168.177C718.668 168.541 719.305 169.092 719.787 169.829V168.013H723.201V183.034H719.828ZM733.293 171.058C731.936 171.167 730.989 171.522 730.452 172.123C729.915 172.724 729.647 173.807 729.647 175.373V183.034H726.151V168.013H729.428V169.747C729.956 169.074 730.534 168.582 731.162 168.273C731.79 167.954 732.501 167.795 733.293 167.795V171.058ZM737.362 175.401C737.362 176.666 737.781 177.727 738.618 178.582C739.465 179.429 740.493 179.852 741.704 179.852C742.806 179.852 743.775 179.424 744.613 178.569C745.45 177.713 745.869 176.712 745.869 175.564C745.869 174.345 745.446 173.298 744.599 172.424C743.762 171.541 742.778 171.099 741.65 171.099C740.466 171.099 739.456 171.518 738.618 172.355C737.781 173.184 737.362 174.199 737.362 175.401ZM746.265 183.034V181.19C745.846 181.937 745.255 182.488 744.49 182.843C743.734 183.198 742.765 183.375 741.581 183.375C739.36 183.375 737.503 182.62 736.01 181.109C734.526 179.588 733.784 177.704 733.784 175.455C733.784 174.399 733.971 173.398 734.344 172.451C734.717 171.504 735.25 170.671 735.942 169.952C736.688 169.16 737.517 168.578 738.427 168.204C739.337 167.822 740.361 167.631 741.499 167.631C742.592 167.631 743.529 167.813 744.312 168.177C745.104 168.541 745.742 169.092 746.224 169.829V168.013H749.638V183.034H746.265ZM764.249 175.592C764.249 174.308 763.84 173.239 763.02 172.383C762.21 171.527 761.195 171.099 759.975 171.099C758.773 171.099 757.745 171.536 756.889 172.41C756.042 173.284 755.619 174.326 755.619 175.537C755.619 176.803 756.047 177.859 756.903 178.705C757.758 179.543 758.837 179.961 760.139 179.961C761.286 179.961 762.255 179.538 763.048 178.692C763.849 177.845 764.249 176.812 764.249 175.592ZM764.399 169.215V163.152H767.841V183.034H764.399V181.805C763.708 182.351 762.979 182.761 762.215 183.034C761.45 183.298 760.621 183.43 759.729 183.43C758.782 183.43 757.89 183.28 757.053 182.979C756.215 182.679 755.464 182.242 754.8 181.668C753.889 180.885 753.188 179.961 752.697 178.896C752.214 177.822 751.973 176.684 751.973 175.483C751.973 174.372 752.196 173.307 752.642 172.287C753.097 171.268 753.735 170.385 754.554 169.638C755.237 168.992 756.02 168.5 756.903 168.163C757.786 167.826 758.728 167.658 759.729 167.658C760.694 167.658 761.55 167.785 762.296 168.04C763.043 168.286 763.744 168.678 764.399 169.215ZM780.513 183.034V181.409C780.003 182.092 779.416 182.602 778.751 182.938C778.096 183.266 777.345 183.43 776.498 183.43C774.614 183.43 773.166 182.852 772.156 181.696C771.145 180.54 770.64 178.878 770.64 176.712V168.013H774.177V174.759C774.177 176.789 774.409 178.177 774.873 178.924C775.337 179.67 776.138 180.043 777.276 180.043C778.442 180.043 779.275 179.625 779.775 178.787C780.285 177.95 780.54 176.529 780.54 174.527V168.013H783.981V183.034H780.513ZM790.481 168.013V169.72C790.991 169.037 791.573 168.532 792.229 168.204C792.893 167.877 793.649 167.713 794.496 167.713C795.579 167.713 796.521 167.917 797.322 168.327C798.133 168.737 798.806 169.351 799.343 170.171C799.689 170.717 799.935 171.34 800.081 172.041C800.236 172.733 800.313 173.748 800.313 175.087V183.034H796.817V176.384C796.817 174.372 796.585 172.993 796.121 172.246C795.656 171.5 794.855 171.126 793.717 171.126C792.552 171.126 791.715 171.541 791.205 172.369C790.695 173.188 790.44 174.599 790.44 176.602V183.034H787.067V168.013H790.481Z"
        fill="#373435" />
    <path
        d="M773.503 1131.03H769.652V1111.15H774.8L779.853 1125.61L784.892 1111.15H790.04V1131.03H786.203L786.339 1116.6L781.314 1131.03H778.378L773.339 1116.6L773.503 1131.03ZM795.925 1123.4C795.925 1124.67 796.344 1125.73 797.181 1126.58C798.028 1127.43 799.057 1127.85 800.268 1127.85C801.369 1127.85 802.339 1127.42 803.176 1126.57C804.014 1125.71 804.432 1124.71 804.432 1123.56C804.432 1122.34 804.009 1121.3 803.162 1120.42C802.325 1119.54 801.342 1119.1 800.213 1119.1C799.029 1119.1 798.019 1119.52 797.181 1120.36C796.344 1121.18 795.925 1122.2 795.925 1123.4ZM804.828 1131.03V1129.19C804.41 1129.94 803.818 1130.49 803.053 1130.84C802.298 1131.2 801.328 1131.38 800.145 1131.38C797.923 1131.38 796.066 1130.62 794.573 1129.11C793.089 1127.59 792.347 1125.7 792.347 1123.46C792.347 1122.4 792.534 1121.4 792.907 1120.45C793.281 1119.5 793.813 1118.67 794.505 1117.95C795.251 1117.16 796.08 1116.58 796.99 1116.2C797.901 1115.82 798.925 1115.63 800.063 1115.63C801.155 1115.63 802.093 1115.81 802.876 1116.18C803.668 1116.54 804.305 1117.09 804.787 1117.83V1116.01H808.201V1131.03H804.828ZM818.293 1119.06C816.936 1119.17 815.989 1119.52 815.452 1120.12C814.915 1120.72 814.647 1121.81 814.647 1123.37V1131.03H811.151V1116.01H814.428V1117.75C814.956 1117.07 815.534 1116.58 816.162 1116.27C816.79 1115.95 817.501 1115.79 818.293 1115.79V1119.06ZM829.982 1131.03V1129.41C829.472 1130.09 828.885 1130.6 828.22 1130.94C827.565 1131.27 826.813 1131.43 825.967 1131.43C824.082 1131.43 822.635 1130.85 821.624 1129.7C820.614 1128.54 820.109 1126.88 820.109 1124.71V1116.01H823.645V1122.76C823.645 1124.79 823.878 1126.18 824.342 1126.92C824.806 1127.67 825.607 1128.04 826.745 1128.04C827.91 1128.04 828.743 1127.62 829.244 1126.79C829.754 1125.95 830.009 1124.53 830.009 1122.53V1116.01H833.45V1131.03H829.982Z"
        fill="#373435" />
    <path
        d="M901.451 102.862L905.001 102.848V103.135C905.001 103.972 905.219 104.646 905.656 105.156C906.093 105.657 906.676 105.907 907.404 105.907C908.187 105.907 908.806 105.675 909.261 105.21C909.717 104.737 909.944 104.1 909.944 103.299C909.944 102.015 909.025 101.096 907.186 100.54C906.949 100.467 906.763 100.408 906.626 100.363C905.078 99.8803 903.931 99.1976 903.185 98.3145C902.438 97.4224 902.065 96.2981 902.065 94.9416C902.065 93.0754 902.579 91.5779 903.608 90.449C904.646 89.3202 906.025 88.7558 907.746 88.7558C909.357 88.7558 910.641 89.261 911.597 90.2715C912.552 91.2729 913.085 92.6794 913.194 94.491H909.671V94.3272C909.671 93.6899 909.48 93.1756 909.098 92.7841C908.715 92.3926 908.215 92.1969 907.596 92.1969C906.958 92.1969 906.453 92.3972 906.08 92.7978C905.716 93.1983 905.534 93.7445 905.534 94.4364C905.534 94.7277 905.57 94.9872 905.643 95.2147C905.725 95.4332 905.848 95.6335 906.012 95.8156C906.385 96.2252 907.186 96.603 908.415 96.949C908.961 97.0946 909.38 97.2175 909.671 97.3177C911.037 97.7819 912.043 98.4465 912.689 99.3113C913.344 100.176 913.672 101.282 913.672 102.63C913.672 104.678 913.103 106.326 911.965 107.573C910.827 108.811 909.316 109.43 907.432 109.43C905.656 109.43 904.223 108.829 903.13 107.627C902.038 106.426 901.478 104.837 901.451 102.862ZM919.394 89.1518V95.72C919.904 95.0372 920.486 94.532 921.142 94.2043C921.806 93.8765 922.562 93.7127 923.408 93.7127C925.284 93.7127 926.722 94.2907 927.723 95.4469C928.725 96.5939 929.226 98.2508 929.226 100.417V109.034H925.73V102.411C925.73 100.354 925.498 98.9609 925.033 98.2326C924.578 97.4952 923.777 97.1265 922.63 97.1265C921.465 97.1265 920.627 97.5407 920.117 98.3691C919.608 99.1884 919.353 100.599 919.353 102.602V109.034H915.98V89.1518H919.394ZM935.698 92.4837H932.284V89.1518H935.698V92.4837ZM932.284 109.034V94.0131H935.698V109.034H932.284ZM942.253 94.0131V95.72C942.763 95.0372 943.345 94.532 944.001 94.2043C944.665 93.8765 945.421 93.7127 946.267 93.7127C947.351 93.7127 948.293 93.9175 949.094 94.3272C949.904 94.7368 950.578 95.3513 951.115 96.1706C951.461 96.7168 951.707 97.3404 951.852 98.0414C952.007 98.7333 952.085 99.7483 952.085 101.087V109.034H948.589V102.384C948.589 100.372 948.357 98.9927 947.892 98.2462C947.428 97.4997 946.627 97.1265 945.489 97.1265C944.324 97.1265 943.486 97.5407 942.976 98.3691C942.467 99.1884 942.212 100.599 942.212 102.602V109.034H938.839V94.0131H942.253ZM958.489 109.034H955.116V89.1518H958.489V100.977L963.364 94.0131H967.31L962.108 101.141L968.334 109.034H963.951L958.489 101.401V109.034ZM971.147 101.401C971.147 102.666 971.566 103.727 972.404 104.582C973.25 105.429 974.279 105.852 975.49 105.852C976.591 105.852 977.561 105.424 978.398 104.569C979.236 103.713 979.655 102.712 979.655 101.564C979.655 100.345 979.231 99.2977 978.385 98.4237C977.547 97.5407 976.564 97.0992 975.435 97.0992C974.252 97.0992 973.241 97.5179 972.404 98.3555C971.566 99.1839 971.147 100.199 971.147 101.401ZM980.051 109.034V107.19C979.632 107.937 979.04 108.488 978.275 108.843C977.52 109.198 976.55 109.375 975.367 109.375C973.146 109.375 971.288 108.62 969.796 107.109C968.312 105.588 967.57 103.704 967.57 101.455C967.57 100.399 967.756 99.3978 968.13 98.4511C968.503 97.5043 969.035 96.6713 969.727 95.9521C970.474 95.1601 971.302 94.5775 972.213 94.2043C973.123 93.8219 974.147 93.6307 975.285 93.6307C976.377 93.6307 977.315 93.8128 978.098 94.1769C978.89 94.5411 979.527 95.0919 980.01 95.8292V94.0131H983.424V109.034H980.051ZM993.091 94.0131V97.1265H990.579V109.034H987.192V97.1265H985.404V94.0131H987.083V93.6034C987.083 92.0194 987.52 90.8405 988.394 90.0667C989.268 89.2838 990.593 88.8923 992.368 88.8923C992.441 88.8923 992.554 88.8969 992.709 88.906C992.873 88.9151 993 88.9196 993.091 88.9196V92.0604H992.846C992.054 92.0604 991.485 92.1924 991.139 92.4564C990.802 92.7113 990.634 93.1391 990.634 93.74V94.0131H993.091ZM998.212 92.4837H994.798V89.1518H998.212V92.4837ZM994.798 109.034V94.0131H998.212V109.034H994.798Z"
        fill="#373435" />
    <path
        d="M610.552 464.152V467.648H606.797V484.034H602.919V467.648H599.164V464.152H610.552ZM613.679 476.401C613.679 477.666 614.098 478.727 614.936 479.582C615.782 480.429 616.811 480.852 618.022 480.852C619.123 480.852 620.093 480.424 620.93 479.569C621.768 478.713 622.187 477.712 622.187 476.564C622.187 475.345 621.763 474.298 620.917 473.424C620.079 472.541 619.096 472.099 617.967 472.099C616.784 472.099 615.773 472.518 614.936 473.355C614.098 474.184 613.679 475.199 613.679 476.401ZM622.583 484.034V482.19C622.164 482.937 621.572 483.488 620.808 483.843C620.052 484.198 619.082 484.375 617.899 484.375C615.678 484.375 613.821 483.62 612.328 482.109C610.844 480.588 610.102 478.704 610.102 476.455C610.102 475.399 610.288 474.398 610.662 473.451C611.035 472.504 611.567 471.671 612.259 470.952C613.006 470.16 613.834 469.578 614.745 469.204C615.655 468.822 616.679 468.631 617.817 468.631C618.909 468.631 619.847 468.813 620.63 469.177C621.422 469.541 622.059 470.092 622.542 470.829V469.013H625.956V484.034H622.583ZM629.055 484.034V464.152H632.469V484.034H629.055ZM638.259 476.401C638.259 477.666 638.678 478.727 639.515 479.582C640.362 480.429 641.391 480.852 642.601 480.852C643.703 480.852 644.673 480.424 645.51 479.569C646.348 478.713 646.766 477.712 646.766 476.564C646.766 475.345 646.343 474.298 645.496 473.424C644.659 472.541 643.676 472.099 642.547 472.099C641.363 472.099 640.353 472.518 639.515 473.355C638.678 474.184 638.259 475.199 638.259 476.401ZM647.162 484.034V482.19C646.744 482.937 646.152 483.488 645.387 483.843C644.632 484.198 643.662 484.375 642.479 484.375C640.257 484.375 638.4 483.62 636.907 482.109C635.423 480.588 634.681 478.704 634.681 476.455C634.681 475.399 634.868 474.398 635.241 473.451C635.614 472.504 636.147 471.671 636.839 470.952C637.585 470.16 638.414 469.578 639.324 469.204C640.235 468.822 641.259 468.631 642.397 468.631C643.489 468.631 644.427 468.813 645.21 469.177C646.002 469.541 646.639 470.092 647.121 470.829V469.013H650.535V484.034H647.162ZM654.7 484.034V472.126H652.406V469.013H654.7V464.152H658.196V469.013H660.504V472.126H658.196V484.034H654.7ZM664.86 476.401C664.86 477.666 665.278 478.727 666.116 479.582C666.963 480.429 667.991 480.852 669.202 480.852C670.304 480.852 671.273 480.424 672.111 479.569C672.948 478.713 673.367 477.712 673.367 476.564C673.367 475.345 672.944 474.298 672.097 473.424C671.259 472.541 670.276 472.099 669.147 472.099C667.964 472.099 666.953 472.518 666.116 473.355C665.278 474.184 664.86 475.199 664.86 476.401ZM673.763 484.034V482.19C673.344 482.937 672.752 483.488 671.988 483.843C671.232 484.198 670.263 484.375 669.079 484.375C666.858 484.375 665.001 483.62 663.508 482.109C662.024 480.588 661.282 478.704 661.282 476.455C661.282 475.399 661.469 474.398 661.842 473.451C662.215 472.504 662.748 471.671 663.439 470.952C664.186 470.16 665.014 469.578 665.925 469.204C666.835 468.822 667.859 468.631 668.997 468.631C670.09 468.631 671.027 468.813 671.81 469.177C672.602 469.541 673.239 470.092 673.722 470.829V469.013H677.136V484.034H673.763Z"
        fill="#373435" />
    <path
        d="M604.503 518.034H600.652V498.152H605.8L610.853 512.613L615.892 498.152H621.04V518.034H617.203L617.339 503.6L612.314 518.034H609.378L604.339 503.6L604.503 518.034ZM626.925 510.401C626.925 511.666 627.344 512.727 628.181 513.582C629.028 514.429 630.057 514.852 631.268 514.852C632.369 514.852 633.339 514.424 634.176 513.569C635.014 512.713 635.432 511.712 635.432 510.564C635.432 509.345 635.009 508.298 634.162 507.424C633.325 506.541 632.342 506.099 631.213 506.099C630.029 506.099 629.019 506.518 628.181 507.355C627.344 508.184 626.925 509.199 626.925 510.401ZM635.828 518.034V516.19C635.41 516.937 634.818 517.488 634.053 517.843C633.298 518.198 632.328 518.375 631.145 518.375C628.923 518.375 627.066 517.62 625.573 516.109C624.089 514.588 623.347 512.704 623.347 510.455C623.347 509.399 623.534 508.398 623.907 507.451C624.281 506.504 624.813 505.671 625.505 504.952C626.251 504.16 627.08 503.578 627.99 503.204C628.901 502.822 629.925 502.631 631.063 502.631C632.155 502.631 633.093 502.813 633.876 503.177C634.668 503.541 635.305 504.092 635.787 504.829V503.013H639.201V518.034H635.828ZM648.869 503.013V506.126H646.357V518.034H642.97V506.126H641.181V503.013H642.861V502.603C642.861 501.019 643.298 499.84 644.172 499.067C645.046 498.284 646.37 497.892 648.146 497.892C648.218 497.892 648.332 497.897 648.487 497.906C648.651 497.915 648.778 497.92 648.869 497.92V501.06H648.623C647.831 501.06 647.262 501.192 646.917 501.456C646.58 501.711 646.411 502.139 646.411 502.74V503.013H648.869ZM653.225 510.401C653.225 511.666 653.644 512.727 654.482 513.582C655.328 514.429 656.357 514.852 657.568 514.852C658.669 514.852 659.639 514.424 660.476 513.569C661.314 512.713 661.733 511.712 661.733 510.564C661.733 509.345 661.309 508.298 660.463 507.424C659.625 506.541 658.642 506.099 657.513 506.099C656.33 506.099 655.319 506.518 654.482 507.355C653.644 508.184 653.225 509.199 653.225 510.401ZM662.129 518.034V516.19C661.71 516.937 661.118 517.488 660.353 517.843C659.598 518.198 658.628 518.375 657.445 518.375C655.224 518.375 653.366 517.62 651.873 516.109C650.39 514.588 649.648 512.704 649.648 510.455C649.648 509.399 649.834 508.398 650.207 507.451C650.581 506.504 651.113 505.671 651.805 504.952C652.552 504.16 653.38 503.578 654.29 503.204C655.201 502.822 656.225 502.631 657.363 502.631C658.455 502.631 659.393 502.813 660.176 503.177C660.968 503.541 661.605 504.092 662.088 504.829V503.013H665.501V518.034H662.129ZM675.593 506.058C674.236 506.167 673.29 506.522 672.752 507.123C672.215 507.724 671.947 508.807 671.947 510.373V518.034H668.451V503.013H671.728V504.747C672.256 504.074 672.834 503.582 673.462 503.273C674.091 502.954 674.801 502.795 675.593 502.795V506.058ZM679.662 510.401C679.662 511.666 680.081 512.727 680.918 513.582C681.765 514.429 682.794 514.852 684.004 514.852C685.106 514.852 686.075 514.424 686.913 513.569C687.75 512.713 688.169 511.712 688.169 510.564C688.169 509.345 687.746 508.298 686.899 507.424C686.062 506.541 685.079 506.099 683.95 506.099C682.766 506.099 681.756 506.518 680.918 507.355C680.081 508.184 679.662 509.199 679.662 510.401ZM688.565 518.034V516.19C688.146 516.937 687.555 517.488 686.79 517.843C686.034 518.198 685.065 518.375 683.881 518.375C681.66 518.375 679.803 517.62 678.31 516.109C676.826 514.588 676.084 512.704 676.084 510.455C676.084 509.399 676.271 508.398 676.644 507.451C677.017 506.504 677.55 505.671 678.242 504.952C678.988 504.16 679.817 503.578 680.727 503.204C681.637 502.822 682.662 502.631 683.8 502.631C684.892 502.631 685.83 502.813 686.613 503.177C687.405 503.541 688.042 504.092 688.524 504.829V503.013H691.938V518.034H688.565Z"
        fill="#373435" />
    <path
        d="M1047.86 248.034H1035.4V244.593L1043.25 231.839H1035.96V228.152H1047.67V231.333L1039.67 244.347H1047.86V248.034ZM1059.62 248.034V246.409C1059.11 247.092 1058.52 247.602 1057.86 247.938C1057.2 248.266 1056.45 248.43 1055.61 248.43C1053.72 248.43 1052.27 247.852 1051.26 246.696C1050.25 245.54 1049.75 243.878 1049.75 241.712V233.013H1053.28V239.759C1053.28 241.789 1053.52 243.177 1053.98 243.924C1054.45 244.67 1055.25 245.043 1056.38 245.043C1057.55 245.043 1058.38 244.625 1058.88 243.787C1059.39 242.95 1059.65 241.529 1059.65 239.527V233.013H1063.09V248.034H1059.62ZM1073.17 236.058C1071.81 236.167 1070.86 236.522 1070.33 237.123C1069.79 237.724 1069.52 238.807 1069.52 240.373V248.034H1066.02V233.013H1069.3V234.747C1069.83 234.074 1070.41 233.582 1071.04 233.273C1071.66 232.954 1072.37 232.795 1073.17 232.795V236.058ZM1078.52 233.013V234.72C1079.03 234.037 1079.61 233.532 1080.27 233.204C1080.93 232.877 1081.69 232.713 1082.53 232.713C1083.74 232.713 1084.78 232.927 1085.63 233.354C1086.5 233.782 1087.24 234.451 1087.86 235.362C1088.45 234.47 1089.12 233.805 1089.85 233.368C1090.59 232.931 1091.41 232.713 1092.3 232.713C1094.14 232.713 1095.55 233.291 1096.53 234.447C1097.51 235.603 1098.01 237.26 1098.01 239.417V248.034H1094.56V241.384C1094.56 239.345 1094.34 237.961 1093.88 237.233C1093.44 236.495 1092.66 236.126 1091.55 236.126C1090.39 236.126 1089.56 236.541 1089.06 237.369C1088.57 238.188 1088.32 239.599 1088.32 241.602V248.034H1084.86V241.384C1084.86 239.354 1084.62 237.97 1084.16 237.233C1083.7 236.495 1082.9 236.126 1081.76 236.126C1080.59 236.126 1079.75 236.541 1079.24 237.369C1078.73 238.188 1078.48 239.599 1078.48 241.602V248.034H1075.11V233.013H1078.52ZM1104.49 231.484H1101.08V228.152H1104.49V231.484ZM1101.08 248.034V233.013H1104.49V248.034H1101.08Z"
        fill="#373435" />
</svg>
