<svg width="16" height="16" viewBox="0 0 16 16" fill="none" xmlns="http://www.w3.org/2000/svg">
<path d="M6.229 7.34545H6.02063C6.51463 6.81736 6.81753 6.10842 6.81753 5.32995C6.81753 3.70167 5.49281 2.37695 3.8645 2.37695C2.23619 2.37695 0.9115 3.70167 0.9115 5.32995C0.9115 6.10842 1.21444 6.81736 1.70841 7.34545H1.5C0.672875 7.34545 0 8.01836 0 8.84549V9.40974C0 10.005 0.48425 10.4892 1.07947 10.4892H2.37706C2.36656 10.5282 2.36044 10.569 2.36044 10.6113C2.36044 10.8702 2.57031 11.08 2.82919 11.08H3.39575V12.2097H2.82919C2.57031 12.2097 2.36044 12.4196 2.36044 12.6785C2.36044 12.9374 2.57031 13.1472 2.82919 13.1472H3.39575V13.1545C3.39575 13.4133 3.60563 13.6232 3.8645 13.6232C4.12337 13.6232 4.33325 13.4133 4.33325 13.1545V13.1472H4.89981C5.15869 13.1472 5.36856 12.9374 5.36856 12.6785C5.36856 12.4196 5.15869 12.2097 4.89981 12.2097H4.33325V11.08H4.89981C5.15869 11.08 5.36856 10.8702 5.36856 10.6113C5.36856 10.569 5.36244 10.5282 5.35194 10.4892H6.64953C7.24475 10.4892 7.729 10.005 7.729 9.40974V8.84549C7.729 8.01836 7.05609 7.34545 6.229 7.34545ZM3.8645 3.31445C4.97584 3.31445 5.88003 4.21861 5.88003 5.32995C5.88003 6.4413 4.97587 7.34545 3.8645 7.34545C2.75313 7.34545 1.849 6.4413 1.849 5.32995C1.849 4.21861 2.75316 3.31445 3.8645 3.31445ZM6.79147 9.4097C6.79147 9.48799 6.72778 9.55167 6.6495 9.55167H1.07947C1.00119 9.55167 0.9375 9.48799 0.9375 9.4097V8.84545C0.9375 8.53527 1.18984 8.28292 1.5 8.28292H6.22897C6.53912 8.28292 6.79147 8.53527 6.79147 8.84545V9.4097Z" fill="white"/>
<path d="M14.5 7.34545H14.2916C14.7856 6.81736 15.0885 6.10842 15.0885 5.32995C15.0885 3.70167 13.7638 2.37695 12.1355 2.37695C10.5072 2.37695 9.18246 3.70167 9.18246 5.32995C9.18246 6.10842 9.4854 6.81736 9.97937 7.34545H9.771C8.94387 7.34545 8.271 8.01836 8.271 8.84549V9.40974C8.271 10.005 8.75525 10.4892 9.35046 10.4892H10.6481C10.6376 10.5282 10.6314 10.569 10.6314 10.6113C10.6314 10.8702 10.8413 11.08 11.1002 11.08H11.6667V12.2097H11.1002C10.8413 12.2097 10.6314 12.4196 10.6314 12.6785C10.6314 12.9374 10.8413 13.1472 11.1002 13.1472H11.6667V13.1545C11.6667 13.4133 11.8766 13.6232 12.1355 13.6232C12.3944 13.6232 12.6042 13.4133 12.6042 13.1545V13.1472H13.1708C13.4297 13.1472 13.6396 12.9374 13.6396 12.6785C13.6396 12.4196 13.4297 12.2097 13.1708 12.2097H12.6042V11.08H13.1708C13.4297 11.08 13.6396 10.8702 13.6396 10.6113C13.6396 10.569 13.6334 10.5282 13.6229 10.4892H14.9205C15.5157 10.4892 16 10.005 16 9.40974V8.84549C16 8.01836 15.3271 7.34545 14.5 7.34545ZM12.1355 3.31445C13.2469 3.31445 14.151 4.21861 14.151 5.32995C14.151 6.4413 13.2468 7.34545 12.1355 7.34545C11.0242 7.34545 10.12 6.4413 10.12 5.32995C10.12 4.21861 11.0241 3.31445 12.1355 3.31445ZM15.0625 9.4097C15.0625 9.48799 14.9988 9.55167 14.9205 9.55167H9.35046C9.27218 9.55167 9.2085 9.48799 9.2085 9.4097V8.84545C9.2085 8.53527 9.46084 8.28292 9.771 8.28292H14.5C14.8102 8.28292 15.0625 8.53527 15.0625 8.84545V9.4097Z" fill="white"/>
</svg>
