<svg width="16" height="16" viewBox="0 0 16 16" fill="none" xmlns="http://www.w3.org/2000/svg">
<g clip-path="url(#clip0)">
<path d="M0.181152 14.9368L0.38856 15.4036L7.83117 12.3176L9.12778 12.4732L9.59451 13.8995L8.97216 14.496C8.7388 14.7034 8.66105 15.0405 8.79071 15.3517L9.05004 16L13.3547 14.3144L13.1213 13.6921C13.0176 13.3808 12.7323 13.1994 12.3953 13.1994H11.5394L11.0727 12.0842L12.2137 11.5138C12.5767 11.3322 12.7323 10.9173 12.6027 10.5542L11.1246 6.58665C10.969 6.1717 10.5281 5.99013 10.1132 6.11979C10.1132 6.11979 10.0873 6.11979 10.0873 6.14575L8.99812 6.61248L8.8425 6.22349L9.43902 5.5234C9.85384 5.05654 10.1132 4.48611 10.191 3.86376L10.943 2.95613C11.4357 2.38557 11.332 1.52985 10.7615 1.03704C10.6578 0.959294 10.5541 0.881547 10.4504 0.829632C10.1651 0.699971 9.87979 0.674013 9.56868 0.751886L9.49081 0.518394C9.36115 0.10358 8.89442 -0.103954 8.50543 0.0516644L3.0337 2.02254C2.61876 2.17816 2.41135 2.61893 2.56697 3.00792V3.03387L2.69663 3.37094C2.02237 3.68218 1.71113 4.46015 1.9445 5.13441C2.12607 5.65306 2.5928 6.01608 3.1374 6.09383L4.35627 6.22349C4.84896 6.58664 5.44535 6.82001 6.04187 6.8718L6.89758 6.94967L7.0532 7.33865C6.87162 7.44236 6.74196 7.62394 6.69018 7.8573L6.5086 8.73897L0.181152 11.3062L0.362729 11.7989L3.99325 10.3468L4.87492 12.9918L0.181152 14.9368ZM12.6027 13.8477L12.6546 14.0032L9.33519 15.3257L9.25744 15.1701C9.23149 15.0664 9.25744 14.9627 9.30936 14.885L10.191 14.0551L11.3061 13.6921H12.3434C12.473 13.6921 12.5509 13.7438 12.6027 13.8477ZM10.969 13.2252L10.0354 13.5364L9.69834 12.5511C9.85384 12.5769 9.9835 12.5511 10.1132 12.4732L10.5541 12.2658L10.969 13.2252ZM10.2688 6.53473C10.3984 6.48281 10.5541 6.53473 10.606 6.66439L10.8134 7.20899L9.54272 7.62394L9.69834 8.11662L10.969 7.70168L11.2801 8.53156L10.0614 8.94638L10.217 9.43919L11.4617 9.02425L11.7729 9.85401L10.58 10.243L10.7356 10.7358L11.9544 10.3209L12.084 10.6579C12.136 10.7876 12.084 10.9173 11.9544 10.9692L9.90575 11.9805C9.85384 12.0065 9.80205 12.0065 9.75013 12.0065L7.98679 11.7989L7.02724 8.92055L7.20882 7.961C7.23478 7.88326 7.28657 7.80539 7.36444 7.77943L10.2688 6.53473ZM10.2428 1.29636C10.6578 1.47794 10.8653 1.97063 10.6837 2.41153C10.6578 2.48927 10.606 2.54119 10.5541 2.61893L10.2428 3.00792C10.217 2.74859 10.1651 2.51523 10.0873 2.25591L9.75013 1.24457C9.93171 1.21862 10.0873 1.24457 10.2428 1.29636ZM2.46314 5.00475C2.30765 4.56385 2.4891 4.09712 2.90404 3.88959L3.26707 4.77139C3.39673 5.0825 3.5783 5.39374 3.78571 5.65306L3.24111 5.60114C2.87808 5.57519 2.56697 5.34182 2.46314 5.00475ZM6.14557 6.37911C5.08232 6.27541 4.14874 5.60114 3.75975 4.58981L3.08562 2.87826C3.0337 2.74859 3.08562 2.59298 3.21528 2.54119L8.68688 0.57031C8.76476 0.544352 8.81654 0.544352 8.89442 0.57031C8.94621 0.596267 8.99812 0.648056 9.02408 0.725929L9.59451 2.43748C9.90575 3.3969 9.69834 4.43419 9.05004 5.1862L8.24611 6.11979L8.47948 6.74214L7.54589 7.13112L7.28657 6.48281L6.14557 6.37911ZM4.48593 10.1393L5.08232 9.90592L5.73063 11.8768L6.22332 11.7212L5.54918 9.69852L6.58647 9.28357L7.46814 11.9028L5.3676 12.7844L4.48593 10.1393Z" fill="white"/>
<path d="M12.9919 4.53794V4.79726H13.5106V4.53794C13.5106 3.81189 14.0811 3.24133 14.8072 3.24133V2.72268C14.0811 2.72268 13.5106 2.15225 13.5106 1.42607V1.16675H12.9919V1.42607C12.9919 2.15225 12.4215 2.72268 11.6953 2.72268V3.24133C12.4215 3.24133 12.9919 3.81189 12.9919 4.53794ZM13.2512 2.35966C13.4069 2.61898 13.6143 2.82651 13.8736 2.98201C13.6143 3.13762 13.4069 3.34516 13.2512 3.60448C13.0956 3.34516 12.8882 3.13762 12.6289 2.98201C12.8882 2.82651 13.0956 2.61898 13.2512 2.35966Z" fill="white"/>
<path d="M1.58177 9.72446V9.98379H2.10041V9.72446C2.10041 8.99841 2.67097 8.42785 3.39703 8.42785V7.90921C2.67097 7.90921 2.10041 7.33877 2.10041 6.61259V6.35327H1.58177V6.61259C1.58177 7.33877 1.01134 7.90921 0.285156 7.90921V8.42785C1.01134 8.42785 1.58177 8.99841 1.58177 9.72446ZM1.84109 7.54618C1.99671 7.8055 2.20412 8.01304 2.46344 8.16853C2.20412 8.32415 1.99671 8.53168 1.84109 8.791C1.68547 8.53168 1.47807 8.32415 1.21874 8.16853C1.47807 8.01304 1.68547 7.8055 1.84109 7.54618Z" fill="white"/>
<path d="M14.5477 6.61259V6.35327H14.029V6.61259C14.029 7.33877 13.4586 7.90921 12.7324 7.90921V8.42785C13.4586 8.42785 14.029 8.99841 14.029 9.72446V9.98379H14.5477V9.72446C14.5477 8.99841 15.1182 8.42785 15.8443 8.42785V7.90921C15.1182 7.90921 14.5477 7.33877 14.5477 6.61259ZM14.2884 8.791C14.1327 8.53168 13.9253 8.32415 13.666 8.16853C13.9253 8.01304 14.1327 7.8055 14.2884 7.54618C14.444 7.8055 14.6514 8.01304 14.9107 8.16853C14.6514 8.32415 14.444 8.53168 14.2884 8.791Z" fill="white"/>
<path d="M7.88346 4.61604L8.24648 4.97906C9.67275 3.55279 8.35019 1.3745 8.27244 1.29663L7.83154 1.58191C7.8575 1.58191 9.02445 3.47504 7.88346 4.61604Z" fill="white"/>
</g>
<defs>
<clipPath id="clip0">
<rect width="16" height="16" fill="white"/>
</clipPath>
</defs>
</svg>
