<svg width="34" height="34" viewBox="0 0 34 34" fill="none" xmlns="http://www.w3.org/2000/svg">
<path fill-rule="evenodd" clip-rule="evenodd" d="M16.4348 23.0019C16.3653 23.6268 16.4348 23.8351 17.0597 24.3211C17.6151 24.8071 18.3788 25.6404 19.0732 26.3347C20.1146 27.3068 20.1841 27.0985 20.1146 28.14C20.0452 28.4872 19.4203 31.82 19.4203 31.82C19.0732 32.5144 19.3509 32.5838 19.698 33.0699C19.9758 33.0699 20.3229 33.1393 20.5312 33.0004L24.2805 30.9868C25.1137 30.5008 27.8909 32.3755 28.7935 32.8615C29.2101 33.0004 29.4878 33.2087 29.9044 32.931C29.9044 32.931 29.9739 32.931 29.9739 32.8615C30.3904 32.5144 29.835 29.0427 29.4878 28.2789C29.4184 28.0706 29.349 27.5845 29.4184 27.3762C29.6961 26.6819 33.862 23.9739 32.9594 22.863C32.6817 22.5158 32.2651 22.6547 31.7791 22.5852C30.9459 22.5158 27.6826 22.1686 27.4049 21.6132L27.0577 20.7105C26.6412 19.8079 26.0857 18.9747 25.6691 18.072C25.5303 17.7943 25.5303 17.4471 25.1831 17.2388C24.8359 17.0305 24.3499 17.0999 24.2111 17.3777C23.5168 18.3497 22.8224 19.9467 22.4059 20.9188C22.267 21.1966 22.0587 21.6132 21.9198 21.752C21.7115 21.8909 21.6421 21.9603 21.4338 22.0298C19.7675 22.2381 17.8234 22.1686 16.4348 23.0019ZM21.5032 28.2094L21.2255 30.1536C21.1561 30.4313 21.0867 30.3619 21.0867 30.8479C21.5032 30.7785 21.9893 30.5008 22.4059 30.223L23.725 29.5981C24.4194 29.251 24.3499 28.9732 25.1831 29.251C25.4608 29.3204 25.4608 29.251 25.6691 29.4593H25.7385C26.4329 29.8064 27.6826 30.7091 28.3769 30.7091C28.3769 30.3619 28.2381 29.9453 28.2381 29.5981C27.8909 27.7928 27.266 27.0985 28.7241 25.9181L30.321 24.3211C30.4599 24.1822 30.5293 24.1822 30.5293 23.9045C30.1821 23.7656 27.6826 23.4879 26.9883 23.349C26.6412 23.2102 26.6412 23.2796 26.5023 22.9324C26.0163 21.8909 25.322 20.2939 24.9054 19.8079C24.1416 19.9467 23.725 22.7935 22.6836 23.4185L22.4059 23.4879C21.5727 23.6962 19.9063 23.6962 19.0732 23.9045C19.0732 24.3211 19.2815 24.2517 19.5592 24.5294C20.7395 25.7098 21.9893 26.4041 21.5032 28.2094Z" fill="black"/>
<path fill-rule="evenodd" clip-rule="evenodd" d="M9.24415 32.5772C9.38137 32.7147 9.58721 32.8522 9.79305 32.8522C10.3419 32.7834 10.3419 32.2336 10.4792 31.9587C10.6164 31.6838 12.7434 25.5669 12.9492 25.4294C13.3609 25.2232 13.9098 25.6356 14.5959 25.1545C14.7331 24.1236 14.047 24.1236 12.8806 24.1923C10.2733 24.3297 11.0967 34.7766 8.07773 26.5291L7.66606 25.5669C7.52883 25.2919 7.46022 24.9483 7.323 24.6734C6.91132 23.8486 6.2252 24.3297 5.40185 23.9861C4.71572 23.7112 4.92156 23.9861 4.0296 23.2988C3.89237 23.2301 3.82376 23.1613 3.68653 23.0239C3.27486 22.6115 2.86318 22.1304 2.65734 21.5118C2.52012 21.0995 2.45151 20.8933 2.38289 20.4809C2.31428 19.9998 2.38289 19.5874 2.38289 19.1751C2.38289 17.1132 2.24567 6.3227 2.45151 5.63541C2.65734 4.53574 3.00041 4.12337 3.75515 3.36735L4.50988 2.81751C5.88213 2.06149 7.04855 2.26768 8.83247 2.26768H24.4075C25.917 2.26768 28.044 2.13022 29.1418 2.68005C29.279 2.74878 29.4848 2.81751 29.6221 2.88624L30.5826 3.64226L31.2002 4.60447C31.2688 4.74193 31.3374 4.94812 31.406 5.08557C31.4746 5.1543 31.5432 5.29176 31.6118 5.42922C31.6804 5.97905 31.6118 14.9826 31.6118 15.8073C31.6118 16.2197 31.5432 19.9998 31.6804 20.2747L31.9549 20.7558C32.1607 21.0307 32.641 20.8246 32.8469 20.6184C33.1213 20.3434 33.0527 19.7936 33.0527 19.3812V10.8588C33.0527 9.48424 33.1899 6.3227 32.9155 5.22303C32.7782 4.46701 32.298 3.5048 31.7491 2.88624L31.6118 2.74878C31.3374 2.40514 30.2396 1.64912 29.6907 1.44293C27.9068 0.686908 28.044 0.961825 25.917 0.961825H8.83247C6.56826 0.961825 4.85295 0.618179 3.06902 2.13022C2.45151 2.61132 2.03983 2.95497 1.69677 3.71099C1.55954 4.05464 1.42232 4.26082 1.21648 4.6732C0.873419 5.77287 0.942032 5.84159 0.942032 7.21618V15.8073C0.942032 17.3881 0.736194 21.0307 1.42232 22.2679C1.90261 23.0239 2.10844 23.5737 3.00041 24.261C4.09821 25.0858 4.23543 25.017 5.47046 25.4294C5.95075 25.5669 6.2252 25.4294 6.43103 25.9105C6.49965 26.2542 6.43103 26.1854 6.56826 26.4603C7.46022 28.5222 8.4208 30.5841 9.24415 32.5772Z" fill="black"/>
<path fill-rule="evenodd" clip-rule="evenodd" d="M10.4204 8.85799H23.6096C24.5713 8.85799 25.8078 9.17062 25.5331 8.04515C25.327 7.67 24.4339 7.73253 23.8157 7.73253H10.2143C9.52733 7.73253 8.49692 7.60747 8.42822 8.29526C8.42822 9.10809 9.59602 8.85799 10.4204 8.85799Z" fill="black"/>
<path fill-rule="evenodd" clip-rule="evenodd" d="M9.45921 16.6301C10.5549 16.6301 16.8553 16.701 17.2662 16.5593C17.6086 16.4884 17.6771 15.9925 17.4717 15.5674C17.2662 15.0715 15.965 15.284 15.2802 15.284H10.0755C9.59617 15.284 9.11679 15.2132 8.84286 15.3549C8.36349 15.5674 8.02108 16.6301 9.45921 16.6301Z" fill="black"/>
<path fill-rule="evenodd" clip-rule="evenodd" d="M10.4204 12.616H23.6096C24.5713 12.616 25.8078 12.9142 25.5331 11.6469C25.327 11.1251 24.4339 11.2742 23.8157 11.2742H10.2143C9.52733 11.2742 8.49692 11.0506 8.42822 11.8705C8.42822 12.9142 9.59602 12.616 10.4204 12.616Z" fill="black"/>
</svg>
