<svg width="34" height="34" viewBox="0 0 34 34" fill="none" xmlns="http://www.w3.org/2000/svg">
<path fill-rule="evenodd" clip-rule="evenodd" d="M16.4348 23.0016C16.3653 23.6265 16.4348 23.8348 17.0597 24.3209C17.6151 24.8069 18.3788 25.6401 19.0732 26.3345C20.1146 27.3065 20.1841 27.0982 20.1146 28.1398C20.0452 28.4869 19.4203 31.8198 19.4203 31.8198C19.0732 32.5141 19.3509 32.5836 19.698 33.0696C19.9758 33.0696 20.3229 33.139 20.5312 33.0002L24.2805 30.9866C25.1137 30.5005 27.8909 32.3753 28.7935 32.8613C29.2101 33.0002 29.4878 33.2085 29.9044 32.9307C29.9044 32.9307 29.9739 32.9307 29.9739 32.8613C30.3904 32.5141 29.835 29.0424 29.4878 28.2786C29.4184 28.0703 29.349 27.5843 29.4184 27.376C29.6961 26.6816 33.862 23.9737 32.9594 22.8627C32.6817 22.5156 32.2651 22.6544 31.7791 22.585C30.9459 22.5156 27.6826 22.1684 27.4049 21.6129L27.0577 20.7103C26.6412 19.8076 26.0857 18.9744 25.6691 18.0718C25.5303 17.794 25.5303 17.4469 25.1831 17.2385C24.8359 17.0302 24.3499 17.0997 24.2111 17.3774C23.5168 18.3495 22.8224 19.9465 22.4059 20.9186C22.267 21.1963 22.0587 21.6129 21.9198 21.7518C21.7115 21.8907 21.6421 21.9601 21.4338 22.0295C19.7675 22.2378 17.8234 22.1684 16.4348 23.0016ZM21.5032 28.2092L21.2255 30.1534C21.1561 30.4311 21.0867 30.3617 21.0867 30.8477C21.5032 30.7783 21.9893 30.5005 22.4059 30.2228L23.725 29.5979C24.4194 29.2507 24.3499 28.973 25.1831 29.2507C25.4608 29.3201 25.4608 29.2507 25.6691 29.459H25.7385C26.4329 29.8062 27.6826 30.7088 28.3769 30.7088C28.3769 30.3617 28.2381 29.9451 28.2381 29.5979C27.8909 27.7926 27.266 27.0982 28.7241 25.9179L30.321 24.3209C30.4599 24.182 30.5293 24.182 30.5293 23.9043C30.1821 23.7654 27.6826 23.4876 26.9883 23.3488C26.6412 23.2099 26.6412 23.2793 26.5023 22.9322C26.0163 21.8907 25.322 20.2937 24.9054 19.8076C24.1416 19.9465 23.725 22.7933 22.6836 23.4182L22.4059 23.4876C21.5727 23.696 19.9063 23.696 19.0732 23.9043C19.0732 24.3209 19.2815 24.2514 19.5592 24.5292C20.7395 25.7096 21.9893 26.4039 21.5032 28.2092Z" fill="white"/>
<path fill-rule="evenodd" clip-rule="evenodd" d="M9.24415 32.5771C9.38137 32.7146 9.58721 32.852 9.79305 32.852C10.3419 32.7833 10.3419 32.2335 10.4792 31.9586C10.6164 31.6836 12.7434 25.5667 12.9492 25.4293C13.3609 25.2231 13.9098 25.6355 14.5959 25.1544C14.7331 24.1234 14.047 24.1234 12.8806 24.1922C10.2733 24.3296 11.0967 34.7764 8.07773 26.5289L7.66606 25.5667C7.52883 25.2918 7.46022 24.9482 7.323 24.6733C6.91132 23.8485 6.2252 24.3296 5.40185 23.986C4.71572 23.7111 4.92156 23.986 4.0296 23.2987C3.89237 23.2299 3.82376 23.1612 3.68653 23.0238C3.27486 22.6114 2.86318 22.1303 2.65734 21.5117C2.52012 21.0993 2.45151 20.8932 2.38289 20.4808C2.31428 19.9997 2.38289 19.5873 2.38289 19.1749C2.38289 17.1131 2.24567 6.32258 2.45151 5.63529C2.65734 4.53562 3.00041 4.12324 3.75515 3.36722L4.50988 2.81739C5.88213 2.06137 7.04855 2.26756 8.83247 2.26756H24.4075C25.917 2.26756 28.044 2.1301 29.1418 2.67993C29.279 2.74866 29.4848 2.81739 29.6221 2.88612L30.5826 3.64214L31.2002 4.60435C31.2688 4.74181 31.3374 4.94799 31.406 5.08545C31.4746 5.15418 31.5432 5.29164 31.6118 5.4291C31.6804 5.97893 31.6118 14.9824 31.6118 15.8072C31.6118 16.2196 31.5432 19.9997 31.6804 20.2746L31.9549 20.7557C32.1607 21.0306 32.641 20.8244 32.8469 20.6182C33.1213 20.3433 33.0527 19.7935 33.0527 19.3811V10.8587C33.0527 9.48412 33.1899 6.32258 32.9155 5.22291C32.7782 4.46689 32.298 3.50468 31.7491 2.88612L31.6118 2.74866C31.3374 2.40501 30.2396 1.64899 29.6907 1.44281C27.9068 0.686786 28.044 0.961703 25.917 0.961703H8.83247C6.56826 0.961703 4.85295 0.618057 3.06902 2.1301C2.45151 2.6112 2.03983 2.95485 1.69677 3.71087C1.55954 4.05451 1.42232 4.2607 1.21648 4.67308C0.873419 5.77274 0.942032 5.84147 0.942032 7.21606V15.8072C0.942032 17.388 0.736194 21.0306 1.42232 22.2677C1.90261 23.0238 2.10844 23.5736 3.00041 24.2609C4.09821 25.0856 4.23543 25.0169 5.47046 25.4293C5.95075 25.5667 6.2252 25.4293 6.43103 25.9104C6.49965 26.254 6.43103 26.1853 6.56826 26.4602C7.46022 28.5221 8.4208 30.584 9.24415 32.5771Z" fill="white"/>
<path fill-rule="evenodd" clip-rule="evenodd" d="M10.4204 8.85786H23.6096C24.5713 8.85786 25.8078 9.17049 25.5331 8.04503C25.327 7.66988 24.4339 7.7324 23.8157 7.7324H10.2143C9.52733 7.7324 8.49692 7.60735 8.42822 8.29513C8.42822 9.10797 9.59602 8.85786 10.4204 8.85786Z" fill="white"/>
<path fill-rule="evenodd" clip-rule="evenodd" d="M9.45921 16.63C10.5549 16.63 16.8553 16.7009 17.2662 16.5592C17.6086 16.4883 17.6771 15.9924 17.4717 15.5673C17.2662 15.0714 15.965 15.2839 15.2802 15.2839H10.0755C9.59617 15.2839 9.11679 15.2131 8.84286 15.3548C8.36349 15.5673 8.02108 16.63 9.45921 16.63Z" fill="white"/>
<path fill-rule="evenodd" clip-rule="evenodd" d="M10.4204 12.616H23.6096C24.5713 12.616 25.8078 12.9142 25.5331 11.6469C25.327 11.1251 24.4339 11.2742 23.8157 11.2742H10.2143C9.52733 11.2742 8.49692 11.0506 8.42822 11.8705C8.42822 12.9142 9.59602 12.616 10.4204 12.616Z" fill="white"/>
</svg>
