<svg width="37" height="24" viewBox="0 0 37 24" fill="none" xmlns="http://www.w3.org/2000/svg">
<path fill-rule="evenodd" clip-rule="evenodd" d="M14.9582 6.97699C14.9582 6.72781 14.2106 6.39557 13.9615 6.1464C14.3768 5.56498 14.2106 5.98028 14.6259 5.7311C17.3669 4.40215 23.0149 2.74096 25.3406 4.73439C25.4237 5.14968 25.2575 5.56498 25.3406 5.98028V6.22946C25.4237 6.97699 25.5067 7.39229 25.7559 8.05676C26.1712 8.88736 26.9187 9.88407 27.7493 10.4655C28.1646 10.7147 29.5766 11.2961 29.9919 11.4622C33.6465 12.7911 37.8826 8.22288 36.7197 4.15297C36.1383 1.49507 33.8957 0.332238 31.487 0C31.0717 0 29.9089 0.0830594 29.3275 0.249178C28.9122 0.415297 28.5799 0.664475 28.1646 0.830594L27.6663 1.16283C27.1679 1.41201 19.3603 -2.2426 11.8019 2.99014C11.1374 3.40544 10.7221 4.06991 9.97462 3.4885C9.3932 2.99014 9.14402 2.6579 8.9779 3.4885C8.72872 4.65133 8.23037 8.8043 8.31343 9.80101C8.39649 10.1332 8.47955 10.0502 8.72872 9.96713C9.55932 9.71795 15.0412 7.30923 14.9582 6.97699ZM31.1548 8.13982C32.899 8.13982 33.8127 6.64475 33.3143 5.06662C32.9821 3.90379 32.2345 3.65461 31.4039 3.4885C31.3209 3.4885 31.3209 3.4885 31.3209 3.4885C28.3307 3.0732 27.8324 7.9737 31.1548 8.13982Z" fill="white"/>
<path fill-rule="evenodd" clip-rule="evenodd" d="M2.33317 22.8414C4.74189 24.5857 6.90144 24.1704 9.14404 22.8414C9.47628 22.5092 9.6424 22.6753 10.0577 22.8414C14.709 24.2534 22.6827 24.0873 26.0051 20.1004L27.6663 20.848C28.1646 20.1004 28.4138 15.0338 28.4969 14.0371C28.1646 13.871 28.0816 13.871 27.6663 14.1202C26.9188 14.6185 22.2674 16.4458 21.9352 17.0272L22.9319 17.7748C21.3538 20.1835 14.709 20.1835 12.2172 19.6852C11.8019 19.6021 11.8019 19.6021 11.3866 19.2699C11.4697 18.9376 11.5528 19.0207 11.4697 18.6054C11.4697 18.2731 11.4697 18.107 11.4697 17.7748C11.3866 16.612 10.9713 15.9475 10.3899 14.8677C8.31345 11.5453 3.24682 11.7114 1.00422 14.7846C-0.740028 17.2764 -0.158612 21.0972 2.33317 22.8414ZM3.496 18.3562C3.496 19.0207 3.82824 19.7682 4.57577 20.2666C4.74189 20.2666 5.15719 20.3496 5.40637 20.4327C7.23367 20.6819 8.39651 18.8546 7.73203 17.2764C7.23367 16.0305 5.40637 15.283 3.99436 16.695C3.57906 17.0272 3.41294 17.8578 3.496 18.3562Z" fill="white"/>
</svg>
